%TF.GenerationSoftware,KiCad,Pcbnew,10.0.3*%
%TF.CreationDate,2026-05-29T12:27:10+03:00*%
%TF.ProjectId,5-way-button-board,352d7761-792d-4627-9574-746f6e2d626f,rev?*%
%TF.SameCoordinates,Original*%
%TF.FileFunction,Legend,Top*%
%TF.FilePolarity,Positive*%
%FSLAX46Y46*%
G04 Gerber Fmt 4.6, Leading zero omitted, Abs format (unit mm)*
G04 Created by KiCad (PCBNEW 10.0.3) date 2026-05-29 12:27:10*
%MOMM*%
%LPD*%
G01*
G04 APERTURE LIST*
%ADD10C,0.150000*%
%ADD11C,0.120000*%
%ADD12C,0.200000*%
%ADD13C,0.100000*%
G04 APERTURE END LIST*
D10*
X160083333Y-85304819D02*
X159750000Y-84828628D01*
X159511905Y-85304819D02*
X159511905Y-84304819D01*
X159511905Y-84304819D02*
X159892857Y-84304819D01*
X159892857Y-84304819D02*
X159988095Y-84352438D01*
X159988095Y-84352438D02*
X160035714Y-84400057D01*
X160035714Y-84400057D02*
X160083333Y-84495295D01*
X160083333Y-84495295D02*
X160083333Y-84638152D01*
X160083333Y-84638152D02*
X160035714Y-84733390D01*
X160035714Y-84733390D02*
X159988095Y-84781009D01*
X159988095Y-84781009D02*
X159892857Y-84828628D01*
X159892857Y-84828628D02*
X159511905Y-84828628D01*
X160416667Y-84304819D02*
X161083333Y-84304819D01*
X161083333Y-84304819D02*
X160654762Y-85304819D01*
X159357142Y-116804819D02*
X159023809Y-116328628D01*
X158785714Y-116804819D02*
X158785714Y-115804819D01*
X158785714Y-115804819D02*
X159166666Y-115804819D01*
X159166666Y-115804819D02*
X159261904Y-115852438D01*
X159261904Y-115852438D02*
X159309523Y-115900057D01*
X159309523Y-115900057D02*
X159357142Y-115995295D01*
X159357142Y-115995295D02*
X159357142Y-116138152D01*
X159357142Y-116138152D02*
X159309523Y-116233390D01*
X159309523Y-116233390D02*
X159261904Y-116281009D01*
X159261904Y-116281009D02*
X159166666Y-116328628D01*
X159166666Y-116328628D02*
X158785714Y-116328628D01*
X159738095Y-115900057D02*
X159785714Y-115852438D01*
X159785714Y-115852438D02*
X159880952Y-115804819D01*
X159880952Y-115804819D02*
X160119047Y-115804819D01*
X160119047Y-115804819D02*
X160214285Y-115852438D01*
X160214285Y-115852438D02*
X160261904Y-115900057D01*
X160261904Y-115900057D02*
X160309523Y-115995295D01*
X160309523Y-115995295D02*
X160309523Y-116090533D01*
X160309523Y-116090533D02*
X160261904Y-116233390D01*
X160261904Y-116233390D02*
X159690476Y-116804819D01*
X159690476Y-116804819D02*
X160309523Y-116804819D01*
X160928571Y-115804819D02*
X161023809Y-115804819D01*
X161023809Y-115804819D02*
X161119047Y-115852438D01*
X161119047Y-115852438D02*
X161166666Y-115900057D01*
X161166666Y-115900057D02*
X161214285Y-115995295D01*
X161214285Y-115995295D02*
X161261904Y-116185771D01*
X161261904Y-116185771D02*
X161261904Y-116423866D01*
X161261904Y-116423866D02*
X161214285Y-116614342D01*
X161214285Y-116614342D02*
X161166666Y-116709580D01*
X161166666Y-116709580D02*
X161119047Y-116757200D01*
X161119047Y-116757200D02*
X161023809Y-116804819D01*
X161023809Y-116804819D02*
X160928571Y-116804819D01*
X160928571Y-116804819D02*
X160833333Y-116757200D01*
X160833333Y-116757200D02*
X160785714Y-116709580D01*
X160785714Y-116709580D02*
X160738095Y-116614342D01*
X160738095Y-116614342D02*
X160690476Y-116423866D01*
X160690476Y-116423866D02*
X160690476Y-116185771D01*
X160690476Y-116185771D02*
X160738095Y-115995295D01*
X160738095Y-115995295D02*
X160785714Y-115900057D01*
X160785714Y-115900057D02*
X160833333Y-115852438D01*
X160833333Y-115852438D02*
X160928571Y-115804819D01*
X159857142Y-109054819D02*
X159523809Y-108578628D01*
X159285714Y-109054819D02*
X159285714Y-108054819D01*
X159285714Y-108054819D02*
X159666666Y-108054819D01*
X159666666Y-108054819D02*
X159761904Y-108102438D01*
X159761904Y-108102438D02*
X159809523Y-108150057D01*
X159809523Y-108150057D02*
X159857142Y-108245295D01*
X159857142Y-108245295D02*
X159857142Y-108388152D01*
X159857142Y-108388152D02*
X159809523Y-108483390D01*
X159809523Y-108483390D02*
X159761904Y-108531009D01*
X159761904Y-108531009D02*
X159666666Y-108578628D01*
X159666666Y-108578628D02*
X159285714Y-108578628D01*
X160238095Y-108150057D02*
X160285714Y-108102438D01*
X160285714Y-108102438D02*
X160380952Y-108054819D01*
X160380952Y-108054819D02*
X160619047Y-108054819D01*
X160619047Y-108054819D02*
X160714285Y-108102438D01*
X160714285Y-108102438D02*
X160761904Y-108150057D01*
X160761904Y-108150057D02*
X160809523Y-108245295D01*
X160809523Y-108245295D02*
X160809523Y-108340533D01*
X160809523Y-108340533D02*
X160761904Y-108483390D01*
X160761904Y-108483390D02*
X160190476Y-109054819D01*
X160190476Y-109054819D02*
X160809523Y-109054819D01*
X161761904Y-109054819D02*
X161190476Y-109054819D01*
X161476190Y-109054819D02*
X161476190Y-108054819D01*
X161476190Y-108054819D02*
X161380952Y-108197676D01*
X161380952Y-108197676D02*
X161285714Y-108292914D01*
X161285714Y-108292914D02*
X161190476Y-108340533D01*
X164607142Y-88804819D02*
X164273809Y-88328628D01*
X164035714Y-88804819D02*
X164035714Y-87804819D01*
X164035714Y-87804819D02*
X164416666Y-87804819D01*
X164416666Y-87804819D02*
X164511904Y-87852438D01*
X164511904Y-87852438D02*
X164559523Y-87900057D01*
X164559523Y-87900057D02*
X164607142Y-87995295D01*
X164607142Y-87995295D02*
X164607142Y-88138152D01*
X164607142Y-88138152D02*
X164559523Y-88233390D01*
X164559523Y-88233390D02*
X164511904Y-88281009D01*
X164511904Y-88281009D02*
X164416666Y-88328628D01*
X164416666Y-88328628D02*
X164035714Y-88328628D01*
X165559523Y-88804819D02*
X164988095Y-88804819D01*
X165273809Y-88804819D02*
X165273809Y-87804819D01*
X165273809Y-87804819D02*
X165178571Y-87947676D01*
X165178571Y-87947676D02*
X165083333Y-88042914D01*
X165083333Y-88042914D02*
X164988095Y-88090533D01*
X166511904Y-88804819D02*
X165940476Y-88804819D01*
X166226190Y-88804819D02*
X166226190Y-87804819D01*
X166226190Y-87804819D02*
X166130952Y-87947676D01*
X166130952Y-87947676D02*
X166035714Y-88042914D01*
X166035714Y-88042914D02*
X165940476Y-88090533D01*
X160083333Y-88804819D02*
X159750000Y-88328628D01*
X159511905Y-88804819D02*
X159511905Y-87804819D01*
X159511905Y-87804819D02*
X159892857Y-87804819D01*
X159892857Y-87804819D02*
X159988095Y-87852438D01*
X159988095Y-87852438D02*
X160035714Y-87900057D01*
X160035714Y-87900057D02*
X160083333Y-87995295D01*
X160083333Y-87995295D02*
X160083333Y-88138152D01*
X160083333Y-88138152D02*
X160035714Y-88233390D01*
X160035714Y-88233390D02*
X159988095Y-88281009D01*
X159988095Y-88281009D02*
X159892857Y-88328628D01*
X159892857Y-88328628D02*
X159511905Y-88328628D01*
X160559524Y-88804819D02*
X160750000Y-88804819D01*
X160750000Y-88804819D02*
X160845238Y-88757200D01*
X160845238Y-88757200D02*
X160892857Y-88709580D01*
X160892857Y-88709580D02*
X160988095Y-88566723D01*
X160988095Y-88566723D02*
X161035714Y-88376247D01*
X161035714Y-88376247D02*
X161035714Y-87995295D01*
X161035714Y-87995295D02*
X160988095Y-87900057D01*
X160988095Y-87900057D02*
X160940476Y-87852438D01*
X160940476Y-87852438D02*
X160845238Y-87804819D01*
X160845238Y-87804819D02*
X160654762Y-87804819D01*
X160654762Y-87804819D02*
X160559524Y-87852438D01*
X160559524Y-87852438D02*
X160511905Y-87900057D01*
X160511905Y-87900057D02*
X160464286Y-87995295D01*
X160464286Y-87995295D02*
X160464286Y-88233390D01*
X160464286Y-88233390D02*
X160511905Y-88328628D01*
X160511905Y-88328628D02*
X160559524Y-88376247D01*
X160559524Y-88376247D02*
X160654762Y-88423866D01*
X160654762Y-88423866D02*
X160845238Y-88423866D01*
X160845238Y-88423866D02*
X160940476Y-88376247D01*
X160940476Y-88376247D02*
X160988095Y-88328628D01*
X160988095Y-88328628D02*
X161035714Y-88233390D01*
X133666667Y-86907200D02*
X133809524Y-86954819D01*
X133809524Y-86954819D02*
X134047619Y-86954819D01*
X134047619Y-86954819D02*
X134142857Y-86907200D01*
X134142857Y-86907200D02*
X134190476Y-86859580D01*
X134190476Y-86859580D02*
X134238095Y-86764342D01*
X134238095Y-86764342D02*
X134238095Y-86669104D01*
X134238095Y-86669104D02*
X134190476Y-86573866D01*
X134190476Y-86573866D02*
X134142857Y-86526247D01*
X134142857Y-86526247D02*
X134047619Y-86478628D01*
X134047619Y-86478628D02*
X133857143Y-86431009D01*
X133857143Y-86431009D02*
X133761905Y-86383390D01*
X133761905Y-86383390D02*
X133714286Y-86335771D01*
X133714286Y-86335771D02*
X133666667Y-86240533D01*
X133666667Y-86240533D02*
X133666667Y-86145295D01*
X133666667Y-86145295D02*
X133714286Y-86050057D01*
X133714286Y-86050057D02*
X133761905Y-86002438D01*
X133761905Y-86002438D02*
X133857143Y-85954819D01*
X133857143Y-85954819D02*
X134095238Y-85954819D01*
X134095238Y-85954819D02*
X134238095Y-86002438D01*
X134571429Y-85954819D02*
X134809524Y-86954819D01*
X134809524Y-86954819D02*
X135000000Y-86240533D01*
X135000000Y-86240533D02*
X135190476Y-86954819D01*
X135190476Y-86954819D02*
X135428572Y-85954819D01*
X136238095Y-85954819D02*
X136047619Y-85954819D01*
X136047619Y-85954819D02*
X135952381Y-86002438D01*
X135952381Y-86002438D02*
X135904762Y-86050057D01*
X135904762Y-86050057D02*
X135809524Y-86192914D01*
X135809524Y-86192914D02*
X135761905Y-86383390D01*
X135761905Y-86383390D02*
X135761905Y-86764342D01*
X135761905Y-86764342D02*
X135809524Y-86859580D01*
X135809524Y-86859580D02*
X135857143Y-86907200D01*
X135857143Y-86907200D02*
X135952381Y-86954819D01*
X135952381Y-86954819D02*
X136142857Y-86954819D01*
X136142857Y-86954819D02*
X136238095Y-86907200D01*
X136238095Y-86907200D02*
X136285714Y-86859580D01*
X136285714Y-86859580D02*
X136333333Y-86764342D01*
X136333333Y-86764342D02*
X136333333Y-86526247D01*
X136333333Y-86526247D02*
X136285714Y-86431009D01*
X136285714Y-86431009D02*
X136238095Y-86383390D01*
X136238095Y-86383390D02*
X136142857Y-86335771D01*
X136142857Y-86335771D02*
X135952381Y-86335771D01*
X135952381Y-86335771D02*
X135857143Y-86383390D01*
X135857143Y-86383390D02*
X135809524Y-86431009D01*
X135809524Y-86431009D02*
X135761905Y-86526247D01*
%TO.C,R7*%
D11*
X160022936Y-85765000D02*
X160477064Y-85765000D01*
X160022936Y-87235000D02*
X160477064Y-87235000D01*
%TO.C,R20*%
X159772936Y-117265000D02*
X160227064Y-117265000D01*
X159772936Y-118735000D02*
X160227064Y-118735000D01*
%TO.C,R21*%
X160272936Y-109515000D02*
X160727064Y-109515000D01*
X160272936Y-110985000D02*
X160727064Y-110985000D01*
%TO.C,R11*%
X165022936Y-89265000D02*
X165477064Y-89265000D01*
X165022936Y-90735000D02*
X165477064Y-90735000D01*
%TO.C,R9*%
X160022936Y-89265000D02*
X160477064Y-89265000D01*
X160022936Y-90735000D02*
X160477064Y-90735000D01*
%TO.C,SW6*%
D12*
X131100000Y-98566000D02*
X131100000Y-97550000D01*
X141692000Y-98108000D02*
X142708000Y-98108000D01*
X142200000Y-98616000D02*
X142200000Y-97600000D01*
X151384000Y-92200000D02*
X152400000Y-92200000D01*
X151384000Y-105450000D02*
X152400000Y-105450000D01*
X151384000Y-118700000D02*
X152400000Y-118700000D01*
X151434000Y-81100000D02*
X152450000Y-81100000D01*
X151434000Y-94350000D02*
X152450000Y-94350000D01*
X151434000Y-107600000D02*
X152450000Y-107600000D01*
X151892000Y-91692000D02*
X151892000Y-92708000D01*
X151892000Y-104942000D02*
X151892000Y-105958000D01*
X151892000Y-118192000D02*
X151892000Y-119208000D01*
X157600000Y-98566000D02*
X157600000Y-97550000D01*
X168192000Y-98108000D02*
X169208000Y-98108000D01*
X168700000Y-98616000D02*
X168700000Y-97600000D01*
D13*
X168000000Y-100000000D02*
G75*
G02*
X132000000Y-100000000I-18000000J0D01*
G01*
X132000000Y-100000000D02*
G75*
G02*
X168000000Y-100000000I18000000J0D01*
G01*
%TD*%
M02*
