%TF.GenerationSoftware,KiCad,Pcbnew,10.0.3*%
%TF.CreationDate,2026-05-29T12:27:10+03:00*%
%TF.ProjectId,5-way-button-board,352d7761-792d-4627-9574-746f6e2d626f,rev?*%
%TF.SameCoordinates,Original*%
%TF.FileFunction,Soldermask,Bot*%
%TF.FilePolarity,Negative*%
%FSLAX46Y46*%
G04 Gerber Fmt 4.6, Leading zero omitted, Abs format (unit mm)*
G04 Created by KiCad (PCBNEW 10.0.3) date 2026-05-29 12:27:10*
%MOMM*%
%LPD*%
G01*
G04 APERTURE LIST*
%ADD10C,3.200000*%
%ADD11C,2.000000*%
%ADD12R,1.600000X1.600000*%
%ADD13C,1.600000*%
%ADD14R,1.700000X1.700000*%
%ADD15C,1.700000*%
G04 APERTURE END LIST*
D10*
%TO.C,H3*%
X133000000Y-117000000D03*
%TD*%
%TO.C,H4*%
X167000000Y-117000000D03*
%TD*%
%TO.C,H2*%
X167000000Y-83000000D03*
%TD*%
%TO.C,H1*%
X133000000Y-83000000D03*
%TD*%
D11*
%TO.C,SW6*%
X143750000Y-84250000D03*
X156250000Y-84250000D03*
X143750000Y-89250000D03*
X156250000Y-89250000D03*
D12*
X150000000Y-81250000D03*
D13*
X150000000Y-92250000D03*
D11*
X143750000Y-110750000D03*
X156250000Y-110750000D03*
X143750000Y-115750000D03*
X156250000Y-115750000D03*
D12*
X150000000Y-107750000D03*
D13*
X150000000Y-118750000D03*
D11*
X134250000Y-93750000D03*
X134250000Y-106250000D03*
X139250000Y-93750000D03*
X139250000Y-106250000D03*
D12*
X131250000Y-100000000D03*
D13*
X142250000Y-100000000D03*
D11*
X160750000Y-93750000D03*
X160750000Y-106250000D03*
X165750000Y-93750000D03*
X165750000Y-106250000D03*
D12*
X157750000Y-100000000D03*
D13*
X168750000Y-100000000D03*
D11*
X143750000Y-97500000D03*
X156250000Y-97500000D03*
X143750000Y-102500000D03*
X156250000Y-102500000D03*
D12*
X150000000Y-94500000D03*
D13*
X150000000Y-105500000D03*
%TD*%
D14*
%TO.C,J3*%
X170500000Y-86030000D03*
D15*
X170500000Y-88570000D03*
X170500000Y-91110000D03*
X170500000Y-93650000D03*
X170500000Y-96190000D03*
X170500000Y-98730000D03*
X170500000Y-101270000D03*
X170500000Y-103810000D03*
X170500000Y-106350000D03*
X170500000Y-108890000D03*
X170500000Y-111430000D03*
X170500000Y-113970000D03*
%TD*%
M02*
