M48
; DRILL file KiCad 10.0.3 date 2026-05-29T12:27:13
; FORMAT={-:-/ absolute / metric / decimal}
; #@! TF.CreationDate,2026-05-29T12:27:13+03:00
; #@! TF.GenerationSoftware,Kicad,Pcbnew,10.0.3
; #@! TF.FileFunction,MixedPlating,1,2
FMAT,2
METRIC
; #@! TA.AperFunction,Plated,PTH,ComponentDrill
T1C0.900
; #@! TA.AperFunction,Plated,PTH,ComponentDrill
T2C1.000
; #@! TA.AperFunction,Plated,PTH,ComponentDrill
T3C1.100
; #@! TA.AperFunction,NonPlated,NPTH,ComponentDrill
T4C3.200
%
G90
G05
T1
X131.25Y-100.0
X142.25Y-100.0
X150.0Y-81.25
X150.0Y-92.25
X150.0Y-94.5
X150.0Y-105.5
X150.0Y-107.75
X150.0Y-118.75
X157.75Y-100.0
X168.75Y-100.0
T2
X170.5Y-86.03
X170.5Y-88.57
X170.5Y-91.11
X170.5Y-93.65
X170.5Y-96.19
X170.5Y-98.73
X170.5Y-101.27
X170.5Y-103.81
X170.5Y-106.35
X170.5Y-108.89
X170.5Y-111.43
X170.5Y-113.97
T3
X134.25Y-93.75
X134.25Y-106.25
X139.25Y-93.75
X139.25Y-106.25
X143.75Y-84.25
X143.75Y-89.25
X143.75Y-97.5
X143.75Y-102.5
X143.75Y-110.75
X143.75Y-115.75
X156.25Y-84.25
X156.25Y-89.25
X156.25Y-97.5
X156.25Y-102.5
X156.25Y-110.75
X156.25Y-115.75
X160.75Y-93.75
X160.75Y-106.25
X165.75Y-93.75
X165.75Y-106.25
T4
X133.0Y-83.0
X133.0Y-117.0
X167.0Y-83.0
X167.0Y-117.0
M30
