%TF.GenerationSoftware,KiCad,Pcbnew,10.0.3*%
%TF.CreationDate,2026-05-29T12:27:10+03:00*%
%TF.ProjectId,5-way-button-board,352d7761-792d-4627-9574-746f6e2d626f,rev?*%
%TF.SameCoordinates,Original*%
%TF.FileFunction,Legend,Bot*%
%TF.FilePolarity,Positive*%
%FSLAX46Y46*%
G04 Gerber Fmt 4.6, Leading zero omitted, Abs format (unit mm)*
G04 Created by KiCad (PCBNEW 10.0.3) date 2026-05-29 12:27:10*
%MOMM*%
%LPD*%
G01*
G04 APERTURE LIST*
%ADD10C,0.100000*%
%ADD11C,0.200000*%
%ADD12C,0.150000*%
%ADD13C,0.120000*%
G04 APERTURE END LIST*
D10*
X150630877Y-113003561D02*
X150630877Y-113651180D01*
X150630877Y-113651180D02*
X150668972Y-113727371D01*
X150668972Y-113727371D02*
X150707068Y-113765466D01*
X150707068Y-113765466D02*
X150783258Y-113803561D01*
X150783258Y-113803561D02*
X150897544Y-113803561D01*
X150897544Y-113803561D02*
X150973734Y-113765466D01*
X150630877Y-113498800D02*
X150707068Y-113536895D01*
X150707068Y-113536895D02*
X150859449Y-113536895D01*
X150859449Y-113536895D02*
X150935639Y-113498800D01*
X150935639Y-113498800D02*
X150973734Y-113460704D01*
X150973734Y-113460704D02*
X151011830Y-113384514D01*
X151011830Y-113384514D02*
X151011830Y-113155942D01*
X151011830Y-113155942D02*
X150973734Y-113079752D01*
X150973734Y-113079752D02*
X150935639Y-113041657D01*
X150935639Y-113041657D02*
X150859449Y-113003561D01*
X150859449Y-113003561D02*
X150707068Y-113003561D01*
X150707068Y-113003561D02*
X150630877Y-113041657D01*
X150249924Y-113536895D02*
X150249924Y-113003561D01*
X150249924Y-112736895D02*
X150288020Y-112774990D01*
X150288020Y-112774990D02*
X150249924Y-112813085D01*
X150249924Y-112813085D02*
X150211829Y-112774990D01*
X150211829Y-112774990D02*
X150249924Y-112736895D01*
X150249924Y-112736895D02*
X150249924Y-112813085D01*
X149983258Y-113003561D02*
X149678496Y-113003561D01*
X149868972Y-112736895D02*
X149868972Y-113422609D01*
X149868972Y-113422609D02*
X149830877Y-113498800D01*
X149830877Y-113498800D02*
X149754687Y-113536895D01*
X149754687Y-113536895D02*
X149678496Y-113536895D01*
X149411829Y-113536895D02*
X149411829Y-112736895D01*
X149068972Y-113536895D02*
X149068972Y-113117847D01*
X149068972Y-113117847D02*
X149107067Y-113041657D01*
X149107067Y-113041657D02*
X149183258Y-113003561D01*
X149183258Y-113003561D02*
X149297544Y-113003561D01*
X149297544Y-113003561D02*
X149373734Y-113041657D01*
X149373734Y-113041657D02*
X149411829Y-113079752D01*
X148345162Y-113003561D02*
X148345162Y-113536895D01*
X148688019Y-113003561D02*
X148688019Y-113422609D01*
X148688019Y-113422609D02*
X148649924Y-113498800D01*
X148649924Y-113498800D02*
X148573734Y-113536895D01*
X148573734Y-113536895D02*
X148459448Y-113536895D01*
X148459448Y-113536895D02*
X148383257Y-113498800D01*
X148383257Y-113498800D02*
X148345162Y-113460704D01*
X147964209Y-113536895D02*
X147964209Y-112736895D01*
X147964209Y-113041657D02*
X147888019Y-113003561D01*
X147888019Y-113003561D02*
X147735638Y-113003561D01*
X147735638Y-113003561D02*
X147659447Y-113041657D01*
X147659447Y-113041657D02*
X147621352Y-113079752D01*
X147621352Y-113079752D02*
X147583257Y-113155942D01*
X147583257Y-113155942D02*
X147583257Y-113384514D01*
X147583257Y-113384514D02*
X147621352Y-113460704D01*
X147621352Y-113460704D02*
X147659447Y-113498800D01*
X147659447Y-113498800D02*
X147735638Y-113536895D01*
X147735638Y-113536895D02*
X147888019Y-113536895D01*
X147888019Y-113536895D02*
X147964209Y-113498800D01*
X147240399Y-113460704D02*
X147202304Y-113498800D01*
X147202304Y-113498800D02*
X147240399Y-113536895D01*
X147240399Y-113536895D02*
X147278495Y-113498800D01*
X147278495Y-113498800D02*
X147240399Y-113460704D01*
X147240399Y-113460704D02*
X147240399Y-113536895D01*
X146516590Y-113498800D02*
X146592781Y-113536895D01*
X146592781Y-113536895D02*
X146745162Y-113536895D01*
X146745162Y-113536895D02*
X146821352Y-113498800D01*
X146821352Y-113498800D02*
X146859447Y-113460704D01*
X146859447Y-113460704D02*
X146897543Y-113384514D01*
X146897543Y-113384514D02*
X146897543Y-113155942D01*
X146897543Y-113155942D02*
X146859447Y-113079752D01*
X146859447Y-113079752D02*
X146821352Y-113041657D01*
X146821352Y-113041657D02*
X146745162Y-113003561D01*
X146745162Y-113003561D02*
X146592781Y-113003561D01*
X146592781Y-113003561D02*
X146516590Y-113041657D01*
X146059448Y-113536895D02*
X146135638Y-113498800D01*
X146135638Y-113498800D02*
X146173733Y-113460704D01*
X146173733Y-113460704D02*
X146211829Y-113384514D01*
X146211829Y-113384514D02*
X146211829Y-113155942D01*
X146211829Y-113155942D02*
X146173733Y-113079752D01*
X146173733Y-113079752D02*
X146135638Y-113041657D01*
X146135638Y-113041657D02*
X146059448Y-113003561D01*
X146059448Y-113003561D02*
X145945162Y-113003561D01*
X145945162Y-113003561D02*
X145868971Y-113041657D01*
X145868971Y-113041657D02*
X145830876Y-113079752D01*
X145830876Y-113079752D02*
X145792781Y-113155942D01*
X145792781Y-113155942D02*
X145792781Y-113384514D01*
X145792781Y-113384514D02*
X145830876Y-113460704D01*
X145830876Y-113460704D02*
X145868971Y-113498800D01*
X145868971Y-113498800D02*
X145945162Y-113536895D01*
X145945162Y-113536895D02*
X146059448Y-113536895D01*
X145449923Y-113536895D02*
X145449923Y-113003561D01*
X145449923Y-113079752D02*
X145411828Y-113041657D01*
X145411828Y-113041657D02*
X145335638Y-113003561D01*
X145335638Y-113003561D02*
X145221352Y-113003561D01*
X145221352Y-113003561D02*
X145145161Y-113041657D01*
X145145161Y-113041657D02*
X145107066Y-113117847D01*
X145107066Y-113117847D02*
X145107066Y-113536895D01*
X145107066Y-113117847D02*
X145068971Y-113041657D01*
X145068971Y-113041657D02*
X144992780Y-113003561D01*
X144992780Y-113003561D02*
X144878495Y-113003561D01*
X144878495Y-113003561D02*
X144802304Y-113041657D01*
X144802304Y-113041657D02*
X144764209Y-113117847D01*
X144764209Y-113117847D02*
X144764209Y-113536895D01*
X143811828Y-112698800D02*
X144497542Y-113727371D01*
X143545161Y-113536895D02*
X143545161Y-113003561D01*
X143545161Y-113079752D02*
X143507066Y-113041657D01*
X143507066Y-113041657D02*
X143430876Y-113003561D01*
X143430876Y-113003561D02*
X143316590Y-113003561D01*
X143316590Y-113003561D02*
X143240399Y-113041657D01*
X143240399Y-113041657D02*
X143202304Y-113117847D01*
X143202304Y-113117847D02*
X143202304Y-113536895D01*
X143202304Y-113117847D02*
X143164209Y-113041657D01*
X143164209Y-113041657D02*
X143088018Y-113003561D01*
X143088018Y-113003561D02*
X142973733Y-113003561D01*
X142973733Y-113003561D02*
X142897542Y-113041657D01*
X142897542Y-113041657D02*
X142859447Y-113117847D01*
X142859447Y-113117847D02*
X142859447Y-113536895D01*
X142135637Y-113536895D02*
X142135637Y-113117847D01*
X142135637Y-113117847D02*
X142173732Y-113041657D01*
X142173732Y-113041657D02*
X142249923Y-113003561D01*
X142249923Y-113003561D02*
X142402304Y-113003561D01*
X142402304Y-113003561D02*
X142478494Y-113041657D01*
X142135637Y-113498800D02*
X142211828Y-113536895D01*
X142211828Y-113536895D02*
X142402304Y-113536895D01*
X142402304Y-113536895D02*
X142478494Y-113498800D01*
X142478494Y-113498800D02*
X142516590Y-113422609D01*
X142516590Y-113422609D02*
X142516590Y-113346419D01*
X142516590Y-113346419D02*
X142478494Y-113270228D01*
X142478494Y-113270228D02*
X142402304Y-113232133D01*
X142402304Y-113232133D02*
X142211828Y-113232133D01*
X142211828Y-113232133D02*
X142135637Y-113194038D01*
X141754684Y-113536895D02*
X141754684Y-113003561D01*
X141754684Y-113155942D02*
X141716589Y-113079752D01*
X141716589Y-113079752D02*
X141678494Y-113041657D01*
X141678494Y-113041657D02*
X141602303Y-113003561D01*
X141602303Y-113003561D02*
X141526113Y-113003561D01*
X141107065Y-112736895D02*
X141030875Y-112736895D01*
X141030875Y-112736895D02*
X140954684Y-112774990D01*
X140954684Y-112774990D02*
X140916589Y-112813085D01*
X140916589Y-112813085D02*
X140878494Y-112889276D01*
X140878494Y-112889276D02*
X140840399Y-113041657D01*
X140840399Y-113041657D02*
X140840399Y-113232133D01*
X140840399Y-113232133D02*
X140878494Y-113384514D01*
X140878494Y-113384514D02*
X140916589Y-113460704D01*
X140916589Y-113460704D02*
X140954684Y-113498800D01*
X140954684Y-113498800D02*
X141030875Y-113536895D01*
X141030875Y-113536895D02*
X141107065Y-113536895D01*
X141107065Y-113536895D02*
X141183256Y-113498800D01*
X141183256Y-113498800D02*
X141221351Y-113460704D01*
X141221351Y-113460704D02*
X141259446Y-113384514D01*
X141259446Y-113384514D02*
X141297542Y-113232133D01*
X141297542Y-113232133D02*
X141297542Y-113041657D01*
X141297542Y-113041657D02*
X141259446Y-112889276D01*
X141259446Y-112889276D02*
X141221351Y-112813085D01*
X141221351Y-112813085D02*
X141183256Y-112774990D01*
X141183256Y-112774990D02*
X141107065Y-112736895D01*
X140573732Y-113536895D02*
X140154684Y-113003561D01*
X140573732Y-113003561D02*
X140154684Y-113536895D01*
X139278494Y-112698800D02*
X139964208Y-113727371D01*
X139011827Y-113536895D02*
X139011827Y-113003561D01*
X139011827Y-113079752D02*
X138973732Y-113041657D01*
X138973732Y-113041657D02*
X138897542Y-113003561D01*
X138897542Y-113003561D02*
X138783256Y-113003561D01*
X138783256Y-113003561D02*
X138707065Y-113041657D01*
X138707065Y-113041657D02*
X138668970Y-113117847D01*
X138668970Y-113117847D02*
X138668970Y-113536895D01*
X138668970Y-113117847D02*
X138630875Y-113041657D01*
X138630875Y-113041657D02*
X138554684Y-113003561D01*
X138554684Y-113003561D02*
X138440399Y-113003561D01*
X138440399Y-113003561D02*
X138364208Y-113041657D01*
X138364208Y-113041657D02*
X138326113Y-113117847D01*
X138326113Y-113117847D02*
X138326113Y-113536895D01*
X137945160Y-113536895D02*
X137945160Y-113003561D01*
X137945160Y-112736895D02*
X137983256Y-112774990D01*
X137983256Y-112774990D02*
X137945160Y-112813085D01*
X137945160Y-112813085D02*
X137907065Y-112774990D01*
X137907065Y-112774990D02*
X137945160Y-112736895D01*
X137945160Y-112736895D02*
X137945160Y-112813085D01*
X137221351Y-113536895D02*
X137221351Y-112736895D01*
X137221351Y-113498800D02*
X137297542Y-113536895D01*
X137297542Y-113536895D02*
X137449923Y-113536895D01*
X137449923Y-113536895D02*
X137526113Y-113498800D01*
X137526113Y-113498800D02*
X137564208Y-113460704D01*
X137564208Y-113460704D02*
X137602304Y-113384514D01*
X137602304Y-113384514D02*
X137602304Y-113155942D01*
X137602304Y-113155942D02*
X137564208Y-113079752D01*
X137564208Y-113079752D02*
X137526113Y-113041657D01*
X137526113Y-113041657D02*
X137449923Y-113003561D01*
X137449923Y-113003561D02*
X137297542Y-113003561D01*
X137297542Y-113003561D02*
X137221351Y-113041657D01*
X136840398Y-113536895D02*
X136840398Y-113003561D01*
X136840398Y-112736895D02*
X136878494Y-112774990D01*
X136878494Y-112774990D02*
X136840398Y-112813085D01*
X136840398Y-112813085D02*
X136802303Y-112774990D01*
X136802303Y-112774990D02*
X136840398Y-112736895D01*
X136840398Y-112736895D02*
X136840398Y-112813085D01*
X136649923Y-113613085D02*
X136040399Y-113613085D01*
X135507065Y-113498800D02*
X135583256Y-113536895D01*
X135583256Y-113536895D02*
X135735637Y-113536895D01*
X135735637Y-113536895D02*
X135811827Y-113498800D01*
X135811827Y-113498800D02*
X135849922Y-113460704D01*
X135849922Y-113460704D02*
X135888018Y-113384514D01*
X135888018Y-113384514D02*
X135888018Y-113155942D01*
X135888018Y-113155942D02*
X135849922Y-113079752D01*
X135849922Y-113079752D02*
X135811827Y-113041657D01*
X135811827Y-113041657D02*
X135735637Y-113003561D01*
X135735637Y-113003561D02*
X135583256Y-113003561D01*
X135583256Y-113003561D02*
X135507065Y-113041657D01*
X135049923Y-113536895D02*
X135126113Y-113498800D01*
X135126113Y-113498800D02*
X135164208Y-113460704D01*
X135164208Y-113460704D02*
X135202304Y-113384514D01*
X135202304Y-113384514D02*
X135202304Y-113155942D01*
X135202304Y-113155942D02*
X135164208Y-113079752D01*
X135164208Y-113079752D02*
X135126113Y-113041657D01*
X135126113Y-113041657D02*
X135049923Y-113003561D01*
X135049923Y-113003561D02*
X134935637Y-113003561D01*
X134935637Y-113003561D02*
X134859446Y-113041657D01*
X134859446Y-113041657D02*
X134821351Y-113079752D01*
X134821351Y-113079752D02*
X134783256Y-113155942D01*
X134783256Y-113155942D02*
X134783256Y-113384514D01*
X134783256Y-113384514D02*
X134821351Y-113460704D01*
X134821351Y-113460704D02*
X134859446Y-113498800D01*
X134859446Y-113498800D02*
X134935637Y-113536895D01*
X134935637Y-113536895D02*
X135049923Y-113536895D01*
X134440398Y-113003561D02*
X134440398Y-113536895D01*
X134440398Y-113079752D02*
X134402303Y-113041657D01*
X134402303Y-113041657D02*
X134326113Y-113003561D01*
X134326113Y-113003561D02*
X134211827Y-113003561D01*
X134211827Y-113003561D02*
X134135636Y-113041657D01*
X134135636Y-113041657D02*
X134097541Y-113117847D01*
X134097541Y-113117847D02*
X134097541Y-113536895D01*
X133830874Y-113003561D02*
X133526112Y-113003561D01*
X133716588Y-112736895D02*
X133716588Y-113422609D01*
X133716588Y-113422609D02*
X133678493Y-113498800D01*
X133678493Y-113498800D02*
X133602303Y-113536895D01*
X133602303Y-113536895D02*
X133526112Y-113536895D01*
X133259445Y-113536895D02*
X133259445Y-113003561D01*
X133259445Y-113155942D02*
X133221350Y-113079752D01*
X133221350Y-113079752D02*
X133183255Y-113041657D01*
X133183255Y-113041657D02*
X133107064Y-113003561D01*
X133107064Y-113003561D02*
X133030874Y-113003561D01*
X132649922Y-113536895D02*
X132726112Y-113498800D01*
X132726112Y-113498800D02*
X132764207Y-113460704D01*
X132764207Y-113460704D02*
X132802303Y-113384514D01*
X132802303Y-113384514D02*
X132802303Y-113155942D01*
X132802303Y-113155942D02*
X132764207Y-113079752D01*
X132764207Y-113079752D02*
X132726112Y-113041657D01*
X132726112Y-113041657D02*
X132649922Y-113003561D01*
X132649922Y-113003561D02*
X132535636Y-113003561D01*
X132535636Y-113003561D02*
X132459445Y-113041657D01*
X132459445Y-113041657D02*
X132421350Y-113079752D01*
X132421350Y-113079752D02*
X132383255Y-113155942D01*
X132383255Y-113155942D02*
X132383255Y-113384514D01*
X132383255Y-113384514D02*
X132421350Y-113460704D01*
X132421350Y-113460704D02*
X132459445Y-113498800D01*
X132459445Y-113498800D02*
X132535636Y-113536895D01*
X132535636Y-113536895D02*
X132649922Y-113536895D01*
X131926112Y-113536895D02*
X132002302Y-113498800D01*
X132002302Y-113498800D02*
X132040397Y-113422609D01*
X132040397Y-113422609D02*
X132040397Y-112736895D01*
X131507064Y-113536895D02*
X131583254Y-113498800D01*
X131583254Y-113498800D02*
X131621349Y-113422609D01*
X131621349Y-113422609D02*
X131621349Y-112736895D01*
X130897539Y-113498800D02*
X130973730Y-113536895D01*
X130973730Y-113536895D02*
X131126111Y-113536895D01*
X131126111Y-113536895D02*
X131202301Y-113498800D01*
X131202301Y-113498800D02*
X131240397Y-113422609D01*
X131240397Y-113422609D02*
X131240397Y-113117847D01*
X131240397Y-113117847D02*
X131202301Y-113041657D01*
X131202301Y-113041657D02*
X131126111Y-113003561D01*
X131126111Y-113003561D02*
X130973730Y-113003561D01*
X130973730Y-113003561D02*
X130897539Y-113041657D01*
X130897539Y-113041657D02*
X130859444Y-113117847D01*
X130859444Y-113117847D02*
X130859444Y-113194038D01*
X130859444Y-113194038D02*
X131240397Y-113270228D01*
X130516587Y-113536895D02*
X130516587Y-113003561D01*
X130516587Y-113155942D02*
X130478492Y-113079752D01*
X130478492Y-113079752D02*
X130440397Y-113041657D01*
X130440397Y-113041657D02*
X130364206Y-113003561D01*
X130364206Y-113003561D02*
X130288016Y-113003561D01*
D11*
X138917945Y-111162457D02*
X138870326Y-111114838D01*
X138870326Y-111114838D02*
X138775088Y-111067219D01*
X138775088Y-111067219D02*
X138536993Y-111067219D01*
X138536993Y-111067219D02*
X138441755Y-111114838D01*
X138441755Y-111114838D02*
X138394136Y-111162457D01*
X138394136Y-111162457D02*
X138346517Y-111257695D01*
X138346517Y-111257695D02*
X138346517Y-111352933D01*
X138346517Y-111352933D02*
X138394136Y-111495790D01*
X138394136Y-111495790D02*
X138965564Y-112067219D01*
X138965564Y-112067219D02*
X138346517Y-112067219D01*
X137727469Y-111067219D02*
X137632231Y-111067219D01*
X137632231Y-111067219D02*
X137536993Y-111114838D01*
X137536993Y-111114838D02*
X137489374Y-111162457D01*
X137489374Y-111162457D02*
X137441755Y-111257695D01*
X137441755Y-111257695D02*
X137394136Y-111448171D01*
X137394136Y-111448171D02*
X137394136Y-111686266D01*
X137394136Y-111686266D02*
X137441755Y-111876742D01*
X137441755Y-111876742D02*
X137489374Y-111971980D01*
X137489374Y-111971980D02*
X137536993Y-112019600D01*
X137536993Y-112019600D02*
X137632231Y-112067219D01*
X137632231Y-112067219D02*
X137727469Y-112067219D01*
X137727469Y-112067219D02*
X137822707Y-112019600D01*
X137822707Y-112019600D02*
X137870326Y-111971980D01*
X137870326Y-111971980D02*
X137917945Y-111876742D01*
X137917945Y-111876742D02*
X137965564Y-111686266D01*
X137965564Y-111686266D02*
X137965564Y-111448171D01*
X137965564Y-111448171D02*
X137917945Y-111257695D01*
X137917945Y-111257695D02*
X137870326Y-111162457D01*
X137870326Y-111162457D02*
X137822707Y-111114838D01*
X137822707Y-111114838D02*
X137727469Y-111067219D01*
X137013183Y-111162457D02*
X136965564Y-111114838D01*
X136965564Y-111114838D02*
X136870326Y-111067219D01*
X136870326Y-111067219D02*
X136632231Y-111067219D01*
X136632231Y-111067219D02*
X136536993Y-111114838D01*
X136536993Y-111114838D02*
X136489374Y-111162457D01*
X136489374Y-111162457D02*
X136441755Y-111257695D01*
X136441755Y-111257695D02*
X136441755Y-111352933D01*
X136441755Y-111352933D02*
X136489374Y-111495790D01*
X136489374Y-111495790D02*
X137060802Y-112067219D01*
X137060802Y-112067219D02*
X136441755Y-112067219D01*
X135584612Y-111067219D02*
X135775088Y-111067219D01*
X135775088Y-111067219D02*
X135870326Y-111114838D01*
X135870326Y-111114838D02*
X135917945Y-111162457D01*
X135917945Y-111162457D02*
X136013183Y-111305314D01*
X136013183Y-111305314D02*
X136060802Y-111495790D01*
X136060802Y-111495790D02*
X136060802Y-111876742D01*
X136060802Y-111876742D02*
X136013183Y-111971980D01*
X136013183Y-111971980D02*
X135965564Y-112019600D01*
X135965564Y-112019600D02*
X135870326Y-112067219D01*
X135870326Y-112067219D02*
X135679850Y-112067219D01*
X135679850Y-112067219D02*
X135584612Y-112019600D01*
X135584612Y-112019600D02*
X135536993Y-111971980D01*
X135536993Y-111971980D02*
X135489374Y-111876742D01*
X135489374Y-111876742D02*
X135489374Y-111638647D01*
X135489374Y-111638647D02*
X135536993Y-111543409D01*
X135536993Y-111543409D02*
X135584612Y-111495790D01*
X135584612Y-111495790D02*
X135679850Y-111448171D01*
X135679850Y-111448171D02*
X135870326Y-111448171D01*
X135870326Y-111448171D02*
X135965564Y-111495790D01*
X135965564Y-111495790D02*
X136013183Y-111543409D01*
X136013183Y-111543409D02*
X136060802Y-111638647D01*
X135060802Y-111971980D02*
X135013183Y-112019600D01*
X135013183Y-112019600D02*
X135060802Y-112067219D01*
X135060802Y-112067219D02*
X135108421Y-112019600D01*
X135108421Y-112019600D02*
X135060802Y-111971980D01*
X135060802Y-111971980D02*
X135060802Y-112067219D01*
X134394136Y-111067219D02*
X134298898Y-111067219D01*
X134298898Y-111067219D02*
X134203660Y-111114838D01*
X134203660Y-111114838D02*
X134156041Y-111162457D01*
X134156041Y-111162457D02*
X134108422Y-111257695D01*
X134108422Y-111257695D02*
X134060803Y-111448171D01*
X134060803Y-111448171D02*
X134060803Y-111686266D01*
X134060803Y-111686266D02*
X134108422Y-111876742D01*
X134108422Y-111876742D02*
X134156041Y-111971980D01*
X134156041Y-111971980D02*
X134203660Y-112019600D01*
X134203660Y-112019600D02*
X134298898Y-112067219D01*
X134298898Y-112067219D02*
X134394136Y-112067219D01*
X134394136Y-112067219D02*
X134489374Y-112019600D01*
X134489374Y-112019600D02*
X134536993Y-111971980D01*
X134536993Y-111971980D02*
X134584612Y-111876742D01*
X134584612Y-111876742D02*
X134632231Y-111686266D01*
X134632231Y-111686266D02*
X134632231Y-111448171D01*
X134632231Y-111448171D02*
X134584612Y-111257695D01*
X134584612Y-111257695D02*
X134536993Y-111162457D01*
X134536993Y-111162457D02*
X134489374Y-111114838D01*
X134489374Y-111114838D02*
X134394136Y-111067219D01*
X133156041Y-111067219D02*
X133632231Y-111067219D01*
X133632231Y-111067219D02*
X133679850Y-111543409D01*
X133679850Y-111543409D02*
X133632231Y-111495790D01*
X133632231Y-111495790D02*
X133536993Y-111448171D01*
X133536993Y-111448171D02*
X133298898Y-111448171D01*
X133298898Y-111448171D02*
X133203660Y-111495790D01*
X133203660Y-111495790D02*
X133156041Y-111543409D01*
X133156041Y-111543409D02*
X133108422Y-111638647D01*
X133108422Y-111638647D02*
X133108422Y-111876742D01*
X133108422Y-111876742D02*
X133156041Y-111971980D01*
X133156041Y-111971980D02*
X133203660Y-112019600D01*
X133203660Y-112019600D02*
X133298898Y-112067219D01*
X133298898Y-112067219D02*
X133536993Y-112067219D01*
X133536993Y-112067219D02*
X133632231Y-112019600D01*
X133632231Y-112019600D02*
X133679850Y-111971980D01*
X132679850Y-111971980D02*
X132632231Y-112019600D01*
X132632231Y-112019600D02*
X132679850Y-112067219D01*
X132679850Y-112067219D02*
X132727469Y-112019600D01*
X132727469Y-112019600D02*
X132679850Y-111971980D01*
X132679850Y-111971980D02*
X132679850Y-112067219D01*
X132251279Y-111162457D02*
X132203660Y-111114838D01*
X132203660Y-111114838D02*
X132108422Y-111067219D01*
X132108422Y-111067219D02*
X131870327Y-111067219D01*
X131870327Y-111067219D02*
X131775089Y-111114838D01*
X131775089Y-111114838D02*
X131727470Y-111162457D01*
X131727470Y-111162457D02*
X131679851Y-111257695D01*
X131679851Y-111257695D02*
X131679851Y-111352933D01*
X131679851Y-111352933D02*
X131727470Y-111495790D01*
X131727470Y-111495790D02*
X132298898Y-112067219D01*
X132298898Y-112067219D02*
X131679851Y-112067219D01*
X131203660Y-112067219D02*
X131013184Y-112067219D01*
X131013184Y-112067219D02*
X130917946Y-112019600D01*
X130917946Y-112019600D02*
X130870327Y-111971980D01*
X130870327Y-111971980D02*
X130775089Y-111829123D01*
X130775089Y-111829123D02*
X130727470Y-111638647D01*
X130727470Y-111638647D02*
X130727470Y-111257695D01*
X130727470Y-111257695D02*
X130775089Y-111162457D01*
X130775089Y-111162457D02*
X130822708Y-111114838D01*
X130822708Y-111114838D02*
X130917946Y-111067219D01*
X130917946Y-111067219D02*
X131108422Y-111067219D01*
X131108422Y-111067219D02*
X131203660Y-111114838D01*
X131203660Y-111114838D02*
X131251279Y-111162457D01*
X131251279Y-111162457D02*
X131298898Y-111257695D01*
X131298898Y-111257695D02*
X131298898Y-111495790D01*
X131298898Y-111495790D02*
X131251279Y-111591028D01*
X131251279Y-111591028D02*
X131203660Y-111638647D01*
X131203660Y-111638647D02*
X131108422Y-111686266D01*
X131108422Y-111686266D02*
X130917946Y-111686266D01*
X130917946Y-111686266D02*
X130822708Y-111638647D01*
X130822708Y-111638647D02*
X130775089Y-111591028D01*
X130775089Y-111591028D02*
X130727470Y-111495790D01*
D12*
X170833333Y-83104819D02*
X170833333Y-83819104D01*
X170833333Y-83819104D02*
X170880952Y-83961961D01*
X170880952Y-83961961D02*
X170976190Y-84057200D01*
X170976190Y-84057200D02*
X171119047Y-84104819D01*
X171119047Y-84104819D02*
X171214285Y-84104819D01*
X170452380Y-83104819D02*
X169833333Y-83104819D01*
X169833333Y-83104819D02*
X170166666Y-83485771D01*
X170166666Y-83485771D02*
X170023809Y-83485771D01*
X170023809Y-83485771D02*
X169928571Y-83533390D01*
X169928571Y-83533390D02*
X169880952Y-83581009D01*
X169880952Y-83581009D02*
X169833333Y-83676247D01*
X169833333Y-83676247D02*
X169833333Y-83914342D01*
X169833333Y-83914342D02*
X169880952Y-84009580D01*
X169880952Y-84009580D02*
X169928571Y-84057200D01*
X169928571Y-84057200D02*
X170023809Y-84104819D01*
X170023809Y-84104819D02*
X170309523Y-84104819D01*
X170309523Y-84104819D02*
X170404761Y-84057200D01*
X170404761Y-84057200D02*
X170452380Y-84009580D01*
%TO.C,J3*%
D13*
X169120000Y-87300000D02*
X169120000Y-115350000D01*
X171880000Y-84650000D02*
X170500000Y-84650000D01*
X171880000Y-86030000D02*
X171880000Y-84650000D01*
X171880000Y-87300000D02*
X169120000Y-87300000D01*
X171880000Y-87300000D02*
X171880000Y-115350000D01*
X171880000Y-115350000D02*
X169120000Y-115350000D01*
%TD*%
M02*
