%TF.GenerationSoftware,KiCad,Pcbnew,10.0.3*%
%TF.CreationDate,2026-05-29T12:27:10+03:00*%
%TF.ProjectId,5-way-button-board,352d7761-792d-4627-9574-746f6e2d626f,rev?*%
%TF.SameCoordinates,Original*%
%TF.FileFunction,Soldermask,Top*%
%TF.FilePolarity,Negative*%
%FSLAX46Y46*%
G04 Gerber Fmt 4.6, Leading zero omitted, Abs format (unit mm)*
G04 Created by KiCad (PCBNEW 10.0.3) date 2026-05-29 12:27:10*
%MOMM*%
%LPD*%
G01*
G04 APERTURE LIST*
G04 Aperture macros list*
%AMRoundRect*
0 Rectangle with rounded corners*
0 $1 Rounding radius*
0 $2 $3 $4 $5 $6 $7 $8 $9 X,Y pos of 4 corners*
0 Add a 4 corners polygon primitive as box body*
4,1,4,$2,$3,$4,$5,$6,$7,$8,$9,$2,$3,0*
0 Add four circle primitives for the rounded corners*
1,1,$1+$1,$2,$3*
1,1,$1+$1,$4,$5*
1,1,$1+$1,$6,$7*
1,1,$1+$1,$8,$9*
0 Add four rect primitives between the rounded corners*
20,1,$1+$1,$2,$3,$4,$5,0*
20,1,$1+$1,$4,$5,$6,$7,0*
20,1,$1+$1,$6,$7,$8,$9,0*
20,1,$1+$1,$8,$9,$2,$3,0*%
G04 Aperture macros list end*
%ADD10C,3.200000*%
%ADD11RoundRect,0.250000X-0.350000X-0.450000X0.350000X-0.450000X0.350000X0.450000X-0.350000X0.450000X0*%
%ADD12C,2.000000*%
%ADD13R,1.600000X1.600000*%
%ADD14C,1.600000*%
%ADD15R,1.700000X1.700000*%
%ADD16C,1.700000*%
G04 APERTURE END LIST*
D10*
%TO.C,H3*%
X133000000Y-117000000D03*
%TD*%
D11*
%TO.C,R7*%
X159250000Y-86500000D03*
X161250000Y-86500000D03*
%TD*%
%TO.C,R20*%
X159000000Y-118000000D03*
X161000000Y-118000000D03*
%TD*%
%TO.C,R21*%
X159500000Y-110250000D03*
X161500000Y-110250000D03*
%TD*%
%TO.C,R11*%
X164250000Y-90000000D03*
X166250000Y-90000000D03*
%TD*%
D10*
%TO.C,H4*%
X167000000Y-117000000D03*
%TD*%
D11*
%TO.C,R9*%
X159250000Y-90000000D03*
X161250000Y-90000000D03*
%TD*%
D10*
%TO.C,H2*%
X167000000Y-83000000D03*
%TD*%
%TO.C,H1*%
X133000000Y-83000000D03*
%TD*%
D12*
%TO.C,SW6*%
X143750000Y-84250000D03*
X156250000Y-84250000D03*
X143750000Y-89250000D03*
X156250000Y-89250000D03*
D13*
X150000000Y-81250000D03*
D14*
X150000000Y-92250000D03*
D12*
X143750000Y-110750000D03*
X156250000Y-110750000D03*
X143750000Y-115750000D03*
X156250000Y-115750000D03*
D13*
X150000000Y-107750000D03*
D14*
X150000000Y-118750000D03*
D12*
X134250000Y-93750000D03*
X134250000Y-106250000D03*
X139250000Y-93750000D03*
X139250000Y-106250000D03*
D13*
X131250000Y-100000000D03*
D14*
X142250000Y-100000000D03*
D12*
X160750000Y-93750000D03*
X160750000Y-106250000D03*
X165750000Y-93750000D03*
X165750000Y-106250000D03*
D13*
X157750000Y-100000000D03*
D14*
X168750000Y-100000000D03*
D12*
X143750000Y-97500000D03*
X156250000Y-97500000D03*
X143750000Y-102500000D03*
X156250000Y-102500000D03*
D13*
X150000000Y-94500000D03*
D14*
X150000000Y-105500000D03*
%TD*%
D15*
%TO.C,J3*%
X170500000Y-86030000D03*
D16*
X170500000Y-88570000D03*
X170500000Y-91110000D03*
X170500000Y-93650000D03*
X170500000Y-96190000D03*
X170500000Y-98730000D03*
X170500000Y-101270000D03*
X170500000Y-103810000D03*
X170500000Y-106350000D03*
X170500000Y-108890000D03*
X170500000Y-111430000D03*
X170500000Y-113970000D03*
%TD*%
M02*
