%TF.GenerationSoftware,KiCad,Pcbnew,10.0.3*%
%TF.CreationDate,2026-05-29T12:27:10+03:00*%
%TF.ProjectId,5-way-button-board,352d7761-792d-4627-9574-746f6e2d626f,rev?*%
%TF.SameCoordinates,Original*%
%TF.FileFunction,Copper,L1,Top*%
%TF.FilePolarity,Positive*%
%FSLAX46Y46*%
G04 Gerber Fmt 4.6, Leading zero omitted, Abs format (unit mm)*
G04 Created by KiCad (PCBNEW 10.0.3) date 2026-05-29 12:27:10*
%MOMM*%
%LPD*%
G01*
G04 APERTURE LIST*
G04 Aperture macros list*
%AMRoundRect*
0 Rectangle with rounded corners*
0 $1 Rounding radius*
0 $2 $3 $4 $5 $6 $7 $8 $9 X,Y pos of 4 corners*
0 Add a 4 corners polygon primitive as box body*
4,1,4,$2,$3,$4,$5,$6,$7,$8,$9,$2,$3,0*
0 Add four circle primitives for the rounded corners*
1,1,$1+$1,$2,$3*
1,1,$1+$1,$4,$5*
1,1,$1+$1,$6,$7*
1,1,$1+$1,$8,$9*
0 Add four rect primitives between the rounded corners*
20,1,$1+$1,$2,$3,$4,$5,0*
20,1,$1+$1,$4,$5,$6,$7,0*
20,1,$1+$1,$6,$7,$8,$9,0*
20,1,$1+$1,$8,$9,$2,$3,0*%
G04 Aperture macros list end*
%TA.AperFunction,SMDPad,CuDef*%
%ADD10RoundRect,0.250000X-0.350000X-0.450000X0.350000X-0.450000X0.350000X0.450000X-0.350000X0.450000X0*%
%TD*%
%TA.AperFunction,ComponentPad*%
%ADD11C,2.000000*%
%TD*%
%TA.AperFunction,ComponentPad*%
%ADD12R,1.600000X1.600000*%
%TD*%
%TA.AperFunction,ComponentPad*%
%ADD13C,1.600000*%
%TD*%
%TA.AperFunction,ComponentPad*%
%ADD14R,1.700000X1.700000*%
%TD*%
%TA.AperFunction,ComponentPad*%
%ADD15C,1.700000*%
%TD*%
%TA.AperFunction,Conductor*%
%ADD16C,0.400000*%
%TD*%
G04 APERTURE END LIST*
D10*
%TO.P,R7,1*%
%TO.N,Net-(SW6A-A)*%
X159250000Y-86500000D03*
%TO.P,R7,2*%
%TO.N,UP_LED*%
X161250000Y-86500000D03*
%TD*%
%TO.P,R20,1*%
%TO.N,Net-(SW6B-A)*%
X159000000Y-118000000D03*
%TO.P,R20,2*%
%TO.N,DOWN_LED*%
X161000000Y-118000000D03*
%TD*%
%TO.P,R21,1*%
%TO.N,Net-(SW6E-A)*%
X159500000Y-110250000D03*
%TO.P,R21,2*%
%TO.N,OK_LED*%
X161500000Y-110250000D03*
%TD*%
%TO.P,R11,1*%
%TO.N,Net-(SW6D-A)*%
X164250000Y-90000000D03*
%TO.P,R11,2*%
%TO.N,RIGHT_LED*%
X166250000Y-90000000D03*
%TD*%
%TO.P,R9,1*%
%TO.N,Net-(SW6C-A)*%
X159250000Y-90000000D03*
%TO.P,R9,2*%
%TO.N,LEFT_LED*%
X161250000Y-90000000D03*
%TD*%
D11*
%TO.P,SW6,1,1_1*%
%TO.N,GND*%
X143750000Y-84250000D03*
X156250000Y-84250000D03*
%TO.P,SW6,2,2_2*%
%TO.N,UP_BTN*%
X143750000Y-89250000D03*
X156250000Y-89250000D03*
D12*
%TO.P,SW6,3,K_3*%
%TO.N,GND*%
X150000000Y-81250000D03*
D13*
%TO.P,SW6,4,A_4*%
%TO.N,Net-(SW6A-A)*%
X150000000Y-92250000D03*
D11*
%TO.P,SW6,5,5_5*%
%TO.N,GND*%
X143750000Y-110750000D03*
X156250000Y-110750000D03*
%TO.P,SW6,6,6_6*%
%TO.N,DOWN_BTN*%
X143750000Y-115750000D03*
X156250000Y-115750000D03*
D12*
%TO.P,SW6,7,K_7*%
%TO.N,GND*%
X150000000Y-107750000D03*
D13*
%TO.P,SW6,8,A_8*%
%TO.N,Net-(SW6B-A)*%
X150000000Y-118750000D03*
D11*
%TO.P,SW6,9,9_9*%
%TO.N,GND*%
X134250000Y-93750000D03*
X134250000Y-106250000D03*
%TO.P,SW6,10,10_10*%
%TO.N,LEFT_BTN*%
X139250000Y-93750000D03*
X139250000Y-106250000D03*
D12*
%TO.P,SW6,11,K_11*%
%TO.N,GND*%
X131250000Y-100000000D03*
D13*
%TO.P,SW6,12,A_12*%
%TO.N,Net-(SW6C-A)*%
X142250000Y-100000000D03*
D11*
%TO.P,SW6,13,13_13*%
%TO.N,GND*%
X160750000Y-93750000D03*
X160750000Y-106250000D03*
%TO.P,SW6,14,14_14*%
%TO.N,RIGHT_BTN*%
X165750000Y-93750000D03*
X165750000Y-106250000D03*
D12*
%TO.P,SW6,15,K_15*%
%TO.N,GND*%
X157750000Y-100000000D03*
D13*
%TO.P,SW6,16,A_16*%
%TO.N,Net-(SW6D-A)*%
X168750000Y-100000000D03*
D11*
%TO.P,SW6,17,17_17*%
%TO.N,GND*%
X143750000Y-97500000D03*
X156250000Y-97500000D03*
%TO.P,SW6,18,18_18*%
%TO.N,OK_BTN*%
X143750000Y-102500000D03*
X156250000Y-102500000D03*
D12*
%TO.P,SW6,19,K_19*%
%TO.N,GND*%
X150000000Y-94500000D03*
D13*
%TO.P,SW6,20,A_20*%
%TO.N,Net-(SW6E-A)*%
X150000000Y-105500000D03*
%TD*%
D14*
%TO.P,J3,1,Pin_1_1*%
%TO.N,UP_LED*%
X170500000Y-86030000D03*
D15*
%TO.P,J3,2,Pin_2_2*%
%TO.N,UP_BTN*%
X170500000Y-88570000D03*
%TO.P,J3,3,Pin_3_3*%
%TO.N,LEFT_LED*%
X170500000Y-91110000D03*
%TO.P,J3,4,Pin_4_4*%
%TO.N,RIGHT_LED*%
X170500000Y-93650000D03*
%TO.P,J3,5,Pin_5_5*%
%TO.N,LEFT_BTN*%
X170500000Y-96190000D03*
%TO.P,J3,6,Pin_6_6*%
%TO.N,GND*%
X170500000Y-98730000D03*
%TO.P,J3,7,Pin_7_7*%
%TO.N,OK_BTN*%
X170500000Y-101270000D03*
%TO.P,J3,8,Pin_8_8*%
%TO.N,RIGHT_BTN*%
X170500000Y-103810000D03*
%TO.P,J3,9,Pin_9_9*%
%TO.N,OK_LED*%
X170500000Y-106350000D03*
%TO.P,J3,10,Pin_10_10*%
%TO.N,DOWN_BTN*%
X170500000Y-108890000D03*
%TO.P,J3,11,Pin_11_11*%
%TO.N,DOWN_LED*%
X170500000Y-111430000D03*
%TO.P,J3,12,Pin_12_12*%
%TO.N,GND*%
X170500000Y-113970000D03*
%TD*%
%TO.N,Net-(SW6A-A)*%
D16*
X159250000Y-86500000D02*
X155750000Y-86500000D01*
X155750000Y-86500000D02*
X150000000Y-92250000D01*
%TO.N,UP_LED*%
X161720000Y-86030000D02*
X161250000Y-86500000D01*
X170500000Y-86030000D02*
X161720000Y-86030000D01*
%TO.N,Net-(SW6B-A)*%
X159000000Y-118000000D02*
X150750000Y-118000000D01*
X150750000Y-118000000D02*
X150000000Y-118750000D01*
%TO.N,DOWN_LED*%
X170500000Y-111430000D02*
X169297919Y-111430000D01*
X169297919Y-111430000D02*
X162727919Y-118000000D01*
X162727919Y-118000000D02*
X161000000Y-118000000D01*
%TO.N,Net-(SW6E-A)*%
X150000000Y-105500000D02*
X154750000Y-105500000D01*
X154750000Y-105500000D02*
X159500000Y-110250000D01*
%TO.N,OK_LED*%
X166600000Y-110250000D02*
X161500000Y-110250000D01*
X170500000Y-106350000D02*
X166600000Y-110250000D01*
%TO.N,Net-(SW6D-A)*%
X164250000Y-90000000D02*
X164250000Y-95500000D01*
X164250000Y-95500000D02*
X168750000Y-100000000D01*
%TO.N,RIGHT_LED*%
X166850000Y-90000000D02*
X166250000Y-90000000D01*
X170500000Y-93650000D02*
X166850000Y-90000000D01*
%TO.N,Net-(SW6C-A)*%
X149250000Y-100000000D02*
X159250000Y-90000000D01*
X142250000Y-100000000D02*
X149250000Y-100000000D01*
%TO.N,LEFT_LED*%
X162350000Y-88900000D02*
X161250000Y-90000000D01*
X170500000Y-91110000D02*
X168290000Y-88900000D01*
X168290000Y-88900000D02*
X162350000Y-88900000D01*
%TO.N,UP_BTN*%
X169650000Y-87720000D02*
X157780000Y-87720000D01*
X170500000Y-88570000D02*
X169650000Y-87720000D01*
X157780000Y-87720000D02*
X156250000Y-89250000D01*
%TO.N,DOWN_BTN*%
X170500000Y-108890000D02*
X163640000Y-115750000D01*
X163640000Y-115750000D02*
X156250000Y-115750000D01*
X143750000Y-115750000D02*
X156250000Y-115750000D01*
%TO.N,RIGHT_BTN*%
X168060000Y-106250000D02*
X165750000Y-106250000D01*
X170500000Y-103810000D02*
X168060000Y-106250000D01*
%TO.N,OK_BTN*%
X169270000Y-102500000D02*
X156250000Y-102500000D01*
X170500000Y-101270000D02*
X169270000Y-102500000D01*
%TD*%
%TA.AperFunction,Conductor*%
%TO.N,GND*%
G36*
X148643039Y-80520185D02*
G01*
X148688794Y-80572989D01*
X148700000Y-80624500D01*
X148700000Y-81000000D01*
X149624722Y-81000000D01*
X149580667Y-81076306D01*
X149550000Y-81190756D01*
X149550000Y-81309244D01*
X149580667Y-81423694D01*
X149624722Y-81500000D01*
X148700000Y-81500000D01*
X148700000Y-82097844D01*
X148706401Y-82157372D01*
X148706403Y-82157379D01*
X148756645Y-82292086D01*
X148756649Y-82292093D01*
X148842809Y-82407187D01*
X148842812Y-82407190D01*
X148957906Y-82493350D01*
X148957913Y-82493354D01*
X149092620Y-82543596D01*
X149092627Y-82543598D01*
X149152155Y-82549999D01*
X149152172Y-82550000D01*
X149750000Y-82550000D01*
X149750000Y-81625277D01*
X149826306Y-81669333D01*
X149940756Y-81700000D01*
X150059244Y-81700000D01*
X150173694Y-81669333D01*
X150250000Y-81625277D01*
X150250000Y-82550000D01*
X150847828Y-82550000D01*
X150847844Y-82549999D01*
X150907372Y-82543598D01*
X150907379Y-82543596D01*
X151042086Y-82493354D01*
X151042093Y-82493350D01*
X151157187Y-82407190D01*
X151157190Y-82407187D01*
X151243350Y-82292093D01*
X151243354Y-82292086D01*
X151293596Y-82157379D01*
X151293598Y-82157372D01*
X151299999Y-82097844D01*
X151300000Y-82097827D01*
X151300000Y-81500000D01*
X150375278Y-81500000D01*
X150419333Y-81423694D01*
X150450000Y-81309244D01*
X150450000Y-81190756D01*
X150419333Y-81076306D01*
X150375278Y-81000000D01*
X151300000Y-81000000D01*
X151300000Y-80624500D01*
X151319685Y-80557461D01*
X151372489Y-80511706D01*
X151424000Y-80500500D01*
X168934108Y-80500500D01*
X168996249Y-80500500D01*
X169003736Y-80500726D01*
X169293796Y-80518271D01*
X169308657Y-80520075D01*
X169512661Y-80557461D01*
X169590797Y-80571780D01*
X169605334Y-80575363D01*
X169879182Y-80660698D01*
X169893163Y-80666000D01*
X170154734Y-80783724D01*
X170167987Y-80790680D01*
X170413458Y-80939071D01*
X170425776Y-80947573D01*
X170590091Y-81076306D01*
X170651573Y-81124474D01*
X170662781Y-81134404D01*
X170865595Y-81337218D01*
X170875525Y-81348426D01*
X171031109Y-81547014D01*
X171052422Y-81574217D01*
X171060928Y-81586541D01*
X171209319Y-81832012D01*
X171216277Y-81845269D01*
X171333994Y-82106823D01*
X171339304Y-82120825D01*
X171424635Y-82394664D01*
X171428219Y-82409202D01*
X171479923Y-82691340D01*
X171481728Y-82706205D01*
X171499274Y-82996263D01*
X171499500Y-83003750D01*
X171499500Y-84555500D01*
X171479815Y-84622539D01*
X171427011Y-84668294D01*
X171375500Y-84679500D01*
X169602129Y-84679500D01*
X169602123Y-84679501D01*
X169542516Y-84685908D01*
X169407671Y-84736202D01*
X169407664Y-84736206D01*
X169292455Y-84822452D01*
X169292452Y-84822455D01*
X169206206Y-84937664D01*
X169206202Y-84937671D01*
X169155908Y-85072517D01*
X169149501Y-85132116D01*
X169149500Y-85132135D01*
X169149500Y-85205500D01*
X169129815Y-85272539D01*
X169077011Y-85318294D01*
X169025500Y-85329500D01*
X161831651Y-85329500D01*
X161792648Y-85323206D01*
X161752799Y-85310001D01*
X161752795Y-85310000D01*
X161650010Y-85299500D01*
X160849998Y-85299500D01*
X160849980Y-85299501D01*
X160747203Y-85310000D01*
X160747200Y-85310001D01*
X160580668Y-85365185D01*
X160580663Y-85365187D01*
X160431342Y-85457289D01*
X160337681Y-85550951D01*
X160276358Y-85584436D01*
X160206666Y-85579452D01*
X160162319Y-85550951D01*
X160068657Y-85457289D01*
X160068656Y-85457288D01*
X159919334Y-85365186D01*
X159752797Y-85310001D01*
X159752795Y-85310000D01*
X159650010Y-85299500D01*
X158849998Y-85299500D01*
X158849980Y-85299501D01*
X158747203Y-85310000D01*
X158747200Y-85310001D01*
X158580668Y-85365185D01*
X158580663Y-85365187D01*
X158431342Y-85457289D01*
X158307289Y-85581342D01*
X158275784Y-85632419D01*
X158217441Y-85727011D01*
X158211395Y-85736813D01*
X158209600Y-85735706D01*
X158170313Y-85780337D01*
X158104092Y-85799500D01*
X157029466Y-85799500D01*
X156962427Y-85779815D01*
X156916672Y-85727011D01*
X156906728Y-85657853D01*
X156935753Y-85594297D01*
X156973171Y-85565015D01*
X157036163Y-85532918D01*
X157036169Y-85532914D01*
X157119104Y-85472658D01*
X157119105Y-85472658D01*
X156420233Y-84773787D01*
X156462292Y-84762518D01*
X156587708Y-84690110D01*
X156690110Y-84587708D01*
X156762518Y-84462292D01*
X156773787Y-84420234D01*
X157472658Y-85119105D01*
X157472658Y-85119104D01*
X157532914Y-85036169D01*
X157532918Y-85036163D01*
X157640102Y-84825802D01*
X157713065Y-84601247D01*
X157750000Y-84368052D01*
X157750000Y-84131947D01*
X157713065Y-83898752D01*
X157640102Y-83674197D01*
X157532914Y-83463828D01*
X157472658Y-83380894D01*
X157472658Y-83380893D01*
X156773787Y-84079765D01*
X156762518Y-84037708D01*
X156690110Y-83912292D01*
X156587708Y-83809890D01*
X156462292Y-83737482D01*
X156420234Y-83726212D01*
X157119105Y-83027340D01*
X157119104Y-83027339D01*
X157047041Y-82974982D01*
X157047025Y-82974971D01*
X157036171Y-82967085D01*
X156862727Y-82878711D01*
X165149500Y-82878711D01*
X165149500Y-83121288D01*
X165181161Y-83361785D01*
X165243947Y-83596104D01*
X165302508Y-83737482D01*
X165336776Y-83820212D01*
X165458064Y-84030289D01*
X165458066Y-84030292D01*
X165458067Y-84030293D01*
X165605733Y-84222736D01*
X165605739Y-84222743D01*
X165777256Y-84394260D01*
X165777262Y-84394265D01*
X165969711Y-84541936D01*
X166179788Y-84663224D01*
X166403900Y-84756054D01*
X166638211Y-84818838D01*
X166818586Y-84842584D01*
X166878711Y-84850500D01*
X166878712Y-84850500D01*
X167121289Y-84850500D01*
X167169388Y-84844167D01*
X167361789Y-84818838D01*
X167596100Y-84756054D01*
X167820212Y-84663224D01*
X168030289Y-84541936D01*
X168222738Y-84394265D01*
X168394265Y-84222738D01*
X168541936Y-84030289D01*
X168663224Y-83820212D01*
X168756054Y-83596100D01*
X168818838Y-83361789D01*
X168850500Y-83121288D01*
X168850500Y-82878712D01*
X168818838Y-82638211D01*
X168756054Y-82403900D01*
X168663224Y-82179788D01*
X168541936Y-81969711D01*
X168481018Y-81890321D01*
X168394266Y-81777263D01*
X168394260Y-81777256D01*
X168222743Y-81605739D01*
X168222736Y-81605733D01*
X168030293Y-81458067D01*
X168030292Y-81458066D01*
X168030289Y-81458064D01*
X167858661Y-81358974D01*
X167820214Y-81336777D01*
X167820205Y-81336773D01*
X167596104Y-81243947D01*
X167361785Y-81181161D01*
X167121289Y-81149500D01*
X167121288Y-81149500D01*
X166878712Y-81149500D01*
X166878711Y-81149500D01*
X166638214Y-81181161D01*
X166403895Y-81243947D01*
X166179794Y-81336773D01*
X166179785Y-81336777D01*
X165969706Y-81458067D01*
X165777263Y-81605733D01*
X165777256Y-81605739D01*
X165605739Y-81777256D01*
X165605733Y-81777263D01*
X165458067Y-81969706D01*
X165336777Y-82179785D01*
X165336773Y-82179794D01*
X165243947Y-82403895D01*
X165181161Y-82638214D01*
X165149500Y-82878711D01*
X156862727Y-82878711D01*
X156825802Y-82859897D01*
X156601247Y-82786934D01*
X156601248Y-82786934D01*
X156368052Y-82750000D01*
X156131948Y-82750000D01*
X155898752Y-82786934D01*
X155674197Y-82859897D01*
X155463830Y-82967084D01*
X155380894Y-83027340D01*
X156079766Y-83726212D01*
X156037708Y-83737482D01*
X155912292Y-83809890D01*
X155809890Y-83912292D01*
X155737482Y-84037708D01*
X155726212Y-84079766D01*
X155027340Y-83380894D01*
X154967084Y-83463830D01*
X154859897Y-83674197D01*
X154786934Y-83898752D01*
X154750000Y-84131947D01*
X154750000Y-84368052D01*
X154786934Y-84601247D01*
X154859897Y-84825802D01*
X154967087Y-85036174D01*
X155027338Y-85119104D01*
X155027340Y-85119105D01*
X155726212Y-84420233D01*
X155737482Y-84462292D01*
X155809890Y-84587708D01*
X155912292Y-84690110D01*
X156037708Y-84762518D01*
X156079765Y-84773787D01*
X155380893Y-85472658D01*
X155463828Y-85532914D01*
X155582495Y-85593378D01*
X155633291Y-85641352D01*
X155650086Y-85709173D01*
X155627549Y-85775308D01*
X155572834Y-85818760D01*
X155550400Y-85825479D01*
X155545676Y-85826418D01*
X155545667Y-85826421D01*
X155418192Y-85879222D01*
X155303454Y-85955887D01*
X150326147Y-90933194D01*
X150264824Y-90966679D01*
X150219068Y-90967986D01*
X150169969Y-90960209D01*
X150102352Y-90949500D01*
X149897648Y-90949500D01*
X149873329Y-90953351D01*
X149695465Y-90981522D01*
X149500776Y-91044781D01*
X149318386Y-91137715D01*
X149152786Y-91258028D01*
X149008028Y-91402786D01*
X148887715Y-91568386D01*
X148794781Y-91750776D01*
X148731522Y-91945465D01*
X148699500Y-92147648D01*
X148699500Y-92352351D01*
X148731522Y-92554534D01*
X148794781Y-92749223D01*
X148887712Y-92931609D01*
X148993817Y-93077651D01*
X149017296Y-93143458D01*
X149001470Y-93211511D01*
X148963346Y-93249106D01*
X148965011Y-93251331D01*
X148842812Y-93342809D01*
X148842809Y-93342812D01*
X148756649Y-93457906D01*
X148756645Y-93457913D01*
X148706403Y-93592620D01*
X148706401Y-93592627D01*
X148700000Y-93652155D01*
X148700000Y-94250000D01*
X149624722Y-94250000D01*
X149580667Y-94326306D01*
X149550000Y-94440756D01*
X149550000Y-94559244D01*
X149580667Y-94673694D01*
X149624722Y-94750000D01*
X148700000Y-94750000D01*
X148700000Y-95347844D01*
X148706401Y-95407372D01*
X148706403Y-95407379D01*
X148756645Y-95542086D01*
X148756649Y-95542093D01*
X148842809Y-95657187D01*
X148842812Y-95657190D01*
X148957906Y-95743350D01*
X148957913Y-95743354D01*
X149092620Y-95793596D01*
X149092627Y-95793598D01*
X149152155Y-95799999D01*
X149152172Y-95800000D01*
X149750000Y-95800000D01*
X149750000Y-94875277D01*
X149826306Y-94919333D01*
X149940756Y-94950000D01*
X150059244Y-94950000D01*
X150173694Y-94919333D01*
X150250000Y-94875277D01*
X150250000Y-95800000D01*
X150847828Y-95800000D01*
X150847844Y-95799999D01*
X150907372Y-95793598D01*
X150907379Y-95793596D01*
X151042086Y-95743354D01*
X151042093Y-95743350D01*
X151157187Y-95657190D01*
X151157190Y-95657187D01*
X151243350Y-95542093D01*
X151243354Y-95542086D01*
X151293596Y-95407379D01*
X151293598Y-95407372D01*
X151299999Y-95347844D01*
X151300000Y-95347827D01*
X151300000Y-94750000D01*
X150375278Y-94750000D01*
X150419333Y-94673694D01*
X150450000Y-94559244D01*
X150450000Y-94440756D01*
X150419333Y-94326306D01*
X150375278Y-94250000D01*
X151300000Y-94250000D01*
X151300000Y-93652172D01*
X151299999Y-93652155D01*
X151293598Y-93592627D01*
X151293596Y-93592620D01*
X151243354Y-93457913D01*
X151243350Y-93457906D01*
X151157190Y-93342812D01*
X151157187Y-93342809D01*
X151034989Y-93251331D01*
X151036719Y-93249019D01*
X150997658Y-93209944D01*
X150982818Y-93141668D01*
X151006183Y-93077651D01*
X151020867Y-93057438D01*
X151112287Y-92931610D01*
X151205220Y-92749219D01*
X151268477Y-92554534D01*
X151300500Y-92352352D01*
X151300500Y-92147648D01*
X151282013Y-92030929D01*
X151290967Y-91961636D01*
X151316802Y-91923853D01*
X154635133Y-88605523D01*
X154696455Y-88572039D01*
X154766147Y-88577023D01*
X154822080Y-88618895D01*
X154846497Y-88684359D01*
X154840744Y-88731524D01*
X154786446Y-88898631D01*
X154749500Y-89131902D01*
X154749500Y-89368097D01*
X154786446Y-89601368D01*
X154859433Y-89825996D01*
X154966657Y-90036433D01*
X155105483Y-90227510D01*
X155272490Y-90394517D01*
X155463567Y-90533343D01*
X155562991Y-90584002D01*
X155674003Y-90640566D01*
X155674005Y-90640566D01*
X155674008Y-90640568D01*
X155794412Y-90679689D01*
X155898631Y-90713553D01*
X156131903Y-90750500D01*
X156131908Y-90750500D01*
X156368097Y-90750500D01*
X156601368Y-90713553D01*
X156825992Y-90640568D01*
X157036433Y-90533343D01*
X157227510Y-90394517D01*
X157394517Y-90227510D01*
X157533343Y-90036433D01*
X157640568Y-89825992D01*
X157713553Y-89601368D01*
X157713753Y-89600104D01*
X157750500Y-89368097D01*
X157750500Y-89131902D01*
X157713553Y-88898635D01*
X157713553Y-88898632D01*
X157707230Y-88879175D01*
X157705234Y-88809335D01*
X157737477Y-88753179D01*
X158033839Y-88456816D01*
X158095161Y-88423334D01*
X158121519Y-88420500D01*
X161539480Y-88420500D01*
X161560725Y-88426738D01*
X161582814Y-88428318D01*
X161593597Y-88436390D01*
X161606519Y-88440185D01*
X161621018Y-88456918D01*
X161638747Y-88470190D01*
X161643454Y-88482810D01*
X161652274Y-88492989D01*
X161655425Y-88514906D01*
X161663164Y-88535654D01*
X161660301Y-88548814D01*
X161662218Y-88562147D01*
X161653018Y-88582290D01*
X161648312Y-88603927D01*
X161635043Y-88621652D01*
X161633193Y-88625703D01*
X161627161Y-88632181D01*
X161496161Y-88763181D01*
X161434838Y-88796666D01*
X161408480Y-88799500D01*
X160849998Y-88799500D01*
X160849980Y-88799501D01*
X160747203Y-88810000D01*
X160747200Y-88810001D01*
X160580668Y-88865185D01*
X160580663Y-88865187D01*
X160431342Y-88957289D01*
X160337681Y-89050951D01*
X160276358Y-89084436D01*
X160206666Y-89079452D01*
X160162319Y-89050951D01*
X160068657Y-88957289D01*
X160068656Y-88957288D01*
X159919334Y-88865186D01*
X159752797Y-88810001D01*
X159752795Y-88810000D01*
X159650010Y-88799500D01*
X158849998Y-88799500D01*
X158849980Y-88799501D01*
X158747203Y-88810000D01*
X158747200Y-88810001D01*
X158580668Y-88865185D01*
X158580663Y-88865187D01*
X158431342Y-88957289D01*
X158307289Y-89081342D01*
X158215187Y-89230663D01*
X158215186Y-89230666D01*
X158160001Y-89397203D01*
X158160001Y-89397204D01*
X158160000Y-89397204D01*
X158149500Y-89499983D01*
X158149500Y-90058480D01*
X158129815Y-90125519D01*
X158113181Y-90146161D01*
X148996162Y-99263181D01*
X148934839Y-99296666D01*
X148908481Y-99299500D01*
X143411744Y-99299500D01*
X143344705Y-99279815D01*
X143311425Y-99248384D01*
X143239102Y-99148838D01*
X143240310Y-99147960D01*
X143214451Y-99090270D01*
X143224879Y-99021182D01*
X143271003Y-98968700D01*
X143338179Y-98949486D01*
X143375629Y-98955552D01*
X143398754Y-98963065D01*
X143631948Y-99000000D01*
X143868052Y-99000000D01*
X144101247Y-98963065D01*
X144325802Y-98890102D01*
X144536163Y-98782918D01*
X144536169Y-98782914D01*
X144619104Y-98722658D01*
X144619105Y-98722658D01*
X143920233Y-98023787D01*
X143962292Y-98012518D01*
X144087708Y-97940110D01*
X144190110Y-97837708D01*
X144262518Y-97712292D01*
X144273787Y-97670234D01*
X144972658Y-98369105D01*
X144972658Y-98369104D01*
X145032914Y-98286169D01*
X145032918Y-98286163D01*
X145140102Y-98075802D01*
X145213065Y-97851247D01*
X145250000Y-97618052D01*
X145250000Y-97381947D01*
X145213065Y-97148752D01*
X145140102Y-96924197D01*
X145032914Y-96713828D01*
X144972658Y-96630894D01*
X144972658Y-96630893D01*
X144273787Y-97329765D01*
X144262518Y-97287708D01*
X144190110Y-97162292D01*
X144087708Y-97059890D01*
X143962292Y-96987482D01*
X143920234Y-96976212D01*
X144619105Y-96277340D01*
X144619104Y-96277338D01*
X144536174Y-96217087D01*
X144325802Y-96109897D01*
X144101247Y-96036934D01*
X144101248Y-96036934D01*
X143868052Y-96000000D01*
X143631948Y-96000000D01*
X143398752Y-96036934D01*
X143174197Y-96109897D01*
X142963830Y-96217084D01*
X142880894Y-96277340D01*
X143579766Y-96976212D01*
X143537708Y-96987482D01*
X143412292Y-97059890D01*
X143309890Y-97162292D01*
X143237482Y-97287708D01*
X143226212Y-97329766D01*
X142527340Y-96630894D01*
X142467084Y-96713830D01*
X142359897Y-96924197D01*
X142286934Y-97148752D01*
X142250000Y-97381947D01*
X142250000Y-97618052D01*
X142286934Y-97851247D01*
X142359897Y-98075802D01*
X142467087Y-98286174D01*
X142527338Y-98369104D01*
X142527340Y-98369105D01*
X143226212Y-97670233D01*
X143237482Y-97712292D01*
X143309890Y-97837708D01*
X143412292Y-97940110D01*
X143537708Y-98012518D01*
X143579765Y-98023787D01*
X142847898Y-98755653D01*
X142786575Y-98789138D01*
X142721899Y-98785903D01*
X142554536Y-98731523D01*
X142395922Y-98706401D01*
X142352352Y-98699500D01*
X142147648Y-98699500D01*
X142123329Y-98703351D01*
X141945465Y-98731522D01*
X141750776Y-98794781D01*
X141568386Y-98887715D01*
X141402786Y-99008028D01*
X141258028Y-99152786D01*
X141137715Y-99318386D01*
X141044781Y-99500776D01*
X140981522Y-99695465D01*
X140949500Y-99897648D01*
X140949500Y-100102351D01*
X140981522Y-100304534D01*
X141044781Y-100499223D01*
X141067655Y-100544114D01*
X141133620Y-100673578D01*
X141137715Y-100681613D01*
X141258028Y-100847213D01*
X141402786Y-100991971D01*
X141557749Y-101104556D01*
X141568390Y-101112287D01*
X141656517Y-101157190D01*
X141750776Y-101205218D01*
X141750778Y-101205218D01*
X141750781Y-101205220D01*
X141850498Y-101237620D01*
X141945465Y-101268477D01*
X142027101Y-101281407D01*
X142147648Y-101300500D01*
X142147649Y-101300500D01*
X142352351Y-101300500D01*
X142352352Y-101300500D01*
X142539954Y-101270786D01*
X142609246Y-101279740D01*
X142662698Y-101324736D01*
X142683338Y-101391488D01*
X142664613Y-101458802D01*
X142647033Y-101480939D01*
X142605486Y-101522486D01*
X142605485Y-101522488D01*
X142605483Y-101522490D01*
X142559164Y-101586243D01*
X142466657Y-101713566D01*
X142359433Y-101924003D01*
X142286446Y-102148631D01*
X142249500Y-102381902D01*
X142249500Y-102618097D01*
X142286446Y-102851368D01*
X142359433Y-103075996D01*
X142422872Y-103200500D01*
X142466657Y-103286433D01*
X142605483Y-103477510D01*
X142772490Y-103644517D01*
X142963567Y-103783343D01*
X143062991Y-103834002D01*
X143174003Y-103890566D01*
X143174005Y-103890566D01*
X143174008Y-103890568D01*
X143253163Y-103916287D01*
X143398631Y-103963553D01*
X143631903Y-104000500D01*
X143631908Y-104000500D01*
X143868097Y-104000500D01*
X144101368Y-103963553D01*
X144325992Y-103890568D01*
X144536433Y-103783343D01*
X144727510Y-103644517D01*
X144894517Y-103477510D01*
X145033343Y-103286433D01*
X145140568Y-103075992D01*
X145213553Y-102851368D01*
X145224873Y-102779896D01*
X145250500Y-102618097D01*
X145250500Y-102381902D01*
X145213553Y-102148631D01*
X145140566Y-101924003D01*
X145067098Y-101779815D01*
X145033343Y-101713567D01*
X144894517Y-101522490D01*
X144727510Y-101355483D01*
X144536433Y-101216657D01*
X144513983Y-101205218D01*
X144325996Y-101109433D01*
X144101368Y-101036446D01*
X143868097Y-100999500D01*
X143868092Y-100999500D01*
X143631908Y-100999500D01*
X143631903Y-100999500D01*
X143398630Y-101036447D01*
X143398623Y-101036448D01*
X143376250Y-101043718D01*
X143306408Y-101045713D01*
X143246576Y-101009632D01*
X143215749Y-100946930D01*
X143223714Y-100877516D01*
X143239722Y-100851612D01*
X143239102Y-100851162D01*
X143311425Y-100751616D01*
X143366755Y-100708949D01*
X143411744Y-100700500D01*
X149318996Y-100700500D01*
X149413959Y-100681610D01*
X149454328Y-100673580D01*
X149518069Y-100647177D01*
X149581807Y-100620777D01*
X149581808Y-100620776D01*
X149581811Y-100620775D01*
X149696543Y-100544114D01*
X154408846Y-95831811D01*
X155402938Y-94837718D01*
X156608709Y-93631947D01*
X159250000Y-93631947D01*
X159250000Y-93868052D01*
X159286934Y-94101247D01*
X159359897Y-94325802D01*
X159467087Y-94536174D01*
X159527338Y-94619104D01*
X159527340Y-94619105D01*
X160226212Y-93920233D01*
X160237482Y-93962292D01*
X160309890Y-94087708D01*
X160412292Y-94190110D01*
X160537708Y-94262518D01*
X160579765Y-94273787D01*
X159880893Y-94972658D01*
X159963828Y-95032914D01*
X160174197Y-95140102D01*
X160398752Y-95213065D01*
X160398751Y-95213065D01*
X160631948Y-95250000D01*
X160868052Y-95250000D01*
X161101247Y-95213065D01*
X161325802Y-95140102D01*
X161536163Y-95032918D01*
X161536169Y-95032914D01*
X161619104Y-94972658D01*
X161619105Y-94972658D01*
X160920233Y-94273787D01*
X160962292Y-94262518D01*
X161087708Y-94190110D01*
X161190110Y-94087708D01*
X161262518Y-93962292D01*
X161273787Y-93920233D01*
X161972658Y-94619105D01*
X161972658Y-94619104D01*
X162032914Y-94536169D01*
X162032918Y-94536163D01*
X162140102Y-94325802D01*
X162213065Y-94101247D01*
X162250000Y-93868052D01*
X162250000Y-93631947D01*
X162213065Y-93398752D01*
X162140102Y-93174197D01*
X162032914Y-92963828D01*
X161972658Y-92880894D01*
X161972658Y-92880893D01*
X161273787Y-93579765D01*
X161262518Y-93537708D01*
X161190110Y-93412292D01*
X161087708Y-93309890D01*
X160962292Y-93237482D01*
X160920234Y-93226212D01*
X161619105Y-92527340D01*
X161619104Y-92527338D01*
X161536174Y-92467087D01*
X161325802Y-92359897D01*
X161101247Y-92286934D01*
X161101248Y-92286934D01*
X160868052Y-92250000D01*
X160631948Y-92250000D01*
X160398752Y-92286934D01*
X160174197Y-92359897D01*
X159963830Y-92467084D01*
X159880894Y-92527340D01*
X160579766Y-93226212D01*
X160537708Y-93237482D01*
X160412292Y-93309890D01*
X160309890Y-93412292D01*
X160237482Y-93537708D01*
X160226212Y-93579766D01*
X159527340Y-92880894D01*
X159467084Y-92963830D01*
X159359897Y-93174197D01*
X159286934Y-93398752D01*
X159250000Y-93631947D01*
X156608709Y-93631947D01*
X159003838Y-91236818D01*
X159065161Y-91203333D01*
X159091519Y-91200499D01*
X159650002Y-91200499D01*
X159650008Y-91200499D01*
X159752797Y-91189999D01*
X159919334Y-91134814D01*
X160068656Y-91042712D01*
X160162319Y-90949049D01*
X160223642Y-90915564D01*
X160293334Y-90920548D01*
X160337681Y-90949049D01*
X160431344Y-91042712D01*
X160580666Y-91134814D01*
X160747203Y-91189999D01*
X160849991Y-91200500D01*
X161650008Y-91200499D01*
X161650016Y-91200498D01*
X161650019Y-91200498D01*
X161706302Y-91194748D01*
X161752797Y-91189999D01*
X161919334Y-91134814D01*
X162068656Y-91042712D01*
X162192712Y-90918656D01*
X162284814Y-90769334D01*
X162339999Y-90602797D01*
X162350500Y-90500009D01*
X162350499Y-89941518D01*
X162370183Y-89874480D01*
X162386818Y-89853838D01*
X162603838Y-89636819D01*
X162665161Y-89603334D01*
X162691519Y-89600500D01*
X163025500Y-89600500D01*
X163092539Y-89620185D01*
X163138294Y-89672989D01*
X163149500Y-89724500D01*
X163149500Y-90500001D01*
X163149501Y-90500019D01*
X163160000Y-90602796D01*
X163160001Y-90602799D01*
X163215185Y-90769331D01*
X163215187Y-90769336D01*
X163230250Y-90793757D01*
X163307288Y-90918656D01*
X163431344Y-91042712D01*
X163490596Y-91079258D01*
X163537321Y-91131204D01*
X163549500Y-91184797D01*
X163549500Y-95431006D01*
X163549500Y-95568994D01*
X163549500Y-95568996D01*
X163549499Y-95568996D01*
X163576418Y-95704322D01*
X163576421Y-95704332D01*
X163629222Y-95831807D01*
X163705887Y-95946545D01*
X163705888Y-95946546D01*
X167433194Y-99673851D01*
X167466679Y-99735174D01*
X167467986Y-99780929D01*
X167449500Y-99897647D01*
X167449500Y-100102351D01*
X167481522Y-100304534D01*
X167544781Y-100499223D01*
X167567655Y-100544114D01*
X167633620Y-100673578D01*
X167637715Y-100681613D01*
X167758028Y-100847213D01*
X167902786Y-100991971D01*
X168057749Y-101104556D01*
X168068390Y-101112287D01*
X168156517Y-101157190D01*
X168250776Y-101205218D01*
X168250778Y-101205218D01*
X168250781Y-101205220D01*
X168350498Y-101237620D01*
X168445465Y-101268477D01*
X168527101Y-101281407D01*
X168647648Y-101300500D01*
X168647649Y-101300500D01*
X168852351Y-101300500D01*
X168852352Y-101300500D01*
X169008045Y-101275840D01*
X169017023Y-101277000D01*
X169025673Y-101274326D01*
X169051128Y-101281407D01*
X169077338Y-101284794D01*
X169084264Y-101290624D01*
X169092986Y-101293051D01*
X169110572Y-101312771D01*
X169130790Y-101329790D01*
X169134694Y-101339818D01*
X169139490Y-101345196D01*
X169149916Y-101378915D01*
X169174284Y-101532770D01*
X169165329Y-101602064D01*
X169139492Y-101639849D01*
X169016160Y-101763182D01*
X168954840Y-101796666D01*
X168928481Y-101799500D01*
X157653116Y-101799500D01*
X157586077Y-101779815D01*
X157542632Y-101731797D01*
X157533342Y-101713566D01*
X157394517Y-101522490D01*
X157383708Y-101511681D01*
X157350223Y-101450358D01*
X157355207Y-101380666D01*
X157397079Y-101324733D01*
X157462543Y-101300316D01*
X157471389Y-101300000D01*
X157500000Y-101300000D01*
X157500000Y-100375277D01*
X157576306Y-100419333D01*
X157690756Y-100450000D01*
X157809244Y-100450000D01*
X157923694Y-100419333D01*
X158000000Y-100375277D01*
X158000000Y-101300000D01*
X158597828Y-101300000D01*
X158597844Y-101299999D01*
X158657372Y-101293598D01*
X158657379Y-101293596D01*
X158792086Y-101243354D01*
X158792093Y-101243350D01*
X158907187Y-101157190D01*
X158907190Y-101157187D01*
X158993350Y-101042093D01*
X158993354Y-101042086D01*
X159043596Y-100907379D01*
X159043598Y-100907372D01*
X159049999Y-100847844D01*
X159050000Y-100847827D01*
X159050000Y-100250000D01*
X158125278Y-100250000D01*
X158169333Y-100173694D01*
X158200000Y-100059244D01*
X158200000Y-99940756D01*
X158169333Y-99826306D01*
X158125278Y-99750000D01*
X159050000Y-99750000D01*
X159050000Y-99152172D01*
X159049999Y-99152155D01*
X159043598Y-99092627D01*
X159043596Y-99092620D01*
X158993354Y-98957913D01*
X158993350Y-98957906D01*
X158907190Y-98842812D01*
X158907187Y-98842809D01*
X158792093Y-98756649D01*
X158792086Y-98756645D01*
X158657379Y-98706403D01*
X158657372Y-98706401D01*
X158597844Y-98700000D01*
X158000000Y-98700000D01*
X158000000Y-99624722D01*
X157923694Y-99580667D01*
X157809244Y-99550000D01*
X157690756Y-99550000D01*
X157576306Y-99580667D01*
X157500000Y-99624722D01*
X157500000Y-98700000D01*
X157355167Y-98700000D01*
X157313488Y-98741680D01*
X157252165Y-98775165D01*
X157182473Y-98770181D01*
X157138126Y-98741680D01*
X156420233Y-98023787D01*
X156462292Y-98012518D01*
X156587708Y-97940110D01*
X156690110Y-97837708D01*
X156762518Y-97712292D01*
X156773787Y-97670234D01*
X157472658Y-98369105D01*
X157472658Y-98369104D01*
X157532914Y-98286169D01*
X157532918Y-98286163D01*
X157640102Y-98075802D01*
X157713065Y-97851247D01*
X157750000Y-97618052D01*
X157750000Y-97381947D01*
X157713065Y-97148752D01*
X157640102Y-96924197D01*
X157532914Y-96713828D01*
X157472658Y-96630894D01*
X157472658Y-96630893D01*
X156773787Y-97329765D01*
X156762518Y-97287708D01*
X156690110Y-97162292D01*
X156587708Y-97059890D01*
X156462292Y-96987482D01*
X156420234Y-96976212D01*
X157119105Y-96277340D01*
X157119104Y-96277338D01*
X157036174Y-96217087D01*
X156825802Y-96109897D01*
X156601247Y-96036934D01*
X156601248Y-96036934D01*
X156368052Y-96000000D01*
X156131948Y-96000000D01*
X155898752Y-96036934D01*
X155674197Y-96109897D01*
X155463830Y-96217084D01*
X155380894Y-96277340D01*
X156079766Y-96976212D01*
X156037708Y-96987482D01*
X155912292Y-97059890D01*
X155809890Y-97162292D01*
X155737482Y-97287708D01*
X155726212Y-97329766D01*
X155027340Y-96630894D01*
X154967084Y-96713830D01*
X154859897Y-96924197D01*
X154786934Y-97148752D01*
X154750000Y-97381947D01*
X154750000Y-97618052D01*
X154786934Y-97851247D01*
X154859897Y-98075802D01*
X154967087Y-98286174D01*
X155027338Y-98369104D01*
X155027340Y-98369105D01*
X155726212Y-97670233D01*
X155737482Y-97712292D01*
X155809890Y-97837708D01*
X155912292Y-97940110D01*
X156037708Y-98012518D01*
X156079765Y-98023787D01*
X155380893Y-98722658D01*
X155463828Y-98782914D01*
X155674197Y-98890102D01*
X155898752Y-98963065D01*
X155898751Y-98963065D01*
X156131948Y-99000000D01*
X156328314Y-99000000D01*
X156395353Y-99019685D01*
X156441108Y-99072489D01*
X156451603Y-99137257D01*
X156450000Y-99152158D01*
X156450000Y-99750000D01*
X157374722Y-99750000D01*
X157330667Y-99826306D01*
X157300000Y-99940756D01*
X157300000Y-100059244D01*
X157330667Y-100173694D01*
X157374722Y-100250000D01*
X156450000Y-100250000D01*
X156450000Y-100847828D01*
X156451550Y-100862245D01*
X156439144Y-100931004D01*
X156391534Y-100982142D01*
X156328260Y-100999500D01*
X156131903Y-100999500D01*
X155898631Y-101036446D01*
X155674003Y-101109433D01*
X155463566Y-101216657D01*
X155369785Y-101284794D01*
X155272490Y-101355483D01*
X155272488Y-101355485D01*
X155272487Y-101355485D01*
X155105485Y-101522487D01*
X155105485Y-101522488D01*
X155105483Y-101522490D01*
X155059164Y-101586243D01*
X154966657Y-101713566D01*
X154859433Y-101924003D01*
X154786446Y-102148631D01*
X154749500Y-102381902D01*
X154749500Y-102618097D01*
X154786446Y-102851368D01*
X154859433Y-103075996D01*
X154922872Y-103200500D01*
X154966657Y-103286433D01*
X155105483Y-103477510D01*
X155272490Y-103644517D01*
X155463567Y-103783343D01*
X155562991Y-103834002D01*
X155674003Y-103890566D01*
X155674005Y-103890566D01*
X155674008Y-103890568D01*
X155753163Y-103916287D01*
X155898631Y-103963553D01*
X156131903Y-104000500D01*
X156131908Y-104000500D01*
X156368097Y-104000500D01*
X156601368Y-103963553D01*
X156825992Y-103890568D01*
X157036433Y-103783343D01*
X157227510Y-103644517D01*
X157394517Y-103477510D01*
X157533343Y-103286433D01*
X157542632Y-103268203D01*
X157590608Y-103217408D01*
X157653116Y-103200500D01*
X169107368Y-103200500D01*
X169174407Y-103220185D01*
X169220162Y-103272989D01*
X169230106Y-103342147D01*
X169225299Y-103362818D01*
X169182753Y-103493759D01*
X169149500Y-103703713D01*
X169149500Y-103916287D01*
X169149499Y-103916287D01*
X169174284Y-104072771D01*
X169165329Y-104142064D01*
X169139492Y-104179849D01*
X167806162Y-105513181D01*
X167744839Y-105546666D01*
X167718481Y-105549500D01*
X167153116Y-105549500D01*
X167086077Y-105529815D01*
X167042632Y-105481797D01*
X167033342Y-105463566D01*
X166894517Y-105272490D01*
X166727510Y-105105483D01*
X166536433Y-104966657D01*
X166515294Y-104955886D01*
X166325996Y-104859433D01*
X166101368Y-104786446D01*
X165868097Y-104749500D01*
X165868092Y-104749500D01*
X165631908Y-104749500D01*
X165631903Y-104749500D01*
X165398631Y-104786446D01*
X165174003Y-104859433D01*
X164963566Y-104966657D01*
X164916606Y-105000776D01*
X164772490Y-105105483D01*
X164772488Y-105105485D01*
X164772487Y-105105485D01*
X164605485Y-105272487D01*
X164605485Y-105272488D01*
X164605483Y-105272490D01*
X164545862Y-105354550D01*
X164466657Y-105463566D01*
X164359433Y-105674003D01*
X164286446Y-105898631D01*
X164249500Y-106131902D01*
X164249500Y-106368097D01*
X164286446Y-106601368D01*
X164359433Y-106825996D01*
X164409156Y-106923581D01*
X164466657Y-107036433D01*
X164605483Y-107227510D01*
X164772490Y-107394517D01*
X164963567Y-107533343D01*
X165047887Y-107576306D01*
X165174003Y-107640566D01*
X165174005Y-107640566D01*
X165174008Y-107640568D01*
X165294412Y-107679689D01*
X165398631Y-107713553D01*
X165631903Y-107750500D01*
X165631908Y-107750500D01*
X165868097Y-107750500D01*
X166101368Y-107713553D01*
X166102870Y-107713065D01*
X166325992Y-107640568D01*
X166536433Y-107533343D01*
X166727510Y-107394517D01*
X166894517Y-107227510D01*
X167033343Y-107036433D01*
X167042632Y-107018203D01*
X167090608Y-106967408D01*
X167153116Y-106950500D01*
X168128996Y-106950500D01*
X168220040Y-106932389D01*
X168264328Y-106923580D01*
X168328069Y-106897177D01*
X168391807Y-106870777D01*
X168391808Y-106870776D01*
X168391811Y-106870775D01*
X168506543Y-106794114D01*
X168937819Y-106362836D01*
X168999142Y-106329352D01*
X169068833Y-106334336D01*
X169124767Y-106376207D01*
X169148219Y-106432743D01*
X169149500Y-106441586D01*
X169149500Y-106456287D01*
X169174404Y-106613528D01*
X169174530Y-106614393D01*
X169169704Y-106648206D01*
X169165329Y-106682064D01*
X169164752Y-106682907D01*
X169164659Y-106683562D01*
X169162965Y-106685520D01*
X169139492Y-106719849D01*
X166346162Y-109513181D01*
X166284839Y-109546666D01*
X166258481Y-109549500D01*
X162645908Y-109549500D01*
X162578869Y-109529815D01*
X162540363Y-109485728D01*
X162538605Y-109486813D01*
X162526438Y-109467087D01*
X162442712Y-109331344D01*
X162318656Y-109207288D01*
X162169334Y-109115186D01*
X162002797Y-109060001D01*
X162002795Y-109060000D01*
X161900010Y-109049500D01*
X161099998Y-109049500D01*
X161099980Y-109049501D01*
X160997203Y-109060000D01*
X160997200Y-109060001D01*
X160830668Y-109115185D01*
X160830663Y-109115187D01*
X160681342Y-109207289D01*
X160587681Y-109300951D01*
X160526358Y-109334436D01*
X160456666Y-109329452D01*
X160412319Y-109300951D01*
X160318657Y-109207289D01*
X160318656Y-109207288D01*
X160169334Y-109115186D01*
X160002797Y-109060001D01*
X160002795Y-109060000D01*
X159900016Y-109049500D01*
X159900009Y-109049500D01*
X159341518Y-109049500D01*
X159274479Y-109029815D01*
X159253837Y-109013181D01*
X157753737Y-107513080D01*
X156455413Y-106214756D01*
X156372604Y-106131947D01*
X159250000Y-106131947D01*
X159250000Y-106368052D01*
X159286934Y-106601247D01*
X159359897Y-106825802D01*
X159467087Y-107036174D01*
X159527338Y-107119104D01*
X159527340Y-107119105D01*
X160226212Y-106420233D01*
X160237482Y-106462292D01*
X160309890Y-106587708D01*
X160412292Y-106690110D01*
X160537708Y-106762518D01*
X160579765Y-106773787D01*
X159880893Y-107472658D01*
X159963828Y-107532914D01*
X160174197Y-107640102D01*
X160398752Y-107713065D01*
X160398751Y-107713065D01*
X160631948Y-107750000D01*
X160868052Y-107750000D01*
X161101247Y-107713065D01*
X161325802Y-107640102D01*
X161536163Y-107532918D01*
X161536169Y-107532914D01*
X161619104Y-107472658D01*
X161619105Y-107472658D01*
X160920233Y-106773787D01*
X160962292Y-106762518D01*
X161087708Y-106690110D01*
X161190110Y-106587708D01*
X161262518Y-106462292D01*
X161273787Y-106420233D01*
X161972658Y-107119105D01*
X161972658Y-107119104D01*
X162032914Y-107036169D01*
X162032918Y-107036163D01*
X162140102Y-106825802D01*
X162213065Y-106601247D01*
X162250000Y-106368052D01*
X162250000Y-106131947D01*
X162213065Y-105898752D01*
X162140102Y-105674197D01*
X162032914Y-105463828D01*
X161972658Y-105380894D01*
X161972658Y-105380893D01*
X161273787Y-106079765D01*
X161262518Y-106037708D01*
X161190110Y-105912292D01*
X161087708Y-105809890D01*
X160962292Y-105737482D01*
X160920234Y-105726212D01*
X161619105Y-105027340D01*
X161619104Y-105027338D01*
X161536174Y-104967087D01*
X161325802Y-104859897D01*
X161101247Y-104786934D01*
X161101248Y-104786934D01*
X160868052Y-104750000D01*
X160631948Y-104750000D01*
X160398752Y-104786934D01*
X160174197Y-104859897D01*
X159963830Y-104967084D01*
X159880894Y-105027340D01*
X160579766Y-105726212D01*
X160537708Y-105737482D01*
X160412292Y-105809890D01*
X160309890Y-105912292D01*
X160237482Y-106037708D01*
X160226212Y-106079766D01*
X159527340Y-105380894D01*
X159467084Y-105463830D01*
X159359897Y-105674197D01*
X159286934Y-105898752D01*
X159250000Y-106131947D01*
X156372604Y-106131947D01*
X155402938Y-105162280D01*
X155196545Y-104955887D01*
X155081807Y-104879222D01*
X154954332Y-104826421D01*
X154954322Y-104826418D01*
X154818996Y-104799500D01*
X154818994Y-104799500D01*
X154818993Y-104799500D01*
X151161744Y-104799500D01*
X151094705Y-104779815D01*
X151061425Y-104748384D01*
X150991969Y-104652784D01*
X150847213Y-104508028D01*
X150681613Y-104387715D01*
X150681612Y-104387714D01*
X150681610Y-104387713D01*
X150624653Y-104358691D01*
X150499223Y-104294781D01*
X150304534Y-104231522D01*
X150129995Y-104203878D01*
X150102352Y-104199500D01*
X149897648Y-104199500D01*
X149873329Y-104203351D01*
X149695465Y-104231522D01*
X149500776Y-104294781D01*
X149318386Y-104387715D01*
X149152786Y-104508028D01*
X149008028Y-104652786D01*
X148887715Y-104818386D01*
X148794781Y-105000776D01*
X148731522Y-105195465D01*
X148699500Y-105397648D01*
X148699500Y-105602351D01*
X148731522Y-105804534D01*
X148794781Y-105999223D01*
X148887712Y-106181609D01*
X148993817Y-106327651D01*
X149017296Y-106393458D01*
X149001470Y-106461511D01*
X148963346Y-106499106D01*
X148965011Y-106501331D01*
X148842812Y-106592809D01*
X148842809Y-106592812D01*
X148756649Y-106707906D01*
X148756645Y-106707913D01*
X148706403Y-106842620D01*
X148706401Y-106842627D01*
X148700000Y-106902155D01*
X148700000Y-107500000D01*
X149624722Y-107500000D01*
X149580667Y-107576306D01*
X149550000Y-107690756D01*
X149550000Y-107809244D01*
X149580667Y-107923694D01*
X149624722Y-108000000D01*
X148700000Y-108000000D01*
X148700000Y-108597844D01*
X148706401Y-108657372D01*
X148706403Y-108657379D01*
X148756645Y-108792086D01*
X148756649Y-108792093D01*
X148842809Y-108907187D01*
X148842812Y-108907190D01*
X148957906Y-108993350D01*
X148957913Y-108993354D01*
X149092620Y-109043596D01*
X149092627Y-109043598D01*
X149152155Y-109049999D01*
X149152172Y-109050000D01*
X149750000Y-109050000D01*
X149750000Y-108125277D01*
X149826306Y-108169333D01*
X149940756Y-108200000D01*
X150059244Y-108200000D01*
X150173694Y-108169333D01*
X150250000Y-108125277D01*
X150250000Y-109050000D01*
X150847828Y-109050000D01*
X150847844Y-109049999D01*
X150907372Y-109043598D01*
X150907379Y-109043596D01*
X151042086Y-108993354D01*
X151042093Y-108993350D01*
X151157187Y-108907190D01*
X151157190Y-108907187D01*
X151243350Y-108792093D01*
X151243354Y-108792086D01*
X151293596Y-108657379D01*
X151293598Y-108657372D01*
X151299999Y-108597844D01*
X151300000Y-108597827D01*
X151300000Y-108000000D01*
X150375278Y-108000000D01*
X150419333Y-107923694D01*
X150450000Y-107809244D01*
X150450000Y-107690756D01*
X150419333Y-107576306D01*
X150375278Y-107500000D01*
X151300000Y-107500000D01*
X151300000Y-106902172D01*
X151299999Y-106902155D01*
X151293598Y-106842627D01*
X151293596Y-106842620D01*
X151243354Y-106707913D01*
X151243350Y-106707906D01*
X151157190Y-106592812D01*
X151157187Y-106592809D01*
X151034989Y-106501331D01*
X151036719Y-106499019D01*
X151035071Y-106497370D01*
X151020081Y-106489461D01*
X151010883Y-106473173D01*
X150997658Y-106459944D01*
X150994057Y-106443378D01*
X150985724Y-106428622D01*
X150986791Y-106409949D01*
X150982818Y-106391668D01*
X150988768Y-106375363D01*
X150989712Y-106358866D01*
X151006183Y-106327651D01*
X151061426Y-106251615D01*
X151116755Y-106208949D01*
X151161744Y-106200500D01*
X154408481Y-106200500D01*
X154475520Y-106220185D01*
X154496162Y-106236819D01*
X158363181Y-110103837D01*
X158396666Y-110165160D01*
X158399500Y-110191518D01*
X158399500Y-110750001D01*
X158399501Y-110750019D01*
X158410000Y-110852796D01*
X158410001Y-110852799D01*
X158463149Y-111013187D01*
X158465186Y-111019334D01*
X158557288Y-111168656D01*
X158681344Y-111292712D01*
X158830666Y-111384814D01*
X158997203Y-111439999D01*
X159099991Y-111450500D01*
X159900008Y-111450499D01*
X159900016Y-111450498D01*
X159900019Y-111450498D01*
X159956302Y-111444748D01*
X160002797Y-111439999D01*
X160169334Y-111384814D01*
X160318656Y-111292712D01*
X160412319Y-111199049D01*
X160473642Y-111165564D01*
X160543334Y-111170548D01*
X160587681Y-111199049D01*
X160681344Y-111292712D01*
X160830666Y-111384814D01*
X160997203Y-111439999D01*
X161099991Y-111450500D01*
X161900008Y-111450499D01*
X161900016Y-111450498D01*
X161900019Y-111450498D01*
X161956302Y-111444748D01*
X162002797Y-111439999D01*
X162169334Y-111384814D01*
X162318656Y-111292712D01*
X162442712Y-111168656D01*
X162534814Y-111019334D01*
X162534815Y-111019331D01*
X162538605Y-111013187D01*
X162540399Y-111014293D01*
X162579687Y-110969663D01*
X162645908Y-110950500D01*
X166668996Y-110950500D01*
X166760040Y-110932389D01*
X166804328Y-110923580D01*
X166868069Y-110897177D01*
X166931807Y-110870777D01*
X166931808Y-110870776D01*
X166931811Y-110870775D01*
X167046543Y-110794114D01*
X168937819Y-108902836D01*
X168999142Y-108869352D01*
X169068833Y-108874336D01*
X169124767Y-108916208D01*
X169148219Y-108972743D01*
X169149500Y-108981586D01*
X169149500Y-108996287D01*
X169174404Y-109153528D01*
X169174530Y-109154393D01*
X169169704Y-109188206D01*
X169165329Y-109222064D01*
X169164752Y-109222907D01*
X169164659Y-109223562D01*
X169162965Y-109225520D01*
X169139492Y-109259849D01*
X163386162Y-115013181D01*
X163324839Y-115046666D01*
X163298481Y-115049500D01*
X157653116Y-115049500D01*
X157586077Y-115029815D01*
X157542632Y-114981797D01*
X157533342Y-114963566D01*
X157524238Y-114951035D01*
X157394517Y-114772490D01*
X157227510Y-114605483D01*
X157036433Y-114466657D01*
X156825996Y-114359433D01*
X156601368Y-114286446D01*
X156368097Y-114249500D01*
X156368092Y-114249500D01*
X156131908Y-114249500D01*
X156131903Y-114249500D01*
X155898631Y-114286446D01*
X155674003Y-114359433D01*
X155463566Y-114466657D01*
X155433892Y-114488217D01*
X155272490Y-114605483D01*
X155272488Y-114605485D01*
X155272487Y-114605485D01*
X155105485Y-114772487D01*
X155105485Y-114772488D01*
X155105483Y-114772490D01*
X155045862Y-114854550D01*
X154966657Y-114963566D01*
X154957368Y-114981797D01*
X154909392Y-115032592D01*
X154846884Y-115049500D01*
X145153116Y-115049500D01*
X145086077Y-115029815D01*
X145042632Y-114981797D01*
X145033342Y-114963566D01*
X145024238Y-114951035D01*
X144894517Y-114772490D01*
X144727510Y-114605483D01*
X144536433Y-114466657D01*
X144325996Y-114359433D01*
X144101368Y-114286446D01*
X143868097Y-114249500D01*
X143868092Y-114249500D01*
X143631908Y-114249500D01*
X143631903Y-114249500D01*
X143398631Y-114286446D01*
X143174003Y-114359433D01*
X142963566Y-114466657D01*
X142933892Y-114488217D01*
X142772490Y-114605483D01*
X142772488Y-114605485D01*
X142772487Y-114605485D01*
X142605485Y-114772487D01*
X142605485Y-114772488D01*
X142605483Y-114772490D01*
X142545862Y-114854550D01*
X142466657Y-114963566D01*
X142359433Y-115174003D01*
X142286446Y-115398631D01*
X142249500Y-115631902D01*
X142249500Y-115868097D01*
X142286446Y-116101368D01*
X142359433Y-116325996D01*
X142422872Y-116450500D01*
X142466657Y-116536433D01*
X142605483Y-116727510D01*
X142772490Y-116894517D01*
X142963567Y-117033343D01*
X142998125Y-117050951D01*
X143174003Y-117140566D01*
X143174005Y-117140566D01*
X143174008Y-117140568D01*
X143227206Y-117157853D01*
X143398631Y-117213553D01*
X143631903Y-117250500D01*
X143631908Y-117250500D01*
X143868097Y-117250500D01*
X144101368Y-117213553D01*
X144325992Y-117140568D01*
X144536433Y-117033343D01*
X144727510Y-116894517D01*
X144894517Y-116727510D01*
X145033343Y-116536433D01*
X145042632Y-116518203D01*
X145090608Y-116467408D01*
X145153116Y-116450500D01*
X154846884Y-116450500D01*
X154913923Y-116470185D01*
X154957368Y-116518203D01*
X154966657Y-116536433D01*
X155105483Y-116727510D01*
X155272490Y-116894517D01*
X155463567Y-117033343D01*
X155498125Y-117050951D01*
X155525727Y-117065015D01*
X155576523Y-117112990D01*
X155593318Y-117180811D01*
X155570781Y-117246946D01*
X155516066Y-117290397D01*
X155469432Y-117299500D01*
X150681003Y-117299500D01*
X150572590Y-117321065D01*
X150572589Y-117321065D01*
X150545671Y-117326420D01*
X150418187Y-117379225D01*
X150313000Y-117449509D01*
X150246323Y-117470387D01*
X150224712Y-117468880D01*
X150142671Y-117455886D01*
X150102352Y-117449500D01*
X149897648Y-117449500D01*
X149873329Y-117453351D01*
X149695465Y-117481522D01*
X149500776Y-117544781D01*
X149318386Y-117637715D01*
X149152786Y-117758028D01*
X149008028Y-117902786D01*
X148887715Y-118068386D01*
X148794781Y-118250776D01*
X148731522Y-118445465D01*
X148699500Y-118647648D01*
X148699500Y-118852351D01*
X148731522Y-119054534D01*
X148794781Y-119249223D01*
X148830440Y-119319205D01*
X148843336Y-119387874D01*
X148817060Y-119452614D01*
X148759954Y-119492872D01*
X148719955Y-119499500D01*
X131003751Y-119499500D01*
X130996264Y-119499274D01*
X130706205Y-119481728D01*
X130691340Y-119479923D01*
X130409202Y-119428219D01*
X130394664Y-119424635D01*
X130120825Y-119339304D01*
X130106827Y-119333995D01*
X129918462Y-119249219D01*
X129845269Y-119216277D01*
X129832012Y-119209319D01*
X129586541Y-119060928D01*
X129574217Y-119052422D01*
X129561823Y-119042712D01*
X129348426Y-118875525D01*
X129337218Y-118865595D01*
X129134404Y-118662781D01*
X129124474Y-118651573D01*
X129040283Y-118544112D01*
X128947573Y-118425776D01*
X128939071Y-118413458D01*
X128790680Y-118167987D01*
X128783722Y-118154730D01*
X128666000Y-117893163D01*
X128660698Y-117879182D01*
X128575363Y-117605334D01*
X128571780Y-117590797D01*
X128551755Y-117481523D01*
X128520075Y-117308657D01*
X128518271Y-117293794D01*
X128517425Y-117279815D01*
X128500726Y-117003736D01*
X128500500Y-116996249D01*
X128500500Y-116878711D01*
X131149500Y-116878711D01*
X131149500Y-117121288D01*
X131181161Y-117361785D01*
X131243947Y-117596104D01*
X131311021Y-117758034D01*
X131336776Y-117820212D01*
X131458064Y-118030289D01*
X131458066Y-118030292D01*
X131458067Y-118030293D01*
X131605733Y-118222736D01*
X131605739Y-118222743D01*
X131777256Y-118394260D01*
X131777263Y-118394266D01*
X131890321Y-118481018D01*
X131969711Y-118541936D01*
X132179788Y-118663224D01*
X132403900Y-118756054D01*
X132638211Y-118818838D01*
X132818586Y-118842584D01*
X132878711Y-118850500D01*
X132878712Y-118850500D01*
X133121289Y-118850500D01*
X133169388Y-118844167D01*
X133361789Y-118818838D01*
X133596100Y-118756054D01*
X133820212Y-118663224D01*
X134030289Y-118541936D01*
X134222738Y-118394265D01*
X134394265Y-118222738D01*
X134541936Y-118030289D01*
X134663224Y-117820212D01*
X134756054Y-117596100D01*
X134818838Y-117361789D01*
X134850500Y-117121288D01*
X134850500Y-116878712D01*
X134848719Y-116865187D01*
X134837547Y-116780320D01*
X134818838Y-116638211D01*
X134756054Y-116403900D01*
X134663224Y-116179788D01*
X134541936Y-115969711D01*
X134394265Y-115777262D01*
X134394260Y-115777256D01*
X134222743Y-115605739D01*
X134222736Y-115605733D01*
X134030293Y-115458067D01*
X134030292Y-115458066D01*
X134030289Y-115458064D01*
X133820212Y-115336776D01*
X133820205Y-115336773D01*
X133596104Y-115243947D01*
X133361785Y-115181161D01*
X133121289Y-115149500D01*
X133121288Y-115149500D01*
X132878712Y-115149500D01*
X132878711Y-115149500D01*
X132638214Y-115181161D01*
X132403895Y-115243947D01*
X132179794Y-115336773D01*
X132179785Y-115336777D01*
X131969706Y-115458067D01*
X131777263Y-115605733D01*
X131777256Y-115605739D01*
X131605739Y-115777256D01*
X131605733Y-115777263D01*
X131458067Y-115969706D01*
X131336777Y-116179785D01*
X131336773Y-116179794D01*
X131243947Y-116403895D01*
X131181161Y-116638214D01*
X131149500Y-116878711D01*
X128500500Y-116878711D01*
X128500500Y-110631947D01*
X142250000Y-110631947D01*
X142250000Y-110868052D01*
X142286934Y-111101247D01*
X142359897Y-111325802D01*
X142467087Y-111536174D01*
X142527338Y-111619104D01*
X142527340Y-111619105D01*
X143226212Y-110920233D01*
X143237482Y-110962292D01*
X143309890Y-111087708D01*
X143412292Y-111190110D01*
X143537708Y-111262518D01*
X143579765Y-111273787D01*
X142880893Y-111972658D01*
X142963828Y-112032914D01*
X143174197Y-112140102D01*
X143398752Y-112213065D01*
X143398751Y-112213065D01*
X143631948Y-112250000D01*
X143868052Y-112250000D01*
X144101247Y-112213065D01*
X144325802Y-112140102D01*
X144536163Y-112032918D01*
X144536169Y-112032914D01*
X144619104Y-111972658D01*
X144619105Y-111972658D01*
X143920233Y-111273787D01*
X143962292Y-111262518D01*
X144087708Y-111190110D01*
X144190110Y-111087708D01*
X144262518Y-110962292D01*
X144273787Y-110920234D01*
X144972658Y-111619105D01*
X144972658Y-111619104D01*
X145032914Y-111536169D01*
X145032918Y-111536163D01*
X145140102Y-111325802D01*
X145213065Y-111101247D01*
X145250000Y-110868052D01*
X145250000Y-110631947D01*
X154750000Y-110631947D01*
X154750000Y-110868052D01*
X154786934Y-111101247D01*
X154859897Y-111325802D01*
X154967087Y-111536174D01*
X155027338Y-111619104D01*
X155027340Y-111619105D01*
X155726212Y-110920233D01*
X155737482Y-110962292D01*
X155809890Y-111087708D01*
X155912292Y-111190110D01*
X156037708Y-111262518D01*
X156079765Y-111273787D01*
X155380893Y-111972658D01*
X155463828Y-112032914D01*
X155674197Y-112140102D01*
X155898752Y-112213065D01*
X155898751Y-112213065D01*
X156131948Y-112250000D01*
X156368052Y-112250000D01*
X156601247Y-112213065D01*
X156825802Y-112140102D01*
X157036163Y-112032918D01*
X157036169Y-112032914D01*
X157119104Y-111972658D01*
X157119105Y-111972658D01*
X156420233Y-111273787D01*
X156462292Y-111262518D01*
X156587708Y-111190110D01*
X156690110Y-111087708D01*
X156762518Y-110962292D01*
X156773787Y-110920234D01*
X157472658Y-111619105D01*
X157472658Y-111619104D01*
X157532914Y-111536169D01*
X157532918Y-111536163D01*
X157640102Y-111325802D01*
X157713065Y-111101247D01*
X157750000Y-110868052D01*
X157750000Y-110631947D01*
X157713065Y-110398752D01*
X157640102Y-110174197D01*
X157532914Y-109963828D01*
X157472658Y-109880894D01*
X157472658Y-109880893D01*
X156773787Y-110579765D01*
X156762518Y-110537708D01*
X156690110Y-110412292D01*
X156587708Y-110309890D01*
X156462292Y-110237482D01*
X156420234Y-110226212D01*
X157119105Y-109527340D01*
X157119104Y-109527338D01*
X157036174Y-109467087D01*
X156825802Y-109359897D01*
X156601247Y-109286934D01*
X156601248Y-109286934D01*
X156368052Y-109250000D01*
X156131948Y-109250000D01*
X155898752Y-109286934D01*
X155674197Y-109359897D01*
X155463830Y-109467084D01*
X155380894Y-109527340D01*
X156079766Y-110226212D01*
X156037708Y-110237482D01*
X155912292Y-110309890D01*
X155809890Y-110412292D01*
X155737482Y-110537708D01*
X155726212Y-110579766D01*
X155027340Y-109880894D01*
X154967084Y-109963830D01*
X154859897Y-110174197D01*
X154786934Y-110398752D01*
X154750000Y-110631947D01*
X145250000Y-110631947D01*
X145213065Y-110398752D01*
X145140102Y-110174197D01*
X145032914Y-109963828D01*
X144972658Y-109880894D01*
X144972658Y-109880893D01*
X144273787Y-110579765D01*
X144262518Y-110537708D01*
X144190110Y-110412292D01*
X144087708Y-110309890D01*
X143962292Y-110237482D01*
X143920234Y-110226212D01*
X144619105Y-109527340D01*
X144619104Y-109527339D01*
X144536174Y-109467087D01*
X144325802Y-109359897D01*
X144101247Y-109286934D01*
X144101248Y-109286934D01*
X143868052Y-109250000D01*
X143631948Y-109250000D01*
X143398752Y-109286934D01*
X143174197Y-109359897D01*
X142963830Y-109467084D01*
X142880894Y-109527340D01*
X143579766Y-110226212D01*
X143537708Y-110237482D01*
X143412292Y-110309890D01*
X143309890Y-110412292D01*
X143237482Y-110537708D01*
X143226212Y-110579766D01*
X142527340Y-109880894D01*
X142467084Y-109963830D01*
X142359897Y-110174197D01*
X142286934Y-110398752D01*
X142250000Y-110631947D01*
X128500500Y-110631947D01*
X128500500Y-106131947D01*
X132750000Y-106131947D01*
X132750000Y-106368052D01*
X132786934Y-106601247D01*
X132859897Y-106825802D01*
X132967087Y-107036174D01*
X133027338Y-107119104D01*
X133027340Y-107119105D01*
X133726212Y-106420233D01*
X133737482Y-106462292D01*
X133809890Y-106587708D01*
X133912292Y-106690110D01*
X134037708Y-106762518D01*
X134079765Y-106773787D01*
X133380893Y-107472658D01*
X133463828Y-107532914D01*
X133674197Y-107640102D01*
X133898752Y-107713065D01*
X133898751Y-107713065D01*
X134131948Y-107750000D01*
X134368052Y-107750000D01*
X134601247Y-107713065D01*
X134825802Y-107640102D01*
X135036163Y-107532918D01*
X135036169Y-107532914D01*
X135119104Y-107472658D01*
X135119105Y-107472658D01*
X134420233Y-106773787D01*
X134462292Y-106762518D01*
X134587708Y-106690110D01*
X134690110Y-106587708D01*
X134762518Y-106462292D01*
X134773787Y-106420234D01*
X135472658Y-107119105D01*
X135472658Y-107119104D01*
X135532914Y-107036169D01*
X135532918Y-107036163D01*
X135640102Y-106825802D01*
X135713065Y-106601247D01*
X135750000Y-106368052D01*
X135750000Y-106131947D01*
X135749993Y-106131902D01*
X137749500Y-106131902D01*
X137749500Y-106368097D01*
X137786446Y-106601368D01*
X137859433Y-106825996D01*
X137909156Y-106923581D01*
X137966657Y-107036433D01*
X138105483Y-107227510D01*
X138272490Y-107394517D01*
X138463567Y-107533343D01*
X138547887Y-107576306D01*
X138674003Y-107640566D01*
X138674005Y-107640566D01*
X138674008Y-107640568D01*
X138794412Y-107679689D01*
X138898631Y-107713553D01*
X139131903Y-107750500D01*
X139131908Y-107750500D01*
X139368097Y-107750500D01*
X139601368Y-107713553D01*
X139602870Y-107713065D01*
X139825992Y-107640568D01*
X140036433Y-107533343D01*
X140227510Y-107394517D01*
X140394517Y-107227510D01*
X140533343Y-107036433D01*
X140640568Y-106825992D01*
X140713553Y-106601368D01*
X140715717Y-106587708D01*
X140750500Y-106368097D01*
X140750500Y-106131902D01*
X140713553Y-105898631D01*
X140640566Y-105674003D01*
X140567098Y-105529815D01*
X140533343Y-105463567D01*
X140394517Y-105272490D01*
X140227510Y-105105483D01*
X140036433Y-104966657D01*
X140015294Y-104955886D01*
X139825996Y-104859433D01*
X139601368Y-104786446D01*
X139368097Y-104749500D01*
X139368092Y-104749500D01*
X139131908Y-104749500D01*
X139131903Y-104749500D01*
X138898631Y-104786446D01*
X138674003Y-104859433D01*
X138463566Y-104966657D01*
X138416606Y-105000776D01*
X138272490Y-105105483D01*
X138272488Y-105105485D01*
X138272487Y-105105485D01*
X138105485Y-105272487D01*
X138105485Y-105272488D01*
X138105483Y-105272490D01*
X138045862Y-105354550D01*
X137966657Y-105463566D01*
X137859433Y-105674003D01*
X137786446Y-105898631D01*
X137749500Y-106131902D01*
X135749993Y-106131902D01*
X135713065Y-105898752D01*
X135640102Y-105674197D01*
X135532914Y-105463828D01*
X135472658Y-105380894D01*
X135472658Y-105380893D01*
X134773787Y-106079765D01*
X134762518Y-106037708D01*
X134690110Y-105912292D01*
X134587708Y-105809890D01*
X134462292Y-105737482D01*
X134420234Y-105726212D01*
X135119105Y-105027340D01*
X135119104Y-105027338D01*
X135036174Y-104967087D01*
X134825802Y-104859897D01*
X134601247Y-104786934D01*
X134601248Y-104786934D01*
X134368052Y-104750000D01*
X134131948Y-104750000D01*
X133898752Y-104786934D01*
X133674197Y-104859897D01*
X133463830Y-104967084D01*
X133380894Y-105027340D01*
X134079766Y-105726212D01*
X134037708Y-105737482D01*
X133912292Y-105809890D01*
X133809890Y-105912292D01*
X133737482Y-106037708D01*
X133726212Y-106079766D01*
X133027340Y-105380894D01*
X132967084Y-105463830D01*
X132859897Y-105674197D01*
X132786934Y-105898752D01*
X132750000Y-106131947D01*
X128500500Y-106131947D01*
X128500500Y-99152155D01*
X129950000Y-99152155D01*
X129950000Y-99750000D01*
X130874722Y-99750000D01*
X130830667Y-99826306D01*
X130800000Y-99940756D01*
X130800000Y-100059244D01*
X130830667Y-100173694D01*
X130874722Y-100250000D01*
X129950000Y-100250000D01*
X129950000Y-100847844D01*
X129956401Y-100907372D01*
X129956403Y-100907379D01*
X130006645Y-101042086D01*
X130006649Y-101042093D01*
X130092809Y-101157187D01*
X130092812Y-101157190D01*
X130207906Y-101243350D01*
X130207913Y-101243354D01*
X130342620Y-101293596D01*
X130342627Y-101293598D01*
X130402155Y-101299999D01*
X130402172Y-101300000D01*
X131000000Y-101300000D01*
X131000000Y-100375277D01*
X131076306Y-100419333D01*
X131190756Y-100450000D01*
X131309244Y-100450000D01*
X131423694Y-100419333D01*
X131500000Y-100375277D01*
X131500000Y-101300000D01*
X132097828Y-101300000D01*
X132097844Y-101299999D01*
X132157372Y-101293598D01*
X132157379Y-101293596D01*
X132292086Y-101243354D01*
X132292093Y-101243350D01*
X132407187Y-101157190D01*
X132407190Y-101157187D01*
X132493350Y-101042093D01*
X132493354Y-101042086D01*
X132543596Y-100907379D01*
X132543598Y-100907372D01*
X132549999Y-100847844D01*
X132550000Y-100847827D01*
X132550000Y-100250000D01*
X131625278Y-100250000D01*
X131669333Y-100173694D01*
X131700000Y-100059244D01*
X131700000Y-99940756D01*
X131669333Y-99826306D01*
X131625278Y-99750000D01*
X132550000Y-99750000D01*
X132550000Y-99152172D01*
X132549999Y-99152155D01*
X132543598Y-99092627D01*
X132543596Y-99092620D01*
X132493354Y-98957913D01*
X132493350Y-98957906D01*
X132407190Y-98842812D01*
X132407187Y-98842809D01*
X132292093Y-98756649D01*
X132292086Y-98756645D01*
X132157379Y-98706403D01*
X132157372Y-98706401D01*
X132097844Y-98700000D01*
X131500000Y-98700000D01*
X131500000Y-99624722D01*
X131423694Y-99580667D01*
X131309244Y-99550000D01*
X131190756Y-99550000D01*
X131076306Y-99580667D01*
X131000000Y-99624722D01*
X131000000Y-98700000D01*
X130402155Y-98700000D01*
X130342627Y-98706401D01*
X130342620Y-98706403D01*
X130207913Y-98756645D01*
X130207906Y-98756649D01*
X130092812Y-98842809D01*
X130092809Y-98842812D01*
X130006649Y-98957906D01*
X130006645Y-98957913D01*
X129956403Y-99092620D01*
X129956401Y-99092627D01*
X129950000Y-99152155D01*
X128500500Y-99152155D01*
X128500500Y-93631947D01*
X132750000Y-93631947D01*
X132750000Y-93868052D01*
X132786934Y-94101247D01*
X132859897Y-94325802D01*
X132967087Y-94536174D01*
X133027338Y-94619104D01*
X133027340Y-94619105D01*
X133726212Y-93920233D01*
X133737482Y-93962292D01*
X133809890Y-94087708D01*
X133912292Y-94190110D01*
X134037708Y-94262518D01*
X134079765Y-94273787D01*
X133380893Y-94972658D01*
X133463828Y-95032914D01*
X133674197Y-95140102D01*
X133898752Y-95213065D01*
X133898751Y-95213065D01*
X134131948Y-95250000D01*
X134368052Y-95250000D01*
X134601247Y-95213065D01*
X134825802Y-95140102D01*
X135036163Y-95032918D01*
X135036169Y-95032914D01*
X135119104Y-94972658D01*
X135119105Y-94972658D01*
X134420233Y-94273787D01*
X134462292Y-94262518D01*
X134587708Y-94190110D01*
X134690110Y-94087708D01*
X134762518Y-93962292D01*
X134773787Y-93920234D01*
X135472658Y-94619105D01*
X135472658Y-94619104D01*
X135532914Y-94536169D01*
X135532918Y-94536163D01*
X135640102Y-94325802D01*
X135713065Y-94101247D01*
X135750000Y-93868052D01*
X135750000Y-93631947D01*
X135749993Y-93631902D01*
X137749500Y-93631902D01*
X137749500Y-93868097D01*
X137786446Y-94101368D01*
X137859433Y-94325996D01*
X137917907Y-94440756D01*
X137966657Y-94536433D01*
X138105483Y-94727510D01*
X138272490Y-94894517D01*
X138463567Y-95033343D01*
X138562991Y-95084002D01*
X138674003Y-95140566D01*
X138674005Y-95140566D01*
X138674008Y-95140568D01*
X138788965Y-95177920D01*
X138898631Y-95213553D01*
X139131903Y-95250500D01*
X139131908Y-95250500D01*
X139368097Y-95250500D01*
X139601368Y-95213553D01*
X139612786Y-95209843D01*
X139825992Y-95140568D01*
X140036433Y-95033343D01*
X140227510Y-94894517D01*
X140394517Y-94727510D01*
X140533343Y-94536433D01*
X140640568Y-94325992D01*
X140713553Y-94101368D01*
X140734955Y-93966243D01*
X140750500Y-93868097D01*
X140750500Y-93631902D01*
X140713553Y-93398631D01*
X140664969Y-93249106D01*
X140640568Y-93174008D01*
X140640566Y-93174005D01*
X140640566Y-93174003D01*
X140533477Y-92963830D01*
X140533343Y-92963567D01*
X140394517Y-92772490D01*
X140227510Y-92605483D01*
X140036433Y-92466657D01*
X139825996Y-92359433D01*
X139601368Y-92286446D01*
X139368097Y-92249500D01*
X139368092Y-92249500D01*
X139131908Y-92249500D01*
X139131903Y-92249500D01*
X138898631Y-92286446D01*
X138674003Y-92359433D01*
X138463566Y-92466657D01*
X138380047Y-92527338D01*
X138272490Y-92605483D01*
X138272488Y-92605485D01*
X138272487Y-92605485D01*
X138105485Y-92772487D01*
X138105485Y-92772488D01*
X138105483Y-92772490D01*
X138045862Y-92854550D01*
X137966657Y-92963566D01*
X137859433Y-93174003D01*
X137786446Y-93398631D01*
X137749500Y-93631902D01*
X135749993Y-93631902D01*
X135713065Y-93398752D01*
X135640102Y-93174197D01*
X135532914Y-92963828D01*
X135472658Y-92880894D01*
X135472658Y-92880893D01*
X134773787Y-93579765D01*
X134762518Y-93537708D01*
X134690110Y-93412292D01*
X134587708Y-93309890D01*
X134462292Y-93237482D01*
X134420234Y-93226212D01*
X135119105Y-92527340D01*
X135119104Y-92527338D01*
X135036174Y-92467087D01*
X134825802Y-92359897D01*
X134601247Y-92286934D01*
X134601248Y-92286934D01*
X134368052Y-92250000D01*
X134131948Y-92250000D01*
X133898752Y-92286934D01*
X133674197Y-92359897D01*
X133463830Y-92467084D01*
X133380894Y-92527340D01*
X134079766Y-93226212D01*
X134037708Y-93237482D01*
X133912292Y-93309890D01*
X133809890Y-93412292D01*
X133737482Y-93537708D01*
X133726212Y-93579766D01*
X133027340Y-92880894D01*
X132967084Y-92963830D01*
X132859897Y-93174197D01*
X132786934Y-93398752D01*
X132750000Y-93631947D01*
X128500500Y-93631947D01*
X128500500Y-89131902D01*
X142249500Y-89131902D01*
X142249500Y-89368097D01*
X142286446Y-89601368D01*
X142359433Y-89825996D01*
X142466657Y-90036433D01*
X142605483Y-90227510D01*
X142772490Y-90394517D01*
X142963567Y-90533343D01*
X143062991Y-90584002D01*
X143174003Y-90640566D01*
X143174005Y-90640566D01*
X143174008Y-90640568D01*
X143294412Y-90679689D01*
X143398631Y-90713553D01*
X143631903Y-90750500D01*
X143631908Y-90750500D01*
X143868097Y-90750500D01*
X144101368Y-90713553D01*
X144325992Y-90640568D01*
X144536433Y-90533343D01*
X144727510Y-90394517D01*
X144894517Y-90227510D01*
X145033343Y-90036433D01*
X145140568Y-89825992D01*
X145213553Y-89601368D01*
X145213753Y-89600104D01*
X145250500Y-89368097D01*
X145250500Y-89131902D01*
X145213553Y-88898631D01*
X145140566Y-88674003D01*
X145070073Y-88535654D01*
X145033343Y-88463567D01*
X144894517Y-88272490D01*
X144727510Y-88105483D01*
X144536433Y-87966657D01*
X144325996Y-87859433D01*
X144101368Y-87786446D01*
X143868097Y-87749500D01*
X143868092Y-87749500D01*
X143631908Y-87749500D01*
X143631903Y-87749500D01*
X143398631Y-87786446D01*
X143174003Y-87859433D01*
X142963566Y-87966657D01*
X142854550Y-88045862D01*
X142772490Y-88105483D01*
X142772488Y-88105485D01*
X142772487Y-88105485D01*
X142605485Y-88272487D01*
X142605485Y-88272488D01*
X142605483Y-88272490D01*
X142545862Y-88354550D01*
X142466657Y-88463566D01*
X142359433Y-88674003D01*
X142286446Y-88898631D01*
X142249500Y-89131902D01*
X128500500Y-89131902D01*
X128500500Y-83003750D01*
X128500726Y-82996263D01*
X128507837Y-82878711D01*
X131149500Y-82878711D01*
X131149500Y-83121288D01*
X131181161Y-83361785D01*
X131243947Y-83596104D01*
X131302508Y-83737482D01*
X131336776Y-83820212D01*
X131458064Y-84030289D01*
X131458066Y-84030292D01*
X131458067Y-84030293D01*
X131605733Y-84222736D01*
X131605739Y-84222743D01*
X131777256Y-84394260D01*
X131777262Y-84394265D01*
X131969711Y-84541936D01*
X132179788Y-84663224D01*
X132403900Y-84756054D01*
X132638211Y-84818838D01*
X132818586Y-84842584D01*
X132878711Y-84850500D01*
X132878712Y-84850500D01*
X133121289Y-84850500D01*
X133169388Y-84844167D01*
X133361789Y-84818838D01*
X133596100Y-84756054D01*
X133820212Y-84663224D01*
X134030289Y-84541936D01*
X134222738Y-84394265D01*
X134394265Y-84222738D01*
X134463931Y-84131947D01*
X142250000Y-84131947D01*
X142250000Y-84368052D01*
X142286934Y-84601247D01*
X142359897Y-84825802D01*
X142467087Y-85036174D01*
X142527338Y-85119104D01*
X142527340Y-85119105D01*
X143226212Y-84420233D01*
X143237482Y-84462292D01*
X143309890Y-84587708D01*
X143412292Y-84690110D01*
X143537708Y-84762518D01*
X143579765Y-84773787D01*
X142880893Y-85472658D01*
X142963828Y-85532914D01*
X143174197Y-85640102D01*
X143398752Y-85713065D01*
X143398751Y-85713065D01*
X143631948Y-85750000D01*
X143868052Y-85750000D01*
X144101247Y-85713065D01*
X144325802Y-85640102D01*
X144536163Y-85532918D01*
X144536169Y-85532914D01*
X144619104Y-85472658D01*
X144619105Y-85472658D01*
X143920233Y-84773787D01*
X143962292Y-84762518D01*
X144087708Y-84690110D01*
X144190110Y-84587708D01*
X144262518Y-84462292D01*
X144273787Y-84420234D01*
X144972658Y-85119105D01*
X144972658Y-85119104D01*
X145032914Y-85036169D01*
X145032918Y-85036163D01*
X145140102Y-84825802D01*
X145213065Y-84601247D01*
X145250000Y-84368052D01*
X145250000Y-84131947D01*
X145213065Y-83898752D01*
X145140102Y-83674197D01*
X145032914Y-83463828D01*
X144972658Y-83380894D01*
X144972658Y-83380893D01*
X144273787Y-84079765D01*
X144262518Y-84037708D01*
X144190110Y-83912292D01*
X144087708Y-83809890D01*
X143962292Y-83737482D01*
X143920234Y-83726212D01*
X144619105Y-83027340D01*
X144619104Y-83027339D01*
X144536174Y-82967087D01*
X144325802Y-82859897D01*
X144101247Y-82786934D01*
X144101248Y-82786934D01*
X143868052Y-82750000D01*
X143631948Y-82750000D01*
X143398752Y-82786934D01*
X143174197Y-82859897D01*
X142963830Y-82967084D01*
X142880894Y-83027340D01*
X143579766Y-83726212D01*
X143537708Y-83737482D01*
X143412292Y-83809890D01*
X143309890Y-83912292D01*
X143237482Y-84037708D01*
X143226212Y-84079766D01*
X142527340Y-83380894D01*
X142467084Y-83463830D01*
X142359897Y-83674197D01*
X142286934Y-83898752D01*
X142250000Y-84131947D01*
X134463931Y-84131947D01*
X134541936Y-84030289D01*
X134663224Y-83820212D01*
X134756054Y-83596100D01*
X134818838Y-83361789D01*
X134850500Y-83121288D01*
X134850500Y-82878712D01*
X134818838Y-82638211D01*
X134756054Y-82403900D01*
X134663224Y-82179788D01*
X134541936Y-81969711D01*
X134481018Y-81890321D01*
X134394266Y-81777263D01*
X134394260Y-81777256D01*
X134222743Y-81605739D01*
X134222736Y-81605733D01*
X134146212Y-81547014D01*
X134030293Y-81458067D01*
X134030292Y-81458066D01*
X134030289Y-81458064D01*
X133858661Y-81358974D01*
X133820214Y-81336777D01*
X133820205Y-81336773D01*
X133596104Y-81243947D01*
X133361785Y-81181161D01*
X133121289Y-81149500D01*
X133121288Y-81149500D01*
X132878712Y-81149500D01*
X132878711Y-81149500D01*
X132638214Y-81181161D01*
X132403895Y-81243947D01*
X132179794Y-81336773D01*
X132179785Y-81336777D01*
X131969706Y-81458067D01*
X131777263Y-81605733D01*
X131777256Y-81605739D01*
X131605739Y-81777256D01*
X131605733Y-81777263D01*
X131458067Y-81969706D01*
X131336777Y-82179785D01*
X131336773Y-82179794D01*
X131243947Y-82403895D01*
X131181161Y-82638214D01*
X131149500Y-82878711D01*
X128507837Y-82878711D01*
X128508535Y-82867166D01*
X128518271Y-82706205D01*
X128520076Y-82691340D01*
X128529813Y-82638211D01*
X128571780Y-82409198D01*
X128575364Y-82394664D01*
X128660699Y-82120812D01*
X128665997Y-82106842D01*
X128783727Y-81845258D01*
X128790680Y-81832012D01*
X128830959Y-81765381D01*
X128939075Y-81586534D01*
X128947567Y-81574230D01*
X129124481Y-81348417D01*
X129134396Y-81337226D01*
X129337226Y-81134396D01*
X129348417Y-81124481D01*
X129574230Y-80947567D01*
X129586534Y-80939075D01*
X129765865Y-80830667D01*
X129832012Y-80790680D01*
X129845258Y-80783727D01*
X130106842Y-80665997D01*
X130120812Y-80660699D01*
X130394668Y-80575362D01*
X130409198Y-80571780D01*
X130691344Y-80520075D01*
X130706201Y-80518271D01*
X130996264Y-80500726D01*
X131003751Y-80500500D01*
X131065892Y-80500500D01*
X148576000Y-80500500D01*
X148643039Y-80520185D01*
G37*
%TD.AperFunction*%
%TA.AperFunction,Conductor*%
G36*
X169482673Y-112338415D02*
G01*
X169527020Y-112366916D01*
X169620213Y-112460109D01*
X169792179Y-112585048D01*
X169792181Y-112585049D01*
X169792184Y-112585051D01*
X169801493Y-112589794D01*
X169852290Y-112637766D01*
X169869087Y-112705587D01*
X169846552Y-112771722D01*
X169801505Y-112810760D01*
X169792446Y-112815376D01*
X169792440Y-112815380D01*
X169738282Y-112854727D01*
X169738282Y-112854728D01*
X170370591Y-113487037D01*
X170307007Y-113504075D01*
X170192993Y-113569901D01*
X170099901Y-113662993D01*
X170034075Y-113777007D01*
X170017037Y-113840591D01*
X169384728Y-113208282D01*
X169384727Y-113208282D01*
X169345380Y-113262439D01*
X169248904Y-113451782D01*
X169183242Y-113653869D01*
X169183242Y-113653872D01*
X169150000Y-113863753D01*
X169150000Y-114076246D01*
X169183242Y-114286127D01*
X169183242Y-114286130D01*
X169248904Y-114488217D01*
X169345375Y-114677550D01*
X169384728Y-114731716D01*
X170017037Y-114099408D01*
X170034075Y-114162993D01*
X170099901Y-114277007D01*
X170192993Y-114370099D01*
X170307007Y-114435925D01*
X170370589Y-114452962D01*
X169738282Y-115085269D01*
X169738282Y-115085270D01*
X169792449Y-115124624D01*
X169981782Y-115221095D01*
X170183870Y-115286757D01*
X170393754Y-115320000D01*
X170606246Y-115320000D01*
X170816127Y-115286757D01*
X170816130Y-115286757D01*
X171018217Y-115221095D01*
X171207557Y-115124620D01*
X171302615Y-115055558D01*
X171368421Y-115032078D01*
X171436475Y-115047904D01*
X171485170Y-115098009D01*
X171499500Y-115155876D01*
X171499500Y-116996249D01*
X171499274Y-117003736D01*
X171481728Y-117293794D01*
X171479923Y-117308659D01*
X171428219Y-117590797D01*
X171424635Y-117605335D01*
X171339304Y-117879174D01*
X171333994Y-117893176D01*
X171216277Y-118154730D01*
X171209319Y-118167987D01*
X171060928Y-118413458D01*
X171052422Y-118425782D01*
X170875525Y-118651573D01*
X170865595Y-118662781D01*
X170662781Y-118865595D01*
X170651573Y-118875525D01*
X170425782Y-119052422D01*
X170413458Y-119060928D01*
X170167987Y-119209319D01*
X170154730Y-119216277D01*
X169893176Y-119333994D01*
X169879174Y-119339304D01*
X169605335Y-119424635D01*
X169590797Y-119428219D01*
X169308659Y-119479923D01*
X169293794Y-119481728D01*
X169003736Y-119499274D01*
X168996249Y-119499500D01*
X151280045Y-119499500D01*
X151213006Y-119479815D01*
X151167251Y-119427011D01*
X151157307Y-119357853D01*
X151169560Y-119319205D01*
X151205218Y-119249223D01*
X151205218Y-119249222D01*
X151205220Y-119249219D01*
X151268477Y-119054534D01*
X151300500Y-118852352D01*
X151300500Y-118824500D01*
X151320185Y-118757461D01*
X151372989Y-118711706D01*
X151424500Y-118700500D01*
X157854092Y-118700500D01*
X157921131Y-118720185D01*
X157959636Y-118764271D01*
X157961395Y-118763187D01*
X157965185Y-118769332D01*
X157965186Y-118769334D01*
X158057288Y-118918656D01*
X158181344Y-119042712D01*
X158330666Y-119134814D01*
X158497203Y-119189999D01*
X158599991Y-119200500D01*
X159400008Y-119200499D01*
X159400016Y-119200498D01*
X159400019Y-119200498D01*
X159456302Y-119194748D01*
X159502797Y-119189999D01*
X159669334Y-119134814D01*
X159818656Y-119042712D01*
X159912319Y-118949049D01*
X159973642Y-118915564D01*
X160043334Y-118920548D01*
X160087681Y-118949049D01*
X160181344Y-119042712D01*
X160330666Y-119134814D01*
X160497203Y-119189999D01*
X160599991Y-119200500D01*
X161400008Y-119200499D01*
X161400016Y-119200498D01*
X161400019Y-119200498D01*
X161456302Y-119194748D01*
X161502797Y-119189999D01*
X161669334Y-119134814D01*
X161818656Y-119042712D01*
X161942712Y-118918656D01*
X162034814Y-118769334D01*
X162034814Y-118769332D01*
X162038605Y-118763187D01*
X162040399Y-118764293D01*
X162079687Y-118719663D01*
X162145908Y-118700500D01*
X162796915Y-118700500D01*
X162887959Y-118682389D01*
X162932247Y-118673580D01*
X162995988Y-118647177D01*
X163059726Y-118620777D01*
X163059727Y-118620776D01*
X163059730Y-118620775D01*
X163174462Y-118544114D01*
X164938255Y-116780319D01*
X164999578Y-116746835D01*
X165069269Y-116751819D01*
X165125203Y-116793691D01*
X165149620Y-116859155D01*
X165149671Y-116876111D01*
X165149500Y-116878705D01*
X165149501Y-116878711D01*
X165149500Y-116878719D01*
X165149500Y-117121288D01*
X165181161Y-117361785D01*
X165243947Y-117596104D01*
X165311021Y-117758034D01*
X165336776Y-117820212D01*
X165458064Y-118030289D01*
X165458066Y-118030292D01*
X165458067Y-118030293D01*
X165605733Y-118222736D01*
X165605739Y-118222743D01*
X165777256Y-118394260D01*
X165777263Y-118394266D01*
X165890321Y-118481018D01*
X165969711Y-118541936D01*
X166179788Y-118663224D01*
X166403900Y-118756054D01*
X166638211Y-118818838D01*
X166818586Y-118842584D01*
X166878711Y-118850500D01*
X166878712Y-118850500D01*
X167121289Y-118850500D01*
X167169388Y-118844167D01*
X167361789Y-118818838D01*
X167596100Y-118756054D01*
X167820212Y-118663224D01*
X168030289Y-118541936D01*
X168222738Y-118394265D01*
X168394265Y-118222738D01*
X168541936Y-118030289D01*
X168663224Y-117820212D01*
X168756054Y-117596100D01*
X168818838Y-117361789D01*
X168850500Y-117121288D01*
X168850500Y-116878712D01*
X168848719Y-116865187D01*
X168837547Y-116780320D01*
X168818838Y-116638211D01*
X168756054Y-116403900D01*
X168663224Y-116179788D01*
X168541936Y-115969711D01*
X168394265Y-115777262D01*
X168394260Y-115777256D01*
X168222743Y-115605739D01*
X168222736Y-115605733D01*
X168030293Y-115458067D01*
X168030292Y-115458066D01*
X168030289Y-115458064D01*
X167820212Y-115336776D01*
X167820205Y-115336773D01*
X167596104Y-115243947D01*
X167361785Y-115181161D01*
X167121289Y-115149500D01*
X167121288Y-115149500D01*
X166878712Y-115149500D01*
X166878706Y-115149500D01*
X166876109Y-115149671D01*
X166875345Y-115149500D01*
X166874653Y-115149500D01*
X166874653Y-115149345D01*
X166807926Y-115134412D01*
X166758816Y-115084713D01*
X166744371Y-115016353D01*
X166769177Y-114951035D01*
X166780312Y-114938262D01*
X169351660Y-112366914D01*
X169412981Y-112333431D01*
X169482673Y-112338415D01*
G37*
%TD.AperFunction*%
%TA.AperFunction,Conductor*%
G36*
X165266974Y-90918662D02*
G01*
X165293334Y-90920548D01*
X165302387Y-90926366D01*
X165309427Y-90927898D01*
X165337681Y-90949049D01*
X165431344Y-91042712D01*
X165580666Y-91134814D01*
X165747203Y-91189999D01*
X165849991Y-91200500D01*
X166650008Y-91200499D01*
X166650016Y-91200498D01*
X166650019Y-91200498D01*
X166706302Y-91194748D01*
X166752797Y-91189999D01*
X166902932Y-91140248D01*
X166972760Y-91137847D01*
X167029617Y-91170274D01*
X169139492Y-93280149D01*
X169172977Y-93341472D01*
X169174284Y-93387227D01*
X169163089Y-93457913D01*
X169149500Y-93543713D01*
X169149500Y-93756287D01*
X169182754Y-93966243D01*
X169227369Y-94103554D01*
X169248444Y-94168414D01*
X169344951Y-94357820D01*
X169469890Y-94529786D01*
X169620213Y-94680109D01*
X169792182Y-94805050D01*
X169800946Y-94809516D01*
X169851742Y-94857491D01*
X169868536Y-94925312D01*
X169845998Y-94991447D01*
X169800946Y-95030484D01*
X169792182Y-95034949D01*
X169620213Y-95159890D01*
X169469890Y-95310213D01*
X169344951Y-95482179D01*
X169248444Y-95671585D01*
X169182753Y-95873760D01*
X169171225Y-95946545D01*
X169149500Y-96083713D01*
X169149500Y-96296287D01*
X169182754Y-96506243D01*
X169223255Y-96630893D01*
X169248444Y-96708414D01*
X169344951Y-96897820D01*
X169469890Y-97069786D01*
X169620213Y-97220109D01*
X169792179Y-97345048D01*
X169792181Y-97345049D01*
X169792184Y-97345051D01*
X169801493Y-97349794D01*
X169852290Y-97397766D01*
X169869087Y-97465587D01*
X169846552Y-97531722D01*
X169801505Y-97570760D01*
X169792446Y-97575376D01*
X169792440Y-97575380D01*
X169738282Y-97614727D01*
X169738282Y-97614728D01*
X170370591Y-98247037D01*
X170307007Y-98264075D01*
X170192993Y-98329901D01*
X170099901Y-98422993D01*
X170034075Y-98537007D01*
X170017037Y-98600591D01*
X169384728Y-97968282D01*
X169384727Y-97968282D01*
X169345380Y-98022439D01*
X169248904Y-98211782D01*
X169183242Y-98413869D01*
X169183242Y-98413872D01*
X169150410Y-98621162D01*
X169120481Y-98684297D01*
X169061169Y-98721228D01*
X169008540Y-98724237D01*
X168852352Y-98699500D01*
X168647648Y-98699500D01*
X168530929Y-98717986D01*
X168461636Y-98709031D01*
X168423851Y-98683194D01*
X165105525Y-95364868D01*
X165072040Y-95303545D01*
X165077024Y-95233853D01*
X165118896Y-95177920D01*
X165184360Y-95153503D01*
X165231522Y-95159255D01*
X165330081Y-95191279D01*
X165398631Y-95213553D01*
X165631903Y-95250500D01*
X165631908Y-95250500D01*
X165868097Y-95250500D01*
X166101368Y-95213553D01*
X166112786Y-95209843D01*
X166325992Y-95140568D01*
X166536433Y-95033343D01*
X166727510Y-94894517D01*
X166894517Y-94727510D01*
X167033343Y-94536433D01*
X167140568Y-94325992D01*
X167213553Y-94101368D01*
X167234955Y-93966243D01*
X167250500Y-93868097D01*
X167250500Y-93631902D01*
X167213553Y-93398631D01*
X167164969Y-93249106D01*
X167140568Y-93174008D01*
X167140566Y-93174005D01*
X167140566Y-93174003D01*
X167033477Y-92963830D01*
X167033343Y-92963567D01*
X166894517Y-92772490D01*
X166727510Y-92605483D01*
X166536433Y-92466657D01*
X166325996Y-92359433D01*
X166101368Y-92286446D01*
X165868097Y-92249500D01*
X165868092Y-92249500D01*
X165631908Y-92249500D01*
X165631903Y-92249500D01*
X165398631Y-92286446D01*
X165223596Y-92343319D01*
X165174008Y-92359432D01*
X165174005Y-92359433D01*
X165174003Y-92359434D01*
X165130793Y-92381450D01*
X165062124Y-92394345D01*
X164997384Y-92368067D01*
X164957128Y-92310960D01*
X164950500Y-92270964D01*
X164950500Y-91184797D01*
X164970185Y-91117758D01*
X165009403Y-91079258D01*
X165068656Y-91042712D01*
X165162319Y-90949049D01*
X165170264Y-90944710D01*
X165175690Y-90937463D01*
X165200449Y-90928228D01*
X165223642Y-90915564D01*
X165232671Y-90916209D01*
X165241154Y-90913046D01*
X165266974Y-90918662D01*
G37*
%TD.AperFunction*%
%TD*%
M02*
