%TF.GenerationSoftware,KiCad,Pcbnew,10.0.3*%
%TF.CreationDate,2026-05-29T12:22:11+03:00*%
%TF.ProjectId,midi_pro_micro,6d696469-5f70-4726-9f5f-6d6963726f2e,rev?*%
%TF.SameCoordinates,Original*%
%TF.FileFunction,Copper,L2,Bot*%
%TF.FilePolarity,Positive*%
%FSLAX46Y46*%
G04 Gerber Fmt 4.6, Leading zero omitted, Abs format (unit mm)*
G04 Created by KiCad (PCBNEW 10.0.3) date 2026-05-29 12:22:11*
%MOMM*%
%LPD*%
G01*
G04 APERTURE LIST*
G04 Aperture macros list*
%AMRoundRect*
0 Rectangle with rounded corners*
0 $1 Rounding radius*
0 $2 $3 $4 $5 $6 $7 $8 $9 X,Y pos of 4 corners*
0 Add a 4 corners polygon primitive as box body*
4,1,4,$2,$3,$4,$5,$6,$7,$8,$9,$2,$3,0*
0 Add four circle primitives for the rounded corners*
1,1,$1+$1,$2,$3*
1,1,$1+$1,$4,$5*
1,1,$1+$1,$6,$7*
1,1,$1+$1,$8,$9*
0 Add four rect primitives between the rounded corners*
20,1,$1+$1,$2,$3,$4,$5,0*
20,1,$1+$1,$4,$5,$6,$7,0*
20,1,$1+$1,$6,$7,$8,$9,0*
20,1,$1+$1,$8,$9,$2,$3,0*%
G04 Aperture macros list end*
%TA.AperFunction,ComponentPad*%
%ADD10R,1.500000X1.500000*%
%TD*%
%TA.AperFunction,ComponentPad*%
%ADD11C,1.500000*%
%TD*%
%TA.AperFunction,ComponentPad*%
%ADD12RoundRect,0.250000X-0.350000X-0.625000X0.350000X-0.625000X0.350000X0.625000X-0.350000X0.625000X0*%
%TD*%
%TA.AperFunction,ComponentPad*%
%ADD13O,1.200000X1.750000*%
%TD*%
%TA.AperFunction,ComponentPad*%
%ADD14RoundRect,0.250000X-0.550000X0.550000X-0.550000X-0.550000X0.550000X-0.550000X0.550000X0.550000X0*%
%TD*%
%TA.AperFunction,ComponentPad*%
%ADD15C,1.600000*%
%TD*%
%TA.AperFunction,ComponentPad*%
%ADD16R,1.700000X1.700000*%
%TD*%
%TA.AperFunction,ComponentPad*%
%ADD17C,1.700000*%
%TD*%
%TA.AperFunction,ComponentPad*%
%ADD18O,3.000000X2.300000*%
%TD*%
%TA.AperFunction,ComponentPad*%
%ADD19O,2.000000X2.600000*%
%TD*%
%TA.AperFunction,ViaPad*%
%ADD20C,0.600000*%
%TD*%
%TA.AperFunction,Conductor*%
%ADD21C,0.200000*%
%TD*%
G04 APERTURE END LIST*
D10*
%TO.P,U1,1,0\u002CD3\u002CTX_1*%
%TO.N,TX*%
X172430000Y-83780000D03*
D11*
%TO.P,U1,2,1\u002CD2\u002CRX_2*%
%TO.N,RX*%
X172430000Y-86320000D03*
%TO.P,U1,3,GND_3*%
%TO.N,unconnected-(U1-GND-Pad3)*%
X172430000Y-88860000D03*
%TO.P,U1,4,GND_4*%
%TO.N,unconnected-(U1-GND-Pad4)*%
X172430000Y-91400000D03*
%TO.P,U1,5,2\u002CD1\u002CSDA_5*%
%TO.N,UP_LED*%
X172430000Y-93940000D03*
%TO.P,U1,6,3\u002CD0\u002CSCL_6*%
%TO.N,UP_BTN*%
X172430000Y-96480000D03*
%TO.P,U1,7,4\u002CA6\u002CD4_7*%
%TO.N,LEFT_LED*%
X172430000Y-99020000D03*
%TO.P,U1,8,5\u002CC6_8*%
%TO.N,LEFT_BTN*%
X172430000Y-101560000D03*
%TO.P,U1,9,6\u002CA7\u002CD7_9*%
%TO.N,DOWN_BTN*%
X172430000Y-104100000D03*
%TO.P,U1,10,7\u002CE6_10*%
%TO.N,DOWN_LED*%
X172430000Y-106640000D03*
%TO.P,U1,11,8\u002CA8\u002CB4_11*%
%TO.N,ENC_A*%
X172430000Y-109180000D03*
%TO.P,U1,12,9\u002CA9\u002CB5_12*%
%TO.N,ENC_B*%
X172430000Y-111720000D03*
%TO.P,U1,13,B6\u002CA10\u002C10_13*%
%TO.N,OK_BTN*%
X187670000Y-111720000D03*
%TO.P,U1,14,B2\u002C16_14*%
%TO.N,MOSI*%
X187670000Y-109180000D03*
%TO.P,U1,15,B3\u002C14_15*%
%TO.N,MISO*%
X187670000Y-106640000D03*
%TO.P,U1,16,B1\u002C15_16*%
%TO.N,SCK*%
X187670000Y-104100000D03*
%TO.P,U1,17,F7\u002CA0\u002C18_17*%
%TO.N,OLED_CS*%
X187670000Y-101560000D03*
%TO.P,U1,18,F6\u002CA1\u002C19_18*%
%TO.N,EEPROM_CS*%
X187670000Y-99020000D03*
%TO.P,U1,19,F5\u002CA2\u002C20_19*%
%TO.N,OK_LED*%
X187670000Y-96480000D03*
%TO.P,U1,20,F4\u002CA3\u002C21_20*%
%TO.N,RIGHT_BTN*%
X187670000Y-93940000D03*
%TO.P,U1,21,VCC_21*%
%TO.N,+5V*%
X187670000Y-91400000D03*
%TO.P,U1,22,RST_22*%
%TO.N,unconnected-(U1-RST-Pad22)*%
X187670000Y-88860000D03*
%TO.P,U1,23,GND_23*%
%TO.N,unconnected-(U1-GND-Pad23)*%
X187670000Y-86320000D03*
%TO.P,U1,24,RAW_24*%
%TO.N,unconnected-(U1-RAW-Pad24)*%
X187670000Y-83780000D03*
%TD*%
D12*
%TO.P,J7,1,Pin_1_1*%
%TO.N,GND*%
X126210000Y-115250000D03*
D13*
%TO.P,J7,2,Pin_2_2*%
%TO.N,+5V*%
X128210000Y-115250000D03*
%TD*%
D14*
%TO.P,U3,1,NC_1*%
%TO.N,unconnected-(U3-NC-Pad1)*%
X163990000Y-102430000D03*
D15*
%TO.P,U3,2,C1_2*%
%TO.N,Net-(D1-K)*%
X161450000Y-102430000D03*
%TO.P,U3,3,C2_3*%
%TO.N,Net-(D1-A)*%
X158910000Y-102430000D03*
%TO.P,U3,4,NC_4*%
%TO.N,unconnected-(U3-NC-Pad4)*%
X156370000Y-102430000D03*
%TO.P,U3,5,GND_5*%
%TO.N,GND*%
X156370000Y-110050000D03*
%TO.P,U3,6,VO2_6*%
%TO.N,RX*%
X158910000Y-110050000D03*
%TO.P,U3,7,VO1_7*%
%TO.N,Net-(U3-VO1)*%
X161450000Y-110050000D03*
%TO.P,U3,8,VCC_8*%
%TO.N,+5V*%
X163990000Y-110050000D03*
%TD*%
D16*
%TO.P,J6,1,Pin_1_1*%
%TO.N,OK_BTN*%
X200000000Y-96190000D03*
D17*
%TO.P,J6,2,Pin_2_2*%
%TO.N,ENC_A*%
X200000000Y-98730000D03*
%TO.P,J6,3,Pin_3_3*%
%TO.N,ENC_B*%
X200000000Y-101270000D03*
%TO.P,J6,4,Pin_4_4*%
%TO.N,GND*%
X200000000Y-103810000D03*
%TD*%
D16*
%TO.P,J3,1,Pin_1_1*%
%TO.N,UP_LED*%
X114500000Y-86030000D03*
D17*
%TO.P,J3,2,Pin_2_2*%
%TO.N,UP_BTN*%
X114500000Y-88570000D03*
%TO.P,J3,3,Pin_3_3*%
%TO.N,LEFT_LED*%
X114500000Y-91110000D03*
%TO.P,J3,4,Pin_4_4*%
X114500000Y-93650000D03*
%TO.P,J3,5,Pin_5_5*%
%TO.N,LEFT_BTN*%
X114500000Y-96190000D03*
%TO.P,J3,6,Pin_6_6*%
%TO.N,GND*%
X114500000Y-98730000D03*
%TO.P,J3,7,Pin_7_7*%
%TO.N,OK_BTN*%
X114500000Y-101270000D03*
%TO.P,J3,8,Pin_8_8*%
%TO.N,RIGHT_BTN*%
X114500000Y-103810000D03*
%TO.P,J3,9,Pin_9_9*%
%TO.N,OK_LED*%
X114500000Y-106350000D03*
%TO.P,J3,10,Pin_10_10*%
%TO.N,DOWN_BTN*%
X114500000Y-108890000D03*
%TO.P,J3,11,Pin_11_11*%
%TO.N,DOWN_LED*%
X114500000Y-111430000D03*
%TO.P,J3,12,Pin_12_12*%
%TO.N,GND*%
X114500000Y-113970000D03*
%TD*%
D12*
%TO.P,J5,1,Pin_1_1*%
%TO.N,SCK*%
X155150000Y-115660000D03*
D13*
%TO.P,J5,2,Pin_2_2*%
%TO.N,MISO*%
X157150000Y-115660000D03*
%TO.P,J5,3,Pin_3_3*%
%TO.N,MOSI*%
X159150000Y-115660000D03*
%TO.P,J5,4,Pin_4_4*%
%TO.N,unconnected-(J5-Pin_4-Pad4)*%
X161150000Y-115660000D03*
%TO.P,J5,5,Pin_5_5*%
%TO.N,OLED_CS*%
X163150000Y-115660000D03*
%TD*%
D18*
%TO.P,J2,*%
%TO.N,*%
X135000000Y-82450000D03*
X137500000Y-82450000D03*
X142500000Y-82450000D03*
X145000000Y-82450000D03*
D19*
%TO.P,J2,1*%
%TO.N,unconnected-(J2-Pad1)*%
X132500000Y-92450000D03*
%TO.P,J2,2*%
%TO.N,GND*%
X140000000Y-92450000D03*
%TO.P,J2,3*%
%TO.N,unconnected-(J2-Pad3)*%
X147500000Y-92450000D03*
%TO.P,J2,4*%
%TO.N,Net-(J2-Pad4)*%
X135000000Y-94950000D03*
%TO.P,J2,5*%
%TO.N,Net-(J2-Pad5)*%
X145000000Y-94950000D03*
%TD*%
D18*
%TO.P,J1,*%
%TO.N,*%
X155000000Y-82450000D03*
X157500000Y-82450000D03*
X162500000Y-82450000D03*
X165000000Y-82450000D03*
D19*
%TO.P,J1,1*%
%TO.N,unconnected-(J1-Pad1)*%
X152500000Y-92450000D03*
%TO.P,J1,2*%
%TO.N,unconnected-(J1-Pad2)*%
X160000000Y-92450000D03*
%TO.P,J1,3*%
%TO.N,unconnected-(J1-Pad3)*%
X167500000Y-92450000D03*
%TO.P,J1,4*%
%TO.N,Net-(J1-Pad4)*%
X155000000Y-94950000D03*
%TO.P,J1,5*%
%TO.N,Net-(D1-A)*%
X165000000Y-94950000D03*
%TD*%
D20*
%TO.N,RX*%
X175360000Y-101570000D03*
%TO.N,OLED_CS*%
X179930000Y-109290000D03*
%TO.N,EEPROM_CS*%
X136420000Y-108980000D03*
%TO.N,GND*%
X135320000Y-118730000D03*
X192680000Y-98360000D03*
X148940000Y-111230000D03*
X119780000Y-94570000D03*
X111420000Y-107520000D03*
X178180000Y-115950000D03*
X167610000Y-114540000D03*
X184070000Y-96300000D03*
X182510000Y-111270000D03*
X169020000Y-94050000D03*
X202900000Y-94250000D03*
X161640000Y-108120000D03*
X111780000Y-86580000D03*
X185410000Y-109790000D03*
X180570000Y-114160000D03*
X150670000Y-114250000D03*
X137620000Y-110760000D03*
X111620000Y-90040000D03*
X145750000Y-104920000D03*
X147730000Y-85640000D03*
X170580000Y-96370000D03*
X180350000Y-105920000D03*
X145530000Y-118680000D03*
X110270000Y-101090000D03*
X174400000Y-97720000D03*
X127120000Y-94620000D03*
X120550000Y-110450000D03*
X174400000Y-92820000D03*
X144120000Y-108150000D03*
X136850000Y-104840000D03*
X179480000Y-100890000D03*
X108710000Y-85960000D03*
X111470000Y-110880000D03*
X152130000Y-105020000D03*
X195900000Y-94380000D03*
X117520000Y-112710000D03*
X164280000Y-90030000D03*
X184360000Y-101910000D03*
X136270000Y-92090000D03*
X138840000Y-115710000D03*
X110320000Y-104830000D03*
X175360000Y-104850000D03*
X190900000Y-94250000D03*
X112430000Y-94700000D03*
X144190000Y-114210000D03*
X131850000Y-115460000D03*
X140040000Y-98910000D03*
X142210000Y-110380000D03*
X108500000Y-92060000D03*
X109310000Y-98250000D03*
X148220000Y-110050000D03*
X111860000Y-102670000D03*
X172820000Y-114540000D03*
X176790000Y-110280000D03*
X148130000Y-108050000D03*
X191030000Y-102680000D03*
X133840000Y-108710000D03*
X125240000Y-85740000D03*
%TD*%
%TO.N,LEFT_BTN*%
D21*
X172430000Y-101560000D02*
X170230000Y-99360000D01*
X170230000Y-99360000D02*
X170230000Y-98041522D01*
X121310000Y-89380000D02*
X114500000Y-96190000D01*
X170230000Y-98041522D02*
X161568478Y-89380000D01*
X161568478Y-89380000D02*
X121310000Y-89380000D01*
%TO.N,RX*%
X172430000Y-86320000D02*
X175360000Y-89250000D01*
X175360000Y-89250000D02*
X175360000Y-101570000D01*
%TO.N,UP_LED*%
X172430000Y-93940000D02*
X166580000Y-88090000D01*
X116560000Y-88090000D02*
X114500000Y-86030000D01*
X166580000Y-88090000D02*
X116560000Y-88090000D01*
%TO.N,UP_BTN*%
X170350000Y-94400000D02*
X170350000Y-92425686D01*
X170350000Y-92425686D02*
X166494314Y-88570000D01*
X166494314Y-88570000D02*
X114500000Y-88570000D01*
X172430000Y-96480000D02*
X170350000Y-94400000D01*
%TO.N,LEFT_LED*%
X171930000Y-99020000D02*
X161890000Y-88980000D01*
X172430000Y-99020000D02*
X171930000Y-99020000D01*
X116630000Y-88980000D02*
X114500000Y-91110000D01*
X161890000Y-88980000D02*
X119140000Y-88980000D01*
X119140000Y-89010000D02*
X119140000Y-88980000D01*
X114500000Y-93650000D02*
X119140000Y-89010000D01*
X119140000Y-88980000D02*
X116630000Y-88980000D01*
%TO.N,DOWN_BTN*%
X172430000Y-104100000D02*
X167900000Y-104100000D01*
X116640000Y-106750000D02*
X114500000Y-108890000D01*
X165250000Y-106750000D02*
X116640000Y-106750000D01*
X167900000Y-104100000D02*
X165250000Y-106750000D01*
%TO.N,DOWN_LED*%
X118780000Y-107150000D02*
X114500000Y-111430000D01*
X165415685Y-107150000D02*
X118780000Y-107150000D01*
X172430000Y-106640000D02*
X165925686Y-106640000D01*
X165925686Y-106640000D02*
X165415685Y-107150000D01*
%TO.N,ENC_A*%
X175884315Y-107730000D02*
X175970000Y-107730000D01*
X176010000Y-107690000D02*
X190050000Y-107690000D01*
X174434314Y-109180000D02*
X175884315Y-107730000D01*
X175970000Y-107730000D02*
X176010000Y-107690000D01*
X172430000Y-109180000D02*
X174434314Y-109180000D01*
X199010000Y-98730000D02*
X200000000Y-98730000D01*
X190050000Y-107690000D02*
X199010000Y-98730000D01*
%TO.N,ENC_B*%
X197050000Y-101270000D02*
X200000000Y-101270000D01*
X176050000Y-108130000D02*
X190190000Y-108130000D01*
X172430000Y-111720000D02*
X172460000Y-111720000D01*
X190190000Y-108130000D02*
X197050000Y-101270000D01*
X172460000Y-111720000D02*
X176050000Y-108130000D01*
%TO.N,SCK*%
X187670000Y-104100000D02*
X178960000Y-104100000D01*
X175730000Y-107330000D02*
X175718629Y-107330000D01*
X178960000Y-104100000D02*
X175730000Y-107330000D01*
X161595635Y-114000000D02*
X156810000Y-114000000D01*
X156810000Y-114000000D02*
X155150000Y-115660000D01*
X174948629Y-108100000D02*
X167495635Y-108100000D01*
X175718629Y-107330000D02*
X174948629Y-108100000D01*
X167495635Y-108100000D02*
X161595635Y-114000000D01*
%TO.N,OLED_CS*%
X173560000Y-115660000D02*
X163150000Y-115660000D01*
X179930000Y-109290000D02*
X173560000Y-115660000D01*
%TO.N,EEPROM_CS*%
X164365686Y-108950000D02*
X136450000Y-108950000D01*
X174792943Y-107690000D02*
X165625686Y-107690000D01*
X165625686Y-107690000D02*
X164365686Y-108950000D01*
X136450000Y-108950000D02*
X136420000Y-108980000D01*
X175552943Y-106930000D02*
X174792943Y-107690000D01*
X183474314Y-99020000D02*
X175564314Y-106930000D01*
X175564314Y-106930000D02*
X175552943Y-106930000D01*
X187670000Y-99020000D02*
X183474314Y-99020000D01*
%TO.N,OK_LED*%
X167734314Y-103700000D02*
X165084313Y-106350000D01*
X168420000Y-103030000D02*
X167750000Y-103700000D01*
X165084313Y-106350000D02*
X114500000Y-106350000D01*
X167750000Y-103700000D02*
X167734314Y-103700000D01*
X187670000Y-96480000D02*
X185420000Y-96480000D01*
X185420000Y-96480000D02*
X178870000Y-103030000D01*
X178870000Y-103030000D02*
X168420000Y-103030000D01*
%TO.N,RIGHT_BTN*%
X116640000Y-105950000D02*
X114500000Y-103810000D01*
X187670000Y-93940000D02*
X187450000Y-93940000D01*
X167568628Y-103300000D02*
X164918628Y-105950000D01*
X168250000Y-102630000D02*
X167580000Y-103300000D01*
X185254314Y-96080000D02*
X178704314Y-102630000D01*
X185310000Y-96080000D02*
X185254314Y-96080000D01*
X187450000Y-93940000D02*
X185310000Y-96080000D01*
X167580000Y-103300000D02*
X167568628Y-103300000D01*
X178704314Y-102630000D02*
X168250000Y-102630000D01*
X164918628Y-105950000D02*
X116640000Y-105950000D01*
%TO.N,Net-(D1-A)*%
X165000000Y-94950000D02*
X158910000Y-101040000D01*
X158910000Y-101040000D02*
X158910000Y-102430000D01*
%TD*%
%TA.AperFunction,Conductor*%
%TO.N,GND*%
G36*
X171167312Y-108720185D02*
G01*
X171213067Y-108772989D01*
X171223011Y-108842147D01*
X171218204Y-108862818D01*
X171210291Y-108887169D01*
X171210291Y-108887172D01*
X171179500Y-109081577D01*
X171179500Y-109278422D01*
X171210290Y-109472826D01*
X171271117Y-109660029D01*
X171342585Y-109800292D01*
X171360476Y-109835405D01*
X171476172Y-109994646D01*
X171615354Y-110133828D01*
X171774595Y-110249524D01*
X171815732Y-110270484D01*
X171951213Y-110339515D01*
X172002009Y-110387489D01*
X172018804Y-110455310D01*
X171996267Y-110521445D01*
X171951213Y-110560485D01*
X171774594Y-110650476D01*
X171683741Y-110716485D01*
X171615354Y-110766172D01*
X171615352Y-110766174D01*
X171615351Y-110766174D01*
X171476174Y-110905351D01*
X171476174Y-110905352D01*
X171476172Y-110905354D01*
X171426485Y-110973741D01*
X171360476Y-111064594D01*
X171271117Y-111239970D01*
X171210290Y-111427173D01*
X171179500Y-111621577D01*
X171179500Y-111818422D01*
X171210290Y-112012826D01*
X171271117Y-112200029D01*
X171360476Y-112375405D01*
X171476172Y-112534646D01*
X171615354Y-112673828D01*
X171774595Y-112789524D01*
X171825325Y-112815372D01*
X171949970Y-112878882D01*
X171949972Y-112878882D01*
X171949975Y-112878884D01*
X172050317Y-112911487D01*
X172137173Y-112939709D01*
X172331578Y-112970500D01*
X172331583Y-112970500D01*
X172528422Y-112970500D01*
X172722826Y-112939709D01*
X172910025Y-112878884D01*
X173085405Y-112789524D01*
X173244646Y-112673828D01*
X173383828Y-112534646D01*
X173499524Y-112375405D01*
X173588884Y-112200025D01*
X173649709Y-112012826D01*
X173659911Y-111948412D01*
X173680500Y-111818422D01*
X173680500Y-111621578D01*
X173666837Y-111535319D01*
X173653077Y-111448441D01*
X173662031Y-111379150D01*
X173687866Y-111341367D01*
X176262417Y-108766819D01*
X176323740Y-108733334D01*
X176350098Y-108730500D01*
X179110108Y-108730500D01*
X179177147Y-108750185D01*
X179222902Y-108802989D01*
X179232846Y-108872147D01*
X179222121Y-108904854D01*
X179222937Y-108905192D01*
X179160264Y-109056498D01*
X179160261Y-109056508D01*
X179129361Y-109211850D01*
X179096976Y-109273761D01*
X179095425Y-109275339D01*
X173347584Y-115023181D01*
X173286261Y-115056666D01*
X173259903Y-115059500D01*
X164291463Y-115059500D01*
X164224424Y-115039815D01*
X164178669Y-114987011D01*
X164173537Y-114973831D01*
X164169873Y-114962555D01*
X164091232Y-114808212D01*
X163989414Y-114668072D01*
X163866928Y-114545586D01*
X163726788Y-114443768D01*
X163572445Y-114365127D01*
X163407701Y-114311598D01*
X163407699Y-114311597D01*
X163407698Y-114311597D01*
X163246883Y-114286127D01*
X163236611Y-114284500D01*
X163063389Y-114284500D01*
X163053117Y-114286127D01*
X162892302Y-114311597D01*
X162727552Y-114365128D01*
X162573211Y-114443768D01*
X162531487Y-114474083D01*
X162433072Y-114545586D01*
X162433070Y-114545588D01*
X162433069Y-114545588D01*
X162310588Y-114668069D01*
X162310581Y-114668078D01*
X162250317Y-114751023D01*
X162229845Y-114766808D01*
X162212008Y-114785519D01*
X162202630Y-114787794D01*
X162194987Y-114793689D01*
X162169227Y-114795901D01*
X162144109Y-114801997D01*
X162134989Y-114798841D01*
X162125374Y-114799667D01*
X162102510Y-114787603D01*
X162078081Y-114779150D01*
X162068493Y-114769654D01*
X162063579Y-114767061D01*
X162052535Y-114754796D01*
X162051064Y-114752926D01*
X161989414Y-114668072D01*
X161965569Y-114644227D01*
X161961004Y-114638423D01*
X161950649Y-114612563D01*
X161937302Y-114588119D01*
X161937841Y-114580578D01*
X161935031Y-114573560D01*
X161940300Y-114546209D01*
X161942288Y-114518428D01*
X161947093Y-114510951D01*
X161948249Y-114504952D01*
X161956533Y-114496261D01*
X161970788Y-114474083D01*
X162008946Y-114435925D01*
X162076155Y-114368716D01*
X162076155Y-114368714D01*
X162086359Y-114358511D01*
X162086362Y-114358506D01*
X167708051Y-108736819D01*
X167769374Y-108703334D01*
X167795732Y-108700500D01*
X171100273Y-108700500D01*
X171167312Y-108720185D01*
G37*
%TD.AperFunction*%
%TA.AperFunction,Conductor*%
G36*
X177782256Y-103650185D02*
G01*
X177828011Y-103702989D01*
X177837955Y-103772147D01*
X177808930Y-103835703D01*
X177802898Y-103842181D01*
X175222675Y-106422402D01*
X175219162Y-106425780D01*
X175208989Y-106435182D01*
X175184227Y-106449480D01*
X175072423Y-106561284D01*
X175072421Y-106561286D01*
X175070707Y-106562999D01*
X175070694Y-106563012D01*
X174580527Y-107053181D01*
X174519204Y-107086666D01*
X174492846Y-107089500D01*
X173769388Y-107089500D01*
X173702349Y-107069815D01*
X173656594Y-107017011D01*
X173646650Y-106947853D01*
X173648814Y-106936553D01*
X173649704Y-106932840D01*
X173649709Y-106932826D01*
X173665104Y-106835621D01*
X173680500Y-106738422D01*
X173680500Y-106541577D01*
X173649709Y-106347173D01*
X173588882Y-106159970D01*
X173527499Y-106039500D01*
X173499524Y-105984595D01*
X173383828Y-105825354D01*
X173244646Y-105686172D01*
X173165025Y-105628324D01*
X173085403Y-105570474D01*
X172908787Y-105480485D01*
X172857990Y-105432511D01*
X172841195Y-105364690D01*
X172863732Y-105298555D01*
X172908787Y-105259515D01*
X173085403Y-105169525D01*
X173085402Y-105169525D01*
X173085405Y-105169524D01*
X173244646Y-105053828D01*
X173383828Y-104914646D01*
X173499524Y-104755405D01*
X173588884Y-104580025D01*
X173649709Y-104392826D01*
X173659942Y-104328217D01*
X173680500Y-104198422D01*
X173680500Y-104001577D01*
X173649709Y-103807173D01*
X173645045Y-103792819D01*
X173643050Y-103722977D01*
X173679130Y-103663144D01*
X173741831Y-103632316D01*
X173762976Y-103630500D01*
X177715217Y-103630500D01*
X177782256Y-103650185D01*
G37*
%TD.AperFunction*%
%TA.AperFunction,Conductor*%
G36*
X186502653Y-104702041D02*
G01*
X186508015Y-104700955D01*
X186535819Y-104711780D01*
X186564443Y-104720185D01*
X186569377Y-104724845D01*
X186573124Y-104726304D01*
X186597722Y-104751614D01*
X186600475Y-104755403D01*
X186600476Y-104755405D01*
X186716172Y-104914646D01*
X186855354Y-105053828D01*
X187014595Y-105169524D01*
X187055732Y-105190484D01*
X187191213Y-105259515D01*
X187242009Y-105307489D01*
X187258804Y-105375310D01*
X187236267Y-105441445D01*
X187191213Y-105480485D01*
X187014594Y-105570476D01*
X186923741Y-105636485D01*
X186855354Y-105686172D01*
X186855352Y-105686174D01*
X186855351Y-105686174D01*
X186716174Y-105825351D01*
X186716174Y-105825352D01*
X186716172Y-105825354D01*
X186666485Y-105893741D01*
X186600476Y-105984594D01*
X186511117Y-106159970D01*
X186450290Y-106347173D01*
X186419500Y-106541577D01*
X186419500Y-106738422D01*
X186450290Y-106932821D01*
X186451186Y-106936553D01*
X186447695Y-107006336D01*
X186407031Y-107063153D01*
X186342105Y-107088966D01*
X186330612Y-107089500D01*
X177119097Y-107089500D01*
X177052058Y-107069815D01*
X177006303Y-107017011D01*
X176996359Y-106947853D01*
X177025384Y-106884297D01*
X177031416Y-106877819D01*
X179172416Y-104736819D01*
X179233739Y-104703334D01*
X179260097Y-104700500D01*
X186497404Y-104700500D01*
X186502653Y-104702041D01*
G37*
%TD.AperFunction*%
%TA.AperFunction,Conductor*%
G36*
X161335420Y-90000185D02*
G01*
X161356062Y-90016819D01*
X164419034Y-93079791D01*
X164452519Y-93141114D01*
X164447535Y-93210806D01*
X164405663Y-93266739D01*
X164387649Y-93277956D01*
X164213568Y-93366655D01*
X164094542Y-93453134D01*
X164022490Y-93505483D01*
X164022488Y-93505485D01*
X164022487Y-93505485D01*
X163855485Y-93672487D01*
X163855485Y-93672488D01*
X163855483Y-93672490D01*
X163842106Y-93690902D01*
X163716657Y-93863566D01*
X163609433Y-94074003D01*
X163536446Y-94298631D01*
X163499500Y-94531902D01*
X163499500Y-95368097D01*
X163521497Y-95506979D01*
X163512543Y-95576272D01*
X163486705Y-95614058D01*
X158541286Y-100559478D01*
X158429481Y-100671282D01*
X158429480Y-100671284D01*
X158386716Y-100745354D01*
X158350423Y-100808215D01*
X158309499Y-100960943D01*
X158309499Y-100960945D01*
X158309499Y-101129046D01*
X158309500Y-101129059D01*
X158309500Y-101200397D01*
X158289815Y-101267436D01*
X158241800Y-101310879D01*
X158228389Y-101317712D01*
X158062786Y-101438028D01*
X157918028Y-101582786D01*
X157797715Y-101748386D01*
X157750485Y-101841080D01*
X157702510Y-101891876D01*
X157634689Y-101908671D01*
X157568554Y-101886134D01*
X157529515Y-101841080D01*
X157523860Y-101829981D01*
X157482287Y-101748390D01*
X157430021Y-101676451D01*
X157361971Y-101582786D01*
X157217213Y-101438028D01*
X157051613Y-101317715D01*
X157051612Y-101317714D01*
X157051610Y-101317713D01*
X156978680Y-101280553D01*
X156869223Y-101224781D01*
X156674534Y-101161522D01*
X156499995Y-101133878D01*
X156472352Y-101129500D01*
X156267648Y-101129500D01*
X156243329Y-101133351D01*
X156065465Y-101161522D01*
X155870776Y-101224781D01*
X155688386Y-101317715D01*
X155522786Y-101438028D01*
X155378028Y-101582786D01*
X155257715Y-101748386D01*
X155164781Y-101930776D01*
X155101522Y-102125465D01*
X155069500Y-102327648D01*
X155069500Y-102532351D01*
X155101522Y-102734534D01*
X155164781Y-102929223D01*
X155216135Y-103030009D01*
X155253045Y-103102449D01*
X155257715Y-103111613D01*
X155378028Y-103277213D01*
X155522786Y-103421971D01*
X155677749Y-103534556D01*
X155688390Y-103542287D01*
X155804607Y-103601503D01*
X155870776Y-103635218D01*
X155870778Y-103635218D01*
X155870781Y-103635220D01*
X155916839Y-103650185D01*
X156065465Y-103698477D01*
X156166557Y-103714488D01*
X156267648Y-103730500D01*
X156267649Y-103730500D01*
X156472351Y-103730500D01*
X156472352Y-103730500D01*
X156674534Y-103698477D01*
X156869219Y-103635220D01*
X157051610Y-103542287D01*
X157180482Y-103448657D01*
X157217213Y-103421971D01*
X157217215Y-103421968D01*
X157217219Y-103421966D01*
X157361966Y-103277219D01*
X157361968Y-103277215D01*
X157361971Y-103277213D01*
X157482284Y-103111614D01*
X157482285Y-103111613D01*
X157482287Y-103111610D01*
X157529516Y-103018917D01*
X157577489Y-102968123D01*
X157645310Y-102951328D01*
X157711445Y-102973865D01*
X157750483Y-103018917D01*
X157765446Y-103048282D01*
X157797715Y-103111614D01*
X157918028Y-103277213D01*
X158062786Y-103421971D01*
X158217749Y-103534556D01*
X158228390Y-103542287D01*
X158344607Y-103601503D01*
X158410776Y-103635218D01*
X158410778Y-103635218D01*
X158410781Y-103635220D01*
X158456839Y-103650185D01*
X158605465Y-103698477D01*
X158706557Y-103714488D01*
X158807648Y-103730500D01*
X158807649Y-103730500D01*
X159012351Y-103730500D01*
X159012352Y-103730500D01*
X159214534Y-103698477D01*
X159409219Y-103635220D01*
X159591610Y-103542287D01*
X159720482Y-103448657D01*
X159757213Y-103421971D01*
X159757215Y-103421968D01*
X159757219Y-103421966D01*
X159901966Y-103277219D01*
X159901968Y-103277215D01*
X159901971Y-103277213D01*
X160022284Y-103111614D01*
X160022285Y-103111613D01*
X160022287Y-103111610D01*
X160069516Y-103018917D01*
X160117489Y-102968123D01*
X160185310Y-102951328D01*
X160251445Y-102973865D01*
X160290483Y-103018917D01*
X160305446Y-103048282D01*
X160337715Y-103111614D01*
X160458028Y-103277213D01*
X160602786Y-103421971D01*
X160757749Y-103534556D01*
X160768390Y-103542287D01*
X160884607Y-103601503D01*
X160950776Y-103635218D01*
X160950778Y-103635218D01*
X160950781Y-103635220D01*
X160996839Y-103650185D01*
X161145465Y-103698477D01*
X161246557Y-103714488D01*
X161347648Y-103730500D01*
X161347649Y-103730500D01*
X161552351Y-103730500D01*
X161552352Y-103730500D01*
X161754534Y-103698477D01*
X161949219Y-103635220D01*
X162131610Y-103542287D01*
X162260482Y-103448657D01*
X162297213Y-103421971D01*
X162297215Y-103421968D01*
X162297219Y-103421966D01*
X162441966Y-103277219D01*
X162510021Y-103183547D01*
X162565349Y-103140882D01*
X162634963Y-103134902D01*
X162696758Y-103167507D01*
X162728044Y-103217427D01*
X162755186Y-103299334D01*
X162847288Y-103448656D01*
X162971344Y-103572712D01*
X163120666Y-103664814D01*
X163287203Y-103719999D01*
X163389991Y-103730500D01*
X164590008Y-103730499D01*
X164692797Y-103719999D01*
X164859334Y-103664814D01*
X165008656Y-103572712D01*
X165132712Y-103448656D01*
X165224814Y-103299334D01*
X165279999Y-103132797D01*
X165290500Y-103030009D01*
X165290499Y-101829992D01*
X165279999Y-101727203D01*
X165224814Y-101560666D01*
X165132712Y-101411344D01*
X165008656Y-101287288D01*
X164881030Y-101208568D01*
X164859336Y-101195187D01*
X164859331Y-101195185D01*
X164846140Y-101190814D01*
X164692797Y-101140001D01*
X164692795Y-101140000D01*
X164590010Y-101129500D01*
X163389998Y-101129500D01*
X163389981Y-101129501D01*
X163287203Y-101140000D01*
X163287200Y-101140001D01*
X163120668Y-101195185D01*
X163120663Y-101195187D01*
X162971342Y-101287289D01*
X162847289Y-101411342D01*
X162755187Y-101560663D01*
X162755186Y-101560666D01*
X162728045Y-101642571D01*
X162688271Y-101700016D01*
X162623755Y-101726838D01*
X162554979Y-101714522D01*
X162510021Y-101676452D01*
X162441966Y-101582781D01*
X162297219Y-101438034D01*
X162297213Y-101438028D01*
X162131613Y-101317715D01*
X162131612Y-101317714D01*
X162131610Y-101317713D01*
X162058680Y-101280553D01*
X161949223Y-101224781D01*
X161754534Y-101161522D01*
X161579995Y-101133878D01*
X161552352Y-101129500D01*
X161347648Y-101129500D01*
X161323329Y-101133351D01*
X161145465Y-101161522D01*
X160950776Y-101224781D01*
X160768386Y-101317715D01*
X160602786Y-101438028D01*
X160458028Y-101582786D01*
X160337715Y-101748386D01*
X160290485Y-101841080D01*
X160242510Y-101891876D01*
X160174689Y-101908671D01*
X160108554Y-101886134D01*
X160069515Y-101841080D01*
X160063860Y-101829981D01*
X160022287Y-101748390D01*
X159970021Y-101676451D01*
X159901971Y-101582786D01*
X159757217Y-101438032D01*
X159757212Y-101438028D01*
X159645305Y-101356723D01*
X159602639Y-101301393D01*
X159596660Y-101231780D01*
X159629266Y-101169985D01*
X159630438Y-101168795D01*
X164184527Y-96614707D01*
X164245848Y-96581224D01*
X164315540Y-96586208D01*
X164328501Y-96591905D01*
X164424003Y-96640566D01*
X164424005Y-96640566D01*
X164424008Y-96640568D01*
X164544412Y-96679689D01*
X164648631Y-96713553D01*
X164881903Y-96750500D01*
X164881908Y-96750500D01*
X165118097Y-96750500D01*
X165351368Y-96713553D01*
X165367190Y-96708412D01*
X165575992Y-96640568D01*
X165786433Y-96533343D01*
X165977510Y-96394517D01*
X166144517Y-96227510D01*
X166283343Y-96036433D01*
X166390568Y-95825992D01*
X166463553Y-95601368D01*
X166490710Y-95429903D01*
X166520639Y-95366770D01*
X166579950Y-95329838D01*
X166649813Y-95330836D01*
X166700864Y-95361621D01*
X169593181Y-98253938D01*
X169626666Y-98315261D01*
X169629500Y-98341619D01*
X169629500Y-99273330D01*
X169629499Y-99273348D01*
X169629499Y-99439054D01*
X169629498Y-99439054D01*
X169645837Y-99500029D01*
X169670423Y-99591785D01*
X169684769Y-99616632D01*
X169715238Y-99669406D01*
X169749479Y-99728715D01*
X169868349Y-99847585D01*
X169868355Y-99847590D01*
X171176231Y-101155466D01*
X171209716Y-101216789D01*
X171211023Y-101262544D01*
X171179500Y-101461576D01*
X171179500Y-101658422D01*
X171210290Y-101852826D01*
X171214955Y-101867181D01*
X171216950Y-101937023D01*
X171180870Y-101996856D01*
X171118169Y-102027684D01*
X171097024Y-102029500D01*
X168170943Y-102029500D01*
X168018217Y-102070422D01*
X168018215Y-102070422D01*
X168018215Y-102070423D01*
X168001127Y-102080289D01*
X168001124Y-102080291D01*
X168001123Y-102080290D01*
X167881287Y-102149477D01*
X167881282Y-102149481D01*
X167769478Y-102261286D01*
X167238363Y-102792400D01*
X167234850Y-102795778D01*
X167224676Y-102805181D01*
X167199912Y-102819480D01*
X167088108Y-102931284D01*
X167088106Y-102931286D01*
X167086391Y-102933000D01*
X167086378Y-102933013D01*
X164706212Y-105313181D01*
X164644889Y-105346666D01*
X164618531Y-105349500D01*
X116940097Y-105349500D01*
X116873058Y-105329815D01*
X116852416Y-105313181D01*
X115833757Y-104294522D01*
X115800272Y-104233199D01*
X115803507Y-104168523D01*
X115817246Y-104126243D01*
X115850500Y-103916287D01*
X115850500Y-103703713D01*
X115817246Y-103493757D01*
X115751557Y-103291588D01*
X115655051Y-103102184D01*
X115655049Y-103102181D01*
X115655048Y-103102179D01*
X115530109Y-102930213D01*
X115379786Y-102779890D01*
X115207820Y-102654951D01*
X115199600Y-102650763D01*
X115199054Y-102650485D01*
X115148259Y-102602512D01*
X115131463Y-102534692D01*
X115153999Y-102468556D01*
X115199054Y-102429515D01*
X115207816Y-102425051D01*
X115229789Y-102409086D01*
X115379786Y-102300109D01*
X115379788Y-102300106D01*
X115379792Y-102300104D01*
X115530104Y-102149792D01*
X115530106Y-102149788D01*
X115530109Y-102149786D01*
X115655048Y-101977820D01*
X115655047Y-101977820D01*
X115655051Y-101977816D01*
X115751557Y-101788412D01*
X115817246Y-101586243D01*
X115850500Y-101376287D01*
X115850500Y-101163713D01*
X115817246Y-100953757D01*
X115751557Y-100751588D01*
X115655051Y-100562184D01*
X115655049Y-100562181D01*
X115655048Y-100562179D01*
X115530109Y-100390213D01*
X115379786Y-100239890D01*
X115207817Y-100114949D01*
X115198504Y-100110204D01*
X115147707Y-100062230D01*
X115130912Y-99994409D01*
X115153449Y-99928274D01*
X115198507Y-99889232D01*
X115207555Y-99884622D01*
X115261716Y-99845270D01*
X115261717Y-99845270D01*
X114629408Y-99212962D01*
X114692993Y-99195925D01*
X114807007Y-99130099D01*
X114900099Y-99037007D01*
X114965925Y-98922993D01*
X114982962Y-98859409D01*
X115615270Y-99491717D01*
X115615270Y-99491716D01*
X115654622Y-99437554D01*
X115751095Y-99248217D01*
X115816757Y-99046130D01*
X115816757Y-99046127D01*
X115850000Y-98836246D01*
X115850000Y-98623753D01*
X115816757Y-98413872D01*
X115816757Y-98413869D01*
X115751095Y-98211782D01*
X115654624Y-98022449D01*
X115615270Y-97968282D01*
X115615269Y-97968282D01*
X114982962Y-98600590D01*
X114965925Y-98537007D01*
X114900099Y-98422993D01*
X114807007Y-98329901D01*
X114692993Y-98264075D01*
X114629409Y-98247037D01*
X115261716Y-97614728D01*
X115207547Y-97575373D01*
X115207547Y-97575372D01*
X115198500Y-97570763D01*
X115147706Y-97522788D01*
X115130912Y-97454966D01*
X115153451Y-97388832D01*
X115198508Y-97349793D01*
X115207816Y-97345051D01*
X115294147Y-97282328D01*
X115379786Y-97220109D01*
X115379788Y-97220106D01*
X115379792Y-97220104D01*
X115530104Y-97069792D01*
X115530106Y-97069788D01*
X115530109Y-97069786D01*
X115655048Y-96897820D01*
X115655047Y-96897820D01*
X115655051Y-96897816D01*
X115751557Y-96708412D01*
X115817246Y-96506243D01*
X115850500Y-96296287D01*
X115850500Y-96083713D01*
X115817246Y-95873757D01*
X115803506Y-95831473D01*
X115801512Y-95761635D01*
X115833755Y-95705478D01*
X119507332Y-92031902D01*
X130999500Y-92031902D01*
X130999500Y-92868097D01*
X131036446Y-93101368D01*
X131109433Y-93325996D01*
X131190744Y-93485576D01*
X131216657Y-93536433D01*
X131355483Y-93727510D01*
X131522490Y-93894517D01*
X131713567Y-94033343D01*
X131748390Y-94051086D01*
X131924003Y-94140566D01*
X131924005Y-94140566D01*
X131924008Y-94140568D01*
X132009703Y-94168412D01*
X132148631Y-94213553D01*
X132381903Y-94250500D01*
X132381908Y-94250500D01*
X132618097Y-94250500D01*
X132851368Y-94213553D01*
X132924761Y-94189706D01*
X133075992Y-94140568D01*
X133286433Y-94033343D01*
X133417794Y-93937903D01*
X133483598Y-93914423D01*
X133551652Y-93930248D01*
X133600347Y-93980353D01*
X133614223Y-94048831D01*
X133608609Y-94076539D01*
X133536447Y-94298627D01*
X133536447Y-94298630D01*
X133499500Y-94531902D01*
X133499500Y-95368097D01*
X133536446Y-95601368D01*
X133609433Y-95825996D01*
X133698078Y-95999970D01*
X133716657Y-96036433D01*
X133855483Y-96227510D01*
X134022490Y-96394517D01*
X134213567Y-96533343D01*
X134248231Y-96551005D01*
X134424003Y-96640566D01*
X134424005Y-96640566D01*
X134424008Y-96640568D01*
X134544412Y-96679689D01*
X134648631Y-96713553D01*
X134881903Y-96750500D01*
X134881908Y-96750500D01*
X135118097Y-96750500D01*
X135351368Y-96713553D01*
X135367190Y-96708412D01*
X135575992Y-96640568D01*
X135786433Y-96533343D01*
X135977510Y-96394517D01*
X136144517Y-96227510D01*
X136283343Y-96036433D01*
X136390568Y-95825992D01*
X136463553Y-95601368D01*
X136474607Y-95531574D01*
X136500500Y-95368097D01*
X136500500Y-94531902D01*
X143499500Y-94531902D01*
X143499500Y-95368097D01*
X143536446Y-95601368D01*
X143609433Y-95825996D01*
X143698078Y-95999970D01*
X143716657Y-96036433D01*
X143855483Y-96227510D01*
X144022490Y-96394517D01*
X144213567Y-96533343D01*
X144248231Y-96551005D01*
X144424003Y-96640566D01*
X144424005Y-96640566D01*
X144424008Y-96640568D01*
X144544412Y-96679689D01*
X144648631Y-96713553D01*
X144881903Y-96750500D01*
X144881908Y-96750500D01*
X145118097Y-96750500D01*
X145351368Y-96713553D01*
X145367190Y-96708412D01*
X145575992Y-96640568D01*
X145786433Y-96533343D01*
X145977510Y-96394517D01*
X146144517Y-96227510D01*
X146283343Y-96036433D01*
X146390568Y-95825992D01*
X146463553Y-95601368D01*
X146474607Y-95531574D01*
X146500500Y-95368097D01*
X146500500Y-94531902D01*
X146463553Y-94298631D01*
X146435909Y-94213553D01*
X146391389Y-94076537D01*
X146389395Y-94006699D01*
X146425475Y-93946866D01*
X146488176Y-93916037D01*
X146557590Y-93924001D01*
X146582200Y-93937899D01*
X146713567Y-94033343D01*
X146748390Y-94051086D01*
X146924003Y-94140566D01*
X146924005Y-94140566D01*
X146924008Y-94140568D01*
X147009703Y-94168412D01*
X147148631Y-94213553D01*
X147381903Y-94250500D01*
X147381908Y-94250500D01*
X147618097Y-94250500D01*
X147851368Y-94213553D01*
X147924761Y-94189706D01*
X148075992Y-94140568D01*
X148286433Y-94033343D01*
X148477510Y-93894517D01*
X148644517Y-93727510D01*
X148783343Y-93536433D01*
X148890568Y-93325992D01*
X148963553Y-93101368D01*
X148963572Y-93101247D01*
X149000500Y-92868097D01*
X149000500Y-92031902D01*
X150999500Y-92031902D01*
X150999500Y-92868097D01*
X151036446Y-93101368D01*
X151109433Y-93325996D01*
X151190744Y-93485576D01*
X151216657Y-93536433D01*
X151355483Y-93727510D01*
X151522490Y-93894517D01*
X151713567Y-94033343D01*
X151748390Y-94051086D01*
X151924003Y-94140566D01*
X151924005Y-94140566D01*
X151924008Y-94140568D01*
X152009703Y-94168412D01*
X152148631Y-94213553D01*
X152381903Y-94250500D01*
X152381908Y-94250500D01*
X152618097Y-94250500D01*
X152851368Y-94213553D01*
X152924761Y-94189706D01*
X153075992Y-94140568D01*
X153286433Y-94033343D01*
X153417794Y-93937903D01*
X153483598Y-93914423D01*
X153551652Y-93930248D01*
X153600347Y-93980353D01*
X153614223Y-94048831D01*
X153608609Y-94076539D01*
X153536447Y-94298627D01*
X153536447Y-94298630D01*
X153499500Y-94531902D01*
X153499500Y-95368097D01*
X153536446Y-95601368D01*
X153609433Y-95825996D01*
X153698078Y-95999970D01*
X153716657Y-96036433D01*
X153855483Y-96227510D01*
X154022490Y-96394517D01*
X154213567Y-96533343D01*
X154248231Y-96551005D01*
X154424003Y-96640566D01*
X154424005Y-96640566D01*
X154424008Y-96640568D01*
X154544412Y-96679689D01*
X154648631Y-96713553D01*
X154881903Y-96750500D01*
X154881908Y-96750500D01*
X155118097Y-96750500D01*
X155351368Y-96713553D01*
X155367190Y-96708412D01*
X155575992Y-96640568D01*
X155786433Y-96533343D01*
X155977510Y-96394517D01*
X156144517Y-96227510D01*
X156283343Y-96036433D01*
X156390568Y-95825992D01*
X156463553Y-95601368D01*
X156474607Y-95531574D01*
X156500500Y-95368097D01*
X156500500Y-94531902D01*
X156463553Y-94298631D01*
X156402242Y-94109937D01*
X156390568Y-94074008D01*
X156390566Y-94074005D01*
X156390566Y-94074003D01*
X156325786Y-93946866D01*
X156283343Y-93863567D01*
X156144517Y-93672490D01*
X155977510Y-93505483D01*
X155786433Y-93366657D01*
X155756032Y-93351167D01*
X155575996Y-93259433D01*
X155351368Y-93186446D01*
X155118097Y-93149500D01*
X155118092Y-93149500D01*
X154881908Y-93149500D01*
X154881903Y-93149500D01*
X154648631Y-93186446D01*
X154424003Y-93259433D01*
X154213566Y-93366657D01*
X154082207Y-93462096D01*
X154016400Y-93485576D01*
X153948346Y-93469751D01*
X153899651Y-93419645D01*
X153885776Y-93351167D01*
X153891388Y-93323467D01*
X153963553Y-93101368D01*
X153963572Y-93101247D01*
X154000500Y-92868097D01*
X154000500Y-92031902D01*
X158499500Y-92031902D01*
X158499500Y-92868097D01*
X158536446Y-93101368D01*
X158609433Y-93325996D01*
X158690744Y-93485576D01*
X158716657Y-93536433D01*
X158855483Y-93727510D01*
X159022490Y-93894517D01*
X159213567Y-94033343D01*
X159248390Y-94051086D01*
X159424003Y-94140566D01*
X159424005Y-94140566D01*
X159424008Y-94140568D01*
X159509703Y-94168412D01*
X159648631Y-94213553D01*
X159881903Y-94250500D01*
X159881908Y-94250500D01*
X160118097Y-94250500D01*
X160351368Y-94213553D01*
X160424761Y-94189706D01*
X160575992Y-94140568D01*
X160786433Y-94033343D01*
X160977510Y-93894517D01*
X161144517Y-93727510D01*
X161283343Y-93536433D01*
X161390568Y-93325992D01*
X161463553Y-93101368D01*
X161463572Y-93101247D01*
X161500500Y-92868097D01*
X161500500Y-92031902D01*
X161463553Y-91798631D01*
X161410302Y-91634742D01*
X161390568Y-91574008D01*
X161390566Y-91574005D01*
X161390566Y-91574003D01*
X161315276Y-91426239D01*
X161283343Y-91363567D01*
X161144517Y-91172490D01*
X160977510Y-91005483D01*
X160786433Y-90866657D01*
X160575996Y-90759433D01*
X160351368Y-90686446D01*
X160118097Y-90649500D01*
X160118092Y-90649500D01*
X159881908Y-90649500D01*
X159881903Y-90649500D01*
X159648631Y-90686446D01*
X159424003Y-90759433D01*
X159213566Y-90866657D01*
X159140188Y-90919970D01*
X159022490Y-91005483D01*
X159022488Y-91005485D01*
X159022487Y-91005485D01*
X158855485Y-91172487D01*
X158855485Y-91172488D01*
X158855483Y-91172490D01*
X158795862Y-91254550D01*
X158716657Y-91363566D01*
X158609433Y-91574003D01*
X158536446Y-91798631D01*
X158499500Y-92031902D01*
X154000500Y-92031902D01*
X153963553Y-91798631D01*
X153910302Y-91634742D01*
X153890568Y-91574008D01*
X153890566Y-91574005D01*
X153890566Y-91574003D01*
X153815276Y-91426239D01*
X153783343Y-91363567D01*
X153644517Y-91172490D01*
X153477510Y-91005483D01*
X153286433Y-90866657D01*
X153075996Y-90759433D01*
X152851368Y-90686446D01*
X152618097Y-90649500D01*
X152618092Y-90649500D01*
X152381908Y-90649500D01*
X152381903Y-90649500D01*
X152148631Y-90686446D01*
X151924003Y-90759433D01*
X151713566Y-90866657D01*
X151640188Y-90919970D01*
X151522490Y-91005483D01*
X151522488Y-91005485D01*
X151522487Y-91005485D01*
X151355485Y-91172487D01*
X151355485Y-91172488D01*
X151355483Y-91172490D01*
X151295862Y-91254550D01*
X151216657Y-91363566D01*
X151109433Y-91574003D01*
X151036446Y-91798631D01*
X150999500Y-92031902D01*
X149000500Y-92031902D01*
X148963553Y-91798631D01*
X148910302Y-91634742D01*
X148890568Y-91574008D01*
X148890566Y-91574005D01*
X148890566Y-91574003D01*
X148815276Y-91426239D01*
X148783343Y-91363567D01*
X148644517Y-91172490D01*
X148477510Y-91005483D01*
X148286433Y-90866657D01*
X148075996Y-90759433D01*
X147851368Y-90686446D01*
X147618097Y-90649500D01*
X147618092Y-90649500D01*
X147381908Y-90649500D01*
X147381903Y-90649500D01*
X147148631Y-90686446D01*
X146924003Y-90759433D01*
X146713566Y-90866657D01*
X146640188Y-90919970D01*
X146522490Y-91005483D01*
X146522488Y-91005485D01*
X146522487Y-91005485D01*
X146355485Y-91172487D01*
X146355485Y-91172488D01*
X146355483Y-91172490D01*
X146295862Y-91254550D01*
X146216657Y-91363566D01*
X146109433Y-91574003D01*
X146036446Y-91798631D01*
X145999500Y-92031902D01*
X145999500Y-92868097D01*
X146036447Y-93101369D01*
X146036447Y-93101372D01*
X146108609Y-93323460D01*
X146110604Y-93393301D01*
X146074524Y-93453134D01*
X146011823Y-93483962D01*
X145942409Y-93475997D01*
X145917796Y-93462098D01*
X145786433Y-93366657D01*
X145756032Y-93351167D01*
X145575996Y-93259433D01*
X145351368Y-93186446D01*
X145118097Y-93149500D01*
X145118092Y-93149500D01*
X144881908Y-93149500D01*
X144881903Y-93149500D01*
X144648631Y-93186446D01*
X144424003Y-93259433D01*
X144213566Y-93366657D01*
X144104550Y-93445862D01*
X144022490Y-93505483D01*
X144022488Y-93505485D01*
X144022487Y-93505485D01*
X143855485Y-93672487D01*
X143855485Y-93672488D01*
X143855483Y-93672490D01*
X143842106Y-93690902D01*
X143716657Y-93863566D01*
X143609433Y-94074003D01*
X143536446Y-94298631D01*
X143499500Y-94531902D01*
X136500500Y-94531902D01*
X136463553Y-94298631D01*
X136402242Y-94109937D01*
X136390568Y-94074008D01*
X136390566Y-94074005D01*
X136390566Y-94074003D01*
X136325786Y-93946866D01*
X136283343Y-93863567D01*
X136144517Y-93672490D01*
X135977510Y-93505483D01*
X135786433Y-93366657D01*
X135756032Y-93351167D01*
X135575996Y-93259433D01*
X135351368Y-93186446D01*
X135118097Y-93149500D01*
X135118092Y-93149500D01*
X134881908Y-93149500D01*
X134881903Y-93149500D01*
X134648631Y-93186446D01*
X134424003Y-93259433D01*
X134213566Y-93366657D01*
X134082207Y-93462096D01*
X134016400Y-93485576D01*
X133948346Y-93469751D01*
X133899651Y-93419645D01*
X133885776Y-93351167D01*
X133891388Y-93323467D01*
X133963553Y-93101368D01*
X133963572Y-93101247D01*
X134000500Y-92868097D01*
X134000500Y-92031947D01*
X138500000Y-92031947D01*
X138500000Y-92200000D01*
X139500000Y-92200000D01*
X139500000Y-92700000D01*
X138500000Y-92700000D01*
X138500000Y-92868052D01*
X138536934Y-93101247D01*
X138609897Y-93325802D01*
X138717085Y-93536171D01*
X138855866Y-93727186D01*
X139022813Y-93894133D01*
X139213828Y-94032914D01*
X139424195Y-94140102D01*
X139648744Y-94213063D01*
X139648750Y-94213065D01*
X139750000Y-94229101D01*
X139750000Y-93183012D01*
X139807007Y-93215925D01*
X139934174Y-93250000D01*
X140065826Y-93250000D01*
X140192993Y-93215925D01*
X140250000Y-93183012D01*
X140250000Y-94229100D01*
X140351249Y-94213065D01*
X140351255Y-94213063D01*
X140575804Y-94140102D01*
X140786171Y-94032914D01*
X140977186Y-93894133D01*
X141144133Y-93727186D01*
X141282914Y-93536171D01*
X141390102Y-93325802D01*
X141463065Y-93101247D01*
X141500000Y-92868052D01*
X141500000Y-92700000D01*
X140500000Y-92700000D01*
X140500000Y-92200000D01*
X141500000Y-92200000D01*
X141500000Y-92031947D01*
X141463065Y-91798752D01*
X141390102Y-91574197D01*
X141282914Y-91363828D01*
X141144133Y-91172813D01*
X140977186Y-91005866D01*
X140786171Y-90867085D01*
X140575802Y-90759897D01*
X140351247Y-90686934D01*
X140250000Y-90670897D01*
X140250000Y-91716988D01*
X140192993Y-91684075D01*
X140065826Y-91650000D01*
X139934174Y-91650000D01*
X139807007Y-91684075D01*
X139750000Y-91716988D01*
X139750000Y-90670897D01*
X139648752Y-90686934D01*
X139424197Y-90759897D01*
X139213828Y-90867085D01*
X139022813Y-91005866D01*
X138855866Y-91172813D01*
X138717085Y-91363828D01*
X138609897Y-91574197D01*
X138536934Y-91798752D01*
X138500000Y-92031947D01*
X134000500Y-92031947D01*
X134000500Y-92031902D01*
X133963553Y-91798631D01*
X133910302Y-91634742D01*
X133890568Y-91574008D01*
X133890566Y-91574005D01*
X133890566Y-91574003D01*
X133815276Y-91426239D01*
X133783343Y-91363567D01*
X133644517Y-91172490D01*
X133477510Y-91005483D01*
X133286433Y-90866657D01*
X133075996Y-90759433D01*
X132851368Y-90686446D01*
X132618097Y-90649500D01*
X132618092Y-90649500D01*
X132381908Y-90649500D01*
X132381903Y-90649500D01*
X132148631Y-90686446D01*
X131924003Y-90759433D01*
X131713566Y-90866657D01*
X131640188Y-90919970D01*
X131522490Y-91005483D01*
X131522488Y-91005485D01*
X131522487Y-91005485D01*
X131355485Y-91172487D01*
X131355485Y-91172488D01*
X131355483Y-91172490D01*
X131295862Y-91254550D01*
X131216657Y-91363566D01*
X131109433Y-91574003D01*
X131036446Y-91798631D01*
X130999500Y-92031902D01*
X119507332Y-92031902D01*
X121522416Y-90016819D01*
X121583739Y-89983334D01*
X121610097Y-89980500D01*
X161268381Y-89980500D01*
X161335420Y-90000185D01*
G37*
%TD.AperFunction*%
%TA.AperFunction,Conductor*%
G36*
X186502653Y-99622041D02*
G01*
X186508015Y-99620955D01*
X186535819Y-99631780D01*
X186564443Y-99640185D01*
X186569377Y-99644845D01*
X186573124Y-99646304D01*
X186597722Y-99671614D01*
X186600475Y-99675403D01*
X186600476Y-99675405D01*
X186716172Y-99834646D01*
X186855354Y-99973828D01*
X187014595Y-100089524D01*
X187137992Y-100152397D01*
X187191213Y-100179515D01*
X187242009Y-100227489D01*
X187258804Y-100295310D01*
X187236267Y-100361445D01*
X187191213Y-100400485D01*
X187014594Y-100490476D01*
X186963150Y-100527853D01*
X186855354Y-100606172D01*
X186855352Y-100606174D01*
X186855351Y-100606174D01*
X186716174Y-100745351D01*
X186716174Y-100745352D01*
X186716172Y-100745354D01*
X186711645Y-100751585D01*
X186600476Y-100904594D01*
X186511117Y-101079970D01*
X186450290Y-101267173D01*
X186419500Y-101461577D01*
X186419500Y-101658422D01*
X186450290Y-101852826D01*
X186511117Y-102040029D01*
X186600476Y-102215405D01*
X186716172Y-102374646D01*
X186855354Y-102513828D01*
X187014595Y-102629524D01*
X187064495Y-102654949D01*
X187191213Y-102719515D01*
X187242009Y-102767489D01*
X187258804Y-102835310D01*
X187236267Y-102901445D01*
X187191213Y-102940485D01*
X187014594Y-103030476D01*
X186990087Y-103048282D01*
X186855354Y-103146172D01*
X186855352Y-103146174D01*
X186855351Y-103146174D01*
X186716174Y-103285351D01*
X186716174Y-103285352D01*
X186716172Y-103285354D01*
X186613252Y-103427011D01*
X186597722Y-103448386D01*
X186542392Y-103491051D01*
X186497404Y-103499500D01*
X180143411Y-103499500D01*
X180076372Y-103479815D01*
X180030617Y-103427011D01*
X180020673Y-103357853D01*
X180049698Y-103294297D01*
X180055730Y-103287819D01*
X183686730Y-99656819D01*
X183748053Y-99623334D01*
X183774411Y-99620500D01*
X186497404Y-99620500D01*
X186502653Y-99622041D01*
G37*
%TD.AperFunction*%
%TA.AperFunction,Conductor*%
G36*
X173863882Y-88607675D02*
G01*
X173886022Y-88625257D01*
X174723181Y-89462416D01*
X174756666Y-89523739D01*
X174759500Y-89550097D01*
X174759500Y-100990234D01*
X174739815Y-101057273D01*
X174738602Y-101059125D01*
X174650609Y-101190814D01*
X174650602Y-101190827D01*
X174590264Y-101336498D01*
X174590261Y-101336510D01*
X174559500Y-101491153D01*
X174559500Y-101648846D01*
X174590261Y-101803489D01*
X174590264Y-101803501D01*
X174612858Y-101858048D01*
X174620327Y-101927518D01*
X174589051Y-101989997D01*
X174528962Y-102025648D01*
X174498297Y-102029500D01*
X173762976Y-102029500D01*
X173695937Y-102009815D01*
X173650182Y-101957011D01*
X173640238Y-101887853D01*
X173645045Y-101867181D01*
X173649709Y-101852826D01*
X173680500Y-101658422D01*
X173680500Y-101461577D01*
X173649709Y-101267173D01*
X173604828Y-101129046D01*
X173588884Y-101079975D01*
X173588882Y-101079972D01*
X173588882Y-101079970D01*
X173541743Y-100987455D01*
X173499524Y-100904595D01*
X173383828Y-100745354D01*
X173244646Y-100606172D01*
X173136850Y-100527853D01*
X173085403Y-100490474D01*
X172908787Y-100400485D01*
X172857990Y-100352511D01*
X172841195Y-100284690D01*
X172863732Y-100218555D01*
X172908787Y-100179515D01*
X173085403Y-100089525D01*
X173085402Y-100089525D01*
X173085405Y-100089524D01*
X173244646Y-99973828D01*
X173383828Y-99834646D01*
X173499524Y-99675405D01*
X173588884Y-99500025D01*
X173649709Y-99312826D01*
X173655962Y-99273348D01*
X173680500Y-99118422D01*
X173680500Y-98921577D01*
X173649709Y-98727173D01*
X173588882Y-98539970D01*
X173524630Y-98413869D01*
X173499524Y-98364595D01*
X173383828Y-98205354D01*
X173244646Y-98066172D01*
X173165025Y-98008324D01*
X173085403Y-97950474D01*
X172908787Y-97860485D01*
X172857990Y-97812511D01*
X172841195Y-97744690D01*
X172863732Y-97678555D01*
X172908787Y-97639515D01*
X173070816Y-97556957D01*
X173085405Y-97549524D01*
X173244646Y-97433828D01*
X173383828Y-97294646D01*
X173499524Y-97135405D01*
X173588884Y-96960025D01*
X173649709Y-96772826D01*
X173659911Y-96708412D01*
X173680500Y-96578422D01*
X173680500Y-96381577D01*
X173649709Y-96187173D01*
X173588882Y-95999970D01*
X173527499Y-95879500D01*
X173499524Y-95824595D01*
X173383828Y-95665354D01*
X173244646Y-95526172D01*
X173165025Y-95468324D01*
X173085403Y-95410474D01*
X172908787Y-95320485D01*
X172857990Y-95272511D01*
X172841195Y-95204690D01*
X172863732Y-95138555D01*
X172908787Y-95099515D01*
X173085403Y-95009525D01*
X173085402Y-95009525D01*
X173085405Y-95009524D01*
X173244646Y-94893828D01*
X173383828Y-94754646D01*
X173499524Y-94595405D01*
X173588884Y-94420025D01*
X173649709Y-94232826D01*
X173652839Y-94213063D01*
X173680500Y-94038422D01*
X173680500Y-93841577D01*
X173649709Y-93647173D01*
X173603671Y-93505485D01*
X173588884Y-93459975D01*
X173588882Y-93459972D01*
X173588882Y-93459970D01*
X173533444Y-93351167D01*
X173499524Y-93284595D01*
X173383828Y-93125354D01*
X173244646Y-92986172D01*
X173165025Y-92928324D01*
X173085403Y-92870474D01*
X172908787Y-92780485D01*
X172857990Y-92732511D01*
X172841195Y-92664690D01*
X172863732Y-92598555D01*
X172908787Y-92559515D01*
X173085403Y-92469525D01*
X173085402Y-92469525D01*
X173085405Y-92469524D01*
X173244646Y-92353828D01*
X173383828Y-92214646D01*
X173499524Y-92055405D01*
X173588884Y-91880025D01*
X173649709Y-91692826D01*
X173656492Y-91650000D01*
X173680500Y-91498422D01*
X173680500Y-91301577D01*
X173649709Y-91107173D01*
X173588882Y-90919970D01*
X173541743Y-90827455D01*
X173499524Y-90744595D01*
X173383828Y-90585354D01*
X173244646Y-90446172D01*
X173165025Y-90388324D01*
X173085403Y-90330474D01*
X172908787Y-90240485D01*
X172857990Y-90192511D01*
X172841195Y-90124690D01*
X172863732Y-90058555D01*
X172908787Y-90019515D01*
X173085403Y-89929525D01*
X173085402Y-89929525D01*
X173085405Y-89929524D01*
X173244646Y-89813828D01*
X173383828Y-89674646D01*
X173499524Y-89515405D01*
X173588884Y-89340025D01*
X173649709Y-89152826D01*
X173671029Y-89018216D01*
X173680500Y-88958422D01*
X173680500Y-88761580D01*
X173675868Y-88732338D01*
X173684822Y-88663044D01*
X173729817Y-88609592D01*
X173796568Y-88588951D01*
X173863882Y-88607675D01*
G37*
%TD.AperFunction*%
%TA.AperFunction,Conductor*%
G36*
X169205703Y-92131070D02*
G01*
X169212181Y-92137102D01*
X169713181Y-92638102D01*
X169746666Y-92699425D01*
X169749500Y-92725783D01*
X169749500Y-94313330D01*
X169749499Y-94313348D01*
X169749499Y-94479054D01*
X169749498Y-94479054D01*
X169749499Y-94479057D01*
X169790423Y-94631785D01*
X169818320Y-94680104D01*
X169869477Y-94768712D01*
X169869481Y-94768717D01*
X169988349Y-94887585D01*
X169988355Y-94887590D01*
X171176231Y-96075466D01*
X171209716Y-96136789D01*
X171211023Y-96182544D01*
X171179500Y-96381576D01*
X171179500Y-96578422D01*
X171210290Y-96772826D01*
X171271117Y-96960029D01*
X171351006Y-97116819D01*
X171360476Y-97135405D01*
X171476172Y-97294646D01*
X171615354Y-97433828D01*
X171774595Y-97549524D01*
X171823969Y-97574681D01*
X171951213Y-97639515D01*
X172002009Y-97687489D01*
X172018804Y-97755310D01*
X171996267Y-97821445D01*
X171951212Y-97860485D01*
X171811882Y-97931476D01*
X171743213Y-97944372D01*
X171678473Y-97918095D01*
X171667907Y-97908672D01*
X168079956Y-94320721D01*
X168046471Y-94259398D01*
X168051455Y-94189706D01*
X168093327Y-94133773D01*
X168111336Y-94122559D01*
X168286433Y-94033343D01*
X168477510Y-93894517D01*
X168644517Y-93727510D01*
X168783343Y-93536433D01*
X168890568Y-93325992D01*
X168963553Y-93101368D01*
X168963572Y-93101247D01*
X169000500Y-92868097D01*
X169000500Y-92224783D01*
X169020185Y-92157744D01*
X169072989Y-92111989D01*
X169142147Y-92102045D01*
X169205703Y-92131070D01*
G37*
%TD.AperFunction*%
%TA.AperFunction,Conductor*%
G36*
X166261256Y-89190185D02*
G01*
X166281898Y-89206819D01*
X167512898Y-90437819D01*
X167546383Y-90499142D01*
X167541399Y-90568834D01*
X167499527Y-90624767D01*
X167434063Y-90649184D01*
X167425217Y-90649500D01*
X167381903Y-90649500D01*
X167148631Y-90686446D01*
X166924003Y-90759433D01*
X166713566Y-90866657D01*
X166640188Y-90919970D01*
X166522490Y-91005483D01*
X166522488Y-91005485D01*
X166522487Y-91005485D01*
X166355485Y-91172487D01*
X166355485Y-91172488D01*
X166355483Y-91172490D01*
X166295862Y-91254550D01*
X166216657Y-91363566D01*
X166109433Y-91574003D01*
X166036446Y-91798631D01*
X166009081Y-91971409D01*
X165979152Y-92034544D01*
X165919840Y-92071475D01*
X165849977Y-92070477D01*
X165798927Y-92039692D01*
X163141416Y-89382181D01*
X163107931Y-89320858D01*
X163112915Y-89251166D01*
X163154787Y-89195233D01*
X163220251Y-89170816D01*
X163229097Y-89170500D01*
X166194217Y-89170500D01*
X166261256Y-89190185D01*
G37*
%TD.AperFunction*%
%TA.AperFunction,Conductor*%
G36*
X232003736Y-80500726D02*
G01*
X232293796Y-80518271D01*
X232308659Y-80520076D01*
X232590797Y-80571780D01*
X232605334Y-80575363D01*
X232879182Y-80660698D01*
X232893163Y-80666000D01*
X233154734Y-80783724D01*
X233167987Y-80790680D01*
X233413458Y-80939071D01*
X233425776Y-80947573D01*
X233541665Y-81038366D01*
X233651573Y-81124474D01*
X233662781Y-81134404D01*
X233865595Y-81337218D01*
X233875525Y-81348426D01*
X234052422Y-81574217D01*
X234060928Y-81586541D01*
X234209319Y-81832012D01*
X234216277Y-81845269D01*
X234333994Y-82106823D01*
X234339304Y-82120825D01*
X234424635Y-82394664D01*
X234428219Y-82409202D01*
X234479923Y-82691340D01*
X234481728Y-82706205D01*
X234499274Y-82996263D01*
X234499500Y-83003750D01*
X234499500Y-116996249D01*
X234499274Y-117003736D01*
X234481728Y-117293794D01*
X234479923Y-117308659D01*
X234428219Y-117590797D01*
X234424635Y-117605335D01*
X234339304Y-117879174D01*
X234333994Y-117893176D01*
X234216277Y-118154730D01*
X234209319Y-118167987D01*
X234060928Y-118413458D01*
X234052422Y-118425782D01*
X233875525Y-118651573D01*
X233865595Y-118662781D01*
X233662781Y-118865595D01*
X233651573Y-118875525D01*
X233425782Y-119052422D01*
X233413458Y-119060928D01*
X233167987Y-119209319D01*
X233154730Y-119216277D01*
X232893176Y-119333994D01*
X232879174Y-119339304D01*
X232605335Y-119424635D01*
X232590797Y-119428219D01*
X232308659Y-119479923D01*
X232293794Y-119481728D01*
X232003736Y-119499274D01*
X231996249Y-119499500D01*
X68003751Y-119499500D01*
X67996264Y-119499274D01*
X67706205Y-119481728D01*
X67691340Y-119479923D01*
X67409202Y-119428219D01*
X67394664Y-119424635D01*
X67120825Y-119339304D01*
X67106827Y-119333995D01*
X66954096Y-119265256D01*
X66845269Y-119216277D01*
X66832012Y-119209319D01*
X66586541Y-119060928D01*
X66574217Y-119052422D01*
X66348426Y-118875525D01*
X66337218Y-118865595D01*
X66134404Y-118662781D01*
X66124474Y-118651573D01*
X65947573Y-118425776D01*
X65939071Y-118413458D01*
X65790680Y-118167987D01*
X65783722Y-118154730D01*
X65666000Y-117893163D01*
X65660698Y-117879182D01*
X65575363Y-117605334D01*
X65571780Y-117590797D01*
X65557752Y-117514250D01*
X65520075Y-117308657D01*
X65518271Y-117293794D01*
X65507836Y-117121288D01*
X65500726Y-117003736D01*
X65500500Y-116996249D01*
X65500500Y-116878711D01*
X75149500Y-116878711D01*
X75149500Y-117121288D01*
X75181161Y-117361785D01*
X75243947Y-117596104D01*
X75247771Y-117605335D01*
X75336776Y-117820212D01*
X75458064Y-118030289D01*
X75458066Y-118030292D01*
X75458067Y-118030293D01*
X75605733Y-118222736D01*
X75605739Y-118222743D01*
X75777256Y-118394260D01*
X75777263Y-118394266D01*
X75818336Y-118425782D01*
X75969711Y-118541936D01*
X76179788Y-118663224D01*
X76403900Y-118756054D01*
X76638211Y-118818838D01*
X76818586Y-118842584D01*
X76878711Y-118850500D01*
X76878712Y-118850500D01*
X77121289Y-118850500D01*
X77169388Y-118844167D01*
X77361789Y-118818838D01*
X77596100Y-118756054D01*
X77820212Y-118663224D01*
X78030289Y-118541936D01*
X78222738Y-118394265D01*
X78394265Y-118222738D01*
X78541936Y-118030289D01*
X78663224Y-117820212D01*
X78756054Y-117596100D01*
X78818838Y-117361789D01*
X78850500Y-117121288D01*
X78850500Y-116878712D01*
X78850500Y-116878711D01*
X109149500Y-116878711D01*
X109149500Y-117121288D01*
X109181161Y-117361785D01*
X109243947Y-117596104D01*
X109247771Y-117605335D01*
X109336776Y-117820212D01*
X109458064Y-118030289D01*
X109458066Y-118030292D01*
X109458067Y-118030293D01*
X109605733Y-118222736D01*
X109605739Y-118222743D01*
X109777256Y-118394260D01*
X109777263Y-118394266D01*
X109818336Y-118425782D01*
X109969711Y-118541936D01*
X110179788Y-118663224D01*
X110403900Y-118756054D01*
X110638211Y-118818838D01*
X110818586Y-118842584D01*
X110878711Y-118850500D01*
X110878712Y-118850500D01*
X111121289Y-118850500D01*
X111169388Y-118844167D01*
X111361789Y-118818838D01*
X111596100Y-118756054D01*
X111820212Y-118663224D01*
X112030289Y-118541936D01*
X112222738Y-118394265D01*
X112394265Y-118222738D01*
X112541936Y-118030289D01*
X112663224Y-117820212D01*
X112756054Y-117596100D01*
X112818838Y-117361789D01*
X112850500Y-117121288D01*
X112850500Y-116878712D01*
X112850173Y-116876231D01*
X112834352Y-116756052D01*
X112818838Y-116638211D01*
X112756054Y-116403900D01*
X112752063Y-116394266D01*
X112663224Y-116179788D01*
X112663222Y-116179785D01*
X112661909Y-116177510D01*
X112541936Y-115969711D01*
X112427216Y-115820205D01*
X112394266Y-115777263D01*
X112394260Y-115777256D01*
X112222743Y-115605739D01*
X112222736Y-115605733D01*
X112030293Y-115458067D01*
X112030292Y-115458066D01*
X112030289Y-115458064D01*
X111820212Y-115336776D01*
X111820205Y-115336773D01*
X111596104Y-115243947D01*
X111361785Y-115181161D01*
X111208261Y-115160950D01*
X111121289Y-115149500D01*
X111121288Y-115149500D01*
X110878712Y-115149500D01*
X110878711Y-115149500D01*
X110638214Y-115181161D01*
X110403895Y-115243947D01*
X110179794Y-115336773D01*
X110179785Y-115336777D01*
X109969706Y-115458067D01*
X109777263Y-115605733D01*
X109777256Y-115605739D01*
X109605739Y-115777256D01*
X109605733Y-115777263D01*
X109458067Y-115969706D01*
X109336777Y-116179785D01*
X109336776Y-116179788D01*
X109243947Y-116403895D01*
X109181161Y-116638214D01*
X109149500Y-116878711D01*
X78850500Y-116878711D01*
X78850173Y-116876231D01*
X78834352Y-116756052D01*
X78818838Y-116638211D01*
X78756054Y-116403900D01*
X78752063Y-116394266D01*
X78663224Y-116179788D01*
X78663222Y-116179785D01*
X78661909Y-116177510D01*
X78541936Y-115969711D01*
X78427216Y-115820205D01*
X78394266Y-115777263D01*
X78394260Y-115777256D01*
X78222743Y-115605739D01*
X78222736Y-115605733D01*
X78030293Y-115458067D01*
X78030292Y-115458066D01*
X78030289Y-115458064D01*
X77820212Y-115336776D01*
X77820205Y-115336773D01*
X77596104Y-115243947D01*
X77361785Y-115181161D01*
X77121289Y-115149500D01*
X77121288Y-115149500D01*
X76878712Y-115149500D01*
X76878711Y-115149500D01*
X76638214Y-115181161D01*
X76403895Y-115243947D01*
X76179794Y-115336773D01*
X76179785Y-115336777D01*
X75969706Y-115458067D01*
X75777263Y-115605733D01*
X75777256Y-115605739D01*
X75605739Y-115777256D01*
X75605733Y-115777263D01*
X75458067Y-115969706D01*
X75336777Y-116179785D01*
X75336776Y-116179788D01*
X75243947Y-116403895D01*
X75181161Y-116638214D01*
X75149500Y-116878711D01*
X65500500Y-116878711D01*
X65500500Y-114878711D01*
X66149500Y-114878711D01*
X66149500Y-115121288D01*
X66181161Y-115361785D01*
X66243947Y-115596104D01*
X66318986Y-115777263D01*
X66336776Y-115820212D01*
X66458064Y-116030289D01*
X66458066Y-116030292D01*
X66458067Y-116030293D01*
X66605733Y-116222736D01*
X66605739Y-116222743D01*
X66777256Y-116394260D01*
X66777263Y-116394266D01*
X66833993Y-116437796D01*
X66969711Y-116541936D01*
X67179788Y-116663224D01*
X67403900Y-116756054D01*
X67638211Y-116818838D01*
X67818586Y-116842584D01*
X67878711Y-116850500D01*
X67878712Y-116850500D01*
X68121289Y-116850500D01*
X68169388Y-116844167D01*
X68361789Y-116818838D01*
X68596100Y-116756054D01*
X68820212Y-116663224D01*
X69030289Y-116541936D01*
X69222738Y-116394265D01*
X69394265Y-116222738D01*
X69541936Y-116030289D01*
X69663224Y-115820212D01*
X69756054Y-115596100D01*
X69818838Y-115361789D01*
X69850500Y-115121288D01*
X69850500Y-114878712D01*
X69818838Y-114638211D01*
X69756054Y-114403900D01*
X69663224Y-114179788D01*
X69541936Y-113969711D01*
X69530745Y-113955127D01*
X69514816Y-113934367D01*
X69394266Y-113777263D01*
X69394260Y-113777256D01*
X69222743Y-113605739D01*
X69222736Y-113605733D01*
X69030293Y-113458067D01*
X69030292Y-113458066D01*
X69030289Y-113458064D01*
X68820212Y-113336776D01*
X68820205Y-113336773D01*
X68596104Y-113243947D01*
X68361785Y-113181161D01*
X68121289Y-113149500D01*
X68121288Y-113149500D01*
X67878712Y-113149500D01*
X67878711Y-113149500D01*
X67638214Y-113181161D01*
X67403895Y-113243947D01*
X67179794Y-113336773D01*
X67179785Y-113336777D01*
X66969706Y-113458067D01*
X66777263Y-113605733D01*
X66777256Y-113605739D01*
X66605739Y-113777256D01*
X66605733Y-113777263D01*
X66458067Y-113969706D01*
X66336777Y-114179785D01*
X66336773Y-114179794D01*
X66243947Y-114403895D01*
X66181161Y-114638214D01*
X66149500Y-114878711D01*
X65500500Y-114878711D01*
X65500500Y-84878711D01*
X66149500Y-84878711D01*
X66149500Y-85121288D01*
X66178887Y-85344514D01*
X66181162Y-85361789D01*
X66182337Y-85366174D01*
X66243947Y-85596104D01*
X66336773Y-85820205D01*
X66336776Y-85820212D01*
X66458064Y-86030289D01*
X66458066Y-86030292D01*
X66458067Y-86030293D01*
X66605733Y-86222736D01*
X66605739Y-86222743D01*
X66777256Y-86394260D01*
X66777263Y-86394266D01*
X66808744Y-86418422D01*
X66969711Y-86541936D01*
X67179788Y-86663224D01*
X67403900Y-86756054D01*
X67638211Y-86818838D01*
X67818586Y-86842584D01*
X67878711Y-86850500D01*
X67878712Y-86850500D01*
X68121289Y-86850500D01*
X68169388Y-86844167D01*
X68361789Y-86818838D01*
X68596100Y-86756054D01*
X68820212Y-86663224D01*
X69030289Y-86541936D01*
X69222738Y-86394265D01*
X69394265Y-86222738D01*
X69541936Y-86030289D01*
X69663224Y-85820212D01*
X69756054Y-85596100D01*
X69818838Y-85361789D01*
X69849072Y-85132135D01*
X113149500Y-85132135D01*
X113149500Y-86927870D01*
X113149501Y-86927876D01*
X113155908Y-86987483D01*
X113206202Y-87122328D01*
X113206206Y-87122335D01*
X113292452Y-87237544D01*
X113292455Y-87237547D01*
X113407664Y-87323793D01*
X113407671Y-87323797D01*
X113539082Y-87372810D01*
X113595016Y-87414681D01*
X113619433Y-87480145D01*
X113604582Y-87548418D01*
X113583431Y-87576673D01*
X113469889Y-87690215D01*
X113344951Y-87862179D01*
X113248444Y-88051585D01*
X113182753Y-88253760D01*
X113149500Y-88463713D01*
X113149500Y-88676286D01*
X113181969Y-88881290D01*
X113182754Y-88886243D01*
X113225634Y-89018214D01*
X113248444Y-89088414D01*
X113344951Y-89277820D01*
X113469890Y-89449786D01*
X113620213Y-89600109D01*
X113792182Y-89725050D01*
X113800946Y-89729516D01*
X113851742Y-89777491D01*
X113868536Y-89845312D01*
X113845998Y-89911447D01*
X113800946Y-89950484D01*
X113792182Y-89954949D01*
X113620213Y-90079890D01*
X113469890Y-90230213D01*
X113344951Y-90402179D01*
X113248444Y-90591585D01*
X113182753Y-90793760D01*
X113162763Y-90919975D01*
X113149500Y-91003713D01*
X113149500Y-91216287D01*
X113182754Y-91426243D01*
X113230827Y-91574197D01*
X113248444Y-91628414D01*
X113344951Y-91817820D01*
X113469890Y-91989786D01*
X113620213Y-92140109D01*
X113792182Y-92265050D01*
X113800946Y-92269516D01*
X113851742Y-92317491D01*
X113868536Y-92385312D01*
X113845998Y-92451447D01*
X113800946Y-92490484D01*
X113792182Y-92494949D01*
X113620213Y-92619890D01*
X113469890Y-92770213D01*
X113344951Y-92942179D01*
X113248444Y-93131585D01*
X113182753Y-93333760D01*
X113149500Y-93543713D01*
X113149500Y-93756286D01*
X113178265Y-93937904D01*
X113182754Y-93966243D01*
X113239395Y-94140566D01*
X113248444Y-94168414D01*
X113344951Y-94357820D01*
X113469890Y-94529786D01*
X113620213Y-94680109D01*
X113792182Y-94805050D01*
X113800946Y-94809516D01*
X113851742Y-94857491D01*
X113868536Y-94925312D01*
X113845998Y-94991447D01*
X113800946Y-95030484D01*
X113792182Y-95034949D01*
X113620213Y-95159890D01*
X113469890Y-95310213D01*
X113344951Y-95482179D01*
X113248444Y-95671585D01*
X113182753Y-95873760D01*
X113149500Y-96083713D01*
X113149500Y-96296286D01*
X113163008Y-96381576D01*
X113182754Y-96506243D01*
X113226398Y-96640566D01*
X113248444Y-96708414D01*
X113344951Y-96897820D01*
X113469890Y-97069786D01*
X113620213Y-97220109D01*
X113792179Y-97345048D01*
X113792181Y-97345049D01*
X113792184Y-97345051D01*
X113801493Y-97349794D01*
X113852290Y-97397766D01*
X113869087Y-97465587D01*
X113846552Y-97531722D01*
X113801505Y-97570760D01*
X113792446Y-97575376D01*
X113792440Y-97575380D01*
X113738282Y-97614727D01*
X113738282Y-97614728D01*
X114370591Y-98247037D01*
X114307007Y-98264075D01*
X114192993Y-98329901D01*
X114099901Y-98422993D01*
X114034075Y-98537007D01*
X114017037Y-98600591D01*
X113384728Y-97968282D01*
X113384727Y-97968282D01*
X113345380Y-98022439D01*
X113248904Y-98211782D01*
X113183242Y-98413869D01*
X113183242Y-98413872D01*
X113150000Y-98623753D01*
X113150000Y-98836246D01*
X113183242Y-99046127D01*
X113183242Y-99046130D01*
X113248904Y-99248217D01*
X113345375Y-99437550D01*
X113384728Y-99491716D01*
X114017037Y-98859408D01*
X114034075Y-98922993D01*
X114099901Y-99037007D01*
X114192993Y-99130099D01*
X114307007Y-99195925D01*
X114370590Y-99212962D01*
X113738282Y-99845269D01*
X113738282Y-99845270D01*
X113792452Y-99884626D01*
X113792451Y-99884626D01*
X113801495Y-99889234D01*
X113852292Y-99937208D01*
X113869087Y-100005029D01*
X113846550Y-100071164D01*
X113801499Y-100110202D01*
X113792182Y-100114949D01*
X113620213Y-100239890D01*
X113469890Y-100390213D01*
X113344951Y-100562179D01*
X113248444Y-100751585D01*
X113182753Y-100953760D01*
X113149500Y-101163713D01*
X113149500Y-101376286D01*
X113182205Y-101582781D01*
X113182754Y-101586243D01*
X113228436Y-101726838D01*
X113248444Y-101788414D01*
X113344951Y-101977820D01*
X113469890Y-102149786D01*
X113620213Y-102300109D01*
X113792182Y-102425050D01*
X113800946Y-102429516D01*
X113851742Y-102477491D01*
X113868536Y-102545312D01*
X113845998Y-102611447D01*
X113800946Y-102650484D01*
X113792182Y-102654949D01*
X113620213Y-102779890D01*
X113469890Y-102930213D01*
X113344951Y-103102179D01*
X113248444Y-103291585D01*
X113248443Y-103291587D01*
X113248443Y-103291588D01*
X113245926Y-103299334D01*
X113182753Y-103493760D01*
X113149500Y-103703713D01*
X113149500Y-103916286D01*
X113182753Y-104126239D01*
X113182753Y-104126241D01*
X113182754Y-104126243D01*
X113237431Y-104294522D01*
X113248444Y-104328414D01*
X113344951Y-104517820D01*
X113469890Y-104689786D01*
X113620213Y-104840109D01*
X113792182Y-104965050D01*
X113800946Y-104969516D01*
X113851742Y-105017491D01*
X113868536Y-105085312D01*
X113845998Y-105151447D01*
X113800946Y-105190484D01*
X113792182Y-105194949D01*
X113620213Y-105319890D01*
X113469890Y-105470213D01*
X113344951Y-105642179D01*
X113248444Y-105831585D01*
X113182753Y-106033760D01*
X113162763Y-106159975D01*
X113149500Y-106243713D01*
X113149500Y-106456287D01*
X113182754Y-106666243D01*
X113206206Y-106738422D01*
X113248444Y-106868414D01*
X113344951Y-107057820D01*
X113469890Y-107229786D01*
X113620213Y-107380109D01*
X113792182Y-107505050D01*
X113800946Y-107509516D01*
X113851742Y-107557491D01*
X113868536Y-107625312D01*
X113845998Y-107691447D01*
X113800946Y-107730484D01*
X113792182Y-107734949D01*
X113620213Y-107859890D01*
X113469890Y-108010213D01*
X113344951Y-108182179D01*
X113248444Y-108371585D01*
X113182753Y-108573760D01*
X113149500Y-108783713D01*
X113149500Y-108996286D01*
X113182205Y-109202781D01*
X113182754Y-109206243D01*
X113235587Y-109368846D01*
X113248444Y-109408414D01*
X113344951Y-109597820D01*
X113469890Y-109769786D01*
X113620213Y-109920109D01*
X113792182Y-110045050D01*
X113800946Y-110049516D01*
X113851742Y-110097491D01*
X113868536Y-110165312D01*
X113845998Y-110231447D01*
X113800946Y-110270484D01*
X113792182Y-110274949D01*
X113620213Y-110399890D01*
X113469890Y-110550213D01*
X113344951Y-110722179D01*
X113248444Y-110911585D01*
X113182753Y-111113760D01*
X113160348Y-111255220D01*
X113149500Y-111323713D01*
X113149500Y-111536287D01*
X113182754Y-111746243D01*
X113206206Y-111818422D01*
X113248444Y-111948414D01*
X113344951Y-112137820D01*
X113469890Y-112309786D01*
X113620213Y-112460109D01*
X113792179Y-112585048D01*
X113792181Y-112585049D01*
X113792184Y-112585051D01*
X113801493Y-112589794D01*
X113852290Y-112637766D01*
X113869087Y-112705587D01*
X113846552Y-112771722D01*
X113801505Y-112810760D01*
X113792446Y-112815376D01*
X113792440Y-112815380D01*
X113738282Y-112854727D01*
X113738282Y-112854728D01*
X114370591Y-113487037D01*
X114307007Y-113504075D01*
X114192993Y-113569901D01*
X114099901Y-113662993D01*
X114034075Y-113777007D01*
X114017037Y-113840591D01*
X113384728Y-113208282D01*
X113384727Y-113208282D01*
X113345380Y-113262439D01*
X113248904Y-113451782D01*
X113183242Y-113653869D01*
X113183242Y-113653872D01*
X113150000Y-113863753D01*
X113150000Y-114076246D01*
X113183242Y-114286127D01*
X113183242Y-114286130D01*
X113248904Y-114488217D01*
X113345375Y-114677550D01*
X113384728Y-114731716D01*
X114017037Y-114099408D01*
X114034075Y-114162993D01*
X114099901Y-114277007D01*
X114192993Y-114370099D01*
X114307007Y-114435925D01*
X114370590Y-114452962D01*
X113738282Y-115085269D01*
X113738282Y-115085270D01*
X113792449Y-115124624D01*
X113981782Y-115221095D01*
X114183870Y-115286757D01*
X114393754Y-115320000D01*
X114606246Y-115320000D01*
X114816127Y-115286757D01*
X114816130Y-115286757D01*
X115018217Y-115221095D01*
X115207554Y-115124622D01*
X115261717Y-115085270D01*
X115258349Y-115081902D01*
X118099500Y-115081902D01*
X118099500Y-115318097D01*
X118136446Y-115551368D01*
X118209433Y-115775996D01*
X118308134Y-115969706D01*
X118316657Y-115986433D01*
X118455483Y-116177510D01*
X118622490Y-116344517D01*
X118813567Y-116483343D01*
X118912991Y-116534002D01*
X119024003Y-116590566D01*
X119024005Y-116590566D01*
X119024008Y-116590568D01*
X119131517Y-116625500D01*
X119248631Y-116663553D01*
X119481903Y-116700500D01*
X119481908Y-116700500D01*
X119718097Y-116700500D01*
X119951368Y-116663553D01*
X119964297Y-116659352D01*
X120175992Y-116590568D01*
X120386433Y-116483343D01*
X120577510Y-116344517D01*
X120744517Y-116177510D01*
X120883343Y-115986433D01*
X120990568Y-115775992D01*
X121063553Y-115551368D01*
X121074816Y-115480255D01*
X121082897Y-115429239D01*
X121082897Y-115429238D01*
X121100500Y-115318097D01*
X121100500Y-115081902D01*
X121063553Y-114848631D01*
X121025565Y-114731717D01*
X120990568Y-114624008D01*
X120965604Y-114575013D01*
X125110000Y-114575013D01*
X125110000Y-115000000D01*
X125929670Y-115000000D01*
X125909925Y-115019745D01*
X125860556Y-115105255D01*
X125835000Y-115200630D01*
X125835000Y-115299370D01*
X125860556Y-115394745D01*
X125909925Y-115480255D01*
X125929670Y-115500000D01*
X125110001Y-115500000D01*
X125110001Y-115924986D01*
X125120494Y-116027697D01*
X125175641Y-116194119D01*
X125175643Y-116194124D01*
X125267684Y-116343345D01*
X125391654Y-116467315D01*
X125540875Y-116559356D01*
X125540880Y-116559358D01*
X125707302Y-116614505D01*
X125707309Y-116614506D01*
X125810019Y-116624999D01*
X125959999Y-116624999D01*
X125960000Y-116624998D01*
X125960000Y-115530330D01*
X125979745Y-115550075D01*
X126065255Y-115599444D01*
X126160630Y-115625000D01*
X126259370Y-115625000D01*
X126354745Y-115599444D01*
X126440255Y-115550075D01*
X126460000Y-115530330D01*
X126460000Y-116624999D01*
X126609972Y-116624999D01*
X126609986Y-116624998D01*
X126712697Y-116614505D01*
X126879119Y-116559358D01*
X126879124Y-116559356D01*
X127028345Y-116467315D01*
X127152315Y-116343345D01*
X127191945Y-116279094D01*
X127243893Y-116232368D01*
X127312855Y-116221145D01*
X127376937Y-116248988D01*
X127385166Y-116256508D01*
X127493072Y-116364414D01*
X127633212Y-116466232D01*
X127787555Y-116544873D01*
X127952299Y-116598402D01*
X128123389Y-116625500D01*
X128123390Y-116625500D01*
X128296610Y-116625500D01*
X128296611Y-116625500D01*
X128467701Y-116598402D01*
X128632445Y-116544873D01*
X128786788Y-116466232D01*
X128926928Y-116364414D01*
X129049414Y-116241928D01*
X129151232Y-116101788D01*
X129229873Y-115947445D01*
X129283402Y-115782701D01*
X129310500Y-115611611D01*
X129310500Y-114888389D01*
X129283402Y-114717299D01*
X129229873Y-114552555D01*
X129151232Y-114398212D01*
X129049414Y-114258072D01*
X128926928Y-114135586D01*
X128786788Y-114033768D01*
X128632445Y-113955127D01*
X128467701Y-113901598D01*
X128467699Y-113901597D01*
X128467698Y-113901597D01*
X128336271Y-113880781D01*
X128296611Y-113874500D01*
X128123389Y-113874500D01*
X128083728Y-113880781D01*
X127952302Y-113901597D01*
X127787552Y-113955128D01*
X127633211Y-114033768D01*
X127493073Y-114135585D01*
X127385166Y-114243492D01*
X127323843Y-114276976D01*
X127254151Y-114271992D01*
X127198218Y-114230120D01*
X127191946Y-114220906D01*
X127152317Y-114156656D01*
X127028345Y-114032684D01*
X126879124Y-113940643D01*
X126879119Y-113940641D01*
X126712697Y-113885494D01*
X126712690Y-113885493D01*
X126609986Y-113875000D01*
X126460000Y-113875000D01*
X126460000Y-114969670D01*
X126440255Y-114949925D01*
X126354745Y-114900556D01*
X126259370Y-114875000D01*
X126160630Y-114875000D01*
X126065255Y-114900556D01*
X125979745Y-114949925D01*
X125960000Y-114969670D01*
X125960000Y-113875000D01*
X125810027Y-113875000D01*
X125810012Y-113875001D01*
X125707302Y-113885494D01*
X125540880Y-113940641D01*
X125540875Y-113940643D01*
X125391654Y-114032684D01*
X125267684Y-114156654D01*
X125175643Y-114305875D01*
X125175641Y-114305880D01*
X125120494Y-114472302D01*
X125120493Y-114472309D01*
X125110000Y-114575013D01*
X120965604Y-114575013D01*
X120883343Y-114413567D01*
X120744517Y-114222490D01*
X120577510Y-114055483D01*
X120386433Y-113916657D01*
X120356876Y-113901597D01*
X120175996Y-113809433D01*
X119951368Y-113736446D01*
X119718097Y-113699500D01*
X119718092Y-113699500D01*
X119481908Y-113699500D01*
X119481903Y-113699500D01*
X119248631Y-113736446D01*
X119024003Y-113809433D01*
X118813566Y-113916657D01*
X118704550Y-113995862D01*
X118622490Y-114055483D01*
X118622488Y-114055485D01*
X118622487Y-114055485D01*
X118455485Y-114222487D01*
X118455485Y-114222488D01*
X118455483Y-114222490D01*
X118402801Y-114295000D01*
X118316657Y-114413566D01*
X118209433Y-114624003D01*
X118136446Y-114848631D01*
X118099500Y-115081902D01*
X115258349Y-115081902D01*
X114629408Y-114452962D01*
X114692993Y-114435925D01*
X114807007Y-114370099D01*
X114900099Y-114277007D01*
X114965925Y-114162993D01*
X114982962Y-114099409D01*
X115615270Y-114731717D01*
X115615270Y-114731716D01*
X115654622Y-114677554D01*
X115751095Y-114488217D01*
X115816757Y-114286130D01*
X115816757Y-114286127D01*
X115850000Y-114076246D01*
X115850000Y-113863753D01*
X115816757Y-113653872D01*
X115816757Y-113653869D01*
X115751095Y-113451782D01*
X115654624Y-113262449D01*
X115615270Y-113208282D01*
X115615269Y-113208282D01*
X114982962Y-113840590D01*
X114965925Y-113777007D01*
X114900099Y-113662993D01*
X114807007Y-113569901D01*
X114692993Y-113504075D01*
X114629409Y-113487037D01*
X115261716Y-112854728D01*
X115207547Y-112815373D01*
X115207547Y-112815372D01*
X115198500Y-112810763D01*
X115147706Y-112762788D01*
X115130912Y-112694966D01*
X115153451Y-112628832D01*
X115198508Y-112589793D01*
X115207816Y-112585051D01*
X115287007Y-112527515D01*
X115379786Y-112460109D01*
X115379788Y-112460106D01*
X115379792Y-112460104D01*
X115530104Y-112309792D01*
X115530106Y-112309788D01*
X115530109Y-112309786D01*
X115655048Y-112137820D01*
X115655047Y-112137820D01*
X115655051Y-112137816D01*
X115751557Y-111948412D01*
X115817246Y-111746243D01*
X115850500Y-111536287D01*
X115850500Y-111323713D01*
X115827401Y-111177872D01*
X115817399Y-111114722D01*
X115817398Y-111114721D01*
X115817246Y-111113757D01*
X115803428Y-111071233D01*
X115803380Y-111071081D01*
X115802505Y-111036417D01*
X115801512Y-111001635D01*
X115801623Y-111001441D01*
X115801618Y-111001234D01*
X115803877Y-110997515D01*
X115833755Y-110945478D01*
X118992416Y-107786819D01*
X119053739Y-107753334D01*
X119080097Y-107750500D01*
X164416589Y-107750500D01*
X164483628Y-107770185D01*
X164529383Y-107822989D01*
X164539327Y-107892147D01*
X164510302Y-107955703D01*
X164504270Y-107962181D01*
X164153270Y-108313181D01*
X164091947Y-108346666D01*
X164065589Y-108349500D01*
X136954867Y-108349500D01*
X136887828Y-108329815D01*
X136885976Y-108328602D01*
X136799184Y-108270609D01*
X136799172Y-108270602D01*
X136653501Y-108210264D01*
X136653489Y-108210261D01*
X136498845Y-108179500D01*
X136498842Y-108179500D01*
X136341158Y-108179500D01*
X136341155Y-108179500D01*
X136186510Y-108210261D01*
X136186498Y-108210264D01*
X136040827Y-108270602D01*
X136040814Y-108270609D01*
X135909711Y-108358210D01*
X135909707Y-108358213D01*
X135798213Y-108469707D01*
X135798210Y-108469711D01*
X135710609Y-108600814D01*
X135710602Y-108600827D01*
X135650264Y-108746498D01*
X135650261Y-108746510D01*
X135619500Y-108901153D01*
X135619500Y-109058846D01*
X135650261Y-109213489D01*
X135650264Y-109213501D01*
X135710602Y-109359172D01*
X135710609Y-109359185D01*
X135798210Y-109490288D01*
X135798213Y-109490292D01*
X135909707Y-109601786D01*
X135909711Y-109601789D01*
X136040814Y-109689390D01*
X136040827Y-109689397D01*
X136176469Y-109745581D01*
X136186503Y-109749737D01*
X136287326Y-109769792D01*
X136341153Y-109780499D01*
X136341156Y-109780500D01*
X136341158Y-109780500D01*
X136498844Y-109780500D01*
X136498845Y-109780499D01*
X136653497Y-109749737D01*
X136799179Y-109689394D01*
X136930289Y-109601789D01*
X136934262Y-109597816D01*
X136945260Y-109586819D01*
X137006583Y-109553334D01*
X137032941Y-109550500D01*
X154994724Y-109550500D01*
X155061763Y-109570185D01*
X155107518Y-109622989D01*
X155117462Y-109692147D01*
X155112655Y-109712817D01*
X155102011Y-109745574D01*
X155102010Y-109745581D01*
X155070000Y-109947682D01*
X155070000Y-110152317D01*
X155102009Y-110354417D01*
X155165244Y-110549031D01*
X155258141Y-110731350D01*
X155258147Y-110731359D01*
X155290523Y-110775921D01*
X155290524Y-110775922D01*
X155970000Y-110096446D01*
X155970000Y-110102661D01*
X155997259Y-110204394D01*
X156049920Y-110295606D01*
X156124394Y-110370080D01*
X156215606Y-110422741D01*
X156317339Y-110450000D01*
X156323553Y-110450000D01*
X155644076Y-111129474D01*
X155688650Y-111161859D01*
X155870968Y-111254755D01*
X156065582Y-111317990D01*
X156267683Y-111350000D01*
X156472317Y-111350000D01*
X156674417Y-111317990D01*
X156869031Y-111254755D01*
X157051349Y-111161859D01*
X157095921Y-111129474D01*
X156416447Y-110450000D01*
X156422661Y-110450000D01*
X156524394Y-110422741D01*
X156615606Y-110370080D01*
X156690080Y-110295606D01*
X156742741Y-110204394D01*
X156770000Y-110102661D01*
X156770000Y-110096447D01*
X157449474Y-110775921D01*
X157481861Y-110731347D01*
X157481861Y-110731346D01*
X157529234Y-110638371D01*
X157577208Y-110587575D01*
X157645028Y-110570779D01*
X157711164Y-110593316D01*
X157750203Y-110638369D01*
X157797713Y-110731611D01*
X157918028Y-110897213D01*
X158062786Y-111041971D01*
X158183226Y-111129474D01*
X158228390Y-111162287D01*
X158344607Y-111221503D01*
X158410776Y-111255218D01*
X158410778Y-111255218D01*
X158410781Y-111255220D01*
X158515137Y-111289127D01*
X158605465Y-111318477D01*
X158638524Y-111323713D01*
X158807648Y-111350500D01*
X158807649Y-111350500D01*
X159012351Y-111350500D01*
X159012352Y-111350500D01*
X159214534Y-111318477D01*
X159409219Y-111255220D01*
X159591610Y-111162287D01*
X159684590Y-111094732D01*
X159757213Y-111041971D01*
X159757215Y-111041968D01*
X159757219Y-111041966D01*
X159901966Y-110897219D01*
X159901968Y-110897215D01*
X159901971Y-110897213D01*
X160022284Y-110731614D01*
X160022286Y-110731611D01*
X160022287Y-110731610D01*
X160069516Y-110638917D01*
X160117489Y-110588123D01*
X160185310Y-110571328D01*
X160251445Y-110593865D01*
X160290483Y-110638917D01*
X160332908Y-110722179D01*
X160337715Y-110731614D01*
X160458028Y-110897213D01*
X160602786Y-111041971D01*
X160723226Y-111129474D01*
X160768390Y-111162287D01*
X160884607Y-111221503D01*
X160950776Y-111255218D01*
X160950778Y-111255218D01*
X160950781Y-111255220D01*
X161055137Y-111289127D01*
X161145465Y-111318477D01*
X161178524Y-111323713D01*
X161347648Y-111350500D01*
X161347649Y-111350500D01*
X161552351Y-111350500D01*
X161552352Y-111350500D01*
X161754534Y-111318477D01*
X161949219Y-111255220D01*
X162131610Y-111162287D01*
X162224590Y-111094732D01*
X162297213Y-111041971D01*
X162297215Y-111041968D01*
X162297219Y-111041966D01*
X162441966Y-110897219D01*
X162441968Y-110897215D01*
X162441971Y-110897213D01*
X162562284Y-110731614D01*
X162562286Y-110731611D01*
X162562287Y-110731610D01*
X162609516Y-110638917D01*
X162657489Y-110588123D01*
X162725310Y-110571328D01*
X162791445Y-110593865D01*
X162830483Y-110638917D01*
X162872908Y-110722179D01*
X162877715Y-110731614D01*
X162998028Y-110897213D01*
X163142786Y-111041971D01*
X163308388Y-111162286D01*
X163338976Y-111177872D01*
X163389771Y-111225846D01*
X163406566Y-111293667D01*
X163384028Y-111359802D01*
X163370361Y-111376037D01*
X161383219Y-113363181D01*
X161321896Y-113396666D01*
X161295538Y-113399500D01*
X156896670Y-113399500D01*
X156896654Y-113399499D01*
X156889058Y-113399499D01*
X156730943Y-113399499D01*
X156654579Y-113419961D01*
X156578214Y-113440423D01*
X156578209Y-113440426D01*
X156441290Y-113519475D01*
X156441282Y-113519481D01*
X155706226Y-114254537D01*
X155644903Y-114288022D01*
X155605943Y-114290214D01*
X155550011Y-114284500D01*
X154749998Y-114284500D01*
X154749980Y-114284501D01*
X154647203Y-114295000D01*
X154647200Y-114295001D01*
X154480668Y-114350185D01*
X154480663Y-114350187D01*
X154331342Y-114442289D01*
X154207289Y-114566342D01*
X154115187Y-114715663D01*
X154115185Y-114715668D01*
X154098239Y-114766808D01*
X154060001Y-114882203D01*
X154060001Y-114882204D01*
X154060000Y-114882204D01*
X154049500Y-114984983D01*
X154049500Y-116335001D01*
X154049501Y-116335018D01*
X154060000Y-116437796D01*
X154060001Y-116437799D01*
X154115185Y-116604331D01*
X154115187Y-116604336D01*
X154136081Y-116638211D01*
X154207288Y-116753656D01*
X154331344Y-116877712D01*
X154480666Y-116969814D01*
X154647203Y-117024999D01*
X154749991Y-117035500D01*
X155550008Y-117035499D01*
X155550016Y-117035498D01*
X155550019Y-117035498D01*
X155606302Y-117029748D01*
X155652797Y-117024999D01*
X155819334Y-116969814D01*
X155968656Y-116877712D01*
X156092712Y-116753656D01*
X156132310Y-116689456D01*
X156184258Y-116642732D01*
X156253220Y-116631509D01*
X156317303Y-116659352D01*
X156325530Y-116666872D01*
X156433072Y-116774414D01*
X156573212Y-116876232D01*
X156727555Y-116954873D01*
X156892299Y-117008402D01*
X157063389Y-117035500D01*
X157063390Y-117035500D01*
X157236610Y-117035500D01*
X157236611Y-117035500D01*
X157407701Y-117008402D01*
X157572445Y-116954873D01*
X157726788Y-116876232D01*
X157866928Y-116774414D01*
X157989414Y-116651928D01*
X158049682Y-116568975D01*
X158105012Y-116526311D01*
X158174626Y-116520332D01*
X158236421Y-116552938D01*
X158250315Y-116568973D01*
X158310586Y-116651928D01*
X158433072Y-116774414D01*
X158573212Y-116876232D01*
X158727555Y-116954873D01*
X158892299Y-117008402D01*
X159063389Y-117035500D01*
X159063390Y-117035500D01*
X159236610Y-117035500D01*
X159236611Y-117035500D01*
X159407701Y-117008402D01*
X159572445Y-116954873D01*
X159726788Y-116876232D01*
X159866928Y-116774414D01*
X159989414Y-116651928D01*
X160049682Y-116568975D01*
X160105012Y-116526311D01*
X160174626Y-116520332D01*
X160236421Y-116552938D01*
X160250315Y-116568973D01*
X160310586Y-116651928D01*
X160433072Y-116774414D01*
X160573212Y-116876232D01*
X160727555Y-116954873D01*
X160892299Y-117008402D01*
X161063389Y-117035500D01*
X161063390Y-117035500D01*
X161236610Y-117035500D01*
X161236611Y-117035500D01*
X161407701Y-117008402D01*
X161572445Y-116954873D01*
X161726788Y-116876232D01*
X161866928Y-116774414D01*
X161989414Y-116651928D01*
X162049682Y-116568975D01*
X162105012Y-116526311D01*
X162174626Y-116520332D01*
X162236421Y-116552938D01*
X162250315Y-116568973D01*
X162310586Y-116651928D01*
X162433072Y-116774414D01*
X162573212Y-116876232D01*
X162727555Y-116954873D01*
X162892299Y-117008402D01*
X163063389Y-117035500D01*
X163063390Y-117035500D01*
X163236610Y-117035500D01*
X163236611Y-117035500D01*
X163407701Y-117008402D01*
X163572445Y-116954873D01*
X163721923Y-116878711D01*
X199149500Y-116878711D01*
X199149500Y-117121288D01*
X199181161Y-117361785D01*
X199243947Y-117596104D01*
X199247771Y-117605335D01*
X199336776Y-117820212D01*
X199458064Y-118030289D01*
X199458066Y-118030292D01*
X199458067Y-118030293D01*
X199605733Y-118222736D01*
X199605739Y-118222743D01*
X199777256Y-118394260D01*
X199777263Y-118394266D01*
X199818336Y-118425782D01*
X199969711Y-118541936D01*
X200179788Y-118663224D01*
X200403900Y-118756054D01*
X200638211Y-118818838D01*
X200818586Y-118842584D01*
X200878711Y-118850500D01*
X200878712Y-118850500D01*
X201121289Y-118850500D01*
X201169388Y-118844167D01*
X201361789Y-118818838D01*
X201596100Y-118756054D01*
X201820212Y-118663224D01*
X202030289Y-118541936D01*
X202222738Y-118394265D01*
X202394265Y-118222738D01*
X202541936Y-118030289D01*
X202663224Y-117820212D01*
X202756054Y-117596100D01*
X202818838Y-117361789D01*
X202850500Y-117121288D01*
X202850500Y-116878712D01*
X202850500Y-116878711D01*
X223149500Y-116878711D01*
X223149500Y-117121288D01*
X223181161Y-117361785D01*
X223243947Y-117596104D01*
X223247771Y-117605335D01*
X223336776Y-117820212D01*
X223458064Y-118030289D01*
X223458066Y-118030292D01*
X223458067Y-118030293D01*
X223605733Y-118222736D01*
X223605739Y-118222743D01*
X223777256Y-118394260D01*
X223777263Y-118394266D01*
X223818336Y-118425782D01*
X223969711Y-118541936D01*
X224179788Y-118663224D01*
X224403900Y-118756054D01*
X224638211Y-118818838D01*
X224818586Y-118842584D01*
X224878711Y-118850500D01*
X224878712Y-118850500D01*
X225121289Y-118850500D01*
X225169388Y-118844167D01*
X225361789Y-118818838D01*
X225596100Y-118756054D01*
X225820212Y-118663224D01*
X226030289Y-118541936D01*
X226222738Y-118394265D01*
X226394265Y-118222738D01*
X226541936Y-118030289D01*
X226663224Y-117820212D01*
X226756054Y-117596100D01*
X226818838Y-117361789D01*
X226850500Y-117121288D01*
X226850500Y-116878712D01*
X226850173Y-116876231D01*
X226834352Y-116756052D01*
X226818838Y-116638211D01*
X226756054Y-116403900D01*
X226752063Y-116394266D01*
X226663224Y-116179788D01*
X226663222Y-116179785D01*
X226661909Y-116177510D01*
X226541936Y-115969711D01*
X226427216Y-115820205D01*
X226394266Y-115777263D01*
X226394260Y-115777256D01*
X226222743Y-115605739D01*
X226222736Y-115605733D01*
X226030293Y-115458067D01*
X226030292Y-115458066D01*
X226030289Y-115458064D01*
X225820212Y-115336776D01*
X225820205Y-115336773D01*
X225596104Y-115243947D01*
X225361785Y-115181161D01*
X225121289Y-115149500D01*
X225121288Y-115149500D01*
X224878712Y-115149500D01*
X224878711Y-115149500D01*
X224638214Y-115181161D01*
X224403895Y-115243947D01*
X224179794Y-115336773D01*
X224179785Y-115336777D01*
X223969706Y-115458067D01*
X223777263Y-115605733D01*
X223777256Y-115605739D01*
X223605739Y-115777256D01*
X223605733Y-115777263D01*
X223458067Y-115969706D01*
X223336777Y-116179785D01*
X223336776Y-116179788D01*
X223243947Y-116403895D01*
X223181161Y-116638214D01*
X223149500Y-116878711D01*
X202850500Y-116878711D01*
X202850173Y-116876231D01*
X202834352Y-116756052D01*
X202818838Y-116638211D01*
X202756054Y-116403900D01*
X202752063Y-116394266D01*
X202663224Y-116179788D01*
X202663222Y-116179785D01*
X202661909Y-116177510D01*
X202541936Y-115969711D01*
X202427216Y-115820205D01*
X202394266Y-115777263D01*
X202394260Y-115777256D01*
X202222743Y-115605739D01*
X202222736Y-115605733D01*
X202030293Y-115458067D01*
X202030292Y-115458066D01*
X202030289Y-115458064D01*
X201820212Y-115336776D01*
X201820205Y-115336773D01*
X201596104Y-115243947D01*
X201361785Y-115181161D01*
X201121289Y-115149500D01*
X201121288Y-115149500D01*
X200878712Y-115149500D01*
X200878711Y-115149500D01*
X200638214Y-115181161D01*
X200403895Y-115243947D01*
X200179794Y-115336773D01*
X200179785Y-115336777D01*
X199969706Y-115458067D01*
X199777263Y-115605733D01*
X199777256Y-115605739D01*
X199605739Y-115777256D01*
X199605733Y-115777263D01*
X199458067Y-115969706D01*
X199336777Y-116179785D01*
X199336776Y-116179788D01*
X199243947Y-116403895D01*
X199181161Y-116638214D01*
X199149500Y-116878711D01*
X163721923Y-116878711D01*
X163726788Y-116876232D01*
X163866928Y-116774414D01*
X163989414Y-116651928D01*
X164091232Y-116511788D01*
X164169873Y-116357445D01*
X164173532Y-116346181D01*
X164212968Y-116288508D01*
X164277326Y-116261308D01*
X164291463Y-116260500D01*
X173473331Y-116260500D01*
X173473347Y-116260501D01*
X173480943Y-116260501D01*
X173639054Y-116260501D01*
X173639057Y-116260501D01*
X173791785Y-116219577D01*
X173860701Y-116179788D01*
X173928716Y-116140520D01*
X174040520Y-116028716D01*
X174040520Y-116028714D01*
X174050724Y-116018511D01*
X174050727Y-116018506D01*
X174987331Y-115081902D01*
X193099500Y-115081902D01*
X193099500Y-115318097D01*
X193136446Y-115551368D01*
X193209433Y-115775996D01*
X193308134Y-115969706D01*
X193316657Y-115986433D01*
X193455483Y-116177510D01*
X193622490Y-116344517D01*
X193813567Y-116483343D01*
X193912991Y-116534002D01*
X194024003Y-116590566D01*
X194024005Y-116590566D01*
X194024008Y-116590568D01*
X194131517Y-116625500D01*
X194248631Y-116663553D01*
X194481903Y-116700500D01*
X194481908Y-116700500D01*
X194718097Y-116700500D01*
X194951368Y-116663553D01*
X194964297Y-116659352D01*
X195175992Y-116590568D01*
X195386433Y-116483343D01*
X195577510Y-116344517D01*
X195744517Y-116177510D01*
X195883343Y-115986433D01*
X195990568Y-115775992D01*
X196063553Y-115551368D01*
X196074816Y-115480255D01*
X196100500Y-115318097D01*
X196100500Y-115081902D01*
X196070747Y-114894051D01*
X196068317Y-114878711D01*
X230149500Y-114878711D01*
X230149500Y-115121288D01*
X230181161Y-115361785D01*
X230243947Y-115596104D01*
X230318986Y-115777263D01*
X230336776Y-115820212D01*
X230458064Y-116030289D01*
X230458066Y-116030292D01*
X230458067Y-116030293D01*
X230605733Y-116222736D01*
X230605739Y-116222743D01*
X230777256Y-116394260D01*
X230777263Y-116394266D01*
X230833993Y-116437796D01*
X230969711Y-116541936D01*
X231179788Y-116663224D01*
X231403900Y-116756054D01*
X231638211Y-116818838D01*
X231818586Y-116842584D01*
X231878711Y-116850500D01*
X231878712Y-116850500D01*
X232121289Y-116850500D01*
X232169388Y-116844167D01*
X232361789Y-116818838D01*
X232596100Y-116756054D01*
X232820212Y-116663224D01*
X233030289Y-116541936D01*
X233222738Y-116394265D01*
X233394265Y-116222738D01*
X233541936Y-116030289D01*
X233663224Y-115820212D01*
X233756054Y-115596100D01*
X233818838Y-115361789D01*
X233850500Y-115121288D01*
X233850500Y-114878712D01*
X233818838Y-114638211D01*
X233756054Y-114403900D01*
X233663224Y-114179788D01*
X233541936Y-113969711D01*
X233394265Y-113777262D01*
X233394260Y-113777256D01*
X233222743Y-113605739D01*
X233222736Y-113605733D01*
X233030293Y-113458067D01*
X233030292Y-113458066D01*
X233030289Y-113458064D01*
X232820212Y-113336776D01*
X232820205Y-113336773D01*
X232596104Y-113243947D01*
X232361785Y-113181161D01*
X232121289Y-113149500D01*
X232121288Y-113149500D01*
X231878712Y-113149500D01*
X231878711Y-113149500D01*
X231638214Y-113181161D01*
X231403895Y-113243947D01*
X231179794Y-113336773D01*
X231179785Y-113336777D01*
X230969706Y-113458067D01*
X230777263Y-113605733D01*
X230777256Y-113605739D01*
X230605739Y-113777256D01*
X230605733Y-113777263D01*
X230458067Y-113969706D01*
X230336777Y-114179785D01*
X230336773Y-114179794D01*
X230243947Y-114403895D01*
X230181161Y-114638214D01*
X230149500Y-114878711D01*
X196068317Y-114878711D01*
X196063553Y-114848631D01*
X196020350Y-114715668D01*
X195990568Y-114624008D01*
X195990566Y-114624004D01*
X195990566Y-114624003D01*
X195914177Y-114474083D01*
X195883343Y-114413567D01*
X195744517Y-114222490D01*
X195577510Y-114055483D01*
X195386433Y-113916657D01*
X195356876Y-113901597D01*
X195175996Y-113809433D01*
X194951368Y-113736446D01*
X194718097Y-113699500D01*
X194718092Y-113699500D01*
X194481908Y-113699500D01*
X194481903Y-113699500D01*
X194248631Y-113736446D01*
X194024003Y-113809433D01*
X193813566Y-113916657D01*
X193704550Y-113995862D01*
X193622490Y-114055483D01*
X193622488Y-114055485D01*
X193622487Y-114055485D01*
X193455485Y-114222487D01*
X193455485Y-114222488D01*
X193455483Y-114222490D01*
X193402801Y-114295000D01*
X193316657Y-114413566D01*
X193209433Y-114624003D01*
X193136446Y-114848631D01*
X193099500Y-115081902D01*
X174987331Y-115081902D01*
X179944662Y-110124572D01*
X180005983Y-110091089D01*
X180008150Y-110090638D01*
X180066085Y-110079113D01*
X180163497Y-110059737D01*
X180309179Y-109999394D01*
X180440289Y-109911789D01*
X180551789Y-109800289D01*
X180639394Y-109669179D01*
X180699737Y-109523497D01*
X180730500Y-109368842D01*
X180730500Y-109211158D01*
X180730500Y-109211155D01*
X180730499Y-109211153D01*
X180715676Y-109136633D01*
X180699737Y-109056503D01*
X180674795Y-108996287D01*
X180637063Y-108905192D01*
X180638771Y-108904484D01*
X180626291Y-108844556D01*
X180651289Y-108779311D01*
X180707592Y-108737938D01*
X180749892Y-108730500D01*
X186330612Y-108730500D01*
X186397651Y-108750185D01*
X186443406Y-108802989D01*
X186453350Y-108872147D01*
X186451186Y-108883447D01*
X186450290Y-108887178D01*
X186419500Y-109081577D01*
X186419500Y-109278422D01*
X186450290Y-109472826D01*
X186511117Y-109660029D01*
X186582585Y-109800292D01*
X186600476Y-109835405D01*
X186716172Y-109994646D01*
X186855354Y-110133828D01*
X187014595Y-110249524D01*
X187055732Y-110270484D01*
X187191213Y-110339515D01*
X187242009Y-110387489D01*
X187258804Y-110455310D01*
X187236267Y-110521445D01*
X187191213Y-110560485D01*
X187014594Y-110650476D01*
X186923741Y-110716485D01*
X186855354Y-110766172D01*
X186855352Y-110766174D01*
X186855351Y-110766174D01*
X186716174Y-110905351D01*
X186716174Y-110905352D01*
X186716172Y-110905354D01*
X186666485Y-110973741D01*
X186600476Y-111064594D01*
X186511117Y-111239970D01*
X186450290Y-111427173D01*
X186419500Y-111621577D01*
X186419500Y-111818422D01*
X186450290Y-112012826D01*
X186511117Y-112200029D01*
X186600476Y-112375405D01*
X186716172Y-112534646D01*
X186855354Y-112673828D01*
X187014595Y-112789524D01*
X187065325Y-112815372D01*
X187189970Y-112878882D01*
X187189972Y-112878882D01*
X187189975Y-112878884D01*
X187290317Y-112911487D01*
X187377173Y-112939709D01*
X187571578Y-112970500D01*
X187571583Y-112970500D01*
X187768422Y-112970500D01*
X187962826Y-112939709D01*
X188150025Y-112878884D01*
X188325405Y-112789524D01*
X188484646Y-112673828D01*
X188623828Y-112534646D01*
X188739524Y-112375405D01*
X188828884Y-112200025D01*
X188889709Y-112012826D01*
X188899911Y-111948412D01*
X188920500Y-111818422D01*
X188920500Y-111621577D01*
X188889709Y-111427173D01*
X188833837Y-111255220D01*
X188828884Y-111239975D01*
X188828882Y-111239972D01*
X188828882Y-111239970D01*
X188765065Y-111114722D01*
X188739524Y-111064595D01*
X188623828Y-110905354D01*
X188484646Y-110766172D01*
X188405025Y-110708324D01*
X188325403Y-110650474D01*
X188148787Y-110560485D01*
X188097990Y-110512511D01*
X188081195Y-110444690D01*
X188103732Y-110378555D01*
X188148787Y-110339515D01*
X188325403Y-110249525D01*
X188325402Y-110249525D01*
X188325405Y-110249524D01*
X188484646Y-110133828D01*
X188623828Y-109994646D01*
X188739524Y-109835405D01*
X188828884Y-109660025D01*
X188889709Y-109472826D01*
X188896435Y-109430361D01*
X188920500Y-109278422D01*
X188920500Y-109081577D01*
X188898036Y-108939748D01*
X188889709Y-108887174D01*
X188889705Y-108887162D01*
X188888814Y-108883447D01*
X188892305Y-108813664D01*
X188932969Y-108756847D01*
X188997895Y-108731034D01*
X189009388Y-108730500D01*
X190103331Y-108730500D01*
X190103347Y-108730501D01*
X190110943Y-108730501D01*
X190269054Y-108730501D01*
X190269057Y-108730501D01*
X190421785Y-108689577D01*
X190433265Y-108682948D01*
X190476104Y-108658216D01*
X190476105Y-108658215D01*
X190558716Y-108610520D01*
X190670520Y-108498716D01*
X190670520Y-108498714D01*
X190680724Y-108488511D01*
X190680727Y-108488506D01*
X197262416Y-101906819D01*
X197323739Y-101873334D01*
X197350097Y-101870500D01*
X198714281Y-101870500D01*
X198781320Y-101890185D01*
X198824765Y-101938205D01*
X198844947Y-101977814D01*
X198844948Y-101977815D01*
X198969890Y-102149786D01*
X199120213Y-102300109D01*
X199292179Y-102425048D01*
X199292181Y-102425049D01*
X199292184Y-102425051D01*
X199301493Y-102429794D01*
X199352290Y-102477766D01*
X199369087Y-102545587D01*
X199346552Y-102611722D01*
X199301505Y-102650760D01*
X199292446Y-102655376D01*
X199292440Y-102655380D01*
X199238282Y-102694727D01*
X199238282Y-102694728D01*
X199870591Y-103327037D01*
X199807007Y-103344075D01*
X199692993Y-103409901D01*
X199599901Y-103502993D01*
X199534075Y-103617007D01*
X199517037Y-103680591D01*
X198884728Y-103048282D01*
X198884727Y-103048282D01*
X198845380Y-103102439D01*
X198748904Y-103291782D01*
X198683242Y-103493869D01*
X198683242Y-103493872D01*
X198650000Y-103703753D01*
X198650000Y-103916246D01*
X198683242Y-104126127D01*
X198683242Y-104126130D01*
X198748904Y-104328217D01*
X198845375Y-104517550D01*
X198884728Y-104571716D01*
X199517037Y-103939408D01*
X199534075Y-104002993D01*
X199599901Y-104117007D01*
X199692993Y-104210099D01*
X199807007Y-104275925D01*
X199870590Y-104292962D01*
X199238282Y-104925269D01*
X199238282Y-104925270D01*
X199292449Y-104964624D01*
X199481782Y-105061095D01*
X199683870Y-105126757D01*
X199893754Y-105160000D01*
X200106246Y-105160000D01*
X200316127Y-105126757D01*
X200316130Y-105126757D01*
X200518217Y-105061095D01*
X200707554Y-104964622D01*
X200761716Y-104925270D01*
X200761717Y-104925270D01*
X200129408Y-104292962D01*
X200192993Y-104275925D01*
X200307007Y-104210099D01*
X200400099Y-104117007D01*
X200465925Y-104002993D01*
X200482962Y-103939409D01*
X201115270Y-104571717D01*
X201115270Y-104571716D01*
X201154622Y-104517554D01*
X201251095Y-104328217D01*
X201316757Y-104126130D01*
X201316757Y-104126127D01*
X201350000Y-103916246D01*
X201350000Y-103703753D01*
X201316757Y-103493872D01*
X201316757Y-103493869D01*
X201251095Y-103291782D01*
X201154624Y-103102449D01*
X201115270Y-103048282D01*
X201115269Y-103048282D01*
X200482962Y-103680590D01*
X200465925Y-103617007D01*
X200400099Y-103502993D01*
X200307007Y-103409901D01*
X200192993Y-103344075D01*
X200129409Y-103327037D01*
X200761716Y-102694728D01*
X200707547Y-102655373D01*
X200707547Y-102655372D01*
X200698500Y-102650763D01*
X200647706Y-102602788D01*
X200630912Y-102534966D01*
X200653451Y-102468832D01*
X200698508Y-102429793D01*
X200707816Y-102425051D01*
X200841881Y-102327648D01*
X200879786Y-102300109D01*
X200879788Y-102300106D01*
X200879792Y-102300104D01*
X201030104Y-102149792D01*
X201030106Y-102149788D01*
X201030109Y-102149786D01*
X201155048Y-101977820D01*
X201155047Y-101977820D01*
X201155051Y-101977816D01*
X201251557Y-101788412D01*
X201317246Y-101586243D01*
X201350500Y-101376287D01*
X201350500Y-101163713D01*
X201317246Y-100953757D01*
X201251557Y-100751588D01*
X201155051Y-100562184D01*
X201155049Y-100562181D01*
X201155048Y-100562179D01*
X201030109Y-100390213D01*
X200879786Y-100239890D01*
X200707820Y-100114951D01*
X200707115Y-100114591D01*
X200699054Y-100110485D01*
X200648259Y-100062512D01*
X200631463Y-99994692D01*
X200653999Y-99928556D01*
X200699054Y-99889515D01*
X200707816Y-99885051D01*
X200769108Y-99840520D01*
X200879786Y-99760109D01*
X200879788Y-99760106D01*
X200879792Y-99760104D01*
X201030104Y-99609792D01*
X201030106Y-99609788D01*
X201030109Y-99609786D01*
X201154149Y-99439057D01*
X201155051Y-99437816D01*
X201251557Y-99248412D01*
X201317246Y-99046243D01*
X201350500Y-98836287D01*
X201350500Y-98623713D01*
X201317246Y-98413757D01*
X201251557Y-98211588D01*
X201155051Y-98022184D01*
X201155049Y-98022181D01*
X201155048Y-98022179D01*
X201030109Y-97850213D01*
X200916569Y-97736673D01*
X200883084Y-97675350D01*
X200888068Y-97605658D01*
X200929940Y-97549725D01*
X200960915Y-97532810D01*
X201092331Y-97483796D01*
X201207546Y-97397546D01*
X201293796Y-97282331D01*
X201344091Y-97147483D01*
X201350500Y-97087873D01*
X201350499Y-95292128D01*
X201344091Y-95232517D01*
X201333712Y-95204690D01*
X201293797Y-95097671D01*
X201293793Y-95097664D01*
X201207547Y-94982455D01*
X201207544Y-94982452D01*
X201092335Y-94896206D01*
X201092328Y-94896202D01*
X200957482Y-94845908D01*
X200957483Y-94845908D01*
X200897883Y-94839501D01*
X200897881Y-94839500D01*
X200897873Y-94839500D01*
X200897864Y-94839500D01*
X199102129Y-94839500D01*
X199102123Y-94839501D01*
X199042516Y-94845908D01*
X198907671Y-94896202D01*
X198907664Y-94896206D01*
X198792455Y-94982452D01*
X198792452Y-94982455D01*
X198706206Y-95097664D01*
X198706202Y-95097671D01*
X198655908Y-95232517D01*
X198649501Y-95292116D01*
X198649501Y-95292123D01*
X198649500Y-95292135D01*
X198649500Y-97087870D01*
X198649501Y-97087876D01*
X198655908Y-97147483D01*
X198706202Y-97282328D01*
X198706206Y-97282335D01*
X198792452Y-97397544D01*
X198792455Y-97397547D01*
X198907664Y-97483793D01*
X198907671Y-97483797D01*
X199039082Y-97532810D01*
X199095016Y-97574681D01*
X199119433Y-97640145D01*
X199104582Y-97708418D01*
X199083431Y-97736673D01*
X198969889Y-97850215D01*
X198844949Y-98022182D01*
X198782424Y-98144893D01*
X198734450Y-98195688D01*
X198733941Y-98195984D01*
X198641284Y-98249480D01*
X198641281Y-98249482D01*
X189837584Y-107053181D01*
X189776261Y-107086666D01*
X189749903Y-107089500D01*
X189009388Y-107089500D01*
X188942349Y-107069815D01*
X188896594Y-107017011D01*
X188886650Y-106947853D01*
X188888814Y-106936553D01*
X188889704Y-106932840D01*
X188889709Y-106932826D01*
X188905104Y-106835621D01*
X188920500Y-106738422D01*
X188920500Y-106541577D01*
X188889709Y-106347173D01*
X188828882Y-106159970D01*
X188767499Y-106039500D01*
X188739524Y-105984595D01*
X188623828Y-105825354D01*
X188484646Y-105686172D01*
X188405025Y-105628324D01*
X188325403Y-105570474D01*
X188148787Y-105480485D01*
X188097990Y-105432511D01*
X188081195Y-105364690D01*
X188103732Y-105298555D01*
X188148787Y-105259515D01*
X188325403Y-105169525D01*
X188325402Y-105169525D01*
X188325405Y-105169524D01*
X188484646Y-105053828D01*
X188623828Y-104914646D01*
X188739524Y-104755405D01*
X188828884Y-104580025D01*
X188889709Y-104392826D01*
X188899942Y-104328217D01*
X188920500Y-104198422D01*
X188920500Y-104001577D01*
X188889709Y-103807173D01*
X188843453Y-103664814D01*
X188828884Y-103619975D01*
X188828882Y-103619972D01*
X188828882Y-103619970D01*
X188764630Y-103493869D01*
X188739524Y-103444595D01*
X188623828Y-103285354D01*
X188484646Y-103146172D01*
X188349913Y-103048282D01*
X188325403Y-103030474D01*
X188148787Y-102940485D01*
X188097990Y-102892511D01*
X188081195Y-102824690D01*
X188103732Y-102758555D01*
X188148787Y-102719515D01*
X188325403Y-102629525D01*
X188325402Y-102629525D01*
X188325405Y-102629524D01*
X188484646Y-102513828D01*
X188623828Y-102374646D01*
X188739524Y-102215405D01*
X188828884Y-102040025D01*
X188889709Y-101852826D01*
X188906250Y-101748390D01*
X188920500Y-101658422D01*
X188920500Y-101461577D01*
X188889709Y-101267173D01*
X188844828Y-101129046D01*
X188828884Y-101079975D01*
X188828882Y-101079972D01*
X188828882Y-101079970D01*
X188781743Y-100987455D01*
X188739524Y-100904595D01*
X188623828Y-100745354D01*
X188484646Y-100606172D01*
X188376850Y-100527853D01*
X188325403Y-100490474D01*
X188148787Y-100400485D01*
X188097990Y-100352511D01*
X188081195Y-100284690D01*
X188103732Y-100218555D01*
X188148787Y-100179515D01*
X188325403Y-100089525D01*
X188325402Y-100089525D01*
X188325405Y-100089524D01*
X188484646Y-99973828D01*
X188623828Y-99834646D01*
X188739524Y-99675405D01*
X188828884Y-99500025D01*
X188889709Y-99312826D01*
X188895962Y-99273348D01*
X188920500Y-99118422D01*
X188920500Y-98921577D01*
X188889709Y-98727173D01*
X188828882Y-98539970D01*
X188764630Y-98413869D01*
X188739524Y-98364595D01*
X188623828Y-98205354D01*
X188484646Y-98066172D01*
X188405025Y-98008324D01*
X188325403Y-97950474D01*
X188148787Y-97860485D01*
X188097990Y-97812511D01*
X188081195Y-97744690D01*
X188103732Y-97678555D01*
X188148787Y-97639515D01*
X188310816Y-97556957D01*
X188325405Y-97549524D01*
X188484646Y-97433828D01*
X188623828Y-97294646D01*
X188739524Y-97135405D01*
X188828884Y-96960025D01*
X188889709Y-96772826D01*
X188899911Y-96708412D01*
X188920500Y-96578422D01*
X188920500Y-96381577D01*
X188889709Y-96187173D01*
X188828882Y-95999970D01*
X188767499Y-95879500D01*
X188739524Y-95824595D01*
X188623828Y-95665354D01*
X188484646Y-95526172D01*
X188405025Y-95468324D01*
X188325403Y-95410474D01*
X188148787Y-95320485D01*
X188097990Y-95272511D01*
X188081195Y-95204690D01*
X188103732Y-95138555D01*
X188148787Y-95099515D01*
X188325403Y-95009525D01*
X188325402Y-95009525D01*
X188325405Y-95009524D01*
X188484646Y-94893828D01*
X188623828Y-94754646D01*
X188739524Y-94595405D01*
X188828884Y-94420025D01*
X188889709Y-94232826D01*
X188892839Y-94213063D01*
X188920500Y-94038422D01*
X188920500Y-93841577D01*
X188889709Y-93647173D01*
X188843671Y-93505485D01*
X188828884Y-93459975D01*
X188828882Y-93459972D01*
X188828882Y-93459970D01*
X188773444Y-93351167D01*
X188739524Y-93284595D01*
X188623828Y-93125354D01*
X188484646Y-92986172D01*
X188405025Y-92928324D01*
X188325403Y-92870474D01*
X188148787Y-92780485D01*
X188097990Y-92732511D01*
X188081195Y-92664690D01*
X188103732Y-92598555D01*
X188148787Y-92559515D01*
X188325403Y-92469525D01*
X188325402Y-92469525D01*
X188325405Y-92469524D01*
X188484646Y-92353828D01*
X188623828Y-92214646D01*
X188739524Y-92055405D01*
X188828884Y-91880025D01*
X188889709Y-91692826D01*
X188896492Y-91650000D01*
X188920500Y-91498422D01*
X188920500Y-91301577D01*
X188889709Y-91107173D01*
X188828882Y-90919970D01*
X188781743Y-90827455D01*
X188739524Y-90744595D01*
X188623828Y-90585354D01*
X188484646Y-90446172D01*
X188405025Y-90388324D01*
X188325403Y-90330474D01*
X188148787Y-90240485D01*
X188097990Y-90192511D01*
X188081195Y-90124690D01*
X188103732Y-90058555D01*
X188148787Y-90019515D01*
X188325403Y-89929525D01*
X188325402Y-89929525D01*
X188325405Y-89929524D01*
X188484646Y-89813828D01*
X188623828Y-89674646D01*
X188739524Y-89515405D01*
X188828884Y-89340025D01*
X188889709Y-89152826D01*
X188911029Y-89018216D01*
X188920500Y-88958422D01*
X188920500Y-88761577D01*
X188889709Y-88567173D01*
X188828882Y-88379970D01*
X188775015Y-88274250D01*
X188739524Y-88204595D01*
X188623828Y-88045354D01*
X188484646Y-87906172D01*
X188405025Y-87848324D01*
X188325403Y-87790474D01*
X188148787Y-87700485D01*
X188097990Y-87652511D01*
X188081195Y-87584690D01*
X188103732Y-87518555D01*
X188148787Y-87479515D01*
X188325403Y-87389525D01*
X188325402Y-87389525D01*
X188325405Y-87389524D01*
X188484646Y-87273828D01*
X188623828Y-87134646D01*
X188739524Y-86975405D01*
X188828884Y-86800025D01*
X188889709Y-86612826D01*
X188900937Y-86541936D01*
X188920500Y-86418422D01*
X188920500Y-86221577D01*
X188889709Y-86027173D01*
X188828882Y-85839970D01*
X188739523Y-85664594D01*
X188738767Y-85663553D01*
X188623828Y-85505354D01*
X188484646Y-85366172D01*
X188405025Y-85308324D01*
X188325403Y-85250474D01*
X188148787Y-85160485D01*
X188097990Y-85112511D01*
X188081195Y-85044690D01*
X188103732Y-84978555D01*
X188148787Y-84939515D01*
X188325403Y-84849525D01*
X188325402Y-84849525D01*
X188325405Y-84849524D01*
X188484646Y-84733828D01*
X188623828Y-84594646D01*
X188739524Y-84435405D01*
X188828884Y-84260025D01*
X188886760Y-84081902D01*
X193099500Y-84081902D01*
X193099500Y-84318097D01*
X193136446Y-84551368D01*
X193209433Y-84775996D01*
X193292751Y-84939515D01*
X193316657Y-84986433D01*
X193455483Y-85177510D01*
X193622490Y-85344517D01*
X193813567Y-85483343D01*
X193912991Y-85534002D01*
X194024003Y-85590566D01*
X194024005Y-85590566D01*
X194024008Y-85590568D01*
X194144412Y-85629689D01*
X194248631Y-85663553D01*
X194481903Y-85700500D01*
X194481908Y-85700500D01*
X194718097Y-85700500D01*
X194951368Y-85663553D01*
X195175992Y-85590568D01*
X195386433Y-85483343D01*
X195577510Y-85344517D01*
X195744517Y-85177510D01*
X195883343Y-84986433D01*
X195938230Y-84878711D01*
X230149500Y-84878711D01*
X230149500Y-85121288D01*
X230178887Y-85344514D01*
X230181162Y-85361789D01*
X230182337Y-85366174D01*
X230243947Y-85596104D01*
X230336773Y-85820205D01*
X230336776Y-85820212D01*
X230458064Y-86030289D01*
X230458066Y-86030292D01*
X230458067Y-86030293D01*
X230605733Y-86222736D01*
X230605739Y-86222743D01*
X230777256Y-86394260D01*
X230777263Y-86394266D01*
X230808744Y-86418422D01*
X230969711Y-86541936D01*
X231179788Y-86663224D01*
X231403900Y-86756054D01*
X231638211Y-86818838D01*
X231818586Y-86842584D01*
X231878711Y-86850500D01*
X231878712Y-86850500D01*
X232121289Y-86850500D01*
X232169388Y-86844167D01*
X232361789Y-86818838D01*
X232596100Y-86756054D01*
X232820212Y-86663224D01*
X233030289Y-86541936D01*
X233222738Y-86394265D01*
X233394265Y-86222738D01*
X233541936Y-86030289D01*
X233663224Y-85820212D01*
X233756054Y-85596100D01*
X233818838Y-85361789D01*
X233850500Y-85121288D01*
X233850500Y-84878712D01*
X233818838Y-84638211D01*
X233756054Y-84403900D01*
X233752063Y-84394266D01*
X233681014Y-84222738D01*
X233663224Y-84179788D01*
X233541936Y-83969711D01*
X233459006Y-83861634D01*
X233394266Y-83777263D01*
X233394260Y-83777256D01*
X233222743Y-83605739D01*
X233222736Y-83605733D01*
X233030293Y-83458067D01*
X233030292Y-83458066D01*
X233030289Y-83458064D01*
X232820212Y-83336776D01*
X232820205Y-83336773D01*
X232596104Y-83243947D01*
X232361785Y-83181161D01*
X232121289Y-83149500D01*
X232121288Y-83149500D01*
X231878712Y-83149500D01*
X231878711Y-83149500D01*
X231638214Y-83181161D01*
X231403895Y-83243947D01*
X231179794Y-83336773D01*
X231179785Y-83336777D01*
X230969706Y-83458067D01*
X230777263Y-83605733D01*
X230777256Y-83605739D01*
X230605739Y-83777256D01*
X230605733Y-83777263D01*
X230458067Y-83969706D01*
X230336777Y-84179785D01*
X230336773Y-84179794D01*
X230243947Y-84403895D01*
X230181161Y-84638214D01*
X230149500Y-84878711D01*
X195938230Y-84878711D01*
X195990568Y-84775992D01*
X196063553Y-84551368D01*
X196081920Y-84435405D01*
X196100500Y-84318097D01*
X196100500Y-84081902D01*
X196063553Y-83848631D01*
X195990566Y-83624003D01*
X195934002Y-83512991D01*
X195883343Y-83413567D01*
X195744517Y-83222490D01*
X195577510Y-83055483D01*
X195386433Y-82916657D01*
X195311960Y-82878711D01*
X199149500Y-82878711D01*
X199149500Y-83121288D01*
X199181161Y-83361785D01*
X199243947Y-83596104D01*
X199318986Y-83777263D01*
X199336776Y-83820212D01*
X199458064Y-84030289D01*
X199458065Y-84030290D01*
X199458067Y-84030293D01*
X199605733Y-84222736D01*
X199605739Y-84222743D01*
X199777256Y-84394260D01*
X199777263Y-84394266D01*
X199830877Y-84435405D01*
X199969711Y-84541936D01*
X200179788Y-84663224D01*
X200403900Y-84756054D01*
X200638211Y-84818838D01*
X200818586Y-84842584D01*
X200878711Y-84850500D01*
X200878712Y-84850500D01*
X201121289Y-84850500D01*
X201169388Y-84844167D01*
X201361789Y-84818838D01*
X201596100Y-84756054D01*
X201820212Y-84663224D01*
X202030289Y-84541936D01*
X202222738Y-84394265D01*
X202394265Y-84222738D01*
X202541936Y-84030289D01*
X202663224Y-83820212D01*
X202756054Y-83596100D01*
X202818838Y-83361789D01*
X202850500Y-83121288D01*
X202850500Y-82878712D01*
X202850500Y-82878711D01*
X223149500Y-82878711D01*
X223149500Y-83121288D01*
X223181161Y-83361785D01*
X223243947Y-83596104D01*
X223318986Y-83777263D01*
X223336776Y-83820212D01*
X223458064Y-84030289D01*
X223458065Y-84030290D01*
X223458067Y-84030293D01*
X223605733Y-84222736D01*
X223605739Y-84222743D01*
X223777256Y-84394260D01*
X223777263Y-84394266D01*
X223830877Y-84435405D01*
X223969711Y-84541936D01*
X224179788Y-84663224D01*
X224403900Y-84756054D01*
X224638211Y-84818838D01*
X224818586Y-84842584D01*
X224878711Y-84850500D01*
X224878712Y-84850500D01*
X225121289Y-84850500D01*
X225169388Y-84844167D01*
X225361789Y-84818838D01*
X225596100Y-84756054D01*
X225820212Y-84663224D01*
X226030289Y-84541936D01*
X226222738Y-84394265D01*
X226394265Y-84222738D01*
X226541936Y-84030289D01*
X226663224Y-83820212D01*
X226756054Y-83596100D01*
X226818838Y-83361789D01*
X226850500Y-83121288D01*
X226850500Y-82878712D01*
X226818838Y-82638211D01*
X226756054Y-82403900D01*
X226663224Y-82179788D01*
X226541936Y-81969711D01*
X226481018Y-81890321D01*
X226394266Y-81777263D01*
X226394260Y-81777256D01*
X226222743Y-81605739D01*
X226222736Y-81605733D01*
X226030293Y-81458067D01*
X226030292Y-81458066D01*
X226030289Y-81458064D01*
X225858661Y-81358974D01*
X225820214Y-81336777D01*
X225820205Y-81336773D01*
X225596104Y-81243947D01*
X225425424Y-81198213D01*
X225361789Y-81181162D01*
X225361788Y-81181161D01*
X225361785Y-81181161D01*
X225121289Y-81149500D01*
X225121288Y-81149500D01*
X224878712Y-81149500D01*
X224878711Y-81149500D01*
X224638214Y-81181161D01*
X224403895Y-81243947D01*
X224179794Y-81336773D01*
X224179785Y-81336777D01*
X223969706Y-81458067D01*
X223777263Y-81605733D01*
X223777256Y-81605739D01*
X223605739Y-81777256D01*
X223605733Y-81777263D01*
X223458067Y-81969706D01*
X223336777Y-82179785D01*
X223336773Y-82179794D01*
X223243947Y-82403895D01*
X223181161Y-82638214D01*
X223149500Y-82878711D01*
X202850500Y-82878711D01*
X202818838Y-82638211D01*
X202756054Y-82403900D01*
X202663224Y-82179788D01*
X202541936Y-81969711D01*
X202481018Y-81890321D01*
X202394266Y-81777263D01*
X202394260Y-81777256D01*
X202222743Y-81605739D01*
X202222736Y-81605733D01*
X202030293Y-81458067D01*
X202030292Y-81458066D01*
X202030289Y-81458064D01*
X201858661Y-81358974D01*
X201820214Y-81336777D01*
X201820205Y-81336773D01*
X201596104Y-81243947D01*
X201425424Y-81198213D01*
X201361789Y-81181162D01*
X201361788Y-81181161D01*
X201361785Y-81181161D01*
X201121289Y-81149500D01*
X201121288Y-81149500D01*
X200878712Y-81149500D01*
X200878711Y-81149500D01*
X200638214Y-81181161D01*
X200403895Y-81243947D01*
X200179794Y-81336773D01*
X200179785Y-81336777D01*
X199969706Y-81458067D01*
X199777263Y-81605733D01*
X199777256Y-81605739D01*
X199605739Y-81777256D01*
X199605733Y-81777263D01*
X199458067Y-81969706D01*
X199336777Y-82179785D01*
X199336773Y-82179794D01*
X199243947Y-82403895D01*
X199181161Y-82638214D01*
X199149500Y-82878711D01*
X195311960Y-82878711D01*
X195175996Y-82809433D01*
X194951368Y-82736446D01*
X194718097Y-82699500D01*
X194718092Y-82699500D01*
X194481908Y-82699500D01*
X194481903Y-82699500D01*
X194248631Y-82736446D01*
X194024003Y-82809433D01*
X193813566Y-82916657D01*
X193704550Y-82995862D01*
X193622490Y-83055483D01*
X193622488Y-83055485D01*
X193622487Y-83055485D01*
X193455485Y-83222487D01*
X193455485Y-83222488D01*
X193455483Y-83222490D01*
X193439894Y-83243947D01*
X193316657Y-83413566D01*
X193209433Y-83624003D01*
X193136446Y-83848631D01*
X193099500Y-84081902D01*
X188886760Y-84081902D01*
X188889709Y-84072826D01*
X188906041Y-83969711D01*
X188920500Y-83878422D01*
X188920500Y-83681577D01*
X188889709Y-83487173D01*
X188833783Y-83315054D01*
X188828884Y-83299975D01*
X188828882Y-83299972D01*
X188828882Y-83299970D01*
X188768346Y-83181162D01*
X188739524Y-83124595D01*
X188623828Y-82965354D01*
X188484646Y-82826172D01*
X188325405Y-82710476D01*
X188303863Y-82699500D01*
X188150029Y-82621117D01*
X187962826Y-82560290D01*
X187768422Y-82529500D01*
X187768417Y-82529500D01*
X187571583Y-82529500D01*
X187571578Y-82529500D01*
X187377173Y-82560290D01*
X187189970Y-82621117D01*
X187014594Y-82710476D01*
X186978849Y-82736447D01*
X186855354Y-82826172D01*
X186855352Y-82826174D01*
X186855351Y-82826174D01*
X186716174Y-82965351D01*
X186716174Y-82965352D01*
X186716172Y-82965354D01*
X186703980Y-82982135D01*
X186600476Y-83124594D01*
X186511117Y-83299970D01*
X186450290Y-83487173D01*
X186419500Y-83681577D01*
X186419500Y-83878422D01*
X186450290Y-84072826D01*
X186511117Y-84260029D01*
X186600476Y-84435405D01*
X186716172Y-84594646D01*
X186855354Y-84733828D01*
X187014595Y-84849524D01*
X187089214Y-84887544D01*
X187191213Y-84939515D01*
X187242009Y-84987489D01*
X187258804Y-85055310D01*
X187236267Y-85121445D01*
X187191213Y-85160485D01*
X187014594Y-85250476D01*
X186923741Y-85316485D01*
X186855354Y-85366172D01*
X186855352Y-85366174D01*
X186855351Y-85366174D01*
X186716174Y-85505351D01*
X186716174Y-85505352D01*
X186716172Y-85505354D01*
X186666485Y-85573741D01*
X186600476Y-85664594D01*
X186511117Y-85839970D01*
X186450290Y-86027173D01*
X186419500Y-86221577D01*
X186419500Y-86418422D01*
X186450290Y-86612826D01*
X186511117Y-86800029D01*
X186576256Y-86927870D01*
X186600476Y-86975405D01*
X186716172Y-87134646D01*
X186855354Y-87273828D01*
X187014595Y-87389524D01*
X187063969Y-87414681D01*
X187191213Y-87479515D01*
X187242009Y-87527489D01*
X187258804Y-87595310D01*
X187236267Y-87661445D01*
X187191213Y-87700485D01*
X187014594Y-87790476D01*
X186923741Y-87856485D01*
X186855354Y-87906172D01*
X186855352Y-87906174D01*
X186855351Y-87906174D01*
X186716174Y-88045351D01*
X186716174Y-88045352D01*
X186716172Y-88045354D01*
X186711645Y-88051585D01*
X186600476Y-88204594D01*
X186511117Y-88379970D01*
X186450290Y-88567173D01*
X186419500Y-88761577D01*
X186419500Y-88958422D01*
X186450290Y-89152826D01*
X186511117Y-89340029D01*
X186573477Y-89462416D01*
X186600476Y-89515405D01*
X186716172Y-89674646D01*
X186855354Y-89813828D01*
X187014595Y-89929524D01*
X187055732Y-89950484D01*
X187191213Y-90019515D01*
X187242009Y-90067489D01*
X187258804Y-90135310D01*
X187236267Y-90201445D01*
X187191213Y-90240485D01*
X187014594Y-90330476D01*
X186923741Y-90396485D01*
X186855354Y-90446172D01*
X186855352Y-90446174D01*
X186855351Y-90446174D01*
X186716174Y-90585351D01*
X186716174Y-90585352D01*
X186716172Y-90585354D01*
X186669797Y-90649184D01*
X186600476Y-90744594D01*
X186511117Y-90919970D01*
X186450290Y-91107173D01*
X186419500Y-91301577D01*
X186419500Y-91498422D01*
X186450290Y-91692826D01*
X186511117Y-91880029D01*
X186589847Y-92034544D01*
X186600476Y-92055405D01*
X186716172Y-92214646D01*
X186855354Y-92353828D01*
X187014595Y-92469524D01*
X187137992Y-92532397D01*
X187191213Y-92559515D01*
X187242009Y-92607489D01*
X187258804Y-92675310D01*
X187236267Y-92741445D01*
X187191213Y-92780485D01*
X187014594Y-92870476D01*
X186923741Y-92936485D01*
X186855354Y-92986172D01*
X186855352Y-92986174D01*
X186855351Y-92986174D01*
X186716174Y-93125351D01*
X186716174Y-93125352D01*
X186716172Y-93125354D01*
X186671786Y-93186446D01*
X186600476Y-93284594D01*
X186511117Y-93459970D01*
X186450290Y-93647173D01*
X186419500Y-93841577D01*
X186419500Y-94038416D01*
X186420944Y-94047534D01*
X186411988Y-94116828D01*
X186386151Y-94154612D01*
X185028895Y-95511868D01*
X185003214Y-95531574D01*
X184885601Y-95599477D01*
X184885596Y-95599481D01*
X184773792Y-95711286D01*
X178491898Y-101993181D01*
X178430575Y-102026666D01*
X178404217Y-102029500D01*
X176221703Y-102029500D01*
X176154664Y-102009815D01*
X176108909Y-101957011D01*
X176098965Y-101887853D01*
X176107142Y-101858048D01*
X176129735Y-101803501D01*
X176129737Y-101803497D01*
X176160500Y-101648842D01*
X176160500Y-101491158D01*
X176160500Y-101491155D01*
X176160499Y-101491153D01*
X176149933Y-101438034D01*
X176129737Y-101336503D01*
X176106562Y-101280553D01*
X176069397Y-101190827D01*
X176069390Y-101190814D01*
X175981398Y-101059125D01*
X175960520Y-100992447D01*
X175960500Y-100990234D01*
X175960500Y-89339060D01*
X175960501Y-89339047D01*
X175960501Y-89170944D01*
X175919576Y-89018214D01*
X175919573Y-89018209D01*
X175840524Y-88881290D01*
X175840518Y-88881282D01*
X174821415Y-87862179D01*
X173683767Y-86724532D01*
X173650283Y-86663210D01*
X173648976Y-86617454D01*
X173680500Y-86418422D01*
X173680500Y-86221577D01*
X173649709Y-86027173D01*
X173588882Y-85839970D01*
X173499523Y-85664594D01*
X173498767Y-85663553D01*
X173383828Y-85505354D01*
X173244646Y-85366172D01*
X173091377Y-85254815D01*
X173048714Y-85199487D01*
X173042735Y-85129873D01*
X173075341Y-85068078D01*
X173136180Y-85033721D01*
X173164264Y-85030499D01*
X173227872Y-85030499D01*
X173287483Y-85024091D01*
X173422331Y-84973796D01*
X173537546Y-84887546D01*
X173623796Y-84772331D01*
X173674091Y-84637483D01*
X173680500Y-84577873D01*
X173680499Y-82982128D01*
X173674091Y-82922517D01*
X173671905Y-82916657D01*
X173623797Y-82787671D01*
X173623793Y-82787664D01*
X173537547Y-82672455D01*
X173537544Y-82672452D01*
X173422335Y-82586206D01*
X173422328Y-82586202D01*
X173287482Y-82535908D01*
X173287483Y-82535908D01*
X173227883Y-82529501D01*
X173227881Y-82529500D01*
X173227873Y-82529500D01*
X173227864Y-82529500D01*
X171632129Y-82529500D01*
X171632123Y-82529501D01*
X171572516Y-82535908D01*
X171437671Y-82586202D01*
X171437664Y-82586206D01*
X171322455Y-82672452D01*
X171322452Y-82672455D01*
X171236206Y-82787664D01*
X171236202Y-82787671D01*
X171185908Y-82922517D01*
X171181303Y-82965354D01*
X171179501Y-82982123D01*
X171179500Y-82982135D01*
X171179500Y-84577870D01*
X171179501Y-84577876D01*
X171185908Y-84637483D01*
X171236202Y-84772328D01*
X171236206Y-84772335D01*
X171322452Y-84887544D01*
X171322455Y-84887547D01*
X171437664Y-84973793D01*
X171437671Y-84973797D01*
X171572517Y-85024091D01*
X171572516Y-85024091D01*
X171579444Y-85024835D01*
X171632127Y-85030500D01*
X171695733Y-85030499D01*
X171762770Y-85050183D01*
X171808526Y-85102986D01*
X171818470Y-85172144D01*
X171789446Y-85235700D01*
X171768619Y-85254816D01*
X171615354Y-85366171D01*
X171476174Y-85505351D01*
X171476174Y-85505352D01*
X171476172Y-85505354D01*
X171426485Y-85573741D01*
X171360476Y-85664594D01*
X171271117Y-85839970D01*
X171210290Y-86027173D01*
X171179500Y-86221577D01*
X171179500Y-86418422D01*
X171210290Y-86612826D01*
X171271117Y-86800029D01*
X171336256Y-86927870D01*
X171360476Y-86975405D01*
X171476172Y-87134646D01*
X171615354Y-87273828D01*
X171774595Y-87389524D01*
X171823969Y-87414681D01*
X171951213Y-87479515D01*
X172002009Y-87527489D01*
X172018804Y-87595310D01*
X171996267Y-87661445D01*
X171951213Y-87700485D01*
X171774594Y-87790476D01*
X171683741Y-87856485D01*
X171615354Y-87906172D01*
X171615352Y-87906174D01*
X171615351Y-87906174D01*
X171476174Y-88045351D01*
X171476174Y-88045352D01*
X171476172Y-88045354D01*
X171471645Y-88051585D01*
X171360476Y-88204594D01*
X171271117Y-88379970D01*
X171210290Y-88567173D01*
X171179500Y-88761577D01*
X171179500Y-88958422D01*
X171210290Y-89152826D01*
X171271117Y-89340029D01*
X171333477Y-89462416D01*
X171360476Y-89515405D01*
X171476172Y-89674646D01*
X171615354Y-89813828D01*
X171774595Y-89929524D01*
X171815732Y-89950484D01*
X171951213Y-90019515D01*
X172002009Y-90067489D01*
X172018804Y-90135310D01*
X171996267Y-90201445D01*
X171951213Y-90240485D01*
X171774594Y-90330476D01*
X171683741Y-90396485D01*
X171615354Y-90446172D01*
X171615352Y-90446174D01*
X171615351Y-90446174D01*
X171476174Y-90585351D01*
X171476174Y-90585352D01*
X171476172Y-90585354D01*
X171429797Y-90649184D01*
X171360476Y-90744594D01*
X171271117Y-90919970D01*
X171210290Y-91107173D01*
X171179500Y-91301577D01*
X171179500Y-91498423D01*
X171184131Y-91527664D01*
X171175176Y-91596957D01*
X171130179Y-91650409D01*
X171063428Y-91671048D01*
X170996114Y-91652323D01*
X170973977Y-91634742D01*
X167067590Y-87728355D01*
X167067588Y-87728352D01*
X166948717Y-87609481D01*
X166948716Y-87609480D01*
X166861904Y-87559360D01*
X166861904Y-87559359D01*
X166861900Y-87559358D01*
X166811785Y-87530423D01*
X166659057Y-87489499D01*
X166500943Y-87489499D01*
X166493347Y-87489499D01*
X166493331Y-87489500D01*
X116860097Y-87489500D01*
X116793058Y-87469815D01*
X116772416Y-87453181D01*
X115886818Y-86567583D01*
X115853333Y-86506260D01*
X115850499Y-86479902D01*
X115850499Y-85132129D01*
X115850498Y-85132123D01*
X115850497Y-85132116D01*
X115844091Y-85072517D01*
X115842435Y-85068078D01*
X115793797Y-84937671D01*
X115793793Y-84937664D01*
X115707547Y-84822455D01*
X115707544Y-84822452D01*
X115592335Y-84736206D01*
X115592328Y-84736202D01*
X115457482Y-84685908D01*
X115457483Y-84685908D01*
X115397883Y-84679501D01*
X115397881Y-84679500D01*
X115397873Y-84679500D01*
X115397864Y-84679500D01*
X113602129Y-84679500D01*
X113602123Y-84679501D01*
X113542516Y-84685908D01*
X113407671Y-84736202D01*
X113407664Y-84736206D01*
X113292455Y-84822452D01*
X113292452Y-84822455D01*
X113206206Y-84937664D01*
X113206202Y-84937671D01*
X113155908Y-85072517D01*
X113150648Y-85121445D01*
X113149501Y-85132123D01*
X113149500Y-85132135D01*
X69849072Y-85132135D01*
X69850500Y-85121288D01*
X69850500Y-84878712D01*
X69818838Y-84638211D01*
X69756054Y-84403900D01*
X69752063Y-84394266D01*
X69681014Y-84222738D01*
X69663224Y-84179788D01*
X69541936Y-83969711D01*
X69459006Y-83861634D01*
X69394266Y-83777263D01*
X69394260Y-83777256D01*
X69222743Y-83605739D01*
X69222736Y-83605733D01*
X69030293Y-83458067D01*
X69030292Y-83458066D01*
X69030289Y-83458064D01*
X68820212Y-83336776D01*
X68820205Y-83336773D01*
X68596104Y-83243947D01*
X68361785Y-83181161D01*
X68121289Y-83149500D01*
X68121288Y-83149500D01*
X67878712Y-83149500D01*
X67878711Y-83149500D01*
X67638214Y-83181161D01*
X67403895Y-83243947D01*
X67179794Y-83336773D01*
X67179785Y-83336777D01*
X66969706Y-83458067D01*
X66777263Y-83605733D01*
X66777256Y-83605739D01*
X66605739Y-83777256D01*
X66605733Y-83777263D01*
X66458067Y-83969706D01*
X66336777Y-84179785D01*
X66336773Y-84179794D01*
X66243947Y-84403895D01*
X66181161Y-84638214D01*
X66149500Y-84878711D01*
X65500500Y-84878711D01*
X65500500Y-83003750D01*
X65500726Y-82996263D01*
X65507837Y-82878711D01*
X75149500Y-82878711D01*
X75149500Y-83121288D01*
X75181161Y-83361785D01*
X75243947Y-83596104D01*
X75318986Y-83777263D01*
X75336776Y-83820212D01*
X75458064Y-84030289D01*
X75458065Y-84030290D01*
X75458067Y-84030293D01*
X75605733Y-84222736D01*
X75605739Y-84222743D01*
X75777256Y-84394260D01*
X75777263Y-84394266D01*
X75830877Y-84435405D01*
X75969711Y-84541936D01*
X76179788Y-84663224D01*
X76403900Y-84756054D01*
X76638211Y-84818838D01*
X76818586Y-84842584D01*
X76878711Y-84850500D01*
X76878712Y-84850500D01*
X77121289Y-84850500D01*
X77169388Y-84844167D01*
X77361789Y-84818838D01*
X77596100Y-84756054D01*
X77820212Y-84663224D01*
X78030289Y-84541936D01*
X78222738Y-84394265D01*
X78394265Y-84222738D01*
X78541936Y-84030289D01*
X78663224Y-83820212D01*
X78756054Y-83596100D01*
X78818838Y-83361789D01*
X78850500Y-83121288D01*
X78850500Y-82878712D01*
X78850500Y-82878711D01*
X109149500Y-82878711D01*
X109149500Y-83121288D01*
X109181161Y-83361785D01*
X109243947Y-83596104D01*
X109318986Y-83777263D01*
X109336776Y-83820212D01*
X109458064Y-84030289D01*
X109458065Y-84030290D01*
X109458067Y-84030293D01*
X109605733Y-84222736D01*
X109605739Y-84222743D01*
X109777256Y-84394260D01*
X109777263Y-84394266D01*
X109830877Y-84435405D01*
X109969711Y-84541936D01*
X110179788Y-84663224D01*
X110403900Y-84756054D01*
X110638211Y-84818838D01*
X110818586Y-84842584D01*
X110878711Y-84850500D01*
X110878712Y-84850500D01*
X111121289Y-84850500D01*
X111169388Y-84844167D01*
X111361789Y-84818838D01*
X111596100Y-84756054D01*
X111820212Y-84663224D01*
X112030289Y-84541936D01*
X112222738Y-84394265D01*
X112394265Y-84222738D01*
X112502332Y-84081902D01*
X118099500Y-84081902D01*
X118099500Y-84318097D01*
X118136446Y-84551368D01*
X118209433Y-84775996D01*
X118292751Y-84939515D01*
X118316657Y-84986433D01*
X118455483Y-85177510D01*
X118622490Y-85344517D01*
X118813567Y-85483343D01*
X118912991Y-85534002D01*
X119024003Y-85590566D01*
X119024005Y-85590566D01*
X119024008Y-85590568D01*
X119144412Y-85629689D01*
X119248631Y-85663553D01*
X119481903Y-85700500D01*
X119481908Y-85700500D01*
X119718097Y-85700500D01*
X119951368Y-85663553D01*
X120175992Y-85590568D01*
X120386433Y-85483343D01*
X120577510Y-85344517D01*
X120744517Y-85177510D01*
X120883343Y-84986433D01*
X120990568Y-84775992D01*
X121063553Y-84551368D01*
X121081920Y-84435405D01*
X121100500Y-84318097D01*
X121100500Y-84081902D01*
X121063553Y-83848631D01*
X120990566Y-83624003D01*
X120934002Y-83512991D01*
X120883343Y-83413567D01*
X120744517Y-83222490D01*
X120577510Y-83055483D01*
X120386433Y-82916657D01*
X120311960Y-82878711D01*
X120175996Y-82809433D01*
X119951368Y-82736446D01*
X119718097Y-82699500D01*
X119718092Y-82699500D01*
X119481908Y-82699500D01*
X119481903Y-82699500D01*
X119248631Y-82736446D01*
X119024003Y-82809433D01*
X118813566Y-82916657D01*
X118704550Y-82995862D01*
X118622490Y-83055483D01*
X118622488Y-83055485D01*
X118622487Y-83055485D01*
X118455485Y-83222487D01*
X118455485Y-83222488D01*
X118455483Y-83222490D01*
X118439894Y-83243947D01*
X118316657Y-83413566D01*
X118209433Y-83624003D01*
X118136446Y-83848631D01*
X118099500Y-84081902D01*
X112502332Y-84081902D01*
X112541936Y-84030289D01*
X112663224Y-83820212D01*
X112756054Y-83596100D01*
X112818838Y-83361789D01*
X112850500Y-83121288D01*
X112850500Y-82878712D01*
X112818838Y-82638211D01*
X112756054Y-82403900D01*
X112721342Y-82320097D01*
X132999500Y-82320097D01*
X132999500Y-82579902D01*
X133040140Y-82836493D01*
X133120422Y-83083576D01*
X133201534Y-83242764D01*
X133238366Y-83315051D01*
X133391069Y-83525229D01*
X133574771Y-83708931D01*
X133784949Y-83861634D01*
X133932445Y-83936787D01*
X134016423Y-83979577D01*
X134016425Y-83979577D01*
X134016428Y-83979579D01*
X134263507Y-84059860D01*
X134395706Y-84080797D01*
X134520098Y-84100500D01*
X134520103Y-84100500D01*
X135479902Y-84100500D01*
X135593298Y-84082539D01*
X135736493Y-84059860D01*
X135983572Y-83979579D01*
X136193706Y-83872509D01*
X136262374Y-83859614D01*
X136306293Y-83872509D01*
X136392605Y-83916487D01*
X136516423Y-83979577D01*
X136516425Y-83979577D01*
X136516428Y-83979579D01*
X136763507Y-84059860D01*
X136895706Y-84080797D01*
X137020098Y-84100500D01*
X137020103Y-84100500D01*
X137979902Y-84100500D01*
X138093298Y-84082539D01*
X138236493Y-84059860D01*
X138483572Y-83979579D01*
X138715051Y-83861634D01*
X138925229Y-83708931D01*
X139108931Y-83525229D01*
X139261634Y-83315051D01*
X139379579Y-83083572D01*
X139459860Y-82836493D01*
X139491264Y-82638214D01*
X139500500Y-82579902D01*
X139500500Y-82320097D01*
X140499500Y-82320097D01*
X140499500Y-82579902D01*
X140540140Y-82836493D01*
X140620422Y-83083576D01*
X140701534Y-83242764D01*
X140738366Y-83315051D01*
X140891069Y-83525229D01*
X141074771Y-83708931D01*
X141284949Y-83861634D01*
X141432445Y-83936787D01*
X141516423Y-83979577D01*
X141516425Y-83979577D01*
X141516428Y-83979579D01*
X141763507Y-84059860D01*
X141895706Y-84080797D01*
X142020098Y-84100500D01*
X142020103Y-84100500D01*
X142979902Y-84100500D01*
X143093298Y-84082539D01*
X143236493Y-84059860D01*
X143483572Y-83979579D01*
X143693706Y-83872509D01*
X143762374Y-83859614D01*
X143806293Y-83872509D01*
X143892605Y-83916487D01*
X144016423Y-83979577D01*
X144016425Y-83979577D01*
X144016428Y-83979579D01*
X144263507Y-84059860D01*
X144395706Y-84080797D01*
X144520098Y-84100500D01*
X144520103Y-84100500D01*
X145479902Y-84100500D01*
X145593298Y-84082539D01*
X145736493Y-84059860D01*
X145983572Y-83979579D01*
X146215051Y-83861634D01*
X146425229Y-83708931D01*
X146608931Y-83525229D01*
X146761634Y-83315051D01*
X146879579Y-83083572D01*
X146959860Y-82836493D01*
X146991264Y-82638214D01*
X147000500Y-82579902D01*
X147000500Y-82320097D01*
X152999500Y-82320097D01*
X152999500Y-82579902D01*
X153040140Y-82836493D01*
X153120422Y-83083576D01*
X153201534Y-83242764D01*
X153238366Y-83315051D01*
X153391069Y-83525229D01*
X153574771Y-83708931D01*
X153784949Y-83861634D01*
X153932445Y-83936787D01*
X154016423Y-83979577D01*
X154016425Y-83979577D01*
X154016428Y-83979579D01*
X154263507Y-84059860D01*
X154395706Y-84080797D01*
X154520098Y-84100500D01*
X154520103Y-84100500D01*
X155479902Y-84100500D01*
X155593298Y-84082539D01*
X155736493Y-84059860D01*
X155983572Y-83979579D01*
X156193706Y-83872509D01*
X156262374Y-83859614D01*
X156306293Y-83872509D01*
X156392605Y-83916487D01*
X156516423Y-83979577D01*
X156516425Y-83979577D01*
X156516428Y-83979579D01*
X156763507Y-84059860D01*
X156895706Y-84080797D01*
X157020098Y-84100500D01*
X157020103Y-84100500D01*
X157979902Y-84100500D01*
X158093298Y-84082539D01*
X158236493Y-84059860D01*
X158483572Y-83979579D01*
X158715051Y-83861634D01*
X158925229Y-83708931D01*
X159108931Y-83525229D01*
X159261634Y-83315051D01*
X159379579Y-83083572D01*
X159459860Y-82836493D01*
X159491264Y-82638214D01*
X159500500Y-82579902D01*
X159500500Y-82320097D01*
X160499500Y-82320097D01*
X160499500Y-82579902D01*
X160540140Y-82836493D01*
X160620422Y-83083576D01*
X160701534Y-83242764D01*
X160738366Y-83315051D01*
X160891069Y-83525229D01*
X161074771Y-83708931D01*
X161284949Y-83861634D01*
X161432445Y-83936787D01*
X161516423Y-83979577D01*
X161516425Y-83979577D01*
X161516428Y-83979579D01*
X161763507Y-84059860D01*
X161895706Y-84080797D01*
X162020098Y-84100500D01*
X162020103Y-84100500D01*
X162979902Y-84100500D01*
X163093298Y-84082539D01*
X163236493Y-84059860D01*
X163483572Y-83979579D01*
X163693706Y-83872509D01*
X163762374Y-83859614D01*
X163806293Y-83872509D01*
X163892605Y-83916487D01*
X164016423Y-83979577D01*
X164016425Y-83979577D01*
X164016428Y-83979579D01*
X164263507Y-84059860D01*
X164395706Y-84080797D01*
X164520098Y-84100500D01*
X164520103Y-84100500D01*
X165479902Y-84100500D01*
X165593298Y-84082539D01*
X165736493Y-84059860D01*
X165983572Y-83979579D01*
X166215051Y-83861634D01*
X166425229Y-83708931D01*
X166608931Y-83525229D01*
X166761634Y-83315051D01*
X166879579Y-83083572D01*
X166959860Y-82836493D01*
X166991264Y-82638214D01*
X167000500Y-82579902D01*
X167000500Y-82320097D01*
X166966720Y-82106823D01*
X166959860Y-82063507D01*
X166879579Y-81816428D01*
X166879577Y-81816425D01*
X166879577Y-81816423D01*
X166836787Y-81732445D01*
X166761634Y-81584949D01*
X166608931Y-81374771D01*
X166425229Y-81191069D01*
X166249999Y-81063757D01*
X166215054Y-81038368D01*
X166215053Y-81038367D01*
X166215051Y-81038366D01*
X166142764Y-81001534D01*
X165983576Y-80920422D01*
X165736493Y-80840140D01*
X165479902Y-80799500D01*
X165479897Y-80799500D01*
X164520103Y-80799500D01*
X164520098Y-80799500D01*
X164263506Y-80840140D01*
X164016423Y-80920422D01*
X163847870Y-81006305D01*
X163806293Y-81027490D01*
X163737626Y-81040386D01*
X163693706Y-81027490D01*
X163637209Y-80998703D01*
X163483576Y-80920422D01*
X163236493Y-80840140D01*
X162979902Y-80799500D01*
X162979897Y-80799500D01*
X162020103Y-80799500D01*
X162020098Y-80799500D01*
X161763506Y-80840140D01*
X161516423Y-80920422D01*
X161284945Y-81038368D01*
X161074774Y-81191066D01*
X161074768Y-81191071D01*
X160891071Y-81374768D01*
X160891066Y-81374774D01*
X160738368Y-81584945D01*
X160620422Y-81816423D01*
X160540140Y-82063506D01*
X160499500Y-82320097D01*
X159500500Y-82320097D01*
X159466720Y-82106823D01*
X159459860Y-82063507D01*
X159379579Y-81816428D01*
X159379577Y-81816425D01*
X159379577Y-81816423D01*
X159336787Y-81732445D01*
X159261634Y-81584949D01*
X159108931Y-81374771D01*
X158925229Y-81191069D01*
X158749999Y-81063757D01*
X158715054Y-81038368D01*
X158715053Y-81038367D01*
X158715051Y-81038366D01*
X158642764Y-81001534D01*
X158483576Y-80920422D01*
X158236493Y-80840140D01*
X157979902Y-80799500D01*
X157979897Y-80799500D01*
X157020103Y-80799500D01*
X157020098Y-80799500D01*
X156763506Y-80840140D01*
X156516423Y-80920422D01*
X156347870Y-81006305D01*
X156306293Y-81027490D01*
X156237626Y-81040386D01*
X156193706Y-81027490D01*
X156137209Y-80998703D01*
X155983576Y-80920422D01*
X155736493Y-80840140D01*
X155479902Y-80799500D01*
X155479897Y-80799500D01*
X154520103Y-80799500D01*
X154520098Y-80799500D01*
X154263506Y-80840140D01*
X154016423Y-80920422D01*
X153784945Y-81038368D01*
X153574774Y-81191066D01*
X153574768Y-81191071D01*
X153391071Y-81374768D01*
X153391066Y-81374774D01*
X153238368Y-81584945D01*
X153120422Y-81816423D01*
X153040140Y-82063506D01*
X152999500Y-82320097D01*
X147000500Y-82320097D01*
X146966720Y-82106823D01*
X146959860Y-82063507D01*
X146879579Y-81816428D01*
X146879577Y-81816425D01*
X146879577Y-81816423D01*
X146836787Y-81732445D01*
X146761634Y-81584949D01*
X146608931Y-81374771D01*
X146425229Y-81191069D01*
X146249999Y-81063757D01*
X146215054Y-81038368D01*
X146215053Y-81038367D01*
X146215051Y-81038366D01*
X146142764Y-81001534D01*
X145983576Y-80920422D01*
X145736493Y-80840140D01*
X145479902Y-80799500D01*
X145479897Y-80799500D01*
X144520103Y-80799500D01*
X144520098Y-80799500D01*
X144263506Y-80840140D01*
X144016423Y-80920422D01*
X143847870Y-81006305D01*
X143806293Y-81027490D01*
X143737626Y-81040386D01*
X143693706Y-81027490D01*
X143637209Y-80998703D01*
X143483576Y-80920422D01*
X143236493Y-80840140D01*
X142979902Y-80799500D01*
X142979897Y-80799500D01*
X142020103Y-80799500D01*
X142020098Y-80799500D01*
X141763506Y-80840140D01*
X141516423Y-80920422D01*
X141284945Y-81038368D01*
X141074774Y-81191066D01*
X141074768Y-81191071D01*
X140891071Y-81374768D01*
X140891066Y-81374774D01*
X140738368Y-81584945D01*
X140620422Y-81816423D01*
X140540140Y-82063506D01*
X140499500Y-82320097D01*
X139500500Y-82320097D01*
X139466720Y-82106823D01*
X139459860Y-82063507D01*
X139379579Y-81816428D01*
X139379577Y-81816425D01*
X139379577Y-81816423D01*
X139336787Y-81732445D01*
X139261634Y-81584949D01*
X139108931Y-81374771D01*
X138925229Y-81191069D01*
X138749999Y-81063757D01*
X138715054Y-81038368D01*
X138715053Y-81038367D01*
X138715051Y-81038366D01*
X138642764Y-81001534D01*
X138483576Y-80920422D01*
X138236493Y-80840140D01*
X137979902Y-80799500D01*
X137979897Y-80799500D01*
X137020103Y-80799500D01*
X137020098Y-80799500D01*
X136763506Y-80840140D01*
X136516423Y-80920422D01*
X136347870Y-81006305D01*
X136306293Y-81027490D01*
X136237626Y-81040386D01*
X136193706Y-81027490D01*
X136137209Y-80998703D01*
X135983576Y-80920422D01*
X135736493Y-80840140D01*
X135479902Y-80799500D01*
X135479897Y-80799500D01*
X134520103Y-80799500D01*
X134520098Y-80799500D01*
X134263506Y-80840140D01*
X134016423Y-80920422D01*
X133784945Y-81038368D01*
X133574774Y-81191066D01*
X133574768Y-81191071D01*
X133391071Y-81374768D01*
X133391066Y-81374774D01*
X133238368Y-81584945D01*
X133120422Y-81816423D01*
X133040140Y-82063506D01*
X132999500Y-82320097D01*
X112721342Y-82320097D01*
X112663224Y-82179788D01*
X112541936Y-81969711D01*
X112481018Y-81890321D01*
X112394266Y-81777263D01*
X112394260Y-81777256D01*
X112222743Y-81605739D01*
X112222736Y-81605733D01*
X112030293Y-81458067D01*
X112030292Y-81458066D01*
X112030289Y-81458064D01*
X111858661Y-81358974D01*
X111820214Y-81336777D01*
X111820205Y-81336773D01*
X111596104Y-81243947D01*
X111425424Y-81198213D01*
X111361789Y-81181162D01*
X111361788Y-81181161D01*
X111361785Y-81181161D01*
X111121289Y-81149500D01*
X111121288Y-81149500D01*
X110878712Y-81149500D01*
X110878711Y-81149500D01*
X110638214Y-81181161D01*
X110403895Y-81243947D01*
X110179794Y-81336773D01*
X110179785Y-81336777D01*
X109969706Y-81458067D01*
X109777263Y-81605733D01*
X109777256Y-81605739D01*
X109605739Y-81777256D01*
X109605733Y-81777263D01*
X109458067Y-81969706D01*
X109336777Y-82179785D01*
X109336773Y-82179794D01*
X109243947Y-82403895D01*
X109181161Y-82638214D01*
X109149500Y-82878711D01*
X78850500Y-82878711D01*
X78818838Y-82638211D01*
X78756054Y-82403900D01*
X78663224Y-82179788D01*
X78541936Y-81969711D01*
X78481018Y-81890321D01*
X78394266Y-81777263D01*
X78394260Y-81777256D01*
X78222743Y-81605739D01*
X78222736Y-81605733D01*
X78030293Y-81458067D01*
X78030292Y-81458066D01*
X78030289Y-81458064D01*
X77858661Y-81358974D01*
X77820214Y-81336777D01*
X77820205Y-81336773D01*
X77596104Y-81243947D01*
X77425424Y-81198213D01*
X77361789Y-81181162D01*
X77361788Y-81181161D01*
X77361785Y-81181161D01*
X77121289Y-81149500D01*
X77121288Y-81149500D01*
X76878712Y-81149500D01*
X76878711Y-81149500D01*
X76638214Y-81181161D01*
X76403895Y-81243947D01*
X76179794Y-81336773D01*
X76179785Y-81336777D01*
X75969706Y-81458067D01*
X75777263Y-81605733D01*
X75777256Y-81605739D01*
X75605739Y-81777256D01*
X75605733Y-81777263D01*
X75458067Y-81969706D01*
X75336777Y-82179785D01*
X75336773Y-82179794D01*
X75243947Y-82403895D01*
X75181161Y-82638214D01*
X75149500Y-82878711D01*
X65507837Y-82878711D01*
X65508535Y-82867166D01*
X65518271Y-82706205D01*
X65520076Y-82691340D01*
X65523538Y-82672452D01*
X65571780Y-82409198D01*
X65575364Y-82394664D01*
X65660699Y-82120812D01*
X65665997Y-82106842D01*
X65783727Y-81845258D01*
X65790680Y-81832012D01*
X65927468Y-81605735D01*
X65939075Y-81586534D01*
X65947567Y-81574230D01*
X66124481Y-81348417D01*
X66134396Y-81337226D01*
X66337226Y-81134396D01*
X66348417Y-81124481D01*
X66574230Y-80947567D01*
X66586534Y-80939075D01*
X66832012Y-80790680D01*
X66845258Y-80783727D01*
X67106842Y-80665997D01*
X67120812Y-80660699D01*
X67394668Y-80575362D01*
X67409198Y-80571780D01*
X67691344Y-80520075D01*
X67706201Y-80518271D01*
X67996264Y-80500726D01*
X68003751Y-80500500D01*
X68065892Y-80500500D01*
X231934108Y-80500500D01*
X231996249Y-80500500D01*
X232003736Y-80500726D01*
G37*
%TD.AperFunction*%
%TD*%
M02*
