%TF.GenerationSoftware,KiCad,Pcbnew,10.0.3*%
%TF.CreationDate,2026-05-29T12:22:11+03:00*%
%TF.ProjectId,midi_pro_micro,6d696469-5f70-4726-9f5f-6d6963726f2e,rev?*%
%TF.SameCoordinates,Original*%
%TF.FileFunction,Paste,Top*%
%TF.FilePolarity,Positive*%
%FSLAX46Y46*%
G04 Gerber Fmt 4.6, Leading zero omitted, Abs format (unit mm)*
G04 Created by KiCad (PCBNEW 10.0.3) date 2026-05-29 12:22:11*
%MOMM*%
%LPD*%
G01*
G04 APERTURE LIST*
G04 Aperture macros list*
%AMRoundRect*
0 Rectangle with rounded corners*
0 $1 Rounding radius*
0 $2 $3 $4 $5 $6 $7 $8 $9 X,Y pos of 4 corners*
0 Add a 4 corners polygon primitive as box body*
4,1,4,$2,$3,$4,$5,$6,$7,$8,$9,$2,$3,0*
0 Add four circle primitives for the rounded corners*
1,1,$1+$1,$2,$3*
1,1,$1+$1,$4,$5*
1,1,$1+$1,$6,$7*
1,1,$1+$1,$8,$9*
0 Add four rect primitives between the rounded corners*
20,1,$1+$1,$2,$3,$4,$5,0*
20,1,$1+$1,$4,$5,$6,$7,0*
20,1,$1+$1,$6,$7,$8,$9,0*
20,1,$1+$1,$8,$9,$2,$3,0*%
G04 Aperture macros list end*
%ADD10RoundRect,0.250000X-0.450000X0.350000X-0.450000X-0.350000X0.450000X-0.350000X0.450000X0.350000X0*%
%ADD11RoundRect,0.250000X0.350000X0.450000X-0.350000X0.450000X-0.350000X-0.450000X0.350000X-0.450000X0*%
%ADD12RoundRect,0.250000X-0.350000X-0.450000X0.350000X-0.450000X0.350000X0.450000X-0.350000X0.450000X0*%
%ADD13RoundRect,0.250000X-0.250000X-0.250000X0.250000X-0.250000X0.250000X0.250000X-0.250000X0.250000X0*%
%ADD14RoundRect,0.250000X-0.250000X-0.475000X0.250000X-0.475000X0.250000X0.475000X-0.250000X0.475000X0*%
%ADD15RoundRect,0.150000X-0.725000X-0.150000X0.725000X-0.150000X0.725000X0.150000X-0.725000X0.150000X0*%
G04 APERTURE END LIST*
D10*
%TO.C,R12*%
X131490000Y-109420000D03*
X131490000Y-111420000D03*
%TD*%
%TO.C,R13*%
X145880000Y-109330000D03*
X145880000Y-111330000D03*
%TD*%
D11*
%TO.C,R16*%
X207450000Y-96200000D03*
X205450000Y-96200000D03*
%TD*%
D12*
%TO.C,R5*%
X134950000Y-99050000D03*
X136950000Y-99050000D03*
%TD*%
%TO.C,R8*%
X106550000Y-96200000D03*
X108550000Y-96200000D03*
%TD*%
%TO.C,R17*%
X167000000Y-110000000D03*
X169000000Y-110000000D03*
%TD*%
%TO.C,R10*%
X106600000Y-103800000D03*
X108600000Y-103800000D03*
%TD*%
D13*
%TO.C,D1*%
X164320000Y-98475000D03*
X166820000Y-98475000D03*
%TD*%
D11*
%TO.C,R18*%
X152910000Y-110390000D03*
X150910000Y-110390000D03*
%TD*%
D12*
%TO.C,R3*%
X158500000Y-98500000D03*
X160500000Y-98500000D03*
%TD*%
D11*
%TO.C,R14*%
X207450000Y-98750000D03*
X205450000Y-98750000D03*
%TD*%
%TO.C,R15*%
X207450000Y-101300000D03*
X205450000Y-101300000D03*
%TD*%
D12*
%TO.C,R4*%
X142950000Y-99050000D03*
X144950000Y-99050000D03*
%TD*%
%TO.C,R6*%
X106450000Y-88650000D03*
X108450000Y-88650000D03*
%TD*%
%TO.C,R19*%
X106650000Y-108900000D03*
X108650000Y-108900000D03*
%TD*%
D14*
%TO.C,C11*%
X140280000Y-107580000D03*
X142180000Y-107580000D03*
%TD*%
D15*
%TO.C,U2*%
X135080000Y-110370000D03*
X135080000Y-111640000D03*
X135080000Y-112910000D03*
X135080000Y-114180000D03*
X140230000Y-114180000D03*
X140230000Y-112910000D03*
X140230000Y-111640000D03*
X140230000Y-110370000D03*
%TD*%
M02*
