%TF.GenerationSoftware,KiCad,Pcbnew,10.0.3*%
%TF.CreationDate,2026-05-29T12:22:11+03:00*%
%TF.ProjectId,midi_pro_micro,6d696469-5f70-4726-9f5f-6d6963726f2e,rev?*%
%TF.SameCoordinates,Original*%
%TF.FileFunction,Copper,L1,Top*%
%TF.FilePolarity,Positive*%
%FSLAX46Y46*%
G04 Gerber Fmt 4.6, Leading zero omitted, Abs format (unit mm)*
G04 Created by KiCad (PCBNEW 10.0.3) date 2026-05-29 12:22:11*
%MOMM*%
%LPD*%
G01*
G04 APERTURE LIST*
G04 Aperture macros list*
%AMRoundRect*
0 Rectangle with rounded corners*
0 $1 Rounding radius*
0 $2 $3 $4 $5 $6 $7 $8 $9 X,Y pos of 4 corners*
0 Add a 4 corners polygon primitive as box body*
4,1,4,$2,$3,$4,$5,$6,$7,$8,$9,$2,$3,0*
0 Add four circle primitives for the rounded corners*
1,1,$1+$1,$2,$3*
1,1,$1+$1,$4,$5*
1,1,$1+$1,$6,$7*
1,1,$1+$1,$8,$9*
0 Add four rect primitives between the rounded corners*
20,1,$1+$1,$2,$3,$4,$5,0*
20,1,$1+$1,$4,$5,$6,$7,0*
20,1,$1+$1,$6,$7,$8,$9,0*
20,1,$1+$1,$8,$9,$2,$3,0*%
G04 Aperture macros list end*
%TA.AperFunction,SMDPad,CuDef*%
%ADD10RoundRect,0.250000X-0.450000X0.350000X-0.450000X-0.350000X0.450000X-0.350000X0.450000X0.350000X0*%
%TD*%
%TA.AperFunction,SMDPad,CuDef*%
%ADD11RoundRect,0.250000X0.350000X0.450000X-0.350000X0.450000X-0.350000X-0.450000X0.350000X-0.450000X0*%
%TD*%
%TA.AperFunction,SMDPad,CuDef*%
%ADD12RoundRect,0.250000X-0.350000X-0.450000X0.350000X-0.450000X0.350000X0.450000X-0.350000X0.450000X0*%
%TD*%
%TA.AperFunction,ComponentPad*%
%ADD13R,1.500000X1.500000*%
%TD*%
%TA.AperFunction,ComponentPad*%
%ADD14C,1.500000*%
%TD*%
%TA.AperFunction,ComponentPad*%
%ADD15RoundRect,0.250000X-0.350000X-0.625000X0.350000X-0.625000X0.350000X0.625000X-0.350000X0.625000X0*%
%TD*%
%TA.AperFunction,ComponentPad*%
%ADD16O,1.200000X1.750000*%
%TD*%
%TA.AperFunction,SMDPad,CuDef*%
%ADD17RoundRect,0.250000X-0.250000X-0.250000X0.250000X-0.250000X0.250000X0.250000X-0.250000X0.250000X0*%
%TD*%
%TA.AperFunction,ComponentPad*%
%ADD18RoundRect,0.250000X-0.550000X0.550000X-0.550000X-0.550000X0.550000X-0.550000X0.550000X0.550000X0*%
%TD*%
%TA.AperFunction,ComponentPad*%
%ADD19C,1.600000*%
%TD*%
%TA.AperFunction,ComponentPad*%
%ADD20R,1.700000X1.700000*%
%TD*%
%TA.AperFunction,ComponentPad*%
%ADD21C,1.700000*%
%TD*%
%TA.AperFunction,ComponentPad*%
%ADD22O,3.000000X2.300000*%
%TD*%
%TA.AperFunction,ComponentPad*%
%ADD23O,2.000000X2.600000*%
%TD*%
%TA.AperFunction,SMDPad,CuDef*%
%ADD24RoundRect,0.250000X-0.250000X-0.475000X0.250000X-0.475000X0.250000X0.475000X-0.250000X0.475000X0*%
%TD*%
%TA.AperFunction,SMDPad,CuDef*%
%ADD25RoundRect,0.150000X-0.725000X-0.150000X0.725000X-0.150000X0.725000X0.150000X-0.725000X0.150000X0*%
%TD*%
%TA.AperFunction,ViaPad*%
%ADD26C,0.600000*%
%TD*%
%TA.AperFunction,Conductor*%
%ADD27C,0.400000*%
%TD*%
%TA.AperFunction,Conductor*%
%ADD28C,0.200000*%
%TD*%
G04 APERTURE END LIST*
D10*
%TO.P,R12,1*%
%TO.N,+5V*%
X131490000Y-109420000D03*
%TO.P,R12,2*%
%TO.N,Net-(U2-~{WP})*%
X131490000Y-111420000D03*
%TD*%
%TO.P,R13,1*%
%TO.N,+5V*%
X145880000Y-109330000D03*
%TO.P,R13,2*%
%TO.N,Net-(U2-~{HOLD})*%
X145880000Y-111330000D03*
%TD*%
D11*
%TO.P,R16,1*%
%TO.N,+5V*%
X207450000Y-96200000D03*
%TO.P,R16,2*%
%TO.N,OK_BTN*%
X205450000Y-96200000D03*
%TD*%
D12*
%TO.P,R5,1*%
%TO.N,Net-(J2-Pad4)*%
X134950000Y-99050000D03*
%TO.P,R5,2*%
%TO.N,+5V*%
X136950000Y-99050000D03*
%TD*%
%TO.P,R8,1*%
%TO.N,+5V*%
X106550000Y-96200000D03*
%TO.P,R8,2*%
%TO.N,LEFT_BTN*%
X108550000Y-96200000D03*
%TD*%
D13*
%TO.P,U1,1,0\u002CD3\u002CTX_1*%
%TO.N,TX*%
X172430000Y-83780000D03*
D14*
%TO.P,U1,2,1\u002CD2\u002CRX_2*%
%TO.N,RX*%
X172430000Y-86320000D03*
%TO.P,U1,3,GND_3*%
%TO.N,unconnected-(U1-GND-Pad3)*%
X172430000Y-88860000D03*
%TO.P,U1,4,GND_4*%
%TO.N,unconnected-(U1-GND-Pad4)*%
X172430000Y-91400000D03*
%TO.P,U1,5,2\u002CD1\u002CSDA_5*%
%TO.N,UP_LED*%
X172430000Y-93940000D03*
%TO.P,U1,6,3\u002CD0\u002CSCL_6*%
%TO.N,UP_BTN*%
X172430000Y-96480000D03*
%TO.P,U1,7,4\u002CA6\u002CD4_7*%
%TO.N,LEFT_LED*%
X172430000Y-99020000D03*
%TO.P,U1,8,5\u002CC6_8*%
%TO.N,LEFT_BTN*%
X172430000Y-101560000D03*
%TO.P,U1,9,6\u002CA7\u002CD7_9*%
%TO.N,DOWN_BTN*%
X172430000Y-104100000D03*
%TO.P,U1,10,7\u002CE6_10*%
%TO.N,DOWN_LED*%
X172430000Y-106640000D03*
%TO.P,U1,11,8\u002CA8\u002CB4_11*%
%TO.N,ENC_A*%
X172430000Y-109180000D03*
%TO.P,U1,12,9\u002CA9\u002CB5_12*%
%TO.N,ENC_B*%
X172430000Y-111720000D03*
%TO.P,U1,13,B6\u002CA10\u002C10_13*%
%TO.N,OK_BTN*%
X187670000Y-111720000D03*
%TO.P,U1,14,B2\u002C16_14*%
%TO.N,MOSI*%
X187670000Y-109180000D03*
%TO.P,U1,15,B3\u002C14_15*%
%TO.N,MISO*%
X187670000Y-106640000D03*
%TO.P,U1,16,B1\u002C15_16*%
%TO.N,SCK*%
X187670000Y-104100000D03*
%TO.P,U1,17,F7\u002CA0\u002C18_17*%
%TO.N,OLED_CS*%
X187670000Y-101560000D03*
%TO.P,U1,18,F6\u002CA1\u002C19_18*%
%TO.N,EEPROM_CS*%
X187670000Y-99020000D03*
%TO.P,U1,19,F5\u002CA2\u002C20_19*%
%TO.N,OK_LED*%
X187670000Y-96480000D03*
%TO.P,U1,20,F4\u002CA3\u002C21_20*%
%TO.N,RIGHT_BTN*%
X187670000Y-93940000D03*
%TO.P,U1,21,VCC_21*%
%TO.N,+5V*%
X187670000Y-91400000D03*
%TO.P,U1,22,RST_22*%
%TO.N,unconnected-(U1-RST-Pad22)*%
X187670000Y-88860000D03*
%TO.P,U1,23,GND_23*%
%TO.N,unconnected-(U1-GND-Pad23)*%
X187670000Y-86320000D03*
%TO.P,U1,24,RAW_24*%
%TO.N,unconnected-(U1-RAW-Pad24)*%
X187670000Y-83780000D03*
%TD*%
D12*
%TO.P,R17,1*%
%TO.N,+5V*%
X167000000Y-110000000D03*
%TO.P,R17,2*%
%TO.N,RX*%
X169000000Y-110000000D03*
%TD*%
%TO.P,R10,1*%
%TO.N,+5V*%
X106600000Y-103800000D03*
%TO.P,R10,2*%
%TO.N,RIGHT_BTN*%
X108600000Y-103800000D03*
%TD*%
D15*
%TO.P,J7,1,Pin_1_1*%
%TO.N,GND*%
X126210000Y-115250000D03*
D16*
%TO.P,J7,2,Pin_2_2*%
%TO.N,+5V*%
X128210000Y-115250000D03*
%TD*%
D17*
%TO.P,D1,1,K_1*%
%TO.N,Net-(D1-K)*%
X164320000Y-98475000D03*
%TO.P,D1,2,A_2*%
%TO.N,Net-(D1-A)*%
X166820000Y-98475000D03*
%TD*%
D18*
%TO.P,U3,1,NC_1*%
%TO.N,unconnected-(U3-NC-Pad1)*%
X163990000Y-102430000D03*
D19*
%TO.P,U3,2,C1_2*%
%TO.N,Net-(D1-K)*%
X161450000Y-102430000D03*
%TO.P,U3,3,C2_3*%
%TO.N,Net-(D1-A)*%
X158910000Y-102430000D03*
%TO.P,U3,4,NC_4*%
%TO.N,unconnected-(U3-NC-Pad4)*%
X156370000Y-102430000D03*
%TO.P,U3,5,GND_5*%
%TO.N,GND*%
X156370000Y-110050000D03*
%TO.P,U3,6,VO2_6*%
%TO.N,RX*%
X158910000Y-110050000D03*
%TO.P,U3,7,VO1_7*%
%TO.N,Net-(U3-VO1)*%
X161450000Y-110050000D03*
%TO.P,U3,8,VCC_8*%
%TO.N,+5V*%
X163990000Y-110050000D03*
%TD*%
D20*
%TO.P,J6,1,Pin_1_1*%
%TO.N,OK_BTN*%
X200000000Y-96190000D03*
D21*
%TO.P,J6,2,Pin_2_2*%
%TO.N,ENC_A*%
X200000000Y-98730000D03*
%TO.P,J6,3,Pin_3_3*%
%TO.N,ENC_B*%
X200000000Y-101270000D03*
%TO.P,J6,4,Pin_4_4*%
%TO.N,GND*%
X200000000Y-103810000D03*
%TD*%
D20*
%TO.P,J3,1,Pin_1_1*%
%TO.N,UP_LED*%
X114500000Y-86030000D03*
D21*
%TO.P,J3,2,Pin_2_2*%
%TO.N,UP_BTN*%
X114500000Y-88570000D03*
%TO.P,J3,3,Pin_3_3*%
%TO.N,LEFT_LED*%
X114500000Y-91110000D03*
%TO.P,J3,4,Pin_4_4*%
X114500000Y-93650000D03*
%TO.P,J3,5,Pin_5_5*%
%TO.N,LEFT_BTN*%
X114500000Y-96190000D03*
%TO.P,J3,6,Pin_6_6*%
%TO.N,GND*%
X114500000Y-98730000D03*
%TO.P,J3,7,Pin_7_7*%
%TO.N,OK_BTN*%
X114500000Y-101270000D03*
%TO.P,J3,8,Pin_8_8*%
%TO.N,RIGHT_BTN*%
X114500000Y-103810000D03*
%TO.P,J3,9,Pin_9_9*%
%TO.N,OK_LED*%
X114500000Y-106350000D03*
%TO.P,J3,10,Pin_10_10*%
%TO.N,DOWN_BTN*%
X114500000Y-108890000D03*
%TO.P,J3,11,Pin_11_11*%
%TO.N,DOWN_LED*%
X114500000Y-111430000D03*
%TO.P,J3,12,Pin_12_12*%
%TO.N,GND*%
X114500000Y-113970000D03*
%TD*%
D11*
%TO.P,R18,1*%
%TO.N,Net-(U3-VO1)*%
X152910000Y-110390000D03*
%TO.P,R18,2*%
%TO.N,GND*%
X150910000Y-110390000D03*
%TD*%
D12*
%TO.P,R3,1*%
%TO.N,Net-(J1-Pad4)*%
X158500000Y-98500000D03*
%TO.P,R3,2*%
%TO.N,Net-(D1-K)*%
X160500000Y-98500000D03*
%TD*%
D11*
%TO.P,R14,1*%
%TO.N,+5V*%
X207450000Y-98750000D03*
%TO.P,R14,2*%
%TO.N,ENC_A*%
X205450000Y-98750000D03*
%TD*%
D15*
%TO.P,J5,1,Pin_1_1*%
%TO.N,SCK*%
X155150000Y-115660000D03*
D16*
%TO.P,J5,2,Pin_2_2*%
%TO.N,MISO*%
X157150000Y-115660000D03*
%TO.P,J5,3,Pin_3_3*%
%TO.N,MOSI*%
X159150000Y-115660000D03*
%TO.P,J5,4,Pin_4_4*%
%TO.N,unconnected-(J5-Pin_4-Pad4)*%
X161150000Y-115660000D03*
%TO.P,J5,5,Pin_5_5*%
%TO.N,OLED_CS*%
X163150000Y-115660000D03*
%TD*%
D11*
%TO.P,R15,1*%
%TO.N,+5V*%
X207450000Y-101300000D03*
%TO.P,R15,2*%
%TO.N,ENC_B*%
X205450000Y-101300000D03*
%TD*%
D12*
%TO.P,R4,1*%
%TO.N,TX*%
X142950000Y-99050000D03*
%TO.P,R4,2*%
%TO.N,Net-(J2-Pad5)*%
X144950000Y-99050000D03*
%TD*%
%TO.P,R6,1*%
%TO.N,+5V*%
X106450000Y-88650000D03*
%TO.P,R6,2*%
%TO.N,UP_BTN*%
X108450000Y-88650000D03*
%TD*%
%TO.P,R19,1*%
%TO.N,+5V*%
X106650000Y-108900000D03*
%TO.P,R19,2*%
%TO.N,DOWN_BTN*%
X108650000Y-108900000D03*
%TD*%
D22*
%TO.P,J2,*%
%TO.N,*%
X135000000Y-82450000D03*
X137500000Y-82450000D03*
X142500000Y-82450000D03*
X145000000Y-82450000D03*
D23*
%TO.P,J2,1*%
%TO.N,unconnected-(J2-Pad1)*%
X132500000Y-92450000D03*
%TO.P,J2,2*%
%TO.N,GND*%
X140000000Y-92450000D03*
%TO.P,J2,3*%
%TO.N,unconnected-(J2-Pad3)*%
X147500000Y-92450000D03*
%TO.P,J2,4*%
%TO.N,Net-(J2-Pad4)*%
X135000000Y-94950000D03*
%TO.P,J2,5*%
%TO.N,Net-(J2-Pad5)*%
X145000000Y-94950000D03*
%TD*%
D22*
%TO.P,J1,*%
%TO.N,*%
X155000000Y-82450000D03*
X157500000Y-82450000D03*
X162500000Y-82450000D03*
X165000000Y-82450000D03*
D23*
%TO.P,J1,1*%
%TO.N,unconnected-(J1-Pad1)*%
X152500000Y-92450000D03*
%TO.P,J1,2*%
%TO.N,unconnected-(J1-Pad2)*%
X160000000Y-92450000D03*
%TO.P,J1,3*%
%TO.N,unconnected-(J1-Pad3)*%
X167500000Y-92450000D03*
%TO.P,J1,4*%
%TO.N,Net-(J1-Pad4)*%
X155000000Y-94950000D03*
%TO.P,J1,5*%
%TO.N,Net-(D1-A)*%
X165000000Y-94950000D03*
%TD*%
D24*
%TO.P,C11,1*%
%TO.N,+5V*%
X140280000Y-107580000D03*
%TO.P,C11,2*%
%TO.N,GND*%
X142180000Y-107580000D03*
%TD*%
D25*
%TO.P,U2,1,~{CS}_1*%
%TO.N,EEPROM_CS*%
X135080000Y-110370000D03*
%TO.P,U2,2,MISO_2*%
%TO.N,MISO*%
X135080000Y-111640000D03*
%TO.P,U2,3,~{WP}_3*%
%TO.N,Net-(U2-~{WP})*%
X135080000Y-112910000D03*
%TO.P,U2,4,GND_4*%
%TO.N,GND*%
X135080000Y-114180000D03*
%TO.P,U2,5,MOSI_5*%
%TO.N,MOSI*%
X140230000Y-114180000D03*
%TO.P,U2,6,SCK_6*%
%TO.N,SCK*%
X140230000Y-112910000D03*
%TO.P,U2,7,~{HOLD}_7*%
%TO.N,Net-(U2-~{HOLD})*%
X140230000Y-111640000D03*
%TO.P,U2,8,VCC_8*%
%TO.N,+5V*%
X140230000Y-110370000D03*
%TD*%
D26*
%TO.N,RX*%
X175360000Y-101570000D03*
%TO.N,OLED_CS*%
X179930000Y-109290000D03*
%TO.N,EEPROM_CS*%
X136420000Y-108980000D03*
%TO.N,GND*%
X135320000Y-118730000D03*
X192680000Y-98360000D03*
X148940000Y-111230000D03*
X119780000Y-94570000D03*
X111420000Y-107520000D03*
X178180000Y-115950000D03*
X167610000Y-114540000D03*
X184070000Y-96300000D03*
X182510000Y-111270000D03*
X169020000Y-94050000D03*
X202900000Y-94250000D03*
X161640000Y-108120000D03*
X111780000Y-86580000D03*
X185410000Y-109790000D03*
X180570000Y-114160000D03*
X150670000Y-114250000D03*
X137620000Y-110760000D03*
X111620000Y-90040000D03*
X145750000Y-104920000D03*
X147730000Y-85640000D03*
X170580000Y-96370000D03*
X180350000Y-105920000D03*
X145530000Y-118680000D03*
X110270000Y-101090000D03*
X174400000Y-97720000D03*
X127120000Y-94620000D03*
X120550000Y-110450000D03*
X174400000Y-92820000D03*
X144120000Y-108150000D03*
X136850000Y-104840000D03*
X179480000Y-100890000D03*
X108710000Y-85960000D03*
X111470000Y-110880000D03*
X152130000Y-105020000D03*
X195900000Y-94380000D03*
X117520000Y-112710000D03*
X164280000Y-90030000D03*
X184360000Y-101910000D03*
X136270000Y-92090000D03*
X138840000Y-115710000D03*
X110320000Y-104830000D03*
X175360000Y-104850000D03*
X190900000Y-94250000D03*
X112430000Y-94700000D03*
X144190000Y-114210000D03*
X131850000Y-115460000D03*
X140040000Y-98910000D03*
X142210000Y-110380000D03*
X108500000Y-92060000D03*
X109310000Y-98250000D03*
X148220000Y-110050000D03*
X111860000Y-102670000D03*
X172820000Y-114540000D03*
X176790000Y-110280000D03*
X148130000Y-108050000D03*
X191030000Y-102680000D03*
X133840000Y-108710000D03*
X125240000Y-85740000D03*
%TD*%
%TO.N,+5V*%
D27*
X106450000Y-108700000D02*
X106650000Y-108900000D01*
X141440000Y-103710000D02*
X141455000Y-103695000D01*
X202650000Y-91400000D02*
X207450000Y-96200000D01*
X106610000Y-99980000D02*
X132200000Y-99980000D01*
X171110000Y-100190000D02*
X167590000Y-103710000D01*
X178880000Y-100190000D02*
X171110000Y-100190000D01*
X141130000Y-103710000D02*
X141440000Y-103710000D01*
X140230000Y-107630000D02*
X140280000Y-107580000D01*
X187670000Y-91400000D02*
X178880000Y-100190000D01*
X145880000Y-108120000D02*
X141455000Y-103695000D01*
X136950000Y-99190000D02*
X136950000Y-99050000D01*
X145880000Y-109330000D02*
X145880000Y-108120000D01*
X207450000Y-96200000D02*
X207450000Y-101300000D01*
X106450000Y-99820000D02*
X106610000Y-99980000D01*
X135930000Y-103710000D02*
X141130000Y-103710000D01*
X167000000Y-110000000D02*
X164040000Y-110000000D01*
X131490000Y-109420000D02*
X131490000Y-108150000D01*
X140280000Y-107580000D02*
X140280000Y-104870000D01*
X163990000Y-107310000D02*
X167590000Y-103710000D01*
X163990000Y-110050000D02*
X163990000Y-107310000D01*
X140230000Y-110370000D02*
X140230000Y-107630000D01*
X106450000Y-88650000D02*
X106450000Y-99820000D01*
X128210000Y-112700000D02*
X131490000Y-109420000D01*
X106450000Y-99820000D02*
X106450000Y-108700000D01*
X132200000Y-99980000D02*
X135930000Y-103710000D01*
X128210000Y-115250000D02*
X128210000Y-112700000D01*
X140280000Y-104870000D02*
X141440000Y-103710000D01*
X187670000Y-91400000D02*
X202650000Y-91400000D01*
X164040000Y-110000000D02*
X163990000Y-110050000D01*
X141455000Y-103695000D02*
X136950000Y-99190000D01*
X141130000Y-103710000D02*
X167590000Y-103710000D01*
X131490000Y-108150000D02*
X135930000Y-103710000D01*
%TO.N,Net-(U2-~{WP})*%
D28*
X135080000Y-112910000D02*
X132980000Y-112910000D01*
X132980000Y-112910000D02*
X131490000Y-111420000D01*
%TO.N,Net-(U2-~{HOLD})*%
X140230000Y-111640000D02*
X145570000Y-111640000D01*
X145570000Y-111640000D02*
X145880000Y-111330000D01*
%TO.N,OK_BTN*%
X195670000Y-103720000D02*
X187670000Y-111720000D01*
X122000000Y-115560000D02*
X122000000Y-115350000D01*
X122000000Y-108770000D02*
X114500000Y-101270000D01*
X198850000Y-97340000D02*
X198840000Y-97340000D01*
X182050000Y-117340000D02*
X123780000Y-117340000D01*
X122000000Y-115500000D02*
X122000000Y-115350000D01*
X200010000Y-96200000D02*
X200000000Y-96190000D01*
X122000000Y-115350000D02*
X122000000Y-108770000D01*
X205450000Y-96200000D02*
X200010000Y-96200000D01*
X200000000Y-96190000D02*
X198850000Y-97340000D01*
X198840000Y-97340000D02*
X195670000Y-100510000D01*
X123780000Y-117340000D02*
X122000000Y-115560000D01*
X187670000Y-111720000D02*
X182050000Y-117340000D01*
X195670000Y-100510000D02*
X195670000Y-103720000D01*
%TO.N,Net-(J2-Pad4)*%
X135000000Y-99000000D02*
X134950000Y-99050000D01*
X135000000Y-94950000D02*
X135000000Y-99000000D01*
%TO.N,LEFT_BTN*%
X108560000Y-96190000D02*
X108550000Y-96200000D01*
X114500000Y-96190000D02*
X108560000Y-96190000D01*
%TO.N,TX*%
X172310000Y-83900000D02*
X172430000Y-83780000D01*
X142950000Y-94861522D02*
X153911522Y-83900000D01*
X142950000Y-99050000D02*
X142950000Y-94861522D01*
X153911522Y-83900000D02*
X172310000Y-83900000D01*
%TO.N,RX*%
X160010000Y-111150000D02*
X167850000Y-111150000D01*
X158910000Y-110050000D02*
X160010000Y-111150000D01*
X171380000Y-105590000D02*
X169000000Y-107970000D01*
X167850000Y-111150000D02*
X169000000Y-110000000D01*
X175360000Y-103590000D02*
X173360000Y-105590000D01*
X175360000Y-101570000D02*
X175360000Y-103590000D01*
X169000000Y-107970000D02*
X169000000Y-110000000D01*
X173360000Y-105590000D02*
X171380000Y-105590000D01*
%TO.N,UP_BTN*%
X114500000Y-88570000D02*
X108530000Y-88570000D01*
X108530000Y-88570000D02*
X108450000Y-88650000D01*
%TO.N,DOWN_BTN*%
X108660000Y-108890000D02*
X108650000Y-108900000D01*
X114500000Y-108890000D02*
X108660000Y-108890000D01*
%TO.N,ENC_A*%
X205450000Y-98750000D02*
X200020000Y-98750000D01*
X200020000Y-98750000D02*
X200000000Y-98730000D01*
%TO.N,ENC_B*%
X205450000Y-101300000D02*
X200030000Y-101300000D01*
X200030000Y-101300000D02*
X200000000Y-101270000D01*
%TO.N,MOSI*%
X140230000Y-114180000D02*
X142885000Y-116835000D01*
X142885000Y-116835000D02*
X157975000Y-116835000D01*
X157975000Y-116835000D02*
X159150000Y-115660000D01*
X179980000Y-116870000D02*
X187670000Y-109180000D01*
X160360000Y-116870000D02*
X179980000Y-116870000D01*
X159150000Y-115660000D02*
X160360000Y-116870000D01*
%TO.N,MISO*%
X178500000Y-113500000D02*
X159310000Y-113500000D01*
X159310000Y-113500000D02*
X157150000Y-115660000D01*
X185360000Y-106640000D02*
X178500000Y-113500000D01*
X135080000Y-111640000D02*
X135680000Y-112240000D01*
X135680000Y-112240000D02*
X153730000Y-112240000D01*
X187670000Y-106640000D02*
X185360000Y-106640000D01*
X153730000Y-112240000D02*
X157150000Y-115660000D01*
%TO.N,SCK*%
X140230000Y-112910000D02*
X152400000Y-112910000D01*
X152400000Y-112910000D02*
X155150000Y-115660000D01*
%TO.N,OLED_CS*%
X180990000Y-108230000D02*
X181000000Y-108230000D01*
X179930000Y-109290000D02*
X180990000Y-108230000D01*
X181000000Y-108230000D02*
X187670000Y-101560000D01*
%TO.N,EEPROM_CS*%
X136420000Y-109030000D02*
X135080000Y-110370000D01*
X136420000Y-108980000D02*
X136420000Y-109030000D01*
%TO.N,RIGHT_BTN*%
X108610000Y-103810000D02*
X108600000Y-103800000D01*
X114500000Y-103810000D02*
X108610000Y-103810000D01*
%TO.N,Net-(D1-K)*%
X161450000Y-102430000D02*
X161450000Y-99450000D01*
X164320000Y-98475000D02*
X160525000Y-98475000D01*
X161450000Y-99450000D02*
X160500000Y-98500000D01*
X160525000Y-98475000D02*
X160500000Y-98500000D01*
%TO.N,Net-(D1-A)*%
X166820000Y-96770000D02*
X165000000Y-94950000D01*
X166820000Y-98475000D02*
X166820000Y-96770000D01*
%TO.N,Net-(U3-VO1)*%
X160350000Y-108950000D02*
X154350000Y-108950000D01*
X154350000Y-108950000D02*
X152910000Y-110390000D01*
X161450000Y-110050000D02*
X160350000Y-108950000D01*
%TO.N,Net-(J1-Pad4)*%
X155000000Y-94950000D02*
X158500000Y-98450000D01*
X158500000Y-98450000D02*
X158500000Y-98500000D01*
%TO.N,Net-(J2-Pad5)*%
X145000000Y-99000000D02*
X144950000Y-99050000D01*
X145000000Y-94950000D02*
X145000000Y-99000000D01*
%TD*%
%TA.AperFunction,Conductor*%
%TO.N,GND*%
G36*
X131925520Y-100700185D02*
G01*
X131946162Y-100716819D01*
X134851661Y-103622318D01*
X134885146Y-103683641D01*
X134880162Y-103753333D01*
X134851661Y-103797680D01*
X130945887Y-107703454D01*
X130869222Y-107818192D01*
X130816421Y-107945667D01*
X130816418Y-107945679D01*
X130797439Y-108041094D01*
X130797438Y-108041097D01*
X130795468Y-108051006D01*
X130789500Y-108081007D01*
X130789500Y-108276173D01*
X130789429Y-108278276D01*
X130779092Y-108309535D01*
X130769815Y-108341130D01*
X130768169Y-108342567D01*
X130767493Y-108344613D01*
X130744952Y-108362849D01*
X130725731Y-108379641D01*
X130726813Y-108381395D01*
X130720667Y-108385185D01*
X130720666Y-108385186D01*
X130690916Y-108403536D01*
X130571342Y-108477289D01*
X130447289Y-108601342D01*
X130355187Y-108750663D01*
X130355185Y-108750668D01*
X130342759Y-108788167D01*
X130300001Y-108917203D01*
X130300001Y-108917204D01*
X130300000Y-108917204D01*
X130289500Y-109019983D01*
X130289500Y-109578480D01*
X130269815Y-109645519D01*
X130253181Y-109666161D01*
X127665888Y-112253453D01*
X127665887Y-112253454D01*
X127589222Y-112368192D01*
X127536421Y-112495667D01*
X127536421Y-112495669D01*
X127536420Y-112495672D01*
X127518474Y-112585894D01*
X127513987Y-112608450D01*
X127509500Y-112631006D01*
X127509500Y-114067795D01*
X127500855Y-114097234D01*
X127494332Y-114127222D01*
X127490577Y-114132237D01*
X127489815Y-114134834D01*
X127473182Y-114155476D01*
X127473181Y-114155477D01*
X127385166Y-114243491D01*
X127323842Y-114276975D01*
X127254151Y-114271991D01*
X127198217Y-114230119D01*
X127191946Y-114220906D01*
X127152315Y-114156654D01*
X127028345Y-114032684D01*
X126879124Y-113940643D01*
X126879119Y-113940641D01*
X126712697Y-113885494D01*
X126712690Y-113885493D01*
X126609986Y-113875000D01*
X126460000Y-113875000D01*
X126460000Y-114969670D01*
X126440255Y-114949925D01*
X126354745Y-114900556D01*
X126259370Y-114875000D01*
X126160630Y-114875000D01*
X126065255Y-114900556D01*
X125979745Y-114949925D01*
X125960000Y-114969670D01*
X125960000Y-113875000D01*
X125810027Y-113875000D01*
X125810012Y-113875001D01*
X125707302Y-113885494D01*
X125540880Y-113940641D01*
X125540875Y-113940643D01*
X125391654Y-114032684D01*
X125267684Y-114156654D01*
X125175643Y-114305875D01*
X125175641Y-114305880D01*
X125120494Y-114472302D01*
X125120493Y-114472309D01*
X125110000Y-114575013D01*
X125110000Y-115000000D01*
X125929670Y-115000000D01*
X125909925Y-115019745D01*
X125860556Y-115105255D01*
X125835000Y-115200630D01*
X125835000Y-115299370D01*
X125860556Y-115394745D01*
X125909925Y-115480255D01*
X125929670Y-115500000D01*
X125110001Y-115500000D01*
X125110001Y-115924986D01*
X125120494Y-116027697D01*
X125175641Y-116194119D01*
X125175643Y-116194124D01*
X125267684Y-116343345D01*
X125391654Y-116467315D01*
X125460794Y-116509961D01*
X125507518Y-116561909D01*
X125518741Y-116630872D01*
X125490897Y-116694954D01*
X125432829Y-116733810D01*
X125395697Y-116739500D01*
X124080097Y-116739500D01*
X124013058Y-116719815D01*
X123992416Y-116703181D01*
X122636819Y-115347584D01*
X122603334Y-115286261D01*
X122600500Y-115259903D01*
X122600500Y-108859060D01*
X122600501Y-108859047D01*
X122600501Y-108690944D01*
X122594410Y-108668211D01*
X122559577Y-108538216D01*
X122551712Y-108524594D01*
X122480524Y-108401290D01*
X122480518Y-108401282D01*
X119159236Y-105080000D01*
X115833756Y-101754521D01*
X115800272Y-101693199D01*
X115803507Y-101628523D01*
X115817246Y-101586243D01*
X115850500Y-101376287D01*
X115850500Y-101163713D01*
X115817246Y-100953757D01*
X115781198Y-100842816D01*
X115779204Y-100772977D01*
X115815284Y-100713144D01*
X115877985Y-100682316D01*
X115899130Y-100680500D01*
X131858481Y-100680500D01*
X131925520Y-100700185D01*
G37*
%TD.AperFunction*%
%TA.AperFunction,Conductor*%
G36*
X130197016Y-111785127D02*
G01*
X130216638Y-111786531D01*
X130229429Y-111796106D01*
X130244563Y-111801233D01*
X130256824Y-111816615D01*
X130272571Y-111828403D01*
X130278665Y-111844013D01*
X130288115Y-111855868D01*
X130296662Y-111890111D01*
X130300001Y-111922797D01*
X130300001Y-111922799D01*
X130354329Y-112086747D01*
X130355186Y-112089334D01*
X130447288Y-112238656D01*
X130571344Y-112362712D01*
X130720666Y-112454814D01*
X130887203Y-112509999D01*
X130989991Y-112520500D01*
X131689902Y-112520499D01*
X131756941Y-112540183D01*
X131777583Y-112556818D01*
X132495139Y-113274374D01*
X132495149Y-113274385D01*
X132499479Y-113278715D01*
X132499480Y-113278716D01*
X132611284Y-113390520D01*
X132698095Y-113440639D01*
X132698097Y-113440641D01*
X132745537Y-113468031D01*
X132748215Y-113469577D01*
X132900942Y-113510500D01*
X132900943Y-113510500D01*
X133689674Y-113510500D01*
X133756713Y-113530185D01*
X133802468Y-113582989D01*
X133812412Y-113652147D01*
X133796406Y-113697621D01*
X133753718Y-113769801D01*
X133707899Y-113927513D01*
X133707704Y-113929998D01*
X133707705Y-113930000D01*
X136452295Y-113930000D01*
X136452295Y-113929998D01*
X136452100Y-113927513D01*
X136406281Y-113769801D01*
X136322685Y-113628447D01*
X136317900Y-113622278D01*
X136320366Y-113620364D01*
X136293802Y-113571776D01*
X136298749Y-113502082D01*
X136319856Y-113469232D01*
X136318301Y-113468026D01*
X136323077Y-113461868D01*
X136323081Y-113461865D01*
X136406744Y-113320398D01*
X136447196Y-113181162D01*
X136452597Y-113162573D01*
X136452598Y-113162567D01*
X136455500Y-113125694D01*
X136455500Y-112964500D01*
X136475185Y-112897461D01*
X136527989Y-112851706D01*
X136579500Y-112840500D01*
X138730500Y-112840500D01*
X138797539Y-112860185D01*
X138843294Y-112912989D01*
X138854500Y-112964500D01*
X138854500Y-113125701D01*
X138857401Y-113162567D01*
X138857402Y-113162573D01*
X138903254Y-113320393D01*
X138903255Y-113320396D01*
X138903256Y-113320398D01*
X138940681Y-113383681D01*
X138986917Y-113461862D01*
X138991702Y-113468031D01*
X138989256Y-113469927D01*
X139015857Y-113518642D01*
X139010873Y-113588334D01*
X138990069Y-113620703D01*
X138991702Y-113621969D01*
X138986917Y-113628137D01*
X138903255Y-113769603D01*
X138903254Y-113769606D01*
X138857402Y-113927426D01*
X138857401Y-113927432D01*
X138854500Y-113964298D01*
X138854500Y-114395701D01*
X138857401Y-114432567D01*
X138857402Y-114432573D01*
X138903254Y-114590393D01*
X138903255Y-114590396D01*
X138986917Y-114731862D01*
X138986923Y-114731870D01*
X139103129Y-114848076D01*
X139103133Y-114848079D01*
X139103135Y-114848081D01*
X139244602Y-114931744D01*
X139286224Y-114943836D01*
X139402426Y-114977597D01*
X139402429Y-114977597D01*
X139402431Y-114977598D01*
X139439306Y-114980500D01*
X140129903Y-114980500D01*
X140196942Y-115000185D01*
X140217584Y-115016819D01*
X141728584Y-116527819D01*
X141762069Y-116589142D01*
X141757085Y-116658834D01*
X141715213Y-116714767D01*
X141649749Y-116739184D01*
X141640903Y-116739500D01*
X128766966Y-116739500D01*
X128699927Y-116719815D01*
X128654172Y-116667011D01*
X128644228Y-116597853D01*
X128673253Y-116534297D01*
X128710672Y-116505015D01*
X128786786Y-116466233D01*
X128786785Y-116466233D01*
X128786788Y-116466232D01*
X128926928Y-116364414D01*
X129049414Y-116241928D01*
X129151232Y-116101788D01*
X129229873Y-115947445D01*
X129283402Y-115782701D01*
X129310500Y-115611611D01*
X129310500Y-114888389D01*
X129283402Y-114717299D01*
X129229873Y-114552555D01*
X129167429Y-114430001D01*
X133707704Y-114430001D01*
X133707899Y-114432486D01*
X133753718Y-114590198D01*
X133837314Y-114731552D01*
X133837321Y-114731561D01*
X133953438Y-114847678D01*
X133953447Y-114847685D01*
X134094803Y-114931282D01*
X134094806Y-114931283D01*
X134252504Y-114977099D01*
X134252510Y-114977100D01*
X134289350Y-114979999D01*
X134289366Y-114980000D01*
X134830000Y-114980000D01*
X135330000Y-114980000D01*
X135870634Y-114980000D01*
X135870649Y-114979999D01*
X135907489Y-114977100D01*
X135907495Y-114977099D01*
X136065193Y-114931283D01*
X136065196Y-114931282D01*
X136206552Y-114847685D01*
X136206561Y-114847678D01*
X136322678Y-114731561D01*
X136322685Y-114731552D01*
X136406281Y-114590198D01*
X136452100Y-114432486D01*
X136452295Y-114430001D01*
X136452295Y-114430000D01*
X135330000Y-114430000D01*
X135330000Y-114980000D01*
X134830000Y-114980000D01*
X134830000Y-114430000D01*
X133707705Y-114430000D01*
X133707704Y-114430001D01*
X129167429Y-114430001D01*
X129151232Y-114398212D01*
X129049414Y-114258072D01*
X128946818Y-114155476D01*
X128913334Y-114094153D01*
X128910500Y-114067795D01*
X128910500Y-113041517D01*
X128930185Y-112974478D01*
X128946814Y-112953841D01*
X130085623Y-111815031D01*
X130099646Y-111807374D01*
X130110596Y-111795738D01*
X130129681Y-111790974D01*
X130146946Y-111781547D01*
X130162882Y-111782686D01*
X130178386Y-111778817D01*
X130197016Y-111785127D01*
G37*
%TD.AperFunction*%
%TA.AperFunction,Conductor*%
G36*
X186502653Y-107242041D02*
G01*
X186508015Y-107240955D01*
X186535819Y-107251780D01*
X186564443Y-107260185D01*
X186569377Y-107264845D01*
X186573124Y-107266304D01*
X186597722Y-107291614D01*
X186600475Y-107295403D01*
X186600476Y-107295405D01*
X186716172Y-107454646D01*
X186855354Y-107593828D01*
X187014595Y-107709524D01*
X187137992Y-107772397D01*
X187191213Y-107799515D01*
X187242009Y-107847489D01*
X187258804Y-107915310D01*
X187236267Y-107981445D01*
X187191213Y-108020485D01*
X187014594Y-108110476D01*
X186986803Y-108130668D01*
X186855354Y-108226172D01*
X186855352Y-108226174D01*
X186855351Y-108226174D01*
X186716174Y-108365351D01*
X186716174Y-108365352D01*
X186716172Y-108365354D01*
X186666485Y-108433741D01*
X186600476Y-108524594D01*
X186511117Y-108699970D01*
X186450290Y-108887173D01*
X186419500Y-109081577D01*
X186419500Y-109278422D01*
X186451023Y-109477453D01*
X186442068Y-109546747D01*
X186416231Y-109584532D01*
X179767584Y-116233181D01*
X179706261Y-116266666D01*
X179679903Y-116269500D01*
X164356423Y-116269500D01*
X164289384Y-116249815D01*
X164243629Y-116197011D01*
X164233685Y-116127853D01*
X164233950Y-116126102D01*
X164249126Y-116030289D01*
X164250500Y-116021611D01*
X164250500Y-115298389D01*
X164223402Y-115127299D01*
X164169873Y-114962555D01*
X164091232Y-114808212D01*
X163989414Y-114668072D01*
X163866928Y-114545586D01*
X163726788Y-114443768D01*
X163704816Y-114432573D01*
X163572447Y-114365128D01*
X163572446Y-114365127D01*
X163572445Y-114365127D01*
X163502591Y-114342430D01*
X163444917Y-114302994D01*
X163417719Y-114238635D01*
X163429634Y-114169789D01*
X163476878Y-114118313D01*
X163540911Y-114100500D01*
X178413331Y-114100500D01*
X178413347Y-114100501D01*
X178420943Y-114100501D01*
X178579054Y-114100501D01*
X178579057Y-114100501D01*
X178731785Y-114059577D01*
X178781904Y-114030639D01*
X178868716Y-113980520D01*
X178980520Y-113868716D01*
X178980520Y-113868714D01*
X178990728Y-113858507D01*
X178990729Y-113858504D01*
X185572416Y-107276819D01*
X185633739Y-107243334D01*
X185660097Y-107240500D01*
X186497404Y-107240500D01*
X186502653Y-107242041D01*
G37*
%TD.AperFunction*%
%TA.AperFunction,Conductor*%
G36*
X152166942Y-113530185D02*
G01*
X152187584Y-113546819D01*
X154013181Y-115372416D01*
X154046666Y-115433739D01*
X154049500Y-115460097D01*
X154049500Y-115820214D01*
X154049501Y-116110500D01*
X154029817Y-116177539D01*
X153977013Y-116223294D01*
X153925501Y-116234500D01*
X143185097Y-116234500D01*
X143118058Y-116214815D01*
X143097416Y-116198181D01*
X141593490Y-114694255D01*
X141560005Y-114632932D01*
X141562094Y-114571980D01*
X141602598Y-114432569D01*
X141605500Y-114395694D01*
X141605500Y-113964306D01*
X141602598Y-113927431D01*
X141595841Y-113904174D01*
X141556745Y-113769606D01*
X141556744Y-113769603D01*
X141556744Y-113769602D01*
X141547871Y-113754598D01*
X141514175Y-113697620D01*
X141496992Y-113629896D01*
X141519152Y-113563634D01*
X141573619Y-113519871D01*
X141620907Y-113510500D01*
X152099903Y-113510500D01*
X152166942Y-113530185D01*
G37*
%TD.AperFunction*%
%TA.AperFunction,Conductor*%
G36*
X171101991Y-106795169D02*
G01*
X171124938Y-106796810D01*
X171135018Y-106804356D01*
X171147147Y-106807730D01*
X171162456Y-106824897D01*
X171180871Y-106838682D01*
X171186383Y-106851725D01*
X171193651Y-106859875D01*
X171204077Y-106893594D01*
X171210290Y-106932826D01*
X171271117Y-107120029D01*
X171344905Y-107264845D01*
X171360476Y-107295405D01*
X171476172Y-107454646D01*
X171615354Y-107593828D01*
X171774595Y-107709524D01*
X171897992Y-107772397D01*
X171951213Y-107799515D01*
X172002009Y-107847489D01*
X172018804Y-107915310D01*
X171996267Y-107981445D01*
X171951213Y-108020485D01*
X171774594Y-108110476D01*
X171746803Y-108130668D01*
X171615354Y-108226172D01*
X171615352Y-108226174D01*
X171615351Y-108226174D01*
X171476174Y-108365351D01*
X171476174Y-108365352D01*
X171476172Y-108365354D01*
X171426485Y-108433741D01*
X171360476Y-108524594D01*
X171271117Y-108699970D01*
X171210290Y-108887173D01*
X171179500Y-109081577D01*
X171179500Y-109278422D01*
X171210290Y-109472826D01*
X171271117Y-109660029D01*
X171352631Y-109820009D01*
X171360476Y-109835405D01*
X171476172Y-109994646D01*
X171615354Y-110133828D01*
X171774595Y-110249524D01*
X171847491Y-110286666D01*
X171951213Y-110339515D01*
X172002009Y-110387489D01*
X172018804Y-110455310D01*
X171996267Y-110521445D01*
X171951213Y-110560485D01*
X171774594Y-110650476D01*
X171683741Y-110716485D01*
X171615354Y-110766172D01*
X171615352Y-110766174D01*
X171615351Y-110766174D01*
X171476174Y-110905351D01*
X171476174Y-110905352D01*
X171476172Y-110905354D01*
X171458267Y-110929998D01*
X171360476Y-111064594D01*
X171271117Y-111239970D01*
X171210290Y-111427173D01*
X171179500Y-111621577D01*
X171179500Y-111818422D01*
X171210290Y-112012826D01*
X171271117Y-112200029D01*
X171354008Y-112362710D01*
X171360476Y-112375405D01*
X171476172Y-112534646D01*
X171615354Y-112673828D01*
X171617216Y-112675181D01*
X171617752Y-112675876D01*
X171619059Y-112676992D01*
X171618824Y-112677266D01*
X171659883Y-112730508D01*
X171665864Y-112800121D01*
X171633260Y-112861917D01*
X171572423Y-112896277D01*
X171544333Y-112899500D01*
X159389057Y-112899500D01*
X159230942Y-112899500D01*
X159078215Y-112940423D01*
X159078214Y-112940423D01*
X159078212Y-112940424D01*
X159078209Y-112940425D01*
X159028096Y-112969359D01*
X159028095Y-112969360D01*
X158992075Y-112990156D01*
X158941285Y-113019479D01*
X158941282Y-113019481D01*
X158829478Y-113131286D01*
X157643680Y-114317083D01*
X157582357Y-114350568D01*
X157517681Y-114347333D01*
X157407698Y-114311597D01*
X157246883Y-114286127D01*
X157236611Y-114284500D01*
X157063389Y-114284500D01*
X157053117Y-114286127D01*
X156892301Y-114311597D01*
X156892297Y-114311598D01*
X156782316Y-114347333D01*
X156712475Y-114349328D01*
X156656318Y-114317083D01*
X154217590Y-111878355D01*
X154217588Y-111878352D01*
X154098717Y-111759481D01*
X154098709Y-111759475D01*
X154004949Y-111705343D01*
X154004945Y-111705341D01*
X153993469Y-111698716D01*
X153961785Y-111680423D01*
X153809057Y-111639499D01*
X153799876Y-111639499D01*
X153782852Y-111634033D01*
X153762814Y-111620433D01*
X153740670Y-111610635D01*
X153734425Y-111601165D01*
X153725040Y-111594796D01*
X153715535Y-111572522D01*
X153702204Y-111552307D01*
X153702069Y-111540965D01*
X153697618Y-111530532D01*
X153701664Y-111506657D01*
X153701378Y-111482442D01*
X153707557Y-111471885D01*
X153709293Y-111461645D01*
X153721199Y-111448581D01*
X153733076Y-111428291D01*
X153852712Y-111308656D01*
X153944814Y-111159334D01*
X153999999Y-110992797D01*
X154010500Y-110890009D01*
X154010499Y-110190096D01*
X154030183Y-110123058D01*
X154046813Y-110102421D01*
X154562417Y-109586819D01*
X154623740Y-109553334D01*
X154650098Y-109550500D01*
X154994724Y-109550500D01*
X155061763Y-109570185D01*
X155107518Y-109622989D01*
X155117462Y-109692147D01*
X155112655Y-109712817D01*
X155102011Y-109745574D01*
X155102010Y-109745581D01*
X155070000Y-109947682D01*
X155070000Y-110152317D01*
X155102009Y-110354417D01*
X155165244Y-110549031D01*
X155258141Y-110731350D01*
X155258147Y-110731359D01*
X155290523Y-110775921D01*
X155290524Y-110775922D01*
X155970000Y-110096446D01*
X155970000Y-110102661D01*
X155997259Y-110204394D01*
X156049920Y-110295606D01*
X156124394Y-110370080D01*
X156215606Y-110422741D01*
X156317339Y-110450000D01*
X156323553Y-110450000D01*
X155644076Y-111129474D01*
X155688650Y-111161859D01*
X155870968Y-111254755D01*
X156065582Y-111317990D01*
X156267683Y-111350000D01*
X156472317Y-111350000D01*
X156674417Y-111317990D01*
X156869031Y-111254755D01*
X157051349Y-111161859D01*
X157095921Y-111129474D01*
X156416447Y-110450000D01*
X156422661Y-110450000D01*
X156524394Y-110422741D01*
X156615606Y-110370080D01*
X156690080Y-110295606D01*
X156742741Y-110204394D01*
X156770000Y-110102661D01*
X156770000Y-110096447D01*
X157449474Y-110775921D01*
X157481861Y-110731347D01*
X157481861Y-110731346D01*
X157529234Y-110638371D01*
X157577208Y-110587575D01*
X157645028Y-110570779D01*
X157711164Y-110593316D01*
X157750203Y-110638369D01*
X157797713Y-110731611D01*
X157918028Y-110897213D01*
X158062786Y-111041971D01*
X158190576Y-111134814D01*
X158228390Y-111162287D01*
X158344607Y-111221503D01*
X158410776Y-111255218D01*
X158410778Y-111255218D01*
X158410781Y-111255220D01*
X158515137Y-111289127D01*
X158605465Y-111318477D01*
X158633555Y-111322926D01*
X158807648Y-111350500D01*
X158807649Y-111350500D01*
X159012351Y-111350500D01*
X159012352Y-111350500D01*
X159214534Y-111318477D01*
X159228842Y-111313827D01*
X159244054Y-111313392D01*
X159258315Y-111308074D01*
X159278268Y-111312414D01*
X159298682Y-111311831D01*
X159312769Y-111319920D01*
X159326588Y-111322926D01*
X159354842Y-111344077D01*
X159525139Y-111514374D01*
X159525149Y-111514385D01*
X159529479Y-111518715D01*
X159529480Y-111518716D01*
X159641284Y-111630520D01*
X159641286Y-111630521D01*
X159641290Y-111630524D01*
X159727718Y-111680423D01*
X159727719Y-111680423D01*
X159778215Y-111709577D01*
X159930943Y-111750501D01*
X159930946Y-111750501D01*
X160096653Y-111750501D01*
X160096669Y-111750500D01*
X167763331Y-111750500D01*
X167763347Y-111750501D01*
X167770943Y-111750501D01*
X167929054Y-111750501D01*
X167929057Y-111750501D01*
X168081785Y-111709577D01*
X168132281Y-111680423D01*
X168132282Y-111680423D01*
X168218709Y-111630524D01*
X168218708Y-111630524D01*
X168218716Y-111630520D01*
X168330520Y-111518716D01*
X168330520Y-111518714D01*
X168340724Y-111508511D01*
X168340728Y-111508506D01*
X168612416Y-111236818D01*
X168673739Y-111203333D01*
X168700097Y-111200499D01*
X169400002Y-111200499D01*
X169400008Y-111200499D01*
X169502797Y-111189999D01*
X169669334Y-111134814D01*
X169818656Y-111042712D01*
X169942712Y-110918656D01*
X170034814Y-110769334D01*
X170089999Y-110602797D01*
X170100500Y-110500009D01*
X170100499Y-109499992D01*
X170099529Y-109490500D01*
X170089999Y-109397203D01*
X170089998Y-109397200D01*
X170073458Y-109347287D01*
X170034814Y-109230666D01*
X169942712Y-109081344D01*
X169818656Y-108957288D01*
X169669334Y-108865186D01*
X169669332Y-108865185D01*
X169663187Y-108861395D01*
X169664290Y-108859605D01*
X169619649Y-108820290D01*
X169600500Y-108754091D01*
X169600500Y-108270097D01*
X169620185Y-108203058D01*
X169636819Y-108182416D01*
X170314187Y-107505048D01*
X170993925Y-106825309D01*
X171004973Y-106819276D01*
X171013082Y-106809645D01*
X171035056Y-106802850D01*
X171055246Y-106791826D01*
X171067805Y-106792724D01*
X171079833Y-106789005D01*
X171101991Y-106795169D01*
G37*
%TD.AperFunction*%
%TA.AperFunction,Conductor*%
G36*
X186338834Y-93824336D02*
G01*
X186394767Y-93866208D01*
X186419184Y-93931672D01*
X186419500Y-93940518D01*
X186419500Y-94038422D01*
X186450290Y-94232826D01*
X186511117Y-94420029D01*
X186578085Y-94551460D01*
X186600476Y-94595405D01*
X186716172Y-94754646D01*
X186855354Y-94893828D01*
X187014595Y-95009524D01*
X187137992Y-95072397D01*
X187191213Y-95099515D01*
X187242009Y-95147489D01*
X187258804Y-95215310D01*
X187236267Y-95281445D01*
X187191213Y-95320485D01*
X187014594Y-95410476D01*
X186986803Y-95430668D01*
X186855354Y-95526172D01*
X186855352Y-95526174D01*
X186855351Y-95526174D01*
X186716174Y-95665351D01*
X186716174Y-95665352D01*
X186716172Y-95665354D01*
X186691007Y-95699991D01*
X186600476Y-95824594D01*
X186511117Y-95999970D01*
X186450290Y-96187173D01*
X186419500Y-96381577D01*
X186419500Y-96578422D01*
X186450290Y-96772826D01*
X186511117Y-96960029D01*
X186592906Y-97120548D01*
X186600476Y-97135405D01*
X186716172Y-97294646D01*
X186855354Y-97433828D01*
X187014595Y-97549524D01*
X187099341Y-97592704D01*
X187191213Y-97639515D01*
X187242009Y-97687489D01*
X187258804Y-97755310D01*
X187236267Y-97821445D01*
X187191213Y-97860485D01*
X187014594Y-97950476D01*
X186936400Y-98007288D01*
X186855354Y-98066172D01*
X186855352Y-98066174D01*
X186855351Y-98066174D01*
X186716174Y-98205351D01*
X186716174Y-98205352D01*
X186716172Y-98205354D01*
X186666485Y-98273741D01*
X186600476Y-98364594D01*
X186511117Y-98539970D01*
X186450290Y-98727173D01*
X186419500Y-98921577D01*
X186419500Y-99118422D01*
X186450290Y-99312826D01*
X186511117Y-99500029D01*
X186579793Y-99634812D01*
X186600476Y-99675405D01*
X186716172Y-99834646D01*
X186855354Y-99973828D01*
X187014595Y-100089524D01*
X187118967Y-100142704D01*
X187191213Y-100179515D01*
X187242009Y-100227489D01*
X187258804Y-100295310D01*
X187236267Y-100361445D01*
X187191213Y-100400485D01*
X187014594Y-100490476D01*
X186923741Y-100556485D01*
X186855354Y-100606172D01*
X186855352Y-100606174D01*
X186855351Y-100606174D01*
X186716174Y-100745351D01*
X186716174Y-100745352D01*
X186716172Y-100745354D01*
X186696103Y-100772977D01*
X186600476Y-100904594D01*
X186511117Y-101079970D01*
X186450290Y-101267173D01*
X186419500Y-101461577D01*
X186419500Y-101658422D01*
X186451023Y-101857453D01*
X186442068Y-101926747D01*
X186416231Y-101964532D01*
X180656489Y-107724274D01*
X180653350Y-107727305D01*
X180643026Y-107736926D01*
X180621284Y-107749480D01*
X180509480Y-107861284D01*
X180509478Y-107861286D01*
X180507942Y-107862821D01*
X180507928Y-107862835D01*
X179915339Y-108455425D01*
X179854016Y-108488910D01*
X179851850Y-108489361D01*
X179696508Y-108520261D01*
X179696498Y-108520264D01*
X179550827Y-108580602D01*
X179550814Y-108580609D01*
X179419711Y-108668210D01*
X179419707Y-108668213D01*
X179308213Y-108779707D01*
X179308210Y-108779711D01*
X179220609Y-108910814D01*
X179220602Y-108910827D01*
X179160264Y-109056498D01*
X179160261Y-109056510D01*
X179129500Y-109211153D01*
X179129500Y-109368846D01*
X179160261Y-109523489D01*
X179160264Y-109523501D01*
X179220602Y-109669172D01*
X179220609Y-109669185D01*
X179308210Y-109800288D01*
X179308213Y-109800292D01*
X179419707Y-109911786D01*
X179419711Y-109911789D01*
X179550814Y-109999390D01*
X179550827Y-109999397D01*
X179671822Y-110049514D01*
X179696503Y-110059737D01*
X179841385Y-110088556D01*
X179851153Y-110090499D01*
X179851156Y-110090500D01*
X179851158Y-110090500D01*
X180008844Y-110090500D01*
X180008845Y-110090499D01*
X180163497Y-110059737D01*
X180309179Y-109999394D01*
X180440289Y-109911789D01*
X180551789Y-109800289D01*
X180639394Y-109669179D01*
X180699737Y-109523497D01*
X180724030Y-109401370D01*
X180730638Y-109368150D01*
X180763023Y-109306239D01*
X180764521Y-109304713D01*
X181333538Y-108735695D01*
X181336432Y-108732895D01*
X181346838Y-108723150D01*
X181368716Y-108710520D01*
X181480520Y-108598716D01*
X181480521Y-108598713D01*
X186213979Y-103865254D01*
X186275300Y-103831771D01*
X186344992Y-103836755D01*
X186400925Y-103878627D01*
X186425342Y-103944091D01*
X186424132Y-103972333D01*
X186419500Y-104001581D01*
X186419500Y-104198422D01*
X186450290Y-104392826D01*
X186511117Y-104580029D01*
X186592552Y-104739853D01*
X186600476Y-104755405D01*
X186716172Y-104914646D01*
X186855354Y-105053828D01*
X187014595Y-105169524D01*
X187116184Y-105221286D01*
X187191213Y-105259515D01*
X187242009Y-105307489D01*
X187258804Y-105375310D01*
X187236267Y-105441445D01*
X187191213Y-105480485D01*
X187014594Y-105570476D01*
X186923741Y-105636485D01*
X186855354Y-105686172D01*
X186855352Y-105686174D01*
X186855351Y-105686174D01*
X186716174Y-105825351D01*
X186716174Y-105825352D01*
X186716172Y-105825354D01*
X186600477Y-105984594D01*
X186597722Y-105988386D01*
X186542392Y-106031051D01*
X186497404Y-106039500D01*
X185446669Y-106039500D01*
X185446653Y-106039499D01*
X185439057Y-106039499D01*
X185280943Y-106039499D01*
X185173587Y-106068265D01*
X185128210Y-106080424D01*
X185128209Y-106080425D01*
X185078096Y-106109359D01*
X185078095Y-106109360D01*
X185058559Y-106120639D01*
X184991285Y-106159479D01*
X184991282Y-106159481D01*
X184907051Y-106243713D01*
X184879480Y-106271284D01*
X184879478Y-106271286D01*
X181566233Y-109584532D01*
X178287584Y-112863181D01*
X178226261Y-112896666D01*
X178199903Y-112899500D01*
X173315667Y-112899500D01*
X173248628Y-112879815D01*
X173202873Y-112827011D01*
X173192929Y-112757853D01*
X173221954Y-112694297D01*
X173242779Y-112675184D01*
X173244646Y-112673828D01*
X173383828Y-112534646D01*
X173499524Y-112375405D01*
X173588884Y-112200025D01*
X173649709Y-112012826D01*
X173671007Y-111878355D01*
X173680500Y-111818422D01*
X173680500Y-111621577D01*
X173649709Y-111427173D01*
X173612421Y-111312414D01*
X173588884Y-111239975D01*
X173588882Y-111239972D01*
X173588882Y-111239970D01*
X173532581Y-111129474D01*
X173499524Y-111064595D01*
X173383828Y-110905354D01*
X173244646Y-110766172D01*
X173165025Y-110708324D01*
X173085403Y-110650474D01*
X172908787Y-110560485D01*
X172857990Y-110512511D01*
X172841195Y-110444690D01*
X172863732Y-110378555D01*
X172908787Y-110339515D01*
X173085403Y-110249525D01*
X173085402Y-110249525D01*
X173085405Y-110249524D01*
X173244646Y-110133828D01*
X173383828Y-109994646D01*
X173499524Y-109835405D01*
X173588884Y-109660025D01*
X173649709Y-109472826D01*
X173653605Y-109448226D01*
X173680500Y-109278422D01*
X173680500Y-109081577D01*
X173649709Y-108887173D01*
X173613935Y-108777073D01*
X173588884Y-108699975D01*
X173588882Y-108699972D01*
X173588882Y-108699970D01*
X173532011Y-108588355D01*
X173499524Y-108524595D01*
X173383828Y-108365354D01*
X173244646Y-108226172D01*
X173113190Y-108130663D01*
X173085403Y-108110474D01*
X172908787Y-108020485D01*
X172857990Y-107972511D01*
X172841195Y-107904690D01*
X172863732Y-107838555D01*
X172908787Y-107799515D01*
X173085403Y-107709525D01*
X173085402Y-107709525D01*
X173085405Y-107709524D01*
X173244646Y-107593828D01*
X173383828Y-107454646D01*
X173499524Y-107295405D01*
X173588884Y-107120025D01*
X173649709Y-106932826D01*
X173660696Y-106863456D01*
X173680500Y-106738422D01*
X173680500Y-106541577D01*
X173649709Y-106347173D01*
X173625051Y-106271286D01*
X173617525Y-106248125D01*
X173615531Y-106178286D01*
X173651611Y-106118453D01*
X173673448Y-106102427D01*
X173728716Y-106070520D01*
X173840520Y-105958716D01*
X173840520Y-105958714D01*
X173850728Y-105948507D01*
X173850730Y-105948504D01*
X175728713Y-104070521D01*
X175728716Y-104070520D01*
X175840520Y-103958716D01*
X175890639Y-103871904D01*
X175919577Y-103821785D01*
X175960500Y-103669057D01*
X175960500Y-103510943D01*
X175960500Y-102149765D01*
X175980185Y-102082726D01*
X175981398Y-102080874D01*
X175989108Y-102069336D01*
X176069394Y-101949179D01*
X176129737Y-101803497D01*
X176160500Y-101648842D01*
X176160500Y-101491158D01*
X176160500Y-101491155D01*
X176160499Y-101491153D01*
X176149932Y-101438028D01*
X176129737Y-101336503D01*
X176109352Y-101287288D01*
X176069397Y-101190827D01*
X176069390Y-101190814D01*
X175997612Y-101083391D01*
X175976734Y-101016713D01*
X175995218Y-100949333D01*
X176047197Y-100902643D01*
X176100714Y-100890500D01*
X178948996Y-100890500D01*
X179040040Y-100872389D01*
X179084328Y-100863580D01*
X179148069Y-100837177D01*
X179211807Y-100810777D01*
X179211808Y-100810776D01*
X179211811Y-100810775D01*
X179326543Y-100734114D01*
X186207819Y-93852836D01*
X186269142Y-93819352D01*
X186338834Y-93824336D01*
G37*
%TD.AperFunction*%
%TA.AperFunction,Conductor*%
G36*
X139593575Y-104430185D02*
G01*
X139639330Y-104482989D01*
X139649274Y-104552147D01*
X139641097Y-104581952D01*
X139606421Y-104665667D01*
X139606418Y-104665677D01*
X139579500Y-104801004D01*
X139579500Y-106442769D01*
X139559815Y-106509808D01*
X139543182Y-106530450D01*
X139437287Y-106636345D01*
X139345187Y-106785663D01*
X139345185Y-106785668D01*
X139319410Y-106863453D01*
X139290001Y-106952203D01*
X139290001Y-106952204D01*
X139290000Y-106952204D01*
X139279500Y-107054983D01*
X139279500Y-108105001D01*
X139279501Y-108105019D01*
X139290000Y-108207796D01*
X139290001Y-108207799D01*
X139345185Y-108374331D01*
X139345187Y-108374336D01*
X139363197Y-108403535D01*
X139437096Y-108523345D01*
X139437289Y-108523657D01*
X139493181Y-108579549D01*
X139526666Y-108640872D01*
X139529500Y-108667230D01*
X139529500Y-109447776D01*
X139509815Y-109514815D01*
X139457011Y-109560570D01*
X139415233Y-109571393D01*
X139402441Y-109572400D01*
X139402426Y-109572402D01*
X139244606Y-109618254D01*
X139244603Y-109618255D01*
X139103137Y-109701917D01*
X139103129Y-109701923D01*
X138986923Y-109818129D01*
X138986917Y-109818137D01*
X138903255Y-109959603D01*
X138903254Y-109959606D01*
X138857402Y-110117426D01*
X138857401Y-110117432D01*
X138854500Y-110154298D01*
X138854500Y-110585701D01*
X138857401Y-110622567D01*
X138857402Y-110622573D01*
X138903254Y-110780393D01*
X138903255Y-110780396D01*
X138903256Y-110780398D01*
X138940681Y-110843681D01*
X138986917Y-110921862D01*
X138991702Y-110928031D01*
X138989256Y-110929927D01*
X139015857Y-110978642D01*
X139010873Y-111048334D01*
X138990069Y-111080703D01*
X138991702Y-111081969D01*
X138986917Y-111088137D01*
X138903255Y-111229603D01*
X138903254Y-111229606D01*
X138857402Y-111387426D01*
X138857401Y-111387432D01*
X138854500Y-111424298D01*
X138854500Y-111515500D01*
X138834815Y-111582539D01*
X138782011Y-111628294D01*
X138730500Y-111639500D01*
X136579500Y-111639500D01*
X136512461Y-111619815D01*
X136466706Y-111567011D01*
X136455500Y-111515500D01*
X136455500Y-111424313D01*
X136455499Y-111424298D01*
X136452598Y-111387432D01*
X136452597Y-111387426D01*
X136406745Y-111229606D01*
X136406744Y-111229603D01*
X136406744Y-111229602D01*
X136323081Y-111088135D01*
X136323078Y-111088132D01*
X136318298Y-111081969D01*
X136320750Y-111080066D01*
X136294155Y-111031421D01*
X136299104Y-110961726D01*
X136319940Y-110929304D01*
X136318298Y-110928031D01*
X136323075Y-110921870D01*
X136323081Y-110921865D01*
X136406744Y-110780398D01*
X136448008Y-110638369D01*
X136452597Y-110622573D01*
X136452598Y-110622567D01*
X136454268Y-110601344D01*
X136455500Y-110585694D01*
X136455500Y-110154306D01*
X136452598Y-110117431D01*
X136447678Y-110100498D01*
X136412095Y-109978019D01*
X136412132Y-109964725D01*
X136407487Y-109952270D01*
X136412230Y-109930464D01*
X136412294Y-109908150D01*
X136419843Y-109895466D01*
X136422339Y-109883997D01*
X136443487Y-109855746D01*
X136497078Y-109802155D01*
X136558399Y-109768672D01*
X136560416Y-109768251D01*
X136653497Y-109749737D01*
X136799179Y-109689394D01*
X136930289Y-109601789D01*
X137041789Y-109490289D01*
X137129394Y-109359179D01*
X137189737Y-109213497D01*
X137220500Y-109058842D01*
X137220500Y-108901158D01*
X137220500Y-108901155D01*
X137220499Y-108901153D01*
X137213344Y-108865185D01*
X137189737Y-108746503D01*
X137189735Y-108746498D01*
X137129397Y-108600827D01*
X137129390Y-108600814D01*
X137041789Y-108469711D01*
X137041786Y-108469707D01*
X136930292Y-108358213D01*
X136930288Y-108358210D01*
X136799185Y-108270609D01*
X136799172Y-108270602D01*
X136653501Y-108210264D01*
X136653489Y-108210261D01*
X136498845Y-108179500D01*
X136498842Y-108179500D01*
X136341158Y-108179500D01*
X136341155Y-108179500D01*
X136186510Y-108210261D01*
X136186498Y-108210264D01*
X136040827Y-108270602D01*
X136040814Y-108270609D01*
X135909711Y-108358210D01*
X135909707Y-108358213D01*
X135798213Y-108469707D01*
X135798210Y-108469711D01*
X135710609Y-108600814D01*
X135710602Y-108600827D01*
X135650264Y-108746498D01*
X135650261Y-108746510D01*
X135619500Y-108901153D01*
X135619500Y-108929903D01*
X135599815Y-108996942D01*
X135583181Y-109017584D01*
X135067584Y-109533181D01*
X135006261Y-109566666D01*
X134979903Y-109569500D01*
X134289298Y-109569500D01*
X134252432Y-109572401D01*
X134252426Y-109572402D01*
X134094606Y-109618254D01*
X134094603Y-109618255D01*
X133953137Y-109701917D01*
X133953129Y-109701923D01*
X133836923Y-109818129D01*
X133836917Y-109818137D01*
X133753255Y-109959603D01*
X133753254Y-109959606D01*
X133707402Y-110117426D01*
X133707401Y-110117432D01*
X133704500Y-110154298D01*
X133704500Y-110585701D01*
X133707401Y-110622567D01*
X133707402Y-110622573D01*
X133753254Y-110780393D01*
X133753255Y-110780396D01*
X133753256Y-110780398D01*
X133790681Y-110843681D01*
X133836917Y-110921862D01*
X133841702Y-110928031D01*
X133839256Y-110929927D01*
X133865857Y-110978642D01*
X133860873Y-111048334D01*
X133840069Y-111080703D01*
X133841702Y-111081969D01*
X133836917Y-111088137D01*
X133753255Y-111229603D01*
X133753254Y-111229606D01*
X133707402Y-111387426D01*
X133707401Y-111387432D01*
X133704500Y-111424298D01*
X133704500Y-111855701D01*
X133707401Y-111892567D01*
X133707402Y-111892573D01*
X133753254Y-112050393D01*
X133753257Y-112050400D01*
X133795825Y-112122380D01*
X133813008Y-112190104D01*
X133790848Y-112256366D01*
X133736381Y-112300129D01*
X133689093Y-112309500D01*
X133280097Y-112309500D01*
X133213058Y-112289815D01*
X133192416Y-112273181D01*
X132726818Y-111807583D01*
X132693333Y-111746260D01*
X132690499Y-111719902D01*
X132690499Y-111019998D01*
X132690498Y-111019981D01*
X132679999Y-110917203D01*
X132679998Y-110917200D01*
X132670980Y-110889986D01*
X132624814Y-110750666D01*
X132532712Y-110601344D01*
X132439049Y-110507681D01*
X132405564Y-110446358D01*
X132410548Y-110376666D01*
X132439049Y-110332319D01*
X132484702Y-110286666D01*
X132532712Y-110238656D01*
X132624814Y-110089334D01*
X132679999Y-109922797D01*
X132690500Y-109820009D01*
X132690499Y-109019992D01*
X132688144Y-108996942D01*
X132679999Y-108917203D01*
X132679998Y-108917200D01*
X132674681Y-108901155D01*
X132624814Y-108750666D01*
X132532712Y-108601344D01*
X132408656Y-108477288D01*
X132387283Y-108464105D01*
X132384235Y-108462225D01*
X132337510Y-108410277D01*
X132326287Y-108341315D01*
X132354131Y-108277232D01*
X132361639Y-108269016D01*
X136183838Y-104446819D01*
X136245161Y-104413334D01*
X136271519Y-104410500D01*
X139526536Y-104410500D01*
X139593575Y-104430185D01*
G37*
%TD.AperFunction*%
%TA.AperFunction,Conductor*%
G36*
X165666520Y-104430185D02*
G01*
X165712275Y-104482989D01*
X165722219Y-104552147D01*
X165693194Y-104615703D01*
X165687162Y-104622181D01*
X163445888Y-106863453D01*
X163445885Y-106863456D01*
X163381896Y-106959223D01*
X163381897Y-106959224D01*
X163369226Y-106978187D01*
X163369223Y-106978192D01*
X163316420Y-107105671D01*
X163316418Y-107105677D01*
X163289500Y-107241004D01*
X163289500Y-108888255D01*
X163269815Y-108955294D01*
X163238385Y-108988573D01*
X163142787Y-109058028D01*
X163142782Y-109058032D01*
X162998028Y-109202786D01*
X162877715Y-109368386D01*
X162830485Y-109461080D01*
X162782510Y-109511876D01*
X162714689Y-109528671D01*
X162648554Y-109506134D01*
X162609515Y-109461080D01*
X162608883Y-109459840D01*
X162562287Y-109368390D01*
X162512236Y-109299500D01*
X162441971Y-109202786D01*
X162297213Y-109058028D01*
X162131613Y-108937715D01*
X162131612Y-108937714D01*
X162131610Y-108937713D01*
X162059857Y-108901153D01*
X161949223Y-108844781D01*
X161754534Y-108781522D01*
X161559726Y-108750668D01*
X161552352Y-108749500D01*
X161347648Y-108749500D01*
X161340274Y-108750668D01*
X161145468Y-108781522D01*
X161136717Y-108784365D01*
X161131154Y-108786173D01*
X161115941Y-108786607D01*
X161101684Y-108791925D01*
X161081729Y-108787584D01*
X161061313Y-108788167D01*
X161047226Y-108780078D01*
X161033411Y-108777073D01*
X161005157Y-108755922D01*
X160837590Y-108588355D01*
X160837588Y-108588352D01*
X160718717Y-108469481D01*
X160718716Y-108469480D01*
X160604496Y-108403535D01*
X160604496Y-108403534D01*
X160604491Y-108403533D01*
X160596567Y-108398958D01*
X160581786Y-108390423D01*
X160521748Y-108374336D01*
X160429057Y-108349499D01*
X160270943Y-108349499D01*
X160263347Y-108349499D01*
X160263331Y-108349500D01*
X154436670Y-108349500D01*
X154436654Y-108349499D01*
X154429058Y-108349499D01*
X154270943Y-108349499D01*
X154211773Y-108365354D01*
X154118214Y-108390423D01*
X154118209Y-108390426D01*
X153981290Y-108469475D01*
X153981282Y-108469481D01*
X153297582Y-109153181D01*
X153236259Y-109186666D01*
X153209901Y-109189500D01*
X152509998Y-109189500D01*
X152509980Y-109189501D01*
X152407203Y-109200000D01*
X152407200Y-109200001D01*
X152240668Y-109255185D01*
X152240663Y-109255187D01*
X152091345Y-109347287D01*
X151997327Y-109441305D01*
X151936003Y-109474789D01*
X151866312Y-109469805D01*
X151821965Y-109441304D01*
X151728345Y-109347684D01*
X151579124Y-109255643D01*
X151579119Y-109255641D01*
X151412697Y-109200494D01*
X151412690Y-109200493D01*
X151309986Y-109190000D01*
X151160000Y-109190000D01*
X151160000Y-110266000D01*
X151140315Y-110333039D01*
X151087511Y-110378794D01*
X151036000Y-110390000D01*
X150910000Y-110390000D01*
X150910000Y-110516000D01*
X150890315Y-110583039D01*
X150837511Y-110628794D01*
X150786000Y-110640000D01*
X149810001Y-110640000D01*
X149810001Y-110889986D01*
X149820494Y-110992697D01*
X149875641Y-111159119D01*
X149875643Y-111159124D01*
X149967684Y-111308345D01*
X150087158Y-111427819D01*
X150120643Y-111489142D01*
X150115659Y-111558834D01*
X150073787Y-111614767D01*
X150008323Y-111639184D01*
X149999477Y-111639500D01*
X147204500Y-111639500D01*
X147137461Y-111619815D01*
X147091706Y-111567011D01*
X147080500Y-111515500D01*
X147080499Y-110929998D01*
X147080498Y-110929980D01*
X147069999Y-110827203D01*
X147069998Y-110827200D01*
X147054489Y-110780398D01*
X147014814Y-110660666D01*
X146922712Y-110511344D01*
X146829049Y-110417681D01*
X146795564Y-110356358D01*
X146800548Y-110286666D01*
X146829049Y-110242319D01*
X146866974Y-110204394D01*
X146922712Y-110148656D01*
X147014814Y-109999334D01*
X147051039Y-109890013D01*
X149810000Y-109890013D01*
X149810000Y-110140000D01*
X150660000Y-110140000D01*
X150660000Y-109190000D01*
X150510027Y-109190000D01*
X150510012Y-109190001D01*
X150407302Y-109200494D01*
X150240880Y-109255641D01*
X150240875Y-109255643D01*
X150091654Y-109347684D01*
X149967684Y-109471654D01*
X149875643Y-109620875D01*
X149875641Y-109620880D01*
X149820494Y-109787302D01*
X149820493Y-109787309D01*
X149810000Y-109890013D01*
X147051039Y-109890013D01*
X147069999Y-109832797D01*
X147080500Y-109730009D01*
X147080499Y-108929992D01*
X147069999Y-108827203D01*
X147014814Y-108660666D01*
X146922712Y-108511344D01*
X146798656Y-108387288D01*
X146649334Y-108295186D01*
X146649332Y-108295185D01*
X146643187Y-108291395D01*
X146644290Y-108289605D01*
X146599649Y-108250290D01*
X146580500Y-108184091D01*
X146580500Y-108051004D01*
X146553581Y-107915677D01*
X146553580Y-107915676D01*
X146553580Y-107915672D01*
X146543337Y-107890943D01*
X146500778Y-107788195D01*
X146500770Y-107788180D01*
X146474912Y-107749482D01*
X146474911Y-107749480D01*
X146424115Y-107673458D01*
X146424109Y-107673451D01*
X143372838Y-104622181D01*
X143339353Y-104560858D01*
X143344337Y-104491166D01*
X143386209Y-104435233D01*
X143451673Y-104410816D01*
X143460519Y-104410500D01*
X165599481Y-104410500D01*
X165666520Y-104430185D01*
G37*
%TD.AperFunction*%
%TA.AperFunction,Conductor*%
G36*
X141498334Y-104744837D02*
G01*
X141542681Y-104773338D01*
X144971873Y-108202530D01*
X145005358Y-108263853D01*
X145000374Y-108333545D01*
X144965591Y-108381321D01*
X144966451Y-108382181D01*
X144837289Y-108511342D01*
X144745187Y-108660663D01*
X144745185Y-108660668D01*
X144719111Y-108739356D01*
X144690001Y-108827203D01*
X144690001Y-108827204D01*
X144690000Y-108827204D01*
X144679500Y-108929983D01*
X144679500Y-109730001D01*
X144679501Y-109730019D01*
X144690000Y-109832796D01*
X144690001Y-109832799D01*
X144745185Y-109999331D01*
X144745187Y-109999336D01*
X144745223Y-109999394D01*
X144832909Y-110141557D01*
X144837289Y-110148657D01*
X144930951Y-110242319D01*
X144964436Y-110303642D01*
X144959452Y-110373334D01*
X144930951Y-110417681D01*
X144837289Y-110511342D01*
X144745187Y-110660663D01*
X144745185Y-110660668D01*
X144690001Y-110827204D01*
X144690000Y-110827205D01*
X144679693Y-110928102D01*
X144653297Y-110992794D01*
X144596116Y-111032946D01*
X144556335Y-111039500D01*
X141620907Y-111039500D01*
X141553868Y-111019815D01*
X141508113Y-110967011D01*
X141498169Y-110897853D01*
X141514175Y-110852380D01*
X141535973Y-110815518D01*
X141556744Y-110780398D01*
X141598008Y-110638369D01*
X141602597Y-110622573D01*
X141602598Y-110622567D01*
X141604268Y-110601344D01*
X141605500Y-110585694D01*
X141605500Y-110154306D01*
X141602598Y-110117431D01*
X141597678Y-110100498D01*
X141556745Y-109959606D01*
X141556744Y-109959603D01*
X141556744Y-109959602D01*
X141473081Y-109818135D01*
X141473079Y-109818133D01*
X141473076Y-109818129D01*
X141356870Y-109701923D01*
X141356862Y-109701917D01*
X141261497Y-109645519D01*
X141215398Y-109618256D01*
X141215397Y-109618255D01*
X141215396Y-109618255D01*
X141215393Y-109618254D01*
X141057573Y-109572402D01*
X141057558Y-109572400D01*
X141044767Y-109571393D01*
X140979479Y-109546507D01*
X140938010Y-109490275D01*
X140930500Y-109447776D01*
X140930500Y-108758957D01*
X140950185Y-108691918D01*
X140967392Y-108670706D01*
X140977413Y-108660814D01*
X140998656Y-108647712D01*
X141122712Y-108523656D01*
X141132580Y-108507655D01*
X141143185Y-108497189D01*
X141161356Y-108487419D01*
X141176694Y-108473623D01*
X141191506Y-108471211D01*
X141204725Y-108464105D01*
X141225291Y-108465710D01*
X141245656Y-108462395D01*
X141259421Y-108468375D01*
X141274383Y-108469543D01*
X141290817Y-108482013D01*
X141309740Y-108490234D01*
X141325275Y-108508161D01*
X141330042Y-108511778D01*
X141331232Y-108515035D01*
X141335829Y-108520339D01*
X141337681Y-108523341D01*
X141337683Y-108523344D01*
X141461654Y-108647315D01*
X141610875Y-108739356D01*
X141610880Y-108739358D01*
X141777302Y-108794505D01*
X141777309Y-108794506D01*
X141880019Y-108804999D01*
X142430000Y-108804999D01*
X142479972Y-108804999D01*
X142479986Y-108804998D01*
X142582697Y-108794505D01*
X142749119Y-108739358D01*
X142749124Y-108739356D01*
X142898345Y-108647315D01*
X143022315Y-108523345D01*
X143114356Y-108374124D01*
X143114358Y-108374119D01*
X143169505Y-108207697D01*
X143169506Y-108207690D01*
X143179999Y-108104986D01*
X143180000Y-108104973D01*
X143180000Y-107830000D01*
X142430000Y-107830000D01*
X142430000Y-108804999D01*
X141880019Y-108804999D01*
X141929999Y-108804998D01*
X141930000Y-108804998D01*
X141930000Y-107330000D01*
X142430000Y-107330000D01*
X143179999Y-107330000D01*
X143179999Y-107055028D01*
X143179998Y-107055013D01*
X143169505Y-106952302D01*
X143114358Y-106785880D01*
X143114356Y-106785875D01*
X143022315Y-106636654D01*
X142898345Y-106512684D01*
X142749124Y-106420643D01*
X142749119Y-106420641D01*
X142582697Y-106365494D01*
X142582690Y-106365493D01*
X142479986Y-106355000D01*
X142430000Y-106355000D01*
X142430000Y-107330000D01*
X141930000Y-107330000D01*
X141930000Y-106355000D01*
X141929999Y-106354999D01*
X141880029Y-106355000D01*
X141880011Y-106355001D01*
X141777302Y-106365494D01*
X141610880Y-106420641D01*
X141610875Y-106420643D01*
X141461654Y-106512684D01*
X141337683Y-106636655D01*
X141337679Y-106636660D01*
X141335826Y-106639665D01*
X141334018Y-106641290D01*
X141333202Y-106642323D01*
X141333025Y-106642183D01*
X141283874Y-106686385D01*
X141214911Y-106697601D01*
X141150831Y-106669752D01*
X141140595Y-106660176D01*
X141131597Y-106650749D01*
X141122712Y-106636344D01*
X141015808Y-106529440D01*
X141014802Y-106528386D01*
X140999414Y-106498577D01*
X140983334Y-106469127D01*
X140983102Y-106466977D01*
X140982753Y-106466300D01*
X140982882Y-106464931D01*
X140980500Y-106442769D01*
X140980500Y-105211519D01*
X141000185Y-105144480D01*
X141016819Y-105123838D01*
X141367319Y-104773338D01*
X141428642Y-104739853D01*
X141498334Y-104744837D01*
G37*
%TD.AperFunction*%
%TA.AperFunction,Conductor*%
G36*
X202375520Y-92120185D02*
G01*
X202396162Y-92136819D01*
X205054966Y-94795623D01*
X205088451Y-94856946D01*
X205083467Y-94926638D01*
X205041595Y-94982571D01*
X204979887Y-95006662D01*
X204947202Y-95010001D01*
X204947200Y-95010001D01*
X204780668Y-95065185D01*
X204780663Y-95065187D01*
X204631342Y-95157289D01*
X204507289Y-95281342D01*
X204415187Y-95430663D01*
X204415186Y-95430666D01*
X204390719Y-95504504D01*
X204387405Y-95514504D01*
X204347632Y-95571949D01*
X204283116Y-95598772D01*
X204269699Y-95599500D01*
X201474499Y-95599500D01*
X201407460Y-95579815D01*
X201361705Y-95527011D01*
X201350499Y-95475500D01*
X201350499Y-95292129D01*
X201350498Y-95292123D01*
X201350497Y-95292116D01*
X201344091Y-95232517D01*
X201337673Y-95215310D01*
X201293797Y-95097671D01*
X201293793Y-95097664D01*
X201207547Y-94982455D01*
X201207544Y-94982452D01*
X201092335Y-94896206D01*
X201092328Y-94896202D01*
X200957482Y-94845908D01*
X200957483Y-94845908D01*
X200897883Y-94839501D01*
X200897881Y-94839500D01*
X200897873Y-94839500D01*
X200897864Y-94839500D01*
X199102129Y-94839500D01*
X199102123Y-94839501D01*
X199042516Y-94845908D01*
X198907671Y-94896202D01*
X198907664Y-94896206D01*
X198792455Y-94982452D01*
X198792452Y-94982455D01*
X198706206Y-95097664D01*
X198706202Y-95097671D01*
X198655908Y-95232517D01*
X198650659Y-95281344D01*
X198649501Y-95292123D01*
X198649500Y-95292135D01*
X198649500Y-96639900D01*
X198640855Y-96669340D01*
X198634332Y-96699327D01*
X198630577Y-96704342D01*
X198629815Y-96706939D01*
X198613181Y-96727581D01*
X198506487Y-96834275D01*
X198480815Y-96853976D01*
X198471284Y-96859479D01*
X198432950Y-96897814D01*
X198359480Y-96971284D01*
X195189481Y-100141282D01*
X195189479Y-100141285D01*
X195175682Y-100165183D01*
X195147988Y-100213152D01*
X195139361Y-100228094D01*
X195139359Y-100228096D01*
X195110425Y-100278209D01*
X195110424Y-100278210D01*
X195110423Y-100278215D01*
X195069499Y-100430943D01*
X195069499Y-100430945D01*
X195069499Y-100599046D01*
X195069500Y-100599059D01*
X195069500Y-103419902D01*
X195049815Y-103486941D01*
X195033181Y-103507583D01*
X189126022Y-109414741D01*
X189064699Y-109448226D01*
X188995007Y-109443242D01*
X188939074Y-109401370D01*
X188914657Y-109335906D01*
X188915867Y-109307663D01*
X188920500Y-109278417D01*
X188920500Y-109081583D01*
X188920500Y-109081577D01*
X188889709Y-108887173D01*
X188853935Y-108777073D01*
X188828884Y-108699975D01*
X188828882Y-108699972D01*
X188828882Y-108699970D01*
X188772011Y-108588355D01*
X188739524Y-108524595D01*
X188623828Y-108365354D01*
X188484646Y-108226172D01*
X188353190Y-108130663D01*
X188325403Y-108110474D01*
X188148787Y-108020485D01*
X188097990Y-107972511D01*
X188081195Y-107904690D01*
X188103732Y-107838555D01*
X188148787Y-107799515D01*
X188325403Y-107709525D01*
X188325402Y-107709525D01*
X188325405Y-107709524D01*
X188484646Y-107593828D01*
X188623828Y-107454646D01*
X188739524Y-107295405D01*
X188828884Y-107120025D01*
X188889709Y-106932826D01*
X188900696Y-106863456D01*
X188920500Y-106738422D01*
X188920500Y-106541577D01*
X188889709Y-106347173D01*
X188856092Y-106243713D01*
X188828884Y-106159975D01*
X188828882Y-106159972D01*
X188828882Y-106159970D01*
X188767499Y-106039499D01*
X188739524Y-105984595D01*
X188623828Y-105825354D01*
X188484646Y-105686172D01*
X188405025Y-105628324D01*
X188325403Y-105570474D01*
X188148787Y-105480485D01*
X188097990Y-105432511D01*
X188081195Y-105364690D01*
X188103732Y-105298555D01*
X188148787Y-105259515D01*
X188325403Y-105169525D01*
X188325402Y-105169525D01*
X188325405Y-105169524D01*
X188484646Y-105053828D01*
X188623828Y-104914646D01*
X188739524Y-104755405D01*
X188828884Y-104580025D01*
X188889709Y-104392826D01*
X188899942Y-104328217D01*
X188920500Y-104198422D01*
X188920500Y-104001577D01*
X188889709Y-103807173D01*
X188856092Y-103703713D01*
X188828884Y-103619975D01*
X188828882Y-103619972D01*
X188828882Y-103619970D01*
X188739523Y-103444594D01*
X188713599Y-103408913D01*
X188623828Y-103285354D01*
X188484646Y-103146172D01*
X188349913Y-103048282D01*
X188325403Y-103030474D01*
X188148787Y-102940485D01*
X188097990Y-102892511D01*
X188081195Y-102824690D01*
X188103732Y-102758555D01*
X188148787Y-102719515D01*
X188325403Y-102629525D01*
X188325402Y-102629525D01*
X188325405Y-102629524D01*
X188484646Y-102513828D01*
X188623828Y-102374646D01*
X188739524Y-102215405D01*
X188828884Y-102040025D01*
X188889709Y-101852826D01*
X188898073Y-101800016D01*
X188920500Y-101658422D01*
X188920500Y-101461577D01*
X188889709Y-101267173D01*
X188828882Y-101079970D01*
X188766103Y-100956760D01*
X188739524Y-100904595D01*
X188623828Y-100745354D01*
X188484646Y-100606172D01*
X188380724Y-100530668D01*
X188325403Y-100490474D01*
X188148787Y-100400485D01*
X188097990Y-100352511D01*
X188081195Y-100284690D01*
X188103732Y-100218555D01*
X188148787Y-100179515D01*
X188325403Y-100089525D01*
X188325402Y-100089525D01*
X188325405Y-100089524D01*
X188484646Y-99973828D01*
X188623828Y-99834646D01*
X188739524Y-99675405D01*
X188828884Y-99500025D01*
X188889709Y-99312826D01*
X188896597Y-99269336D01*
X188920500Y-99118422D01*
X188920500Y-98921577D01*
X188889709Y-98727173D01*
X188834718Y-98557930D01*
X188828884Y-98539975D01*
X188828882Y-98539972D01*
X188828882Y-98539970D01*
X188739523Y-98364594D01*
X188714317Y-98329901D01*
X188623828Y-98205354D01*
X188484646Y-98066172D01*
X188403600Y-98007288D01*
X188325403Y-97950474D01*
X188148787Y-97860485D01*
X188097990Y-97812511D01*
X188081195Y-97744690D01*
X188103732Y-97678555D01*
X188148787Y-97639515D01*
X188322604Y-97550951D01*
X188325405Y-97549524D01*
X188484646Y-97433828D01*
X188623828Y-97294646D01*
X188739524Y-97135405D01*
X188828884Y-96960025D01*
X188889709Y-96772826D01*
X188899911Y-96708412D01*
X188920500Y-96578422D01*
X188920500Y-96381577D01*
X188889709Y-96187173D01*
X188828882Y-95999970D01*
X188781743Y-95907455D01*
X188739524Y-95824595D01*
X188623828Y-95665354D01*
X188484646Y-95526172D01*
X188353190Y-95430663D01*
X188325403Y-95410474D01*
X188148787Y-95320485D01*
X188097990Y-95272511D01*
X188081195Y-95204690D01*
X188103732Y-95138555D01*
X188148787Y-95099515D01*
X188325403Y-95009525D01*
X188325402Y-95009525D01*
X188325405Y-95009524D01*
X188484646Y-94893828D01*
X188623828Y-94754646D01*
X188739524Y-94595405D01*
X188828884Y-94420025D01*
X188889709Y-94232826D01*
X188904321Y-94140568D01*
X188920500Y-94038422D01*
X188920500Y-93841577D01*
X188889709Y-93647173D01*
X188843671Y-93505485D01*
X188828884Y-93459975D01*
X188828882Y-93459972D01*
X188828882Y-93459970D01*
X188773444Y-93351167D01*
X188739524Y-93284595D01*
X188623828Y-93125354D01*
X188484646Y-92986172D01*
X188405025Y-92928324D01*
X188325403Y-92870474D01*
X188148787Y-92780485D01*
X188097990Y-92732511D01*
X188081195Y-92664690D01*
X188103732Y-92598555D01*
X188148787Y-92559515D01*
X188325403Y-92469525D01*
X188325402Y-92469525D01*
X188325405Y-92469524D01*
X188484646Y-92353828D01*
X188623828Y-92214646D01*
X188669624Y-92151613D01*
X188724953Y-92108949D01*
X188769941Y-92100500D01*
X202308481Y-92100500D01*
X202375520Y-92120185D01*
G37*
%TD.AperFunction*%
%TA.AperFunction,Conductor*%
G36*
X113281320Y-104430185D02*
G01*
X113324765Y-104478205D01*
X113344947Y-104517814D01*
X113344948Y-104517815D01*
X113469890Y-104689786D01*
X113620213Y-104840109D01*
X113792182Y-104965050D01*
X113800946Y-104969516D01*
X113851742Y-105017491D01*
X113868536Y-105085312D01*
X113845998Y-105151447D01*
X113800946Y-105190484D01*
X113792182Y-105194949D01*
X113620213Y-105319890D01*
X113469890Y-105470213D01*
X113344951Y-105642179D01*
X113248444Y-105831585D01*
X113182753Y-106033760D01*
X113149500Y-106243713D01*
X113149500Y-106456286D01*
X113178555Y-106639735D01*
X113182754Y-106666243D01*
X113229348Y-106809645D01*
X113248444Y-106868414D01*
X113344951Y-107057820D01*
X113469890Y-107229786D01*
X113620213Y-107380109D01*
X113792182Y-107505050D01*
X113800946Y-107509516D01*
X113851742Y-107557491D01*
X113868536Y-107625312D01*
X113845998Y-107691447D01*
X113800946Y-107730484D01*
X113792182Y-107734949D01*
X113620213Y-107859890D01*
X113469890Y-108010213D01*
X113344948Y-108182184D01*
X113344947Y-108182185D01*
X113324765Y-108221795D01*
X113276791Y-108272591D01*
X113214281Y-108289500D01*
X109826987Y-108289500D01*
X109759948Y-108269815D01*
X109714193Y-108217011D01*
X109709281Y-108204504D01*
X109701962Y-108182416D01*
X109684814Y-108130666D01*
X109592712Y-107981344D01*
X109468656Y-107857288D01*
X109375888Y-107800069D01*
X109319336Y-107765187D01*
X109319331Y-107765185D01*
X109317862Y-107764698D01*
X109152797Y-107710001D01*
X109152795Y-107710000D01*
X109050010Y-107699500D01*
X108249998Y-107699500D01*
X108249980Y-107699501D01*
X108147203Y-107710000D01*
X108147200Y-107710001D01*
X107980668Y-107765185D01*
X107980663Y-107765187D01*
X107831342Y-107857289D01*
X107737681Y-107950951D01*
X107676358Y-107984436D01*
X107606666Y-107979452D01*
X107562319Y-107950951D01*
X107468657Y-107857289D01*
X107468656Y-107857288D01*
X107375888Y-107800069D01*
X107319336Y-107765187D01*
X107319331Y-107765185D01*
X107317082Y-107764439D01*
X107235495Y-107737404D01*
X107178051Y-107697632D01*
X107151228Y-107633116D01*
X107150500Y-107619699D01*
X107150500Y-105063732D01*
X107170185Y-104996693D01*
X107222989Y-104950938D01*
X107235495Y-104946026D01*
X107269334Y-104934814D01*
X107418656Y-104842712D01*
X107512319Y-104749049D01*
X107573642Y-104715564D01*
X107643334Y-104720548D01*
X107687681Y-104749049D01*
X107781344Y-104842712D01*
X107930666Y-104934814D01*
X108097203Y-104989999D01*
X108199991Y-105000500D01*
X109000008Y-105000499D01*
X109000016Y-105000498D01*
X109000019Y-105000498D01*
X109056302Y-104994748D01*
X109102797Y-104989999D01*
X109269334Y-104934814D01*
X109418656Y-104842712D01*
X109542712Y-104718656D01*
X109634814Y-104569334D01*
X109659281Y-104495495D01*
X109699054Y-104438051D01*
X109763569Y-104411228D01*
X109776987Y-104410500D01*
X113214281Y-104410500D01*
X113281320Y-104430185D01*
G37*
%TD.AperFunction*%
%TA.AperFunction,Conductor*%
G36*
X113167909Y-100700185D02*
G01*
X113213664Y-100752989D01*
X113223608Y-100822147D01*
X113218802Y-100842811D01*
X113194417Y-100917863D01*
X113182753Y-100953760D01*
X113162763Y-101079975D01*
X113149500Y-101163713D01*
X113149500Y-101376287D01*
X113155052Y-101411342D01*
X113182753Y-101586239D01*
X113182753Y-101586241D01*
X113182754Y-101586243D01*
X113237431Y-101754522D01*
X113248444Y-101788414D01*
X113344951Y-101977820D01*
X113469890Y-102149786D01*
X113620213Y-102300109D01*
X113792182Y-102425050D01*
X113800946Y-102429516D01*
X113851742Y-102477491D01*
X113868536Y-102545312D01*
X113845998Y-102611447D01*
X113800946Y-102650484D01*
X113792182Y-102654949D01*
X113620213Y-102779890D01*
X113469890Y-102930213D01*
X113344948Y-103102184D01*
X113344947Y-103102185D01*
X113324765Y-103141795D01*
X113276791Y-103192591D01*
X113214281Y-103209500D01*
X109783615Y-103209500D01*
X109716576Y-103189815D01*
X109670821Y-103137011D01*
X109665909Y-103124505D01*
X109634814Y-103030666D01*
X109542712Y-102881344D01*
X109418656Y-102757288D01*
X109325888Y-102700069D01*
X109269336Y-102665187D01*
X109269331Y-102665185D01*
X109267862Y-102664698D01*
X109102797Y-102610001D01*
X109102795Y-102610000D01*
X109000010Y-102599500D01*
X108199998Y-102599500D01*
X108199980Y-102599501D01*
X108097203Y-102610000D01*
X108097200Y-102610001D01*
X107930668Y-102665185D01*
X107930663Y-102665187D01*
X107781342Y-102757289D01*
X107687681Y-102850951D01*
X107626358Y-102884436D01*
X107556666Y-102879452D01*
X107512319Y-102850951D01*
X107418657Y-102757289D01*
X107418656Y-102757288D01*
X107325888Y-102700069D01*
X107269336Y-102665187D01*
X107269335Y-102665186D01*
X107269334Y-102665186D01*
X107269328Y-102665184D01*
X107235494Y-102653972D01*
X107178050Y-102614199D01*
X107151228Y-102549683D01*
X107150500Y-102536267D01*
X107150500Y-100804500D01*
X107170185Y-100737461D01*
X107222989Y-100691706D01*
X107274500Y-100680500D01*
X113100870Y-100680500D01*
X113167909Y-100700185D01*
G37*
%TD.AperFunction*%
%TA.AperFunction,Conductor*%
G36*
X113281320Y-96810185D02*
G01*
X113324765Y-96858205D01*
X113344947Y-96897814D01*
X113344948Y-96897815D01*
X113469890Y-97069786D01*
X113620213Y-97220109D01*
X113792179Y-97345048D01*
X113792181Y-97345049D01*
X113792184Y-97345051D01*
X113801493Y-97349794D01*
X113852290Y-97397766D01*
X113869087Y-97465587D01*
X113846552Y-97531722D01*
X113801505Y-97570760D01*
X113792446Y-97575376D01*
X113792440Y-97575380D01*
X113738282Y-97614727D01*
X113738282Y-97614728D01*
X114370591Y-98247037D01*
X114307007Y-98264075D01*
X114192993Y-98329901D01*
X114099901Y-98422993D01*
X114034075Y-98537007D01*
X114017037Y-98600591D01*
X113384728Y-97968282D01*
X113384727Y-97968282D01*
X113345380Y-98022439D01*
X113248904Y-98211782D01*
X113183242Y-98413869D01*
X113183242Y-98413872D01*
X113150000Y-98623753D01*
X113150000Y-98836246D01*
X113183242Y-99046127D01*
X113183242Y-99046130D01*
X113206329Y-99117182D01*
X113208324Y-99187023D01*
X113172244Y-99246856D01*
X113109543Y-99277684D01*
X113088398Y-99279500D01*
X107274500Y-99279500D01*
X107207461Y-99259815D01*
X107161706Y-99207011D01*
X107150500Y-99155500D01*
X107150500Y-97445908D01*
X107170185Y-97378869D01*
X107214271Y-97340363D01*
X107213187Y-97338605D01*
X107219332Y-97334814D01*
X107219334Y-97334814D01*
X107368656Y-97242712D01*
X107462319Y-97149049D01*
X107523642Y-97115564D01*
X107593334Y-97120548D01*
X107637681Y-97149049D01*
X107731344Y-97242712D01*
X107880666Y-97334814D01*
X108047203Y-97389999D01*
X108149991Y-97400500D01*
X108950008Y-97400499D01*
X108950016Y-97400498D01*
X108950019Y-97400498D01*
X109006302Y-97394748D01*
X109052797Y-97389999D01*
X109219334Y-97334814D01*
X109368656Y-97242712D01*
X109492712Y-97118656D01*
X109584814Y-96969334D01*
X109615909Y-96875494D01*
X109655682Y-96818051D01*
X109720198Y-96791228D01*
X109733615Y-96790500D01*
X113214281Y-96790500D01*
X113281320Y-96810185D01*
G37*
%TD.AperFunction*%
%TA.AperFunction,Conductor*%
G36*
X113281320Y-89190185D02*
G01*
X113324765Y-89238205D01*
X113344947Y-89277814D01*
X113344948Y-89277815D01*
X113469890Y-89449786D01*
X113620213Y-89600109D01*
X113792182Y-89725050D01*
X113800946Y-89729516D01*
X113851742Y-89777491D01*
X113868536Y-89845312D01*
X113845998Y-89911447D01*
X113800946Y-89950484D01*
X113792182Y-89954949D01*
X113620213Y-90079890D01*
X113469890Y-90230213D01*
X113344951Y-90402179D01*
X113248444Y-90591585D01*
X113182753Y-90793760D01*
X113162763Y-90919975D01*
X113149500Y-91003713D01*
X113149500Y-91216287D01*
X113182754Y-91426243D01*
X113230827Y-91574197D01*
X113248444Y-91628414D01*
X113344951Y-91817820D01*
X113469890Y-91989786D01*
X113620213Y-92140109D01*
X113792182Y-92265050D01*
X113800946Y-92269516D01*
X113851742Y-92317491D01*
X113868536Y-92385312D01*
X113845998Y-92451447D01*
X113800946Y-92490484D01*
X113792182Y-92494949D01*
X113620213Y-92619890D01*
X113469890Y-92770213D01*
X113344951Y-92942179D01*
X113248444Y-93131585D01*
X113182753Y-93333760D01*
X113149500Y-93543713D01*
X113149500Y-93756286D01*
X113178679Y-93940518D01*
X113182754Y-93966243D01*
X113239395Y-94140566D01*
X113248444Y-94168414D01*
X113344951Y-94357820D01*
X113469890Y-94529786D01*
X113620213Y-94680109D01*
X113792182Y-94805050D01*
X113800946Y-94809516D01*
X113851742Y-94857491D01*
X113868536Y-94925312D01*
X113845998Y-94991447D01*
X113800946Y-95030484D01*
X113792182Y-95034949D01*
X113620213Y-95159890D01*
X113469890Y-95310213D01*
X113344948Y-95482184D01*
X113344947Y-95482185D01*
X113324765Y-95521795D01*
X113276791Y-95572591D01*
X113214281Y-95589500D01*
X109726987Y-95589500D01*
X109659948Y-95569815D01*
X109614193Y-95517011D01*
X109609281Y-95504504D01*
X109584814Y-95430666D01*
X109492712Y-95281344D01*
X109368656Y-95157288D01*
X109275888Y-95100069D01*
X109219336Y-95065187D01*
X109219331Y-95065185D01*
X109217862Y-95064698D01*
X109052797Y-95010001D01*
X109052795Y-95010000D01*
X108950010Y-94999500D01*
X108149998Y-94999500D01*
X108149980Y-94999501D01*
X108047203Y-95010000D01*
X108047200Y-95010001D01*
X107880668Y-95065185D01*
X107880663Y-95065187D01*
X107731342Y-95157289D01*
X107637681Y-95250951D01*
X107576358Y-95284436D01*
X107506666Y-95279452D01*
X107462319Y-95250951D01*
X107368657Y-95157289D01*
X107368656Y-95157288D01*
X107219334Y-95065186D01*
X107219332Y-95065185D01*
X107213187Y-95061395D01*
X107214290Y-95059605D01*
X107169649Y-95020290D01*
X107150500Y-94954091D01*
X107150500Y-89834797D01*
X107170185Y-89767758D01*
X107194540Y-89740022D01*
X107201572Y-89734088D01*
X107268656Y-89692712D01*
X107366028Y-89595339D01*
X107370040Y-89591955D01*
X107397401Y-89579892D01*
X107423642Y-89565564D01*
X107429028Y-89565949D01*
X107433972Y-89563770D01*
X107463512Y-89568415D01*
X107493334Y-89570548D01*
X107498601Y-89573933D01*
X107502994Y-89574624D01*
X107511620Y-89582300D01*
X107537681Y-89599049D01*
X107631344Y-89692712D01*
X107780666Y-89784814D01*
X107947203Y-89839999D01*
X108049991Y-89850500D01*
X108850008Y-89850499D01*
X108850016Y-89850498D01*
X108850019Y-89850498D01*
X108906302Y-89844748D01*
X108952797Y-89839999D01*
X109119334Y-89784814D01*
X109268656Y-89692712D01*
X109392712Y-89568656D01*
X109484814Y-89419334D01*
X109539105Y-89255494D01*
X109578877Y-89198051D01*
X109643392Y-89171228D01*
X109656810Y-89170500D01*
X113214281Y-89170500D01*
X113281320Y-89190185D01*
G37*
%TD.AperFunction*%
%TA.AperFunction,Conductor*%
G36*
X232003736Y-80500726D02*
G01*
X232293796Y-80518271D01*
X232308659Y-80520076D01*
X232590797Y-80571780D01*
X232605334Y-80575363D01*
X232879182Y-80660698D01*
X232893163Y-80666000D01*
X233154734Y-80783724D01*
X233167987Y-80790680D01*
X233413458Y-80939071D01*
X233425776Y-80947573D01*
X233541665Y-81038366D01*
X233651573Y-81124474D01*
X233662781Y-81134404D01*
X233865595Y-81337218D01*
X233875525Y-81348426D01*
X234052422Y-81574217D01*
X234060928Y-81586541D01*
X234209319Y-81832012D01*
X234216277Y-81845269D01*
X234333994Y-82106823D01*
X234339304Y-82120825D01*
X234424635Y-82394664D01*
X234428219Y-82409202D01*
X234479923Y-82691340D01*
X234481728Y-82706205D01*
X234499274Y-82996263D01*
X234499500Y-83003750D01*
X234499500Y-116996249D01*
X234499274Y-117003736D01*
X234481728Y-117293794D01*
X234479923Y-117308659D01*
X234428219Y-117590797D01*
X234424635Y-117605335D01*
X234339304Y-117879174D01*
X234333994Y-117893176D01*
X234216277Y-118154730D01*
X234209319Y-118167987D01*
X234060928Y-118413458D01*
X234052422Y-118425782D01*
X233875525Y-118651573D01*
X233865595Y-118662781D01*
X233662781Y-118865595D01*
X233651573Y-118875525D01*
X233425782Y-119052422D01*
X233413458Y-119060928D01*
X233167987Y-119209319D01*
X233154730Y-119216277D01*
X232893176Y-119333994D01*
X232879174Y-119339304D01*
X232605335Y-119424635D01*
X232590797Y-119428219D01*
X232308659Y-119479923D01*
X232293794Y-119481728D01*
X232003736Y-119499274D01*
X231996249Y-119499500D01*
X68003751Y-119499500D01*
X67996264Y-119499274D01*
X67706205Y-119481728D01*
X67691340Y-119479923D01*
X67409202Y-119428219D01*
X67394664Y-119424635D01*
X67120825Y-119339304D01*
X67106827Y-119333995D01*
X66954096Y-119265256D01*
X66845269Y-119216277D01*
X66832012Y-119209319D01*
X66586541Y-119060928D01*
X66574217Y-119052422D01*
X66348426Y-118875525D01*
X66337218Y-118865595D01*
X66134404Y-118662781D01*
X66124474Y-118651573D01*
X65947573Y-118425776D01*
X65939071Y-118413458D01*
X65790680Y-118167987D01*
X65783722Y-118154730D01*
X65666000Y-117893163D01*
X65660698Y-117879182D01*
X65575363Y-117605334D01*
X65571780Y-117590797D01*
X65557752Y-117514250D01*
X65520075Y-117308657D01*
X65518271Y-117293794D01*
X65507836Y-117121288D01*
X65500726Y-117003736D01*
X65500500Y-116996249D01*
X65500500Y-116878711D01*
X75149500Y-116878711D01*
X75149500Y-117121288D01*
X75181161Y-117361785D01*
X75243947Y-117596104D01*
X75290593Y-117708716D01*
X75336776Y-117820212D01*
X75458064Y-118030289D01*
X75458066Y-118030292D01*
X75458067Y-118030293D01*
X75605733Y-118222736D01*
X75605739Y-118222743D01*
X75777256Y-118394260D01*
X75777263Y-118394266D01*
X75818336Y-118425782D01*
X75969711Y-118541936D01*
X76179788Y-118663224D01*
X76403900Y-118756054D01*
X76638211Y-118818838D01*
X76818586Y-118842584D01*
X76878711Y-118850500D01*
X76878712Y-118850500D01*
X77121289Y-118850500D01*
X77169388Y-118844167D01*
X77361789Y-118818838D01*
X77596100Y-118756054D01*
X77820212Y-118663224D01*
X78030289Y-118541936D01*
X78222738Y-118394265D01*
X78394265Y-118222738D01*
X78541936Y-118030289D01*
X78663224Y-117820212D01*
X78756054Y-117596100D01*
X78818838Y-117361789D01*
X78850500Y-117121288D01*
X78850500Y-116878712D01*
X78850500Y-116878711D01*
X109149500Y-116878711D01*
X109149500Y-117121288D01*
X109181161Y-117361785D01*
X109243947Y-117596104D01*
X109290593Y-117708716D01*
X109336776Y-117820212D01*
X109458064Y-118030289D01*
X109458066Y-118030292D01*
X109458067Y-118030293D01*
X109605733Y-118222736D01*
X109605739Y-118222743D01*
X109777256Y-118394260D01*
X109777263Y-118394266D01*
X109818336Y-118425782D01*
X109969711Y-118541936D01*
X110179788Y-118663224D01*
X110403900Y-118756054D01*
X110638211Y-118818838D01*
X110818586Y-118842584D01*
X110878711Y-118850500D01*
X110878712Y-118850500D01*
X111121289Y-118850500D01*
X111169388Y-118844167D01*
X111361789Y-118818838D01*
X111596100Y-118756054D01*
X111820212Y-118663224D01*
X112030289Y-118541936D01*
X112222738Y-118394265D01*
X112394265Y-118222738D01*
X112541936Y-118030289D01*
X112663224Y-117820212D01*
X112756054Y-117596100D01*
X112818838Y-117361789D01*
X112850500Y-117121288D01*
X112850500Y-116878712D01*
X112818838Y-116638211D01*
X112756054Y-116403900D01*
X112752063Y-116394266D01*
X112731457Y-116344517D01*
X112663224Y-116179788D01*
X112541936Y-115969711D01*
X112405407Y-115791782D01*
X112394266Y-115777263D01*
X112394260Y-115777256D01*
X112222743Y-115605739D01*
X112222736Y-115605733D01*
X112030293Y-115458067D01*
X112030292Y-115458066D01*
X112030289Y-115458064D01*
X111820212Y-115336776D01*
X111820205Y-115336773D01*
X111596104Y-115243947D01*
X111361785Y-115181161D01*
X111208261Y-115160950D01*
X111121289Y-115149500D01*
X111121288Y-115149500D01*
X110878712Y-115149500D01*
X110878711Y-115149500D01*
X110638214Y-115181161D01*
X110403895Y-115243947D01*
X110179794Y-115336773D01*
X110179785Y-115336777D01*
X109969706Y-115458067D01*
X109777263Y-115605733D01*
X109777256Y-115605739D01*
X109605739Y-115777256D01*
X109605733Y-115777263D01*
X109458067Y-115969706D01*
X109336777Y-116179785D01*
X109336773Y-116179794D01*
X109243947Y-116403895D01*
X109181161Y-116638214D01*
X109149500Y-116878711D01*
X78850500Y-116878711D01*
X78818838Y-116638211D01*
X78756054Y-116403900D01*
X78752063Y-116394266D01*
X78731457Y-116344517D01*
X78663224Y-116179788D01*
X78541936Y-115969711D01*
X78405407Y-115791782D01*
X78394266Y-115777263D01*
X78394260Y-115777256D01*
X78222743Y-115605739D01*
X78222736Y-115605733D01*
X78030293Y-115458067D01*
X78030292Y-115458066D01*
X78030289Y-115458064D01*
X77820212Y-115336776D01*
X77820205Y-115336773D01*
X77596104Y-115243947D01*
X77361785Y-115181161D01*
X77121289Y-115149500D01*
X77121288Y-115149500D01*
X76878712Y-115149500D01*
X76878711Y-115149500D01*
X76638214Y-115181161D01*
X76403895Y-115243947D01*
X76179794Y-115336773D01*
X76179785Y-115336777D01*
X75969706Y-115458067D01*
X75777263Y-115605733D01*
X75777256Y-115605739D01*
X75605739Y-115777256D01*
X75605733Y-115777263D01*
X75458067Y-115969706D01*
X75336777Y-116179785D01*
X75336773Y-116179794D01*
X75243947Y-116403895D01*
X75181161Y-116638214D01*
X75149500Y-116878711D01*
X65500500Y-116878711D01*
X65500500Y-114878711D01*
X66149500Y-114878711D01*
X66149500Y-115121288D01*
X66181161Y-115361785D01*
X66243947Y-115596104D01*
X66318986Y-115777263D01*
X66336776Y-115820212D01*
X66458064Y-116030289D01*
X66458066Y-116030292D01*
X66458067Y-116030293D01*
X66605733Y-116222736D01*
X66605739Y-116222743D01*
X66777256Y-116394260D01*
X66777263Y-116394266D01*
X66871051Y-116466232D01*
X66969711Y-116541936D01*
X67179788Y-116663224D01*
X67403900Y-116756054D01*
X67638211Y-116818838D01*
X67818586Y-116842584D01*
X67878711Y-116850500D01*
X67878712Y-116850500D01*
X68121289Y-116850500D01*
X68169388Y-116844167D01*
X68361789Y-116818838D01*
X68596100Y-116756054D01*
X68820212Y-116663224D01*
X69030289Y-116541936D01*
X69222738Y-116394265D01*
X69394265Y-116222738D01*
X69541936Y-116030289D01*
X69663224Y-115820212D01*
X69756054Y-115596100D01*
X69818838Y-115361789D01*
X69850500Y-115121288D01*
X69850500Y-114878712D01*
X69818838Y-114638211D01*
X69756054Y-114403900D01*
X69663224Y-114179788D01*
X69541936Y-113969711D01*
X69533266Y-113958412D01*
X69514816Y-113934367D01*
X69394266Y-113777263D01*
X69394260Y-113777256D01*
X69222743Y-113605739D01*
X69222736Y-113605733D01*
X69030293Y-113458067D01*
X69030292Y-113458066D01*
X69030289Y-113458064D01*
X68820212Y-113336776D01*
X68780672Y-113320398D01*
X68596104Y-113243947D01*
X68361785Y-113181161D01*
X68121289Y-113149500D01*
X68121288Y-113149500D01*
X67878712Y-113149500D01*
X67878711Y-113149500D01*
X67638214Y-113181161D01*
X67403895Y-113243947D01*
X67179794Y-113336773D01*
X67179785Y-113336777D01*
X66969706Y-113458067D01*
X66777263Y-113605733D01*
X66777256Y-113605739D01*
X66605739Y-113777256D01*
X66605733Y-113777263D01*
X66458067Y-113969706D01*
X66336777Y-114179785D01*
X66336773Y-114179794D01*
X66243947Y-114403895D01*
X66181161Y-114638214D01*
X66149500Y-114878711D01*
X65500500Y-114878711D01*
X65500500Y-88149983D01*
X105349500Y-88149983D01*
X105349500Y-89150001D01*
X105349501Y-89150019D01*
X105360000Y-89252796D01*
X105360001Y-89252799D01*
X105415185Y-89419331D01*
X105415187Y-89419336D01*
X105449999Y-89475776D01*
X105507288Y-89568656D01*
X105631344Y-89692712D01*
X105690596Y-89729258D01*
X105737321Y-89781204D01*
X105749500Y-89834797D01*
X105749500Y-95087769D01*
X105729815Y-95154808D01*
X105713182Y-95175450D01*
X105607287Y-95281345D01*
X105515187Y-95430663D01*
X105515185Y-95430668D01*
X105498114Y-95482185D01*
X105460001Y-95597203D01*
X105460001Y-95597204D01*
X105460000Y-95597204D01*
X105449500Y-95699983D01*
X105449500Y-96700001D01*
X105449501Y-96700019D01*
X105460000Y-96802796D01*
X105460001Y-96802799D01*
X105500329Y-96924500D01*
X105515186Y-96969334D01*
X105588295Y-97087864D01*
X105607289Y-97118657D01*
X105713181Y-97224549D01*
X105746666Y-97285872D01*
X105749500Y-97312230D01*
X105749500Y-102737770D01*
X105729815Y-102804809D01*
X105713181Y-102825451D01*
X105657289Y-102881342D01*
X105565187Y-103030663D01*
X105565185Y-103030668D01*
X105541487Y-103102184D01*
X105510001Y-103197203D01*
X105510001Y-103197204D01*
X105510000Y-103197204D01*
X105499500Y-103299983D01*
X105499500Y-104300001D01*
X105499501Y-104300019D01*
X105510000Y-104402796D01*
X105510001Y-104402799D01*
X105559491Y-104552147D01*
X105565186Y-104569334D01*
X105624610Y-104665677D01*
X105657289Y-104718657D01*
X105713181Y-104774549D01*
X105746666Y-104835872D01*
X105749500Y-104862230D01*
X105749500Y-107887770D01*
X105729815Y-107954809D01*
X105713181Y-107975451D01*
X105707289Y-107981342D01*
X105615187Y-108130663D01*
X105615185Y-108130668D01*
X105598114Y-108182185D01*
X105560001Y-108297203D01*
X105560001Y-108297204D01*
X105560000Y-108297204D01*
X105549500Y-108399983D01*
X105549500Y-109400001D01*
X105549501Y-109400019D01*
X105560000Y-109502796D01*
X105560001Y-109502799D01*
X105615185Y-109669331D01*
X105615187Y-109669336D01*
X105627559Y-109689394D01*
X105707288Y-109818656D01*
X105831344Y-109942712D01*
X105980666Y-110034814D01*
X106147203Y-110089999D01*
X106249991Y-110100500D01*
X107050008Y-110100499D01*
X107050016Y-110100498D01*
X107050019Y-110100498D01*
X107147892Y-110090500D01*
X107152797Y-110089999D01*
X107319334Y-110034814D01*
X107468656Y-109942712D01*
X107562319Y-109849049D01*
X107623642Y-109815564D01*
X107693334Y-109820548D01*
X107737681Y-109849049D01*
X107831344Y-109942712D01*
X107980666Y-110034814D01*
X108147203Y-110089999D01*
X108249991Y-110100500D01*
X109050008Y-110100499D01*
X109050016Y-110100498D01*
X109050019Y-110100498D01*
X109147892Y-110090500D01*
X109152797Y-110089999D01*
X109319334Y-110034814D01*
X109468656Y-109942712D01*
X109592712Y-109818656D01*
X109684814Y-109669334D01*
X109715909Y-109575494D01*
X109755682Y-109518051D01*
X109820198Y-109491228D01*
X109833615Y-109490500D01*
X113214281Y-109490500D01*
X113281320Y-109510185D01*
X113324765Y-109558205D01*
X113344947Y-109597814D01*
X113344948Y-109597815D01*
X113469890Y-109769786D01*
X113620213Y-109920109D01*
X113792182Y-110045050D01*
X113800946Y-110049516D01*
X113851742Y-110097491D01*
X113868536Y-110165312D01*
X113845998Y-110231447D01*
X113800946Y-110270484D01*
X113792182Y-110274949D01*
X113620213Y-110399890D01*
X113469890Y-110550213D01*
X113344951Y-110722179D01*
X113248444Y-110911585D01*
X113182753Y-111113760D01*
X113149500Y-111323713D01*
X113149500Y-111536286D01*
X113176946Y-111709577D01*
X113182754Y-111746243D01*
X113230298Y-111892569D01*
X113248444Y-111948414D01*
X113344951Y-112137820D01*
X113469890Y-112309786D01*
X113620213Y-112460109D01*
X113792179Y-112585048D01*
X113792181Y-112585049D01*
X113792184Y-112585051D01*
X113801493Y-112589794D01*
X113852290Y-112637766D01*
X113869087Y-112705587D01*
X113846552Y-112771722D01*
X113801505Y-112810760D01*
X113792446Y-112815376D01*
X113792440Y-112815380D01*
X113738282Y-112854727D01*
X113738282Y-112854728D01*
X114370591Y-113487037D01*
X114307007Y-113504075D01*
X114192993Y-113569901D01*
X114099901Y-113662993D01*
X114034075Y-113777007D01*
X114017037Y-113840591D01*
X113384728Y-113208282D01*
X113384727Y-113208282D01*
X113345380Y-113262439D01*
X113248904Y-113451782D01*
X113183242Y-113653869D01*
X113183242Y-113653872D01*
X113150000Y-113863753D01*
X113150000Y-114076246D01*
X113183242Y-114286127D01*
X113183242Y-114286130D01*
X113248904Y-114488217D01*
X113345375Y-114677550D01*
X113384728Y-114731716D01*
X114017037Y-114099408D01*
X114034075Y-114162993D01*
X114099901Y-114277007D01*
X114192993Y-114370099D01*
X114307007Y-114435925D01*
X114370590Y-114452962D01*
X113738282Y-115085269D01*
X113738282Y-115085270D01*
X113792449Y-115124624D01*
X113981782Y-115221095D01*
X114183870Y-115286757D01*
X114393754Y-115320000D01*
X114606246Y-115320000D01*
X114816127Y-115286757D01*
X114816130Y-115286757D01*
X115018217Y-115221095D01*
X115207554Y-115124622D01*
X115261717Y-115085270D01*
X115258349Y-115081902D01*
X118099500Y-115081902D01*
X118099500Y-115318097D01*
X118136446Y-115551368D01*
X118209433Y-115775996D01*
X118308134Y-115969706D01*
X118316657Y-115986433D01*
X118455483Y-116177510D01*
X118622490Y-116344517D01*
X118813567Y-116483343D01*
X118856101Y-116505015D01*
X119024003Y-116590566D01*
X119024005Y-116590566D01*
X119024008Y-116590568D01*
X119117083Y-116620810D01*
X119248631Y-116663553D01*
X119481903Y-116700500D01*
X119481908Y-116700500D01*
X119718097Y-116700500D01*
X119951368Y-116663553D01*
X119952387Y-116663222D01*
X120175992Y-116590568D01*
X120386433Y-116483343D01*
X120577510Y-116344517D01*
X120744517Y-116177510D01*
X120883343Y-115986433D01*
X120990568Y-115775992D01*
X121063553Y-115551368D01*
X121078009Y-115460097D01*
X121100500Y-115318097D01*
X121100500Y-115081902D01*
X121063553Y-114848631D01*
X121004885Y-114668072D01*
X120990568Y-114624008D01*
X120990566Y-114624005D01*
X120990566Y-114624003D01*
X120921379Y-114488217D01*
X120883343Y-114413567D01*
X120744517Y-114222490D01*
X120577510Y-114055483D01*
X120386433Y-113916657D01*
X120361934Y-113904174D01*
X120175996Y-113809433D01*
X119951368Y-113736446D01*
X119718097Y-113699500D01*
X119718092Y-113699500D01*
X119481908Y-113699500D01*
X119481903Y-113699500D01*
X119248631Y-113736446D01*
X119024003Y-113809433D01*
X118813566Y-113916657D01*
X118725669Y-113980519D01*
X118622490Y-114055483D01*
X118622488Y-114055485D01*
X118622487Y-114055485D01*
X118455485Y-114222487D01*
X118455485Y-114222488D01*
X118455483Y-114222490D01*
X118418953Y-114272769D01*
X118316657Y-114413566D01*
X118209433Y-114624003D01*
X118136446Y-114848631D01*
X118099500Y-115081902D01*
X115258349Y-115081902D01*
X114629408Y-114452962D01*
X114692993Y-114435925D01*
X114807007Y-114370099D01*
X114900099Y-114277007D01*
X114965925Y-114162993D01*
X114982962Y-114099409D01*
X115615270Y-114731717D01*
X115615270Y-114731716D01*
X115654622Y-114677554D01*
X115751095Y-114488217D01*
X115816757Y-114286130D01*
X115816757Y-114286127D01*
X115850000Y-114076246D01*
X115850000Y-113863753D01*
X115816757Y-113653872D01*
X115816757Y-113653869D01*
X115751095Y-113451782D01*
X115654624Y-113262449D01*
X115615270Y-113208282D01*
X115615269Y-113208282D01*
X114982962Y-113840590D01*
X114965925Y-113777007D01*
X114900099Y-113662993D01*
X114807007Y-113569901D01*
X114692993Y-113504075D01*
X114629409Y-113487037D01*
X115261716Y-112854728D01*
X115207547Y-112815373D01*
X115207547Y-112815372D01*
X115198500Y-112810763D01*
X115147706Y-112762788D01*
X115130912Y-112694966D01*
X115153451Y-112628832D01*
X115198508Y-112589793D01*
X115207816Y-112585051D01*
X115287007Y-112527515D01*
X115379786Y-112460109D01*
X115379788Y-112460106D01*
X115379792Y-112460104D01*
X115530104Y-112309792D01*
X115530106Y-112309788D01*
X115530109Y-112309786D01*
X115655048Y-112137820D01*
X115655047Y-112137820D01*
X115655051Y-112137816D01*
X115751557Y-111948412D01*
X115817246Y-111746243D01*
X115850500Y-111536287D01*
X115850500Y-111323713D01*
X115817246Y-111113757D01*
X115751557Y-110911588D01*
X115655051Y-110722184D01*
X115655049Y-110722181D01*
X115655048Y-110722179D01*
X115530109Y-110550213D01*
X115379786Y-110399890D01*
X115207820Y-110274951D01*
X115207115Y-110274591D01*
X115199054Y-110270485D01*
X115148259Y-110222512D01*
X115131463Y-110154692D01*
X115153999Y-110088556D01*
X115199054Y-110049515D01*
X115207816Y-110045051D01*
X115270658Y-109999394D01*
X115379786Y-109920109D01*
X115379788Y-109920106D01*
X115379792Y-109920104D01*
X115530104Y-109769792D01*
X115530106Y-109769788D01*
X115530109Y-109769786D01*
X115655048Y-109597820D01*
X115655047Y-109597820D01*
X115655051Y-109597816D01*
X115751557Y-109408412D01*
X115817246Y-109206243D01*
X115850500Y-108996287D01*
X115850500Y-108783713D01*
X115817246Y-108573757D01*
X115751557Y-108371588D01*
X115655051Y-108182184D01*
X115655049Y-108182181D01*
X115655048Y-108182179D01*
X115530109Y-108010213D01*
X115379786Y-107859890D01*
X115207820Y-107734951D01*
X115207115Y-107734591D01*
X115199054Y-107730485D01*
X115148259Y-107682512D01*
X115131463Y-107614692D01*
X115153999Y-107548556D01*
X115199054Y-107509515D01*
X115207816Y-107505051D01*
X115229789Y-107489086D01*
X115379786Y-107380109D01*
X115379788Y-107380106D01*
X115379792Y-107380104D01*
X115530104Y-107229792D01*
X115530106Y-107229788D01*
X115530109Y-107229786D01*
X115655048Y-107057820D01*
X115655047Y-107057820D01*
X115655051Y-107057816D01*
X115751557Y-106868412D01*
X115817246Y-106666243D01*
X115850500Y-106456287D01*
X115850500Y-106243713D01*
X115817246Y-106033757D01*
X115751557Y-105831588D01*
X115655051Y-105642184D01*
X115655049Y-105642181D01*
X115655048Y-105642179D01*
X115530109Y-105470213D01*
X115379786Y-105319890D01*
X115207820Y-105194951D01*
X115207115Y-105194591D01*
X115199054Y-105190485D01*
X115148259Y-105142512D01*
X115131463Y-105074692D01*
X115153999Y-105008556D01*
X115199054Y-104969515D01*
X115207816Y-104965051D01*
X115262572Y-104925269D01*
X115379786Y-104840109D01*
X115379788Y-104840106D01*
X115379792Y-104840104D01*
X115530104Y-104689792D01*
X115530106Y-104689788D01*
X115530109Y-104689786D01*
X115655048Y-104517820D01*
X115655047Y-104517820D01*
X115655051Y-104517816D01*
X115751557Y-104328412D01*
X115817246Y-104126243D01*
X115850500Y-103916287D01*
X115850500Y-103769097D01*
X115870185Y-103702058D01*
X115922989Y-103656303D01*
X115992147Y-103646359D01*
X116055703Y-103675384D01*
X116062181Y-103681416D01*
X121363181Y-108982416D01*
X121396666Y-109043739D01*
X121399500Y-109070097D01*
X121399500Y-115473330D01*
X121399499Y-115473348D01*
X121399499Y-115639054D01*
X121399498Y-115639054D01*
X121436532Y-115777262D01*
X121440423Y-115791785D01*
X121441761Y-115794102D01*
X121441765Y-115794116D01*
X121441768Y-115794115D01*
X121519475Y-115928709D01*
X121519481Y-115928717D01*
X121638349Y-116047585D01*
X121638355Y-116047590D01*
X123295139Y-117704374D01*
X123295149Y-117704385D01*
X123299479Y-117708715D01*
X123299480Y-117708716D01*
X123411284Y-117820520D01*
X123411286Y-117820521D01*
X123465079Y-117851578D01*
X123465078Y-117851578D01*
X123465081Y-117851579D01*
X123548209Y-117899574D01*
X123548210Y-117899574D01*
X123548215Y-117899577D01*
X123700943Y-117940500D01*
X123859057Y-117940500D01*
X181963331Y-117940500D01*
X181963347Y-117940501D01*
X181970943Y-117940501D01*
X182129054Y-117940501D01*
X182129057Y-117940501D01*
X182281785Y-117899577D01*
X182364921Y-117851578D01*
X182418716Y-117820520D01*
X182530520Y-117708716D01*
X182530520Y-117708714D01*
X182540724Y-117698511D01*
X182540728Y-117698506D01*
X183360523Y-116878711D01*
X199149500Y-116878711D01*
X199149500Y-117121288D01*
X199181161Y-117361785D01*
X199243947Y-117596104D01*
X199290593Y-117708716D01*
X199336776Y-117820212D01*
X199458064Y-118030289D01*
X199458066Y-118030292D01*
X199458067Y-118030293D01*
X199605733Y-118222736D01*
X199605739Y-118222743D01*
X199777256Y-118394260D01*
X199777263Y-118394266D01*
X199818336Y-118425782D01*
X199969711Y-118541936D01*
X200179788Y-118663224D01*
X200403900Y-118756054D01*
X200638211Y-118818838D01*
X200818586Y-118842584D01*
X200878711Y-118850500D01*
X200878712Y-118850500D01*
X201121289Y-118850500D01*
X201169388Y-118844167D01*
X201361789Y-118818838D01*
X201596100Y-118756054D01*
X201820212Y-118663224D01*
X202030289Y-118541936D01*
X202222738Y-118394265D01*
X202394265Y-118222738D01*
X202541936Y-118030289D01*
X202663224Y-117820212D01*
X202756054Y-117596100D01*
X202818838Y-117361789D01*
X202850500Y-117121288D01*
X202850500Y-116878712D01*
X202850500Y-116878711D01*
X223149500Y-116878711D01*
X223149500Y-117121288D01*
X223181161Y-117361785D01*
X223243947Y-117596104D01*
X223290593Y-117708716D01*
X223336776Y-117820212D01*
X223458064Y-118030289D01*
X223458066Y-118030292D01*
X223458067Y-118030293D01*
X223605733Y-118222736D01*
X223605739Y-118222743D01*
X223777256Y-118394260D01*
X223777263Y-118394266D01*
X223818336Y-118425782D01*
X223969711Y-118541936D01*
X224179788Y-118663224D01*
X224403900Y-118756054D01*
X224638211Y-118818838D01*
X224818586Y-118842584D01*
X224878711Y-118850500D01*
X224878712Y-118850500D01*
X225121289Y-118850500D01*
X225169388Y-118844167D01*
X225361789Y-118818838D01*
X225596100Y-118756054D01*
X225820212Y-118663224D01*
X226030289Y-118541936D01*
X226222738Y-118394265D01*
X226394265Y-118222738D01*
X226541936Y-118030289D01*
X226663224Y-117820212D01*
X226756054Y-117596100D01*
X226818838Y-117361789D01*
X226850500Y-117121288D01*
X226850500Y-116878712D01*
X226818838Y-116638211D01*
X226756054Y-116403900D01*
X226752063Y-116394266D01*
X226731457Y-116344517D01*
X226663224Y-116179788D01*
X226541936Y-115969711D01*
X226405407Y-115791782D01*
X226394266Y-115777263D01*
X226394260Y-115777256D01*
X226222743Y-115605739D01*
X226222736Y-115605733D01*
X226030293Y-115458067D01*
X226030292Y-115458066D01*
X226030289Y-115458064D01*
X225820212Y-115336776D01*
X225820205Y-115336773D01*
X225596104Y-115243947D01*
X225361785Y-115181161D01*
X225121289Y-115149500D01*
X225121288Y-115149500D01*
X224878712Y-115149500D01*
X224878711Y-115149500D01*
X224638214Y-115181161D01*
X224403895Y-115243947D01*
X224179794Y-115336773D01*
X224179785Y-115336777D01*
X223969706Y-115458067D01*
X223777263Y-115605733D01*
X223777256Y-115605739D01*
X223605739Y-115777256D01*
X223605733Y-115777263D01*
X223458067Y-115969706D01*
X223336777Y-116179785D01*
X223336773Y-116179794D01*
X223243947Y-116403895D01*
X223181161Y-116638214D01*
X223149500Y-116878711D01*
X202850500Y-116878711D01*
X202818838Y-116638211D01*
X202756054Y-116403900D01*
X202752063Y-116394266D01*
X202731457Y-116344517D01*
X202663224Y-116179788D01*
X202541936Y-115969711D01*
X202405407Y-115791782D01*
X202394266Y-115777263D01*
X202394260Y-115777256D01*
X202222743Y-115605739D01*
X202222736Y-115605733D01*
X202030293Y-115458067D01*
X202030292Y-115458066D01*
X202030289Y-115458064D01*
X201820212Y-115336776D01*
X201820205Y-115336773D01*
X201596104Y-115243947D01*
X201361785Y-115181161D01*
X201121289Y-115149500D01*
X201121288Y-115149500D01*
X200878712Y-115149500D01*
X200878711Y-115149500D01*
X200638214Y-115181161D01*
X200403895Y-115243947D01*
X200179794Y-115336773D01*
X200179785Y-115336777D01*
X199969706Y-115458067D01*
X199777263Y-115605733D01*
X199777256Y-115605739D01*
X199605739Y-115777256D01*
X199605733Y-115777263D01*
X199458067Y-115969706D01*
X199336777Y-116179785D01*
X199336773Y-116179794D01*
X199243947Y-116403895D01*
X199181161Y-116638214D01*
X199149500Y-116878711D01*
X183360523Y-116878711D01*
X185157331Y-115081902D01*
X193099500Y-115081902D01*
X193099500Y-115318097D01*
X193136446Y-115551368D01*
X193209433Y-115775996D01*
X193308134Y-115969706D01*
X193316657Y-115986433D01*
X193455483Y-116177510D01*
X193622490Y-116344517D01*
X193813567Y-116483343D01*
X193856101Y-116505015D01*
X194024003Y-116590566D01*
X194024005Y-116590566D01*
X194024008Y-116590568D01*
X194117083Y-116620810D01*
X194248631Y-116663553D01*
X194481903Y-116700500D01*
X194481908Y-116700500D01*
X194718097Y-116700500D01*
X194951368Y-116663553D01*
X194952387Y-116663222D01*
X195175992Y-116590568D01*
X195386433Y-116483343D01*
X195577510Y-116344517D01*
X195744517Y-116177510D01*
X195883343Y-115986433D01*
X195990568Y-115775992D01*
X196063553Y-115551368D01*
X196078009Y-115460097D01*
X196100500Y-115318097D01*
X196100500Y-115081902D01*
X196070747Y-114894051D01*
X196068317Y-114878711D01*
X230149500Y-114878711D01*
X230149500Y-115121288D01*
X230181161Y-115361785D01*
X230243947Y-115596104D01*
X230318986Y-115777263D01*
X230336776Y-115820212D01*
X230458064Y-116030289D01*
X230458066Y-116030292D01*
X230458067Y-116030293D01*
X230605733Y-116222736D01*
X230605739Y-116222743D01*
X230777256Y-116394260D01*
X230777263Y-116394266D01*
X230871051Y-116466232D01*
X230969711Y-116541936D01*
X231179788Y-116663224D01*
X231403900Y-116756054D01*
X231638211Y-116818838D01*
X231818586Y-116842584D01*
X231878711Y-116850500D01*
X231878712Y-116850500D01*
X232121289Y-116850500D01*
X232169388Y-116844167D01*
X232361789Y-116818838D01*
X232596100Y-116756054D01*
X232820212Y-116663224D01*
X233030289Y-116541936D01*
X233222738Y-116394265D01*
X233394265Y-116222738D01*
X233541936Y-116030289D01*
X233663224Y-115820212D01*
X233756054Y-115596100D01*
X233818838Y-115361789D01*
X233850500Y-115121288D01*
X233850500Y-114878712D01*
X233818838Y-114638211D01*
X233756054Y-114403900D01*
X233663224Y-114179788D01*
X233541936Y-113969711D01*
X233394265Y-113777262D01*
X233394260Y-113777256D01*
X233222743Y-113605739D01*
X233222736Y-113605733D01*
X233030293Y-113458067D01*
X233030292Y-113458066D01*
X233030289Y-113458064D01*
X232820212Y-113336776D01*
X232780672Y-113320398D01*
X232596104Y-113243947D01*
X232361785Y-113181161D01*
X232121289Y-113149500D01*
X232121288Y-113149500D01*
X231878712Y-113149500D01*
X231878711Y-113149500D01*
X231638214Y-113181161D01*
X231403895Y-113243947D01*
X231179794Y-113336773D01*
X231179785Y-113336777D01*
X230969706Y-113458067D01*
X230777263Y-113605733D01*
X230777256Y-113605739D01*
X230605739Y-113777256D01*
X230605733Y-113777263D01*
X230458067Y-113969706D01*
X230336777Y-114179785D01*
X230336773Y-114179794D01*
X230243947Y-114403895D01*
X230181161Y-114638214D01*
X230149500Y-114878711D01*
X196068317Y-114878711D01*
X196063553Y-114848631D01*
X196004885Y-114668072D01*
X195990568Y-114624008D01*
X195990566Y-114624005D01*
X195990566Y-114624003D01*
X195921379Y-114488217D01*
X195883343Y-114413567D01*
X195744517Y-114222490D01*
X195577510Y-114055483D01*
X195386433Y-113916657D01*
X195361934Y-113904174D01*
X195175996Y-113809433D01*
X194951368Y-113736446D01*
X194718097Y-113699500D01*
X194718092Y-113699500D01*
X194481908Y-113699500D01*
X194481903Y-113699500D01*
X194248631Y-113736446D01*
X194024003Y-113809433D01*
X193813566Y-113916657D01*
X193725669Y-113980519D01*
X193622490Y-114055483D01*
X193622488Y-114055485D01*
X193622487Y-114055485D01*
X193455485Y-114222487D01*
X193455485Y-114222488D01*
X193455483Y-114222490D01*
X193418953Y-114272769D01*
X193316657Y-114413566D01*
X193209433Y-114624003D01*
X193136446Y-114848631D01*
X193099500Y-115081902D01*
X185157331Y-115081902D01*
X187265468Y-112973765D01*
X187326789Y-112940282D01*
X187372546Y-112938975D01*
X187377168Y-112939707D01*
X187377174Y-112939709D01*
X187494642Y-112958313D01*
X187571579Y-112970500D01*
X187571583Y-112970500D01*
X187768422Y-112970500D01*
X187962826Y-112939709D01*
X187965085Y-112938975D01*
X188150025Y-112878884D01*
X188325405Y-112789524D01*
X188484646Y-112673828D01*
X188623828Y-112534646D01*
X188739524Y-112375405D01*
X188828884Y-112200025D01*
X188889709Y-112012826D01*
X188911007Y-111878355D01*
X188920500Y-111818422D01*
X188920500Y-111621578D01*
X188902590Y-111508501D01*
X188889709Y-111427174D01*
X188889707Y-111427168D01*
X188888975Y-111422546D01*
X188897929Y-111353252D01*
X188923764Y-111315469D01*
X196028506Y-104210728D01*
X196028511Y-104210724D01*
X196038714Y-104200520D01*
X196038716Y-104200520D01*
X196150520Y-104088716D01*
X196229577Y-103951784D01*
X196270500Y-103799057D01*
X196270500Y-100810096D01*
X196290185Y-100743057D01*
X196306814Y-100722420D01*
X198437819Y-98591414D01*
X198499142Y-98557930D01*
X198568834Y-98562914D01*
X198624767Y-98604786D01*
X198649184Y-98670250D01*
X198649500Y-98679096D01*
X198649500Y-98836286D01*
X198682735Y-99046127D01*
X198682754Y-99046243D01*
X198747937Y-99246856D01*
X198748444Y-99248414D01*
X198844951Y-99437820D01*
X198969890Y-99609786D01*
X199120213Y-99760109D01*
X199292182Y-99885050D01*
X199300946Y-99889516D01*
X199351742Y-99937491D01*
X199368536Y-100005312D01*
X199345998Y-100071447D01*
X199300946Y-100110484D01*
X199292182Y-100114949D01*
X199120213Y-100239890D01*
X198969890Y-100390213D01*
X198844951Y-100562179D01*
X198748444Y-100751585D01*
X198682753Y-100953760D01*
X198662763Y-101079975D01*
X198649500Y-101163713D01*
X198649500Y-101376287D01*
X198655052Y-101411342D01*
X198682753Y-101586239D01*
X198682753Y-101586241D01*
X198682754Y-101586243D01*
X198737431Y-101754522D01*
X198748444Y-101788414D01*
X198844951Y-101977820D01*
X198969890Y-102149786D01*
X199120213Y-102300109D01*
X199292179Y-102425048D01*
X199292181Y-102425049D01*
X199292184Y-102425051D01*
X199301493Y-102429794D01*
X199352290Y-102477766D01*
X199369087Y-102545587D01*
X199346552Y-102611722D01*
X199301505Y-102650760D01*
X199292446Y-102655376D01*
X199292440Y-102655380D01*
X199238282Y-102694727D01*
X199238282Y-102694728D01*
X199870591Y-103327037D01*
X199807007Y-103344075D01*
X199692993Y-103409901D01*
X199599901Y-103502993D01*
X199534075Y-103617007D01*
X199517037Y-103680591D01*
X198884728Y-103048282D01*
X198884727Y-103048282D01*
X198845380Y-103102439D01*
X198748904Y-103291782D01*
X198683242Y-103493869D01*
X198683242Y-103493872D01*
X198650000Y-103703753D01*
X198650000Y-103916246D01*
X198683242Y-104126127D01*
X198683242Y-104126130D01*
X198748904Y-104328217D01*
X198845375Y-104517550D01*
X198884728Y-104571716D01*
X199517037Y-103939408D01*
X199534075Y-104002993D01*
X199599901Y-104117007D01*
X199692993Y-104210099D01*
X199807007Y-104275925D01*
X199870590Y-104292962D01*
X199238282Y-104925269D01*
X199238282Y-104925270D01*
X199292449Y-104964624D01*
X199481782Y-105061095D01*
X199683870Y-105126757D01*
X199893754Y-105160000D01*
X200106246Y-105160000D01*
X200316127Y-105126757D01*
X200316130Y-105126757D01*
X200518217Y-105061095D01*
X200707554Y-104964622D01*
X200761716Y-104925270D01*
X200761717Y-104925270D01*
X200129408Y-104292962D01*
X200192993Y-104275925D01*
X200307007Y-104210099D01*
X200400099Y-104117007D01*
X200465925Y-104002993D01*
X200482962Y-103939409D01*
X201115270Y-104571717D01*
X201115270Y-104571716D01*
X201154622Y-104517554D01*
X201251095Y-104328217D01*
X201316757Y-104126130D01*
X201316757Y-104126127D01*
X201350000Y-103916246D01*
X201350000Y-103703753D01*
X201316757Y-103493872D01*
X201316757Y-103493869D01*
X201251095Y-103291782D01*
X201154624Y-103102449D01*
X201115270Y-103048282D01*
X201115269Y-103048282D01*
X200482962Y-103680590D01*
X200465925Y-103617007D01*
X200400099Y-103502993D01*
X200307007Y-103409901D01*
X200192993Y-103344075D01*
X200129409Y-103327037D01*
X200761716Y-102694728D01*
X200707547Y-102655373D01*
X200707547Y-102655372D01*
X200698500Y-102650763D01*
X200647706Y-102602788D01*
X200630912Y-102534966D01*
X200653451Y-102468832D01*
X200698508Y-102429793D01*
X200707816Y-102425051D01*
X200821147Y-102342712D01*
X200879786Y-102300109D01*
X200879788Y-102300106D01*
X200879792Y-102300104D01*
X201030104Y-102149792D01*
X201155051Y-101977816D01*
X201159947Y-101968206D01*
X201207919Y-101917411D01*
X201270432Y-101900500D01*
X204269699Y-101900500D01*
X204336738Y-101920185D01*
X204382493Y-101972989D01*
X204387403Y-101985492D01*
X204415186Y-102069334D01*
X204507288Y-102218656D01*
X204631344Y-102342712D01*
X204780666Y-102434814D01*
X204947203Y-102489999D01*
X205049991Y-102500500D01*
X205850008Y-102500499D01*
X205850016Y-102500498D01*
X205850019Y-102500498D01*
X205906302Y-102494748D01*
X205952797Y-102489999D01*
X206119334Y-102434814D01*
X206268656Y-102342712D01*
X206362319Y-102249049D01*
X206423642Y-102215564D01*
X206493334Y-102220548D01*
X206537681Y-102249049D01*
X206631344Y-102342712D01*
X206780666Y-102434814D01*
X206947203Y-102489999D01*
X207049991Y-102500500D01*
X207850008Y-102500499D01*
X207850016Y-102500498D01*
X207850019Y-102500498D01*
X207906302Y-102494748D01*
X207952797Y-102489999D01*
X208119334Y-102434814D01*
X208268656Y-102342712D01*
X208392712Y-102218656D01*
X208484814Y-102069334D01*
X208539999Y-101902797D01*
X208550500Y-101800009D01*
X208550499Y-100799992D01*
X208547739Y-100772977D01*
X208539999Y-100697203D01*
X208539998Y-100697200D01*
X208507473Y-100599046D01*
X208484814Y-100530666D01*
X208392712Y-100381344D01*
X208268656Y-100257288D01*
X208268655Y-100257287D01*
X208209402Y-100220739D01*
X208202578Y-100213152D01*
X208193297Y-100208914D01*
X208179609Y-100187615D01*
X208162678Y-100168791D01*
X208160033Y-100157154D01*
X208155523Y-100150136D01*
X208150500Y-100115201D01*
X208150500Y-99934797D01*
X208170185Y-99867758D01*
X208209403Y-99829258D01*
X208268656Y-99792712D01*
X208392712Y-99668656D01*
X208484814Y-99519334D01*
X208539999Y-99352797D01*
X208550500Y-99250009D01*
X208550499Y-98249992D01*
X208542836Y-98174980D01*
X208539999Y-98147203D01*
X208539998Y-98147200D01*
X208531631Y-98121949D01*
X208484814Y-97980666D01*
X208392712Y-97831344D01*
X208268656Y-97707288D01*
X208268655Y-97707287D01*
X208209402Y-97670739D01*
X208202578Y-97663152D01*
X208193297Y-97658914D01*
X208179609Y-97637615D01*
X208162678Y-97618791D01*
X208160033Y-97607154D01*
X208155523Y-97600136D01*
X208150500Y-97565201D01*
X208150500Y-97384797D01*
X208170185Y-97317758D01*
X208209403Y-97279258D01*
X208268656Y-97242712D01*
X208392712Y-97118656D01*
X208484814Y-96969334D01*
X208539999Y-96802797D01*
X208550500Y-96700009D01*
X208550499Y-95699992D01*
X208546960Y-95665352D01*
X208539999Y-95597203D01*
X208539998Y-95597200D01*
X208525264Y-95552735D01*
X208484814Y-95430666D01*
X208392712Y-95281344D01*
X208268656Y-95157288D01*
X208175888Y-95100069D01*
X208119336Y-95065187D01*
X208119331Y-95065185D01*
X208117862Y-95064698D01*
X207952797Y-95010001D01*
X207952795Y-95010000D01*
X207850016Y-94999500D01*
X207850009Y-94999500D01*
X207291519Y-94999500D01*
X207224480Y-94979815D01*
X207203838Y-94963181D01*
X203096546Y-90855888D01*
X203096545Y-90855887D01*
X202981807Y-90779222D01*
X202854332Y-90726421D01*
X202854322Y-90726418D01*
X202718996Y-90699500D01*
X202718994Y-90699500D01*
X202718993Y-90699500D01*
X188769941Y-90699500D01*
X188702902Y-90679815D01*
X188669623Y-90648386D01*
X188623828Y-90585354D01*
X188484646Y-90446172D01*
X188405025Y-90388324D01*
X188325403Y-90330474D01*
X188148787Y-90240485D01*
X188097990Y-90192511D01*
X188081195Y-90124690D01*
X188103732Y-90058555D01*
X188148787Y-90019515D01*
X188325403Y-89929525D01*
X188325402Y-89929525D01*
X188325405Y-89929524D01*
X188484646Y-89813828D01*
X188623828Y-89674646D01*
X188739524Y-89515405D01*
X188828884Y-89340025D01*
X188889709Y-89152826D01*
X188899911Y-89088412D01*
X188920500Y-88958422D01*
X188920500Y-88761577D01*
X188889709Y-88567173D01*
X188828882Y-88379970D01*
X188781743Y-88287455D01*
X188739524Y-88204595D01*
X188623828Y-88045354D01*
X188484646Y-87906172D01*
X188371854Y-87824223D01*
X188325403Y-87790474D01*
X188148787Y-87700485D01*
X188097990Y-87652511D01*
X188081195Y-87584690D01*
X188103732Y-87518555D01*
X188148787Y-87479515D01*
X188310816Y-87396957D01*
X188325405Y-87389524D01*
X188484646Y-87273828D01*
X188623828Y-87134646D01*
X188739524Y-86975405D01*
X188828884Y-86800025D01*
X188889709Y-86612826D01*
X188900937Y-86541936D01*
X188920500Y-86418422D01*
X188920500Y-86221577D01*
X188889709Y-86027173D01*
X188828882Y-85839970D01*
X188739523Y-85664594D01*
X188738767Y-85663553D01*
X188623828Y-85505354D01*
X188484646Y-85366172D01*
X188405025Y-85308324D01*
X188325403Y-85250474D01*
X188148787Y-85160485D01*
X188097990Y-85112511D01*
X188081195Y-85044690D01*
X188103732Y-84978555D01*
X188148787Y-84939515D01*
X188325403Y-84849525D01*
X188325402Y-84849525D01*
X188325405Y-84849524D01*
X188484646Y-84733828D01*
X188623828Y-84594646D01*
X188739524Y-84435405D01*
X188828884Y-84260025D01*
X188886760Y-84081902D01*
X193099500Y-84081902D01*
X193099500Y-84318097D01*
X193136446Y-84551368D01*
X193209433Y-84775996D01*
X193292751Y-84939515D01*
X193316657Y-84986433D01*
X193455483Y-85177510D01*
X193622490Y-85344517D01*
X193813567Y-85483343D01*
X193912991Y-85534002D01*
X194024003Y-85590566D01*
X194024005Y-85590566D01*
X194024008Y-85590568D01*
X194144412Y-85629689D01*
X194248631Y-85663553D01*
X194481903Y-85700500D01*
X194481908Y-85700500D01*
X194718097Y-85700500D01*
X194951368Y-85663553D01*
X195175992Y-85590568D01*
X195386433Y-85483343D01*
X195577510Y-85344517D01*
X195744517Y-85177510D01*
X195883343Y-84986433D01*
X195938230Y-84878711D01*
X230149500Y-84878711D01*
X230149500Y-85121288D01*
X230178887Y-85344514D01*
X230181162Y-85361789D01*
X230182337Y-85366174D01*
X230243947Y-85596104D01*
X230336773Y-85820205D01*
X230336776Y-85820212D01*
X230458064Y-86030289D01*
X230458066Y-86030292D01*
X230458067Y-86030293D01*
X230605733Y-86222736D01*
X230605739Y-86222743D01*
X230777256Y-86394260D01*
X230777263Y-86394266D01*
X230808744Y-86418422D01*
X230969711Y-86541936D01*
X231179788Y-86663224D01*
X231403900Y-86756054D01*
X231638211Y-86818838D01*
X231818586Y-86842584D01*
X231878711Y-86850500D01*
X231878712Y-86850500D01*
X232121289Y-86850500D01*
X232169388Y-86844167D01*
X232361789Y-86818838D01*
X232596100Y-86756054D01*
X232820212Y-86663224D01*
X233030289Y-86541936D01*
X233222738Y-86394265D01*
X233394265Y-86222738D01*
X233541936Y-86030289D01*
X233663224Y-85820212D01*
X233756054Y-85596100D01*
X233818838Y-85361789D01*
X233850500Y-85121288D01*
X233850500Y-84878712D01*
X233818838Y-84638211D01*
X233756054Y-84403900D01*
X233752063Y-84394266D01*
X233681014Y-84222738D01*
X233663224Y-84179788D01*
X233541936Y-83969711D01*
X233459006Y-83861634D01*
X233394266Y-83777263D01*
X233394260Y-83777256D01*
X233222743Y-83605739D01*
X233222736Y-83605733D01*
X233030293Y-83458067D01*
X233030292Y-83458066D01*
X233030289Y-83458064D01*
X232820212Y-83336776D01*
X232820205Y-83336773D01*
X232596104Y-83243947D01*
X232361785Y-83181161D01*
X232121289Y-83149500D01*
X232121288Y-83149500D01*
X231878712Y-83149500D01*
X231878711Y-83149500D01*
X231638214Y-83181161D01*
X231403895Y-83243947D01*
X231179794Y-83336773D01*
X231179785Y-83336777D01*
X230969706Y-83458067D01*
X230777263Y-83605733D01*
X230777256Y-83605739D01*
X230605739Y-83777256D01*
X230605733Y-83777263D01*
X230458067Y-83969706D01*
X230336777Y-84179785D01*
X230336773Y-84179794D01*
X230243947Y-84403895D01*
X230181161Y-84638214D01*
X230149500Y-84878711D01*
X195938230Y-84878711D01*
X195990568Y-84775992D01*
X196063553Y-84551368D01*
X196081920Y-84435405D01*
X196100500Y-84318097D01*
X196100500Y-84081902D01*
X196063553Y-83848631D01*
X195990566Y-83624003D01*
X195934002Y-83512991D01*
X195883343Y-83413567D01*
X195744517Y-83222490D01*
X195577510Y-83055483D01*
X195386433Y-82916657D01*
X195311960Y-82878711D01*
X199149500Y-82878711D01*
X199149500Y-83121288D01*
X199181161Y-83361785D01*
X199243947Y-83596104D01*
X199318986Y-83777263D01*
X199336776Y-83820212D01*
X199458064Y-84030289D01*
X199458065Y-84030290D01*
X199458067Y-84030293D01*
X199605733Y-84222736D01*
X199605739Y-84222743D01*
X199777256Y-84394260D01*
X199777263Y-84394266D01*
X199830877Y-84435405D01*
X199969711Y-84541936D01*
X200179788Y-84663224D01*
X200403900Y-84756054D01*
X200638211Y-84818838D01*
X200818586Y-84842584D01*
X200878711Y-84850500D01*
X200878712Y-84850500D01*
X201121289Y-84850500D01*
X201169388Y-84844167D01*
X201361789Y-84818838D01*
X201596100Y-84756054D01*
X201820212Y-84663224D01*
X202030289Y-84541936D01*
X202222738Y-84394265D01*
X202394265Y-84222738D01*
X202541936Y-84030289D01*
X202663224Y-83820212D01*
X202756054Y-83596100D01*
X202818838Y-83361789D01*
X202850500Y-83121288D01*
X202850500Y-82878712D01*
X202850500Y-82878711D01*
X223149500Y-82878711D01*
X223149500Y-83121288D01*
X223181161Y-83361785D01*
X223243947Y-83596104D01*
X223318986Y-83777263D01*
X223336776Y-83820212D01*
X223458064Y-84030289D01*
X223458065Y-84030290D01*
X223458067Y-84030293D01*
X223605733Y-84222736D01*
X223605739Y-84222743D01*
X223777256Y-84394260D01*
X223777263Y-84394266D01*
X223830877Y-84435405D01*
X223969711Y-84541936D01*
X224179788Y-84663224D01*
X224403900Y-84756054D01*
X224638211Y-84818838D01*
X224818586Y-84842584D01*
X224878711Y-84850500D01*
X224878712Y-84850500D01*
X225121289Y-84850500D01*
X225169388Y-84844167D01*
X225361789Y-84818838D01*
X225596100Y-84756054D01*
X225820212Y-84663224D01*
X226030289Y-84541936D01*
X226222738Y-84394265D01*
X226394265Y-84222738D01*
X226541936Y-84030289D01*
X226663224Y-83820212D01*
X226756054Y-83596100D01*
X226818838Y-83361789D01*
X226850500Y-83121288D01*
X226850500Y-82878712D01*
X226818838Y-82638211D01*
X226756054Y-82403900D01*
X226663224Y-82179788D01*
X226541936Y-81969711D01*
X226481018Y-81890321D01*
X226394266Y-81777263D01*
X226394260Y-81777256D01*
X226222743Y-81605739D01*
X226222736Y-81605733D01*
X226030293Y-81458067D01*
X226030292Y-81458066D01*
X226030289Y-81458064D01*
X225858661Y-81358974D01*
X225820214Y-81336777D01*
X225820205Y-81336773D01*
X225596104Y-81243947D01*
X225425424Y-81198213D01*
X225361789Y-81181162D01*
X225361788Y-81181161D01*
X225361785Y-81181161D01*
X225121289Y-81149500D01*
X225121288Y-81149500D01*
X224878712Y-81149500D01*
X224878711Y-81149500D01*
X224638214Y-81181161D01*
X224403895Y-81243947D01*
X224179794Y-81336773D01*
X224179785Y-81336777D01*
X223969706Y-81458067D01*
X223777263Y-81605733D01*
X223777256Y-81605739D01*
X223605739Y-81777256D01*
X223605733Y-81777263D01*
X223458067Y-81969706D01*
X223336777Y-82179785D01*
X223336773Y-82179794D01*
X223243947Y-82403895D01*
X223181161Y-82638214D01*
X223149500Y-82878711D01*
X202850500Y-82878711D01*
X202818838Y-82638211D01*
X202756054Y-82403900D01*
X202663224Y-82179788D01*
X202541936Y-81969711D01*
X202481018Y-81890321D01*
X202394266Y-81777263D01*
X202394260Y-81777256D01*
X202222743Y-81605739D01*
X202222736Y-81605733D01*
X202030293Y-81458067D01*
X202030292Y-81458066D01*
X202030289Y-81458064D01*
X201858661Y-81358974D01*
X201820214Y-81336777D01*
X201820205Y-81336773D01*
X201596104Y-81243947D01*
X201425424Y-81198213D01*
X201361789Y-81181162D01*
X201361788Y-81181161D01*
X201361785Y-81181161D01*
X201121289Y-81149500D01*
X201121288Y-81149500D01*
X200878712Y-81149500D01*
X200878711Y-81149500D01*
X200638214Y-81181161D01*
X200403895Y-81243947D01*
X200179794Y-81336773D01*
X200179785Y-81336777D01*
X199969706Y-81458067D01*
X199777263Y-81605733D01*
X199777256Y-81605739D01*
X199605739Y-81777256D01*
X199605733Y-81777263D01*
X199458067Y-81969706D01*
X199336777Y-82179785D01*
X199336773Y-82179794D01*
X199243947Y-82403895D01*
X199181161Y-82638214D01*
X199149500Y-82878711D01*
X195311960Y-82878711D01*
X195175996Y-82809433D01*
X194951368Y-82736446D01*
X194718097Y-82699500D01*
X194718092Y-82699500D01*
X194481908Y-82699500D01*
X194481903Y-82699500D01*
X194248631Y-82736446D01*
X194024003Y-82809433D01*
X193813566Y-82916657D01*
X193704550Y-82995862D01*
X193622490Y-83055483D01*
X193622488Y-83055485D01*
X193622487Y-83055485D01*
X193455485Y-83222487D01*
X193455485Y-83222488D01*
X193455483Y-83222490D01*
X193404347Y-83292872D01*
X193316657Y-83413566D01*
X193209433Y-83624003D01*
X193136446Y-83848631D01*
X193099500Y-84081902D01*
X188886760Y-84081902D01*
X188889709Y-84072826D01*
X188906041Y-83969711D01*
X188920500Y-83878422D01*
X188920500Y-83681577D01*
X188889709Y-83487173D01*
X188833783Y-83315054D01*
X188828884Y-83299975D01*
X188828882Y-83299972D01*
X188828882Y-83299970D01*
X188768346Y-83181162D01*
X188739524Y-83124595D01*
X188623828Y-82965354D01*
X188484646Y-82826172D01*
X188325405Y-82710476D01*
X188303863Y-82699500D01*
X188150029Y-82621117D01*
X187962826Y-82560290D01*
X187768422Y-82529500D01*
X187768417Y-82529500D01*
X187571583Y-82529500D01*
X187571578Y-82529500D01*
X187377173Y-82560290D01*
X187189970Y-82621117D01*
X187014594Y-82710476D01*
X186978849Y-82736447D01*
X186855354Y-82826172D01*
X186855352Y-82826174D01*
X186855351Y-82826174D01*
X186716174Y-82965351D01*
X186716174Y-82965352D01*
X186716172Y-82965354D01*
X186703980Y-82982135D01*
X186600476Y-83124594D01*
X186511117Y-83299970D01*
X186450290Y-83487173D01*
X186419500Y-83681577D01*
X186419500Y-83878422D01*
X186450290Y-84072826D01*
X186511117Y-84260029D01*
X186600476Y-84435405D01*
X186716172Y-84594646D01*
X186855354Y-84733828D01*
X187014595Y-84849524D01*
X187089214Y-84887544D01*
X187191213Y-84939515D01*
X187242009Y-84987489D01*
X187258804Y-85055310D01*
X187236267Y-85121445D01*
X187191213Y-85160485D01*
X187014594Y-85250476D01*
X186923741Y-85316485D01*
X186855354Y-85366172D01*
X186855352Y-85366174D01*
X186855351Y-85366174D01*
X186716174Y-85505351D01*
X186716174Y-85505352D01*
X186716172Y-85505354D01*
X186666485Y-85573741D01*
X186600476Y-85664594D01*
X186511117Y-85839970D01*
X186450290Y-86027173D01*
X186419500Y-86221577D01*
X186419500Y-86418422D01*
X186450290Y-86612826D01*
X186511117Y-86800029D01*
X186576253Y-86927864D01*
X186600476Y-86975405D01*
X186716172Y-87134646D01*
X186855354Y-87273828D01*
X187014595Y-87389524D01*
X187063969Y-87414681D01*
X187191213Y-87479515D01*
X187242009Y-87527489D01*
X187258804Y-87595310D01*
X187236267Y-87661445D01*
X187191213Y-87700485D01*
X187014594Y-87790476D01*
X186968146Y-87824223D01*
X186855354Y-87906172D01*
X186855352Y-87906174D01*
X186855351Y-87906174D01*
X186716174Y-88045351D01*
X186716174Y-88045352D01*
X186716172Y-88045354D01*
X186714829Y-88047203D01*
X186600476Y-88204594D01*
X186511117Y-88379970D01*
X186450290Y-88567173D01*
X186419500Y-88761577D01*
X186419500Y-88958422D01*
X186450290Y-89152826D01*
X186511117Y-89340029D01*
X186580284Y-89475776D01*
X186600476Y-89515405D01*
X186716172Y-89674646D01*
X186855354Y-89813828D01*
X187014595Y-89929524D01*
X187055732Y-89950484D01*
X187191213Y-90019515D01*
X187242009Y-90067489D01*
X187258804Y-90135310D01*
X187236267Y-90201445D01*
X187191213Y-90240485D01*
X187014594Y-90330476D01*
X186923741Y-90396485D01*
X186855354Y-90446172D01*
X186855352Y-90446174D01*
X186855351Y-90446174D01*
X186716174Y-90585351D01*
X186716174Y-90585352D01*
X186716172Y-90585354D01*
X186670376Y-90648386D01*
X186600476Y-90744594D01*
X186511117Y-90919970D01*
X186450290Y-91107173D01*
X186419500Y-91301577D01*
X186419500Y-91498422D01*
X186431687Y-91575367D01*
X186422733Y-91644660D01*
X186396895Y-91682446D01*
X178626162Y-99453181D01*
X178564839Y-99486666D01*
X178538481Y-99489500D01*
X173762976Y-99489500D01*
X173695937Y-99469815D01*
X173650182Y-99417011D01*
X173640238Y-99347853D01*
X173645045Y-99327181D01*
X173649709Y-99312826D01*
X173680500Y-99118422D01*
X173680500Y-98921577D01*
X173649709Y-98727173D01*
X173594718Y-98557930D01*
X173588884Y-98539975D01*
X173588882Y-98539972D01*
X173588882Y-98539970D01*
X173499523Y-98364594D01*
X173474317Y-98329901D01*
X173383828Y-98205354D01*
X173244646Y-98066172D01*
X173163600Y-98007288D01*
X173085403Y-97950474D01*
X172908787Y-97860485D01*
X172857990Y-97812511D01*
X172841195Y-97744690D01*
X172863732Y-97678555D01*
X172908787Y-97639515D01*
X173082604Y-97550951D01*
X173085405Y-97549524D01*
X173244646Y-97433828D01*
X173383828Y-97294646D01*
X173499524Y-97135405D01*
X173588884Y-96960025D01*
X173649709Y-96772826D01*
X173659911Y-96708412D01*
X173680500Y-96578422D01*
X173680500Y-96381577D01*
X173649709Y-96187173D01*
X173588882Y-95999970D01*
X173541743Y-95907455D01*
X173499524Y-95824595D01*
X173383828Y-95665354D01*
X173244646Y-95526172D01*
X173113190Y-95430663D01*
X173085403Y-95410474D01*
X172908787Y-95320485D01*
X172857990Y-95272511D01*
X172841195Y-95204690D01*
X172863732Y-95138555D01*
X172908787Y-95099515D01*
X173085403Y-95009525D01*
X173085402Y-95009525D01*
X173085405Y-95009524D01*
X173244646Y-94893828D01*
X173383828Y-94754646D01*
X173499524Y-94595405D01*
X173588884Y-94420025D01*
X173649709Y-94232826D01*
X173664321Y-94140568D01*
X173680500Y-94038422D01*
X173680500Y-93841577D01*
X173649709Y-93647173D01*
X173603671Y-93505485D01*
X173588884Y-93459975D01*
X173588882Y-93459972D01*
X173588882Y-93459970D01*
X173533444Y-93351167D01*
X173499524Y-93284595D01*
X173383828Y-93125354D01*
X173244646Y-92986172D01*
X173165025Y-92928324D01*
X173085403Y-92870474D01*
X172908787Y-92780485D01*
X172857990Y-92732511D01*
X172841195Y-92664690D01*
X172863732Y-92598555D01*
X172908787Y-92559515D01*
X173085403Y-92469525D01*
X173085402Y-92469525D01*
X173085405Y-92469524D01*
X173244646Y-92353828D01*
X173383828Y-92214646D01*
X173499524Y-92055405D01*
X173588884Y-91880025D01*
X173649709Y-91692826D01*
X173659911Y-91628412D01*
X173680500Y-91498422D01*
X173680500Y-91301577D01*
X173649709Y-91107173D01*
X173588882Y-90919970D01*
X173541743Y-90827455D01*
X173499524Y-90744595D01*
X173383828Y-90585354D01*
X173244646Y-90446172D01*
X173165025Y-90388324D01*
X173085403Y-90330474D01*
X172908787Y-90240485D01*
X172857990Y-90192511D01*
X172841195Y-90124690D01*
X172863732Y-90058555D01*
X172908787Y-90019515D01*
X173085403Y-89929525D01*
X173085402Y-89929525D01*
X173085405Y-89929524D01*
X173244646Y-89813828D01*
X173383828Y-89674646D01*
X173499524Y-89515405D01*
X173588884Y-89340025D01*
X173649709Y-89152826D01*
X173659911Y-89088412D01*
X173680500Y-88958422D01*
X173680500Y-88761577D01*
X173649709Y-88567173D01*
X173588882Y-88379970D01*
X173541743Y-88287455D01*
X173499524Y-88204595D01*
X173383828Y-88045354D01*
X173244646Y-87906172D01*
X173131854Y-87824223D01*
X173085403Y-87790474D01*
X172908787Y-87700485D01*
X172857990Y-87652511D01*
X172841195Y-87584690D01*
X172863732Y-87518555D01*
X172908787Y-87479515D01*
X173070816Y-87396957D01*
X173085405Y-87389524D01*
X173244646Y-87273828D01*
X173383828Y-87134646D01*
X173499524Y-86975405D01*
X173588884Y-86800025D01*
X173649709Y-86612826D01*
X173660937Y-86541936D01*
X173680500Y-86418422D01*
X173680500Y-86221577D01*
X173649709Y-86027173D01*
X173588882Y-85839970D01*
X173499523Y-85664594D01*
X173498767Y-85663553D01*
X173383828Y-85505354D01*
X173244646Y-85366172D01*
X173091377Y-85254815D01*
X173048714Y-85199487D01*
X173042735Y-85129873D01*
X173075341Y-85068078D01*
X173136180Y-85033721D01*
X173164264Y-85030499D01*
X173227872Y-85030499D01*
X173287483Y-85024091D01*
X173422331Y-84973796D01*
X173537546Y-84887546D01*
X173623796Y-84772331D01*
X173674091Y-84637483D01*
X173680500Y-84577873D01*
X173680499Y-82982128D01*
X173674091Y-82922517D01*
X173671905Y-82916657D01*
X173623797Y-82787671D01*
X173623793Y-82787664D01*
X173537547Y-82672455D01*
X173537544Y-82672452D01*
X173422335Y-82586206D01*
X173422328Y-82586202D01*
X173287482Y-82535908D01*
X173287483Y-82535908D01*
X173227883Y-82529501D01*
X173227881Y-82529500D01*
X173227873Y-82529500D01*
X173227864Y-82529500D01*
X171632129Y-82529500D01*
X171632123Y-82529501D01*
X171572516Y-82535908D01*
X171437671Y-82586202D01*
X171437664Y-82586206D01*
X171322455Y-82672452D01*
X171322452Y-82672455D01*
X171236206Y-82787664D01*
X171236202Y-82787671D01*
X171185908Y-82922517D01*
X171181303Y-82965354D01*
X171179501Y-82982123D01*
X171179500Y-82982135D01*
X171179500Y-83175500D01*
X171159815Y-83242539D01*
X171107011Y-83288294D01*
X171055500Y-83299500D01*
X166971908Y-83299500D01*
X166904869Y-83279815D01*
X166859114Y-83227011D01*
X166849170Y-83157853D01*
X166861423Y-83119205D01*
X166879577Y-83083576D01*
X166879577Y-83083575D01*
X166879579Y-83083572D01*
X166959860Y-82836493D01*
X166991264Y-82638214D01*
X167000500Y-82579902D01*
X167000500Y-82320097D01*
X166966720Y-82106823D01*
X166959860Y-82063507D01*
X166879579Y-81816428D01*
X166879577Y-81816425D01*
X166879577Y-81816423D01*
X166836787Y-81732445D01*
X166761634Y-81584949D01*
X166608931Y-81374771D01*
X166425229Y-81191069D01*
X166249999Y-81063757D01*
X166215054Y-81038368D01*
X166215053Y-81038367D01*
X166215051Y-81038366D01*
X166142764Y-81001534D01*
X165983576Y-80920422D01*
X165736493Y-80840140D01*
X165479902Y-80799500D01*
X165479897Y-80799500D01*
X164520103Y-80799500D01*
X164520098Y-80799500D01*
X164263506Y-80840140D01*
X164016423Y-80920422D01*
X163847870Y-81006305D01*
X163806293Y-81027490D01*
X163737626Y-81040386D01*
X163693706Y-81027490D01*
X163637209Y-80998703D01*
X163483576Y-80920422D01*
X163236493Y-80840140D01*
X162979902Y-80799500D01*
X162979897Y-80799500D01*
X162020103Y-80799500D01*
X162020098Y-80799500D01*
X161763506Y-80840140D01*
X161516423Y-80920422D01*
X161284945Y-81038368D01*
X161074774Y-81191066D01*
X161074768Y-81191071D01*
X160891071Y-81374768D01*
X160891066Y-81374774D01*
X160738368Y-81584945D01*
X160620422Y-81816423D01*
X160540140Y-82063506D01*
X160499500Y-82320097D01*
X160499500Y-82579902D01*
X160540140Y-82836493D01*
X160620422Y-83083576D01*
X160638577Y-83119205D01*
X160651473Y-83187874D01*
X160625197Y-83252614D01*
X160568091Y-83292872D01*
X160528092Y-83299500D01*
X159471908Y-83299500D01*
X159404869Y-83279815D01*
X159359114Y-83227011D01*
X159349170Y-83157853D01*
X159361423Y-83119205D01*
X159379577Y-83083576D01*
X159379577Y-83083575D01*
X159379579Y-83083572D01*
X159459860Y-82836493D01*
X159491264Y-82638214D01*
X159500500Y-82579902D01*
X159500500Y-82320097D01*
X159466720Y-82106823D01*
X159459860Y-82063507D01*
X159379579Y-81816428D01*
X159379577Y-81816425D01*
X159379577Y-81816423D01*
X159336787Y-81732445D01*
X159261634Y-81584949D01*
X159108931Y-81374771D01*
X158925229Y-81191069D01*
X158749999Y-81063757D01*
X158715054Y-81038368D01*
X158715053Y-81038367D01*
X158715051Y-81038366D01*
X158642764Y-81001534D01*
X158483576Y-80920422D01*
X158236493Y-80840140D01*
X157979902Y-80799500D01*
X157979897Y-80799500D01*
X157020103Y-80799500D01*
X157020098Y-80799500D01*
X156763506Y-80840140D01*
X156516423Y-80920422D01*
X156347870Y-81006305D01*
X156306293Y-81027490D01*
X156237626Y-81040386D01*
X156193706Y-81027490D01*
X156137209Y-80998703D01*
X155983576Y-80920422D01*
X155736493Y-80840140D01*
X155479902Y-80799500D01*
X155479897Y-80799500D01*
X154520103Y-80799500D01*
X154520098Y-80799500D01*
X154263506Y-80840140D01*
X154016423Y-80920422D01*
X153784945Y-81038368D01*
X153574774Y-81191066D01*
X153574768Y-81191071D01*
X153391071Y-81374768D01*
X153391066Y-81374774D01*
X153238368Y-81584945D01*
X153120422Y-81816423D01*
X153040140Y-82063506D01*
X152999500Y-82320097D01*
X152999500Y-82579902D01*
X153040140Y-82836493D01*
X153120422Y-83083576D01*
X153227065Y-83292872D01*
X153238366Y-83315051D01*
X153348171Y-83466185D01*
X153371651Y-83531991D01*
X153355826Y-83600045D01*
X153335534Y-83626751D01*
X142581286Y-94381000D01*
X142469481Y-94492804D01*
X142469480Y-94492806D01*
X142435617Y-94551459D01*
X142390423Y-94629737D01*
X142349499Y-94782465D01*
X142349499Y-94782467D01*
X142349499Y-94950568D01*
X142349500Y-94950581D01*
X142349500Y-97804091D01*
X142329815Y-97871130D01*
X142285731Y-97909641D01*
X142286813Y-97911395D01*
X142280667Y-97915185D01*
X142280666Y-97915186D01*
X142194583Y-97968282D01*
X142131342Y-98007289D01*
X142007289Y-98131342D01*
X141915187Y-98280663D01*
X141915186Y-98280666D01*
X141860001Y-98447203D01*
X141860001Y-98447204D01*
X141860000Y-98447204D01*
X141849500Y-98549983D01*
X141849500Y-99550001D01*
X141849501Y-99550019D01*
X141860000Y-99652796D01*
X141860001Y-99652799D01*
X141915185Y-99819331D01*
X141915187Y-99819336D01*
X141924630Y-99834646D01*
X142007288Y-99968656D01*
X142131344Y-100092712D01*
X142280666Y-100184814D01*
X142447203Y-100239999D01*
X142549991Y-100250500D01*
X143350008Y-100250499D01*
X143350016Y-100250498D01*
X143350019Y-100250498D01*
X143406302Y-100244748D01*
X143452797Y-100239999D01*
X143619334Y-100184814D01*
X143768656Y-100092712D01*
X143862319Y-99999049D01*
X143923642Y-99965564D01*
X143993334Y-99970548D01*
X144037681Y-99999049D01*
X144131344Y-100092712D01*
X144280666Y-100184814D01*
X144447203Y-100239999D01*
X144549991Y-100250500D01*
X145350008Y-100250499D01*
X145350016Y-100250498D01*
X145350019Y-100250498D01*
X145406302Y-100244748D01*
X145452797Y-100239999D01*
X145619334Y-100184814D01*
X145768656Y-100092712D01*
X145892712Y-99968656D01*
X145984814Y-99819334D01*
X146039999Y-99652797D01*
X146050500Y-99550009D01*
X146050499Y-98549992D01*
X146039999Y-98447203D01*
X145984814Y-98280666D01*
X145892712Y-98131344D01*
X145768656Y-98007288D01*
X145659402Y-97939900D01*
X145612679Y-97887953D01*
X145600500Y-97834362D01*
X145600500Y-96704067D01*
X145620185Y-96637028D01*
X145668205Y-96593582D01*
X145786433Y-96533343D01*
X145977510Y-96394517D01*
X146144517Y-96227510D01*
X146283343Y-96036433D01*
X146390568Y-95825992D01*
X146463553Y-95601368D01*
X146468111Y-95572591D01*
X146500500Y-95368097D01*
X146500500Y-94531902D01*
X146463553Y-94298631D01*
X146435909Y-94213553D01*
X146391389Y-94076537D01*
X146389395Y-94006699D01*
X146425475Y-93946866D01*
X146488176Y-93916037D01*
X146557590Y-93924001D01*
X146582200Y-93937899D01*
X146713567Y-94033343D01*
X146793367Y-94074003D01*
X146924003Y-94140566D01*
X146924005Y-94140566D01*
X146924008Y-94140568D01*
X147009703Y-94168412D01*
X147148631Y-94213553D01*
X147381903Y-94250500D01*
X147381908Y-94250500D01*
X147618097Y-94250500D01*
X147851368Y-94213553D01*
X147852876Y-94213063D01*
X148075992Y-94140568D01*
X148286433Y-94033343D01*
X148477510Y-93894517D01*
X148644517Y-93727510D01*
X148783343Y-93536433D01*
X148890568Y-93325992D01*
X148963553Y-93101368D01*
X148964399Y-93096026D01*
X149000500Y-92868097D01*
X149000500Y-92031902D01*
X148963553Y-91798631D01*
X148911286Y-91637771D01*
X148890568Y-91574008D01*
X148890566Y-91574005D01*
X148890566Y-91574003D01*
X148815276Y-91426239D01*
X148783343Y-91363567D01*
X148644517Y-91172490D01*
X148477510Y-91005483D01*
X148286433Y-90866657D01*
X148143359Y-90793757D01*
X148112350Y-90777957D01*
X148061554Y-90729982D01*
X148044759Y-90662161D01*
X148067296Y-90596026D01*
X148080958Y-90579797D01*
X154123938Y-84536819D01*
X154185261Y-84503334D01*
X154211619Y-84500500D01*
X171059799Y-84500500D01*
X171126838Y-84520185D01*
X171172593Y-84572989D01*
X171183089Y-84611248D01*
X171185908Y-84637483D01*
X171236202Y-84772328D01*
X171236206Y-84772335D01*
X171322452Y-84887544D01*
X171322455Y-84887547D01*
X171437664Y-84973793D01*
X171437671Y-84973797D01*
X171572517Y-85024091D01*
X171572516Y-85024091D01*
X171579444Y-85024835D01*
X171632127Y-85030500D01*
X171695733Y-85030499D01*
X171762770Y-85050183D01*
X171808526Y-85102986D01*
X171818470Y-85172144D01*
X171789446Y-85235700D01*
X171768619Y-85254816D01*
X171615354Y-85366171D01*
X171476174Y-85505351D01*
X171476174Y-85505352D01*
X171476172Y-85505354D01*
X171426485Y-85573741D01*
X171360476Y-85664594D01*
X171271117Y-85839970D01*
X171210290Y-86027173D01*
X171179500Y-86221577D01*
X171179500Y-86418422D01*
X171210290Y-86612826D01*
X171271117Y-86800029D01*
X171336253Y-86927864D01*
X171360476Y-86975405D01*
X171476172Y-87134646D01*
X171615354Y-87273828D01*
X171774595Y-87389524D01*
X171823969Y-87414681D01*
X171951213Y-87479515D01*
X172002009Y-87527489D01*
X172018804Y-87595310D01*
X171996267Y-87661445D01*
X171951213Y-87700485D01*
X171774594Y-87790476D01*
X171728146Y-87824223D01*
X171615354Y-87906172D01*
X171615352Y-87906174D01*
X171615351Y-87906174D01*
X171476174Y-88045351D01*
X171476174Y-88045352D01*
X171476172Y-88045354D01*
X171474829Y-88047203D01*
X171360476Y-88204594D01*
X171271117Y-88379970D01*
X171210290Y-88567173D01*
X171179500Y-88761577D01*
X171179500Y-88958422D01*
X171210290Y-89152826D01*
X171271117Y-89340029D01*
X171340284Y-89475776D01*
X171360476Y-89515405D01*
X171476172Y-89674646D01*
X171615354Y-89813828D01*
X171774595Y-89929524D01*
X171815732Y-89950484D01*
X171951213Y-90019515D01*
X172002009Y-90067489D01*
X172018804Y-90135310D01*
X171996267Y-90201445D01*
X171951213Y-90240485D01*
X171774594Y-90330476D01*
X171683741Y-90396485D01*
X171615354Y-90446172D01*
X171615352Y-90446174D01*
X171615351Y-90446174D01*
X171476174Y-90585351D01*
X171476174Y-90585352D01*
X171476172Y-90585354D01*
X171430376Y-90648386D01*
X171360476Y-90744594D01*
X171271117Y-90919970D01*
X171210290Y-91107173D01*
X171179500Y-91301577D01*
X171179500Y-91498422D01*
X171210290Y-91692826D01*
X171271117Y-91880029D01*
X171360476Y-92055405D01*
X171476172Y-92214646D01*
X171615354Y-92353828D01*
X171774595Y-92469524D01*
X171815732Y-92490484D01*
X171951213Y-92559515D01*
X172002009Y-92607489D01*
X172018804Y-92675310D01*
X171996267Y-92741445D01*
X171951213Y-92780485D01*
X171774594Y-92870476D01*
X171692800Y-92929904D01*
X171615354Y-92986172D01*
X171615352Y-92986174D01*
X171615351Y-92986174D01*
X171476174Y-93125351D01*
X171476174Y-93125352D01*
X171476172Y-93125354D01*
X171471645Y-93131585D01*
X171360476Y-93284594D01*
X171271117Y-93459970D01*
X171210290Y-93647173D01*
X171179500Y-93841577D01*
X171179500Y-94038422D01*
X171210290Y-94232826D01*
X171271117Y-94420029D01*
X171338085Y-94551460D01*
X171360476Y-94595405D01*
X171476172Y-94754646D01*
X171615354Y-94893828D01*
X171774595Y-95009524D01*
X171897992Y-95072397D01*
X171951213Y-95099515D01*
X172002009Y-95147489D01*
X172018804Y-95215310D01*
X171996267Y-95281445D01*
X171951213Y-95320485D01*
X171774594Y-95410476D01*
X171746803Y-95430668D01*
X171615354Y-95526172D01*
X171615352Y-95526174D01*
X171615351Y-95526174D01*
X171476174Y-95665351D01*
X171476174Y-95665352D01*
X171476172Y-95665354D01*
X171451007Y-95699991D01*
X171360476Y-95824594D01*
X171271117Y-95999970D01*
X171210290Y-96187173D01*
X171179500Y-96381577D01*
X171179500Y-96578422D01*
X171210290Y-96772826D01*
X171271117Y-96960029D01*
X171352906Y-97120548D01*
X171360476Y-97135405D01*
X171476172Y-97294646D01*
X171615354Y-97433828D01*
X171774595Y-97549524D01*
X171859341Y-97592704D01*
X171951213Y-97639515D01*
X172002009Y-97687489D01*
X172018804Y-97755310D01*
X171996267Y-97821445D01*
X171951213Y-97860485D01*
X171774594Y-97950476D01*
X171696400Y-98007288D01*
X171615354Y-98066172D01*
X171615352Y-98066174D01*
X171615351Y-98066174D01*
X171476174Y-98205351D01*
X171476174Y-98205352D01*
X171476172Y-98205354D01*
X171426485Y-98273741D01*
X171360476Y-98364594D01*
X171271117Y-98539970D01*
X171210290Y-98727173D01*
X171179500Y-98921577D01*
X171179500Y-99118422D01*
X171210290Y-99312826D01*
X171214955Y-99327181D01*
X171216950Y-99397023D01*
X171180870Y-99456856D01*
X171118169Y-99487684D01*
X171097024Y-99489500D01*
X171041004Y-99489500D01*
X170905677Y-99516418D01*
X170905667Y-99516421D01*
X170778192Y-99569222D01*
X170663454Y-99645887D01*
X170663453Y-99645888D01*
X167336162Y-102973181D01*
X167274839Y-103006666D01*
X167248481Y-103009500D01*
X165414500Y-103009500D01*
X165347461Y-102989815D01*
X165301706Y-102937011D01*
X165290500Y-102885500D01*
X165290499Y-101829998D01*
X165290498Y-101829981D01*
X165279999Y-101727203D01*
X165279998Y-101727200D01*
X165257207Y-101658422D01*
X165224814Y-101560666D01*
X165132712Y-101411344D01*
X165008656Y-101287288D01*
X164907314Y-101224780D01*
X164859336Y-101195187D01*
X164859331Y-101195185D01*
X164846140Y-101190814D01*
X164692797Y-101140001D01*
X164692795Y-101140000D01*
X164590010Y-101129500D01*
X163389998Y-101129500D01*
X163389981Y-101129501D01*
X163287203Y-101140000D01*
X163287200Y-101140001D01*
X163120668Y-101195185D01*
X163120663Y-101195187D01*
X162971342Y-101287289D01*
X162847289Y-101411342D01*
X162755187Y-101560663D01*
X162755186Y-101560666D01*
X162728045Y-101642571D01*
X162688271Y-101700016D01*
X162623755Y-101726838D01*
X162554979Y-101714522D01*
X162510021Y-101676452D01*
X162441966Y-101582781D01*
X162297219Y-101438034D01*
X162297213Y-101438028D01*
X162131610Y-101317712D01*
X162118200Y-101310879D01*
X162067406Y-101262903D01*
X162050500Y-101200397D01*
X162050500Y-99539059D01*
X162050501Y-99539046D01*
X162050501Y-99370945D01*
X162050501Y-99370943D01*
X162013161Y-99231590D01*
X162014824Y-99161744D01*
X162053986Y-99103882D01*
X162118214Y-99076377D01*
X162132936Y-99075500D01*
X163335202Y-99075500D01*
X163402241Y-99095185D01*
X163440739Y-99134401D01*
X163477288Y-99193656D01*
X163601344Y-99317712D01*
X163750666Y-99409814D01*
X163917203Y-99464999D01*
X164019991Y-99475500D01*
X164620008Y-99475499D01*
X164620016Y-99475498D01*
X164620019Y-99475498D01*
X164676302Y-99469748D01*
X164722797Y-99464999D01*
X164889334Y-99409814D01*
X165038656Y-99317712D01*
X165162712Y-99193656D01*
X165254814Y-99044334D01*
X165309999Y-98877797D01*
X165320500Y-98775009D01*
X165320499Y-98174992D01*
X165319214Y-98162416D01*
X165309999Y-98072203D01*
X165309998Y-98072200D01*
X165308001Y-98066174D01*
X165254814Y-97905666D01*
X165162712Y-97756344D01*
X165038656Y-97632288D01*
X164929890Y-97565201D01*
X164889336Y-97540187D01*
X164889331Y-97540185D01*
X164887862Y-97539698D01*
X164722797Y-97485001D01*
X164722795Y-97485000D01*
X164620010Y-97474500D01*
X164019998Y-97474500D01*
X164019980Y-97474501D01*
X163917203Y-97485000D01*
X163917200Y-97485001D01*
X163750668Y-97540185D01*
X163750663Y-97540187D01*
X163601342Y-97632289D01*
X163477289Y-97756342D01*
X163477288Y-97756344D01*
X163447838Y-97804091D01*
X163440741Y-97815597D01*
X163388793Y-97862321D01*
X163335202Y-97874500D01*
X161672017Y-97874500D01*
X161604978Y-97854815D01*
X161559223Y-97802011D01*
X161554311Y-97789505D01*
X161547682Y-97769500D01*
X161534814Y-97730666D01*
X161442712Y-97581344D01*
X161318656Y-97457288D01*
X161209561Y-97389998D01*
X161169336Y-97365187D01*
X161169331Y-97365185D01*
X161146510Y-97357623D01*
X161002797Y-97310001D01*
X161002795Y-97310000D01*
X160900010Y-97299500D01*
X160099998Y-97299500D01*
X160099980Y-97299501D01*
X159997203Y-97310000D01*
X159997200Y-97310001D01*
X159830668Y-97365185D01*
X159830663Y-97365187D01*
X159681342Y-97457289D01*
X159587681Y-97550951D01*
X159526358Y-97584436D01*
X159456666Y-97579452D01*
X159412319Y-97550951D01*
X159318657Y-97457289D01*
X159318656Y-97457288D01*
X159209561Y-97389998D01*
X159169336Y-97365187D01*
X159169331Y-97365185D01*
X159146510Y-97357623D01*
X159002797Y-97310001D01*
X159002795Y-97310000D01*
X158900016Y-97299500D01*
X158900009Y-97299500D01*
X158250097Y-97299500D01*
X158183058Y-97279815D01*
X158162416Y-97263181D01*
X156513293Y-95614058D01*
X156479808Y-95552735D01*
X156478501Y-95506984D01*
X156500500Y-95368092D01*
X156500500Y-94531908D01*
X156500500Y-94531902D01*
X163499500Y-94531902D01*
X163499500Y-95368097D01*
X163536446Y-95601368D01*
X163609433Y-95825996D01*
X163698078Y-95999970D01*
X163716657Y-96036433D01*
X163855483Y-96227510D01*
X164022490Y-96394517D01*
X164213567Y-96533343D01*
X164248229Y-96551004D01*
X164424003Y-96640566D01*
X164424005Y-96640566D01*
X164424008Y-96640568D01*
X164512559Y-96669340D01*
X164648631Y-96713553D01*
X164881903Y-96750500D01*
X164881908Y-96750500D01*
X165118097Y-96750500D01*
X165351368Y-96713553D01*
X165367190Y-96708412D01*
X165575992Y-96640568D01*
X165671498Y-96591904D01*
X165740165Y-96579008D01*
X165804906Y-96605284D01*
X165815473Y-96614708D01*
X166183181Y-96982416D01*
X166216666Y-97043739D01*
X166219500Y-97070097D01*
X166219500Y-97490201D01*
X166199815Y-97557240D01*
X166160598Y-97595739D01*
X166101344Y-97632287D01*
X165977289Y-97756342D01*
X165885187Y-97905663D01*
X165885185Y-97905668D01*
X165870338Y-97950474D01*
X165830001Y-98072203D01*
X165830001Y-98072204D01*
X165830000Y-98072204D01*
X165819500Y-98174983D01*
X165819500Y-98775001D01*
X165819501Y-98775019D01*
X165830000Y-98877796D01*
X165830001Y-98877799D01*
X165844508Y-98921577D01*
X165885186Y-99044334D01*
X165977288Y-99193656D01*
X166101344Y-99317712D01*
X166250666Y-99409814D01*
X166417203Y-99464999D01*
X166519991Y-99475500D01*
X167120008Y-99475499D01*
X167120016Y-99475498D01*
X167120019Y-99475498D01*
X167176302Y-99469748D01*
X167222797Y-99464999D01*
X167389334Y-99409814D01*
X167538656Y-99317712D01*
X167662712Y-99193656D01*
X167754814Y-99044334D01*
X167809999Y-98877797D01*
X167820500Y-98775009D01*
X167820499Y-98174992D01*
X167819214Y-98162416D01*
X167809999Y-98072203D01*
X167809998Y-98072200D01*
X167808001Y-98066174D01*
X167754814Y-97905666D01*
X167662712Y-97756344D01*
X167538656Y-97632288D01*
X167538655Y-97632287D01*
X167479402Y-97595739D01*
X167432678Y-97543791D01*
X167420500Y-97490201D01*
X167420500Y-96859060D01*
X167420501Y-96859047D01*
X167420501Y-96690944D01*
X167407267Y-96641556D01*
X167379577Y-96538216D01*
X167361115Y-96506239D01*
X167300524Y-96401290D01*
X167300518Y-96401282D01*
X166935669Y-96036433D01*
X166513292Y-95614057D01*
X166479808Y-95552735D01*
X166478501Y-95506984D01*
X166500500Y-95368092D01*
X166500500Y-94531908D01*
X166500500Y-94531902D01*
X166463553Y-94298631D01*
X166435909Y-94213553D01*
X166391389Y-94076537D01*
X166389395Y-94006699D01*
X166425475Y-93946866D01*
X166488176Y-93916037D01*
X166557590Y-93924001D01*
X166582200Y-93937899D01*
X166713567Y-94033343D01*
X166793367Y-94074003D01*
X166924003Y-94140566D01*
X166924005Y-94140566D01*
X166924008Y-94140568D01*
X167009703Y-94168412D01*
X167148631Y-94213553D01*
X167381903Y-94250500D01*
X167381908Y-94250500D01*
X167618097Y-94250500D01*
X167851368Y-94213553D01*
X167852876Y-94213063D01*
X168075992Y-94140568D01*
X168286433Y-94033343D01*
X168477510Y-93894517D01*
X168644517Y-93727510D01*
X168783343Y-93536433D01*
X168890568Y-93325992D01*
X168963553Y-93101368D01*
X168964399Y-93096026D01*
X169000500Y-92868097D01*
X169000500Y-92031902D01*
X168963553Y-91798631D01*
X168911286Y-91637771D01*
X168890568Y-91574008D01*
X168890566Y-91574005D01*
X168890566Y-91574003D01*
X168815276Y-91426239D01*
X168783343Y-91363567D01*
X168644517Y-91172490D01*
X168477510Y-91005483D01*
X168286433Y-90866657D01*
X168265294Y-90855886D01*
X168075996Y-90759433D01*
X167851368Y-90686446D01*
X167618097Y-90649500D01*
X167618092Y-90649500D01*
X167381908Y-90649500D01*
X167381903Y-90649500D01*
X167148631Y-90686446D01*
X166924003Y-90759433D01*
X166713566Y-90866657D01*
X166640188Y-90919970D01*
X166522490Y-91005483D01*
X166522488Y-91005485D01*
X166522487Y-91005485D01*
X166355485Y-91172487D01*
X166355485Y-91172488D01*
X166355483Y-91172490D01*
X166323663Y-91216286D01*
X166216657Y-91363566D01*
X166109433Y-91574003D01*
X166036446Y-91798631D01*
X165999500Y-92031902D01*
X165999500Y-92868097D01*
X166036447Y-93101369D01*
X166036447Y-93101372D01*
X166108609Y-93323460D01*
X166110604Y-93393301D01*
X166074524Y-93453134D01*
X166011823Y-93483962D01*
X165942409Y-93475997D01*
X165917796Y-93462098D01*
X165786433Y-93366657D01*
X165756032Y-93351167D01*
X165575996Y-93259433D01*
X165351368Y-93186446D01*
X165118097Y-93149500D01*
X165118092Y-93149500D01*
X164881908Y-93149500D01*
X164881903Y-93149500D01*
X164648631Y-93186446D01*
X164424003Y-93259433D01*
X164213566Y-93366657D01*
X164104550Y-93445862D01*
X164022490Y-93505483D01*
X164022488Y-93505485D01*
X164022487Y-93505485D01*
X163855485Y-93672487D01*
X163855485Y-93672488D01*
X163855483Y-93672490D01*
X163815744Y-93727186D01*
X163716657Y-93863566D01*
X163609433Y-94074003D01*
X163536446Y-94298631D01*
X163499500Y-94531902D01*
X156500500Y-94531902D01*
X156463553Y-94298631D01*
X156412043Y-94140102D01*
X156390568Y-94074008D01*
X156390566Y-94074005D01*
X156390566Y-94074003D01*
X156322551Y-93940518D01*
X156283343Y-93863567D01*
X156144517Y-93672490D01*
X155977510Y-93505483D01*
X155786433Y-93366657D01*
X155756032Y-93351167D01*
X155575996Y-93259433D01*
X155351368Y-93186446D01*
X155118097Y-93149500D01*
X155118092Y-93149500D01*
X154881908Y-93149500D01*
X154881903Y-93149500D01*
X154648631Y-93186446D01*
X154424003Y-93259433D01*
X154213566Y-93366657D01*
X154082207Y-93462096D01*
X154016400Y-93485576D01*
X153948346Y-93469751D01*
X153899651Y-93419645D01*
X153885776Y-93351167D01*
X153891388Y-93323467D01*
X153963553Y-93101368D01*
X153964399Y-93096026D01*
X154000500Y-92868097D01*
X154000500Y-92031902D01*
X158499500Y-92031902D01*
X158499500Y-92868097D01*
X158536446Y-93101368D01*
X158609433Y-93325996D01*
X158690744Y-93485576D01*
X158716657Y-93536433D01*
X158855483Y-93727510D01*
X159022490Y-93894517D01*
X159213567Y-94033343D01*
X159293367Y-94074003D01*
X159424003Y-94140566D01*
X159424005Y-94140566D01*
X159424008Y-94140568D01*
X159509703Y-94168412D01*
X159648631Y-94213553D01*
X159881903Y-94250500D01*
X159881908Y-94250500D01*
X160118097Y-94250500D01*
X160351368Y-94213553D01*
X160352876Y-94213063D01*
X160575992Y-94140568D01*
X160786433Y-94033343D01*
X160977510Y-93894517D01*
X161144517Y-93727510D01*
X161283343Y-93536433D01*
X161390568Y-93325992D01*
X161463553Y-93101368D01*
X161464399Y-93096026D01*
X161500500Y-92868097D01*
X161500500Y-92031902D01*
X161463553Y-91798631D01*
X161411286Y-91637771D01*
X161390568Y-91574008D01*
X161390566Y-91574005D01*
X161390566Y-91574003D01*
X161315276Y-91426239D01*
X161283343Y-91363567D01*
X161144517Y-91172490D01*
X160977510Y-91005483D01*
X160786433Y-90866657D01*
X160765294Y-90855886D01*
X160575996Y-90759433D01*
X160351368Y-90686446D01*
X160118097Y-90649500D01*
X160118092Y-90649500D01*
X159881908Y-90649500D01*
X159881903Y-90649500D01*
X159648631Y-90686446D01*
X159424003Y-90759433D01*
X159213566Y-90866657D01*
X159140188Y-90919970D01*
X159022490Y-91005483D01*
X159022488Y-91005485D01*
X159022487Y-91005485D01*
X158855485Y-91172487D01*
X158855485Y-91172488D01*
X158855483Y-91172490D01*
X158823663Y-91216286D01*
X158716657Y-91363566D01*
X158609433Y-91574003D01*
X158536446Y-91798631D01*
X158499500Y-92031902D01*
X154000500Y-92031902D01*
X153963553Y-91798631D01*
X153911286Y-91637771D01*
X153890568Y-91574008D01*
X153890566Y-91574005D01*
X153890566Y-91574003D01*
X153815276Y-91426239D01*
X153783343Y-91363567D01*
X153644517Y-91172490D01*
X153477510Y-91005483D01*
X153286433Y-90866657D01*
X153265294Y-90855886D01*
X153075996Y-90759433D01*
X152851368Y-90686446D01*
X152618097Y-90649500D01*
X152618092Y-90649500D01*
X152381908Y-90649500D01*
X152381903Y-90649500D01*
X152148631Y-90686446D01*
X151924003Y-90759433D01*
X151713566Y-90866657D01*
X151640188Y-90919970D01*
X151522490Y-91005483D01*
X151522488Y-91005485D01*
X151522487Y-91005485D01*
X151355485Y-91172487D01*
X151355485Y-91172488D01*
X151355483Y-91172490D01*
X151323663Y-91216286D01*
X151216657Y-91363566D01*
X151109433Y-91574003D01*
X151036446Y-91798631D01*
X150999500Y-92031902D01*
X150999500Y-92868097D01*
X151036446Y-93101368D01*
X151109433Y-93325996D01*
X151190744Y-93485576D01*
X151216657Y-93536433D01*
X151355483Y-93727510D01*
X151522490Y-93894517D01*
X151713567Y-94033343D01*
X151793367Y-94074003D01*
X151924003Y-94140566D01*
X151924005Y-94140566D01*
X151924008Y-94140568D01*
X152009703Y-94168412D01*
X152148631Y-94213553D01*
X152381903Y-94250500D01*
X152381908Y-94250500D01*
X152618097Y-94250500D01*
X152851368Y-94213553D01*
X152852876Y-94213063D01*
X153075992Y-94140568D01*
X153286433Y-94033343D01*
X153417794Y-93937903D01*
X153483598Y-93914423D01*
X153551652Y-93930248D01*
X153600347Y-93980353D01*
X153614223Y-94048831D01*
X153608609Y-94076539D01*
X153536447Y-94298627D01*
X153536447Y-94298630D01*
X153499500Y-94531902D01*
X153499500Y-95368097D01*
X153536446Y-95601368D01*
X153609433Y-95825996D01*
X153698078Y-95999970D01*
X153716657Y-96036433D01*
X153855483Y-96227510D01*
X154022490Y-96394517D01*
X154213567Y-96533343D01*
X154248229Y-96551004D01*
X154424003Y-96640566D01*
X154424005Y-96640566D01*
X154424008Y-96640568D01*
X154512559Y-96669340D01*
X154648631Y-96713553D01*
X154881903Y-96750500D01*
X154881908Y-96750500D01*
X155118097Y-96750500D01*
X155351368Y-96713553D01*
X155367190Y-96708412D01*
X155575992Y-96640568D01*
X155671498Y-96591904D01*
X155740165Y-96579008D01*
X155804906Y-96605284D01*
X155815473Y-96614708D01*
X157363181Y-98162416D01*
X157396666Y-98223739D01*
X157399500Y-98250097D01*
X157399500Y-99000001D01*
X157399501Y-99000019D01*
X157410000Y-99102796D01*
X157410001Y-99102799D01*
X157458253Y-99248412D01*
X157465186Y-99269334D01*
X157557288Y-99418656D01*
X157681344Y-99542712D01*
X157830666Y-99634814D01*
X157997203Y-99689999D01*
X158099991Y-99700500D01*
X158900008Y-99700499D01*
X158900016Y-99700498D01*
X158900019Y-99700498D01*
X158956302Y-99694748D01*
X159002797Y-99689999D01*
X159169334Y-99634814D01*
X159318656Y-99542712D01*
X159412319Y-99449049D01*
X159473642Y-99415564D01*
X159543334Y-99420548D01*
X159587681Y-99449049D01*
X159681344Y-99542712D01*
X159830666Y-99634814D01*
X159997203Y-99689999D01*
X160099991Y-99700500D01*
X160725500Y-99700499D01*
X160792539Y-99720183D01*
X160838294Y-99772987D01*
X160849500Y-99824499D01*
X160849500Y-101200397D01*
X160829815Y-101267436D01*
X160781800Y-101310879D01*
X160768389Y-101317712D01*
X160602786Y-101438028D01*
X160458028Y-101582786D01*
X160337715Y-101748386D01*
X160290485Y-101841080D01*
X160242510Y-101891876D01*
X160174689Y-101908671D01*
X160108554Y-101886134D01*
X160069515Y-101841080D01*
X160063860Y-101829981D01*
X160022287Y-101748390D01*
X159970021Y-101676451D01*
X159901971Y-101582786D01*
X159757213Y-101438028D01*
X159591613Y-101317715D01*
X159591612Y-101317714D01*
X159591610Y-101317713D01*
X159520693Y-101281579D01*
X159409223Y-101224781D01*
X159214534Y-101161522D01*
X159039995Y-101133878D01*
X159012352Y-101129500D01*
X158807648Y-101129500D01*
X158783329Y-101133351D01*
X158605465Y-101161522D01*
X158410776Y-101224781D01*
X158228386Y-101317715D01*
X158062786Y-101438028D01*
X157918028Y-101582786D01*
X157797715Y-101748386D01*
X157750485Y-101841080D01*
X157702510Y-101891876D01*
X157634689Y-101908671D01*
X157568554Y-101886134D01*
X157529515Y-101841080D01*
X157523860Y-101829981D01*
X157482287Y-101748390D01*
X157430021Y-101676451D01*
X157361971Y-101582786D01*
X157217213Y-101438028D01*
X157051613Y-101317715D01*
X157051612Y-101317714D01*
X157051610Y-101317713D01*
X156980693Y-101281579D01*
X156869223Y-101224781D01*
X156674534Y-101161522D01*
X156499995Y-101133878D01*
X156472352Y-101129500D01*
X156267648Y-101129500D01*
X156243329Y-101133351D01*
X156065465Y-101161522D01*
X155870776Y-101224781D01*
X155688386Y-101317715D01*
X155522786Y-101438028D01*
X155378028Y-101582786D01*
X155257715Y-101748386D01*
X155164781Y-101930776D01*
X155101522Y-102125465D01*
X155073862Y-102300109D01*
X155069500Y-102327648D01*
X155069500Y-102532352D01*
X155084302Y-102625808D01*
X155101523Y-102734535D01*
X155101523Y-102734538D01*
X155138124Y-102847182D01*
X155140119Y-102917023D01*
X155104039Y-102976856D01*
X155041338Y-103007684D01*
X155020193Y-103009500D01*
X141811519Y-103009500D01*
X141744480Y-102989815D01*
X141723838Y-102973181D01*
X138086818Y-99336161D01*
X138053333Y-99274838D01*
X138050499Y-99248480D01*
X138050499Y-98549998D01*
X138050498Y-98549981D01*
X138039999Y-98447203D01*
X138039998Y-98447200D01*
X137984814Y-98280666D01*
X137892712Y-98131344D01*
X137768656Y-98007288D01*
X137659404Y-97939901D01*
X137619336Y-97915187D01*
X137619331Y-97915185D01*
X137617862Y-97914698D01*
X137452797Y-97860001D01*
X137452795Y-97860000D01*
X137350010Y-97849500D01*
X136549998Y-97849500D01*
X136549980Y-97849501D01*
X136447203Y-97860000D01*
X136447200Y-97860001D01*
X136280668Y-97915185D01*
X136280663Y-97915187D01*
X136131342Y-98007289D01*
X136037681Y-98100951D01*
X135976358Y-98134436D01*
X135906666Y-98129452D01*
X135862319Y-98100951D01*
X135768657Y-98007289D01*
X135768656Y-98007288D01*
X135659402Y-97939900D01*
X135612679Y-97887953D01*
X135600500Y-97834362D01*
X135600500Y-96704067D01*
X135620185Y-96637028D01*
X135668205Y-96593582D01*
X135786433Y-96533343D01*
X135977510Y-96394517D01*
X136144517Y-96227510D01*
X136283343Y-96036433D01*
X136390568Y-95825992D01*
X136463553Y-95601368D01*
X136468111Y-95572591D01*
X136500500Y-95368097D01*
X136500500Y-94531902D01*
X136463553Y-94298631D01*
X136412043Y-94140102D01*
X136390568Y-94074008D01*
X136390566Y-94074005D01*
X136390566Y-94074003D01*
X136322551Y-93940518D01*
X136283343Y-93863567D01*
X136144517Y-93672490D01*
X135977510Y-93505483D01*
X135786433Y-93366657D01*
X135756032Y-93351167D01*
X135575996Y-93259433D01*
X135351368Y-93186446D01*
X135118097Y-93149500D01*
X135118092Y-93149500D01*
X134881908Y-93149500D01*
X134881903Y-93149500D01*
X134648631Y-93186446D01*
X134424003Y-93259433D01*
X134213566Y-93366657D01*
X134082207Y-93462096D01*
X134016400Y-93485576D01*
X133948346Y-93469751D01*
X133899651Y-93419645D01*
X133885776Y-93351167D01*
X133891388Y-93323467D01*
X133963553Y-93101368D01*
X133964399Y-93096026D01*
X134000500Y-92868097D01*
X134000500Y-92031947D01*
X138500000Y-92031947D01*
X138500000Y-92200000D01*
X139500000Y-92200000D01*
X139500000Y-92700000D01*
X138500000Y-92700000D01*
X138500000Y-92868052D01*
X138536934Y-93101247D01*
X138609897Y-93325802D01*
X138717085Y-93536171D01*
X138855866Y-93727186D01*
X139022813Y-93894133D01*
X139213828Y-94032914D01*
X139424195Y-94140102D01*
X139648744Y-94213063D01*
X139648750Y-94213065D01*
X139750000Y-94229101D01*
X139750000Y-93183012D01*
X139807007Y-93215925D01*
X139934174Y-93250000D01*
X140065826Y-93250000D01*
X140192993Y-93215925D01*
X140250000Y-93183012D01*
X140250000Y-94229101D01*
X140351249Y-94213065D01*
X140351255Y-94213063D01*
X140575804Y-94140102D01*
X140786171Y-94032914D01*
X140977186Y-93894133D01*
X141144133Y-93727186D01*
X141282914Y-93536171D01*
X141390102Y-93325802D01*
X141463065Y-93101247D01*
X141500000Y-92868052D01*
X141500000Y-92700000D01*
X140500000Y-92700000D01*
X140500000Y-92200000D01*
X141500000Y-92200000D01*
X141500000Y-92031947D01*
X141463065Y-91798752D01*
X141390102Y-91574197D01*
X141282914Y-91363828D01*
X141144133Y-91172813D01*
X140977186Y-91005866D01*
X140786171Y-90867085D01*
X140575802Y-90759897D01*
X140351247Y-90686934D01*
X140250000Y-90670897D01*
X140250000Y-91716988D01*
X140192993Y-91684075D01*
X140065826Y-91650000D01*
X139934174Y-91650000D01*
X139807007Y-91684075D01*
X139750000Y-91716988D01*
X139750000Y-90670897D01*
X139648752Y-90686934D01*
X139424197Y-90759897D01*
X139213828Y-90867085D01*
X139022813Y-91005866D01*
X138855866Y-91172813D01*
X138717085Y-91363828D01*
X138609897Y-91574197D01*
X138536934Y-91798752D01*
X138500000Y-92031947D01*
X134000500Y-92031947D01*
X134000500Y-92031902D01*
X133963553Y-91798631D01*
X133911286Y-91637771D01*
X133890568Y-91574008D01*
X133890566Y-91574005D01*
X133890566Y-91574003D01*
X133815276Y-91426239D01*
X133783343Y-91363567D01*
X133644517Y-91172490D01*
X133477510Y-91005483D01*
X133286433Y-90866657D01*
X133265294Y-90855886D01*
X133075996Y-90759433D01*
X132851368Y-90686446D01*
X132618097Y-90649500D01*
X132618092Y-90649500D01*
X132381908Y-90649500D01*
X132381903Y-90649500D01*
X132148631Y-90686446D01*
X131924003Y-90759433D01*
X131713566Y-90866657D01*
X131640188Y-90919970D01*
X131522490Y-91005483D01*
X131522488Y-91005485D01*
X131522487Y-91005485D01*
X131355485Y-91172487D01*
X131355485Y-91172488D01*
X131355483Y-91172490D01*
X131323663Y-91216286D01*
X131216657Y-91363566D01*
X131109433Y-91574003D01*
X131036446Y-91798631D01*
X130999500Y-92031902D01*
X130999500Y-92868097D01*
X131036446Y-93101368D01*
X131109433Y-93325996D01*
X131190744Y-93485576D01*
X131216657Y-93536433D01*
X131355483Y-93727510D01*
X131522490Y-93894517D01*
X131713567Y-94033343D01*
X131793367Y-94074003D01*
X131924003Y-94140566D01*
X131924005Y-94140566D01*
X131924008Y-94140568D01*
X132009703Y-94168412D01*
X132148631Y-94213553D01*
X132381903Y-94250500D01*
X132381908Y-94250500D01*
X132618097Y-94250500D01*
X132851368Y-94213553D01*
X132852876Y-94213063D01*
X133075992Y-94140568D01*
X133286433Y-94033343D01*
X133417794Y-93937903D01*
X133483598Y-93914423D01*
X133551652Y-93930248D01*
X133600347Y-93980353D01*
X133614223Y-94048831D01*
X133608609Y-94076539D01*
X133536447Y-94298627D01*
X133536447Y-94298630D01*
X133499500Y-94531902D01*
X133499500Y-95368097D01*
X133536446Y-95601368D01*
X133609433Y-95825996D01*
X133698078Y-95999970D01*
X133716657Y-96036433D01*
X133855483Y-96227510D01*
X134022490Y-96394517D01*
X134165797Y-96498636D01*
X134213568Y-96533344D01*
X134288177Y-96571358D01*
X134331794Y-96593582D01*
X134382590Y-96641556D01*
X134399500Y-96704067D01*
X134399500Y-97786267D01*
X134379815Y-97853306D01*
X134327011Y-97899061D01*
X134314506Y-97903972D01*
X134280671Y-97915184D01*
X134280663Y-97915187D01*
X134131342Y-98007289D01*
X134007289Y-98131342D01*
X133915187Y-98280663D01*
X133915186Y-98280666D01*
X133860001Y-98447203D01*
X133860001Y-98447204D01*
X133860000Y-98447204D01*
X133849500Y-98549983D01*
X133849500Y-99550001D01*
X133849501Y-99550019D01*
X133860000Y-99652796D01*
X133860001Y-99652799D01*
X133915185Y-99819331D01*
X133915187Y-99819336D01*
X133924630Y-99834646D01*
X134007288Y-99968656D01*
X134131344Y-100092712D01*
X134280666Y-100184814D01*
X134447203Y-100239999D01*
X134549991Y-100250500D01*
X135350008Y-100250499D01*
X135350016Y-100250498D01*
X135350019Y-100250498D01*
X135406302Y-100244748D01*
X135452797Y-100239999D01*
X135619334Y-100184814D01*
X135768656Y-100092712D01*
X135862319Y-99999049D01*
X135923642Y-99965564D01*
X135993334Y-99970548D01*
X136037681Y-99999049D01*
X136131344Y-100092712D01*
X136280666Y-100184814D01*
X136447203Y-100239999D01*
X136549991Y-100250500D01*
X136968480Y-100250499D01*
X137035519Y-100270183D01*
X137056161Y-100286818D01*
X139567162Y-102797819D01*
X139600647Y-102859142D01*
X139595663Y-102928834D01*
X139553791Y-102984767D01*
X139488327Y-103009184D01*
X139479481Y-103009500D01*
X136271519Y-103009500D01*
X136204480Y-102989815D01*
X136183838Y-102973181D01*
X132646546Y-99435888D01*
X132646545Y-99435887D01*
X132531807Y-99359222D01*
X132404332Y-99306421D01*
X132404322Y-99306418D01*
X132268996Y-99279500D01*
X132268994Y-99279500D01*
X132268993Y-99279500D01*
X115911602Y-99279500D01*
X115844563Y-99259815D01*
X115798808Y-99207011D01*
X115788864Y-99137853D01*
X115793671Y-99117182D01*
X115816757Y-99046130D01*
X115816757Y-99046127D01*
X115850000Y-98836246D01*
X115850000Y-98623753D01*
X115816757Y-98413872D01*
X115816757Y-98413869D01*
X115751095Y-98211782D01*
X115654624Y-98022449D01*
X115615270Y-97968282D01*
X115615269Y-97968282D01*
X114982962Y-98600589D01*
X114965925Y-98537007D01*
X114900099Y-98422993D01*
X114807007Y-98329901D01*
X114692993Y-98264075D01*
X114629409Y-98247037D01*
X115261716Y-97614728D01*
X115207547Y-97575373D01*
X115207547Y-97575372D01*
X115198500Y-97570763D01*
X115147706Y-97522788D01*
X115130912Y-97454966D01*
X115153451Y-97388832D01*
X115198508Y-97349793D01*
X115207816Y-97345051D01*
X115348675Y-97242712D01*
X115379786Y-97220109D01*
X115379788Y-97220106D01*
X115379792Y-97220104D01*
X115530104Y-97069792D01*
X115530106Y-97069788D01*
X115530109Y-97069786D01*
X115655048Y-96897820D01*
X115655047Y-96897820D01*
X115655051Y-96897816D01*
X115751557Y-96708412D01*
X115817246Y-96506243D01*
X115850500Y-96296287D01*
X115850500Y-96083713D01*
X115817246Y-95873757D01*
X115751557Y-95671588D01*
X115655051Y-95482184D01*
X115655049Y-95482181D01*
X115655048Y-95482179D01*
X115530109Y-95310213D01*
X115379786Y-95159890D01*
X115207820Y-95034951D01*
X115207115Y-95034591D01*
X115199054Y-95030485D01*
X115148259Y-94982512D01*
X115131463Y-94914692D01*
X115153999Y-94848556D01*
X115199054Y-94809515D01*
X115207816Y-94805051D01*
X115238903Y-94782465D01*
X115379786Y-94680109D01*
X115379788Y-94680106D01*
X115379792Y-94680104D01*
X115530104Y-94529792D01*
X115530106Y-94529788D01*
X115530109Y-94529786D01*
X115655048Y-94357820D01*
X115655047Y-94357820D01*
X115655051Y-94357816D01*
X115751557Y-94168412D01*
X115817246Y-93966243D01*
X115850500Y-93756287D01*
X115850500Y-93543713D01*
X115817246Y-93333757D01*
X115751557Y-93131588D01*
X115655051Y-92942184D01*
X115655049Y-92942181D01*
X115655048Y-92942179D01*
X115530109Y-92770213D01*
X115379786Y-92619890D01*
X115207820Y-92494951D01*
X115207115Y-92494591D01*
X115199054Y-92490485D01*
X115148259Y-92442512D01*
X115131463Y-92374692D01*
X115153999Y-92308556D01*
X115199054Y-92269515D01*
X115207816Y-92265051D01*
X115229789Y-92249086D01*
X115379786Y-92140109D01*
X115379788Y-92140106D01*
X115379792Y-92140104D01*
X115530104Y-91989792D01*
X115530106Y-91989788D01*
X115530109Y-91989786D01*
X115655048Y-91817820D01*
X115655047Y-91817820D01*
X115655051Y-91817816D01*
X115751557Y-91628412D01*
X115817246Y-91426243D01*
X115850500Y-91216287D01*
X115850500Y-91003713D01*
X115817246Y-90793757D01*
X115751557Y-90591588D01*
X115655051Y-90402184D01*
X115655049Y-90402181D01*
X115655048Y-90402179D01*
X115530109Y-90230213D01*
X115379786Y-90079890D01*
X115207820Y-89954951D01*
X115207115Y-89954591D01*
X115199054Y-89950485D01*
X115148259Y-89902512D01*
X115131463Y-89834692D01*
X115153999Y-89768556D01*
X115199054Y-89729515D01*
X115207816Y-89725051D01*
X115252330Y-89692710D01*
X115379786Y-89600109D01*
X115379788Y-89600106D01*
X115379792Y-89600104D01*
X115530104Y-89449792D01*
X115530106Y-89449788D01*
X115530109Y-89449786D01*
X115655048Y-89277820D01*
X115655047Y-89277820D01*
X115655051Y-89277816D01*
X115751557Y-89088412D01*
X115817246Y-88886243D01*
X115850500Y-88676287D01*
X115850500Y-88463713D01*
X115817246Y-88253757D01*
X115751557Y-88051588D01*
X115655051Y-87862184D01*
X115655049Y-87862181D01*
X115655048Y-87862179D01*
X115530109Y-87690213D01*
X115416569Y-87576673D01*
X115383084Y-87515350D01*
X115388068Y-87445658D01*
X115429940Y-87389725D01*
X115460915Y-87372810D01*
X115592331Y-87323796D01*
X115707546Y-87237546D01*
X115793796Y-87122331D01*
X115844091Y-86987483D01*
X115850500Y-86927873D01*
X115850499Y-85132128D01*
X115844091Y-85072517D01*
X115842435Y-85068078D01*
X115793797Y-84937671D01*
X115793793Y-84937664D01*
X115707547Y-84822455D01*
X115707544Y-84822452D01*
X115592335Y-84736206D01*
X115592328Y-84736202D01*
X115457482Y-84685908D01*
X115457483Y-84685908D01*
X115397883Y-84679501D01*
X115397881Y-84679500D01*
X115397873Y-84679500D01*
X115397864Y-84679500D01*
X113602129Y-84679500D01*
X113602123Y-84679501D01*
X113542516Y-84685908D01*
X113407671Y-84736202D01*
X113407664Y-84736206D01*
X113292455Y-84822452D01*
X113292452Y-84822455D01*
X113206206Y-84937664D01*
X113206202Y-84937671D01*
X113155908Y-85072517D01*
X113152633Y-85102986D01*
X113149501Y-85132123D01*
X113149500Y-85132135D01*
X113149500Y-86927870D01*
X113149501Y-86927876D01*
X113155908Y-86987483D01*
X113206202Y-87122328D01*
X113206206Y-87122335D01*
X113292452Y-87237544D01*
X113292455Y-87237547D01*
X113407664Y-87323793D01*
X113407671Y-87323797D01*
X113539082Y-87372810D01*
X113595016Y-87414681D01*
X113619433Y-87480145D01*
X113604582Y-87548418D01*
X113583431Y-87576673D01*
X113469889Y-87690215D01*
X113344948Y-87862184D01*
X113344947Y-87862185D01*
X113324765Y-87901795D01*
X113276791Y-87952591D01*
X113214281Y-87969500D01*
X109603792Y-87969500D01*
X109536753Y-87949815D01*
X109490998Y-87897011D01*
X109486087Y-87884507D01*
X109485601Y-87883041D01*
X109484814Y-87880666D01*
X109392712Y-87731344D01*
X109268656Y-87607288D01*
X109159092Y-87539709D01*
X109119336Y-87515187D01*
X109119331Y-87515185D01*
X109117862Y-87514698D01*
X108952797Y-87460001D01*
X108952795Y-87460000D01*
X108850010Y-87449500D01*
X108049998Y-87449500D01*
X108049980Y-87449501D01*
X107947203Y-87460000D01*
X107947200Y-87460001D01*
X107780668Y-87515185D01*
X107780663Y-87515187D01*
X107631342Y-87607289D01*
X107537681Y-87700951D01*
X107476358Y-87734436D01*
X107406666Y-87729452D01*
X107362319Y-87700951D01*
X107268657Y-87607289D01*
X107268656Y-87607288D01*
X107159092Y-87539709D01*
X107119336Y-87515187D01*
X107119331Y-87515185D01*
X107117862Y-87514698D01*
X106952797Y-87460001D01*
X106952795Y-87460000D01*
X106850010Y-87449500D01*
X106049998Y-87449500D01*
X106049980Y-87449501D01*
X105947203Y-87460000D01*
X105947200Y-87460001D01*
X105780668Y-87515185D01*
X105780663Y-87515187D01*
X105631342Y-87607289D01*
X105507289Y-87731342D01*
X105415187Y-87880663D01*
X105415185Y-87880668D01*
X105406734Y-87906172D01*
X105360001Y-88047203D01*
X105360001Y-88047204D01*
X105360000Y-88047204D01*
X105349500Y-88149983D01*
X65500500Y-88149983D01*
X65500500Y-84878711D01*
X66149500Y-84878711D01*
X66149500Y-85121288D01*
X66178887Y-85344514D01*
X66181162Y-85361789D01*
X66182337Y-85366174D01*
X66243947Y-85596104D01*
X66336773Y-85820205D01*
X66336776Y-85820212D01*
X66458064Y-86030289D01*
X66458066Y-86030292D01*
X66458067Y-86030293D01*
X66605733Y-86222736D01*
X66605739Y-86222743D01*
X66777256Y-86394260D01*
X66777263Y-86394266D01*
X66808744Y-86418422D01*
X66969711Y-86541936D01*
X67179788Y-86663224D01*
X67403900Y-86756054D01*
X67638211Y-86818838D01*
X67818586Y-86842584D01*
X67878711Y-86850500D01*
X67878712Y-86850500D01*
X68121289Y-86850500D01*
X68169388Y-86844167D01*
X68361789Y-86818838D01*
X68596100Y-86756054D01*
X68820212Y-86663224D01*
X69030289Y-86541936D01*
X69222738Y-86394265D01*
X69394265Y-86222738D01*
X69541936Y-86030289D01*
X69663224Y-85820212D01*
X69756054Y-85596100D01*
X69818838Y-85361789D01*
X69850500Y-85121288D01*
X69850500Y-84878712D01*
X69818838Y-84638211D01*
X69756054Y-84403900D01*
X69752063Y-84394266D01*
X69681014Y-84222738D01*
X69663224Y-84179788D01*
X69541936Y-83969711D01*
X69459006Y-83861634D01*
X69394266Y-83777263D01*
X69394260Y-83777256D01*
X69222743Y-83605739D01*
X69222736Y-83605733D01*
X69030293Y-83458067D01*
X69030292Y-83458066D01*
X69030289Y-83458064D01*
X68820212Y-83336776D01*
X68820205Y-83336773D01*
X68596104Y-83243947D01*
X68361785Y-83181161D01*
X68121289Y-83149500D01*
X68121288Y-83149500D01*
X67878712Y-83149500D01*
X67878711Y-83149500D01*
X67638214Y-83181161D01*
X67403895Y-83243947D01*
X67179794Y-83336773D01*
X67179785Y-83336777D01*
X66969706Y-83458067D01*
X66777263Y-83605733D01*
X66777256Y-83605739D01*
X66605739Y-83777256D01*
X66605733Y-83777263D01*
X66458067Y-83969706D01*
X66336777Y-84179785D01*
X66336773Y-84179794D01*
X66243947Y-84403895D01*
X66181161Y-84638214D01*
X66149500Y-84878711D01*
X65500500Y-84878711D01*
X65500500Y-83003750D01*
X65500726Y-82996263D01*
X65507837Y-82878711D01*
X75149500Y-82878711D01*
X75149500Y-83121288D01*
X75181161Y-83361785D01*
X75243947Y-83596104D01*
X75318986Y-83777263D01*
X75336776Y-83820212D01*
X75458064Y-84030289D01*
X75458065Y-84030290D01*
X75458067Y-84030293D01*
X75605733Y-84222736D01*
X75605739Y-84222743D01*
X75777256Y-84394260D01*
X75777263Y-84394266D01*
X75830877Y-84435405D01*
X75969711Y-84541936D01*
X76179788Y-84663224D01*
X76403900Y-84756054D01*
X76638211Y-84818838D01*
X76818586Y-84842584D01*
X76878711Y-84850500D01*
X76878712Y-84850500D01*
X77121289Y-84850500D01*
X77169388Y-84844167D01*
X77361789Y-84818838D01*
X77596100Y-84756054D01*
X77820212Y-84663224D01*
X78030289Y-84541936D01*
X78222738Y-84394265D01*
X78394265Y-84222738D01*
X78541936Y-84030289D01*
X78663224Y-83820212D01*
X78756054Y-83596100D01*
X78818838Y-83361789D01*
X78850500Y-83121288D01*
X78850500Y-82878712D01*
X78850500Y-82878711D01*
X109149500Y-82878711D01*
X109149500Y-83121288D01*
X109181161Y-83361785D01*
X109243947Y-83596104D01*
X109318986Y-83777263D01*
X109336776Y-83820212D01*
X109458064Y-84030289D01*
X109458065Y-84030290D01*
X109458067Y-84030293D01*
X109605733Y-84222736D01*
X109605739Y-84222743D01*
X109777256Y-84394260D01*
X109777263Y-84394266D01*
X109830877Y-84435405D01*
X109969711Y-84541936D01*
X110179788Y-84663224D01*
X110403900Y-84756054D01*
X110638211Y-84818838D01*
X110818586Y-84842584D01*
X110878711Y-84850500D01*
X110878712Y-84850500D01*
X111121289Y-84850500D01*
X111169388Y-84844167D01*
X111361789Y-84818838D01*
X111596100Y-84756054D01*
X111820212Y-84663224D01*
X112030289Y-84541936D01*
X112222738Y-84394265D01*
X112394265Y-84222738D01*
X112502332Y-84081902D01*
X118099500Y-84081902D01*
X118099500Y-84318097D01*
X118136446Y-84551368D01*
X118209433Y-84775996D01*
X118292751Y-84939515D01*
X118316657Y-84986433D01*
X118455483Y-85177510D01*
X118622490Y-85344517D01*
X118813567Y-85483343D01*
X118912991Y-85534002D01*
X119024003Y-85590566D01*
X119024005Y-85590566D01*
X119024008Y-85590568D01*
X119144412Y-85629689D01*
X119248631Y-85663553D01*
X119481903Y-85700500D01*
X119481908Y-85700500D01*
X119718097Y-85700500D01*
X119951368Y-85663553D01*
X120175992Y-85590568D01*
X120386433Y-85483343D01*
X120577510Y-85344517D01*
X120744517Y-85177510D01*
X120883343Y-84986433D01*
X120990568Y-84775992D01*
X121063553Y-84551368D01*
X121081920Y-84435405D01*
X121100500Y-84318097D01*
X121100500Y-84081902D01*
X121063553Y-83848631D01*
X120990566Y-83624003D01*
X120934002Y-83512991D01*
X120883343Y-83413567D01*
X120744517Y-83222490D01*
X120577510Y-83055483D01*
X120386433Y-82916657D01*
X120311960Y-82878711D01*
X120175996Y-82809433D01*
X119951368Y-82736446D01*
X119718097Y-82699500D01*
X119718092Y-82699500D01*
X119481908Y-82699500D01*
X119481903Y-82699500D01*
X119248631Y-82736446D01*
X119024003Y-82809433D01*
X118813566Y-82916657D01*
X118704550Y-82995862D01*
X118622490Y-83055483D01*
X118622488Y-83055485D01*
X118622487Y-83055485D01*
X118455485Y-83222487D01*
X118455485Y-83222488D01*
X118455483Y-83222490D01*
X118404347Y-83292872D01*
X118316657Y-83413566D01*
X118209433Y-83624003D01*
X118136446Y-83848631D01*
X118099500Y-84081902D01*
X112502332Y-84081902D01*
X112541936Y-84030289D01*
X112663224Y-83820212D01*
X112756054Y-83596100D01*
X112818838Y-83361789D01*
X112850500Y-83121288D01*
X112850500Y-82878712D01*
X112818838Y-82638211D01*
X112756054Y-82403900D01*
X112721342Y-82320097D01*
X132999500Y-82320097D01*
X132999500Y-82579902D01*
X133040140Y-82836493D01*
X133120422Y-83083576D01*
X133193507Y-83227011D01*
X133238366Y-83315051D01*
X133391069Y-83525229D01*
X133574771Y-83708931D01*
X133784949Y-83861634D01*
X133932445Y-83936787D01*
X134016423Y-83979577D01*
X134016425Y-83979577D01*
X134016428Y-83979579D01*
X134263507Y-84059860D01*
X134395706Y-84080797D01*
X134520098Y-84100500D01*
X134520103Y-84100500D01*
X135479902Y-84100500D01*
X135593298Y-84082539D01*
X135736493Y-84059860D01*
X135983572Y-83979579D01*
X136193706Y-83872509D01*
X136262374Y-83859614D01*
X136306293Y-83872509D01*
X136392605Y-83916487D01*
X136516423Y-83979577D01*
X136516425Y-83979577D01*
X136516428Y-83979579D01*
X136763507Y-84059860D01*
X136895706Y-84080797D01*
X137020098Y-84100500D01*
X137020103Y-84100500D01*
X137979902Y-84100500D01*
X138093298Y-84082539D01*
X138236493Y-84059860D01*
X138483572Y-83979579D01*
X138715051Y-83861634D01*
X138925229Y-83708931D01*
X139108931Y-83525229D01*
X139261634Y-83315051D01*
X139379579Y-83083572D01*
X139459860Y-82836493D01*
X139491264Y-82638214D01*
X139500500Y-82579902D01*
X139500500Y-82320097D01*
X140499500Y-82320097D01*
X140499500Y-82579902D01*
X140540140Y-82836493D01*
X140620422Y-83083576D01*
X140693507Y-83227011D01*
X140738366Y-83315051D01*
X140891069Y-83525229D01*
X141074771Y-83708931D01*
X141284949Y-83861634D01*
X141432445Y-83936787D01*
X141516423Y-83979577D01*
X141516425Y-83979577D01*
X141516428Y-83979579D01*
X141763507Y-84059860D01*
X141895706Y-84080797D01*
X142020098Y-84100500D01*
X142020103Y-84100500D01*
X142979902Y-84100500D01*
X143093298Y-84082539D01*
X143236493Y-84059860D01*
X143483572Y-83979579D01*
X143693706Y-83872509D01*
X143762374Y-83859614D01*
X143806293Y-83872509D01*
X143892605Y-83916487D01*
X144016423Y-83979577D01*
X144016425Y-83979577D01*
X144016428Y-83979579D01*
X144263507Y-84059860D01*
X144395706Y-84080797D01*
X144520098Y-84100500D01*
X144520103Y-84100500D01*
X145479902Y-84100500D01*
X145593298Y-84082539D01*
X145736493Y-84059860D01*
X145983572Y-83979579D01*
X146215051Y-83861634D01*
X146425229Y-83708931D01*
X146608931Y-83525229D01*
X146761634Y-83315051D01*
X146879579Y-83083572D01*
X146959860Y-82836493D01*
X146991264Y-82638214D01*
X147000500Y-82579902D01*
X147000500Y-82320097D01*
X146966720Y-82106823D01*
X146959860Y-82063507D01*
X146879579Y-81816428D01*
X146879577Y-81816425D01*
X146879577Y-81816423D01*
X146836787Y-81732445D01*
X146761634Y-81584949D01*
X146608931Y-81374771D01*
X146425229Y-81191069D01*
X146249999Y-81063757D01*
X146215054Y-81038368D01*
X146215053Y-81038367D01*
X146215051Y-81038366D01*
X146142764Y-81001534D01*
X145983576Y-80920422D01*
X145736493Y-80840140D01*
X145479902Y-80799500D01*
X145479897Y-80799500D01*
X144520103Y-80799500D01*
X144520098Y-80799500D01*
X144263506Y-80840140D01*
X144016423Y-80920422D01*
X143847870Y-81006305D01*
X143806293Y-81027490D01*
X143737626Y-81040386D01*
X143693706Y-81027490D01*
X143637209Y-80998703D01*
X143483576Y-80920422D01*
X143236493Y-80840140D01*
X142979902Y-80799500D01*
X142979897Y-80799500D01*
X142020103Y-80799500D01*
X142020098Y-80799500D01*
X141763506Y-80840140D01*
X141516423Y-80920422D01*
X141284945Y-81038368D01*
X141074774Y-81191066D01*
X141074768Y-81191071D01*
X140891071Y-81374768D01*
X140891066Y-81374774D01*
X140738368Y-81584945D01*
X140620422Y-81816423D01*
X140540140Y-82063506D01*
X140499500Y-82320097D01*
X139500500Y-82320097D01*
X139466720Y-82106823D01*
X139459860Y-82063507D01*
X139379579Y-81816428D01*
X139379577Y-81816425D01*
X139379577Y-81816423D01*
X139336787Y-81732445D01*
X139261634Y-81584949D01*
X139108931Y-81374771D01*
X138925229Y-81191069D01*
X138749999Y-81063757D01*
X138715054Y-81038368D01*
X138715053Y-81038367D01*
X138715051Y-81038366D01*
X138642764Y-81001534D01*
X138483576Y-80920422D01*
X138236493Y-80840140D01*
X137979902Y-80799500D01*
X137979897Y-80799500D01*
X137020103Y-80799500D01*
X137020098Y-80799500D01*
X136763506Y-80840140D01*
X136516423Y-80920422D01*
X136347870Y-81006305D01*
X136306293Y-81027490D01*
X136237626Y-81040386D01*
X136193706Y-81027490D01*
X136137209Y-80998703D01*
X135983576Y-80920422D01*
X135736493Y-80840140D01*
X135479902Y-80799500D01*
X135479897Y-80799500D01*
X134520103Y-80799500D01*
X134520098Y-80799500D01*
X134263506Y-80840140D01*
X134016423Y-80920422D01*
X133784945Y-81038368D01*
X133574774Y-81191066D01*
X133574768Y-81191071D01*
X133391071Y-81374768D01*
X133391066Y-81374774D01*
X133238368Y-81584945D01*
X133120422Y-81816423D01*
X133040140Y-82063506D01*
X132999500Y-82320097D01*
X112721342Y-82320097D01*
X112663224Y-82179788D01*
X112541936Y-81969711D01*
X112481018Y-81890321D01*
X112394266Y-81777263D01*
X112394260Y-81777256D01*
X112222743Y-81605739D01*
X112222736Y-81605733D01*
X112030293Y-81458067D01*
X112030292Y-81458066D01*
X112030289Y-81458064D01*
X111858661Y-81358974D01*
X111820214Y-81336777D01*
X111820205Y-81336773D01*
X111596104Y-81243947D01*
X111425424Y-81198213D01*
X111361789Y-81181162D01*
X111361788Y-81181161D01*
X111361785Y-81181161D01*
X111121289Y-81149500D01*
X111121288Y-81149500D01*
X110878712Y-81149500D01*
X110878711Y-81149500D01*
X110638214Y-81181161D01*
X110403895Y-81243947D01*
X110179794Y-81336773D01*
X110179785Y-81336777D01*
X109969706Y-81458067D01*
X109777263Y-81605733D01*
X109777256Y-81605739D01*
X109605739Y-81777256D01*
X109605733Y-81777263D01*
X109458067Y-81969706D01*
X109336777Y-82179785D01*
X109336773Y-82179794D01*
X109243947Y-82403895D01*
X109181161Y-82638214D01*
X109149500Y-82878711D01*
X78850500Y-82878711D01*
X78818838Y-82638211D01*
X78756054Y-82403900D01*
X78663224Y-82179788D01*
X78541936Y-81969711D01*
X78481018Y-81890321D01*
X78394266Y-81777263D01*
X78394260Y-81777256D01*
X78222743Y-81605739D01*
X78222736Y-81605733D01*
X78030293Y-81458067D01*
X78030292Y-81458066D01*
X78030289Y-81458064D01*
X77858661Y-81358974D01*
X77820214Y-81336777D01*
X77820205Y-81336773D01*
X77596104Y-81243947D01*
X77425424Y-81198213D01*
X77361789Y-81181162D01*
X77361788Y-81181161D01*
X77361785Y-81181161D01*
X77121289Y-81149500D01*
X77121288Y-81149500D01*
X76878712Y-81149500D01*
X76878711Y-81149500D01*
X76638214Y-81181161D01*
X76403895Y-81243947D01*
X76179794Y-81336773D01*
X76179785Y-81336777D01*
X75969706Y-81458067D01*
X75777263Y-81605733D01*
X75777256Y-81605739D01*
X75605739Y-81777256D01*
X75605733Y-81777263D01*
X75458067Y-81969706D01*
X75336777Y-82179785D01*
X75336773Y-82179794D01*
X75243947Y-82403895D01*
X75181161Y-82638214D01*
X75149500Y-82878711D01*
X65507837Y-82878711D01*
X65508535Y-82867166D01*
X65518271Y-82706205D01*
X65520076Y-82691340D01*
X65523538Y-82672452D01*
X65571780Y-82409198D01*
X65575364Y-82394664D01*
X65660699Y-82120812D01*
X65665997Y-82106842D01*
X65783727Y-81845258D01*
X65790680Y-81832012D01*
X65927468Y-81605735D01*
X65939075Y-81586534D01*
X65947567Y-81574230D01*
X66124481Y-81348417D01*
X66134396Y-81337226D01*
X66337226Y-81134396D01*
X66348417Y-81124481D01*
X66574230Y-80947567D01*
X66586534Y-80939075D01*
X66832012Y-80790680D01*
X66845258Y-80783727D01*
X67106842Y-80665997D01*
X67120812Y-80660699D01*
X67394668Y-80575362D01*
X67409198Y-80571780D01*
X67691344Y-80520075D01*
X67706201Y-80518271D01*
X67996264Y-80500726D01*
X68003751Y-80500500D01*
X68065892Y-80500500D01*
X231934108Y-80500500D01*
X231996249Y-80500500D01*
X232003736Y-80500726D01*
G37*
%TD.AperFunction*%
%TD*%
M02*
