M48
; DRILL file KiCad 10.0.3 date 2026-05-29T12:22:44
; FORMAT={-:-/ absolute / metric / decimal}
; #@! TF.CreationDate,2026-05-29T12:22:44+03:00
; #@! TF.GenerationSoftware,Kicad,Pcbnew,10.0.3
; #@! TF.FileFunction,MixedPlating,1,2
FMAT,2
METRIC
; #@! TA.AperFunction,Plated,PTH,ViaDrill
T1C0.300
; #@! TA.AperFunction,Plated,PTH,ComponentDrill
T2C0.750
; #@! TA.AperFunction,Plated,PTH,ComponentDrill
T3C0.800
; #@! TA.AperFunction,Plated,PTH,ComponentDrill
T4C1.000
; #@! TA.AperFunction,NonPlated,NPTH,ComponentDrill
T5C2.500
; #@! TA.AperFunction,NonPlated,NPTH,ComponentDrill
T6C3.200
%
G90
G05
T1
X108.5Y-92.06
X108.71Y-85.96
X109.31Y-98.25
X110.27Y-101.09
X110.32Y-104.83
X111.42Y-107.52
X111.47Y-110.88
X111.62Y-90.04
X111.78Y-86.58
X111.86Y-102.67
X112.43Y-94.7
X117.52Y-112.71
X119.78Y-94.57
X120.55Y-110.45
X125.24Y-85.74
X127.12Y-94.62
X131.85Y-115.46
X133.84Y-108.71
X135.32Y-118.73
X136.27Y-92.09
X136.42Y-108.98
X136.85Y-104.84
X137.62Y-110.76
X138.84Y-115.71
X140.04Y-98.91
X142.21Y-110.38
X144.12Y-108.15
X144.19Y-114.21
X145.53Y-118.68
X145.75Y-104.92
X147.73Y-85.64
X148.13Y-108.05
X148.22Y-110.05
X148.94Y-111.23
X150.67Y-114.25
X152.13Y-105.02
X161.64Y-108.12
X164.28Y-90.03
X167.61Y-114.54
X169.02Y-94.05
X170.58Y-96.37
X172.82Y-114.54
X174.4Y-92.82
X174.4Y-97.72
X175.36Y-101.57
X175.36Y-104.85
X176.79Y-110.28
X178.18Y-115.95
X179.48Y-100.89
X179.93Y-109.29
X180.35Y-105.92
X180.57Y-114.16
X182.51Y-111.27
X184.07Y-96.3
X184.36Y-101.91
X185.41Y-109.79
X190.9Y-94.25
X191.03Y-102.68
X192.68Y-98.36
X195.9Y-94.38
X202.9Y-94.25
T2
X126.21Y-115.25
X128.21Y-115.25
X155.15Y-115.66
X157.15Y-115.66
X159.15Y-115.66
X161.15Y-115.66
X163.15Y-115.66
T3
X156.37Y-102.43
X156.37Y-110.05
X158.91Y-102.43
X158.91Y-110.05
X161.45Y-102.43
X161.45Y-110.05
X163.99Y-102.43
X163.99Y-110.05
X172.43Y-83.78
X172.43Y-86.32
X172.43Y-88.86
X172.43Y-91.4
X172.43Y-93.94
X172.43Y-96.48
X172.43Y-99.02
X172.43Y-101.56
X172.43Y-104.1
X172.43Y-106.64
X172.43Y-109.18
X172.43Y-111.72
X187.67Y-83.78
X187.67Y-86.32
X187.67Y-88.86
X187.67Y-91.4
X187.67Y-93.94
X187.67Y-96.48
X187.67Y-99.02
X187.67Y-101.56
X187.67Y-104.1
X187.67Y-106.64
X187.67Y-109.18
X187.67Y-111.72
T4
X114.5Y-86.03
X114.5Y-88.57
X114.5Y-91.11
X114.5Y-93.65
X114.5Y-96.19
X114.5Y-98.73
X114.5Y-101.27
X114.5Y-103.81
X114.5Y-106.35
X114.5Y-108.89
X114.5Y-111.43
X114.5Y-113.97
X200.0Y-96.19
X200.0Y-98.73
X200.0Y-101.27
X200.0Y-103.81
T5
X119.6Y-84.2
X119.6Y-115.2
X194.6Y-84.2
X194.6Y-115.2
T6
X68.0Y-85.0
X68.0Y-115.0
X77.0Y-83.0
X77.0Y-117.0
X111.0Y-83.0
X111.0Y-117.0
X201.0Y-83.0
X201.0Y-117.0
X225.0Y-83.0
X225.0Y-117.0
X232.0Y-85.0
X232.0Y-115.0
T3
G00X134.65Y-82.45
M15
G01X135.35Y-82.45
M16
G05
G00X137.15Y-82.45
M15
G01X137.85Y-82.45
M16
G05
G00X142.15Y-82.45
M15
G01X142.85Y-82.45
M16
G05
G00X144.65Y-82.45
M15
G01X145.35Y-82.45
M16
G05
G00X154.65Y-82.45
M15
G01X155.35Y-82.45
M16
G05
G00X157.15Y-82.45
M15
G01X157.85Y-82.45
M16
G05
G00X162.15Y-82.45
M15
G01X162.85Y-82.45
M16
G05
G00X164.65Y-82.45
M15
G01X165.35Y-82.45
M16
G05
T4
G00X132.5Y-92.15
M15
G01X132.5Y-92.75
M16
G05
G00X135.0Y-94.65
M15
G01X135.0Y-95.25
M16
G05
G00X140.0Y-92.15
M15
G01X140.0Y-92.75
M16
G05
G00X145.0Y-94.65
M15
G01X145.0Y-95.25
M16
G05
G00X147.5Y-92.15
M15
G01X147.5Y-92.75
M16
G05
G00X152.5Y-92.15
M15
G01X152.5Y-92.75
M16
G05
G00X155.0Y-94.65
M15
G01X155.0Y-95.25
M16
G05
G00X160.0Y-92.15
M15
G01X160.0Y-92.75
M16
G05
G00X165.0Y-94.65
M15
G01X165.0Y-95.25
M16
G05
G00X167.5Y-92.15
M15
G01X167.5Y-92.75
M16
G05
M30
