%TF.GenerationSoftware,KiCad,Pcbnew,10.0.3*%
%TF.CreationDate,2026-05-29T12:22:11+03:00*%
%TF.ProjectId,midi_pro_micro,6d696469-5f70-4726-9f5f-6d6963726f2e,rev?*%
%TF.SameCoordinates,Original*%
%TF.FileFunction,Soldermask,Top*%
%TF.FilePolarity,Negative*%
%FSLAX46Y46*%
G04 Gerber Fmt 4.6, Leading zero omitted, Abs format (unit mm)*
G04 Created by KiCad (PCBNEW 10.0.3) date 2026-05-29 12:22:11*
%MOMM*%
%LPD*%
G01*
G04 APERTURE LIST*
G04 Aperture macros list*
%AMRoundRect*
0 Rectangle with rounded corners*
0 $1 Rounding radius*
0 $2 $3 $4 $5 $6 $7 $8 $9 X,Y pos of 4 corners*
0 Add a 4 corners polygon primitive as box body*
4,1,4,$2,$3,$4,$5,$6,$7,$8,$9,$2,$3,0*
0 Add four circle primitives for the rounded corners*
1,1,$1+$1,$2,$3*
1,1,$1+$1,$4,$5*
1,1,$1+$1,$6,$7*
1,1,$1+$1,$8,$9*
0 Add four rect primitives between the rounded corners*
20,1,$1+$1,$2,$3,$4,$5,0*
20,1,$1+$1,$4,$5,$6,$7,0*
20,1,$1+$1,$6,$7,$8,$9,0*
20,1,$1+$1,$8,$9,$2,$3,0*%
G04 Aperture macros list end*
%ADD10RoundRect,0.250000X-0.450000X0.350000X-0.450000X-0.350000X0.450000X-0.350000X0.450000X0.350000X0*%
%ADD11RoundRect,0.250000X0.350000X0.450000X-0.350000X0.450000X-0.350000X-0.450000X0.350000X-0.450000X0*%
%ADD12RoundRect,0.250000X-0.350000X-0.450000X0.350000X-0.450000X0.350000X0.450000X-0.350000X0.450000X0*%
%ADD13R,1.500000X1.500000*%
%ADD14C,1.500000*%
%ADD15RoundRect,0.250000X-0.350000X-0.625000X0.350000X-0.625000X0.350000X0.625000X-0.350000X0.625000X0*%
%ADD16O,1.200000X1.750000*%
%ADD17RoundRect,0.250000X-0.250000X-0.250000X0.250000X-0.250000X0.250000X0.250000X-0.250000X0.250000X0*%
%ADD18RoundRect,0.250000X-0.550000X0.550000X-0.550000X-0.550000X0.550000X-0.550000X0.550000X0.550000X0*%
%ADD19C,1.600000*%
%ADD20C,3.200000*%
%ADD21R,1.700000X1.700000*%
%ADD22C,1.700000*%
%ADD23C,2.500000*%
%ADD24O,3.000000X2.300000*%
%ADD25O,2.000000X2.600000*%
%ADD26RoundRect,0.250000X-0.250000X-0.475000X0.250000X-0.475000X0.250000X0.475000X-0.250000X0.475000X0*%
%ADD27RoundRect,0.150000X-0.725000X-0.150000X0.725000X-0.150000X0.725000X0.150000X-0.725000X0.150000X0*%
G04 APERTURE END LIST*
D10*
%TO.C,R12*%
X131490000Y-109420000D03*
X131490000Y-111420000D03*
%TD*%
%TO.C,R13*%
X145880000Y-109330000D03*
X145880000Y-111330000D03*
%TD*%
D11*
%TO.C,R16*%
X207450000Y-96200000D03*
X205450000Y-96200000D03*
%TD*%
D12*
%TO.C,R5*%
X134950000Y-99050000D03*
X136950000Y-99050000D03*
%TD*%
%TO.C,R8*%
X106550000Y-96200000D03*
X108550000Y-96200000D03*
%TD*%
D13*
%TO.C,U1*%
X172430000Y-83780000D03*
D14*
X172430000Y-86320000D03*
X172430000Y-88860000D03*
X172430000Y-91400000D03*
X172430000Y-93940000D03*
X172430000Y-96480000D03*
X172430000Y-99020000D03*
X172430000Y-101560000D03*
X172430000Y-104100000D03*
X172430000Y-106640000D03*
X172430000Y-109180000D03*
X172430000Y-111720000D03*
X187670000Y-111720000D03*
X187670000Y-109180000D03*
X187670000Y-106640000D03*
X187670000Y-104100000D03*
X187670000Y-101560000D03*
X187670000Y-99020000D03*
X187670000Y-96480000D03*
X187670000Y-93940000D03*
X187670000Y-91400000D03*
X187670000Y-88860000D03*
X187670000Y-86320000D03*
X187670000Y-83780000D03*
%TD*%
D12*
%TO.C,R17*%
X167000000Y-110000000D03*
X169000000Y-110000000D03*
%TD*%
%TO.C,R10*%
X106600000Y-103800000D03*
X108600000Y-103800000D03*
%TD*%
D15*
%TO.C,J7*%
X126210000Y-115250000D03*
D16*
X128210000Y-115250000D03*
%TD*%
D17*
%TO.C,D1*%
X164320000Y-98475000D03*
X166820000Y-98475000D03*
%TD*%
D18*
%TO.C,U3*%
X163990000Y-102430000D03*
D19*
X161450000Y-102430000D03*
X158910000Y-102430000D03*
X156370000Y-102430000D03*
X156370000Y-110050000D03*
X158910000Y-110050000D03*
X161450000Y-110050000D03*
X163990000Y-110050000D03*
%TD*%
D20*
%TO.C,J6*%
X201000000Y-83000000D03*
X201000000Y-117000000D03*
X225000000Y-83000000D03*
X225000000Y-117000000D03*
D21*
X200000000Y-96190000D03*
D22*
X200000000Y-98730000D03*
X200000000Y-101270000D03*
X200000000Y-103810000D03*
%TD*%
D20*
%TO.C,H4*%
X232000000Y-115000000D03*
%TD*%
%TO.C,J3*%
X77000000Y-83000000D03*
X77000000Y-117000000D03*
X111000000Y-83000000D03*
X111000000Y-117000000D03*
D21*
X114500000Y-86030000D03*
D22*
X114500000Y-88570000D03*
X114500000Y-91110000D03*
X114500000Y-93650000D03*
X114500000Y-96190000D03*
X114500000Y-98730000D03*
X114500000Y-101270000D03*
X114500000Y-103810000D03*
X114500000Y-106350000D03*
X114500000Y-108890000D03*
X114500000Y-111430000D03*
X114500000Y-113970000D03*
%TD*%
D11*
%TO.C,R18*%
X152910000Y-110390000D03*
X150910000Y-110390000D03*
%TD*%
D12*
%TO.C,R3*%
X158500000Y-98500000D03*
X160500000Y-98500000D03*
%TD*%
D11*
%TO.C,R14*%
X207450000Y-98750000D03*
X205450000Y-98750000D03*
%TD*%
D15*
%TO.C,J5*%
X155150000Y-115660000D03*
D16*
X157150000Y-115660000D03*
X159150000Y-115660000D03*
X161150000Y-115660000D03*
X163150000Y-115660000D03*
%TD*%
D11*
%TO.C,R15*%
X207450000Y-101300000D03*
X205450000Y-101300000D03*
%TD*%
D12*
%TO.C,R4*%
X142950000Y-99050000D03*
X144950000Y-99050000D03*
%TD*%
%TO.C,R6*%
X106450000Y-88650000D03*
X108450000Y-88650000D03*
%TD*%
D20*
%TO.C,H1*%
X68000000Y-85000000D03*
%TD*%
%TO.C,H2*%
X68000000Y-115000000D03*
%TD*%
D12*
%TO.C,R19*%
X106650000Y-108900000D03*
X108650000Y-108900000D03*
%TD*%
D23*
%TO.C,H11*%
X119600000Y-84200000D03*
X119600000Y-115200000D03*
X194600000Y-84200000D03*
X194600000Y-115200000D03*
%TD*%
D24*
%TO.C,J2*%
X135000000Y-82450000D03*
X137500000Y-82450000D03*
X142500000Y-82450000D03*
X145000000Y-82450000D03*
D25*
X132500000Y-92450000D03*
X140000000Y-92450000D03*
X147500000Y-92450000D03*
X135000000Y-94950000D03*
X145000000Y-94950000D03*
%TD*%
D24*
%TO.C,J1*%
X155000000Y-82450000D03*
X157500000Y-82450000D03*
X162500000Y-82450000D03*
X165000000Y-82450000D03*
D25*
X152500000Y-92450000D03*
X160000000Y-92450000D03*
X167500000Y-92450000D03*
X155000000Y-94950000D03*
X165000000Y-94950000D03*
%TD*%
D20*
%TO.C,H3*%
X232000000Y-85000000D03*
%TD*%
D26*
%TO.C,C11*%
X140280000Y-107580000D03*
X142180000Y-107580000D03*
%TD*%
D27*
%TO.C,U2*%
X135080000Y-110370000D03*
X135080000Y-111640000D03*
X135080000Y-112910000D03*
X135080000Y-114180000D03*
X140230000Y-114180000D03*
X140230000Y-112910000D03*
X140230000Y-111640000D03*
X140230000Y-110370000D03*
%TD*%
M02*
