%TF.GenerationSoftware,KiCad,Pcbnew,10.0.3*%
%TF.CreationDate,2026-05-29T12:22:11+03:00*%
%TF.ProjectId,midi_pro_micro,6d696469-5f70-4726-9f5f-6d6963726f2e,rev?*%
%TF.SameCoordinates,Original*%
%TF.FileFunction,Legend,Top*%
%TF.FilePolarity,Positive*%
%FSLAX46Y46*%
G04 Gerber Fmt 4.6, Leading zero omitted, Abs format (unit mm)*
G04 Created by KiCad (PCBNEW 10.0.3) date 2026-05-29 12:22:11*
%MOMM*%
%LPD*%
G01*
G04 APERTURE LIST*
%ADD10C,0.150000*%
%ADD11C,0.120000*%
%ADD12C,0.100000*%
G04 APERTURE END LIST*
D10*
X133594819Y-111062857D02*
X133118628Y-111396190D01*
X133594819Y-111634285D02*
X132594819Y-111634285D01*
X132594819Y-111634285D02*
X132594819Y-111253333D01*
X132594819Y-111253333D02*
X132642438Y-111158095D01*
X132642438Y-111158095D02*
X132690057Y-111110476D01*
X132690057Y-111110476D02*
X132785295Y-111062857D01*
X132785295Y-111062857D02*
X132928152Y-111062857D01*
X132928152Y-111062857D02*
X133023390Y-111110476D01*
X133023390Y-111110476D02*
X133071009Y-111158095D01*
X133071009Y-111158095D02*
X133118628Y-111253333D01*
X133118628Y-111253333D02*
X133118628Y-111634285D01*
X133594819Y-110110476D02*
X133594819Y-110681904D01*
X133594819Y-110396190D02*
X132594819Y-110396190D01*
X132594819Y-110396190D02*
X132737676Y-110491428D01*
X132737676Y-110491428D02*
X132832914Y-110586666D01*
X132832914Y-110586666D02*
X132880533Y-110681904D01*
X132690057Y-109729523D02*
X132642438Y-109681904D01*
X132642438Y-109681904D02*
X132594819Y-109586666D01*
X132594819Y-109586666D02*
X132594819Y-109348571D01*
X132594819Y-109348571D02*
X132642438Y-109253333D01*
X132642438Y-109253333D02*
X132690057Y-109205714D01*
X132690057Y-109205714D02*
X132785295Y-109158095D01*
X132785295Y-109158095D02*
X132880533Y-109158095D01*
X132880533Y-109158095D02*
X133023390Y-109205714D01*
X133023390Y-109205714D02*
X133594819Y-109777142D01*
X133594819Y-109777142D02*
X133594819Y-109158095D01*
X147984819Y-110972857D02*
X147508628Y-111306190D01*
X147984819Y-111544285D02*
X146984819Y-111544285D01*
X146984819Y-111544285D02*
X146984819Y-111163333D01*
X146984819Y-111163333D02*
X147032438Y-111068095D01*
X147032438Y-111068095D02*
X147080057Y-111020476D01*
X147080057Y-111020476D02*
X147175295Y-110972857D01*
X147175295Y-110972857D02*
X147318152Y-110972857D01*
X147318152Y-110972857D02*
X147413390Y-111020476D01*
X147413390Y-111020476D02*
X147461009Y-111068095D01*
X147461009Y-111068095D02*
X147508628Y-111163333D01*
X147508628Y-111163333D02*
X147508628Y-111544285D01*
X147984819Y-110020476D02*
X147984819Y-110591904D01*
X147984819Y-110306190D02*
X146984819Y-110306190D01*
X146984819Y-110306190D02*
X147127676Y-110401428D01*
X147127676Y-110401428D02*
X147222914Y-110496666D01*
X147222914Y-110496666D02*
X147270533Y-110591904D01*
X146984819Y-109687142D02*
X146984819Y-109068095D01*
X146984819Y-109068095D02*
X147365771Y-109401428D01*
X147365771Y-109401428D02*
X147365771Y-109258571D01*
X147365771Y-109258571D02*
X147413390Y-109163333D01*
X147413390Y-109163333D02*
X147461009Y-109115714D01*
X147461009Y-109115714D02*
X147556247Y-109068095D01*
X147556247Y-109068095D02*
X147794342Y-109068095D01*
X147794342Y-109068095D02*
X147889580Y-109115714D01*
X147889580Y-109115714D02*
X147937200Y-109163333D01*
X147937200Y-109163333D02*
X147984819Y-109258571D01*
X147984819Y-109258571D02*
X147984819Y-109544285D01*
X147984819Y-109544285D02*
X147937200Y-109639523D01*
X147937200Y-109639523D02*
X147889580Y-109687142D01*
X209657142Y-96654819D02*
X209323809Y-96178628D01*
X209085714Y-96654819D02*
X209085714Y-95654819D01*
X209085714Y-95654819D02*
X209466666Y-95654819D01*
X209466666Y-95654819D02*
X209561904Y-95702438D01*
X209561904Y-95702438D02*
X209609523Y-95750057D01*
X209609523Y-95750057D02*
X209657142Y-95845295D01*
X209657142Y-95845295D02*
X209657142Y-95988152D01*
X209657142Y-95988152D02*
X209609523Y-96083390D01*
X209609523Y-96083390D02*
X209561904Y-96131009D01*
X209561904Y-96131009D02*
X209466666Y-96178628D01*
X209466666Y-96178628D02*
X209085714Y-96178628D01*
X210609523Y-96654819D02*
X210038095Y-96654819D01*
X210323809Y-96654819D02*
X210323809Y-95654819D01*
X210323809Y-95654819D02*
X210228571Y-95797676D01*
X210228571Y-95797676D02*
X210133333Y-95892914D01*
X210133333Y-95892914D02*
X210038095Y-95940533D01*
X211466666Y-95654819D02*
X211276190Y-95654819D01*
X211276190Y-95654819D02*
X211180952Y-95702438D01*
X211180952Y-95702438D02*
X211133333Y-95750057D01*
X211133333Y-95750057D02*
X211038095Y-95892914D01*
X211038095Y-95892914D02*
X210990476Y-96083390D01*
X210990476Y-96083390D02*
X210990476Y-96464342D01*
X210990476Y-96464342D02*
X211038095Y-96559580D01*
X211038095Y-96559580D02*
X211085714Y-96607200D01*
X211085714Y-96607200D02*
X211180952Y-96654819D01*
X211180952Y-96654819D02*
X211371428Y-96654819D01*
X211371428Y-96654819D02*
X211466666Y-96607200D01*
X211466666Y-96607200D02*
X211514285Y-96559580D01*
X211514285Y-96559580D02*
X211561904Y-96464342D01*
X211561904Y-96464342D02*
X211561904Y-96226247D01*
X211561904Y-96226247D02*
X211514285Y-96131009D01*
X211514285Y-96131009D02*
X211466666Y-96083390D01*
X211466666Y-96083390D02*
X211371428Y-96035771D01*
X211371428Y-96035771D02*
X211180952Y-96035771D01*
X211180952Y-96035771D02*
X211085714Y-96083390D01*
X211085714Y-96083390D02*
X211038095Y-96131009D01*
X211038095Y-96131009D02*
X210990476Y-96226247D01*
X135783333Y-97854819D02*
X135450000Y-97378628D01*
X135211905Y-97854819D02*
X135211905Y-96854819D01*
X135211905Y-96854819D02*
X135592857Y-96854819D01*
X135592857Y-96854819D02*
X135688095Y-96902438D01*
X135688095Y-96902438D02*
X135735714Y-96950057D01*
X135735714Y-96950057D02*
X135783333Y-97045295D01*
X135783333Y-97045295D02*
X135783333Y-97188152D01*
X135783333Y-97188152D02*
X135735714Y-97283390D01*
X135735714Y-97283390D02*
X135688095Y-97331009D01*
X135688095Y-97331009D02*
X135592857Y-97378628D01*
X135592857Y-97378628D02*
X135211905Y-97378628D01*
X136688095Y-96854819D02*
X136211905Y-96854819D01*
X136211905Y-96854819D02*
X136164286Y-97331009D01*
X136164286Y-97331009D02*
X136211905Y-97283390D01*
X136211905Y-97283390D02*
X136307143Y-97235771D01*
X136307143Y-97235771D02*
X136545238Y-97235771D01*
X136545238Y-97235771D02*
X136640476Y-97283390D01*
X136640476Y-97283390D02*
X136688095Y-97331009D01*
X136688095Y-97331009D02*
X136735714Y-97426247D01*
X136735714Y-97426247D02*
X136735714Y-97664342D01*
X136735714Y-97664342D02*
X136688095Y-97759580D01*
X136688095Y-97759580D02*
X136640476Y-97807200D01*
X136640476Y-97807200D02*
X136545238Y-97854819D01*
X136545238Y-97854819D02*
X136307143Y-97854819D01*
X136307143Y-97854819D02*
X136211905Y-97807200D01*
X136211905Y-97807200D02*
X136164286Y-97759580D01*
X107383333Y-95004819D02*
X107050000Y-94528628D01*
X106811905Y-95004819D02*
X106811905Y-94004819D01*
X106811905Y-94004819D02*
X107192857Y-94004819D01*
X107192857Y-94004819D02*
X107288095Y-94052438D01*
X107288095Y-94052438D02*
X107335714Y-94100057D01*
X107335714Y-94100057D02*
X107383333Y-94195295D01*
X107383333Y-94195295D02*
X107383333Y-94338152D01*
X107383333Y-94338152D02*
X107335714Y-94433390D01*
X107335714Y-94433390D02*
X107288095Y-94481009D01*
X107288095Y-94481009D02*
X107192857Y-94528628D01*
X107192857Y-94528628D02*
X106811905Y-94528628D01*
X107954762Y-94433390D02*
X107859524Y-94385771D01*
X107859524Y-94385771D02*
X107811905Y-94338152D01*
X107811905Y-94338152D02*
X107764286Y-94242914D01*
X107764286Y-94242914D02*
X107764286Y-94195295D01*
X107764286Y-94195295D02*
X107811905Y-94100057D01*
X107811905Y-94100057D02*
X107859524Y-94052438D01*
X107859524Y-94052438D02*
X107954762Y-94004819D01*
X107954762Y-94004819D02*
X108145238Y-94004819D01*
X108145238Y-94004819D02*
X108240476Y-94052438D01*
X108240476Y-94052438D02*
X108288095Y-94100057D01*
X108288095Y-94100057D02*
X108335714Y-94195295D01*
X108335714Y-94195295D02*
X108335714Y-94242914D01*
X108335714Y-94242914D02*
X108288095Y-94338152D01*
X108288095Y-94338152D02*
X108240476Y-94385771D01*
X108240476Y-94385771D02*
X108145238Y-94433390D01*
X108145238Y-94433390D02*
X107954762Y-94433390D01*
X107954762Y-94433390D02*
X107859524Y-94481009D01*
X107859524Y-94481009D02*
X107811905Y-94528628D01*
X107811905Y-94528628D02*
X107764286Y-94623866D01*
X107764286Y-94623866D02*
X107764286Y-94814342D01*
X107764286Y-94814342D02*
X107811905Y-94909580D01*
X107811905Y-94909580D02*
X107859524Y-94957200D01*
X107859524Y-94957200D02*
X107954762Y-95004819D01*
X107954762Y-95004819D02*
X108145238Y-95004819D01*
X108145238Y-95004819D02*
X108240476Y-94957200D01*
X108240476Y-94957200D02*
X108288095Y-94909580D01*
X108288095Y-94909580D02*
X108335714Y-94814342D01*
X108335714Y-94814342D02*
X108335714Y-94623866D01*
X108335714Y-94623866D02*
X108288095Y-94528628D01*
X108288095Y-94528628D02*
X108240476Y-94481009D01*
X108240476Y-94481009D02*
X108145238Y-94433390D01*
X167357142Y-108804819D02*
X167023809Y-108328628D01*
X166785714Y-108804819D02*
X166785714Y-107804819D01*
X166785714Y-107804819D02*
X167166666Y-107804819D01*
X167166666Y-107804819D02*
X167261904Y-107852438D01*
X167261904Y-107852438D02*
X167309523Y-107900057D01*
X167309523Y-107900057D02*
X167357142Y-107995295D01*
X167357142Y-107995295D02*
X167357142Y-108138152D01*
X167357142Y-108138152D02*
X167309523Y-108233390D01*
X167309523Y-108233390D02*
X167261904Y-108281009D01*
X167261904Y-108281009D02*
X167166666Y-108328628D01*
X167166666Y-108328628D02*
X166785714Y-108328628D01*
X168309523Y-108804819D02*
X167738095Y-108804819D01*
X168023809Y-108804819D02*
X168023809Y-107804819D01*
X168023809Y-107804819D02*
X167928571Y-107947676D01*
X167928571Y-107947676D02*
X167833333Y-108042914D01*
X167833333Y-108042914D02*
X167738095Y-108090533D01*
X168642857Y-107804819D02*
X169309523Y-107804819D01*
X169309523Y-107804819D02*
X168880952Y-108804819D01*
X106957142Y-102604819D02*
X106623809Y-102128628D01*
X106385714Y-102604819D02*
X106385714Y-101604819D01*
X106385714Y-101604819D02*
X106766666Y-101604819D01*
X106766666Y-101604819D02*
X106861904Y-101652438D01*
X106861904Y-101652438D02*
X106909523Y-101700057D01*
X106909523Y-101700057D02*
X106957142Y-101795295D01*
X106957142Y-101795295D02*
X106957142Y-101938152D01*
X106957142Y-101938152D02*
X106909523Y-102033390D01*
X106909523Y-102033390D02*
X106861904Y-102081009D01*
X106861904Y-102081009D02*
X106766666Y-102128628D01*
X106766666Y-102128628D02*
X106385714Y-102128628D01*
X107909523Y-102604819D02*
X107338095Y-102604819D01*
X107623809Y-102604819D02*
X107623809Y-101604819D01*
X107623809Y-101604819D02*
X107528571Y-101747676D01*
X107528571Y-101747676D02*
X107433333Y-101842914D01*
X107433333Y-101842914D02*
X107338095Y-101890533D01*
X108528571Y-101604819D02*
X108623809Y-101604819D01*
X108623809Y-101604819D02*
X108719047Y-101652438D01*
X108719047Y-101652438D02*
X108766666Y-101700057D01*
X108766666Y-101700057D02*
X108814285Y-101795295D01*
X108814285Y-101795295D02*
X108861904Y-101985771D01*
X108861904Y-101985771D02*
X108861904Y-102223866D01*
X108861904Y-102223866D02*
X108814285Y-102414342D01*
X108814285Y-102414342D02*
X108766666Y-102509580D01*
X108766666Y-102509580D02*
X108719047Y-102557200D01*
X108719047Y-102557200D02*
X108623809Y-102604819D01*
X108623809Y-102604819D02*
X108528571Y-102604819D01*
X108528571Y-102604819D02*
X108433333Y-102557200D01*
X108433333Y-102557200D02*
X108385714Y-102509580D01*
X108385714Y-102509580D02*
X108338095Y-102414342D01*
X108338095Y-102414342D02*
X108290476Y-102223866D01*
X108290476Y-102223866D02*
X108290476Y-101985771D01*
X108290476Y-101985771D02*
X108338095Y-101795295D01*
X108338095Y-101795295D02*
X108385714Y-101700057D01*
X108385714Y-101700057D02*
X108433333Y-101652438D01*
X108433333Y-101652438D02*
X108528571Y-101604819D01*
X126876666Y-111804819D02*
X126876666Y-112519104D01*
X126876666Y-112519104D02*
X126829047Y-112661961D01*
X126829047Y-112661961D02*
X126733809Y-112757200D01*
X126733809Y-112757200D02*
X126590952Y-112804819D01*
X126590952Y-112804819D02*
X126495714Y-112804819D01*
X127257619Y-111804819D02*
X127924285Y-111804819D01*
X127924285Y-111804819D02*
X127495714Y-112804819D01*
X168031905Y-99014819D02*
X168031905Y-98014819D01*
X168031905Y-98014819D02*
X168270000Y-98014819D01*
X168270000Y-98014819D02*
X168412857Y-98062438D01*
X168412857Y-98062438D02*
X168508095Y-98157676D01*
X168508095Y-98157676D02*
X168555714Y-98252914D01*
X168555714Y-98252914D02*
X168603333Y-98443390D01*
X168603333Y-98443390D02*
X168603333Y-98586247D01*
X168603333Y-98586247D02*
X168555714Y-98776723D01*
X168555714Y-98776723D02*
X168508095Y-98871961D01*
X168508095Y-98871961D02*
X168412857Y-98967200D01*
X168412857Y-98967200D02*
X168270000Y-99014819D01*
X168270000Y-99014819D02*
X168031905Y-99014819D01*
X169555714Y-99014819D02*
X168984286Y-99014819D01*
X169270000Y-99014819D02*
X169270000Y-98014819D01*
X169270000Y-98014819D02*
X169174762Y-98157676D01*
X169174762Y-98157676D02*
X169079524Y-98252914D01*
X169079524Y-98252914D02*
X168984286Y-98300533D01*
X165774819Y-107001904D02*
X166584342Y-107001904D01*
X166584342Y-107001904D02*
X166679580Y-106954285D01*
X166679580Y-106954285D02*
X166727200Y-106906666D01*
X166727200Y-106906666D02*
X166774819Y-106811428D01*
X166774819Y-106811428D02*
X166774819Y-106620952D01*
X166774819Y-106620952D02*
X166727200Y-106525714D01*
X166727200Y-106525714D02*
X166679580Y-106478095D01*
X166679580Y-106478095D02*
X166584342Y-106430476D01*
X166584342Y-106430476D02*
X165774819Y-106430476D01*
X165774819Y-106049523D02*
X165774819Y-105430476D01*
X165774819Y-105430476D02*
X166155771Y-105763809D01*
X166155771Y-105763809D02*
X166155771Y-105620952D01*
X166155771Y-105620952D02*
X166203390Y-105525714D01*
X166203390Y-105525714D02*
X166251009Y-105478095D01*
X166251009Y-105478095D02*
X166346247Y-105430476D01*
X166346247Y-105430476D02*
X166584342Y-105430476D01*
X166584342Y-105430476D02*
X166679580Y-105478095D01*
X166679580Y-105478095D02*
X166727200Y-105525714D01*
X166727200Y-105525714D02*
X166774819Y-105620952D01*
X166774819Y-105620952D02*
X166774819Y-105906666D01*
X166774819Y-105906666D02*
X166727200Y-106001904D01*
X166727200Y-106001904D02*
X166679580Y-106049523D01*
X199666666Y-92874819D02*
X199666666Y-93589104D01*
X199666666Y-93589104D02*
X199619047Y-93731961D01*
X199619047Y-93731961D02*
X199523809Y-93827200D01*
X199523809Y-93827200D02*
X199380952Y-93874819D01*
X199380952Y-93874819D02*
X199285714Y-93874819D01*
X200571428Y-92874819D02*
X200380952Y-92874819D01*
X200380952Y-92874819D02*
X200285714Y-92922438D01*
X200285714Y-92922438D02*
X200238095Y-92970057D01*
X200238095Y-92970057D02*
X200142857Y-93112914D01*
X200142857Y-93112914D02*
X200095238Y-93303390D01*
X200095238Y-93303390D02*
X200095238Y-93684342D01*
X200095238Y-93684342D02*
X200142857Y-93779580D01*
X200142857Y-93779580D02*
X200190476Y-93827200D01*
X200190476Y-93827200D02*
X200285714Y-93874819D01*
X200285714Y-93874819D02*
X200476190Y-93874819D01*
X200476190Y-93874819D02*
X200571428Y-93827200D01*
X200571428Y-93827200D02*
X200619047Y-93779580D01*
X200619047Y-93779580D02*
X200666666Y-93684342D01*
X200666666Y-93684342D02*
X200666666Y-93446247D01*
X200666666Y-93446247D02*
X200619047Y-93351009D01*
X200619047Y-93351009D02*
X200571428Y-93303390D01*
X200571428Y-93303390D02*
X200476190Y-93255771D01*
X200476190Y-93255771D02*
X200285714Y-93255771D01*
X200285714Y-93255771D02*
X200190476Y-93303390D01*
X200190476Y-93303390D02*
X200142857Y-93351009D01*
X200142857Y-93351009D02*
X200095238Y-93446247D01*
X78806666Y-86244819D02*
X78806666Y-86959104D01*
X78806666Y-86959104D02*
X78759047Y-87101961D01*
X78759047Y-87101961D02*
X78663809Y-87197200D01*
X78663809Y-87197200D02*
X78520952Y-87244819D01*
X78520952Y-87244819D02*
X78425714Y-87244819D01*
X79187619Y-86244819D02*
X79806666Y-86244819D01*
X79806666Y-86244819D02*
X79473333Y-86625771D01*
X79473333Y-86625771D02*
X79616190Y-86625771D01*
X79616190Y-86625771D02*
X79711428Y-86673390D01*
X79711428Y-86673390D02*
X79759047Y-86721009D01*
X79759047Y-86721009D02*
X79806666Y-86816247D01*
X79806666Y-86816247D02*
X79806666Y-87054342D01*
X79806666Y-87054342D02*
X79759047Y-87149580D01*
X79759047Y-87149580D02*
X79711428Y-87197200D01*
X79711428Y-87197200D02*
X79616190Y-87244819D01*
X79616190Y-87244819D02*
X79330476Y-87244819D01*
X79330476Y-87244819D02*
X79235238Y-87197200D01*
X79235238Y-87197200D02*
X79187619Y-87149580D01*
X151267142Y-112494819D02*
X150933809Y-112018628D01*
X150695714Y-112494819D02*
X150695714Y-111494819D01*
X150695714Y-111494819D02*
X151076666Y-111494819D01*
X151076666Y-111494819D02*
X151171904Y-111542438D01*
X151171904Y-111542438D02*
X151219523Y-111590057D01*
X151219523Y-111590057D02*
X151267142Y-111685295D01*
X151267142Y-111685295D02*
X151267142Y-111828152D01*
X151267142Y-111828152D02*
X151219523Y-111923390D01*
X151219523Y-111923390D02*
X151171904Y-111971009D01*
X151171904Y-111971009D02*
X151076666Y-112018628D01*
X151076666Y-112018628D02*
X150695714Y-112018628D01*
X152219523Y-112494819D02*
X151648095Y-112494819D01*
X151933809Y-112494819D02*
X151933809Y-111494819D01*
X151933809Y-111494819D02*
X151838571Y-111637676D01*
X151838571Y-111637676D02*
X151743333Y-111732914D01*
X151743333Y-111732914D02*
X151648095Y-111780533D01*
X152790952Y-111923390D02*
X152695714Y-111875771D01*
X152695714Y-111875771D02*
X152648095Y-111828152D01*
X152648095Y-111828152D02*
X152600476Y-111732914D01*
X152600476Y-111732914D02*
X152600476Y-111685295D01*
X152600476Y-111685295D02*
X152648095Y-111590057D01*
X152648095Y-111590057D02*
X152695714Y-111542438D01*
X152695714Y-111542438D02*
X152790952Y-111494819D01*
X152790952Y-111494819D02*
X152981428Y-111494819D01*
X152981428Y-111494819D02*
X153076666Y-111542438D01*
X153076666Y-111542438D02*
X153124285Y-111590057D01*
X153124285Y-111590057D02*
X153171904Y-111685295D01*
X153171904Y-111685295D02*
X153171904Y-111732914D01*
X153171904Y-111732914D02*
X153124285Y-111828152D01*
X153124285Y-111828152D02*
X153076666Y-111875771D01*
X153076666Y-111875771D02*
X152981428Y-111923390D01*
X152981428Y-111923390D02*
X152790952Y-111923390D01*
X152790952Y-111923390D02*
X152695714Y-111971009D01*
X152695714Y-111971009D02*
X152648095Y-112018628D01*
X152648095Y-112018628D02*
X152600476Y-112113866D01*
X152600476Y-112113866D02*
X152600476Y-112304342D01*
X152600476Y-112304342D02*
X152648095Y-112399580D01*
X152648095Y-112399580D02*
X152695714Y-112447200D01*
X152695714Y-112447200D02*
X152790952Y-112494819D01*
X152790952Y-112494819D02*
X152981428Y-112494819D01*
X152981428Y-112494819D02*
X153076666Y-112447200D01*
X153076666Y-112447200D02*
X153124285Y-112399580D01*
X153124285Y-112399580D02*
X153171904Y-112304342D01*
X153171904Y-112304342D02*
X153171904Y-112113866D01*
X153171904Y-112113866D02*
X153124285Y-112018628D01*
X153124285Y-112018628D02*
X153076666Y-111971009D01*
X153076666Y-111971009D02*
X152981428Y-111923390D01*
X159333333Y-97304819D02*
X159000000Y-96828628D01*
X158761905Y-97304819D02*
X158761905Y-96304819D01*
X158761905Y-96304819D02*
X159142857Y-96304819D01*
X159142857Y-96304819D02*
X159238095Y-96352438D01*
X159238095Y-96352438D02*
X159285714Y-96400057D01*
X159285714Y-96400057D02*
X159333333Y-96495295D01*
X159333333Y-96495295D02*
X159333333Y-96638152D01*
X159333333Y-96638152D02*
X159285714Y-96733390D01*
X159285714Y-96733390D02*
X159238095Y-96781009D01*
X159238095Y-96781009D02*
X159142857Y-96828628D01*
X159142857Y-96828628D02*
X158761905Y-96828628D01*
X159666667Y-96304819D02*
X160285714Y-96304819D01*
X160285714Y-96304819D02*
X159952381Y-96685771D01*
X159952381Y-96685771D02*
X160095238Y-96685771D01*
X160095238Y-96685771D02*
X160190476Y-96733390D01*
X160190476Y-96733390D02*
X160238095Y-96781009D01*
X160238095Y-96781009D02*
X160285714Y-96876247D01*
X160285714Y-96876247D02*
X160285714Y-97114342D01*
X160285714Y-97114342D02*
X160238095Y-97209580D01*
X160238095Y-97209580D02*
X160190476Y-97257200D01*
X160190476Y-97257200D02*
X160095238Y-97304819D01*
X160095238Y-97304819D02*
X159809524Y-97304819D01*
X159809524Y-97304819D02*
X159714286Y-97257200D01*
X159714286Y-97257200D02*
X159666667Y-97209580D01*
X209657142Y-99204819D02*
X209323809Y-98728628D01*
X209085714Y-99204819D02*
X209085714Y-98204819D01*
X209085714Y-98204819D02*
X209466666Y-98204819D01*
X209466666Y-98204819D02*
X209561904Y-98252438D01*
X209561904Y-98252438D02*
X209609523Y-98300057D01*
X209609523Y-98300057D02*
X209657142Y-98395295D01*
X209657142Y-98395295D02*
X209657142Y-98538152D01*
X209657142Y-98538152D02*
X209609523Y-98633390D01*
X209609523Y-98633390D02*
X209561904Y-98681009D01*
X209561904Y-98681009D02*
X209466666Y-98728628D01*
X209466666Y-98728628D02*
X209085714Y-98728628D01*
X210609523Y-99204819D02*
X210038095Y-99204819D01*
X210323809Y-99204819D02*
X210323809Y-98204819D01*
X210323809Y-98204819D02*
X210228571Y-98347676D01*
X210228571Y-98347676D02*
X210133333Y-98442914D01*
X210133333Y-98442914D02*
X210038095Y-98490533D01*
X211466666Y-98538152D02*
X211466666Y-99204819D01*
X211228571Y-98157200D02*
X210990476Y-98871485D01*
X210990476Y-98871485D02*
X211609523Y-98871485D01*
X158816666Y-112214819D02*
X158816666Y-112929104D01*
X158816666Y-112929104D02*
X158769047Y-113071961D01*
X158769047Y-113071961D02*
X158673809Y-113167200D01*
X158673809Y-113167200D02*
X158530952Y-113214819D01*
X158530952Y-113214819D02*
X158435714Y-113214819D01*
X159769047Y-112214819D02*
X159292857Y-112214819D01*
X159292857Y-112214819D02*
X159245238Y-112691009D01*
X159245238Y-112691009D02*
X159292857Y-112643390D01*
X159292857Y-112643390D02*
X159388095Y-112595771D01*
X159388095Y-112595771D02*
X159626190Y-112595771D01*
X159626190Y-112595771D02*
X159721428Y-112643390D01*
X159721428Y-112643390D02*
X159769047Y-112691009D01*
X159769047Y-112691009D02*
X159816666Y-112786247D01*
X159816666Y-112786247D02*
X159816666Y-113024342D01*
X159816666Y-113024342D02*
X159769047Y-113119580D01*
X159769047Y-113119580D02*
X159721428Y-113167200D01*
X159721428Y-113167200D02*
X159626190Y-113214819D01*
X159626190Y-113214819D02*
X159388095Y-113214819D01*
X159388095Y-113214819D02*
X159292857Y-113167200D01*
X159292857Y-113167200D02*
X159245238Y-113119580D01*
X209707142Y-101754819D02*
X209373809Y-101278628D01*
X209135714Y-101754819D02*
X209135714Y-100754819D01*
X209135714Y-100754819D02*
X209516666Y-100754819D01*
X209516666Y-100754819D02*
X209611904Y-100802438D01*
X209611904Y-100802438D02*
X209659523Y-100850057D01*
X209659523Y-100850057D02*
X209707142Y-100945295D01*
X209707142Y-100945295D02*
X209707142Y-101088152D01*
X209707142Y-101088152D02*
X209659523Y-101183390D01*
X209659523Y-101183390D02*
X209611904Y-101231009D01*
X209611904Y-101231009D02*
X209516666Y-101278628D01*
X209516666Y-101278628D02*
X209135714Y-101278628D01*
X210659523Y-101754819D02*
X210088095Y-101754819D01*
X210373809Y-101754819D02*
X210373809Y-100754819D01*
X210373809Y-100754819D02*
X210278571Y-100897676D01*
X210278571Y-100897676D02*
X210183333Y-100992914D01*
X210183333Y-100992914D02*
X210088095Y-101040533D01*
X211564285Y-100754819D02*
X211088095Y-100754819D01*
X211088095Y-100754819D02*
X211040476Y-101231009D01*
X211040476Y-101231009D02*
X211088095Y-101183390D01*
X211088095Y-101183390D02*
X211183333Y-101135771D01*
X211183333Y-101135771D02*
X211421428Y-101135771D01*
X211421428Y-101135771D02*
X211516666Y-101183390D01*
X211516666Y-101183390D02*
X211564285Y-101231009D01*
X211564285Y-101231009D02*
X211611904Y-101326247D01*
X211611904Y-101326247D02*
X211611904Y-101564342D01*
X211611904Y-101564342D02*
X211564285Y-101659580D01*
X211564285Y-101659580D02*
X211516666Y-101707200D01*
X211516666Y-101707200D02*
X211421428Y-101754819D01*
X211421428Y-101754819D02*
X211183333Y-101754819D01*
X211183333Y-101754819D02*
X211088095Y-101707200D01*
X211088095Y-101707200D02*
X211040476Y-101659580D01*
X143783333Y-97854819D02*
X143450000Y-97378628D01*
X143211905Y-97854819D02*
X143211905Y-96854819D01*
X143211905Y-96854819D02*
X143592857Y-96854819D01*
X143592857Y-96854819D02*
X143688095Y-96902438D01*
X143688095Y-96902438D02*
X143735714Y-96950057D01*
X143735714Y-96950057D02*
X143783333Y-97045295D01*
X143783333Y-97045295D02*
X143783333Y-97188152D01*
X143783333Y-97188152D02*
X143735714Y-97283390D01*
X143735714Y-97283390D02*
X143688095Y-97331009D01*
X143688095Y-97331009D02*
X143592857Y-97378628D01*
X143592857Y-97378628D02*
X143211905Y-97378628D01*
X144640476Y-97188152D02*
X144640476Y-97854819D01*
X144402381Y-96807200D02*
X144164286Y-97521485D01*
X144164286Y-97521485D02*
X144783333Y-97521485D01*
X107283333Y-87454819D02*
X106950000Y-86978628D01*
X106711905Y-87454819D02*
X106711905Y-86454819D01*
X106711905Y-86454819D02*
X107092857Y-86454819D01*
X107092857Y-86454819D02*
X107188095Y-86502438D01*
X107188095Y-86502438D02*
X107235714Y-86550057D01*
X107235714Y-86550057D02*
X107283333Y-86645295D01*
X107283333Y-86645295D02*
X107283333Y-86788152D01*
X107283333Y-86788152D02*
X107235714Y-86883390D01*
X107235714Y-86883390D02*
X107188095Y-86931009D01*
X107188095Y-86931009D02*
X107092857Y-86978628D01*
X107092857Y-86978628D02*
X106711905Y-86978628D01*
X108140476Y-86454819D02*
X107950000Y-86454819D01*
X107950000Y-86454819D02*
X107854762Y-86502438D01*
X107854762Y-86502438D02*
X107807143Y-86550057D01*
X107807143Y-86550057D02*
X107711905Y-86692914D01*
X107711905Y-86692914D02*
X107664286Y-86883390D01*
X107664286Y-86883390D02*
X107664286Y-87264342D01*
X107664286Y-87264342D02*
X107711905Y-87359580D01*
X107711905Y-87359580D02*
X107759524Y-87407200D01*
X107759524Y-87407200D02*
X107854762Y-87454819D01*
X107854762Y-87454819D02*
X108045238Y-87454819D01*
X108045238Y-87454819D02*
X108140476Y-87407200D01*
X108140476Y-87407200D02*
X108188095Y-87359580D01*
X108188095Y-87359580D02*
X108235714Y-87264342D01*
X108235714Y-87264342D02*
X108235714Y-87026247D01*
X108235714Y-87026247D02*
X108188095Y-86931009D01*
X108188095Y-86931009D02*
X108140476Y-86883390D01*
X108140476Y-86883390D02*
X108045238Y-86835771D01*
X108045238Y-86835771D02*
X107854762Y-86835771D01*
X107854762Y-86835771D02*
X107759524Y-86883390D01*
X107759524Y-86883390D02*
X107711905Y-86931009D01*
X107711905Y-86931009D02*
X107664286Y-87026247D01*
X107007142Y-107704819D02*
X106673809Y-107228628D01*
X106435714Y-107704819D02*
X106435714Y-106704819D01*
X106435714Y-106704819D02*
X106816666Y-106704819D01*
X106816666Y-106704819D02*
X106911904Y-106752438D01*
X106911904Y-106752438D02*
X106959523Y-106800057D01*
X106959523Y-106800057D02*
X107007142Y-106895295D01*
X107007142Y-106895295D02*
X107007142Y-107038152D01*
X107007142Y-107038152D02*
X106959523Y-107133390D01*
X106959523Y-107133390D02*
X106911904Y-107181009D01*
X106911904Y-107181009D02*
X106816666Y-107228628D01*
X106816666Y-107228628D02*
X106435714Y-107228628D01*
X107959523Y-107704819D02*
X107388095Y-107704819D01*
X107673809Y-107704819D02*
X107673809Y-106704819D01*
X107673809Y-106704819D02*
X107578571Y-106847676D01*
X107578571Y-106847676D02*
X107483333Y-106942914D01*
X107483333Y-106942914D02*
X107388095Y-106990533D01*
X108435714Y-107704819D02*
X108626190Y-107704819D01*
X108626190Y-107704819D02*
X108721428Y-107657200D01*
X108721428Y-107657200D02*
X108769047Y-107609580D01*
X108769047Y-107609580D02*
X108864285Y-107466723D01*
X108864285Y-107466723D02*
X108911904Y-107276247D01*
X108911904Y-107276247D02*
X108911904Y-106895295D01*
X108911904Y-106895295D02*
X108864285Y-106800057D01*
X108864285Y-106800057D02*
X108816666Y-106752438D01*
X108816666Y-106752438D02*
X108721428Y-106704819D01*
X108721428Y-106704819D02*
X108530952Y-106704819D01*
X108530952Y-106704819D02*
X108435714Y-106752438D01*
X108435714Y-106752438D02*
X108388095Y-106800057D01*
X108388095Y-106800057D02*
X108340476Y-106895295D01*
X108340476Y-106895295D02*
X108340476Y-107133390D01*
X108340476Y-107133390D02*
X108388095Y-107228628D01*
X108388095Y-107228628D02*
X108435714Y-107276247D01*
X108435714Y-107276247D02*
X108530952Y-107323866D01*
X108530952Y-107323866D02*
X108721428Y-107323866D01*
X108721428Y-107323866D02*
X108816666Y-107276247D01*
X108816666Y-107276247D02*
X108864285Y-107228628D01*
X108864285Y-107228628D02*
X108911904Y-107133390D01*
X132166666Y-96654819D02*
X132166666Y-97369104D01*
X132166666Y-97369104D02*
X132119047Y-97511961D01*
X132119047Y-97511961D02*
X132023809Y-97607200D01*
X132023809Y-97607200D02*
X131880952Y-97654819D01*
X131880952Y-97654819D02*
X131785714Y-97654819D01*
X132595238Y-96750057D02*
X132642857Y-96702438D01*
X132642857Y-96702438D02*
X132738095Y-96654819D01*
X132738095Y-96654819D02*
X132976190Y-96654819D01*
X132976190Y-96654819D02*
X133071428Y-96702438D01*
X133071428Y-96702438D02*
X133119047Y-96750057D01*
X133119047Y-96750057D02*
X133166666Y-96845295D01*
X133166666Y-96845295D02*
X133166666Y-96940533D01*
X133166666Y-96940533D02*
X133119047Y-97083390D01*
X133119047Y-97083390D02*
X132547619Y-97654819D01*
X132547619Y-97654819D02*
X133166666Y-97654819D01*
X152166666Y-96654819D02*
X152166666Y-97369104D01*
X152166666Y-97369104D02*
X152119047Y-97511961D01*
X152119047Y-97511961D02*
X152023809Y-97607200D01*
X152023809Y-97607200D02*
X151880952Y-97654819D01*
X151880952Y-97654819D02*
X151785714Y-97654819D01*
X153166666Y-97654819D02*
X152595238Y-97654819D01*
X152880952Y-97654819D02*
X152880952Y-96654819D01*
X152880952Y-96654819D02*
X152785714Y-96797676D01*
X152785714Y-96797676D02*
X152690476Y-96892914D01*
X152690476Y-96892914D02*
X152595238Y-96940533D01*
X140587142Y-106259580D02*
X140539523Y-106307200D01*
X140539523Y-106307200D02*
X140396666Y-106354819D01*
X140396666Y-106354819D02*
X140301428Y-106354819D01*
X140301428Y-106354819D02*
X140158571Y-106307200D01*
X140158571Y-106307200D02*
X140063333Y-106211961D01*
X140063333Y-106211961D02*
X140015714Y-106116723D01*
X140015714Y-106116723D02*
X139968095Y-105926247D01*
X139968095Y-105926247D02*
X139968095Y-105783390D01*
X139968095Y-105783390D02*
X140015714Y-105592914D01*
X140015714Y-105592914D02*
X140063333Y-105497676D01*
X140063333Y-105497676D02*
X140158571Y-105402438D01*
X140158571Y-105402438D02*
X140301428Y-105354819D01*
X140301428Y-105354819D02*
X140396666Y-105354819D01*
X140396666Y-105354819D02*
X140539523Y-105402438D01*
X140539523Y-105402438D02*
X140587142Y-105450057D01*
X141539523Y-106354819D02*
X140968095Y-106354819D01*
X141253809Y-106354819D02*
X141253809Y-105354819D01*
X141253809Y-105354819D02*
X141158571Y-105497676D01*
X141158571Y-105497676D02*
X141063333Y-105592914D01*
X141063333Y-105592914D02*
X140968095Y-105640533D01*
X142491904Y-106354819D02*
X141920476Y-106354819D01*
X142206190Y-106354819D02*
X142206190Y-105354819D01*
X142206190Y-105354819D02*
X142110952Y-105497676D01*
X142110952Y-105497676D02*
X142015714Y-105592914D01*
X142015714Y-105592914D02*
X141920476Y-105640533D01*
X136893095Y-108329819D02*
X136893095Y-109139342D01*
X136893095Y-109139342D02*
X136940714Y-109234580D01*
X136940714Y-109234580D02*
X136988333Y-109282200D01*
X136988333Y-109282200D02*
X137083571Y-109329819D01*
X137083571Y-109329819D02*
X137274047Y-109329819D01*
X137274047Y-109329819D02*
X137369285Y-109282200D01*
X137369285Y-109282200D02*
X137416904Y-109234580D01*
X137416904Y-109234580D02*
X137464523Y-109139342D01*
X137464523Y-109139342D02*
X137464523Y-108329819D01*
X137893095Y-108425057D02*
X137940714Y-108377438D01*
X137940714Y-108377438D02*
X138035952Y-108329819D01*
X138035952Y-108329819D02*
X138274047Y-108329819D01*
X138274047Y-108329819D02*
X138369285Y-108377438D01*
X138369285Y-108377438D02*
X138416904Y-108425057D01*
X138416904Y-108425057D02*
X138464523Y-108520295D01*
X138464523Y-108520295D02*
X138464523Y-108615533D01*
X138464523Y-108615533D02*
X138416904Y-108758390D01*
X138416904Y-108758390D02*
X137845476Y-109329819D01*
X137845476Y-109329819D02*
X138464523Y-109329819D01*
%TO.C,R12*%
D11*
X130755000Y-110192936D02*
X130755000Y-110647064D01*
X132225000Y-110192936D02*
X132225000Y-110647064D01*
%TO.C,R13*%
X145145000Y-110102936D02*
X145145000Y-110557064D01*
X146615000Y-110102936D02*
X146615000Y-110557064D01*
%TO.C,R16*%
X206677064Y-95465000D02*
X206222936Y-95465000D01*
X206677064Y-96935000D02*
X206222936Y-96935000D01*
%TO.C,R5*%
X135722936Y-98315000D02*
X136177064Y-98315000D01*
X135722936Y-99785000D02*
X136177064Y-99785000D01*
%TO.C,R8*%
X107322936Y-95465000D02*
X107777064Y-95465000D01*
X107322936Y-96935000D02*
X107777064Y-96935000D01*
%TO.C,U1*%
D10*
X171160000Y-82510000D02*
X171160000Y-112990000D01*
X171160000Y-82510000D02*
X176240000Y-82510000D01*
X176240000Y-79970000D02*
X183860000Y-79970000D01*
X176240000Y-82510000D02*
X176240000Y-79970000D01*
X183860000Y-79970000D02*
X183860000Y-82510000D01*
X183860000Y-82510000D02*
X188940000Y-82510000D01*
X188940000Y-82510000D02*
X188940000Y-112990000D01*
X188940000Y-112990000D02*
X171160000Y-112990000D01*
%TO.C,R17*%
D11*
X167772936Y-109265000D02*
X168227064Y-109265000D01*
X167772936Y-110735000D02*
X168227064Y-110735000D01*
%TO.C,R10*%
X107372936Y-103065000D02*
X107827064Y-103065000D01*
X107372936Y-104535000D02*
X107827064Y-104535000D01*
%TO.C,J7*%
X123850000Y-113140000D02*
X123850000Y-114390000D01*
X124150000Y-114750000D02*
X124760000Y-114750000D01*
X124150000Y-116050000D02*
X124760000Y-116050000D01*
X124760000Y-114050000D02*
X124760000Y-117550000D01*
X124760000Y-117550000D02*
X129660000Y-117550000D01*
X125100000Y-113140000D02*
X123850000Y-113140000D01*
X125610000Y-113240000D02*
X125610000Y-113440000D01*
X125910000Y-113240000D02*
X125610000Y-113240000D01*
X125910000Y-113340000D02*
X125610000Y-113340000D01*
X125910000Y-113440000D02*
X125910000Y-113240000D01*
X126710000Y-113440000D02*
X126710000Y-114050000D01*
X126710000Y-114050000D02*
X124760000Y-114050000D01*
X127110000Y-117050000D02*
X127310000Y-117050000D01*
X127110000Y-117550000D02*
X127110000Y-117050000D01*
X127210000Y-117550000D02*
X127210000Y-117050000D01*
X127310000Y-117050000D02*
X127310000Y-117550000D01*
X127710000Y-114050000D02*
X127710000Y-113440000D01*
X129660000Y-114050000D02*
X127710000Y-114050000D01*
X129660000Y-117550000D02*
X129660000Y-114050000D01*
X130270000Y-114750000D02*
X129660000Y-114750000D01*
X130270000Y-116050000D02*
X129660000Y-116050000D01*
X124150000Y-113440000D02*
X130270000Y-113440000D01*
X130270000Y-118160000D01*
X124150000Y-118160000D01*
X124150000Y-113440000D01*
%TO.C,D1*%
X163560000Y-97625000D02*
X163560000Y-99325000D01*
X163560000Y-97625000D02*
X166820000Y-97625000D01*
X163560000Y-99325000D02*
X166820000Y-99325000D01*
%TO.C,U3*%
X155040000Y-103590000D02*
X155040000Y-108890000D01*
X155040000Y-108890000D02*
X165320000Y-108890000D01*
X165320000Y-103590000D02*
X155040000Y-103590000D01*
X165320000Y-105240000D02*
X165320000Y-103590000D01*
X165320000Y-108890000D02*
X165320000Y-107240000D01*
X154980000Y-101100000D02*
X165380000Y-101100000D01*
X165380000Y-111380000D01*
X154980000Y-111380000D01*
X154980000Y-101100000D01*
X165320000Y-107240000D02*
G75*
G02*
X165320000Y-105240000I0J1000000D01*
G01*
%TO.C,J6*%
X198670000Y-97460000D02*
X198670000Y-105140000D01*
X198670000Y-97460000D02*
X201330000Y-97460000D01*
X198670000Y-105140000D02*
X201330000Y-105140000D01*
X200000000Y-94860000D02*
X201330000Y-94860000D01*
X201330000Y-94860000D02*
X201330000Y-96190000D01*
X201330000Y-97460000D02*
X201330000Y-105140000D01*
D12*
X229000000Y-100000000D02*
G75*
G02*
X197000000Y-100000000I-16000000J0D01*
G01*
X197000000Y-100000000D02*
G75*
G02*
X229000000Y-100000000I16000000J0D01*
G01*
%TO.C,J3*%
D11*
X113170000Y-87300000D02*
X113170000Y-115300000D01*
X113170000Y-87300000D02*
X115830000Y-87300000D01*
X113170000Y-115300000D02*
X115830000Y-115300000D01*
X114500000Y-84700000D02*
X115830000Y-84700000D01*
X115830000Y-84700000D02*
X115830000Y-86030000D01*
X115830000Y-87300000D02*
X115830000Y-115300000D01*
D12*
X112000000Y-100000000D02*
G75*
G02*
X76000000Y-100000000I-18000000J0D01*
G01*
X76000000Y-100000000D02*
G75*
G02*
X112000000Y-100000000I18000000J0D01*
G01*
%TO.C,R18*%
D11*
X152137064Y-109655000D02*
X151682936Y-109655000D01*
X152137064Y-111125000D02*
X151682936Y-111125000D01*
%TO.C,R3*%
X159272936Y-97765000D02*
X159727064Y-97765000D01*
X159272936Y-99235000D02*
X159727064Y-99235000D01*
%TO.C,R14*%
X206677064Y-98015000D02*
X206222936Y-98015000D01*
X206677064Y-99485000D02*
X206222936Y-99485000D01*
%TO.C,J5*%
X152790000Y-113550000D02*
X152790000Y-114800000D01*
X153090000Y-115160000D02*
X153700000Y-115160000D01*
X153090000Y-116460000D02*
X153700000Y-116460000D01*
X153700000Y-114460000D02*
X153700000Y-117960000D01*
X153700000Y-117960000D02*
X164600000Y-117960000D01*
X154040000Y-113550000D02*
X152790000Y-113550000D01*
X154550000Y-113650000D02*
X154550000Y-113850000D01*
X154850000Y-113650000D02*
X154550000Y-113650000D01*
X154850000Y-113750000D02*
X154550000Y-113750000D01*
X154850000Y-113850000D02*
X154850000Y-113650000D01*
X155650000Y-113850000D02*
X155650000Y-114460000D01*
X155650000Y-114460000D02*
X153700000Y-114460000D01*
X156050000Y-117460000D02*
X156250000Y-117460000D01*
X156050000Y-117960000D02*
X156050000Y-117460000D01*
X156150000Y-117960000D02*
X156150000Y-117460000D01*
X156250000Y-117460000D02*
X156250000Y-117960000D01*
X158050000Y-117460000D02*
X158250000Y-117460000D01*
X158050000Y-117960000D02*
X158050000Y-117460000D01*
X158150000Y-117960000D02*
X158150000Y-117460000D01*
X158250000Y-117460000D02*
X158250000Y-117960000D01*
X160050000Y-117460000D02*
X160250000Y-117460000D01*
X160050000Y-117960000D02*
X160050000Y-117460000D01*
X160150000Y-117960000D02*
X160150000Y-117460000D01*
X160250000Y-117460000D02*
X160250000Y-117960000D01*
X162050000Y-117460000D02*
X162250000Y-117460000D01*
X162050000Y-117960000D02*
X162050000Y-117460000D01*
X162150000Y-117960000D02*
X162150000Y-117460000D01*
X162250000Y-117460000D02*
X162250000Y-117960000D01*
X162650000Y-114460000D02*
X162650000Y-113850000D01*
X164600000Y-114460000D02*
X162650000Y-114460000D01*
X164600000Y-117960000D02*
X164600000Y-114460000D01*
X165210000Y-115160000D02*
X164600000Y-115160000D01*
X165210000Y-116460000D02*
X164600000Y-116460000D01*
X153090000Y-113850000D02*
X165210000Y-113850000D01*
X165210000Y-118570000D01*
X153090000Y-118570000D01*
X153090000Y-113850000D01*
%TO.C,R15*%
X206677064Y-100565000D02*
X206222936Y-100565000D01*
X206677064Y-102035000D02*
X206222936Y-102035000D01*
%TO.C,R4*%
X143722936Y-98315000D02*
X144177064Y-98315000D01*
X143722936Y-99785000D02*
X144177064Y-99785000D01*
%TO.C,R6*%
X107222936Y-87915000D02*
X107677064Y-87915000D01*
X107222936Y-89385000D02*
X107677064Y-89385000D01*
%TO.C,R19*%
X107422936Y-108165000D02*
X107877064Y-108165000D01*
X107422936Y-109635000D02*
X107877064Y-109635000D01*
%TO.C,J2*%
X130000000Y-95840000D02*
X130000000Y-79910000D01*
X133960000Y-95840000D02*
X130000000Y-95840000D01*
X143940000Y-95840000D02*
X136070000Y-95840000D01*
X150000000Y-79910000D02*
X130000000Y-79910000D01*
X150000000Y-95840000D02*
X146040000Y-95840000D01*
X150000000Y-95840000D02*
X150000000Y-79910000D01*
%TO.C,J1*%
X150000000Y-95840000D02*
X150000000Y-79910000D01*
X153960000Y-95840000D02*
X150000000Y-95840000D01*
X163940000Y-95840000D02*
X156070000Y-95840000D01*
X170000000Y-79910000D02*
X150000000Y-79910000D01*
X170000000Y-95840000D02*
X166040000Y-95840000D01*
X170000000Y-95840000D02*
X170000000Y-79910000D01*
%TO.C,C11*%
X140968748Y-106845000D02*
X141491252Y-106845000D01*
X140968748Y-108315000D02*
X141491252Y-108315000D01*
%TO.C,U2*%
X135595000Y-109715000D02*
X139715000Y-109715000D01*
X135595000Y-109810000D02*
X135595000Y-109715000D01*
X135595000Y-114835000D02*
X135595000Y-114740000D01*
X139715000Y-109715000D02*
X139715000Y-109810000D01*
X139715000Y-114740000D02*
X139715000Y-114835000D01*
X139715000Y-114835000D02*
X135595000Y-114835000D01*
X135055000Y-109805000D02*
X134815000Y-109475000D01*
X135295000Y-109475000D01*
X135055000Y-109805000D01*
G36*
X135055000Y-109805000D02*
G01*
X134815000Y-109475000D01*
X135295000Y-109475000D01*
X135055000Y-109805000D01*
G37*
%TD*%
M02*
