%TF.GenerationSoftware,KiCad,Pcbnew,10.0.3*%
%TF.CreationDate,2026-05-29T12:22:11+03:00*%
%TF.ProjectId,midi_pro_micro,6d696469-5f70-4726-9f5f-6d6963726f2e,rev?*%
%TF.SameCoordinates,Original*%
%TF.FileFunction,Legend,Bot*%
%TF.FilePolarity,Positive*%
%FSLAX46Y46*%
G04 Gerber Fmt 4.6, Leading zero omitted, Abs format (unit mm)*
G04 Created by KiCad (PCBNEW 10.0.3) date 2026-05-29 12:22:11*
%MOMM*%
%LPD*%
G01*
G04 APERTURE LIST*
%ADD10C,0.100000*%
%ADD11C,0.200000*%
%ADD12C,0.000000*%
%ADD13C,0.010000*%
G04 APERTURE END LIST*
D10*
X95470877Y-113943561D02*
X95470877Y-114591180D01*
X95470877Y-114591180D02*
X95508972Y-114667371D01*
X95508972Y-114667371D02*
X95547068Y-114705466D01*
X95547068Y-114705466D02*
X95623258Y-114743561D01*
X95623258Y-114743561D02*
X95737544Y-114743561D01*
X95737544Y-114743561D02*
X95813734Y-114705466D01*
X95470877Y-114438800D02*
X95547068Y-114476895D01*
X95547068Y-114476895D02*
X95699449Y-114476895D01*
X95699449Y-114476895D02*
X95775639Y-114438800D01*
X95775639Y-114438800D02*
X95813734Y-114400704D01*
X95813734Y-114400704D02*
X95851830Y-114324514D01*
X95851830Y-114324514D02*
X95851830Y-114095942D01*
X95851830Y-114095942D02*
X95813734Y-114019752D01*
X95813734Y-114019752D02*
X95775639Y-113981657D01*
X95775639Y-113981657D02*
X95699449Y-113943561D01*
X95699449Y-113943561D02*
X95547068Y-113943561D01*
X95547068Y-113943561D02*
X95470877Y-113981657D01*
X95089924Y-114476895D02*
X95089924Y-113943561D01*
X95089924Y-113676895D02*
X95128020Y-113714990D01*
X95128020Y-113714990D02*
X95089924Y-113753085D01*
X95089924Y-113753085D02*
X95051829Y-113714990D01*
X95051829Y-113714990D02*
X95089924Y-113676895D01*
X95089924Y-113676895D02*
X95089924Y-113753085D01*
X94823258Y-113943561D02*
X94518496Y-113943561D01*
X94708972Y-113676895D02*
X94708972Y-114362609D01*
X94708972Y-114362609D02*
X94670877Y-114438800D01*
X94670877Y-114438800D02*
X94594687Y-114476895D01*
X94594687Y-114476895D02*
X94518496Y-114476895D01*
X94251829Y-114476895D02*
X94251829Y-113676895D01*
X93908972Y-114476895D02*
X93908972Y-114057847D01*
X93908972Y-114057847D02*
X93947067Y-113981657D01*
X93947067Y-113981657D02*
X94023258Y-113943561D01*
X94023258Y-113943561D02*
X94137544Y-113943561D01*
X94137544Y-113943561D02*
X94213734Y-113981657D01*
X94213734Y-113981657D02*
X94251829Y-114019752D01*
X93185162Y-113943561D02*
X93185162Y-114476895D01*
X93528019Y-113943561D02*
X93528019Y-114362609D01*
X93528019Y-114362609D02*
X93489924Y-114438800D01*
X93489924Y-114438800D02*
X93413734Y-114476895D01*
X93413734Y-114476895D02*
X93299448Y-114476895D01*
X93299448Y-114476895D02*
X93223257Y-114438800D01*
X93223257Y-114438800D02*
X93185162Y-114400704D01*
X92804209Y-114476895D02*
X92804209Y-113676895D01*
X92804209Y-113981657D02*
X92728019Y-113943561D01*
X92728019Y-113943561D02*
X92575638Y-113943561D01*
X92575638Y-113943561D02*
X92499447Y-113981657D01*
X92499447Y-113981657D02*
X92461352Y-114019752D01*
X92461352Y-114019752D02*
X92423257Y-114095942D01*
X92423257Y-114095942D02*
X92423257Y-114324514D01*
X92423257Y-114324514D02*
X92461352Y-114400704D01*
X92461352Y-114400704D02*
X92499447Y-114438800D01*
X92499447Y-114438800D02*
X92575638Y-114476895D01*
X92575638Y-114476895D02*
X92728019Y-114476895D01*
X92728019Y-114476895D02*
X92804209Y-114438800D01*
X92080399Y-114400704D02*
X92042304Y-114438800D01*
X92042304Y-114438800D02*
X92080399Y-114476895D01*
X92080399Y-114476895D02*
X92118495Y-114438800D01*
X92118495Y-114438800D02*
X92080399Y-114400704D01*
X92080399Y-114400704D02*
X92080399Y-114476895D01*
X91356590Y-114438800D02*
X91432781Y-114476895D01*
X91432781Y-114476895D02*
X91585162Y-114476895D01*
X91585162Y-114476895D02*
X91661352Y-114438800D01*
X91661352Y-114438800D02*
X91699447Y-114400704D01*
X91699447Y-114400704D02*
X91737543Y-114324514D01*
X91737543Y-114324514D02*
X91737543Y-114095942D01*
X91737543Y-114095942D02*
X91699447Y-114019752D01*
X91699447Y-114019752D02*
X91661352Y-113981657D01*
X91661352Y-113981657D02*
X91585162Y-113943561D01*
X91585162Y-113943561D02*
X91432781Y-113943561D01*
X91432781Y-113943561D02*
X91356590Y-113981657D01*
X90899448Y-114476895D02*
X90975638Y-114438800D01*
X90975638Y-114438800D02*
X91013733Y-114400704D01*
X91013733Y-114400704D02*
X91051829Y-114324514D01*
X91051829Y-114324514D02*
X91051829Y-114095942D01*
X91051829Y-114095942D02*
X91013733Y-114019752D01*
X91013733Y-114019752D02*
X90975638Y-113981657D01*
X90975638Y-113981657D02*
X90899448Y-113943561D01*
X90899448Y-113943561D02*
X90785162Y-113943561D01*
X90785162Y-113943561D02*
X90708971Y-113981657D01*
X90708971Y-113981657D02*
X90670876Y-114019752D01*
X90670876Y-114019752D02*
X90632781Y-114095942D01*
X90632781Y-114095942D02*
X90632781Y-114324514D01*
X90632781Y-114324514D02*
X90670876Y-114400704D01*
X90670876Y-114400704D02*
X90708971Y-114438800D01*
X90708971Y-114438800D02*
X90785162Y-114476895D01*
X90785162Y-114476895D02*
X90899448Y-114476895D01*
X90289923Y-114476895D02*
X90289923Y-113943561D01*
X90289923Y-114019752D02*
X90251828Y-113981657D01*
X90251828Y-113981657D02*
X90175638Y-113943561D01*
X90175638Y-113943561D02*
X90061352Y-113943561D01*
X90061352Y-113943561D02*
X89985161Y-113981657D01*
X89985161Y-113981657D02*
X89947066Y-114057847D01*
X89947066Y-114057847D02*
X89947066Y-114476895D01*
X89947066Y-114057847D02*
X89908971Y-113981657D01*
X89908971Y-113981657D02*
X89832780Y-113943561D01*
X89832780Y-113943561D02*
X89718495Y-113943561D01*
X89718495Y-113943561D02*
X89642304Y-113981657D01*
X89642304Y-113981657D02*
X89604209Y-114057847D01*
X89604209Y-114057847D02*
X89604209Y-114476895D01*
X88651828Y-113638800D02*
X89337542Y-114667371D01*
X88385161Y-114476895D02*
X88385161Y-113943561D01*
X88385161Y-114019752D02*
X88347066Y-113981657D01*
X88347066Y-113981657D02*
X88270876Y-113943561D01*
X88270876Y-113943561D02*
X88156590Y-113943561D01*
X88156590Y-113943561D02*
X88080399Y-113981657D01*
X88080399Y-113981657D02*
X88042304Y-114057847D01*
X88042304Y-114057847D02*
X88042304Y-114476895D01*
X88042304Y-114057847D02*
X88004209Y-113981657D01*
X88004209Y-113981657D02*
X87928018Y-113943561D01*
X87928018Y-113943561D02*
X87813733Y-113943561D01*
X87813733Y-113943561D02*
X87737542Y-113981657D01*
X87737542Y-113981657D02*
X87699447Y-114057847D01*
X87699447Y-114057847D02*
X87699447Y-114476895D01*
X86975637Y-114476895D02*
X86975637Y-114057847D01*
X86975637Y-114057847D02*
X87013732Y-113981657D01*
X87013732Y-113981657D02*
X87089923Y-113943561D01*
X87089923Y-113943561D02*
X87242304Y-113943561D01*
X87242304Y-113943561D02*
X87318494Y-113981657D01*
X86975637Y-114438800D02*
X87051828Y-114476895D01*
X87051828Y-114476895D02*
X87242304Y-114476895D01*
X87242304Y-114476895D02*
X87318494Y-114438800D01*
X87318494Y-114438800D02*
X87356590Y-114362609D01*
X87356590Y-114362609D02*
X87356590Y-114286419D01*
X87356590Y-114286419D02*
X87318494Y-114210228D01*
X87318494Y-114210228D02*
X87242304Y-114172133D01*
X87242304Y-114172133D02*
X87051828Y-114172133D01*
X87051828Y-114172133D02*
X86975637Y-114134038D01*
X86594684Y-114476895D02*
X86594684Y-113943561D01*
X86594684Y-114095942D02*
X86556589Y-114019752D01*
X86556589Y-114019752D02*
X86518494Y-113981657D01*
X86518494Y-113981657D02*
X86442303Y-113943561D01*
X86442303Y-113943561D02*
X86366113Y-113943561D01*
X85947065Y-113676895D02*
X85870875Y-113676895D01*
X85870875Y-113676895D02*
X85794684Y-113714990D01*
X85794684Y-113714990D02*
X85756589Y-113753085D01*
X85756589Y-113753085D02*
X85718494Y-113829276D01*
X85718494Y-113829276D02*
X85680399Y-113981657D01*
X85680399Y-113981657D02*
X85680399Y-114172133D01*
X85680399Y-114172133D02*
X85718494Y-114324514D01*
X85718494Y-114324514D02*
X85756589Y-114400704D01*
X85756589Y-114400704D02*
X85794684Y-114438800D01*
X85794684Y-114438800D02*
X85870875Y-114476895D01*
X85870875Y-114476895D02*
X85947065Y-114476895D01*
X85947065Y-114476895D02*
X86023256Y-114438800D01*
X86023256Y-114438800D02*
X86061351Y-114400704D01*
X86061351Y-114400704D02*
X86099446Y-114324514D01*
X86099446Y-114324514D02*
X86137542Y-114172133D01*
X86137542Y-114172133D02*
X86137542Y-113981657D01*
X86137542Y-113981657D02*
X86099446Y-113829276D01*
X86099446Y-113829276D02*
X86061351Y-113753085D01*
X86061351Y-113753085D02*
X86023256Y-113714990D01*
X86023256Y-113714990D02*
X85947065Y-113676895D01*
X85413732Y-114476895D02*
X84994684Y-113943561D01*
X85413732Y-113943561D02*
X84994684Y-114476895D01*
X84118494Y-113638800D02*
X84804208Y-114667371D01*
X83851827Y-114476895D02*
X83851827Y-113943561D01*
X83851827Y-114019752D02*
X83813732Y-113981657D01*
X83813732Y-113981657D02*
X83737542Y-113943561D01*
X83737542Y-113943561D02*
X83623256Y-113943561D01*
X83623256Y-113943561D02*
X83547065Y-113981657D01*
X83547065Y-113981657D02*
X83508970Y-114057847D01*
X83508970Y-114057847D02*
X83508970Y-114476895D01*
X83508970Y-114057847D02*
X83470875Y-113981657D01*
X83470875Y-113981657D02*
X83394684Y-113943561D01*
X83394684Y-113943561D02*
X83280399Y-113943561D01*
X83280399Y-113943561D02*
X83204208Y-113981657D01*
X83204208Y-113981657D02*
X83166113Y-114057847D01*
X83166113Y-114057847D02*
X83166113Y-114476895D01*
X82785160Y-114476895D02*
X82785160Y-113943561D01*
X82785160Y-113676895D02*
X82823256Y-113714990D01*
X82823256Y-113714990D02*
X82785160Y-113753085D01*
X82785160Y-113753085D02*
X82747065Y-113714990D01*
X82747065Y-113714990D02*
X82785160Y-113676895D01*
X82785160Y-113676895D02*
X82785160Y-113753085D01*
X82061351Y-114476895D02*
X82061351Y-113676895D01*
X82061351Y-114438800D02*
X82137542Y-114476895D01*
X82137542Y-114476895D02*
X82289923Y-114476895D01*
X82289923Y-114476895D02*
X82366113Y-114438800D01*
X82366113Y-114438800D02*
X82404208Y-114400704D01*
X82404208Y-114400704D02*
X82442304Y-114324514D01*
X82442304Y-114324514D02*
X82442304Y-114095942D01*
X82442304Y-114095942D02*
X82404208Y-114019752D01*
X82404208Y-114019752D02*
X82366113Y-113981657D01*
X82366113Y-113981657D02*
X82289923Y-113943561D01*
X82289923Y-113943561D02*
X82137542Y-113943561D01*
X82137542Y-113943561D02*
X82061351Y-113981657D01*
X81680398Y-114476895D02*
X81680398Y-113943561D01*
X81680398Y-113676895D02*
X81718494Y-113714990D01*
X81718494Y-113714990D02*
X81680398Y-113753085D01*
X81680398Y-113753085D02*
X81642303Y-113714990D01*
X81642303Y-113714990D02*
X81680398Y-113676895D01*
X81680398Y-113676895D02*
X81680398Y-113753085D01*
X81489923Y-114553085D02*
X80880399Y-114553085D01*
X80347065Y-114438800D02*
X80423256Y-114476895D01*
X80423256Y-114476895D02*
X80575637Y-114476895D01*
X80575637Y-114476895D02*
X80651827Y-114438800D01*
X80651827Y-114438800D02*
X80689922Y-114400704D01*
X80689922Y-114400704D02*
X80728018Y-114324514D01*
X80728018Y-114324514D02*
X80728018Y-114095942D01*
X80728018Y-114095942D02*
X80689922Y-114019752D01*
X80689922Y-114019752D02*
X80651827Y-113981657D01*
X80651827Y-113981657D02*
X80575637Y-113943561D01*
X80575637Y-113943561D02*
X80423256Y-113943561D01*
X80423256Y-113943561D02*
X80347065Y-113981657D01*
X79889923Y-114476895D02*
X79966113Y-114438800D01*
X79966113Y-114438800D02*
X80004208Y-114400704D01*
X80004208Y-114400704D02*
X80042304Y-114324514D01*
X80042304Y-114324514D02*
X80042304Y-114095942D01*
X80042304Y-114095942D02*
X80004208Y-114019752D01*
X80004208Y-114019752D02*
X79966113Y-113981657D01*
X79966113Y-113981657D02*
X79889923Y-113943561D01*
X79889923Y-113943561D02*
X79775637Y-113943561D01*
X79775637Y-113943561D02*
X79699446Y-113981657D01*
X79699446Y-113981657D02*
X79661351Y-114019752D01*
X79661351Y-114019752D02*
X79623256Y-114095942D01*
X79623256Y-114095942D02*
X79623256Y-114324514D01*
X79623256Y-114324514D02*
X79661351Y-114400704D01*
X79661351Y-114400704D02*
X79699446Y-114438800D01*
X79699446Y-114438800D02*
X79775637Y-114476895D01*
X79775637Y-114476895D02*
X79889923Y-114476895D01*
X79280398Y-113943561D02*
X79280398Y-114476895D01*
X79280398Y-114019752D02*
X79242303Y-113981657D01*
X79242303Y-113981657D02*
X79166113Y-113943561D01*
X79166113Y-113943561D02*
X79051827Y-113943561D01*
X79051827Y-113943561D02*
X78975636Y-113981657D01*
X78975636Y-113981657D02*
X78937541Y-114057847D01*
X78937541Y-114057847D02*
X78937541Y-114476895D01*
X78670874Y-113943561D02*
X78366112Y-113943561D01*
X78556588Y-113676895D02*
X78556588Y-114362609D01*
X78556588Y-114362609D02*
X78518493Y-114438800D01*
X78518493Y-114438800D02*
X78442303Y-114476895D01*
X78442303Y-114476895D02*
X78366112Y-114476895D01*
X78099445Y-114476895D02*
X78099445Y-113943561D01*
X78099445Y-114095942D02*
X78061350Y-114019752D01*
X78061350Y-114019752D02*
X78023255Y-113981657D01*
X78023255Y-113981657D02*
X77947064Y-113943561D01*
X77947064Y-113943561D02*
X77870874Y-113943561D01*
X77489922Y-114476895D02*
X77566112Y-114438800D01*
X77566112Y-114438800D02*
X77604207Y-114400704D01*
X77604207Y-114400704D02*
X77642303Y-114324514D01*
X77642303Y-114324514D02*
X77642303Y-114095942D01*
X77642303Y-114095942D02*
X77604207Y-114019752D01*
X77604207Y-114019752D02*
X77566112Y-113981657D01*
X77566112Y-113981657D02*
X77489922Y-113943561D01*
X77489922Y-113943561D02*
X77375636Y-113943561D01*
X77375636Y-113943561D02*
X77299445Y-113981657D01*
X77299445Y-113981657D02*
X77261350Y-114019752D01*
X77261350Y-114019752D02*
X77223255Y-114095942D01*
X77223255Y-114095942D02*
X77223255Y-114324514D01*
X77223255Y-114324514D02*
X77261350Y-114400704D01*
X77261350Y-114400704D02*
X77299445Y-114438800D01*
X77299445Y-114438800D02*
X77375636Y-114476895D01*
X77375636Y-114476895D02*
X77489922Y-114476895D01*
X76766112Y-114476895D02*
X76842302Y-114438800D01*
X76842302Y-114438800D02*
X76880397Y-114362609D01*
X76880397Y-114362609D02*
X76880397Y-113676895D01*
X76347064Y-114476895D02*
X76423254Y-114438800D01*
X76423254Y-114438800D02*
X76461349Y-114362609D01*
X76461349Y-114362609D02*
X76461349Y-113676895D01*
X75737539Y-114438800D02*
X75813730Y-114476895D01*
X75813730Y-114476895D02*
X75966111Y-114476895D01*
X75966111Y-114476895D02*
X76042301Y-114438800D01*
X76042301Y-114438800D02*
X76080397Y-114362609D01*
X76080397Y-114362609D02*
X76080397Y-114057847D01*
X76080397Y-114057847D02*
X76042301Y-113981657D01*
X76042301Y-113981657D02*
X75966111Y-113943561D01*
X75966111Y-113943561D02*
X75813730Y-113943561D01*
X75813730Y-113943561D02*
X75737539Y-113981657D01*
X75737539Y-113981657D02*
X75699444Y-114057847D01*
X75699444Y-114057847D02*
X75699444Y-114134038D01*
X75699444Y-114134038D02*
X76080397Y-114210228D01*
X75356587Y-114476895D02*
X75356587Y-113943561D01*
X75356587Y-114095942D02*
X75318492Y-114019752D01*
X75318492Y-114019752D02*
X75280397Y-113981657D01*
X75280397Y-113981657D02*
X75204206Y-113943561D01*
X75204206Y-113943561D02*
X75128016Y-113943561D01*
D11*
X90017945Y-115842457D02*
X89970326Y-115794838D01*
X89970326Y-115794838D02*
X89875088Y-115747219D01*
X89875088Y-115747219D02*
X89636993Y-115747219D01*
X89636993Y-115747219D02*
X89541755Y-115794838D01*
X89541755Y-115794838D02*
X89494136Y-115842457D01*
X89494136Y-115842457D02*
X89446517Y-115937695D01*
X89446517Y-115937695D02*
X89446517Y-116032933D01*
X89446517Y-116032933D02*
X89494136Y-116175790D01*
X89494136Y-116175790D02*
X90065564Y-116747219D01*
X90065564Y-116747219D02*
X89446517Y-116747219D01*
X88827469Y-115747219D02*
X88732231Y-115747219D01*
X88732231Y-115747219D02*
X88636993Y-115794838D01*
X88636993Y-115794838D02*
X88589374Y-115842457D01*
X88589374Y-115842457D02*
X88541755Y-115937695D01*
X88541755Y-115937695D02*
X88494136Y-116128171D01*
X88494136Y-116128171D02*
X88494136Y-116366266D01*
X88494136Y-116366266D02*
X88541755Y-116556742D01*
X88541755Y-116556742D02*
X88589374Y-116651980D01*
X88589374Y-116651980D02*
X88636993Y-116699600D01*
X88636993Y-116699600D02*
X88732231Y-116747219D01*
X88732231Y-116747219D02*
X88827469Y-116747219D01*
X88827469Y-116747219D02*
X88922707Y-116699600D01*
X88922707Y-116699600D02*
X88970326Y-116651980D01*
X88970326Y-116651980D02*
X89017945Y-116556742D01*
X89017945Y-116556742D02*
X89065564Y-116366266D01*
X89065564Y-116366266D02*
X89065564Y-116128171D01*
X89065564Y-116128171D02*
X89017945Y-115937695D01*
X89017945Y-115937695D02*
X88970326Y-115842457D01*
X88970326Y-115842457D02*
X88922707Y-115794838D01*
X88922707Y-115794838D02*
X88827469Y-115747219D01*
X88113183Y-115842457D02*
X88065564Y-115794838D01*
X88065564Y-115794838D02*
X87970326Y-115747219D01*
X87970326Y-115747219D02*
X87732231Y-115747219D01*
X87732231Y-115747219D02*
X87636993Y-115794838D01*
X87636993Y-115794838D02*
X87589374Y-115842457D01*
X87589374Y-115842457D02*
X87541755Y-115937695D01*
X87541755Y-115937695D02*
X87541755Y-116032933D01*
X87541755Y-116032933D02*
X87589374Y-116175790D01*
X87589374Y-116175790D02*
X88160802Y-116747219D01*
X88160802Y-116747219D02*
X87541755Y-116747219D01*
X86684612Y-115747219D02*
X86875088Y-115747219D01*
X86875088Y-115747219D02*
X86970326Y-115794838D01*
X86970326Y-115794838D02*
X87017945Y-115842457D01*
X87017945Y-115842457D02*
X87113183Y-115985314D01*
X87113183Y-115985314D02*
X87160802Y-116175790D01*
X87160802Y-116175790D02*
X87160802Y-116556742D01*
X87160802Y-116556742D02*
X87113183Y-116651980D01*
X87113183Y-116651980D02*
X87065564Y-116699600D01*
X87065564Y-116699600D02*
X86970326Y-116747219D01*
X86970326Y-116747219D02*
X86779850Y-116747219D01*
X86779850Y-116747219D02*
X86684612Y-116699600D01*
X86684612Y-116699600D02*
X86636993Y-116651980D01*
X86636993Y-116651980D02*
X86589374Y-116556742D01*
X86589374Y-116556742D02*
X86589374Y-116318647D01*
X86589374Y-116318647D02*
X86636993Y-116223409D01*
X86636993Y-116223409D02*
X86684612Y-116175790D01*
X86684612Y-116175790D02*
X86779850Y-116128171D01*
X86779850Y-116128171D02*
X86970326Y-116128171D01*
X86970326Y-116128171D02*
X87065564Y-116175790D01*
X87065564Y-116175790D02*
X87113183Y-116223409D01*
X87113183Y-116223409D02*
X87160802Y-116318647D01*
X86160802Y-116651980D02*
X86113183Y-116699600D01*
X86113183Y-116699600D02*
X86160802Y-116747219D01*
X86160802Y-116747219D02*
X86208421Y-116699600D01*
X86208421Y-116699600D02*
X86160802Y-116651980D01*
X86160802Y-116651980D02*
X86160802Y-116747219D01*
X85494136Y-115747219D02*
X85398898Y-115747219D01*
X85398898Y-115747219D02*
X85303660Y-115794838D01*
X85303660Y-115794838D02*
X85256041Y-115842457D01*
X85256041Y-115842457D02*
X85208422Y-115937695D01*
X85208422Y-115937695D02*
X85160803Y-116128171D01*
X85160803Y-116128171D02*
X85160803Y-116366266D01*
X85160803Y-116366266D02*
X85208422Y-116556742D01*
X85208422Y-116556742D02*
X85256041Y-116651980D01*
X85256041Y-116651980D02*
X85303660Y-116699600D01*
X85303660Y-116699600D02*
X85398898Y-116747219D01*
X85398898Y-116747219D02*
X85494136Y-116747219D01*
X85494136Y-116747219D02*
X85589374Y-116699600D01*
X85589374Y-116699600D02*
X85636993Y-116651980D01*
X85636993Y-116651980D02*
X85684612Y-116556742D01*
X85684612Y-116556742D02*
X85732231Y-116366266D01*
X85732231Y-116366266D02*
X85732231Y-116128171D01*
X85732231Y-116128171D02*
X85684612Y-115937695D01*
X85684612Y-115937695D02*
X85636993Y-115842457D01*
X85636993Y-115842457D02*
X85589374Y-115794838D01*
X85589374Y-115794838D02*
X85494136Y-115747219D01*
X84256041Y-115747219D02*
X84732231Y-115747219D01*
X84732231Y-115747219D02*
X84779850Y-116223409D01*
X84779850Y-116223409D02*
X84732231Y-116175790D01*
X84732231Y-116175790D02*
X84636993Y-116128171D01*
X84636993Y-116128171D02*
X84398898Y-116128171D01*
X84398898Y-116128171D02*
X84303660Y-116175790D01*
X84303660Y-116175790D02*
X84256041Y-116223409D01*
X84256041Y-116223409D02*
X84208422Y-116318647D01*
X84208422Y-116318647D02*
X84208422Y-116556742D01*
X84208422Y-116556742D02*
X84256041Y-116651980D01*
X84256041Y-116651980D02*
X84303660Y-116699600D01*
X84303660Y-116699600D02*
X84398898Y-116747219D01*
X84398898Y-116747219D02*
X84636993Y-116747219D01*
X84636993Y-116747219D02*
X84732231Y-116699600D01*
X84732231Y-116699600D02*
X84779850Y-116651980D01*
X83779850Y-116651980D02*
X83732231Y-116699600D01*
X83732231Y-116699600D02*
X83779850Y-116747219D01*
X83779850Y-116747219D02*
X83827469Y-116699600D01*
X83827469Y-116699600D02*
X83779850Y-116651980D01*
X83779850Y-116651980D02*
X83779850Y-116747219D01*
X83351279Y-115842457D02*
X83303660Y-115794838D01*
X83303660Y-115794838D02*
X83208422Y-115747219D01*
X83208422Y-115747219D02*
X82970327Y-115747219D01*
X82970327Y-115747219D02*
X82875089Y-115794838D01*
X82875089Y-115794838D02*
X82827470Y-115842457D01*
X82827470Y-115842457D02*
X82779851Y-115937695D01*
X82779851Y-115937695D02*
X82779851Y-116032933D01*
X82779851Y-116032933D02*
X82827470Y-116175790D01*
X82827470Y-116175790D02*
X83398898Y-116747219D01*
X83398898Y-116747219D02*
X82779851Y-116747219D01*
X82303660Y-116747219D02*
X82113184Y-116747219D01*
X82113184Y-116747219D02*
X82017946Y-116699600D01*
X82017946Y-116699600D02*
X81970327Y-116651980D01*
X81970327Y-116651980D02*
X81875089Y-116509123D01*
X81875089Y-116509123D02*
X81827470Y-116318647D01*
X81827470Y-116318647D02*
X81827470Y-115937695D01*
X81827470Y-115937695D02*
X81875089Y-115842457D01*
X81875089Y-115842457D02*
X81922708Y-115794838D01*
X81922708Y-115794838D02*
X82017946Y-115747219D01*
X82017946Y-115747219D02*
X82208422Y-115747219D01*
X82208422Y-115747219D02*
X82303660Y-115794838D01*
X82303660Y-115794838D02*
X82351279Y-115842457D01*
X82351279Y-115842457D02*
X82398898Y-115937695D01*
X82398898Y-115937695D02*
X82398898Y-116175790D01*
X82398898Y-116175790D02*
X82351279Y-116271028D01*
X82351279Y-116271028D02*
X82303660Y-116318647D01*
X82303660Y-116318647D02*
X82208422Y-116366266D01*
X82208422Y-116366266D02*
X82017946Y-116366266D01*
X82017946Y-116366266D02*
X81922708Y-116318647D01*
X81922708Y-116318647D02*
X81875089Y-116271028D01*
X81875089Y-116271028D02*
X81827470Y-116175790D01*
D12*
%TO.C,G\u002A\u002A\u002A*%
G36*
X80681069Y-112772613D02*
G01*
X79957078Y-112772613D01*
X79957078Y-110841972D01*
X80681069Y-110841972D01*
X80681069Y-112772613D01*
G37*
G36*
X91420261Y-112772613D02*
G01*
X90696271Y-112772613D01*
X90696271Y-110057649D01*
X91420261Y-110057649D01*
X91420261Y-112772613D01*
G37*
G36*
X85012702Y-110817009D02*
G01*
X85143327Y-110913681D01*
X85202156Y-110973626D01*
X85253986Y-111001735D01*
X85266342Y-110943847D01*
X85269744Y-110914783D01*
X85311902Y-110869496D01*
X85422841Y-110847644D01*
X85628337Y-110841972D01*
X85990333Y-110841972D01*
X85990333Y-112772613D01*
X85266342Y-112772613D01*
X85266342Y-112255820D01*
X85262943Y-112042839D01*
X85240407Y-111783888D01*
X85191736Y-111618668D01*
X85111114Y-111531231D01*
X84992723Y-111505630D01*
X84896041Y-111487058D01*
X84844014Y-111423552D01*
X84842451Y-111389002D01*
X84828793Y-111247148D01*
X84805647Y-111061557D01*
X84794608Y-110976013D01*
X84788684Y-110847301D01*
X84818483Y-110792873D01*
X84893796Y-110781639D01*
X85012702Y-110817009D01*
G37*
G36*
X79171956Y-110821182D02*
G01*
X79398420Y-110942860D01*
X79573984Y-111155524D01*
X79687499Y-111449174D01*
X79727815Y-111813814D01*
X79723764Y-111935502D01*
X79656549Y-112281823D01*
X79510194Y-112548926D01*
X79289280Y-112727270D01*
X79252422Y-112745640D01*
X79054862Y-112818407D01*
X78876007Y-112817731D01*
X78657400Y-112745278D01*
X78447582Y-112657611D01*
X78579409Y-112386271D01*
X78642940Y-112267846D01*
X78747141Y-112143268D01*
X78866580Y-112096860D01*
X78903422Y-112091739D01*
X78981667Y-112059510D01*
X79014962Y-111976261D01*
X79021924Y-111807293D01*
X79021447Y-111742848D01*
X79008214Y-111604560D01*
X78962797Y-111541086D01*
X78866580Y-111517726D01*
X78793812Y-111498788D01*
X78686289Y-111409990D01*
X78579409Y-111228315D01*
X78447582Y-110956974D01*
X78669090Y-110864422D01*
X78905742Y-110800488D01*
X79171956Y-110821182D01*
G37*
G36*
X81709017Y-110815818D02*
G01*
X81860296Y-110929728D01*
X81863229Y-110932660D01*
X81960365Y-111023171D01*
X82000504Y-111030570D01*
X82008385Y-110959895D01*
X82014689Y-110909747D01*
X82058481Y-110866134D01*
X82167897Y-110846523D01*
X82370380Y-110841972D01*
X82732375Y-110841972D01*
X82732375Y-112772613D01*
X82008385Y-112772613D01*
X82008385Y-112137228D01*
X82007635Y-111968969D01*
X82000935Y-111731866D01*
X81984758Y-111582929D01*
X81956060Y-111500965D01*
X81911797Y-111464779D01*
X81841820Y-111453933D01*
X81778005Y-111502191D01*
X81736847Y-111631289D01*
X81714632Y-111854318D01*
X81707646Y-112184371D01*
X81706722Y-112772613D01*
X81043064Y-112772613D01*
X81043064Y-111985294D01*
X81045153Y-111744602D01*
X81060996Y-111399272D01*
X81095949Y-111149718D01*
X81154204Y-110980398D01*
X81239955Y-110875772D01*
X81357394Y-110820298D01*
X81543207Y-110786605D01*
X81709017Y-110815818D01*
G37*
G36*
X81035749Y-106979890D02*
G01*
X81030988Y-107161343D01*
X81015292Y-107267702D01*
X81010126Y-107279015D01*
X80952841Y-107323313D01*
X80828336Y-107339069D01*
X80610770Y-107330282D01*
X80516850Y-107322493D01*
X80327526Y-107292119D01*
X80202014Y-107236041D01*
X80098808Y-107138731D01*
X80082557Y-107119385D01*
X79975096Y-106931255D01*
X79978179Y-106867781D01*
X80198409Y-106867781D01*
X80217428Y-106913132D01*
X80293217Y-107006546D01*
X80296814Y-107010006D01*
X80424593Y-107074640D01*
X80594880Y-107101354D01*
X80608208Y-107101335D01*
X80739867Y-107089807D01*
X80792304Y-107031750D01*
X80801734Y-106890190D01*
X80801475Y-106844194D01*
X80786332Y-106730546D01*
X80721879Y-106686434D01*
X80572470Y-106679027D01*
X80398075Y-106699730D01*
X80253194Y-106767364D01*
X80198409Y-106867781D01*
X79978179Y-106867781D01*
X79983492Y-106758383D01*
X80108043Y-106582910D01*
X80179224Y-106518448D01*
X80280021Y-106464877D01*
X80418571Y-106445479D01*
X80635953Y-106449904D01*
X81012898Y-106467863D01*
X81031240Y-106823102D01*
X81033169Y-106890190D01*
X81035749Y-106979890D01*
G37*
G36*
X84663017Y-111807293D02*
G01*
X84654020Y-111999208D01*
X84579737Y-112314445D01*
X84424005Y-112553336D01*
X84179154Y-112730523D01*
X83918274Y-112807590D01*
X83625517Y-112792553D01*
X83358513Y-112682844D01*
X83349606Y-112676877D01*
X83169736Y-112486706D01*
X83047823Y-112220584D01*
X82989948Y-111910269D01*
X82995329Y-111768426D01*
X83650520Y-111768426D01*
X83651079Y-111948934D01*
X83701190Y-112083000D01*
X83709300Y-112092524D01*
X83821929Y-112171042D01*
X83914248Y-112139786D01*
X83976377Y-112008587D01*
X83998435Y-111787275D01*
X83997018Y-111734237D01*
X83962396Y-111547180D01*
X83886241Y-111460100D01*
X83774829Y-111481574D01*
X83771665Y-111483608D01*
X83692914Y-111595356D01*
X83650520Y-111768426D01*
X82995329Y-111768426D01*
X83002193Y-111587517D01*
X83090640Y-111284086D01*
X83107528Y-111248795D01*
X83287595Y-111005670D01*
X83521389Y-110854522D01*
X83785522Y-110796755D01*
X84056604Y-110833777D01*
X84311249Y-110966992D01*
X84526066Y-111197806D01*
X84537655Y-111215500D01*
X84614085Y-111368895D01*
X84652480Y-111551060D01*
X84662194Y-111787275D01*
X84663017Y-111807293D01*
G37*
G36*
X90378603Y-111572333D02*
G01*
X90401013Y-111879913D01*
X90362388Y-112172580D01*
X90257657Y-112416779D01*
X90242981Y-112437713D01*
X90087687Y-112602780D01*
X89910745Y-112727270D01*
X89885406Y-112739521D01*
X89707259Y-112805784D01*
X89559071Y-112832852D01*
X89533498Y-112832141D01*
X89352085Y-112793386D01*
X89171081Y-112708706D01*
X89012679Y-112596571D01*
X88899071Y-112475454D01*
X88852452Y-112363825D01*
X88895014Y-112280156D01*
X88977162Y-112226398D01*
X89172405Y-112119134D01*
X89312193Y-112085265D01*
X89420386Y-112117398D01*
X89437322Y-112127019D01*
X89567480Y-112156725D01*
X89681840Y-112127674D01*
X89730950Y-112050516D01*
X89730943Y-112050123D01*
X89672989Y-112017649D01*
X89515335Y-111996099D01*
X89278456Y-111988290D01*
X88825962Y-111988290D01*
X88826056Y-111701711D01*
X88851091Y-111490547D01*
X89444371Y-111490547D01*
X89462653Y-111542874D01*
X89580119Y-111565962D01*
X89686168Y-111549216D01*
X89715867Y-111490547D01*
X89685801Y-111450724D01*
X89580119Y-111415131D01*
X89517895Y-111426580D01*
X89444371Y-111490547D01*
X88851091Y-111490547D01*
X88859881Y-111416400D01*
X88976482Y-111139433D01*
X89162784Y-110936389D01*
X89404748Y-110821784D01*
X89688336Y-110810133D01*
X89713215Y-110814143D01*
X89895318Y-110858781D01*
X90030698Y-110915110D01*
X90170967Y-111046658D01*
X90300231Y-111283397D01*
X90356419Y-111490547D01*
X90378603Y-111572333D01*
G37*
G36*
X93214233Y-111572333D02*
G01*
X93236642Y-111879913D01*
X93198017Y-112172580D01*
X93093287Y-112416779D01*
X93078610Y-112437713D01*
X92923316Y-112602780D01*
X92746375Y-112727270D01*
X92721035Y-112739521D01*
X92542888Y-112805784D01*
X92394700Y-112832852D01*
X92369127Y-112832141D01*
X92187714Y-112793386D01*
X92006710Y-112708706D01*
X91848308Y-112596571D01*
X91734701Y-112475454D01*
X91688082Y-112363825D01*
X91730644Y-112280156D01*
X91812791Y-112226398D01*
X92008035Y-112119134D01*
X92147822Y-112085265D01*
X92256016Y-112117398D01*
X92272951Y-112127019D01*
X92403109Y-112156725D01*
X92517470Y-112127674D01*
X92566580Y-112050516D01*
X92566573Y-112050123D01*
X92508619Y-112017649D01*
X92350964Y-111996099D01*
X92114086Y-111988290D01*
X91661592Y-111988290D01*
X91661685Y-111701711D01*
X91686720Y-111490547D01*
X92280000Y-111490547D01*
X92298283Y-111542874D01*
X92415748Y-111565962D01*
X92521798Y-111549216D01*
X92551497Y-111490547D01*
X92521431Y-111450724D01*
X92415748Y-111415131D01*
X92353525Y-111426580D01*
X92280000Y-111490547D01*
X91686720Y-111490547D01*
X91695511Y-111416400D01*
X91812111Y-111139433D01*
X91998413Y-110936389D01*
X92240377Y-110821784D01*
X92523965Y-110810133D01*
X92548844Y-110814143D01*
X92730947Y-110858781D01*
X92866327Y-110915110D01*
X93006597Y-111046658D01*
X93135860Y-111283397D01*
X93192049Y-111490547D01*
X93214233Y-111572333D01*
G37*
G36*
X87136651Y-110623775D02*
G01*
X87141242Y-110719015D01*
X87182141Y-110815103D01*
X87287448Y-110856732D01*
X87307727Y-110859807D01*
X87477687Y-110857496D01*
X87669544Y-110823821D01*
X87792964Y-110797626D01*
X87951335Y-110804842D01*
X88133353Y-110877444D01*
X88223760Y-110929497D01*
X88431727Y-111137213D01*
X88555650Y-111429029D01*
X88596698Y-111807293D01*
X88592633Y-111931508D01*
X88525759Y-112280721D01*
X88379688Y-112548592D01*
X88158164Y-112727270D01*
X88121305Y-112745640D01*
X87923746Y-112818407D01*
X87744890Y-112817731D01*
X87526283Y-112745278D01*
X87316466Y-112657611D01*
X87448293Y-112386271D01*
X87511824Y-112267846D01*
X87616025Y-112143268D01*
X87735464Y-112096860D01*
X87772306Y-112091739D01*
X87850550Y-112059510D01*
X87883846Y-111976261D01*
X87890808Y-111807293D01*
X87890311Y-111741466D01*
X87876963Y-111603918D01*
X87831238Y-111540881D01*
X87734375Y-111517621D01*
X87607315Y-111467865D01*
X87481820Y-111306457D01*
X87385698Y-111113468D01*
X87381840Y-111279383D01*
X87381736Y-111283346D01*
X87352373Y-111408740D01*
X87263319Y-111445297D01*
X87228193Y-111448842D01*
X87184782Y-111480843D01*
X87157380Y-111565198D01*
X87140229Y-111724676D01*
X87127571Y-111982043D01*
X87116153Y-112197806D01*
X87091811Y-112411166D01*
X87052485Y-112550983D01*
X86992620Y-112644521D01*
X86974244Y-112663212D01*
X86791187Y-112770849D01*
X86555917Y-112823611D01*
X86322558Y-112808270D01*
X86276600Y-112794876D01*
X86207657Y-112748409D01*
X86177797Y-112651756D01*
X86171330Y-112469801D01*
X86171612Y-112419034D01*
X86182301Y-112260907D01*
X86216595Y-112187348D01*
X86285540Y-112169288D01*
X86333615Y-112163874D01*
X86415864Y-112102123D01*
X86459915Y-111957328D01*
X86472993Y-111711859D01*
X86472112Y-111617397D01*
X86456589Y-111499765D01*
X86404026Y-111453409D01*
X86291995Y-111445297D01*
X86202614Y-111441910D01*
X86139266Y-111411261D01*
X86114952Y-111322212D01*
X86110998Y-111143635D01*
X86113030Y-110994666D01*
X86131419Y-110889085D01*
X86184849Y-110848563D01*
X86291995Y-110841972D01*
X86411725Y-110830871D01*
X86462903Y-110772681D01*
X86472993Y-110630808D01*
X86472993Y-110419644D01*
X87136651Y-110419644D01*
X87136651Y-110623775D01*
G37*
G36*
X87671925Y-105170713D02*
G01*
X89613272Y-105170713D01*
X89671183Y-105323031D01*
X89681781Y-105352952D01*
X89729419Y-105501590D01*
X89799587Y-105731419D01*
X89884644Y-106017176D01*
X89976945Y-106333601D01*
X90015494Y-106466165D01*
X90103678Y-106762470D01*
X90180548Y-107011476D01*
X90238930Y-107190247D01*
X90271649Y-107275844D01*
X90290621Y-107274417D01*
X90345934Y-107180543D01*
X90430520Y-106979828D01*
X90542084Y-106677893D01*
X90678329Y-106280357D01*
X91038155Y-105200879D01*
X93260404Y-105200879D01*
X93260404Y-105408900D01*
X93260404Y-109967150D01*
X91631425Y-109967150D01*
X91639945Y-109047079D01*
X91641228Y-108871639D01*
X91641670Y-108576884D01*
X91639772Y-108340740D01*
X91635761Y-108183888D01*
X91629865Y-108127008D01*
X91621963Y-108140843D01*
X91581558Y-108244659D01*
X91514213Y-108433471D01*
X91426922Y-108687445D01*
X91326680Y-108986746D01*
X91279233Y-109128669D01*
X91178266Y-109421347D01*
X91089685Y-109665954D01*
X91021685Y-109840227D01*
X90982461Y-109921901D01*
X90933514Y-109945100D01*
X90785513Y-109971465D01*
X90574751Y-109990108D01*
X90334763Y-109999858D01*
X90099084Y-109999545D01*
X89901248Y-109987998D01*
X89774789Y-109964048D01*
X89752905Y-109941562D01*
X89689719Y-109819876D01*
X89603910Y-109609738D01*
X89502567Y-109329111D01*
X89392777Y-108995960D01*
X89097459Y-108061139D01*
X89067292Y-109014145D01*
X89037126Y-109967150D01*
X87347815Y-109967150D01*
X87317649Y-108052208D01*
X87287482Y-106137267D01*
X86660175Y-107931543D01*
X86586641Y-108141185D01*
X86432765Y-108575391D01*
X86290618Y-108970633D01*
X86165728Y-109311892D01*
X86063623Y-109584147D01*
X85989830Y-109772379D01*
X85949877Y-109861568D01*
X85926084Y-109897572D01*
X85883690Y-109938423D01*
X85815957Y-109966264D01*
X85703821Y-109983584D01*
X85528217Y-109992873D01*
X85270080Y-109996620D01*
X84910343Y-109997316D01*
X84681185Y-109996421D01*
X84341247Y-109989656D01*
X84104348Y-109975543D01*
X83959121Y-109953239D01*
X83894197Y-109921901D01*
X83884928Y-109905298D01*
X83835675Y-109790220D01*
X83753664Y-109581814D01*
X83644397Y-109294639D01*
X83513375Y-108943253D01*
X83366098Y-108542216D01*
X83208069Y-108106085D01*
X82581544Y-106365686D01*
X82551378Y-108166418D01*
X82524749Y-109755986D01*
X82521211Y-109967150D01*
X80831900Y-109967150D01*
X80771568Y-108648564D01*
X80454822Y-109255035D01*
X80340983Y-109474975D01*
X80235754Y-109682689D01*
X80164370Y-109828849D01*
X80138076Y-109890879D01*
X80173390Y-109903290D01*
X80283003Y-109892546D01*
X80358981Y-109888105D01*
X80510914Y-109948195D01*
X80619373Y-110081019D01*
X80672008Y-110255052D01*
X80656469Y-110438768D01*
X80560404Y-110600642D01*
X80448492Y-110685356D01*
X80277450Y-110711673D01*
X80084253Y-110622544D01*
X79996539Y-110542061D01*
X79963632Y-110436594D01*
X79972919Y-110260548D01*
X80002589Y-109997316D01*
X79076777Y-109997316D01*
X78680995Y-109993014D01*
X78383796Y-109980499D01*
X78192477Y-109960258D01*
X78114338Y-109932780D01*
X78111879Y-109911751D01*
X78147415Y-109801182D01*
X78169433Y-109755986D01*
X78434887Y-109755986D01*
X79180900Y-109754966D01*
X79926912Y-109753946D01*
X80369264Y-108906838D01*
X80541040Y-108582778D01*
X80700368Y-108302827D01*
X80819513Y-108132273D01*
X80904681Y-108071309D01*
X80962077Y-108120125D01*
X80997906Y-108278912D01*
X81018373Y-108547861D01*
X81029684Y-108927163D01*
X81046469Y-109755986D01*
X82310048Y-109755986D01*
X82309124Y-107659430D01*
X82307967Y-107252502D01*
X82304110Y-106787829D01*
X82297893Y-106371703D01*
X82289665Y-106018548D01*
X82279775Y-105742787D01*
X82268573Y-105558843D01*
X82256408Y-105481139D01*
X82255277Y-105479442D01*
X82212871Y-105451668D01*
X82121073Y-105432089D01*
X81965647Y-105420058D01*
X81732359Y-105414926D01*
X81406977Y-105416044D01*
X80975265Y-105422764D01*
X80671619Y-105429064D01*
X80315091Y-105439247D01*
X80046949Y-105452235D01*
X79848002Y-105469909D01*
X79699059Y-105494149D01*
X79580928Y-105526837D01*
X79474418Y-105569852D01*
X79390826Y-105611037D01*
X79071378Y-105843590D01*
X78846260Y-106145562D01*
X78722977Y-106503861D01*
X78709031Y-106905394D01*
X78715606Y-106958558D01*
X78817152Y-107306037D01*
X79005468Y-107594668D01*
X79265841Y-107800791D01*
X79304534Y-107823148D01*
X79425625Y-107918250D01*
X79474418Y-108000598D01*
X79474416Y-108000906D01*
X79441857Y-108085679D01*
X79349805Y-108259748D01*
X79204992Y-108511675D01*
X79014147Y-108830024D01*
X78784001Y-109203357D01*
X78521285Y-109620238D01*
X78434887Y-109755986D01*
X78169433Y-109755986D01*
X78231684Y-109628205D01*
X78352107Y-109419953D01*
X78357792Y-109410774D01*
X78534105Y-109126112D01*
X78729339Y-108810907D01*
X78902266Y-108531721D01*
X79174770Y-108091779D01*
X78883230Y-107789312D01*
X78789644Y-107685872D01*
X78574128Y-107356525D01*
X78468758Y-107000063D01*
X78465592Y-106593751D01*
X78555433Y-106193515D01*
X78747316Y-105834120D01*
X79034066Y-105547430D01*
X79410980Y-105339688D01*
X79483279Y-105312392D01*
X79614063Y-105272081D01*
X79761217Y-105242166D01*
X79945600Y-105220508D01*
X80188071Y-105204962D01*
X80509489Y-105193389D01*
X80930713Y-105183647D01*
X82115510Y-105160001D01*
X82110396Y-105042661D01*
X82370380Y-105042661D01*
X82385035Y-105083620D01*
X82460879Y-105170713D01*
X82519913Y-105259709D01*
X82551378Y-105410028D01*
X82570334Y-105499222D01*
X82626369Y-105689221D01*
X82714857Y-105965111D01*
X82831158Y-106313016D01*
X82970629Y-106719056D01*
X83128629Y-107169352D01*
X83300517Y-107650027D01*
X84049656Y-109725820D01*
X84900191Y-109742565D01*
X85046533Y-109745389D01*
X85339676Y-109749530D01*
X85539671Y-109747295D01*
X85666200Y-109736048D01*
X85738946Y-109713156D01*
X85777593Y-109675985D01*
X85801823Y-109621900D01*
X85802883Y-109619032D01*
X85837061Y-109523999D01*
X85906290Y-109329755D01*
X86005780Y-109049795D01*
X86130744Y-108697613D01*
X86276393Y-108286704D01*
X86437938Y-107830563D01*
X86610592Y-107342685D01*
X86626476Y-107297786D01*
X86797757Y-106813957D01*
X86957091Y-106364456D01*
X87099767Y-105962524D01*
X87221079Y-105621401D01*
X87295737Y-105412043D01*
X87558979Y-105412043D01*
X87558979Y-109755986D01*
X88832297Y-109755986D01*
X88822240Y-108513992D01*
X88820939Y-108053401D01*
X88826485Y-107692901D01*
X88840386Y-107433033D01*
X88864060Y-107263746D01*
X88898926Y-107174987D01*
X88946404Y-107156702D01*
X89007912Y-107198839D01*
X89016988Y-107212754D01*
X89065305Y-107322709D01*
X89142294Y-107523387D01*
X89241495Y-107797108D01*
X89356451Y-108126196D01*
X89480703Y-108492972D01*
X89892209Y-109725820D01*
X90830699Y-109725820D01*
X91248383Y-108443753D01*
X91269561Y-108378803D01*
X91402889Y-107974041D01*
X91507041Y-107668979D01*
X91587811Y-107449974D01*
X91650994Y-107303385D01*
X91702385Y-107215569D01*
X91747780Y-107172884D01*
X91792972Y-107161687D01*
X91793053Y-107161687D01*
X91834678Y-107164443D01*
X91865453Y-107182715D01*
X91886343Y-107231516D01*
X91898310Y-107325857D01*
X91902318Y-107480748D01*
X91899330Y-107711201D01*
X91890310Y-108032227D01*
X91876220Y-108458837D01*
X91832564Y-109755986D01*
X93049240Y-109755986D01*
X93049240Y-105408900D01*
X92132746Y-105425555D01*
X91216252Y-105442209D01*
X90817437Y-106603670D01*
X90792611Y-106675690D01*
X90668846Y-107026511D01*
X90554811Y-107336912D01*
X90457621Y-107588383D01*
X90384387Y-107762412D01*
X90342221Y-107840487D01*
X90320068Y-107859584D01*
X90272966Y-107874464D01*
X90224689Y-107841953D01*
X90170257Y-107750519D01*
X90104688Y-107588624D01*
X90023001Y-107344736D01*
X89920214Y-107007318D01*
X89791348Y-106564836D01*
X89459584Y-105412043D01*
X87558979Y-105412043D01*
X87295737Y-105412043D01*
X87316318Y-105354329D01*
X87380775Y-105174547D01*
X87409743Y-105095297D01*
X87418312Y-105057333D01*
X87396801Y-105026607D01*
X87325102Y-105006876D01*
X87185597Y-104995747D01*
X86960669Y-104990824D01*
X86632701Y-104989715D01*
X85814179Y-104989715D01*
X85748106Y-105215962D01*
X85738465Y-105249721D01*
X85693605Y-105412239D01*
X85625516Y-105663097D01*
X85539761Y-105981659D01*
X85441902Y-106347291D01*
X85337499Y-106739359D01*
X85316018Y-106820250D01*
X85193552Y-107277039D01*
X85092514Y-107629062D01*
X85007160Y-107874982D01*
X84931746Y-108013459D01*
X84860530Y-108043157D01*
X84787767Y-107962736D01*
X84707716Y-107770860D01*
X84614631Y-107466189D01*
X84502770Y-107047386D01*
X84366390Y-106513112D01*
X83979264Y-104989715D01*
X83174822Y-104989715D01*
X83099681Y-104989946D01*
X82813788Y-104995383D01*
X82582195Y-105006951D01*
X82427020Y-105023196D01*
X82370380Y-105042661D01*
X82110396Y-105042661D01*
X82107197Y-104969276D01*
X82098884Y-104778552D01*
X83089809Y-104761923D01*
X83322041Y-104759497D01*
X83631034Y-104761272D01*
X83883460Y-104768732D01*
X84057968Y-104781143D01*
X84133211Y-104797772D01*
X84142509Y-104814767D01*
X84183060Y-104930536D01*
X84245643Y-105138291D01*
X84325226Y-105420395D01*
X84416777Y-105759212D01*
X84515266Y-106137103D01*
X84558555Y-106305486D01*
X84652265Y-106665440D01*
X84734969Y-106976988D01*
X84802026Y-107222984D01*
X84848793Y-107386284D01*
X84870630Y-107449744D01*
X84878252Y-107449391D01*
X84913663Y-107382369D01*
X84957243Y-107243193D01*
X85015821Y-107019904D01*
X85188454Y-106368447D01*
X85333390Y-105832715D01*
X85450977Y-105411475D01*
X85541566Y-105103494D01*
X85605505Y-104907540D01*
X85643144Y-104822381D01*
X85696193Y-104793659D01*
X85816288Y-104773016D01*
X86015795Y-104761384D01*
X86308405Y-104757987D01*
X86707806Y-104762048D01*
X87709810Y-104778552D01*
X87690867Y-104974632D01*
X87682878Y-105057333D01*
X87671925Y-105170713D01*
G37*
D13*
%TO.C,REF\u002A\u002A*%
X207493366Y-113693172D02*
X207461796Y-113712837D01*
X207426314Y-113741568D01*
X207426314Y-114169661D01*
X207426427Y-114294885D01*
X207426911Y-114393542D01*
X207427984Y-114469125D01*
X207429862Y-114525128D01*
X207432764Y-114565042D01*
X207436907Y-114592361D01*
X207442508Y-114610576D01*
X207449785Y-114623181D01*
X207454946Y-114629391D01*
X207496802Y-114656675D01*
X207544465Y-114655562D01*
X207586217Y-114632297D01*
X207621699Y-114603566D01*
X207621699Y-113741568D01*
X207586217Y-113712837D01*
X207551972Y-113691937D01*
X207524007Y-113684105D01*
X207493366Y-113693172D01*
G36*
X207551972Y-113691937D02*
G01*
X207586217Y-113712837D01*
X207621699Y-113741568D01*
X207621699Y-114603566D01*
X207586217Y-114632297D01*
X207544465Y-114655562D01*
X207496802Y-114656675D01*
X207454946Y-114629391D01*
X207449785Y-114623181D01*
X207442508Y-114610576D01*
X207436907Y-114592361D01*
X207432764Y-114565042D01*
X207429862Y-114525128D01*
X207427984Y-114469125D01*
X207426911Y-114393542D01*
X207426427Y-114294885D01*
X207426314Y-114169661D01*
X207426314Y-113741568D01*
X207461796Y-113712837D01*
X207493366Y-113693172D01*
X207524007Y-113684105D01*
X207551972Y-113691937D01*
G37*
X216962587Y-113714165D02*
X216953825Y-113724247D01*
X216946952Y-113737254D01*
X216941739Y-113756670D01*
X216937958Y-113785979D01*
X216935380Y-113828666D01*
X216933777Y-113888214D01*
X216932919Y-113968109D01*
X216932580Y-114071835D01*
X216932527Y-114172567D01*
X216932620Y-114297511D01*
X216933051Y-114395880D01*
X216934047Y-114471160D01*
X216935839Y-114526833D01*
X216938653Y-114566385D01*
X216942720Y-114593300D01*
X216948266Y-114611062D01*
X216955521Y-114623156D01*
X216962587Y-114630969D01*
X217006526Y-114657171D01*
X217053344Y-114654820D01*
X217095233Y-114626243D01*
X217104858Y-114615086D01*
X217112379Y-114602142D01*
X217118058Y-114583831D01*
X217122151Y-114556577D01*
X217124919Y-114516799D01*
X217126620Y-114460921D01*
X217127513Y-114385363D01*
X217127857Y-114286547D01*
X217127912Y-114174673D01*
X217127912Y-113757887D01*
X217091021Y-113720996D01*
X217045549Y-113689959D01*
X217001440Y-113688840D01*
X216962587Y-113714165D01*
G36*
X217045549Y-113689959D02*
G01*
X217091021Y-113720996D01*
X217127912Y-113757887D01*
X217127912Y-114174673D01*
X217127857Y-114286547D01*
X217127513Y-114385363D01*
X217126620Y-114460921D01*
X217124919Y-114516799D01*
X217122151Y-114556577D01*
X217118058Y-114583831D01*
X217112379Y-114602142D01*
X217104858Y-114615086D01*
X217095233Y-114626243D01*
X217053344Y-114654820D01*
X217006526Y-114657171D01*
X216962587Y-114630969D01*
X216955521Y-114623156D01*
X216948266Y-114611062D01*
X216942720Y-114593300D01*
X216938653Y-114566385D01*
X216935839Y-114526833D01*
X216934047Y-114471160D01*
X216933051Y-114395880D01*
X216932620Y-114297511D01*
X216932527Y-114172567D01*
X216932580Y-114071835D01*
X216932919Y-113968109D01*
X216933777Y-113888214D01*
X216935380Y-113828666D01*
X216937958Y-113785979D01*
X216941739Y-113756670D01*
X216946952Y-113737254D01*
X216953825Y-113724247D01*
X216962587Y-113714165D01*
X217001440Y-113688840D01*
X217045549Y-113689959D01*
G37*
X216847288Y-105161628D02*
X216711041Y-105208867D01*
X216584191Y-105283222D01*
X216470903Y-105384682D01*
X216375342Y-105513238D01*
X216332416Y-105594267D01*
X216295265Y-105707603D01*
X216277258Y-105838446D01*
X216279253Y-105972960D01*
X216301393Y-106094853D01*
X216361906Y-106243802D01*
X216449656Y-106373004D01*
X216560182Y-106479918D01*
X216689024Y-106562001D01*
X216831723Y-106616711D01*
X216983819Y-106641505D01*
X217140851Y-106633842D01*
X217218256Y-106617467D01*
X217369111Y-106558784D01*
X217503095Y-106469238D01*
X217616976Y-106351588D01*
X217707522Y-106208597D01*
X217715182Y-106192981D01*
X217741664Y-106134381D01*
X217758292Y-106085029D01*
X217767320Y-106032965D01*
X217771002Y-105966234D01*
X217771613Y-105893624D01*
X217770603Y-105806386D01*
X217766042Y-105743319D01*
X217755636Y-105692331D01*
X217737091Y-105641328D01*
X217714200Y-105591008D01*
X217628816Y-105448165D01*
X217523669Y-105332505D01*
X217402925Y-105244020D01*
X217270749Y-105182700D01*
X217131307Y-105148534D01*
X216988765Y-105141513D01*
X216847288Y-105161628D01*
G36*
X217131307Y-105148534D02*
G01*
X217270749Y-105182700D01*
X217402925Y-105244020D01*
X217523669Y-105332505D01*
X217628816Y-105448165D01*
X217714200Y-105591008D01*
X217737091Y-105641328D01*
X217755636Y-105692331D01*
X217766042Y-105743319D01*
X217770603Y-105806386D01*
X217771613Y-105893624D01*
X217771002Y-105966234D01*
X217767320Y-106032965D01*
X217758292Y-106085029D01*
X217741664Y-106134381D01*
X217715182Y-106192981D01*
X217707522Y-106208597D01*
X217616976Y-106351588D01*
X217503095Y-106469238D01*
X217369111Y-106558784D01*
X217218256Y-106617467D01*
X217140851Y-106633842D01*
X216983819Y-106641505D01*
X216831723Y-106616711D01*
X216689024Y-106562001D01*
X216560182Y-106479918D01*
X216449656Y-106373004D01*
X216361906Y-106243802D01*
X216301393Y-106094853D01*
X216279253Y-105972960D01*
X216277258Y-105838446D01*
X216295265Y-105707603D01*
X216332416Y-105594267D01*
X216375342Y-105513238D01*
X216470903Y-105384682D01*
X216584191Y-105283222D01*
X216711041Y-105208867D01*
X216847288Y-105161628D01*
X216988765Y-105141513D01*
X217131307Y-105148534D01*
G37*
X206462293Y-113684234D02*
X206357505Y-113684738D01*
X206276171Y-113685791D01*
X206214990Y-113687571D01*
X206170659Y-113690252D01*
X206139876Y-113694009D01*
X206119339Y-113699020D01*
X206105745Y-113705458D01*
X206099167Y-113710407D01*
X206065026Y-113753724D01*
X206060896Y-113798698D01*
X206081994Y-113839555D01*
X206095791Y-113855881D01*
X206110638Y-113867013D01*
X206132155Y-113873945D01*
X206165962Y-113877672D01*
X206217678Y-113879189D01*
X206292923Y-113879489D01*
X206307701Y-113879490D01*
X206501995Y-113879490D01*
X206501995Y-114240200D01*
X206502123Y-114353896D01*
X206502704Y-114441380D01*
X206504034Y-114506497D01*
X206506410Y-114553093D01*
X206510126Y-114585014D01*
X206515478Y-114606107D01*
X206522763Y-114620218D01*
X206532054Y-114630969D01*
X206575899Y-114657391D01*
X206621670Y-114655309D01*
X206663180Y-114625164D01*
X206666229Y-114621428D01*
X206676158Y-114607305D01*
X206683722Y-114590781D01*
X206689241Y-114567841D01*
X206693037Y-114534468D01*
X206695428Y-114486650D01*
X206696736Y-114420369D01*
X206697279Y-114331613D01*
X206697379Y-114230658D01*
X206697379Y-113879490D01*
X206882920Y-113879490D01*
X206962543Y-113878951D01*
X207017666Y-113876852D01*
X207053838Y-113872466D01*
X207076608Y-113865071D01*
X207091523Y-113853940D01*
X207093334Y-113852005D01*
X207115112Y-113807752D01*
X207113186Y-113757724D01*
X207088149Y-113714165D01*
X207078466Y-113705715D01*
X207065982Y-113699016D01*
X207047367Y-113693864D01*
X207019293Y-113690056D01*
X206978429Y-113687392D01*
X206921448Y-113685667D01*
X206845018Y-113684679D01*
X206745813Y-113684227D01*
X206620501Y-113684107D01*
X206593837Y-113684105D01*
X206462293Y-113684234D01*
G36*
X206620501Y-113684107D02*
G01*
X206745813Y-113684227D01*
X206845018Y-113684679D01*
X206921448Y-113685667D01*
X206978429Y-113687392D01*
X207019293Y-113690056D01*
X207047367Y-113693864D01*
X207065982Y-113699016D01*
X207078466Y-113705715D01*
X207088149Y-113714165D01*
X207113186Y-113757724D01*
X207115112Y-113807752D01*
X207093334Y-113852005D01*
X207091523Y-113853940D01*
X207076608Y-113865071D01*
X207053838Y-113872466D01*
X207017666Y-113876852D01*
X206962543Y-113878951D01*
X206882920Y-113879490D01*
X206697379Y-113879490D01*
X206697379Y-114230658D01*
X206697279Y-114331613D01*
X206696736Y-114420369D01*
X206695428Y-114486650D01*
X206693037Y-114534468D01*
X206689241Y-114567841D01*
X206683722Y-114590781D01*
X206676158Y-114607305D01*
X206666229Y-114621428D01*
X206663180Y-114625164D01*
X206621670Y-114655309D01*
X206575899Y-114657391D01*
X206532054Y-114630969D01*
X206522763Y-114620218D01*
X206515478Y-114606107D01*
X206510126Y-114585014D01*
X206506410Y-114553093D01*
X206504034Y-114506497D01*
X206502704Y-114441380D01*
X206502123Y-114353896D01*
X206501995Y-114240200D01*
X206501995Y-113879490D01*
X206307701Y-113879490D01*
X206292923Y-113879489D01*
X206217678Y-113879189D01*
X206165962Y-113877672D01*
X206132155Y-113873945D01*
X206110638Y-113867013D01*
X206095791Y-113855881D01*
X206081994Y-113839555D01*
X206060896Y-113798698D01*
X206065026Y-113753724D01*
X206099167Y-113710407D01*
X206105745Y-113705458D01*
X206119339Y-113699020D01*
X206139876Y-113694009D01*
X206170659Y-113690252D01*
X206214990Y-113687571D01*
X206276171Y-113685791D01*
X206357505Y-113684738D01*
X206462293Y-113684234D01*
X206593837Y-113684105D01*
X206620501Y-113684107D01*
G37*
X204777111Y-113691383D02*
X204735335Y-113720996D01*
X204698445Y-113757887D01*
X204698445Y-114169857D01*
X204698541Y-114292181D01*
X204698998Y-114388093D01*
X204700067Y-114461239D01*
X204701999Y-114515265D01*
X204705047Y-114553818D01*
X204709461Y-114580543D01*
X204715494Y-114599089D01*
X204723396Y-114613100D01*
X204729595Y-114621428D01*
X204770509Y-114654144D01*
X204817488Y-114657695D01*
X204860426Y-114637632D01*
X204874614Y-114625787D01*
X204884098Y-114610053D01*
X204889819Y-114584717D01*
X204892717Y-114544065D01*
X204893732Y-114482383D01*
X204893829Y-114434733D01*
X204893829Y-114255230D01*
X205555131Y-114255230D01*
X205555131Y-114418528D01*
X205555815Y-114493200D01*
X205558551Y-114544519D01*
X205564366Y-114579172D01*
X205574286Y-114603850D01*
X205586281Y-114621428D01*
X205627424Y-114654052D01*
X205673953Y-114657915D01*
X205718497Y-114634727D01*
X205730658Y-114622571D01*
X205739247Y-114606456D01*
X205744912Y-114581355D01*
X205748301Y-114542239D01*
X205750062Y-114484081D01*
X205750842Y-114401853D01*
X205750934Y-114382981D01*
X205751578Y-114228052D01*
X205751910Y-114100369D01*
X205751802Y-113997122D01*
X205751125Y-113915498D01*
X205749752Y-113852687D01*
X205747554Y-113805876D01*
X205744404Y-113772254D01*
X205740172Y-113749010D01*
X205734732Y-113733331D01*
X205727955Y-113722406D01*
X205720456Y-113714165D01*
X205678037Y-113687802D01*
X205633798Y-113691383D01*
X205592022Y-113720996D01*
X205575117Y-113740102D01*
X205564341Y-113761206D01*
X205558329Y-113791263D01*
X205555714Y-113837228D01*
X205555131Y-113906055D01*
X205555131Y-114059845D01*
X204893829Y-114059845D01*
X204893829Y-113902034D01*
X204893154Y-113829331D01*
X204890444Y-113780240D01*
X204884669Y-113748331D01*
X204874801Y-113727173D01*
X204863770Y-113714165D01*
X204821351Y-113687802D01*
X204777111Y-113691383D01*
G36*
X205720456Y-113714165D02*
G01*
X205727955Y-113722406D01*
X205734732Y-113733331D01*
X205740172Y-113749010D01*
X205744404Y-113772254D01*
X205747554Y-113805876D01*
X205749752Y-113852687D01*
X205751125Y-113915498D01*
X205751802Y-113997122D01*
X205751910Y-114100369D01*
X205751578Y-114228052D01*
X205750934Y-114382981D01*
X205750842Y-114401853D01*
X205750062Y-114484081D01*
X205748301Y-114542239D01*
X205744912Y-114581355D01*
X205739247Y-114606456D01*
X205730658Y-114622571D01*
X205718497Y-114634727D01*
X205673953Y-114657915D01*
X205627424Y-114654052D01*
X205586281Y-114621428D01*
X205574286Y-114603850D01*
X205564366Y-114579172D01*
X205558551Y-114544519D01*
X205555815Y-114493200D01*
X205555131Y-114418528D01*
X205555131Y-114255230D01*
X204893829Y-114255230D01*
X204893829Y-114434733D01*
X204893732Y-114482383D01*
X204892717Y-114544065D01*
X204889819Y-114584717D01*
X204884098Y-114610053D01*
X204874614Y-114625787D01*
X204860426Y-114637632D01*
X204817488Y-114657695D01*
X204770509Y-114654144D01*
X204729595Y-114621428D01*
X204723396Y-114613100D01*
X204715494Y-114599089D01*
X204709461Y-114580543D01*
X204705047Y-114553818D01*
X204701999Y-114515265D01*
X204700067Y-114461239D01*
X204698998Y-114388093D01*
X204698541Y-114292181D01*
X204698445Y-114169857D01*
X204698445Y-113757887D01*
X204735335Y-113720996D01*
X204777111Y-113691383D01*
X204821351Y-113687802D01*
X204863770Y-113714165D01*
X204874801Y-113727173D01*
X204884669Y-113748331D01*
X204890444Y-113780240D01*
X204893154Y-113829331D01*
X204893829Y-113902034D01*
X204893829Y-114059845D01*
X205555131Y-114059845D01*
X205555131Y-113906055D01*
X205555714Y-113837228D01*
X205558329Y-113791263D01*
X205564341Y-113761206D01*
X205575117Y-113740102D01*
X205592022Y-113720996D01*
X205633798Y-113691383D01*
X205678037Y-113687802D01*
X205720456Y-113714165D01*
G37*
X211714187Y-113684382D02*
X211542469Y-113690188D01*
X211396415Y-113707796D01*
X211273617Y-113738258D01*
X211171667Y-113782630D01*
X211088156Y-113841966D01*
X211020677Y-113917319D01*
X210966821Y-114009745D01*
X210965762Y-114011999D01*
X210933621Y-114094719D01*
X210922169Y-114167979D01*
X210931450Y-114241707D01*
X210961509Y-114325830D01*
X210967209Y-114338632D01*
X211006085Y-114413557D01*
X211049775Y-114471452D01*
X211106164Y-114520667D01*
X211183132Y-114569552D01*
X211187604Y-114572104D01*
X211254607Y-114604290D01*
X211330339Y-114628327D01*
X211419666Y-114645046D01*
X211527455Y-114655274D01*
X211658572Y-114659841D01*
X211704898Y-114660238D01*
X211925494Y-114661029D01*
X211956644Y-114621428D01*
X211965884Y-114608406D01*
X211973092Y-114593199D01*
X211978520Y-114572161D01*
X211982419Y-114541645D01*
X211985041Y-114498006D01*
X211985896Y-114465644D01*
X211777379Y-114465644D01*
X211652388Y-114465644D01*
X211579247Y-114463505D01*
X211504163Y-114457876D01*
X211442540Y-114449938D01*
X211438821Y-114449270D01*
X211329371Y-114419907D01*
X211244476Y-114375792D01*
X211181452Y-114314878D01*
X211137610Y-114235119D01*
X211129987Y-114213979D01*
X211122514Y-114181057D01*
X211125749Y-114148531D01*
X211141491Y-114105259D01*
X211150980Y-114084002D01*
X211182053Y-114027515D01*
X211219491Y-113987886D01*
X211260683Y-113960289D01*
X211343194Y-113924377D01*
X211448791Y-113898363D01*
X211571806Y-113883383D01*
X211660900Y-113880087D01*
X211777379Y-113879490D01*
X211777379Y-114465644D01*
X211985896Y-114465644D01*
X211986638Y-114437595D01*
X211987460Y-114356767D01*
X211987760Y-114251876D01*
X211987794Y-114169857D01*
X211987794Y-113757887D01*
X211950903Y-113720996D01*
X211934530Y-113706043D01*
X211916827Y-113695803D01*
X211892105Y-113689396D01*
X211854676Y-113685942D01*
X211798851Y-113684562D01*
X211718942Y-113684376D01*
X211714187Y-113684382D01*
G36*
X211985041Y-114498006D02*
G01*
X211982419Y-114541645D01*
X211978520Y-114572161D01*
X211973092Y-114593199D01*
X211965884Y-114608406D01*
X211956644Y-114621428D01*
X211925494Y-114661029D01*
X211704898Y-114660238D01*
X211658572Y-114659841D01*
X211527455Y-114655274D01*
X211419666Y-114645046D01*
X211330339Y-114628327D01*
X211254607Y-114604290D01*
X211187604Y-114572104D01*
X211183132Y-114569552D01*
X211106164Y-114520667D01*
X211049775Y-114471452D01*
X211006085Y-114413557D01*
X210967209Y-114338632D01*
X210961509Y-114325830D01*
X210931450Y-114241707D01*
X210923815Y-114181057D01*
X211122514Y-114181057D01*
X211129987Y-114213979D01*
X211137610Y-114235119D01*
X211181452Y-114314878D01*
X211244476Y-114375792D01*
X211329371Y-114419907D01*
X211438821Y-114449270D01*
X211442540Y-114449938D01*
X211504163Y-114457876D01*
X211579247Y-114463505D01*
X211652388Y-114465644D01*
X211777379Y-114465644D01*
X211777379Y-113879490D01*
X211660900Y-113880087D01*
X211571806Y-113883383D01*
X211448791Y-113898363D01*
X211343194Y-113924377D01*
X211260683Y-113960289D01*
X211219491Y-113987886D01*
X211182053Y-114027515D01*
X211150980Y-114084002D01*
X211141491Y-114105259D01*
X211125749Y-114148531D01*
X211122514Y-114181057D01*
X210923815Y-114181057D01*
X210922169Y-114167979D01*
X210933621Y-114094719D01*
X210965762Y-114011999D01*
X210966821Y-114009745D01*
X211020677Y-113917319D01*
X211088156Y-113841966D01*
X211171667Y-113782630D01*
X211273617Y-113738258D01*
X211396415Y-113707796D01*
X211542469Y-113690188D01*
X211714187Y-113684382D01*
X211718942Y-113684376D01*
X211798851Y-113684562D01*
X211854676Y-113685942D01*
X211892105Y-113689396D01*
X211916827Y-113695803D01*
X211934530Y-113706043D01*
X211950903Y-113720996D01*
X211987794Y-113757887D01*
X211987794Y-114169857D01*
X211987760Y-114251876D01*
X211987460Y-114356767D01*
X211986638Y-114437595D01*
X211985896Y-114465644D01*
X211985041Y-114498006D01*
G37*
X221219678Y-113684104D02*
X221167113Y-113684639D01*
X221013089Y-113688355D01*
X220884095Y-113699394D01*
X220775733Y-113718941D01*
X220683608Y-113748178D01*
X220603323Y-113788292D01*
X220530482Y-113840464D01*
X220504465Y-113863128D01*
X220461307Y-113916157D01*
X220422391Y-113988116D01*
X220392397Y-114067879D01*
X220376005Y-114144320D01*
X220374302Y-114172567D01*
X220384975Y-114250869D01*
X220413577Y-114336400D01*
X220454981Y-114417358D01*
X220504065Y-114481941D01*
X220512037Y-114489733D01*
X220579570Y-114544503D01*
X220653522Y-114587258D01*
X220738158Y-114619118D01*
X220837741Y-114641203D01*
X220956536Y-114654633D01*
X221098804Y-114660529D01*
X221163970Y-114661029D01*
X221246825Y-114660630D01*
X221305093Y-114658961D01*
X221344240Y-114655317D01*
X221369733Y-114648988D01*
X221387038Y-114639269D01*
X221396314Y-114630969D01*
X221405076Y-114620887D01*
X221411949Y-114607880D01*
X221417162Y-114588464D01*
X221420943Y-114559155D01*
X221423521Y-114516468D01*
X221425124Y-114456920D01*
X221425981Y-114377025D01*
X221426321Y-114273300D01*
X221426373Y-114172567D01*
X221426704Y-114038214D01*
X221426632Y-113930887D01*
X221425354Y-113879490D01*
X221230989Y-113879490D01*
X221230989Y-114465644D01*
X221106995Y-114465530D01*
X221032385Y-114463391D01*
X220954242Y-114457878D01*
X220889044Y-114450167D01*
X220887060Y-114449850D01*
X220781687Y-114424373D01*
X220699956Y-114384695D01*
X220637786Y-114328233D01*
X220598284Y-114267101D01*
X220573944Y-114199288D01*
X220575831Y-114135614D01*
X220604079Y-114067360D01*
X220659332Y-113996751D01*
X220735897Y-113944430D01*
X220835419Y-113909458D01*
X220901931Y-113897081D01*
X220977431Y-113888389D01*
X221057449Y-113882099D01*
X221125508Y-113879483D01*
X221129539Y-113879471D01*
X221230989Y-113879490D01*
X221425354Y-113879490D01*
X221424560Y-113847576D01*
X221418885Y-113785274D01*
X221408011Y-113740970D01*
X221390338Y-113711655D01*
X221364267Y-113694320D01*
X221328199Y-113685956D01*
X221280536Y-113683554D01*
X221219678Y-113684104D01*
G36*
X221426632Y-113930887D02*
G01*
X221426704Y-114038214D01*
X221426373Y-114172567D01*
X221426321Y-114273300D01*
X221425981Y-114377025D01*
X221425124Y-114456920D01*
X221423521Y-114516468D01*
X221420943Y-114559155D01*
X221417162Y-114588464D01*
X221411949Y-114607880D01*
X221405076Y-114620887D01*
X221396314Y-114630969D01*
X221387038Y-114639269D01*
X221369733Y-114648988D01*
X221344240Y-114655317D01*
X221305093Y-114658961D01*
X221246825Y-114660630D01*
X221163970Y-114661029D01*
X221098804Y-114660529D01*
X220956536Y-114654633D01*
X220837741Y-114641203D01*
X220738158Y-114619118D01*
X220653522Y-114587258D01*
X220579570Y-114544503D01*
X220512037Y-114489733D01*
X220504065Y-114481941D01*
X220454981Y-114417358D01*
X220413577Y-114336400D01*
X220384975Y-114250869D01*
X220377944Y-114199288D01*
X220573944Y-114199288D01*
X220598284Y-114267101D01*
X220637786Y-114328233D01*
X220699956Y-114384695D01*
X220781687Y-114424373D01*
X220887060Y-114449850D01*
X220889044Y-114450167D01*
X220954242Y-114457878D01*
X221032385Y-114463391D01*
X221106995Y-114465530D01*
X221230989Y-114465644D01*
X221230989Y-113879490D01*
X221129539Y-113879471D01*
X221125508Y-113879483D01*
X221057449Y-113882099D01*
X220977431Y-113888389D01*
X220901931Y-113897081D01*
X220835419Y-113909458D01*
X220735897Y-113944430D01*
X220659332Y-113996751D01*
X220604079Y-114067360D01*
X220575831Y-114135614D01*
X220573944Y-114199288D01*
X220377944Y-114199288D01*
X220374302Y-114172567D01*
X220376005Y-114144320D01*
X220392397Y-114067879D01*
X220422391Y-113988116D01*
X220461307Y-113916157D01*
X220504465Y-113863128D01*
X220530482Y-113840464D01*
X220603323Y-113788292D01*
X220683608Y-113748178D01*
X220775733Y-113718941D01*
X220884095Y-113699394D01*
X221013089Y-113688355D01*
X221167113Y-113684639D01*
X221219678Y-113684104D01*
X221280536Y-113683554D01*
X221328199Y-113685956D01*
X221364267Y-113694320D01*
X221390338Y-113711655D01*
X221408011Y-113740970D01*
X221418885Y-113785274D01*
X221424560Y-113847576D01*
X221425354Y-113879490D01*
X221426632Y-113930887D01*
G37*
X214800844Y-113689939D02*
X214769469Y-113708344D01*
X214728446Y-113738444D01*
X214675648Y-113781655D01*
X214608949Y-113839397D01*
X214526223Y-113913087D01*
X214425344Y-114004143D01*
X214309865Y-114108833D01*
X214069391Y-114326902D01*
X214061876Y-114034203D01*
X214059163Y-113933449D01*
X214056546Y-113858417D01*
X214053444Y-113804779D01*
X214049280Y-113768205D01*
X214043475Y-113744366D01*
X214035448Y-113728933D01*
X214024621Y-113717577D01*
X214018880Y-113712805D01*
X213972907Y-113687572D01*
X213929161Y-113691261D01*
X213894459Y-113712818D01*
X213858977Y-113741530D01*
X213854564Y-114160845D01*
X213853343Y-114284166D01*
X213852721Y-114381043D01*
X213852914Y-114455089D01*
X213854138Y-114509916D01*
X213856608Y-114549138D01*
X213860538Y-114576368D01*
X213866144Y-114595218D01*
X213873642Y-114609300D01*
X213881957Y-114620594D01*
X213899946Y-114641541D01*
X213917845Y-114655426D01*
X213938136Y-114660755D01*
X213963302Y-114656035D01*
X213995824Y-114639772D01*
X214038187Y-114610472D01*
X214092872Y-114566641D01*
X214162361Y-114506786D01*
X214249139Y-114429413D01*
X214347439Y-114340509D01*
X214700634Y-114020130D01*
X214708149Y-114311872D01*
X214710867Y-114412442D01*
X214713491Y-114487299D01*
X214716603Y-114540779D01*
X214720786Y-114577221D01*
X214726621Y-114600963D01*
X214734690Y-114616341D01*
X214745575Y-114627695D01*
X214751145Y-114632321D01*
X214800380Y-114657737D01*
X214846901Y-114653904D01*
X214887413Y-114621428D01*
X214896680Y-114608362D01*
X214903903Y-114593104D01*
X214909336Y-114571991D01*
X214913232Y-114541364D01*
X214915845Y-114497561D01*
X214917431Y-114436922D01*
X214918242Y-114355786D01*
X214918532Y-114250492D01*
X214918563Y-114172567D01*
X214918465Y-114050683D01*
X214918003Y-113955198D01*
X214916921Y-113882450D01*
X214914967Y-113828778D01*
X214911886Y-113790522D01*
X214907424Y-113764022D01*
X214901327Y-113745615D01*
X214893341Y-113731643D01*
X214887413Y-113723706D01*
X214872386Y-113704907D01*
X214858342Y-113690712D01*
X214843154Y-113682541D01*
X214824697Y-113681811D01*
X214800844Y-113689939D01*
G36*
X214843154Y-113682541D02*
G01*
X214858342Y-113690712D01*
X214872386Y-113704907D01*
X214887413Y-113723706D01*
X214893341Y-113731643D01*
X214901327Y-113745615D01*
X214907424Y-113764022D01*
X214911886Y-113790522D01*
X214914967Y-113828778D01*
X214916921Y-113882450D01*
X214918003Y-113955198D01*
X214918465Y-114050683D01*
X214918563Y-114172567D01*
X214918532Y-114250492D01*
X214918242Y-114355786D01*
X214917431Y-114436922D01*
X214915845Y-114497561D01*
X214913232Y-114541364D01*
X214909336Y-114571991D01*
X214903903Y-114593104D01*
X214896680Y-114608362D01*
X214887413Y-114621428D01*
X214846901Y-114653904D01*
X214800380Y-114657737D01*
X214751145Y-114632321D01*
X214745575Y-114627695D01*
X214734690Y-114616341D01*
X214726621Y-114600963D01*
X214720786Y-114577221D01*
X214716603Y-114540779D01*
X214713491Y-114487299D01*
X214710867Y-114412442D01*
X214708149Y-114311872D01*
X214700634Y-114020130D01*
X214347439Y-114340509D01*
X214249139Y-114429413D01*
X214162361Y-114506786D01*
X214092872Y-114566641D01*
X214038187Y-114610472D01*
X213995824Y-114639772D01*
X213963302Y-114656035D01*
X213938136Y-114660755D01*
X213917845Y-114655426D01*
X213899946Y-114641541D01*
X213881957Y-114620594D01*
X213873642Y-114609300D01*
X213866144Y-114595218D01*
X213860538Y-114576368D01*
X213856608Y-114549138D01*
X213854138Y-114509916D01*
X213852914Y-114455089D01*
X213852721Y-114381043D01*
X213853343Y-114284166D01*
X213854564Y-114160845D01*
X213858977Y-113741530D01*
X213894459Y-113712818D01*
X213929161Y-113691261D01*
X213972907Y-113687572D01*
X214018880Y-113712805D01*
X214024621Y-113717577D01*
X214035448Y-113728933D01*
X214043475Y-113744366D01*
X214049280Y-113768205D01*
X214053444Y-113804779D01*
X214056546Y-113858417D01*
X214059163Y-113933449D01*
X214061876Y-114034203D01*
X214069391Y-114326902D01*
X214309865Y-114108833D01*
X214425344Y-114004143D01*
X214526223Y-113913087D01*
X214608949Y-113839397D01*
X214675648Y-113781655D01*
X214728446Y-113738444D01*
X214769469Y-113708344D01*
X214800844Y-113689939D01*
X214824697Y-113681811D01*
X214843154Y-113682541D01*
G37*
X215666186Y-113691471D02*
X215574965Y-113706777D01*
X215504906Y-113730570D01*
X215459328Y-113761899D01*
X215446908Y-113779773D01*
X215434278Y-113821344D01*
X215442777Y-113858951D01*
X215469609Y-113894614D01*
X215511300Y-113911298D01*
X215571794Y-113909943D01*
X215618583Y-113900904D01*
X215722552Y-113883682D01*
X215828804Y-113882046D01*
X215947733Y-113896024D01*
X215980584Y-113901947D01*
X216091169Y-113933126D01*
X216177683Y-113979505D01*
X216239177Y-114040294D01*
X216274702Y-114114703D01*
X216282049Y-114153173D01*
X216277240Y-114231222D01*
X216246190Y-114300276D01*
X216191730Y-114358988D01*
X216116688Y-114406012D01*
X216023894Y-114440002D01*
X215916176Y-114459613D01*
X215796365Y-114463500D01*
X215667289Y-114450315D01*
X215660001Y-114449071D01*
X215608662Y-114439509D01*
X215580196Y-114430273D01*
X215567858Y-114416568D01*
X215564902Y-114393601D01*
X215564835Y-114381438D01*
X215564835Y-114330378D01*
X215656001Y-114330378D01*
X215736506Y-114324863D01*
X215791445Y-114307289D01*
X215823410Y-114276112D01*
X215834996Y-114229789D01*
X215835137Y-114223743D01*
X215828359Y-114184148D01*
X215805115Y-114155876D01*
X215761854Y-114137166D01*
X215695025Y-114126259D01*
X215630294Y-114122249D01*
X215536211Y-114119948D01*
X215467968Y-114123459D01*
X215421425Y-114136414D01*
X215392442Y-114162445D01*
X215376879Y-114205186D01*
X215370595Y-114268269D01*
X215369450Y-114351123D01*
X215371326Y-114443605D01*
X215376970Y-114506513D01*
X215386406Y-114540098D01*
X215388237Y-114542728D01*
X215440049Y-114584693D01*
X215516014Y-114617927D01*
X215611316Y-114641718D01*
X215721140Y-114655358D01*
X215840670Y-114658137D01*
X215965090Y-114649344D01*
X216038267Y-114638544D01*
X216153044Y-114606057D01*
X216259720Y-114552945D01*
X216349035Y-114484014D01*
X216362610Y-114470237D01*
X216406716Y-114412317D01*
X216446513Y-114340535D01*
X216477351Y-114265278D01*
X216494581Y-114196936D01*
X216496658Y-114170688D01*
X216487817Y-114115936D01*
X216464319Y-114047814D01*
X216430673Y-113976109D01*
X216391388Y-113910608D01*
X216356679Y-113866857D01*
X216275527Y-113801778D01*
X216170622Y-113749980D01*
X216045724Y-113712633D01*
X215904591Y-113690912D01*
X215775249Y-113685604D01*
X215666186Y-113691471D01*
G36*
X215904591Y-113690912D02*
G01*
X216045724Y-113712633D01*
X216170622Y-113749980D01*
X216275527Y-113801778D01*
X216356679Y-113866857D01*
X216391388Y-113910608D01*
X216430673Y-113976109D01*
X216464319Y-114047814D01*
X216487817Y-114115936D01*
X216496658Y-114170688D01*
X216494581Y-114196936D01*
X216477351Y-114265278D01*
X216446513Y-114340535D01*
X216406716Y-114412317D01*
X216362610Y-114470237D01*
X216349035Y-114484014D01*
X216259720Y-114552945D01*
X216153044Y-114606057D01*
X216038267Y-114638544D01*
X215965090Y-114649344D01*
X215840670Y-114658137D01*
X215721140Y-114655358D01*
X215611316Y-114641718D01*
X215516014Y-114617927D01*
X215440049Y-114584693D01*
X215388237Y-114542728D01*
X215386406Y-114540098D01*
X215376970Y-114506513D01*
X215371326Y-114443605D01*
X215369450Y-114351123D01*
X215370595Y-114268269D01*
X215376879Y-114205186D01*
X215392442Y-114162445D01*
X215421425Y-114136414D01*
X215467968Y-114123459D01*
X215536211Y-114119948D01*
X215630294Y-114122249D01*
X215695025Y-114126259D01*
X215761854Y-114137166D01*
X215805115Y-114155876D01*
X215828359Y-114184148D01*
X215835137Y-114223743D01*
X215834996Y-114229789D01*
X215823410Y-114276112D01*
X215791445Y-114307289D01*
X215736506Y-114324863D01*
X215656001Y-114330378D01*
X215564835Y-114330378D01*
X215564835Y-114381438D01*
X215564902Y-114393601D01*
X215567858Y-114416568D01*
X215580196Y-114430273D01*
X215608662Y-114439509D01*
X215660001Y-114449071D01*
X215667289Y-114450315D01*
X215796365Y-114463500D01*
X215916176Y-114459613D01*
X216023894Y-114440002D01*
X216116688Y-114406012D01*
X216191730Y-114358988D01*
X216246190Y-114300276D01*
X216277240Y-114231222D01*
X216282049Y-114153173D01*
X216274702Y-114114703D01*
X216239177Y-114040294D01*
X216177683Y-113979505D01*
X216091169Y-113933126D01*
X215980584Y-113901947D01*
X215947733Y-113896024D01*
X215828804Y-113882046D01*
X215722552Y-113883682D01*
X215618583Y-113900904D01*
X215571794Y-113909943D01*
X215511300Y-113911298D01*
X215469609Y-113894614D01*
X215442777Y-113858951D01*
X215434278Y-113821344D01*
X215446908Y-113779773D01*
X215459328Y-113761899D01*
X215504906Y-113730570D01*
X215574965Y-113706777D01*
X215666186Y-113691471D01*
X215775249Y-113685604D01*
X215904591Y-113690912D01*
G37*
X212763254Y-113684362D02*
X212661593Y-113685579D01*
X212583688Y-113688425D01*
X212526389Y-113693569D01*
X212486543Y-113701679D01*
X212461002Y-113713426D01*
X212446613Y-113729477D01*
X212440225Y-113750503D01*
X212438689Y-113777171D01*
X212438681Y-113780321D01*
X212440015Y-113810485D01*
X212446319Y-113833798D01*
X212461048Y-113851201D01*
X212487655Y-113863635D01*
X212529596Y-113872040D01*
X212590324Y-113877360D01*
X212673294Y-113880534D01*
X212781959Y-113882504D01*
X212815265Y-113882940D01*
X213137557Y-113887005D01*
X213142064Y-113973425D01*
X213146572Y-114059845D01*
X212922707Y-114059845D01*
X212835249Y-114060168D01*
X212772801Y-114061532D01*
X212730316Y-114064534D01*
X212702747Y-114069768D01*
X212685048Y-114077830D01*
X212672173Y-114089315D01*
X212672090Y-114089406D01*
X212648740Y-114134166D01*
X212649584Y-114182542D01*
X212674091Y-114223781D01*
X212678941Y-114228020D01*
X212696155Y-114238944D01*
X212719744Y-114246544D01*
X212754963Y-114251392D01*
X212807070Y-114254061D01*
X212881320Y-114255123D01*
X212928808Y-114255230D01*
X213145072Y-114255230D01*
X213145072Y-114465644D01*
X212816750Y-114465644D01*
X212708352Y-114465834D01*
X212626035Y-114466609D01*
X212565821Y-114468279D01*
X212523735Y-114471153D01*
X212495799Y-114475542D01*
X212478036Y-114481754D01*
X212466470Y-114490099D01*
X212463555Y-114493129D01*
X212442034Y-114535129D01*
X212440460Y-114582909D01*
X212458115Y-114624337D01*
X212472085Y-114637632D01*
X212486616Y-114644951D01*
X212509132Y-114650614D01*
X212543194Y-114654818D01*
X212592363Y-114657763D01*
X212660202Y-114659646D01*
X212750272Y-114660665D01*
X212866133Y-114661020D01*
X212892327Y-114661029D01*
X213010131Y-114660951D01*
X213101574Y-114660526D01*
X213170356Y-114659461D01*
X213220174Y-114657464D01*
X213254730Y-114654245D01*
X213277720Y-114649511D01*
X213292844Y-114642972D01*
X213303801Y-114634336D01*
X213309812Y-114628135D01*
X213318860Y-114617152D01*
X213325928Y-114603547D01*
X213331261Y-114583751D01*
X213335102Y-114554197D01*
X213337695Y-114511316D01*
X213339283Y-114451540D01*
X213340109Y-114371302D01*
X213340418Y-114267034D01*
X213340456Y-114179275D01*
X213340362Y-114056303D01*
X213339913Y-113959764D01*
X213338862Y-113886034D01*
X213336960Y-113831485D01*
X213333961Y-113792494D01*
X213329615Y-113765434D01*
X213323676Y-113746679D01*
X213315895Y-113732605D01*
X213309306Y-113723706D01*
X213278156Y-113684105D01*
X212891822Y-113684105D01*
X212763254Y-113684362D01*
G36*
X213309306Y-113723706D02*
G01*
X213315895Y-113732605D01*
X213323676Y-113746679D01*
X213329615Y-113765434D01*
X213333961Y-113792494D01*
X213336960Y-113831485D01*
X213338862Y-113886034D01*
X213339913Y-113959764D01*
X213340362Y-114056303D01*
X213340456Y-114179275D01*
X213340418Y-114267034D01*
X213340109Y-114371302D01*
X213339283Y-114451540D01*
X213337695Y-114511316D01*
X213335102Y-114554197D01*
X213331261Y-114583751D01*
X213325928Y-114603547D01*
X213318860Y-114617152D01*
X213309812Y-114628135D01*
X213303801Y-114634336D01*
X213292844Y-114642972D01*
X213277720Y-114649511D01*
X213254730Y-114654245D01*
X213220174Y-114657464D01*
X213170356Y-114659461D01*
X213101574Y-114660526D01*
X213010131Y-114660951D01*
X212892327Y-114661029D01*
X212866133Y-114661020D01*
X212750272Y-114660665D01*
X212660202Y-114659646D01*
X212592363Y-114657763D01*
X212543194Y-114654818D01*
X212509132Y-114650614D01*
X212486616Y-114644951D01*
X212472085Y-114637632D01*
X212458115Y-114624337D01*
X212440460Y-114582909D01*
X212442034Y-114535129D01*
X212463555Y-114493129D01*
X212466470Y-114490099D01*
X212478036Y-114481754D01*
X212495799Y-114475542D01*
X212523735Y-114471153D01*
X212565821Y-114468279D01*
X212626035Y-114466609D01*
X212708352Y-114465834D01*
X212816750Y-114465644D01*
X213145072Y-114465644D01*
X213145072Y-114255230D01*
X212928808Y-114255230D01*
X212881320Y-114255123D01*
X212807070Y-114254061D01*
X212754963Y-114251392D01*
X212719744Y-114246544D01*
X212696155Y-114238944D01*
X212678941Y-114228020D01*
X212674091Y-114223781D01*
X212649584Y-114182542D01*
X212648740Y-114134166D01*
X212672090Y-114089406D01*
X212672173Y-114089315D01*
X212685048Y-114077830D01*
X212702747Y-114069768D01*
X212730316Y-114064534D01*
X212772801Y-114061532D01*
X212835249Y-114060168D01*
X212922707Y-114059845D01*
X213146572Y-114059845D01*
X213142064Y-113973425D01*
X213137557Y-113887005D01*
X212815265Y-113882940D01*
X212781959Y-113882504D01*
X212673294Y-113880534D01*
X212590324Y-113877360D01*
X212529596Y-113872040D01*
X212487655Y-113863635D01*
X212461048Y-113851201D01*
X212446319Y-113833798D01*
X212440015Y-113810485D01*
X212438681Y-113780321D01*
X212438689Y-113777171D01*
X212440225Y-113750503D01*
X212446613Y-113729477D01*
X212461002Y-113713426D01*
X212486543Y-113701679D01*
X212526389Y-113693569D01*
X212583688Y-113688425D01*
X212661593Y-113685579D01*
X212763254Y-113684362D01*
X212891822Y-113684105D01*
X213278156Y-113684105D01*
X213309306Y-113723706D01*
G37*
X219344354Y-113684211D02*
X219251946Y-113684707D01*
X219182197Y-113685860D01*
X219131407Y-113687939D01*
X219095875Y-113691210D01*
X219071902Y-113695942D01*
X219055788Y-113702402D01*
X219043833Y-113710858D01*
X219039503Y-113714750D01*
X219013175Y-113756099D01*
X219008435Y-113803611D01*
X219025754Y-113845790D01*
X219033763Y-113854315D01*
X219046716Y-113862580D01*
X219067572Y-113868956D01*
X219100200Y-113873754D01*
X219148466Y-113877283D01*
X219216238Y-113879853D01*
X219307384Y-113881776D01*
X219390715Y-113882946D01*
X219720516Y-113887005D01*
X219729530Y-114059845D01*
X219505666Y-114059845D01*
X219408478Y-114060684D01*
X219337327Y-114064191D01*
X219288215Y-114071854D01*
X219257141Y-114085162D01*
X219240108Y-114105600D01*
X219233116Y-114134658D01*
X219232054Y-114161626D01*
X219235354Y-114194716D01*
X219247807Y-114219099D01*
X219273244Y-114236048D01*
X219315495Y-114246838D01*
X219378390Y-114252743D01*
X219465759Y-114255036D01*
X219513445Y-114255230D01*
X219728030Y-114255230D01*
X219728030Y-114465644D01*
X219397379Y-114465644D01*
X219288994Y-114465795D01*
X219206621Y-114466473D01*
X219146213Y-114468015D01*
X219103723Y-114470758D01*
X219075105Y-114475040D01*
X219056312Y-114481198D01*
X219043298Y-114489568D01*
X219036669Y-114495703D01*
X219013931Y-114531508D01*
X219006610Y-114563336D01*
X219017063Y-114602213D01*
X219036669Y-114630969D01*
X219047129Y-114640022D01*
X219060632Y-114647052D01*
X219080810Y-114652313D01*
X219111295Y-114656060D01*
X219155719Y-114658549D01*
X219217715Y-114660034D01*
X219300915Y-114660770D01*
X219408951Y-114661013D01*
X219465013Y-114661029D01*
X219585068Y-114660922D01*
X219678698Y-114660434D01*
X219749533Y-114659308D01*
X219801205Y-114657290D01*
X219837347Y-114654125D01*
X219861592Y-114649558D01*
X219877571Y-114643335D01*
X219888917Y-114635199D01*
X219893356Y-114630969D01*
X219902141Y-114620855D01*
X219909028Y-114607807D01*
X219914245Y-114588329D01*
X219918023Y-114558923D01*
X219920594Y-114516093D01*
X219922188Y-114456343D01*
X219923035Y-114376176D01*
X219923366Y-114272096D01*
X219923415Y-114175187D01*
X219923370Y-114051082D01*
X219923058Y-113953525D01*
X219922212Y-113879005D01*
X219920566Y-113824010D01*
X219917853Y-113785029D01*
X219913807Y-113758552D01*
X219908161Y-113741065D01*
X219900650Y-113729059D01*
X219891006Y-113719022D01*
X219888630Y-113716785D01*
X219877099Y-113706878D01*
X219863702Y-113699207D01*
X219844720Y-113693485D01*
X219816439Y-113689427D01*
X219775142Y-113686747D01*
X219717112Y-113685161D01*
X219638633Y-113684383D01*
X219535990Y-113684127D01*
X219463120Y-113684105D01*
X219344354Y-113684211D01*
G36*
X219535990Y-113684127D02*
G01*
X219638633Y-113684383D01*
X219717112Y-113685161D01*
X219775142Y-113686747D01*
X219816439Y-113689427D01*
X219844720Y-113693485D01*
X219863702Y-113699207D01*
X219877099Y-113706878D01*
X219888630Y-113716785D01*
X219891006Y-113719022D01*
X219900650Y-113729059D01*
X219908161Y-113741065D01*
X219913807Y-113758552D01*
X219917853Y-113785029D01*
X219920566Y-113824010D01*
X219922212Y-113879005D01*
X219923058Y-113953525D01*
X219923370Y-114051082D01*
X219923415Y-114175187D01*
X219923366Y-114272096D01*
X219923035Y-114376176D01*
X219922188Y-114456343D01*
X219920594Y-114516093D01*
X219918023Y-114558923D01*
X219914245Y-114588329D01*
X219909028Y-114607807D01*
X219902141Y-114620855D01*
X219893356Y-114630969D01*
X219888917Y-114635199D01*
X219877571Y-114643335D01*
X219861592Y-114649558D01*
X219837347Y-114654125D01*
X219801205Y-114657290D01*
X219749533Y-114659308D01*
X219678698Y-114660434D01*
X219585068Y-114660922D01*
X219465013Y-114661029D01*
X219408951Y-114661013D01*
X219300915Y-114660770D01*
X219217715Y-114660034D01*
X219155719Y-114658549D01*
X219111295Y-114656060D01*
X219080810Y-114652313D01*
X219060632Y-114647052D01*
X219047129Y-114640022D01*
X219036669Y-114630969D01*
X219017063Y-114602213D01*
X219006610Y-114563336D01*
X219013931Y-114531508D01*
X219036669Y-114495703D01*
X219043298Y-114489568D01*
X219056312Y-114481198D01*
X219075105Y-114475040D01*
X219103723Y-114470758D01*
X219146213Y-114468015D01*
X219206621Y-114466473D01*
X219288994Y-114465795D01*
X219397379Y-114465644D01*
X219728030Y-114465644D01*
X219728030Y-114255230D01*
X219513445Y-114255230D01*
X219465759Y-114255036D01*
X219378390Y-114252743D01*
X219315495Y-114246838D01*
X219273244Y-114236048D01*
X219247807Y-114219099D01*
X219235354Y-114194716D01*
X219232054Y-114161626D01*
X219233116Y-114134658D01*
X219240108Y-114105600D01*
X219257141Y-114085162D01*
X219288215Y-114071854D01*
X219337327Y-114064191D01*
X219408478Y-114060684D01*
X219505666Y-114059845D01*
X219729530Y-114059845D01*
X219720516Y-113887005D01*
X219390715Y-113882946D01*
X219307384Y-113881776D01*
X219216238Y-113879853D01*
X219148466Y-113877283D01*
X219100200Y-113873754D01*
X219067572Y-113868956D01*
X219046716Y-113862580D01*
X219033763Y-113854315D01*
X219025754Y-113845790D01*
X219008435Y-113803611D01*
X219013175Y-113756099D01*
X219039503Y-113714750D01*
X219043833Y-113710858D01*
X219055788Y-113702402D01*
X219071902Y-113695942D01*
X219095875Y-113691210D01*
X219131407Y-113687939D01*
X219182197Y-113685860D01*
X219251946Y-113684707D01*
X219344354Y-113684211D01*
X219463120Y-113684105D01*
X219535990Y-113684127D01*
G37*
X208084423Y-113686725D02*
X208058342Y-113696045D01*
X208057336Y-113696501D01*
X208021918Y-113723529D01*
X208002404Y-113751331D01*
X207998586Y-113764367D01*
X207998775Y-113781687D01*
X208004148Y-113806362D01*
X208015882Y-113841459D01*
X208035157Y-113890048D01*
X208063148Y-113955197D01*
X208101034Y-114039976D01*
X208149992Y-114147454D01*
X208176939Y-114206198D01*
X208225600Y-114311068D01*
X208271280Y-114407509D01*
X208312236Y-114491993D01*
X208346724Y-114560995D01*
X208373001Y-114610989D01*
X208389324Y-114638449D01*
X208392554Y-114642242D01*
X208433881Y-114658975D01*
X208480561Y-114656734D01*
X208518000Y-114636382D01*
X208519526Y-114634727D01*
X208534419Y-114612181D01*
X208559401Y-114568266D01*
X208591391Y-114508635D01*
X208627310Y-114438941D01*
X208640218Y-114413258D01*
X208737656Y-114218092D01*
X208843864Y-114430102D01*
X208881773Y-114503356D01*
X208916943Y-114566885D01*
X208946502Y-114615826D01*
X208967576Y-114645317D01*
X208974718Y-114651571D01*
X209030232Y-114660040D01*
X209076041Y-114642242D01*
X209089516Y-114623220D01*
X209112834Y-114580944D01*
X209144093Y-114519575D01*
X209181390Y-114443271D01*
X209222824Y-114356194D01*
X209266492Y-114262502D01*
X209310492Y-114166356D01*
X209352922Y-114071916D01*
X209391880Y-113983340D01*
X209425463Y-113904791D01*
X209451769Y-113840426D01*
X209468896Y-113794406D01*
X209474941Y-113770892D01*
X209474879Y-113770040D01*
X209460170Y-113740451D01*
X209430768Y-113710315D01*
X209429037Y-113709003D01*
X209392900Y-113688577D01*
X209359476Y-113688775D01*
X209346948Y-113692626D01*
X209331683Y-113700948D01*
X209315472Y-113717320D01*
X209296371Y-113745137D01*
X209272435Y-113787795D01*
X209241719Y-113848690D01*
X209202279Y-113931220D01*
X209166712Y-114007402D01*
X209125793Y-114095709D01*
X209089126Y-114175121D01*
X209058616Y-114241491D01*
X209036168Y-114290670D01*
X209023687Y-114318508D01*
X209021867Y-114322863D01*
X209013680Y-114315744D01*
X208994865Y-114285936D01*
X208967924Y-114237791D01*
X208935362Y-114175658D01*
X208922404Y-114150023D01*
X208878510Y-114063460D01*
X208844659Y-114000420D01*
X208818073Y-113957237D01*
X208795975Y-113930247D01*
X208775586Y-113915783D01*
X208754130Y-113910182D01*
X208740147Y-113909549D01*
X208715482Y-113911735D01*
X208693868Y-113920774D01*
X208672392Y-113940392D01*
X208648140Y-113974312D01*
X208618200Y-114026257D01*
X208579657Y-114099953D01*
X208558392Y-114141875D01*
X208523898Y-114208689D01*
X208493814Y-114264096D01*
X208470793Y-114303422D01*
X208457490Y-114321991D01*
X208455681Y-114322764D01*
X208447090Y-114308150D01*
X208427856Y-114270202D01*
X208399905Y-114212891D01*
X208365163Y-114140191D01*
X208325557Y-114056071D01*
X208306074Y-114014289D01*
X208255390Y-113906458D01*
X208214577Y-113823485D01*
X208181516Y-113762661D01*
X208154089Y-113721280D01*
X208130178Y-113696635D01*
X208107662Y-113686019D01*
X208084423Y-113686725D01*
G36*
X208130178Y-113696635D02*
G01*
X208154089Y-113721280D01*
X208181516Y-113762661D01*
X208214577Y-113823485D01*
X208255390Y-113906458D01*
X208306074Y-114014289D01*
X208325557Y-114056071D01*
X208365163Y-114140191D01*
X208399905Y-114212891D01*
X208427856Y-114270202D01*
X208447090Y-114308150D01*
X208455681Y-114322764D01*
X208457490Y-114321991D01*
X208470793Y-114303422D01*
X208493814Y-114264096D01*
X208523898Y-114208689D01*
X208558392Y-114141875D01*
X208579657Y-114099953D01*
X208618200Y-114026257D01*
X208648140Y-113974312D01*
X208672392Y-113940392D01*
X208693868Y-113920774D01*
X208715482Y-113911735D01*
X208740147Y-113909549D01*
X208754130Y-113910182D01*
X208775586Y-113915783D01*
X208795975Y-113930247D01*
X208818073Y-113957237D01*
X208844659Y-114000420D01*
X208878510Y-114063460D01*
X208922404Y-114150023D01*
X208935362Y-114175658D01*
X208967924Y-114237791D01*
X208994865Y-114285936D01*
X209013680Y-114315744D01*
X209021867Y-114322863D01*
X209023687Y-114318508D01*
X209036168Y-114290670D01*
X209058616Y-114241491D01*
X209089126Y-114175121D01*
X209125793Y-114095709D01*
X209166712Y-114007402D01*
X209202279Y-113931220D01*
X209241719Y-113848690D01*
X209272435Y-113787795D01*
X209296371Y-113745137D01*
X209315472Y-113717320D01*
X209331683Y-113700948D01*
X209346948Y-113692626D01*
X209359476Y-113688775D01*
X209392900Y-113688577D01*
X209429037Y-113709003D01*
X209430768Y-113710315D01*
X209460170Y-113740451D01*
X209474879Y-113770040D01*
X209474941Y-113770892D01*
X209468896Y-113794406D01*
X209451769Y-113840426D01*
X209425463Y-113904791D01*
X209391880Y-113983340D01*
X209352922Y-114071916D01*
X209310492Y-114166356D01*
X209266492Y-114262502D01*
X209222824Y-114356194D01*
X209181390Y-114443271D01*
X209144093Y-114519575D01*
X209112834Y-114580944D01*
X209089516Y-114623220D01*
X209076041Y-114642242D01*
X209030232Y-114660040D01*
X208974718Y-114651571D01*
X208967576Y-114645317D01*
X208946502Y-114615826D01*
X208916943Y-114566885D01*
X208881773Y-114503356D01*
X208843864Y-114430102D01*
X208737656Y-114218092D01*
X208640218Y-114413258D01*
X208627310Y-114438941D01*
X208591391Y-114508635D01*
X208559401Y-114568266D01*
X208534419Y-114612181D01*
X208519526Y-114634727D01*
X208518000Y-114636382D01*
X208480561Y-114656734D01*
X208433881Y-114658975D01*
X208392554Y-114642242D01*
X208389324Y-114638449D01*
X208373001Y-114610989D01*
X208346724Y-114560995D01*
X208312236Y-114491993D01*
X208271280Y-114407509D01*
X208225600Y-114311068D01*
X208176939Y-114206198D01*
X208149992Y-114147454D01*
X208101034Y-114039976D01*
X208063148Y-113955197D01*
X208035157Y-113890048D01*
X208015882Y-113841459D01*
X208004148Y-113806362D01*
X207998775Y-113781687D01*
X207998586Y-113764367D01*
X208002404Y-113751331D01*
X208021918Y-113723529D01*
X208057336Y-113696501D01*
X208058342Y-113696045D01*
X208084423Y-113686725D01*
X208107662Y-113686019D01*
X208130178Y-113696635D01*
G37*
X217984912Y-113685816D02*
X217885307Y-113692779D01*
X217792668Y-113703654D01*
X217712382Y-113718033D01*
X217649832Y-113735505D01*
X217610405Y-113755661D01*
X217604353Y-113761594D01*
X217583308Y-113807634D01*
X217589690Y-113854899D01*
X217622331Y-113895337D01*
X217623888Y-113896496D01*
X217643087Y-113908956D01*
X217663129Y-113915508D01*
X217691084Y-113916303D01*
X217734023Y-113911495D01*
X217799015Y-113901234D01*
X217804243Y-113900370D01*
X217901085Y-113888473D01*
X218005568Y-113882604D01*
X218110359Y-113882547D01*
X218208126Y-113888086D01*
X218291536Y-113899004D01*
X218353257Y-113915084D01*
X218357312Y-113916700D01*
X218402088Y-113941788D01*
X218417820Y-113967177D01*
X218405504Y-113992146D01*
X218366139Y-114015975D01*
X218300722Y-114037941D01*
X218210250Y-114057325D01*
X218149924Y-114066657D01*
X218024524Y-114084608D01*
X217924789Y-114101018D01*
X217846470Y-114117307D01*
X217785317Y-114134897D01*
X217737083Y-114155208D01*
X217697519Y-114179662D01*
X217662376Y-114209679D01*
X217634135Y-114239155D01*
X217600632Y-114280226D01*
X217584143Y-114315541D01*
X217578987Y-114359052D01*
X217578800Y-114374987D01*
X217582672Y-114427864D01*
X217598151Y-114467202D01*
X217624939Y-114502119D01*
X217679383Y-114555493D01*
X217740094Y-114596197D01*
X217811582Y-114625559D01*
X217898360Y-114644906D01*
X218004938Y-114655565D01*
X218135827Y-114658864D01*
X218157439Y-114658808D01*
X218244722Y-114656999D01*
X218331283Y-114652888D01*
X218407686Y-114647065D01*
X218464494Y-114640120D01*
X218469088Y-114639323D01*
X218525569Y-114625943D01*
X218573476Y-114609041D01*
X218600597Y-114593590D01*
X218625835Y-114552825D01*
X218627593Y-114505357D01*
X218605836Y-114463054D01*
X218600968Y-114458271D01*
X218580846Y-114444058D01*
X218555682Y-114437935D01*
X218516737Y-114438977D01*
X218469459Y-114444393D01*
X218416629Y-114449232D01*
X218342572Y-114453314D01*
X218256115Y-114456277D01*
X218166087Y-114457756D01*
X218142409Y-114457853D01*
X218052046Y-114457489D01*
X217985913Y-114455735D01*
X217938191Y-114451982D01*
X217903062Y-114445622D01*
X217874706Y-114436046D01*
X217857665Y-114428070D01*
X217820220Y-114405924D01*
X217796345Y-114385867D01*
X217792856Y-114380182D01*
X217800217Y-114356704D01*
X217835211Y-114333976D01*
X217895412Y-114313029D01*
X217978395Y-114294895D01*
X218002844Y-114290856D01*
X218130546Y-114270798D01*
X218232464Y-114254033D01*
X218312530Y-114239342D01*
X218374678Y-114225507D01*
X218422842Y-114211310D01*
X218460956Y-114195532D01*
X218492954Y-114176955D01*
X218522768Y-114154361D01*
X218554334Y-114126532D01*
X218564956Y-114116775D01*
X218602197Y-114080361D01*
X218621911Y-114051511D01*
X218629623Y-114018497D01*
X218630871Y-113976894D01*
X218617139Y-113895310D01*
X218576102Y-113825993D01*
X218507994Y-113769167D01*
X218413051Y-113725056D01*
X218345308Y-113705271D01*
X218271683Y-113692492D01*
X218183485Y-113685263D01*
X218086100Y-113683174D01*
X217984912Y-113685816D01*
G36*
X218183485Y-113685263D02*
G01*
X218271683Y-113692492D01*
X218345308Y-113705271D01*
X218413051Y-113725056D01*
X218507994Y-113769167D01*
X218576102Y-113825993D01*
X218617139Y-113895310D01*
X218630871Y-113976894D01*
X218629623Y-114018497D01*
X218621911Y-114051511D01*
X218602197Y-114080361D01*
X218564956Y-114116775D01*
X218554334Y-114126532D01*
X218522768Y-114154361D01*
X218492954Y-114176955D01*
X218460956Y-114195532D01*
X218422842Y-114211310D01*
X218374678Y-114225507D01*
X218312530Y-114239342D01*
X218232464Y-114254033D01*
X218130546Y-114270798D01*
X218002844Y-114290856D01*
X217978395Y-114294895D01*
X217895412Y-114313029D01*
X217835211Y-114333976D01*
X217800217Y-114356704D01*
X217792856Y-114380182D01*
X217796345Y-114385867D01*
X217820220Y-114405924D01*
X217857665Y-114428070D01*
X217874706Y-114436046D01*
X217903062Y-114445622D01*
X217938191Y-114451982D01*
X217985913Y-114455735D01*
X218052046Y-114457489D01*
X218142409Y-114457853D01*
X218166087Y-114457756D01*
X218256115Y-114456277D01*
X218342572Y-114453314D01*
X218416629Y-114449232D01*
X218469459Y-114444393D01*
X218516737Y-114438977D01*
X218555682Y-114437935D01*
X218580846Y-114444058D01*
X218600968Y-114458271D01*
X218605836Y-114463054D01*
X218627593Y-114505357D01*
X218625835Y-114552825D01*
X218600597Y-114593590D01*
X218573476Y-114609041D01*
X218525569Y-114625943D01*
X218469088Y-114639323D01*
X218464494Y-114640120D01*
X218407686Y-114647065D01*
X218331283Y-114652888D01*
X218244722Y-114656999D01*
X218157439Y-114658808D01*
X218135827Y-114658864D01*
X218004938Y-114655565D01*
X217898360Y-114644906D01*
X217811582Y-114625559D01*
X217740094Y-114596197D01*
X217679383Y-114555493D01*
X217624939Y-114502119D01*
X217598151Y-114467202D01*
X217582672Y-114427864D01*
X217578800Y-114374987D01*
X217578987Y-114359052D01*
X217584143Y-114315541D01*
X217600632Y-114280226D01*
X217634135Y-114239155D01*
X217662376Y-114209679D01*
X217697519Y-114179662D01*
X217737083Y-114155208D01*
X217785317Y-114134897D01*
X217846470Y-114117307D01*
X217924789Y-114101018D01*
X218024524Y-114084608D01*
X218149924Y-114066657D01*
X218210250Y-114057325D01*
X218300722Y-114037941D01*
X218366139Y-114015975D01*
X218405504Y-113992146D01*
X218417820Y-113967177D01*
X218402088Y-113941788D01*
X218357312Y-113916700D01*
X218353257Y-113915084D01*
X218291536Y-113899004D01*
X218208126Y-113888086D01*
X218110359Y-113882547D01*
X218005568Y-113882604D01*
X217901085Y-113888473D01*
X217804243Y-113900370D01*
X217799015Y-113901234D01*
X217734023Y-113911495D01*
X217691084Y-113916303D01*
X217663129Y-113915508D01*
X217643087Y-113908956D01*
X217623888Y-113896496D01*
X217622331Y-113895337D01*
X217589690Y-113854899D01*
X217583308Y-113807634D01*
X217604353Y-113761594D01*
X217610405Y-113755661D01*
X217649832Y-113735505D01*
X217712382Y-113718033D01*
X217792668Y-113703654D01*
X217885307Y-113692779D01*
X217984912Y-113685816D01*
X218086100Y-113683174D01*
X218183485Y-113685263D01*
G37*
X212663592Y-106646926D02*
X212467951Y-106668344D01*
X212278408Y-106706680D01*
X212087253Y-106763933D01*
X211886774Y-106842104D01*
X211669262Y-106943191D01*
X211630090Y-106962771D01*
X211540198Y-107007057D01*
X211455417Y-107046934D01*
X211384115Y-107078593D01*
X211334660Y-107098227D01*
X211327062Y-107100699D01*
X211254256Y-107122512D01*
X211580167Y-107596639D01*
X211659847Y-107712518D01*
X211732698Y-107818389D01*
X211796240Y-107910657D01*
X211847998Y-107985728D01*
X211885493Y-108040008D01*
X211906247Y-108069902D01*
X211909619Y-108074636D01*
X211923315Y-108064737D01*
X211957027Y-108034980D01*
X212004726Y-107990768D01*
X212031050Y-107965779D01*
X212180198Y-107847151D01*
X212347702Y-107757008D01*
X212492042Y-107707631D01*
X212578687Y-107692124D01*
X212687174Y-107682674D01*
X212804743Y-107679456D01*
X212918636Y-107682646D01*
X213016091Y-107692419D01*
X213054980Y-107699904D01*
X213230258Y-107760207D01*
X213388205Y-107852285D01*
X213528702Y-107975968D01*
X213651635Y-108131088D01*
X213756885Y-108317476D01*
X213844335Y-108534965D01*
X213913870Y-108783387D01*
X213955195Y-108996052D01*
X213965976Y-109089936D01*
X213973322Y-109211219D01*
X213977303Y-109351188D01*
X213977991Y-109501126D01*
X213975456Y-109652317D01*
X213969770Y-109796046D01*
X213961003Y-109923598D01*
X213949226Y-110026257D01*
X213946677Y-110042096D01*
X213890489Y-110297231D01*
X213813934Y-110523037D01*
X213716544Y-110720526D01*
X213597856Y-110890709D01*
X213513607Y-110982717D01*
X213362200Y-111107638D01*
X213196153Y-111200235D01*
X213018269Y-111260004D01*
X212831348Y-111286441D01*
X212638192Y-111279043D01*
X212441601Y-111237306D01*
X212325373Y-111196466D01*
X212164532Y-111114685D01*
X211998757Y-110997373D01*
X211905897Y-110918040D01*
X211853756Y-110872124D01*
X211812790Y-110838437D01*
X211789472Y-110822205D01*
X211786577Y-110821710D01*
X211776170Y-110838296D01*
X211749203Y-110882127D01*
X211707974Y-110949443D01*
X211654781Y-111036489D01*
X211591920Y-111139505D01*
X211521689Y-111254736D01*
X211482598Y-111318926D01*
X211184006Y-111809372D01*
X211556809Y-111993610D01*
X211691601Y-112059788D01*
X211800795Y-112111973D01*
X211891063Y-112152755D01*
X211969082Y-112184728D01*
X212041526Y-112210482D01*
X212115069Y-112232609D01*
X212196386Y-112253702D01*
X212274327Y-112272225D01*
X212343604Y-112286558D01*
X212416053Y-112297389D01*
X212498928Y-112305321D01*
X212599482Y-112310953D01*
X212724967Y-112314887D01*
X212809542Y-112316586D01*
X212930216Y-112317745D01*
X213045928Y-112317160D01*
X213149019Y-112314999D01*
X213231832Y-112311427D01*
X213286710Y-112306612D01*
X213289962Y-112306132D01*
X213574927Y-112244481D01*
X213842528Y-112150980D01*
X214092673Y-112025688D01*
X214325266Y-111868669D01*
X214540213Y-111679984D01*
X214737420Y-111459695D01*
X214880243Y-111263909D01*
X215032290Y-111007644D01*
X215155197Y-110737012D01*
X215249560Y-110449844D01*
X215315971Y-110143971D01*
X215355026Y-109817223D01*
X215367330Y-109485434D01*
X215357211Y-109164474D01*
X215325409Y-108868341D01*
X215270916Y-108592040D01*
X215192720Y-108330576D01*
X215089811Y-108078953D01*
X215077523Y-108052885D01*
X214942150Y-107809202D01*
X214775881Y-107577313D01*
X214583429Y-107362018D01*
X214369504Y-107168117D01*
X214138815Y-107000410D01*
X213923861Y-106877391D01*
X213706712Y-106781040D01*
X213489102Y-106711246D01*
X213262608Y-106666108D01*
X213018804Y-106643726D01*
X212873042Y-106640426D01*
X212663592Y-106646926D01*
G36*
X213018804Y-106643726D02*
G01*
X213262608Y-106666108D01*
X213489102Y-106711246D01*
X213706712Y-106781040D01*
X213923861Y-106877391D01*
X214138815Y-107000410D01*
X214369504Y-107168117D01*
X214583429Y-107362018D01*
X214775881Y-107577313D01*
X214942150Y-107809202D01*
X215077523Y-108052885D01*
X215089811Y-108078953D01*
X215192720Y-108330576D01*
X215270916Y-108592040D01*
X215325409Y-108868341D01*
X215357211Y-109164474D01*
X215367330Y-109485434D01*
X215355026Y-109817223D01*
X215315971Y-110143971D01*
X215249560Y-110449844D01*
X215155197Y-110737012D01*
X215032290Y-111007644D01*
X214880243Y-111263909D01*
X214737420Y-111459695D01*
X214540213Y-111679984D01*
X214325266Y-111868669D01*
X214092673Y-112025688D01*
X213842528Y-112150980D01*
X213574927Y-112244481D01*
X213289962Y-112306132D01*
X213286710Y-112306612D01*
X213231832Y-112311427D01*
X213149019Y-112314999D01*
X213045928Y-112317160D01*
X212930216Y-112317745D01*
X212809542Y-112316586D01*
X212724967Y-112314887D01*
X212599482Y-112310953D01*
X212498928Y-112305321D01*
X212416053Y-112297389D01*
X212343604Y-112286558D01*
X212274327Y-112272225D01*
X212196386Y-112253702D01*
X212115069Y-112232609D01*
X212041526Y-112210482D01*
X211969082Y-112184728D01*
X211891063Y-112152755D01*
X211800795Y-112111973D01*
X211691601Y-112059788D01*
X211556809Y-111993610D01*
X211184006Y-111809372D01*
X211482598Y-111318926D01*
X211521689Y-111254736D01*
X211591920Y-111139505D01*
X211654781Y-111036489D01*
X211707974Y-110949443D01*
X211749203Y-110882127D01*
X211776170Y-110838296D01*
X211786577Y-110821710D01*
X211789472Y-110822205D01*
X211812790Y-110838437D01*
X211853756Y-110872124D01*
X211905897Y-110918040D01*
X211998757Y-110997373D01*
X212164532Y-111114685D01*
X212325373Y-111196466D01*
X212441601Y-111237306D01*
X212638192Y-111279043D01*
X212831348Y-111286441D01*
X213018269Y-111260004D01*
X213196153Y-111200235D01*
X213362200Y-111107638D01*
X213513607Y-110982717D01*
X213597856Y-110890709D01*
X213716544Y-110720526D01*
X213813934Y-110523037D01*
X213890489Y-110297231D01*
X213946677Y-110042096D01*
X213949226Y-110026257D01*
X213961003Y-109923598D01*
X213969770Y-109796046D01*
X213975456Y-109652317D01*
X213977991Y-109501126D01*
X213977303Y-109351188D01*
X213973322Y-109211219D01*
X213965976Y-109089936D01*
X213955195Y-108996052D01*
X213913870Y-108783387D01*
X213844335Y-108534965D01*
X213756885Y-108317476D01*
X213651635Y-108131088D01*
X213528702Y-107975968D01*
X213388205Y-107852285D01*
X213230258Y-107760207D01*
X213054980Y-107699904D01*
X213016091Y-107692419D01*
X212918636Y-107682646D01*
X212804743Y-107679456D01*
X212687174Y-107682674D01*
X212578687Y-107692124D01*
X212492042Y-107707631D01*
X212347702Y-107757008D01*
X212180198Y-107847151D01*
X212031050Y-107965779D01*
X212004726Y-107990768D01*
X211957027Y-108034980D01*
X211923315Y-108064737D01*
X211909619Y-108074636D01*
X211906247Y-108069902D01*
X211885493Y-108040008D01*
X211847998Y-107985728D01*
X211796240Y-107910657D01*
X211732698Y-107818389D01*
X211659847Y-107712518D01*
X211580167Y-107596639D01*
X211254256Y-107122512D01*
X211327062Y-107100699D01*
X211334660Y-107098227D01*
X211384115Y-107078593D01*
X211455417Y-107046934D01*
X211540198Y-107007057D01*
X211630090Y-106962771D01*
X211669262Y-106943191D01*
X211886774Y-106842104D01*
X212087253Y-106763933D01*
X212278408Y-106706680D01*
X212467951Y-106668344D01*
X212663592Y-106646926D01*
X212873042Y-106640426D01*
X213018804Y-106643726D01*
G37*
X204203399Y-106377784D02*
X204049094Y-106378418D01*
X203996649Y-106378737D01*
X203275470Y-106383481D01*
X203266399Y-109150267D01*
X203265201Y-109525451D01*
X203264138Y-109866112D01*
X203263143Y-110174013D01*
X203262147Y-110450916D01*
X203261082Y-110698583D01*
X203259879Y-110918776D01*
X203258471Y-111113257D01*
X203256788Y-111283789D01*
X203254764Y-111432135D01*
X203252329Y-111560056D01*
X203249416Y-111669315D01*
X203245955Y-111761674D01*
X203241880Y-111838895D01*
X203237121Y-111902741D01*
X203231610Y-111954973D01*
X203225279Y-111997355D01*
X203218060Y-112031648D01*
X203209885Y-112059615D01*
X203200685Y-112083019D01*
X203190393Y-112103620D01*
X203178939Y-112123182D01*
X203166255Y-112143467D01*
X203152275Y-112166238D01*
X203149409Y-112171088D01*
X203101330Y-112253128D01*
X204491042Y-112243624D01*
X204500113Y-112090990D01*
X204505052Y-112017740D01*
X204510199Y-111975391D01*
X204517184Y-111958587D01*
X204527633Y-111961972D01*
X204536399Y-111971655D01*
X204574582Y-112006924D01*
X204636815Y-112052258D01*
X204714329Y-112102241D01*
X204798357Y-112151456D01*
X204880131Y-112194486D01*
X204942918Y-112222796D01*
X205090016Y-112269319D01*
X205258790Y-112302274D01*
X205436779Y-112320402D01*
X205611523Y-112322445D01*
X205770563Y-112307142D01*
X205773182Y-112306704D01*
X205990802Y-112252097D01*
X206194515Y-112165096D01*
X206382357Y-112047571D01*
X206552363Y-111901392D01*
X206702568Y-111728429D01*
X206831006Y-111530552D01*
X206935713Y-111309631D01*
X206992724Y-111145981D01*
X207030319Y-111009070D01*
X207058199Y-110876493D01*
X207077217Y-110740197D01*
X207088225Y-110592128D01*
X207092075Y-110424232D01*
X207090370Y-110287135D01*
X205751611Y-110287135D01*
X205745276Y-110517024D01*
X205725291Y-110714806D01*
X205691043Y-110882234D01*
X205641915Y-111021064D01*
X205577294Y-111133053D01*
X205496565Y-111219954D01*
X205403379Y-111281387D01*
X205354890Y-111304321D01*
X205312836Y-111318070D01*
X205265950Y-111324361D01*
X205202966Y-111324917D01*
X205135113Y-111322468D01*
X205001675Y-111310699D01*
X204896138Y-111287650D01*
X204862970Y-111276105D01*
X204787235Y-111242006D01*
X204707356Y-111199186D01*
X204672470Y-111177752D01*
X204581756Y-111118251D01*
X204581756Y-109232279D01*
X204681542Y-109172466D01*
X204820703Y-109104880D01*
X204962883Y-109064909D01*
X205102880Y-109052317D01*
X205235496Y-109066868D01*
X205355530Y-109108327D01*
X205457782Y-109176458D01*
X205490775Y-109209161D01*
X205570303Y-109316314D01*
X205634671Y-109446022D01*
X205684417Y-109600509D01*
X205720079Y-109781997D01*
X205742195Y-109992710D01*
X205751303Y-110234870D01*
X205751611Y-110287135D01*
X207090370Y-110287135D01*
X207089660Y-110230069D01*
X207074365Y-109931408D01*
X207043612Y-109662020D01*
X206996589Y-109417980D01*
X206932488Y-109195365D01*
X206850498Y-108990251D01*
X206821240Y-108929441D01*
X206703389Y-108731135D01*
X206560974Y-108554907D01*
X206397341Y-108403603D01*
X206215839Y-108280066D01*
X206019817Y-108187142D01*
X205902315Y-108148810D01*
X205786916Y-108126054D01*
X205648063Y-108112515D01*
X205497396Y-108108187D01*
X205346557Y-108113063D01*
X205207185Y-108127139D01*
X205095279Y-108149220D01*
X204962086Y-108192523D01*
X204832991Y-108248206D01*
X204720042Y-108310631D01*
X204659927Y-108352998D01*
X204618460Y-108384502D01*
X204589425Y-108403685D01*
X204582820Y-108406409D01*
X204580772Y-108388858D01*
X204578863Y-108338570D01*
X204577134Y-108259095D01*
X204575629Y-108153981D01*
X204574389Y-108026778D01*
X204573457Y-107881034D01*
X204572875Y-107720298D01*
X204572684Y-107556579D01*
X204572791Y-107346883D01*
X204573312Y-107170091D01*
X204574554Y-107022821D01*
X204576822Y-106901692D01*
X204580420Y-106803322D01*
X204585653Y-106724329D01*
X204592826Y-106661333D01*
X204602244Y-106610950D01*
X204614212Y-106569800D01*
X204629035Y-106534501D01*
X204647018Y-106501672D01*
X204668465Y-106467930D01*
X204671225Y-106463752D01*
X204698887Y-106420051D01*
X204715588Y-106390000D01*
X204717827Y-106383662D01*
X204700327Y-106381662D01*
X204650396Y-106380035D01*
X204571885Y-106378807D01*
X204468647Y-106378006D01*
X204344534Y-106377656D01*
X204203399Y-106377784D01*
G36*
X207092075Y-110424232D02*
G01*
X207088225Y-110592128D01*
X207077217Y-110740197D01*
X207058199Y-110876493D01*
X207030319Y-111009070D01*
X206992724Y-111145981D01*
X206935713Y-111309631D01*
X206831006Y-111530552D01*
X206702568Y-111728429D01*
X206552363Y-111901392D01*
X206382357Y-112047571D01*
X206194515Y-112165096D01*
X205990802Y-112252097D01*
X205773182Y-112306704D01*
X205770563Y-112307142D01*
X205611523Y-112322445D01*
X205436779Y-112320402D01*
X205258790Y-112302274D01*
X205090016Y-112269319D01*
X204942918Y-112222796D01*
X204880131Y-112194486D01*
X204798357Y-112151456D01*
X204714329Y-112102241D01*
X204636815Y-112052258D01*
X204574582Y-112006924D01*
X204536399Y-111971655D01*
X204527633Y-111961972D01*
X204517184Y-111958587D01*
X204510199Y-111975391D01*
X204505052Y-112017740D01*
X204500113Y-112090990D01*
X204491042Y-112243624D01*
X203101330Y-112253128D01*
X203149409Y-112171088D01*
X203152275Y-112166238D01*
X203166255Y-112143467D01*
X203178939Y-112123182D01*
X203190393Y-112103620D01*
X203200685Y-112083019D01*
X203209885Y-112059615D01*
X203218060Y-112031648D01*
X203225279Y-111997355D01*
X203231610Y-111954973D01*
X203237121Y-111902741D01*
X203241880Y-111838895D01*
X203245955Y-111761674D01*
X203249416Y-111669315D01*
X203252329Y-111560056D01*
X203254764Y-111432135D01*
X203256788Y-111283789D01*
X203258471Y-111113257D01*
X203259879Y-110918776D01*
X203261082Y-110698583D01*
X203262147Y-110450916D01*
X203263143Y-110174013D01*
X203264138Y-109866112D01*
X203265201Y-109525451D01*
X203266137Y-109232279D01*
X204581756Y-109232279D01*
X204581756Y-111118251D01*
X204672470Y-111177752D01*
X204707356Y-111199186D01*
X204787235Y-111242006D01*
X204862970Y-111276105D01*
X204896138Y-111287650D01*
X205001675Y-111310699D01*
X205135113Y-111322468D01*
X205202966Y-111324917D01*
X205265950Y-111324361D01*
X205312836Y-111318070D01*
X205354890Y-111304321D01*
X205403379Y-111281387D01*
X205496565Y-111219954D01*
X205577294Y-111133053D01*
X205641915Y-111021064D01*
X205691043Y-110882234D01*
X205725291Y-110714806D01*
X205745276Y-110517024D01*
X205751611Y-110287135D01*
X205751303Y-110234870D01*
X205742195Y-109992710D01*
X205720079Y-109781997D01*
X205684417Y-109600509D01*
X205634671Y-109446022D01*
X205570303Y-109316314D01*
X205490775Y-109209161D01*
X205457782Y-109176458D01*
X205355530Y-109108327D01*
X205235496Y-109066868D01*
X205102880Y-109052317D01*
X204962883Y-109064909D01*
X204820703Y-109104880D01*
X204681542Y-109172466D01*
X204581756Y-109232279D01*
X203266137Y-109232279D01*
X203266399Y-109150267D01*
X203275470Y-106383481D01*
X203996649Y-106378737D01*
X204049094Y-106378418D01*
X204203399Y-106377784D01*
X204344534Y-106377656D01*
X204468647Y-106378006D01*
X204571885Y-106378807D01*
X204650396Y-106380035D01*
X204700327Y-106381662D01*
X204717827Y-106383662D01*
X204715588Y-106390000D01*
X204698887Y-106420051D01*
X204671225Y-106463752D01*
X204668465Y-106467930D01*
X204647018Y-106501672D01*
X204629035Y-106534501D01*
X204614212Y-106569800D01*
X204602244Y-106610950D01*
X204592826Y-106661333D01*
X204585653Y-106724329D01*
X204580420Y-106803322D01*
X204576822Y-106901692D01*
X204574554Y-107022821D01*
X204573312Y-107170091D01*
X204572791Y-107346883D01*
X204572684Y-107556579D01*
X204572875Y-107720298D01*
X204573457Y-107881034D01*
X204574389Y-108026778D01*
X204575629Y-108153981D01*
X204577134Y-108259095D01*
X204578863Y-108338570D01*
X204580772Y-108388858D01*
X204582820Y-108406409D01*
X204589425Y-108403685D01*
X204618460Y-108384502D01*
X204659927Y-108352998D01*
X204720042Y-108310631D01*
X204832991Y-108248206D01*
X204962086Y-108192523D01*
X205095279Y-108149220D01*
X205207185Y-108127139D01*
X205346557Y-108113063D01*
X205497396Y-108108187D01*
X205648063Y-108112515D01*
X205786916Y-108126054D01*
X205902315Y-108148810D01*
X206019817Y-108187142D01*
X206215839Y-108280066D01*
X206397341Y-108403603D01*
X206560974Y-108554907D01*
X206703389Y-108731135D01*
X206821240Y-108929441D01*
X206850498Y-108990251D01*
X206932488Y-109195365D01*
X206996589Y-109417980D01*
X207043612Y-109662020D01*
X207074365Y-109931408D01*
X207089660Y-110230069D01*
X207090370Y-110287135D01*
X207092075Y-110424232D01*
G37*
X209059338Y-108105425D02*
X208969447Y-108112230D01*
X208712255Y-108146448D01*
X208484485Y-108201026D01*
X208285027Y-108276715D01*
X208112773Y-108374265D01*
X207966611Y-108494427D01*
X207845434Y-108637953D01*
X207748131Y-108805593D01*
X207677079Y-108986981D01*
X207659043Y-109044841D01*
X207643338Y-109099024D01*
X207629778Y-109152447D01*
X207618178Y-109208028D01*
X207608353Y-109268683D01*
X207600117Y-109337330D01*
X207593286Y-109416885D01*
X207587675Y-109510267D01*
X207583098Y-109620391D01*
X207579370Y-109750176D01*
X207576305Y-109902537D01*
X207573720Y-110080393D01*
X207571428Y-110286660D01*
X207569245Y-110524256D01*
X207567684Y-110710552D01*
X207557185Y-111989624D01*
X207489149Y-112112713D01*
X207456932Y-112172012D01*
X207432958Y-112218072D01*
X207421520Y-112242588D01*
X207421113Y-112244248D01*
X207438595Y-112246149D01*
X207488396Y-112247900D01*
X207566549Y-112249453D01*
X207669088Y-112250757D01*
X207792048Y-112251765D01*
X207931460Y-112252426D01*
X208083359Y-112252692D01*
X208101470Y-112252695D01*
X208781827Y-112252695D01*
X208781827Y-112098481D01*
X208782988Y-112028789D01*
X208786083Y-111975489D01*
X208790538Y-111946912D01*
X208792507Y-111944267D01*
X208810515Y-111955348D01*
X208847577Y-111984431D01*
X208895748Y-112025274D01*
X208896829Y-112026219D01*
X208984735Y-112091666D01*
X209095753Y-112157383D01*
X209217339Y-112216914D01*
X209336949Y-112263804D01*
X209389613Y-112279828D01*
X209494419Y-112300180D01*
X209623020Y-112313167D01*
X209763645Y-112318604D01*
X209904522Y-112316306D01*
X210033877Y-112306087D01*
X210124399Y-112291384D01*
X210346390Y-112226194D01*
X210546241Y-112133289D01*
X210722651Y-112013821D01*
X210874320Y-111868942D01*
X210999946Y-111699805D01*
X211098229Y-111507562D01*
X211140629Y-111390909D01*
X211167202Y-111277528D01*
X211184812Y-111141417D01*
X211192960Y-110995132D01*
X211192692Y-110973846D01*
X209965649Y-110973846D01*
X209955474Y-111082545D01*
X209921592Y-111172880D01*
X209858970Y-111256690D01*
X209834918Y-111281266D01*
X209749419Y-111347706D01*
X209650597Y-111390269D01*
X209532202Y-111410872D01*
X209407525Y-111412389D01*
X209289272Y-111402372D01*
X209198731Y-111382780D01*
X209159410Y-111368065D01*
X209088538Y-111327960D01*
X209013445Y-111271558D01*
X208944932Y-111208256D01*
X208893798Y-111147450D01*
X208880220Y-111125144D01*
X208869665Y-111093907D01*
X208862160Y-111044202D01*
X208857357Y-110971282D01*
X208854905Y-110870398D01*
X208854399Y-110774384D01*
X208854742Y-110662445D01*
X208856127Y-110581504D01*
X208859089Y-110526280D01*
X208864162Y-110491489D01*
X208871880Y-110471849D01*
X208882778Y-110462075D01*
X208886149Y-110460519D01*
X208915441Y-110455724D01*
X208973214Y-110451803D01*
X209051666Y-110449109D01*
X209142996Y-110447994D01*
X209162827Y-110447993D01*
X209284907Y-110449941D01*
X209379221Y-110455736D01*
X209454163Y-110466170D01*
X209516067Y-110481409D01*
X209669621Y-110539479D01*
X209790038Y-110610874D01*
X209878360Y-110696734D01*
X209935631Y-110798202D01*
X209962892Y-110916420D01*
X209965649Y-110973846D01*
X211192692Y-110973846D01*
X211191147Y-110851228D01*
X211178874Y-110722260D01*
X211169300Y-110670155D01*
X211108169Y-110476692D01*
X211015213Y-110298688D01*
X210892187Y-110137850D01*
X210740846Y-109995885D01*
X210562945Y-109874501D01*
X210360238Y-109775404D01*
X210187899Y-109715228D01*
X210072717Y-109683614D01*
X209962547Y-109659049D01*
X209850251Y-109640734D01*
X209728695Y-109627873D01*
X209590741Y-109619667D01*
X209429255Y-109615319D01*
X209283255Y-109614095D01*
X208850325Y-109612910D01*
X208858619Y-109482775D01*
X208882169Y-109341578D01*
X208932267Y-109220213D01*
X209006779Y-109121712D01*
X209103571Y-109049104D01*
X209188799Y-109013674D01*
X209310914Y-108991345D01*
X209456287Y-108988138D01*
X209618103Y-109002872D01*
X209789548Y-109034365D01*
X209963807Y-109081435D01*
X210134066Y-109142898D01*
X210257794Y-109199112D01*
X210317323Y-109227978D01*
X210362728Y-109248138D01*
X210385820Y-109256005D01*
X210387073Y-109255753D01*
X210395041Y-109238132D01*
X210414939Y-109191428D01*
X210444893Y-109120113D01*
X210483031Y-109028664D01*
X210527482Y-108921554D01*
X210572665Y-108812244D01*
X210753303Y-108374435D01*
X210624815Y-108353331D01*
X210569124Y-108342742D01*
X210485406Y-108324958D01*
X210380831Y-108301593D01*
X210262571Y-108274260D01*
X210137798Y-108244576D01*
X210088113Y-108232513D01*
X209873163Y-108182657D01*
X209684975Y-108145279D01*
X209516524Y-108119622D01*
X209360784Y-108104930D01*
X209210730Y-108100450D01*
X209059338Y-108105425D01*
G36*
X211192960Y-110995132D02*
G01*
X211184812Y-111141417D01*
X211167202Y-111277528D01*
X211140629Y-111390909D01*
X211098229Y-111507562D01*
X210999946Y-111699805D01*
X210874320Y-111868942D01*
X210722651Y-112013821D01*
X210546241Y-112133289D01*
X210346390Y-112226194D01*
X210124399Y-112291384D01*
X210033877Y-112306087D01*
X209904522Y-112316306D01*
X209763645Y-112318604D01*
X209623020Y-112313167D01*
X209494419Y-112300180D01*
X209389613Y-112279828D01*
X209336949Y-112263804D01*
X209217339Y-112216914D01*
X209095753Y-112157383D01*
X208984735Y-112091666D01*
X208896829Y-112026219D01*
X208895748Y-112025274D01*
X208847577Y-111984431D01*
X208810515Y-111955348D01*
X208792507Y-111944267D01*
X208790538Y-111946912D01*
X208786083Y-111975489D01*
X208782988Y-112028789D01*
X208781827Y-112098481D01*
X208781827Y-112252695D01*
X208101470Y-112252695D01*
X208083359Y-112252692D01*
X207931460Y-112252426D01*
X207792048Y-112251765D01*
X207669088Y-112250757D01*
X207566549Y-112249453D01*
X207488396Y-112247900D01*
X207438595Y-112246149D01*
X207421113Y-112244248D01*
X207421520Y-112242588D01*
X207432958Y-112218072D01*
X207456932Y-112172012D01*
X207489149Y-112112713D01*
X207557185Y-111989624D01*
X207567160Y-110774384D01*
X208854399Y-110774384D01*
X208854905Y-110870398D01*
X208857357Y-110971282D01*
X208862160Y-111044202D01*
X208869665Y-111093907D01*
X208880220Y-111125144D01*
X208893798Y-111147450D01*
X208944932Y-111208256D01*
X209013445Y-111271558D01*
X209088538Y-111327960D01*
X209159410Y-111368065D01*
X209198731Y-111382780D01*
X209289272Y-111402372D01*
X209407525Y-111412389D01*
X209532202Y-111410872D01*
X209650597Y-111390269D01*
X209749419Y-111347706D01*
X209834918Y-111281266D01*
X209858970Y-111256690D01*
X209921592Y-111172880D01*
X209955474Y-111082545D01*
X209965649Y-110973846D01*
X209962892Y-110916420D01*
X209935631Y-110798202D01*
X209878360Y-110696734D01*
X209790038Y-110610874D01*
X209669621Y-110539479D01*
X209516067Y-110481409D01*
X209454163Y-110466170D01*
X209379221Y-110455736D01*
X209284907Y-110449941D01*
X209162827Y-110447993D01*
X209142996Y-110447994D01*
X209051666Y-110449109D01*
X208973214Y-110451803D01*
X208915441Y-110455724D01*
X208886149Y-110460519D01*
X208882778Y-110462075D01*
X208871880Y-110471849D01*
X208864162Y-110491489D01*
X208859089Y-110526280D01*
X208856127Y-110581504D01*
X208854742Y-110662445D01*
X208854399Y-110774384D01*
X207567160Y-110774384D01*
X207567684Y-110710552D01*
X207569245Y-110524256D01*
X207571428Y-110286660D01*
X207573720Y-110080393D01*
X207576305Y-109902537D01*
X207579370Y-109750176D01*
X207583098Y-109620391D01*
X207587675Y-109510267D01*
X207593286Y-109416885D01*
X207600117Y-109337330D01*
X207608353Y-109268683D01*
X207618178Y-109208028D01*
X207629778Y-109152447D01*
X207643338Y-109099024D01*
X207659043Y-109044841D01*
X207677079Y-108986981D01*
X207748131Y-108805593D01*
X207845434Y-108637953D01*
X207966611Y-108494427D01*
X208112773Y-108374265D01*
X208285027Y-108276715D01*
X208484485Y-108201026D01*
X208712255Y-108146448D01*
X208969447Y-108112230D01*
X209059338Y-108105425D01*
X209210730Y-108100450D01*
X209360784Y-108104930D01*
X209516524Y-108119622D01*
X209684975Y-108145279D01*
X209873163Y-108182657D01*
X210088113Y-108232513D01*
X210137798Y-108244576D01*
X210262571Y-108274260D01*
X210380831Y-108301593D01*
X210485406Y-108324958D01*
X210569124Y-108342742D01*
X210624815Y-108353331D01*
X210753303Y-108374435D01*
X210572665Y-108812244D01*
X210527482Y-108921554D01*
X210483031Y-109028664D01*
X210444893Y-109120113D01*
X210414939Y-109191428D01*
X210395041Y-109238132D01*
X210387073Y-109255753D01*
X210385820Y-109256005D01*
X210362728Y-109248138D01*
X210317323Y-109227978D01*
X210257794Y-109199112D01*
X210134066Y-109142898D01*
X209963807Y-109081435D01*
X209789548Y-109034365D01*
X209618103Y-109002872D01*
X209456287Y-108988138D01*
X209310914Y-108991345D01*
X209188799Y-109013674D01*
X209103571Y-109049104D01*
X209006779Y-109121712D01*
X208932267Y-109220213D01*
X208882169Y-109341578D01*
X208858619Y-109482775D01*
X208850325Y-109612910D01*
X209283255Y-109614095D01*
X209429255Y-109615319D01*
X209590741Y-109619667D01*
X209728695Y-109627873D01*
X209850251Y-109640734D01*
X209962547Y-109659049D01*
X210072717Y-109683614D01*
X210187899Y-109715228D01*
X210360238Y-109775404D01*
X210562945Y-109874501D01*
X210740846Y-109995885D01*
X210892187Y-110137850D01*
X211015213Y-110298688D01*
X211108169Y-110476692D01*
X211169300Y-110670155D01*
X211178874Y-110722260D01*
X211191147Y-110851228D01*
X211192692Y-110973846D01*
X211192960Y-110995132D01*
G37*
X221115059Y-105739355D02*
X220765510Y-105739402D01*
X220602800Y-105739409D01*
X217998399Y-105739410D01*
X217998399Y-105892933D01*
X217982013Y-106079758D01*
X217932558Y-106252062D01*
X217849590Y-106410870D01*
X217732665Y-106557205D01*
X217693106Y-106596727D01*
X217550800Y-106708833D01*
X217393892Y-106790594D01*
X217227042Y-106842048D01*
X217054909Y-106863232D01*
X216882155Y-106854182D01*
X216713440Y-106814937D01*
X216553424Y-106745533D01*
X216406768Y-106646006D01*
X216340902Y-106585960D01*
X216218162Y-106438738D01*
X216128158Y-106276842D01*
X216071676Y-106102122D01*
X216049499Y-105916430D01*
X216049204Y-105898162D01*
X216048042Y-105739415D01*
X215978270Y-105739412D01*
X215916375Y-105747813D01*
X215859835Y-105768251D01*
X215856098Y-105770362D01*
X215843328Y-105776988D01*
X215831602Y-105782149D01*
X215820876Y-105787346D01*
X215811109Y-105794085D01*
X215802258Y-105803866D01*
X215794281Y-105818195D01*
X215787135Y-105838573D01*
X215780778Y-105866503D01*
X215775168Y-105903490D01*
X215770263Y-105951035D01*
X215766019Y-106010642D01*
X215762394Y-106083814D01*
X215759347Y-106172054D01*
X215756834Y-106276865D01*
X215754814Y-106399750D01*
X215753244Y-106542212D01*
X215752082Y-106705755D01*
X215751284Y-106891881D01*
X215750810Y-107102093D01*
X215750616Y-107337895D01*
X215750660Y-107600789D01*
X215750900Y-107892279D01*
X215751293Y-108213867D01*
X215751797Y-108567057D01*
X215752370Y-108953352D01*
X215752969Y-109374255D01*
X215753038Y-109425535D01*
X215753575Y-109849121D01*
X215754031Y-110237925D01*
X215754454Y-110593448D01*
X215754891Y-110917193D01*
X215755392Y-111210661D01*
X215756005Y-111475356D01*
X215756778Y-111712780D01*
X215757759Y-111924435D01*
X215758996Y-112111824D01*
X215760538Y-112276449D01*
X215762433Y-112419812D01*
X215764729Y-112543415D01*
X215767474Y-112648762D01*
X215770717Y-112737354D01*
X215774506Y-112810695D01*
X215778889Y-112870285D01*
X215783915Y-112917628D01*
X215789631Y-112954226D01*
X215796086Y-112981581D01*
X215803329Y-113001197D01*
X215811407Y-113014574D01*
X215820368Y-113023216D01*
X215830262Y-113028625D01*
X215841135Y-113032303D01*
X215853037Y-113035753D01*
X215866016Y-113040477D01*
X215869187Y-113041915D01*
X215879151Y-113045146D01*
X215895829Y-113048115D01*
X215920677Y-113050832D01*
X215955150Y-113053308D01*
X216000706Y-113055553D01*
X216058800Y-113057578D01*
X216130889Y-113059393D01*
X216218428Y-113061010D01*
X216322875Y-113062438D01*
X216445685Y-113063688D01*
X216588315Y-113064771D01*
X216752221Y-113065697D01*
X216938860Y-113066477D01*
X217149686Y-113067121D01*
X217386158Y-113067641D01*
X217649731Y-113068046D01*
X217941860Y-113068347D01*
X218264004Y-113068555D01*
X218617617Y-113068680D01*
X219004156Y-113068733D01*
X219425078Y-113068724D01*
X219561426Y-113068711D01*
X219991686Y-113068642D01*
X220387134Y-113068529D01*
X220749243Y-113068360D01*
X221079487Y-113068125D01*
X221379341Y-113067811D01*
X221650278Y-113067408D01*
X221893770Y-113066902D01*
X222111293Y-113066284D01*
X222304320Y-113065541D01*
X222474324Y-113064663D01*
X222622780Y-113063636D01*
X222751160Y-113062451D01*
X222860939Y-113061095D01*
X222953590Y-113059557D01*
X223030587Y-113057825D01*
X223093404Y-113055889D01*
X223143514Y-113053735D01*
X223182391Y-113051354D01*
X223211508Y-113048732D01*
X223232341Y-113045860D01*
X223246361Y-113042725D01*
X223254004Y-113039854D01*
X223267588Y-113034125D01*
X223280060Y-113029901D01*
X223291468Y-113025680D01*
X223301859Y-113019963D01*
X223311279Y-113011250D01*
X223319778Y-112998040D01*
X223327400Y-112978832D01*
X223334195Y-112952128D01*
X223340208Y-112916425D01*
X223345487Y-112870225D01*
X223350080Y-112812027D01*
X223354034Y-112740330D01*
X223357395Y-112653635D01*
X223360211Y-112550441D01*
X223362530Y-112429248D01*
X223364398Y-112288555D01*
X223364886Y-112234552D01*
X222880674Y-112234552D01*
X221169226Y-112234552D01*
X221202157Y-112184659D01*
X221234917Y-112133388D01*
X221262659Y-112084564D01*
X221285777Y-112034771D01*
X221304667Y-111980593D01*
X221319721Y-111918611D01*
X221331337Y-111845410D01*
X221339906Y-111757573D01*
X221345826Y-111651683D01*
X221349489Y-111524323D01*
X221351291Y-111372076D01*
X221351626Y-111191527D01*
X221350889Y-110979257D01*
X221350471Y-110900450D01*
X221345756Y-110055606D01*
X220810542Y-110784252D01*
X220658916Y-110990960D01*
X220527551Y-111170955D01*
X220415027Y-111326620D01*
X220319927Y-111460342D01*
X220240832Y-111574504D01*
X220176323Y-111671492D01*
X220124982Y-111753689D01*
X220085390Y-111823481D01*
X220056130Y-111883253D01*
X220035782Y-111935388D01*
X220022928Y-111982271D01*
X220016151Y-112026288D01*
X220014030Y-112069822D01*
X220015149Y-112115259D01*
X220015434Y-112120970D01*
X220021327Y-112234628D01*
X218145741Y-112234552D01*
X218285248Y-112093884D01*
X218323105Y-112055410D01*
X218359017Y-112017974D01*
X218394563Y-111979509D01*
X218431317Y-111937953D01*
X218470856Y-111891240D01*
X218514756Y-111837305D01*
X218564593Y-111774085D01*
X218621942Y-111699513D01*
X218688381Y-111611527D01*
X218765485Y-111508060D01*
X218854831Y-111387049D01*
X218957994Y-111246429D01*
X219076550Y-111084135D01*
X219212075Y-110898102D01*
X219366147Y-110686266D01*
X219492432Y-110512499D01*
X219650924Y-110294196D01*
X219789186Y-110103324D01*
X219908469Y-109938069D01*
X220010027Y-109796621D01*
X220095111Y-109677166D01*
X220164975Y-109577893D01*
X220220870Y-109496990D01*
X220264050Y-109432644D01*
X220295767Y-109383042D01*
X220317272Y-109346374D01*
X220329820Y-109320827D01*
X220334662Y-109304588D01*
X220333207Y-109296050D01*
X220315569Y-109273330D01*
X220277436Y-109225238D01*
X220221108Y-109154633D01*
X220148886Y-109064373D01*
X220063071Y-108957316D01*
X219965964Y-108836322D01*
X219859866Y-108704249D01*
X219747079Y-108563955D01*
X219629902Y-108418298D01*
X219510637Y-108270139D01*
X219445037Y-108188695D01*
X217816284Y-108188695D01*
X217748591Y-108311160D01*
X217680899Y-108433624D01*
X217680899Y-111989624D01*
X217748591Y-112112088D01*
X217816284Y-112234552D01*
X217015529Y-112234552D01*
X216824368Y-112234497D01*
X216666471Y-112234246D01*
X216538818Y-112233674D01*
X216438389Y-112232654D01*
X216362163Y-112231060D01*
X216307118Y-112228765D01*
X216270234Y-112225645D01*
X216248491Y-112221572D01*
X216238868Y-112216420D01*
X216238343Y-112210062D01*
X216243896Y-112202374D01*
X216243954Y-112202310D01*
X216266830Y-112169219D01*
X216297121Y-112115414D01*
X216323873Y-112061703D01*
X216374613Y-111953338D01*
X216379788Y-110071017D01*
X216384963Y-108188695D01*
X217816284Y-108188695D01*
X219445037Y-108188695D01*
X219391585Y-108122334D01*
X219275047Y-107977742D01*
X219163324Y-107839223D01*
X219058716Y-107709634D01*
X218963526Y-107591835D01*
X218880053Y-107488683D01*
X218810599Y-107403038D01*
X218757464Y-107337757D01*
X218726255Y-107299695D01*
X218605067Y-107157365D01*
X218488477Y-107028925D01*
X218380573Y-106918581D01*
X218285440Y-106830536D01*
X218217927Y-106776557D01*
X218138097Y-106719124D01*
X219974078Y-106719124D01*
X219973562Y-106826860D01*
X219978694Y-106906067D01*
X219997985Y-106979500D01*
X220027847Y-107049110D01*
X220047258Y-107088436D01*
X220068129Y-107127402D01*
X220092366Y-107168596D01*
X220121876Y-107214603D01*
X220158564Y-107268012D01*
X220204338Y-107331409D01*
X220261105Y-107407380D01*
X220330770Y-107498512D01*
X220415240Y-107607393D01*
X220516423Y-107736609D01*
X220636223Y-107888747D01*
X220776549Y-108066393D01*
X220792399Y-108086437D01*
X221345756Y-108786203D01*
X221351113Y-108011199D01*
X221352191Y-107779063D01*
X221351962Y-107582541D01*
X221350413Y-107420987D01*
X221347533Y-107293751D01*
X221343311Y-107200187D01*
X221337736Y-107139647D01*
X221335863Y-107128163D01*
X221306465Y-107007194D01*
X221267948Y-106898141D01*
X221223996Y-106810458D01*
X221197591Y-106773269D01*
X221152030Y-106719124D01*
X222016500Y-106719124D01*
X222222715Y-106719300D01*
X222395158Y-106719874D01*
X222536343Y-106720912D01*
X222648782Y-106722482D01*
X222734987Y-106724649D01*
X222797472Y-106727483D01*
X222838749Y-106731048D01*
X222861330Y-106735413D01*
X222867729Y-106740644D01*
X222867287Y-106741802D01*
X222848961Y-106769464D01*
X222818366Y-106813310D01*
X222802537Y-106835486D01*
X222786172Y-106857615D01*
X222771462Y-106877404D01*
X222758314Y-106896801D01*
X222746637Y-106917753D01*
X222736338Y-106942207D01*
X222727324Y-106972111D01*
X222719502Y-107009412D01*
X222712779Y-107056058D01*
X222707064Y-107113996D01*
X222702263Y-107185174D01*
X222698285Y-107271539D01*
X222695035Y-107375039D01*
X222692422Y-107497620D01*
X222690353Y-107641232D01*
X222688736Y-107807820D01*
X222687477Y-107999332D01*
X222686485Y-108217717D01*
X222685666Y-108464921D01*
X222684928Y-108742891D01*
X222684179Y-109053576D01*
X222683478Y-109338995D01*
X222682817Y-109657187D01*
X222682473Y-109960772D01*
X222682438Y-110247810D01*
X222682702Y-110516364D01*
X222683255Y-110764493D01*
X222684090Y-110990258D01*
X222685197Y-111191721D01*
X222686566Y-111366941D01*
X222688189Y-111513981D01*
X222690057Y-111630901D01*
X222692159Y-111715762D01*
X222694488Y-111766624D01*
X222694929Y-111771999D01*
X222710978Y-111895308D01*
X222736034Y-111994339D01*
X222774191Y-112080765D01*
X222829542Y-112166260D01*
X222836466Y-112175588D01*
X222880674Y-112234552D01*
X223364886Y-112234552D01*
X223365862Y-112126863D01*
X223366971Y-111942671D01*
X223367771Y-111734479D01*
X223368309Y-111500786D01*
X223368632Y-111240093D01*
X223368787Y-110950899D01*
X223368824Y-110631704D01*
X223368787Y-110281008D01*
X223368725Y-109897309D01*
X223368685Y-109479109D01*
X223368684Y-109396088D01*
X223368661Y-108973484D01*
X223368582Y-108585676D01*
X223368437Y-108231175D01*
X223368214Y-107908492D01*
X223367901Y-107616137D01*
X223367487Y-107352622D01*
X223366961Y-107116457D01*
X223366310Y-106906153D01*
X223365523Y-106720221D01*
X223364589Y-106557170D01*
X223363496Y-106415513D01*
X223362233Y-106293759D01*
X223360787Y-106190420D01*
X223359149Y-106104006D01*
X223357304Y-106033028D01*
X223355244Y-105975996D01*
X223352955Y-105931422D01*
X223350426Y-105897816D01*
X223347646Y-105873688D01*
X223344603Y-105857551D01*
X223341286Y-105847913D01*
X223341163Y-105847673D01*
X223334330Y-105832950D01*
X223328640Y-105819621D01*
X223322344Y-105807617D01*
X223313698Y-105796868D01*
X223300956Y-105787306D01*
X223282370Y-105778862D01*
X223256196Y-105771466D01*
X223220686Y-105765049D01*
X223174095Y-105759543D01*
X223114677Y-105754878D01*
X223040685Y-105750986D01*
X222950373Y-105747797D01*
X222841995Y-105745242D01*
X222713805Y-105743253D01*
X222564057Y-105741760D01*
X222391004Y-105740693D01*
X222192901Y-105739986D01*
X221968001Y-105739567D01*
X221714558Y-105739368D01*
X221430826Y-105739321D01*
X221115059Y-105739355D01*
G36*
X223364398Y-112288555D02*
G01*
X223362530Y-112429248D01*
X223360211Y-112550441D01*
X223357395Y-112653635D01*
X223354034Y-112740330D01*
X223350080Y-112812027D01*
X223345487Y-112870225D01*
X223340208Y-112916425D01*
X223334195Y-112952128D01*
X223327400Y-112978832D01*
X223319778Y-112998040D01*
X223311279Y-113011250D01*
X223301859Y-113019963D01*
X223291468Y-113025680D01*
X223280060Y-113029901D01*
X223267588Y-113034125D01*
X223254004Y-113039854D01*
X223246361Y-113042725D01*
X223232341Y-113045860D01*
X223211508Y-113048732D01*
X223182391Y-113051354D01*
X223143514Y-113053735D01*
X223093404Y-113055889D01*
X223030587Y-113057825D01*
X222953590Y-113059557D01*
X222860939Y-113061095D01*
X222751160Y-113062451D01*
X222622780Y-113063636D01*
X222474324Y-113064663D01*
X222304320Y-113065541D01*
X222111293Y-113066284D01*
X221893770Y-113066902D01*
X221650278Y-113067408D01*
X221379341Y-113067811D01*
X221079487Y-113068125D01*
X220749243Y-113068360D01*
X220387134Y-113068529D01*
X219991686Y-113068642D01*
X219561426Y-113068711D01*
X219425078Y-113068724D01*
X219004156Y-113068733D01*
X218617617Y-113068680D01*
X218264004Y-113068555D01*
X217941860Y-113068347D01*
X217649731Y-113068046D01*
X217386158Y-113067641D01*
X217149686Y-113067121D01*
X216938860Y-113066477D01*
X216752221Y-113065697D01*
X216588315Y-113064771D01*
X216445685Y-113063688D01*
X216322875Y-113062438D01*
X216218428Y-113061010D01*
X216130889Y-113059393D01*
X216058800Y-113057578D01*
X216000706Y-113055553D01*
X215955150Y-113053308D01*
X215920677Y-113050832D01*
X215895829Y-113048115D01*
X215879151Y-113045146D01*
X215869187Y-113041915D01*
X215866016Y-113040477D01*
X215853037Y-113035753D01*
X215841135Y-113032303D01*
X215830262Y-113028625D01*
X215820368Y-113023216D01*
X215811407Y-113014574D01*
X215803329Y-113001197D01*
X215796086Y-112981581D01*
X215789631Y-112954226D01*
X215783915Y-112917628D01*
X215778889Y-112870285D01*
X215774506Y-112810695D01*
X215770717Y-112737354D01*
X215767474Y-112648762D01*
X215764729Y-112543415D01*
X215762433Y-112419812D01*
X215760538Y-112276449D01*
X215759916Y-112210062D01*
X216238343Y-112210062D01*
X216238868Y-112216420D01*
X216248491Y-112221572D01*
X216270234Y-112225645D01*
X216307118Y-112228765D01*
X216362163Y-112231060D01*
X216438389Y-112232654D01*
X216538818Y-112233674D01*
X216666471Y-112234246D01*
X216824368Y-112234497D01*
X217015529Y-112234552D01*
X217816284Y-112234552D01*
X217748591Y-112112088D01*
X217680899Y-111989624D01*
X217680899Y-108433624D01*
X217748591Y-108311160D01*
X217816284Y-108188695D01*
X216384963Y-108188695D01*
X216379788Y-110071017D01*
X216374613Y-111953338D01*
X216323873Y-112061703D01*
X216297121Y-112115414D01*
X216266830Y-112169219D01*
X216243954Y-112202310D01*
X216243896Y-112202374D01*
X216238343Y-112210062D01*
X215759916Y-112210062D01*
X215758996Y-112111824D01*
X215757759Y-111924435D01*
X215756778Y-111712780D01*
X215756005Y-111475356D01*
X215755392Y-111210661D01*
X215754891Y-110917193D01*
X215754454Y-110593448D01*
X215754031Y-110237925D01*
X215753575Y-109849121D01*
X215753038Y-109425535D01*
X215752969Y-109374255D01*
X215752370Y-108953352D01*
X215751797Y-108567057D01*
X215751293Y-108213867D01*
X215750900Y-107892279D01*
X215750660Y-107600789D01*
X215750616Y-107337895D01*
X215750810Y-107102093D01*
X215751284Y-106891881D01*
X215752082Y-106705755D01*
X215753244Y-106542212D01*
X215754814Y-106399750D01*
X215756834Y-106276865D01*
X215759347Y-106172054D01*
X215762394Y-106083814D01*
X215766019Y-106010642D01*
X215770263Y-105951035D01*
X215775168Y-105903490D01*
X215780778Y-105866503D01*
X215787135Y-105838573D01*
X215794281Y-105818195D01*
X215802258Y-105803866D01*
X215811109Y-105794085D01*
X215820876Y-105787346D01*
X215831602Y-105782149D01*
X215843328Y-105776988D01*
X215856098Y-105770362D01*
X215859835Y-105768251D01*
X215916375Y-105747813D01*
X215978270Y-105739412D01*
X216048042Y-105739415D01*
X216049204Y-105898162D01*
X216049499Y-105916430D01*
X216071676Y-106102122D01*
X216128158Y-106276842D01*
X216218162Y-106438738D01*
X216340902Y-106585960D01*
X216406768Y-106646006D01*
X216553424Y-106745533D01*
X216713440Y-106814937D01*
X216882155Y-106854182D01*
X217054909Y-106863232D01*
X217227042Y-106842048D01*
X217393892Y-106790594D01*
X217531050Y-106719124D01*
X218138097Y-106719124D01*
X218217927Y-106776557D01*
X218285440Y-106830536D01*
X218380573Y-106918581D01*
X218488477Y-107028925D01*
X218605067Y-107157365D01*
X218726255Y-107299695D01*
X218757464Y-107337757D01*
X218810599Y-107403038D01*
X218880053Y-107488683D01*
X218963526Y-107591835D01*
X219058716Y-107709634D01*
X219163324Y-107839223D01*
X219275047Y-107977742D01*
X219391585Y-108122334D01*
X219445037Y-108188695D01*
X219510637Y-108270139D01*
X219629902Y-108418298D01*
X219747079Y-108563955D01*
X219859866Y-108704249D01*
X219965964Y-108836322D01*
X220063071Y-108957316D01*
X220148886Y-109064373D01*
X220221108Y-109154633D01*
X220277436Y-109225238D01*
X220315569Y-109273330D01*
X220333207Y-109296050D01*
X220334662Y-109304588D01*
X220329820Y-109320827D01*
X220317272Y-109346374D01*
X220295767Y-109383042D01*
X220264050Y-109432644D01*
X220220870Y-109496990D01*
X220164975Y-109577893D01*
X220095111Y-109677166D01*
X220010027Y-109796621D01*
X219908469Y-109938069D01*
X219789186Y-110103324D01*
X219650924Y-110294196D01*
X219492432Y-110512499D01*
X219366147Y-110686266D01*
X219212075Y-110898102D01*
X219076550Y-111084135D01*
X218957994Y-111246429D01*
X218854831Y-111387049D01*
X218765485Y-111508060D01*
X218688381Y-111611527D01*
X218621942Y-111699513D01*
X218564593Y-111774085D01*
X218514756Y-111837305D01*
X218470856Y-111891240D01*
X218431317Y-111937953D01*
X218394563Y-111979509D01*
X218359017Y-112017974D01*
X218323105Y-112055410D01*
X218285248Y-112093884D01*
X218145741Y-112234552D01*
X220021327Y-112234628D01*
X220015434Y-112120970D01*
X220015149Y-112115259D01*
X220014030Y-112069822D01*
X220016151Y-112026288D01*
X220022928Y-111982271D01*
X220035782Y-111935388D01*
X220056130Y-111883253D01*
X220085390Y-111823481D01*
X220124982Y-111753689D01*
X220176323Y-111671492D01*
X220240832Y-111574504D01*
X220319927Y-111460342D01*
X220415027Y-111326620D01*
X220527551Y-111170955D01*
X220658916Y-110990960D01*
X220810542Y-110784252D01*
X221345756Y-110055606D01*
X221350471Y-110900450D01*
X221350889Y-110979257D01*
X221351626Y-111191527D01*
X221351291Y-111372076D01*
X221349489Y-111524323D01*
X221345826Y-111651683D01*
X221339906Y-111757573D01*
X221331337Y-111845410D01*
X221319721Y-111918611D01*
X221304667Y-111980593D01*
X221285777Y-112034771D01*
X221262659Y-112084564D01*
X221234917Y-112133388D01*
X221202157Y-112184659D01*
X221169226Y-112234552D01*
X222880674Y-112234552D01*
X222836466Y-112175588D01*
X222829542Y-112166260D01*
X222774191Y-112080765D01*
X222736034Y-111994339D01*
X222710978Y-111895308D01*
X222694929Y-111771999D01*
X222694488Y-111766624D01*
X222692159Y-111715762D01*
X222690057Y-111630901D01*
X222688189Y-111513981D01*
X222686566Y-111366941D01*
X222685197Y-111191721D01*
X222684090Y-110990258D01*
X222683255Y-110764493D01*
X222682702Y-110516364D01*
X222682438Y-110247810D01*
X222682473Y-109960772D01*
X222682817Y-109657187D01*
X222683478Y-109338995D01*
X222684179Y-109053576D01*
X222684928Y-108742891D01*
X222685666Y-108464921D01*
X222686485Y-108217717D01*
X222687477Y-107999332D01*
X222688736Y-107807820D01*
X222690353Y-107641232D01*
X222692422Y-107497620D01*
X222695035Y-107375039D01*
X222698285Y-107271539D01*
X222702263Y-107185174D01*
X222707064Y-107113996D01*
X222712779Y-107056058D01*
X222719502Y-107009412D01*
X222727324Y-106972111D01*
X222736338Y-106942207D01*
X222746637Y-106917753D01*
X222758314Y-106896801D01*
X222771462Y-106877404D01*
X222786172Y-106857615D01*
X222802537Y-106835486D01*
X222818366Y-106813310D01*
X222848961Y-106769464D01*
X222867287Y-106741802D01*
X222867729Y-106740644D01*
X222861330Y-106735413D01*
X222838749Y-106731048D01*
X222797472Y-106727483D01*
X222734987Y-106724649D01*
X222648782Y-106722482D01*
X222536343Y-106720912D01*
X222395158Y-106719874D01*
X222222715Y-106719300D01*
X222016500Y-106719124D01*
X221152030Y-106719124D01*
X221197591Y-106773269D01*
X221223996Y-106810458D01*
X221267948Y-106898141D01*
X221306465Y-107007194D01*
X221335863Y-107128163D01*
X221337736Y-107139647D01*
X221343311Y-107200187D01*
X221347533Y-107293751D01*
X221350413Y-107420987D01*
X221351962Y-107582541D01*
X221352191Y-107779063D01*
X221351113Y-108011199D01*
X221345756Y-108786203D01*
X220792399Y-108086437D01*
X220776549Y-108066393D01*
X220636223Y-107888747D01*
X220516423Y-107736609D01*
X220415240Y-107607393D01*
X220330770Y-107498512D01*
X220261105Y-107407380D01*
X220204338Y-107331409D01*
X220158564Y-107268012D01*
X220121876Y-107214603D01*
X220092366Y-107168596D01*
X220068129Y-107127402D01*
X220047258Y-107088436D01*
X220027847Y-107049110D01*
X219997985Y-106979500D01*
X219978694Y-106906067D01*
X219973562Y-106826860D01*
X219974078Y-106719124D01*
X218138097Y-106719124D01*
X217531050Y-106719124D01*
X217550800Y-106708833D01*
X217693106Y-106596727D01*
X217732665Y-106557205D01*
X217849590Y-106410870D01*
X217932558Y-106252062D01*
X217982013Y-106079758D01*
X217998399Y-105892933D01*
X217998399Y-105739410D01*
X220602800Y-105739409D01*
X220765510Y-105739402D01*
X221115059Y-105739355D01*
X221430826Y-105739321D01*
X221714558Y-105739368D01*
X221968001Y-105739567D01*
X222192901Y-105739986D01*
X222391004Y-105740693D01*
X222564057Y-105741760D01*
X222713805Y-105743253D01*
X222841995Y-105745242D01*
X222950373Y-105747797D01*
X223040685Y-105750986D01*
X223114677Y-105754878D01*
X223174095Y-105759543D01*
X223220686Y-105765049D01*
X223256196Y-105771466D01*
X223282370Y-105778862D01*
X223300956Y-105787306D01*
X223313698Y-105796868D01*
X223322344Y-105807617D01*
X223328640Y-105819621D01*
X223334330Y-105832950D01*
X223341163Y-105847673D01*
X223341286Y-105847913D01*
X223344603Y-105857551D01*
X223347646Y-105873688D01*
X223350426Y-105897816D01*
X223352955Y-105931422D01*
X223355244Y-105975996D01*
X223357304Y-106033028D01*
X223359149Y-106104006D01*
X223360787Y-106190420D01*
X223362233Y-106293759D01*
X223363496Y-106415513D01*
X223364589Y-106557170D01*
X223365523Y-106720221D01*
X223366310Y-106906153D01*
X223366961Y-107116457D01*
X223367487Y-107352622D01*
X223367901Y-107616137D01*
X223368214Y-107908492D01*
X223368437Y-108231175D01*
X223368582Y-108585676D01*
X223368661Y-108973484D01*
X223368684Y-109396088D01*
X223368685Y-109479109D01*
X223368725Y-109897309D01*
X223368787Y-110281008D01*
X223368824Y-110631704D01*
X223368787Y-110950899D01*
X223368632Y-111240093D01*
X223368309Y-111500786D01*
X223367771Y-111734479D01*
X223366971Y-111942671D01*
X223365862Y-112126863D01*
X223364886Y-112234552D01*
X223364398Y-112288555D01*
G37*
%TD*%
M02*
