%TF.GenerationSoftware,KiCad,Pcbnew,10.0.3*%
%TF.CreationDate,2026-05-29T12:25:11+03:00*%
%TF.ProjectId,encoder-board,656e636f-6465-4722-9d62-6f6172642e6b,rev?*%
%TF.SameCoordinates,Original*%
%TF.FileFunction,Copper,L2,Bot*%
%TF.FilePolarity,Positive*%
%FSLAX46Y46*%
G04 Gerber Fmt 4.6, Leading zero omitted, Abs format (unit mm)*
G04 Created by KiCad (PCBNEW 10.0.3) date 2026-05-29 12:25:11*
%MOMM*%
%LPD*%
G01*
G04 APERTURE LIST*
G04 Aperture macros list*
%AMRoundRect*
0 Rectangle with rounded corners*
0 $1 Rounding radius*
0 $2 $3 $4 $5 $6 $7 $8 $9 X,Y pos of 4 corners*
0 Add a 4 corners polygon primitive as box body*
4,1,4,$2,$3,$4,$5,$6,$7,$8,$9,$2,$3,0*
0 Add four circle primitives for the rounded corners*
1,1,$1+$1,$2,$3*
1,1,$1+$1,$4,$5*
1,1,$1+$1,$6,$7*
1,1,$1+$1,$8,$9*
0 Add four rect primitives between the rounded corners*
20,1,$1+$1,$2,$3,$4,$5,0*
20,1,$1+$1,$4,$5,$6,$7,0*
20,1,$1+$1,$6,$7,$8,$9,0*
20,1,$1+$1,$8,$9,$2,$3,0*%
G04 Aperture macros list end*
%TA.AperFunction,ComponentPad*%
%ADD10RoundRect,0.250000X-0.550000X-0.550000X0.550000X-0.550000X0.550000X0.550000X-0.550000X0.550000X0*%
%TD*%
%TA.AperFunction,ComponentPad*%
%ADD11C,1.600000*%
%TD*%
%TA.AperFunction,ComponentPad*%
%ADD12O,4.100000X3.000000*%
%TD*%
%TA.AperFunction,ComponentPad*%
%ADD13R,1.700000X1.700000*%
%TD*%
%TA.AperFunction,ComponentPad*%
%ADD14C,1.700000*%
%TD*%
G04 APERTURE END LIST*
D10*
%TO.P,SW1,A,A_A*%
%TO.N,ENC_A*%
X142575000Y-97500000D03*
D11*
%TO.P,SW1,B,B_B*%
%TO.N,ENC_B*%
X142575000Y-102500000D03*
%TO.P,SW1,C,C_C*%
%TO.N,GND*%
X142575000Y-100000000D03*
%TO.P,SW1,S1,S1_S1*%
%TO.N,OK_BTN*%
X157075000Y-97500000D03*
%TO.P,SW1,S2,S2_S2*%
%TO.N,GND*%
X157075000Y-102500000D03*
D12*
%TO.P,SW1,SH*%
%TO.N,N/C*%
X150075000Y-94400000D03*
X150075000Y-105600000D03*
%TD*%
D13*
%TO.P,J1,1,Pin_1_1*%
%TO.N,OK_BTN*%
X137000000Y-96190000D03*
D14*
%TO.P,J1,2,Pin_2_2*%
%TO.N,ENC_A*%
X137000000Y-98730000D03*
%TO.P,J1,3,Pin_3_3*%
%TO.N,ENC_B*%
X137000000Y-101270000D03*
%TO.P,J1,4,Pin_4_4*%
%TO.N,GND*%
X137000000Y-103810000D03*
%TD*%
%TA.AperFunction,Conductor*%
%TO.N,GND*%
G36*
X162003736Y-80500726D02*
G01*
X162293796Y-80518271D01*
X162308659Y-80520076D01*
X162590797Y-80571780D01*
X162605334Y-80575363D01*
X162879182Y-80660698D01*
X162893163Y-80666000D01*
X163154734Y-80783724D01*
X163167987Y-80790680D01*
X163413458Y-80939071D01*
X163425776Y-80947573D01*
X163651573Y-81124474D01*
X163662781Y-81134404D01*
X163865595Y-81337218D01*
X163875525Y-81348426D01*
X164052422Y-81574217D01*
X164060928Y-81586541D01*
X164209319Y-81832012D01*
X164216277Y-81845269D01*
X164333994Y-82106823D01*
X164339304Y-82120825D01*
X164424635Y-82394664D01*
X164428219Y-82409202D01*
X164479923Y-82691340D01*
X164481728Y-82706205D01*
X164499274Y-82996263D01*
X164499500Y-83003750D01*
X164499500Y-116996249D01*
X164499274Y-117003736D01*
X164481728Y-117293794D01*
X164479923Y-117308659D01*
X164428219Y-117590797D01*
X164424635Y-117605335D01*
X164339304Y-117879174D01*
X164333994Y-117893176D01*
X164216277Y-118154730D01*
X164209319Y-118167987D01*
X164060928Y-118413458D01*
X164052422Y-118425782D01*
X163875525Y-118651573D01*
X163865595Y-118662781D01*
X163662781Y-118865595D01*
X163651573Y-118875525D01*
X163425782Y-119052422D01*
X163413458Y-119060928D01*
X163167987Y-119209319D01*
X163154730Y-119216277D01*
X162893176Y-119333994D01*
X162879174Y-119339304D01*
X162605335Y-119424635D01*
X162590797Y-119428219D01*
X162308659Y-119479923D01*
X162293794Y-119481728D01*
X162003736Y-119499274D01*
X161996249Y-119499500D01*
X138003751Y-119499500D01*
X137996264Y-119499274D01*
X137706205Y-119481728D01*
X137691340Y-119479923D01*
X137409202Y-119428219D01*
X137394664Y-119424635D01*
X137120825Y-119339304D01*
X137106827Y-119333995D01*
X136954096Y-119265256D01*
X136845269Y-119216277D01*
X136832012Y-119209319D01*
X136586541Y-119060928D01*
X136574217Y-119052422D01*
X136348426Y-118875525D01*
X136337218Y-118865595D01*
X136134404Y-118662781D01*
X136124474Y-118651573D01*
X135947573Y-118425776D01*
X135939071Y-118413458D01*
X135790680Y-118167987D01*
X135783722Y-118154730D01*
X135666000Y-117893163D01*
X135660698Y-117879182D01*
X135575363Y-117605334D01*
X135571780Y-117590797D01*
X135557752Y-117514250D01*
X135520075Y-117308657D01*
X135518271Y-117293794D01*
X135507836Y-117121288D01*
X135500726Y-117003736D01*
X135500500Y-116996249D01*
X135500500Y-116878711D01*
X136149500Y-116878711D01*
X136149500Y-117121288D01*
X136181161Y-117361785D01*
X136243947Y-117596104D01*
X136247771Y-117605335D01*
X136336776Y-117820212D01*
X136458064Y-118030289D01*
X136458066Y-118030292D01*
X136458067Y-118030293D01*
X136605733Y-118222736D01*
X136605739Y-118222743D01*
X136777256Y-118394260D01*
X136777263Y-118394266D01*
X136818336Y-118425782D01*
X136969711Y-118541936D01*
X137179788Y-118663224D01*
X137403900Y-118756054D01*
X137638211Y-118818838D01*
X137818586Y-118842584D01*
X137878711Y-118850500D01*
X137878712Y-118850500D01*
X138121289Y-118850500D01*
X138169388Y-118844167D01*
X138361789Y-118818838D01*
X138596100Y-118756054D01*
X138820212Y-118663224D01*
X139030289Y-118541936D01*
X139222738Y-118394265D01*
X139394265Y-118222738D01*
X139541936Y-118030289D01*
X139663224Y-117820212D01*
X139756054Y-117596100D01*
X139818838Y-117361789D01*
X139850500Y-117121288D01*
X139850500Y-116878712D01*
X139850500Y-116878711D01*
X160149500Y-116878711D01*
X160149500Y-117121288D01*
X160181161Y-117361785D01*
X160243947Y-117596104D01*
X160247771Y-117605335D01*
X160336776Y-117820212D01*
X160458064Y-118030289D01*
X160458066Y-118030292D01*
X160458067Y-118030293D01*
X160605733Y-118222736D01*
X160605739Y-118222743D01*
X160777256Y-118394260D01*
X160777263Y-118394266D01*
X160818336Y-118425782D01*
X160969711Y-118541936D01*
X161179788Y-118663224D01*
X161403900Y-118756054D01*
X161638211Y-118818838D01*
X161818586Y-118842584D01*
X161878711Y-118850500D01*
X161878712Y-118850500D01*
X162121289Y-118850500D01*
X162169388Y-118844167D01*
X162361789Y-118818838D01*
X162596100Y-118756054D01*
X162820212Y-118663224D01*
X163030289Y-118541936D01*
X163222738Y-118394265D01*
X163394265Y-118222738D01*
X163541936Y-118030289D01*
X163663224Y-117820212D01*
X163756054Y-117596100D01*
X163818838Y-117361789D01*
X163850500Y-117121288D01*
X163850500Y-116878712D01*
X163818838Y-116638211D01*
X163756054Y-116403900D01*
X163663224Y-116179788D01*
X163541936Y-115969711D01*
X163394265Y-115777262D01*
X163394260Y-115777256D01*
X163222743Y-115605739D01*
X163222736Y-115605733D01*
X163030293Y-115458067D01*
X163030292Y-115458066D01*
X163030289Y-115458064D01*
X162820212Y-115336776D01*
X162820205Y-115336773D01*
X162596104Y-115243947D01*
X162361785Y-115181161D01*
X162121289Y-115149500D01*
X162121288Y-115149500D01*
X161878712Y-115149500D01*
X161878711Y-115149500D01*
X161638214Y-115181161D01*
X161403895Y-115243947D01*
X161179794Y-115336773D01*
X161179785Y-115336777D01*
X160969706Y-115458067D01*
X160777263Y-115605733D01*
X160777256Y-115605739D01*
X160605739Y-115777256D01*
X160605733Y-115777263D01*
X160458067Y-115969706D01*
X160336777Y-116179785D01*
X160336773Y-116179794D01*
X160243947Y-116403895D01*
X160181161Y-116638214D01*
X160149500Y-116878711D01*
X139850500Y-116878711D01*
X139818838Y-116638211D01*
X139756054Y-116403900D01*
X139663224Y-116179788D01*
X139541936Y-115969711D01*
X139394265Y-115777262D01*
X139394260Y-115777256D01*
X139222743Y-115605739D01*
X139222736Y-115605733D01*
X139030293Y-115458067D01*
X139030292Y-115458066D01*
X139030289Y-115458064D01*
X138820212Y-115336776D01*
X138820205Y-115336773D01*
X138596104Y-115243947D01*
X138361785Y-115181161D01*
X138121289Y-115149500D01*
X138121288Y-115149500D01*
X137878712Y-115149500D01*
X137878711Y-115149500D01*
X137638214Y-115181161D01*
X137403895Y-115243947D01*
X137179794Y-115336773D01*
X137179785Y-115336777D01*
X136969706Y-115458067D01*
X136777263Y-115605733D01*
X136777256Y-115605739D01*
X136605739Y-115777256D01*
X136605733Y-115777263D01*
X136458067Y-115969706D01*
X136336777Y-116179785D01*
X136336773Y-116179794D01*
X136243947Y-116403895D01*
X136181161Y-116638214D01*
X136149500Y-116878711D01*
X135500500Y-116878711D01*
X135500500Y-105468872D01*
X147524500Y-105468872D01*
X147524500Y-105731127D01*
X147551123Y-105933339D01*
X147558730Y-105991116D01*
X147626602Y-106244418D01*
X147626605Y-106244428D01*
X147726953Y-106486690D01*
X147726958Y-106486700D01*
X147858075Y-106713803D01*
X148017718Y-106921851D01*
X148017726Y-106921860D01*
X148203140Y-107107274D01*
X148203148Y-107107281D01*
X148411196Y-107266924D01*
X148638299Y-107398041D01*
X148638309Y-107398046D01*
X148880571Y-107498394D01*
X148880581Y-107498398D01*
X149133884Y-107566270D01*
X149393880Y-107600500D01*
X149393887Y-107600500D01*
X150756113Y-107600500D01*
X150756120Y-107600500D01*
X151016116Y-107566270D01*
X151269419Y-107498398D01*
X151511697Y-107398043D01*
X151738803Y-107266924D01*
X151946851Y-107107282D01*
X151946855Y-107107277D01*
X151946860Y-107107274D01*
X152132274Y-106921860D01*
X152132277Y-106921855D01*
X152132282Y-106921851D01*
X152291924Y-106713803D01*
X152423043Y-106486697D01*
X152523398Y-106244419D01*
X152591270Y-105991116D01*
X152625500Y-105731120D01*
X152625500Y-105468880D01*
X152591270Y-105208884D01*
X152523398Y-104955581D01*
X152510843Y-104925270D01*
X152423046Y-104713309D01*
X152423041Y-104713299D01*
X152291924Y-104486196D01*
X152132281Y-104278148D01*
X152132274Y-104278140D01*
X151946860Y-104092726D01*
X151946851Y-104092718D01*
X151738803Y-103933075D01*
X151511700Y-103801958D01*
X151511690Y-103801953D01*
X151269428Y-103701605D01*
X151269421Y-103701603D01*
X151269419Y-103701602D01*
X151016116Y-103633730D01*
X151016115Y-103633729D01*
X151016112Y-103633729D01*
X150756127Y-103599500D01*
X150756120Y-103599500D01*
X149393880Y-103599500D01*
X149393872Y-103599500D01*
X149162772Y-103629926D01*
X149133884Y-103633730D01*
X148880581Y-103701602D01*
X148880571Y-103701605D01*
X148638309Y-103801953D01*
X148638299Y-103801958D01*
X148411196Y-103933075D01*
X148203148Y-104092718D01*
X148017718Y-104278148D01*
X147858075Y-104486196D01*
X147726958Y-104713299D01*
X147726953Y-104713309D01*
X147626605Y-104955571D01*
X147626602Y-104955581D01*
X147571829Y-105160000D01*
X147558730Y-105208885D01*
X147524500Y-105468872D01*
X135500500Y-105468872D01*
X135500500Y-104346611D01*
X135520185Y-104279572D01*
X135572989Y-104233817D01*
X135642147Y-104223873D01*
X135705703Y-104252898D01*
X135742432Y-104308294D01*
X135748906Y-104328221D01*
X135845375Y-104517550D01*
X135884728Y-104571716D01*
X136517037Y-103939408D01*
X136534075Y-104002993D01*
X136599901Y-104117007D01*
X136692993Y-104210099D01*
X136807007Y-104275925D01*
X136870590Y-104292962D01*
X136238282Y-104925269D01*
X136238282Y-104925270D01*
X136292449Y-104964624D01*
X136481782Y-105061095D01*
X136683870Y-105126757D01*
X136893754Y-105160000D01*
X137106246Y-105160000D01*
X137316127Y-105126757D01*
X137316130Y-105126757D01*
X137518217Y-105061095D01*
X137707554Y-104964622D01*
X137761716Y-104925270D01*
X137761717Y-104925270D01*
X137129408Y-104292962D01*
X137192993Y-104275925D01*
X137307007Y-104210099D01*
X137400099Y-104117007D01*
X137465925Y-104002993D01*
X137482962Y-103939408D01*
X138115270Y-104571717D01*
X138115270Y-104571716D01*
X138154622Y-104517554D01*
X138251095Y-104328217D01*
X138316757Y-104126130D01*
X138316757Y-104126127D01*
X138350000Y-103916246D01*
X138350000Y-103703753D01*
X138316757Y-103493872D01*
X138316757Y-103493869D01*
X138251095Y-103291782D01*
X138154624Y-103102449D01*
X138115270Y-103048282D01*
X138115269Y-103048282D01*
X137482962Y-103680590D01*
X137465925Y-103617007D01*
X137400099Y-103502993D01*
X137307007Y-103409901D01*
X137192993Y-103344075D01*
X137129409Y-103327037D01*
X137761716Y-102694728D01*
X137707547Y-102655373D01*
X137707547Y-102655372D01*
X137698500Y-102650763D01*
X137647706Y-102602788D01*
X137630912Y-102534966D01*
X137653451Y-102468832D01*
X137698508Y-102429793D01*
X137707816Y-102425051D01*
X137787007Y-102367515D01*
X137879786Y-102300109D01*
X137879788Y-102300106D01*
X137879792Y-102300104D01*
X138030104Y-102149792D01*
X138030106Y-102149788D01*
X138030109Y-102149786D01*
X138155048Y-101977820D01*
X138155047Y-101977820D01*
X138155051Y-101977816D01*
X138251557Y-101788412D01*
X138317246Y-101586243D01*
X138350500Y-101376287D01*
X138350500Y-101163713D01*
X138317246Y-100953757D01*
X138251557Y-100751588D01*
X138155051Y-100562184D01*
X138155049Y-100562181D01*
X138155048Y-100562179D01*
X138030109Y-100390213D01*
X137879786Y-100239890D01*
X137707820Y-100114951D01*
X137707115Y-100114591D01*
X137699054Y-100110485D01*
X137696293Y-100107877D01*
X137692608Y-100106956D01*
X137671091Y-100084075D01*
X137648259Y-100062512D01*
X137647345Y-100058824D01*
X137644743Y-100056057D01*
X137639012Y-100025174D01*
X137631463Y-99994692D01*
X137632688Y-99991096D01*
X137631995Y-99987360D01*
X137643869Y-99958281D01*
X137653999Y-99928556D01*
X137657391Y-99925170D01*
X137658410Y-99922677D01*
X137666530Y-99916051D01*
X137684122Y-99898498D01*
X137691271Y-99893480D01*
X137707816Y-99885051D01*
X137879792Y-99760104D01*
X138030104Y-99609792D01*
X138030106Y-99609788D01*
X138030109Y-99609786D01*
X138155048Y-99437820D01*
X138155047Y-99437820D01*
X138155051Y-99437816D01*
X138251557Y-99248412D01*
X138317246Y-99046243D01*
X138350500Y-98836287D01*
X138350500Y-98623713D01*
X138317246Y-98413757D01*
X138251557Y-98211588D01*
X138155051Y-98022184D01*
X138155049Y-98022181D01*
X138155048Y-98022179D01*
X138030109Y-97850213D01*
X137916569Y-97736673D01*
X137883084Y-97675350D01*
X137888068Y-97605658D01*
X137929940Y-97549725D01*
X137960915Y-97532810D01*
X138092331Y-97483796D01*
X138207546Y-97397546D01*
X138293796Y-97282331D01*
X138344091Y-97147483D01*
X138350500Y-97087873D01*
X138350500Y-96899983D01*
X141274500Y-96899983D01*
X141274500Y-98100001D01*
X141274501Y-98100018D01*
X141285000Y-98202796D01*
X141285001Y-98202799D01*
X141322170Y-98314965D01*
X141340186Y-98369334D01*
X141432288Y-98518656D01*
X141556344Y-98642712D01*
X141705666Y-98734814D01*
X141767440Y-98755284D01*
X141824884Y-98795055D01*
X141851707Y-98859571D01*
X141852053Y-98882719D01*
X141849077Y-98920524D01*
X142445591Y-99517037D01*
X142382007Y-99534075D01*
X142267993Y-99599901D01*
X142174901Y-99692993D01*
X142109075Y-99807007D01*
X142092037Y-99870590D01*
X141495524Y-99274077D01*
X141495523Y-99274077D01*
X141463143Y-99318644D01*
X141370244Y-99500968D01*
X141307009Y-99695582D01*
X141275000Y-99897682D01*
X141275000Y-100102317D01*
X141307009Y-100304417D01*
X141370244Y-100499031D01*
X141463141Y-100681350D01*
X141463147Y-100681359D01*
X141495523Y-100725921D01*
X141495524Y-100725922D01*
X142092037Y-100129409D01*
X142109075Y-100192993D01*
X142174901Y-100307007D01*
X142267993Y-100400099D01*
X142382007Y-100465925D01*
X142445590Y-100482962D01*
X141849076Y-101079474D01*
X141893652Y-101111861D01*
X141947376Y-101139234D01*
X141998172Y-101187208D01*
X142014968Y-101255028D01*
X141992431Y-101321164D01*
X141947379Y-101360203D01*
X141893386Y-101387714D01*
X141727786Y-101508028D01*
X141583028Y-101652786D01*
X141462715Y-101818386D01*
X141369781Y-102000776D01*
X141306522Y-102195465D01*
X141274500Y-102397648D01*
X141274500Y-102602351D01*
X141306522Y-102804534D01*
X141369781Y-102999223D01*
X141422373Y-103102439D01*
X141462585Y-103181359D01*
X141462715Y-103181613D01*
X141583028Y-103347213D01*
X141727786Y-103491971D01*
X141848226Y-103579474D01*
X141893390Y-103612287D01*
X142009607Y-103671503D01*
X142075776Y-103705218D01*
X142075778Y-103705218D01*
X142075781Y-103705220D01*
X142180137Y-103739127D01*
X142270465Y-103768477D01*
X142371557Y-103784488D01*
X142472648Y-103800500D01*
X142472649Y-103800500D01*
X142677351Y-103800500D01*
X142677352Y-103800500D01*
X142879534Y-103768477D01*
X143074219Y-103705220D01*
X143256610Y-103612287D01*
X143419596Y-103493872D01*
X143422213Y-103491971D01*
X143422215Y-103491968D01*
X143422219Y-103491966D01*
X143566966Y-103347219D01*
X143566968Y-103347215D01*
X143566971Y-103347213D01*
X143620607Y-103273388D01*
X143687287Y-103181610D01*
X143780220Y-102999219D01*
X143843477Y-102804534D01*
X143875500Y-102602352D01*
X143875500Y-102397682D01*
X155775000Y-102397682D01*
X155775000Y-102602317D01*
X155807009Y-102804417D01*
X155870244Y-102999031D01*
X155963141Y-103181350D01*
X155963147Y-103181359D01*
X155995523Y-103225921D01*
X155995524Y-103225922D01*
X156592037Y-102629409D01*
X156609075Y-102692993D01*
X156674901Y-102807007D01*
X156767993Y-102900099D01*
X156882007Y-102965925D01*
X156945590Y-102982962D01*
X156349076Y-103579474D01*
X156393650Y-103611859D01*
X156575968Y-103704755D01*
X156770582Y-103767990D01*
X156972683Y-103800000D01*
X157177317Y-103800000D01*
X157379417Y-103767990D01*
X157574031Y-103704755D01*
X157756349Y-103611859D01*
X157800921Y-103579474D01*
X157204409Y-102982962D01*
X157267993Y-102965925D01*
X157382007Y-102900099D01*
X157475099Y-102807007D01*
X157540925Y-102692993D01*
X157557962Y-102629410D01*
X158154474Y-103225922D01*
X158154474Y-103225921D01*
X158186859Y-103181349D01*
X158279755Y-102999031D01*
X158342990Y-102804417D01*
X158375000Y-102602317D01*
X158375000Y-102397682D01*
X158342990Y-102195582D01*
X158279755Y-102000968D01*
X158186859Y-101818650D01*
X158154474Y-101774077D01*
X158154474Y-101774076D01*
X157557962Y-102370589D01*
X157540925Y-102307007D01*
X157475099Y-102192993D01*
X157382007Y-102099901D01*
X157267993Y-102034075D01*
X157204408Y-102017037D01*
X157800922Y-101420524D01*
X157800921Y-101420523D01*
X157756359Y-101388147D01*
X157756350Y-101388141D01*
X157574031Y-101295244D01*
X157379417Y-101232009D01*
X157177317Y-101200000D01*
X156972683Y-101200000D01*
X156770582Y-101232009D01*
X156575968Y-101295244D01*
X156393644Y-101388143D01*
X156349077Y-101420523D01*
X156349077Y-101420524D01*
X156945591Y-102017037D01*
X156882007Y-102034075D01*
X156767993Y-102099901D01*
X156674901Y-102192993D01*
X156609075Y-102307007D01*
X156592037Y-102370590D01*
X155995524Y-101774077D01*
X155995523Y-101774077D01*
X155963143Y-101818644D01*
X155870244Y-102000968D01*
X155807009Y-102195582D01*
X155775000Y-102397682D01*
X143875500Y-102397682D01*
X143875500Y-102397648D01*
X143860050Y-102300104D01*
X143843477Y-102195465D01*
X143791038Y-102034075D01*
X143780220Y-102000781D01*
X143780218Y-102000778D01*
X143780218Y-102000776D01*
X143687419Y-101818650D01*
X143687287Y-101818390D01*
X143679556Y-101807749D01*
X143566971Y-101652786D01*
X143422213Y-101508028D01*
X143256611Y-101387713D01*
X143202621Y-101360203D01*
X143151825Y-101312228D01*
X143135031Y-101244407D01*
X143157569Y-101178272D01*
X143202624Y-101139233D01*
X143256349Y-101111859D01*
X143300921Y-101079474D01*
X142704409Y-100482962D01*
X142767993Y-100465925D01*
X142882007Y-100400099D01*
X142975099Y-100307007D01*
X143040925Y-100192993D01*
X143057962Y-100129409D01*
X143654474Y-100725921D01*
X143686859Y-100681349D01*
X143779755Y-100499031D01*
X143842990Y-100304417D01*
X143875000Y-100102317D01*
X143875000Y-99897682D01*
X143842990Y-99695582D01*
X143779755Y-99500968D01*
X143686859Y-99318650D01*
X143654474Y-99274077D01*
X143654474Y-99274076D01*
X143057962Y-99870589D01*
X143040925Y-99807007D01*
X142975099Y-99692993D01*
X142882007Y-99599901D01*
X142767993Y-99534075D01*
X142704408Y-99517037D01*
X143300921Y-98920525D01*
X143297946Y-98882719D01*
X143312310Y-98814341D01*
X143361361Y-98764584D01*
X143382555Y-98755285D01*
X143444334Y-98734814D01*
X143593656Y-98642712D01*
X143717712Y-98518656D01*
X143809814Y-98369334D01*
X143864999Y-98202797D01*
X143875500Y-98100009D01*
X143875499Y-97397648D01*
X155774500Y-97397648D01*
X155774500Y-97602351D01*
X155806522Y-97804534D01*
X155869781Y-97999223D01*
X155962715Y-98181613D01*
X156083028Y-98347213D01*
X156227786Y-98491971D01*
X156382749Y-98604556D01*
X156393390Y-98612287D01*
X156509607Y-98671503D01*
X156575776Y-98705218D01*
X156575778Y-98705218D01*
X156575781Y-98705220D01*
X156666856Y-98734812D01*
X156770465Y-98768477D01*
X156871557Y-98784488D01*
X156972648Y-98800500D01*
X156972649Y-98800500D01*
X157177351Y-98800500D01*
X157177352Y-98800500D01*
X157379534Y-98768477D01*
X157574219Y-98705220D01*
X157756610Y-98612287D01*
X157885482Y-98518657D01*
X157922213Y-98491971D01*
X157922215Y-98491968D01*
X157922219Y-98491966D01*
X158066966Y-98347219D01*
X158066968Y-98347215D01*
X158066971Y-98347213D01*
X158119732Y-98274590D01*
X158187287Y-98181610D01*
X158280220Y-97999219D01*
X158343477Y-97804534D01*
X158375500Y-97602352D01*
X158375500Y-97397648D01*
X158355483Y-97271270D01*
X158343477Y-97195465D01*
X158280218Y-97000776D01*
X158228865Y-96899991D01*
X158187287Y-96818390D01*
X158171892Y-96797200D01*
X158066971Y-96652786D01*
X157922213Y-96508028D01*
X157756613Y-96387715D01*
X157756612Y-96387714D01*
X157756610Y-96387713D01*
X157696898Y-96357288D01*
X157574223Y-96294781D01*
X157379534Y-96231522D01*
X157204995Y-96203878D01*
X157177352Y-96199500D01*
X156972648Y-96199500D01*
X156948329Y-96203351D01*
X156770465Y-96231522D01*
X156575776Y-96294781D01*
X156393386Y-96387715D01*
X156227786Y-96508028D01*
X156083028Y-96652786D01*
X155962715Y-96818386D01*
X155869781Y-97000776D01*
X155806522Y-97195465D01*
X155774500Y-97397648D01*
X143875499Y-97397648D01*
X143875499Y-96899992D01*
X143875176Y-96896834D01*
X143864999Y-96797203D01*
X143864998Y-96797200D01*
X143809814Y-96630666D01*
X143717712Y-96481344D01*
X143593656Y-96357288D01*
X143444334Y-96265186D01*
X143277797Y-96210001D01*
X143277795Y-96210000D01*
X143175010Y-96199500D01*
X141974998Y-96199500D01*
X141974981Y-96199501D01*
X141872203Y-96210000D01*
X141872200Y-96210001D01*
X141705668Y-96265185D01*
X141705663Y-96265187D01*
X141556342Y-96357289D01*
X141432289Y-96481342D01*
X141340187Y-96630663D01*
X141340186Y-96630666D01*
X141285001Y-96797203D01*
X141285001Y-96797204D01*
X141285000Y-96797204D01*
X141274500Y-96899983D01*
X138350500Y-96899983D01*
X138350499Y-95292128D01*
X138344091Y-95232517D01*
X138302521Y-95121063D01*
X138293797Y-95097671D01*
X138293793Y-95097664D01*
X138207547Y-94982455D01*
X138207544Y-94982452D01*
X138092335Y-94896206D01*
X138092328Y-94896202D01*
X137957482Y-94845908D01*
X137957483Y-94845908D01*
X137897883Y-94839501D01*
X137897881Y-94839500D01*
X137897873Y-94839500D01*
X137897864Y-94839500D01*
X136102129Y-94839500D01*
X136102123Y-94839501D01*
X136042516Y-94845908D01*
X135907671Y-94896202D01*
X135907664Y-94896206D01*
X135792455Y-94982452D01*
X135792452Y-94982455D01*
X135723766Y-95074208D01*
X135667832Y-95116079D01*
X135598141Y-95121063D01*
X135536818Y-95087577D01*
X135503334Y-95026254D01*
X135500500Y-94999897D01*
X135500500Y-94268872D01*
X147524500Y-94268872D01*
X147524500Y-94531127D01*
X147551123Y-94733339D01*
X147558730Y-94791116D01*
X147621735Y-95026254D01*
X147626602Y-95044418D01*
X147626605Y-95044428D01*
X147726953Y-95286690D01*
X147726958Y-95286700D01*
X147858075Y-95513803D01*
X148017718Y-95721851D01*
X148017726Y-95721860D01*
X148203140Y-95907274D01*
X148203148Y-95907281D01*
X148411196Y-96066924D01*
X148638299Y-96198041D01*
X148638309Y-96198046D01*
X148880571Y-96298394D01*
X148880581Y-96298398D01*
X149133884Y-96366270D01*
X149393880Y-96400500D01*
X149393887Y-96400500D01*
X150756113Y-96400500D01*
X150756120Y-96400500D01*
X151016116Y-96366270D01*
X151269419Y-96298398D01*
X151508177Y-96199501D01*
X151511690Y-96198046D01*
X151511691Y-96198045D01*
X151511697Y-96198043D01*
X151738803Y-96066924D01*
X151946851Y-95907282D01*
X151946855Y-95907277D01*
X151946860Y-95907274D01*
X152132274Y-95721860D01*
X152132277Y-95721855D01*
X152132282Y-95721851D01*
X152291924Y-95513803D01*
X152423043Y-95286697D01*
X152523398Y-95044419D01*
X152591270Y-94791116D01*
X152625500Y-94531120D01*
X152625500Y-94268880D01*
X152591270Y-94008884D01*
X152523398Y-93755581D01*
X152523394Y-93755571D01*
X152423046Y-93513309D01*
X152423041Y-93513299D01*
X152291924Y-93286196D01*
X152132281Y-93078148D01*
X152132274Y-93078140D01*
X151946860Y-92892726D01*
X151946851Y-92892718D01*
X151738803Y-92733075D01*
X151511700Y-92601958D01*
X151511690Y-92601953D01*
X151269428Y-92501605D01*
X151269421Y-92501603D01*
X151269419Y-92501602D01*
X151016116Y-92433730D01*
X150958339Y-92426123D01*
X150756127Y-92399500D01*
X150756120Y-92399500D01*
X149393880Y-92399500D01*
X149393872Y-92399500D01*
X149162772Y-92429926D01*
X149133884Y-92433730D01*
X148880581Y-92501602D01*
X148880571Y-92501605D01*
X148638309Y-92601953D01*
X148638299Y-92601958D01*
X148411196Y-92733075D01*
X148203148Y-92892718D01*
X148017718Y-93078148D01*
X147858075Y-93286196D01*
X147726958Y-93513299D01*
X147726953Y-93513309D01*
X147626605Y-93755571D01*
X147626602Y-93755581D01*
X147558730Y-94008885D01*
X147524500Y-94268872D01*
X135500500Y-94268872D01*
X135500500Y-83003750D01*
X135500726Y-82996263D01*
X135507837Y-82878711D01*
X136149500Y-82878711D01*
X136149500Y-83121288D01*
X136181161Y-83361785D01*
X136243947Y-83596104D01*
X136336773Y-83820205D01*
X136336776Y-83820212D01*
X136458064Y-84030289D01*
X136458066Y-84030292D01*
X136458067Y-84030293D01*
X136605733Y-84222736D01*
X136605739Y-84222743D01*
X136777256Y-84394260D01*
X136777262Y-84394265D01*
X136969711Y-84541936D01*
X137179788Y-84663224D01*
X137403900Y-84756054D01*
X137638211Y-84818838D01*
X137818586Y-84842584D01*
X137878711Y-84850500D01*
X137878712Y-84850500D01*
X138121289Y-84850500D01*
X138169388Y-84844167D01*
X138361789Y-84818838D01*
X138596100Y-84756054D01*
X138820212Y-84663224D01*
X139030289Y-84541936D01*
X139222738Y-84394265D01*
X139394265Y-84222738D01*
X139541936Y-84030289D01*
X139663224Y-83820212D01*
X139756054Y-83596100D01*
X139818838Y-83361789D01*
X139850500Y-83121288D01*
X139850500Y-82878712D01*
X139850500Y-82878711D01*
X160149500Y-82878711D01*
X160149500Y-83121288D01*
X160181161Y-83361785D01*
X160243947Y-83596104D01*
X160336773Y-83820205D01*
X160336776Y-83820212D01*
X160458064Y-84030289D01*
X160458066Y-84030292D01*
X160458067Y-84030293D01*
X160605733Y-84222736D01*
X160605739Y-84222743D01*
X160777256Y-84394260D01*
X160777262Y-84394265D01*
X160969711Y-84541936D01*
X161179788Y-84663224D01*
X161403900Y-84756054D01*
X161638211Y-84818838D01*
X161818586Y-84842584D01*
X161878711Y-84850500D01*
X161878712Y-84850500D01*
X162121289Y-84850500D01*
X162169388Y-84844167D01*
X162361789Y-84818838D01*
X162596100Y-84756054D01*
X162820212Y-84663224D01*
X163030289Y-84541936D01*
X163222738Y-84394265D01*
X163394265Y-84222738D01*
X163541936Y-84030289D01*
X163663224Y-83820212D01*
X163756054Y-83596100D01*
X163818838Y-83361789D01*
X163850500Y-83121288D01*
X163850500Y-82878712D01*
X163818838Y-82638211D01*
X163756054Y-82403900D01*
X163663224Y-82179788D01*
X163541936Y-81969711D01*
X163481018Y-81890321D01*
X163394266Y-81777263D01*
X163394260Y-81777256D01*
X163222743Y-81605739D01*
X163222736Y-81605733D01*
X163030293Y-81458067D01*
X163030292Y-81458066D01*
X163030289Y-81458064D01*
X162858661Y-81358974D01*
X162820214Y-81336777D01*
X162820205Y-81336773D01*
X162596104Y-81243947D01*
X162361785Y-81181161D01*
X162121289Y-81149500D01*
X162121288Y-81149500D01*
X161878712Y-81149500D01*
X161878711Y-81149500D01*
X161638214Y-81181161D01*
X161403895Y-81243947D01*
X161179794Y-81336773D01*
X161179785Y-81336777D01*
X160969706Y-81458067D01*
X160777263Y-81605733D01*
X160777256Y-81605739D01*
X160605739Y-81777256D01*
X160605733Y-81777263D01*
X160458067Y-81969706D01*
X160336777Y-82179785D01*
X160336773Y-82179794D01*
X160243947Y-82403895D01*
X160181161Y-82638214D01*
X160149500Y-82878711D01*
X139850500Y-82878711D01*
X139818838Y-82638211D01*
X139756054Y-82403900D01*
X139663224Y-82179788D01*
X139541936Y-81969711D01*
X139481018Y-81890321D01*
X139394266Y-81777263D01*
X139394260Y-81777256D01*
X139222743Y-81605739D01*
X139222736Y-81605733D01*
X139030293Y-81458067D01*
X139030292Y-81458066D01*
X139030289Y-81458064D01*
X138858661Y-81358974D01*
X138820214Y-81336777D01*
X138820205Y-81336773D01*
X138596104Y-81243947D01*
X138361785Y-81181161D01*
X138121289Y-81149500D01*
X138121288Y-81149500D01*
X137878712Y-81149500D01*
X137878711Y-81149500D01*
X137638214Y-81181161D01*
X137403895Y-81243947D01*
X137179794Y-81336773D01*
X137179785Y-81336777D01*
X136969706Y-81458067D01*
X136777263Y-81605733D01*
X136777256Y-81605739D01*
X136605739Y-81777256D01*
X136605733Y-81777263D01*
X136458067Y-81969706D01*
X136336777Y-82179785D01*
X136336773Y-82179794D01*
X136243947Y-82403895D01*
X136181161Y-82638214D01*
X136149500Y-82878711D01*
X135507837Y-82878711D01*
X135508535Y-82867166D01*
X135518271Y-82706205D01*
X135520076Y-82691340D01*
X135529813Y-82638211D01*
X135571780Y-82409198D01*
X135575364Y-82394664D01*
X135642322Y-82179788D01*
X135660699Y-82120812D01*
X135665997Y-82106842D01*
X135783727Y-81845258D01*
X135790680Y-81832012D01*
X135927468Y-81605735D01*
X135939075Y-81586534D01*
X135947567Y-81574230D01*
X136124481Y-81348417D01*
X136134396Y-81337226D01*
X136337226Y-81134396D01*
X136348417Y-81124481D01*
X136574230Y-80947567D01*
X136586534Y-80939075D01*
X136832012Y-80790680D01*
X136845258Y-80783727D01*
X137106842Y-80665997D01*
X137120812Y-80660699D01*
X137394668Y-80575362D01*
X137409198Y-80571780D01*
X137691344Y-80520075D01*
X137706201Y-80518271D01*
X137996264Y-80500726D01*
X138003751Y-80500500D01*
X138065892Y-80500500D01*
X161934108Y-80500500D01*
X161996249Y-80500500D01*
X162003736Y-80500726D01*
G37*
%TD.AperFunction*%
%TA.AperFunction,Conductor*%
G36*
X135705703Y-101714513D02*
G01*
X135742430Y-101769906D01*
X135743785Y-101774077D01*
X135748444Y-101788414D01*
X135844951Y-101977820D01*
X135969890Y-102149786D01*
X136120213Y-102300109D01*
X136292179Y-102425048D01*
X136292181Y-102425049D01*
X136292184Y-102425051D01*
X136301493Y-102429794D01*
X136352290Y-102477766D01*
X136369087Y-102545587D01*
X136346552Y-102611722D01*
X136301505Y-102650760D01*
X136292446Y-102655376D01*
X136292440Y-102655380D01*
X136238282Y-102694727D01*
X136238282Y-102694728D01*
X136870591Y-103327037D01*
X136807007Y-103344075D01*
X136692993Y-103409901D01*
X136599901Y-103502993D01*
X136534075Y-103617007D01*
X136517037Y-103680590D01*
X135884728Y-103048282D01*
X135884727Y-103048282D01*
X135845380Y-103102439D01*
X135748904Y-103291782D01*
X135742431Y-103311706D01*
X135702994Y-103369381D01*
X135638635Y-103396580D01*
X135569789Y-103384665D01*
X135518313Y-103337421D01*
X135500500Y-103273388D01*
X135500500Y-101808226D01*
X135520185Y-101741187D01*
X135572989Y-101695432D01*
X135642147Y-101685488D01*
X135705703Y-101714513D01*
G37*
%TD.AperFunction*%
%TD*%
M02*
