%TF.GenerationSoftware,KiCad,Pcbnew,10.0.3*%
%TF.CreationDate,2026-05-29T12:25:11+03:00*%
%TF.ProjectId,encoder-board,656e636f-6465-4722-9d62-6f6172642e6b,rev?*%
%TF.SameCoordinates,Original*%
%TF.FileFunction,Legend,Bot*%
%TF.FilePolarity,Positive*%
%FSLAX46Y46*%
G04 Gerber Fmt 4.6, Leading zero omitted, Abs format (unit mm)*
G04 Created by KiCad (PCBNEW 10.0.3) date 2026-05-29 12:25:11*
%MOMM*%
%LPD*%
G01*
G04 APERTURE LIST*
%ADD10C,0.100000*%
%ADD11C,0.200000*%
%ADD12C,0.150000*%
%ADD13C,0.120000*%
G04 APERTURE END LIST*
D10*
X156370877Y-113543561D02*
X156370877Y-114191180D01*
X156370877Y-114191180D02*
X156408972Y-114267371D01*
X156408972Y-114267371D02*
X156447068Y-114305466D01*
X156447068Y-114305466D02*
X156523258Y-114343561D01*
X156523258Y-114343561D02*
X156637544Y-114343561D01*
X156637544Y-114343561D02*
X156713734Y-114305466D01*
X156370877Y-114038800D02*
X156447068Y-114076895D01*
X156447068Y-114076895D02*
X156599449Y-114076895D01*
X156599449Y-114076895D02*
X156675639Y-114038800D01*
X156675639Y-114038800D02*
X156713734Y-114000704D01*
X156713734Y-114000704D02*
X156751830Y-113924514D01*
X156751830Y-113924514D02*
X156751830Y-113695942D01*
X156751830Y-113695942D02*
X156713734Y-113619752D01*
X156713734Y-113619752D02*
X156675639Y-113581657D01*
X156675639Y-113581657D02*
X156599449Y-113543561D01*
X156599449Y-113543561D02*
X156447068Y-113543561D01*
X156447068Y-113543561D02*
X156370877Y-113581657D01*
X155989924Y-114076895D02*
X155989924Y-113543561D01*
X155989924Y-113276895D02*
X156028020Y-113314990D01*
X156028020Y-113314990D02*
X155989924Y-113353085D01*
X155989924Y-113353085D02*
X155951829Y-113314990D01*
X155951829Y-113314990D02*
X155989924Y-113276895D01*
X155989924Y-113276895D02*
X155989924Y-113353085D01*
X155723258Y-113543561D02*
X155418496Y-113543561D01*
X155608972Y-113276895D02*
X155608972Y-113962609D01*
X155608972Y-113962609D02*
X155570877Y-114038800D01*
X155570877Y-114038800D02*
X155494687Y-114076895D01*
X155494687Y-114076895D02*
X155418496Y-114076895D01*
X155151829Y-114076895D02*
X155151829Y-113276895D01*
X154808972Y-114076895D02*
X154808972Y-113657847D01*
X154808972Y-113657847D02*
X154847067Y-113581657D01*
X154847067Y-113581657D02*
X154923258Y-113543561D01*
X154923258Y-113543561D02*
X155037544Y-113543561D01*
X155037544Y-113543561D02*
X155113734Y-113581657D01*
X155113734Y-113581657D02*
X155151829Y-113619752D01*
X154085162Y-113543561D02*
X154085162Y-114076895D01*
X154428019Y-113543561D02*
X154428019Y-113962609D01*
X154428019Y-113962609D02*
X154389924Y-114038800D01*
X154389924Y-114038800D02*
X154313734Y-114076895D01*
X154313734Y-114076895D02*
X154199448Y-114076895D01*
X154199448Y-114076895D02*
X154123257Y-114038800D01*
X154123257Y-114038800D02*
X154085162Y-114000704D01*
X153704209Y-114076895D02*
X153704209Y-113276895D01*
X153704209Y-113581657D02*
X153628019Y-113543561D01*
X153628019Y-113543561D02*
X153475638Y-113543561D01*
X153475638Y-113543561D02*
X153399447Y-113581657D01*
X153399447Y-113581657D02*
X153361352Y-113619752D01*
X153361352Y-113619752D02*
X153323257Y-113695942D01*
X153323257Y-113695942D02*
X153323257Y-113924514D01*
X153323257Y-113924514D02*
X153361352Y-114000704D01*
X153361352Y-114000704D02*
X153399447Y-114038800D01*
X153399447Y-114038800D02*
X153475638Y-114076895D01*
X153475638Y-114076895D02*
X153628019Y-114076895D01*
X153628019Y-114076895D02*
X153704209Y-114038800D01*
X152980399Y-114000704D02*
X152942304Y-114038800D01*
X152942304Y-114038800D02*
X152980399Y-114076895D01*
X152980399Y-114076895D02*
X153018495Y-114038800D01*
X153018495Y-114038800D02*
X152980399Y-114000704D01*
X152980399Y-114000704D02*
X152980399Y-114076895D01*
X152256590Y-114038800D02*
X152332781Y-114076895D01*
X152332781Y-114076895D02*
X152485162Y-114076895D01*
X152485162Y-114076895D02*
X152561352Y-114038800D01*
X152561352Y-114038800D02*
X152599447Y-114000704D01*
X152599447Y-114000704D02*
X152637543Y-113924514D01*
X152637543Y-113924514D02*
X152637543Y-113695942D01*
X152637543Y-113695942D02*
X152599447Y-113619752D01*
X152599447Y-113619752D02*
X152561352Y-113581657D01*
X152561352Y-113581657D02*
X152485162Y-113543561D01*
X152485162Y-113543561D02*
X152332781Y-113543561D01*
X152332781Y-113543561D02*
X152256590Y-113581657D01*
X151799448Y-114076895D02*
X151875638Y-114038800D01*
X151875638Y-114038800D02*
X151913733Y-114000704D01*
X151913733Y-114000704D02*
X151951829Y-113924514D01*
X151951829Y-113924514D02*
X151951829Y-113695942D01*
X151951829Y-113695942D02*
X151913733Y-113619752D01*
X151913733Y-113619752D02*
X151875638Y-113581657D01*
X151875638Y-113581657D02*
X151799448Y-113543561D01*
X151799448Y-113543561D02*
X151685162Y-113543561D01*
X151685162Y-113543561D02*
X151608971Y-113581657D01*
X151608971Y-113581657D02*
X151570876Y-113619752D01*
X151570876Y-113619752D02*
X151532781Y-113695942D01*
X151532781Y-113695942D02*
X151532781Y-113924514D01*
X151532781Y-113924514D02*
X151570876Y-114000704D01*
X151570876Y-114000704D02*
X151608971Y-114038800D01*
X151608971Y-114038800D02*
X151685162Y-114076895D01*
X151685162Y-114076895D02*
X151799448Y-114076895D01*
X151189923Y-114076895D02*
X151189923Y-113543561D01*
X151189923Y-113619752D02*
X151151828Y-113581657D01*
X151151828Y-113581657D02*
X151075638Y-113543561D01*
X151075638Y-113543561D02*
X150961352Y-113543561D01*
X150961352Y-113543561D02*
X150885161Y-113581657D01*
X150885161Y-113581657D02*
X150847066Y-113657847D01*
X150847066Y-113657847D02*
X150847066Y-114076895D01*
X150847066Y-113657847D02*
X150808971Y-113581657D01*
X150808971Y-113581657D02*
X150732780Y-113543561D01*
X150732780Y-113543561D02*
X150618495Y-113543561D01*
X150618495Y-113543561D02*
X150542304Y-113581657D01*
X150542304Y-113581657D02*
X150504209Y-113657847D01*
X150504209Y-113657847D02*
X150504209Y-114076895D01*
X149551828Y-113238800D02*
X150237542Y-114267371D01*
X149285161Y-114076895D02*
X149285161Y-113543561D01*
X149285161Y-113619752D02*
X149247066Y-113581657D01*
X149247066Y-113581657D02*
X149170876Y-113543561D01*
X149170876Y-113543561D02*
X149056590Y-113543561D01*
X149056590Y-113543561D02*
X148980399Y-113581657D01*
X148980399Y-113581657D02*
X148942304Y-113657847D01*
X148942304Y-113657847D02*
X148942304Y-114076895D01*
X148942304Y-113657847D02*
X148904209Y-113581657D01*
X148904209Y-113581657D02*
X148828018Y-113543561D01*
X148828018Y-113543561D02*
X148713733Y-113543561D01*
X148713733Y-113543561D02*
X148637542Y-113581657D01*
X148637542Y-113581657D02*
X148599447Y-113657847D01*
X148599447Y-113657847D02*
X148599447Y-114076895D01*
X147875637Y-114076895D02*
X147875637Y-113657847D01*
X147875637Y-113657847D02*
X147913732Y-113581657D01*
X147913732Y-113581657D02*
X147989923Y-113543561D01*
X147989923Y-113543561D02*
X148142304Y-113543561D01*
X148142304Y-113543561D02*
X148218494Y-113581657D01*
X147875637Y-114038800D02*
X147951828Y-114076895D01*
X147951828Y-114076895D02*
X148142304Y-114076895D01*
X148142304Y-114076895D02*
X148218494Y-114038800D01*
X148218494Y-114038800D02*
X148256590Y-113962609D01*
X148256590Y-113962609D02*
X148256590Y-113886419D01*
X148256590Y-113886419D02*
X148218494Y-113810228D01*
X148218494Y-113810228D02*
X148142304Y-113772133D01*
X148142304Y-113772133D02*
X147951828Y-113772133D01*
X147951828Y-113772133D02*
X147875637Y-113734038D01*
X147494684Y-114076895D02*
X147494684Y-113543561D01*
X147494684Y-113695942D02*
X147456589Y-113619752D01*
X147456589Y-113619752D02*
X147418494Y-113581657D01*
X147418494Y-113581657D02*
X147342303Y-113543561D01*
X147342303Y-113543561D02*
X147266113Y-113543561D01*
X146847065Y-113276895D02*
X146770875Y-113276895D01*
X146770875Y-113276895D02*
X146694684Y-113314990D01*
X146694684Y-113314990D02*
X146656589Y-113353085D01*
X146656589Y-113353085D02*
X146618494Y-113429276D01*
X146618494Y-113429276D02*
X146580399Y-113581657D01*
X146580399Y-113581657D02*
X146580399Y-113772133D01*
X146580399Y-113772133D02*
X146618494Y-113924514D01*
X146618494Y-113924514D02*
X146656589Y-114000704D01*
X146656589Y-114000704D02*
X146694684Y-114038800D01*
X146694684Y-114038800D02*
X146770875Y-114076895D01*
X146770875Y-114076895D02*
X146847065Y-114076895D01*
X146847065Y-114076895D02*
X146923256Y-114038800D01*
X146923256Y-114038800D02*
X146961351Y-114000704D01*
X146961351Y-114000704D02*
X146999446Y-113924514D01*
X146999446Y-113924514D02*
X147037542Y-113772133D01*
X147037542Y-113772133D02*
X147037542Y-113581657D01*
X147037542Y-113581657D02*
X146999446Y-113429276D01*
X146999446Y-113429276D02*
X146961351Y-113353085D01*
X146961351Y-113353085D02*
X146923256Y-113314990D01*
X146923256Y-113314990D02*
X146847065Y-113276895D01*
X146313732Y-114076895D02*
X145894684Y-113543561D01*
X146313732Y-113543561D02*
X145894684Y-114076895D01*
X145018494Y-113238800D02*
X145704208Y-114267371D01*
X144751827Y-114076895D02*
X144751827Y-113543561D01*
X144751827Y-113619752D02*
X144713732Y-113581657D01*
X144713732Y-113581657D02*
X144637542Y-113543561D01*
X144637542Y-113543561D02*
X144523256Y-113543561D01*
X144523256Y-113543561D02*
X144447065Y-113581657D01*
X144447065Y-113581657D02*
X144408970Y-113657847D01*
X144408970Y-113657847D02*
X144408970Y-114076895D01*
X144408970Y-113657847D02*
X144370875Y-113581657D01*
X144370875Y-113581657D02*
X144294684Y-113543561D01*
X144294684Y-113543561D02*
X144180399Y-113543561D01*
X144180399Y-113543561D02*
X144104208Y-113581657D01*
X144104208Y-113581657D02*
X144066113Y-113657847D01*
X144066113Y-113657847D02*
X144066113Y-114076895D01*
X143685160Y-114076895D02*
X143685160Y-113543561D01*
X143685160Y-113276895D02*
X143723256Y-113314990D01*
X143723256Y-113314990D02*
X143685160Y-113353085D01*
X143685160Y-113353085D02*
X143647065Y-113314990D01*
X143647065Y-113314990D02*
X143685160Y-113276895D01*
X143685160Y-113276895D02*
X143685160Y-113353085D01*
X142961351Y-114076895D02*
X142961351Y-113276895D01*
X142961351Y-114038800D02*
X143037542Y-114076895D01*
X143037542Y-114076895D02*
X143189923Y-114076895D01*
X143189923Y-114076895D02*
X143266113Y-114038800D01*
X143266113Y-114038800D02*
X143304208Y-114000704D01*
X143304208Y-114000704D02*
X143342304Y-113924514D01*
X143342304Y-113924514D02*
X143342304Y-113695942D01*
X143342304Y-113695942D02*
X143304208Y-113619752D01*
X143304208Y-113619752D02*
X143266113Y-113581657D01*
X143266113Y-113581657D02*
X143189923Y-113543561D01*
X143189923Y-113543561D02*
X143037542Y-113543561D01*
X143037542Y-113543561D02*
X142961351Y-113581657D01*
X142580398Y-114076895D02*
X142580398Y-113543561D01*
X142580398Y-113276895D02*
X142618494Y-113314990D01*
X142618494Y-113314990D02*
X142580398Y-113353085D01*
X142580398Y-113353085D02*
X142542303Y-113314990D01*
X142542303Y-113314990D02*
X142580398Y-113276895D01*
X142580398Y-113276895D02*
X142580398Y-113353085D01*
X142389923Y-114153085D02*
X141780399Y-114153085D01*
X141247065Y-114038800D02*
X141323256Y-114076895D01*
X141323256Y-114076895D02*
X141475637Y-114076895D01*
X141475637Y-114076895D02*
X141551827Y-114038800D01*
X141551827Y-114038800D02*
X141589922Y-114000704D01*
X141589922Y-114000704D02*
X141628018Y-113924514D01*
X141628018Y-113924514D02*
X141628018Y-113695942D01*
X141628018Y-113695942D02*
X141589922Y-113619752D01*
X141589922Y-113619752D02*
X141551827Y-113581657D01*
X141551827Y-113581657D02*
X141475637Y-113543561D01*
X141475637Y-113543561D02*
X141323256Y-113543561D01*
X141323256Y-113543561D02*
X141247065Y-113581657D01*
X140789923Y-114076895D02*
X140866113Y-114038800D01*
X140866113Y-114038800D02*
X140904208Y-114000704D01*
X140904208Y-114000704D02*
X140942304Y-113924514D01*
X140942304Y-113924514D02*
X140942304Y-113695942D01*
X140942304Y-113695942D02*
X140904208Y-113619752D01*
X140904208Y-113619752D02*
X140866113Y-113581657D01*
X140866113Y-113581657D02*
X140789923Y-113543561D01*
X140789923Y-113543561D02*
X140675637Y-113543561D01*
X140675637Y-113543561D02*
X140599446Y-113581657D01*
X140599446Y-113581657D02*
X140561351Y-113619752D01*
X140561351Y-113619752D02*
X140523256Y-113695942D01*
X140523256Y-113695942D02*
X140523256Y-113924514D01*
X140523256Y-113924514D02*
X140561351Y-114000704D01*
X140561351Y-114000704D02*
X140599446Y-114038800D01*
X140599446Y-114038800D02*
X140675637Y-114076895D01*
X140675637Y-114076895D02*
X140789923Y-114076895D01*
X140180398Y-113543561D02*
X140180398Y-114076895D01*
X140180398Y-113619752D02*
X140142303Y-113581657D01*
X140142303Y-113581657D02*
X140066113Y-113543561D01*
X140066113Y-113543561D02*
X139951827Y-113543561D01*
X139951827Y-113543561D02*
X139875636Y-113581657D01*
X139875636Y-113581657D02*
X139837541Y-113657847D01*
X139837541Y-113657847D02*
X139837541Y-114076895D01*
X139570874Y-113543561D02*
X139266112Y-113543561D01*
X139456588Y-113276895D02*
X139456588Y-113962609D01*
X139456588Y-113962609D02*
X139418493Y-114038800D01*
X139418493Y-114038800D02*
X139342303Y-114076895D01*
X139342303Y-114076895D02*
X139266112Y-114076895D01*
X138999445Y-114076895D02*
X138999445Y-113543561D01*
X138999445Y-113695942D02*
X138961350Y-113619752D01*
X138961350Y-113619752D02*
X138923255Y-113581657D01*
X138923255Y-113581657D02*
X138847064Y-113543561D01*
X138847064Y-113543561D02*
X138770874Y-113543561D01*
X138389922Y-114076895D02*
X138466112Y-114038800D01*
X138466112Y-114038800D02*
X138504207Y-114000704D01*
X138504207Y-114000704D02*
X138542303Y-113924514D01*
X138542303Y-113924514D02*
X138542303Y-113695942D01*
X138542303Y-113695942D02*
X138504207Y-113619752D01*
X138504207Y-113619752D02*
X138466112Y-113581657D01*
X138466112Y-113581657D02*
X138389922Y-113543561D01*
X138389922Y-113543561D02*
X138275636Y-113543561D01*
X138275636Y-113543561D02*
X138199445Y-113581657D01*
X138199445Y-113581657D02*
X138161350Y-113619752D01*
X138161350Y-113619752D02*
X138123255Y-113695942D01*
X138123255Y-113695942D02*
X138123255Y-113924514D01*
X138123255Y-113924514D02*
X138161350Y-114000704D01*
X138161350Y-114000704D02*
X138199445Y-114038800D01*
X138199445Y-114038800D02*
X138275636Y-114076895D01*
X138275636Y-114076895D02*
X138389922Y-114076895D01*
X137666112Y-114076895D02*
X137742302Y-114038800D01*
X137742302Y-114038800D02*
X137780397Y-113962609D01*
X137780397Y-113962609D02*
X137780397Y-113276895D01*
X137247064Y-114076895D02*
X137323254Y-114038800D01*
X137323254Y-114038800D02*
X137361349Y-113962609D01*
X137361349Y-113962609D02*
X137361349Y-113276895D01*
X136637539Y-114038800D02*
X136713730Y-114076895D01*
X136713730Y-114076895D02*
X136866111Y-114076895D01*
X136866111Y-114076895D02*
X136942301Y-114038800D01*
X136942301Y-114038800D02*
X136980397Y-113962609D01*
X136980397Y-113962609D02*
X136980397Y-113657847D01*
X136980397Y-113657847D02*
X136942301Y-113581657D01*
X136942301Y-113581657D02*
X136866111Y-113543561D01*
X136866111Y-113543561D02*
X136713730Y-113543561D01*
X136713730Y-113543561D02*
X136637539Y-113581657D01*
X136637539Y-113581657D02*
X136599444Y-113657847D01*
X136599444Y-113657847D02*
X136599444Y-113734038D01*
X136599444Y-113734038D02*
X136980397Y-113810228D01*
X136256587Y-114076895D02*
X136256587Y-113543561D01*
X136256587Y-113695942D02*
X136218492Y-113619752D01*
X136218492Y-113619752D02*
X136180397Y-113581657D01*
X136180397Y-113581657D02*
X136104206Y-113543561D01*
X136104206Y-113543561D02*
X136028016Y-113543561D01*
D11*
X149807945Y-115052457D02*
X149760326Y-115004838D01*
X149760326Y-115004838D02*
X149665088Y-114957219D01*
X149665088Y-114957219D02*
X149426993Y-114957219D01*
X149426993Y-114957219D02*
X149331755Y-115004838D01*
X149331755Y-115004838D02*
X149284136Y-115052457D01*
X149284136Y-115052457D02*
X149236517Y-115147695D01*
X149236517Y-115147695D02*
X149236517Y-115242933D01*
X149236517Y-115242933D02*
X149284136Y-115385790D01*
X149284136Y-115385790D02*
X149855564Y-115957219D01*
X149855564Y-115957219D02*
X149236517Y-115957219D01*
X148617469Y-114957219D02*
X148522231Y-114957219D01*
X148522231Y-114957219D02*
X148426993Y-115004838D01*
X148426993Y-115004838D02*
X148379374Y-115052457D01*
X148379374Y-115052457D02*
X148331755Y-115147695D01*
X148331755Y-115147695D02*
X148284136Y-115338171D01*
X148284136Y-115338171D02*
X148284136Y-115576266D01*
X148284136Y-115576266D02*
X148331755Y-115766742D01*
X148331755Y-115766742D02*
X148379374Y-115861980D01*
X148379374Y-115861980D02*
X148426993Y-115909600D01*
X148426993Y-115909600D02*
X148522231Y-115957219D01*
X148522231Y-115957219D02*
X148617469Y-115957219D01*
X148617469Y-115957219D02*
X148712707Y-115909600D01*
X148712707Y-115909600D02*
X148760326Y-115861980D01*
X148760326Y-115861980D02*
X148807945Y-115766742D01*
X148807945Y-115766742D02*
X148855564Y-115576266D01*
X148855564Y-115576266D02*
X148855564Y-115338171D01*
X148855564Y-115338171D02*
X148807945Y-115147695D01*
X148807945Y-115147695D02*
X148760326Y-115052457D01*
X148760326Y-115052457D02*
X148712707Y-115004838D01*
X148712707Y-115004838D02*
X148617469Y-114957219D01*
X147903183Y-115052457D02*
X147855564Y-115004838D01*
X147855564Y-115004838D02*
X147760326Y-114957219D01*
X147760326Y-114957219D02*
X147522231Y-114957219D01*
X147522231Y-114957219D02*
X147426993Y-115004838D01*
X147426993Y-115004838D02*
X147379374Y-115052457D01*
X147379374Y-115052457D02*
X147331755Y-115147695D01*
X147331755Y-115147695D02*
X147331755Y-115242933D01*
X147331755Y-115242933D02*
X147379374Y-115385790D01*
X147379374Y-115385790D02*
X147950802Y-115957219D01*
X147950802Y-115957219D02*
X147331755Y-115957219D01*
X146474612Y-114957219D02*
X146665088Y-114957219D01*
X146665088Y-114957219D02*
X146760326Y-115004838D01*
X146760326Y-115004838D02*
X146807945Y-115052457D01*
X146807945Y-115052457D02*
X146903183Y-115195314D01*
X146903183Y-115195314D02*
X146950802Y-115385790D01*
X146950802Y-115385790D02*
X146950802Y-115766742D01*
X146950802Y-115766742D02*
X146903183Y-115861980D01*
X146903183Y-115861980D02*
X146855564Y-115909600D01*
X146855564Y-115909600D02*
X146760326Y-115957219D01*
X146760326Y-115957219D02*
X146569850Y-115957219D01*
X146569850Y-115957219D02*
X146474612Y-115909600D01*
X146474612Y-115909600D02*
X146426993Y-115861980D01*
X146426993Y-115861980D02*
X146379374Y-115766742D01*
X146379374Y-115766742D02*
X146379374Y-115528647D01*
X146379374Y-115528647D02*
X146426993Y-115433409D01*
X146426993Y-115433409D02*
X146474612Y-115385790D01*
X146474612Y-115385790D02*
X146569850Y-115338171D01*
X146569850Y-115338171D02*
X146760326Y-115338171D01*
X146760326Y-115338171D02*
X146855564Y-115385790D01*
X146855564Y-115385790D02*
X146903183Y-115433409D01*
X146903183Y-115433409D02*
X146950802Y-115528647D01*
X145950802Y-115861980D02*
X145903183Y-115909600D01*
X145903183Y-115909600D02*
X145950802Y-115957219D01*
X145950802Y-115957219D02*
X145998421Y-115909600D01*
X145998421Y-115909600D02*
X145950802Y-115861980D01*
X145950802Y-115861980D02*
X145950802Y-115957219D01*
X145284136Y-114957219D02*
X145188898Y-114957219D01*
X145188898Y-114957219D02*
X145093660Y-115004838D01*
X145093660Y-115004838D02*
X145046041Y-115052457D01*
X145046041Y-115052457D02*
X144998422Y-115147695D01*
X144998422Y-115147695D02*
X144950803Y-115338171D01*
X144950803Y-115338171D02*
X144950803Y-115576266D01*
X144950803Y-115576266D02*
X144998422Y-115766742D01*
X144998422Y-115766742D02*
X145046041Y-115861980D01*
X145046041Y-115861980D02*
X145093660Y-115909600D01*
X145093660Y-115909600D02*
X145188898Y-115957219D01*
X145188898Y-115957219D02*
X145284136Y-115957219D01*
X145284136Y-115957219D02*
X145379374Y-115909600D01*
X145379374Y-115909600D02*
X145426993Y-115861980D01*
X145426993Y-115861980D02*
X145474612Y-115766742D01*
X145474612Y-115766742D02*
X145522231Y-115576266D01*
X145522231Y-115576266D02*
X145522231Y-115338171D01*
X145522231Y-115338171D02*
X145474612Y-115147695D01*
X145474612Y-115147695D02*
X145426993Y-115052457D01*
X145426993Y-115052457D02*
X145379374Y-115004838D01*
X145379374Y-115004838D02*
X145284136Y-114957219D01*
X144046041Y-114957219D02*
X144522231Y-114957219D01*
X144522231Y-114957219D02*
X144569850Y-115433409D01*
X144569850Y-115433409D02*
X144522231Y-115385790D01*
X144522231Y-115385790D02*
X144426993Y-115338171D01*
X144426993Y-115338171D02*
X144188898Y-115338171D01*
X144188898Y-115338171D02*
X144093660Y-115385790D01*
X144093660Y-115385790D02*
X144046041Y-115433409D01*
X144046041Y-115433409D02*
X143998422Y-115528647D01*
X143998422Y-115528647D02*
X143998422Y-115766742D01*
X143998422Y-115766742D02*
X144046041Y-115861980D01*
X144046041Y-115861980D02*
X144093660Y-115909600D01*
X144093660Y-115909600D02*
X144188898Y-115957219D01*
X144188898Y-115957219D02*
X144426993Y-115957219D01*
X144426993Y-115957219D02*
X144522231Y-115909600D01*
X144522231Y-115909600D02*
X144569850Y-115861980D01*
X143569850Y-115861980D02*
X143522231Y-115909600D01*
X143522231Y-115909600D02*
X143569850Y-115957219D01*
X143569850Y-115957219D02*
X143617469Y-115909600D01*
X143617469Y-115909600D02*
X143569850Y-115861980D01*
X143569850Y-115861980D02*
X143569850Y-115957219D01*
X143141279Y-115052457D02*
X143093660Y-115004838D01*
X143093660Y-115004838D02*
X142998422Y-114957219D01*
X142998422Y-114957219D02*
X142760327Y-114957219D01*
X142760327Y-114957219D02*
X142665089Y-115004838D01*
X142665089Y-115004838D02*
X142617470Y-115052457D01*
X142617470Y-115052457D02*
X142569851Y-115147695D01*
X142569851Y-115147695D02*
X142569851Y-115242933D01*
X142569851Y-115242933D02*
X142617470Y-115385790D01*
X142617470Y-115385790D02*
X143188898Y-115957219D01*
X143188898Y-115957219D02*
X142569851Y-115957219D01*
X142093660Y-115957219D02*
X141903184Y-115957219D01*
X141903184Y-115957219D02*
X141807946Y-115909600D01*
X141807946Y-115909600D02*
X141760327Y-115861980D01*
X141760327Y-115861980D02*
X141665089Y-115719123D01*
X141665089Y-115719123D02*
X141617470Y-115528647D01*
X141617470Y-115528647D02*
X141617470Y-115147695D01*
X141617470Y-115147695D02*
X141665089Y-115052457D01*
X141665089Y-115052457D02*
X141712708Y-115004838D01*
X141712708Y-115004838D02*
X141807946Y-114957219D01*
X141807946Y-114957219D02*
X141998422Y-114957219D01*
X141998422Y-114957219D02*
X142093660Y-115004838D01*
X142093660Y-115004838D02*
X142141279Y-115052457D01*
X142141279Y-115052457D02*
X142188898Y-115147695D01*
X142188898Y-115147695D02*
X142188898Y-115385790D01*
X142188898Y-115385790D02*
X142141279Y-115481028D01*
X142141279Y-115481028D02*
X142093660Y-115528647D01*
X142093660Y-115528647D02*
X141998422Y-115576266D01*
X141998422Y-115576266D02*
X141807946Y-115576266D01*
X141807946Y-115576266D02*
X141712708Y-115528647D01*
X141712708Y-115528647D02*
X141665089Y-115481028D01*
X141665089Y-115481028D02*
X141617470Y-115385790D01*
D12*
X137333333Y-93264819D02*
X137333333Y-93979104D01*
X137333333Y-93979104D02*
X137380952Y-94121961D01*
X137380952Y-94121961D02*
X137476190Y-94217200D01*
X137476190Y-94217200D02*
X137619047Y-94264819D01*
X137619047Y-94264819D02*
X137714285Y-94264819D01*
X136333333Y-94264819D02*
X136904761Y-94264819D01*
X136619047Y-94264819D02*
X136619047Y-93264819D01*
X136619047Y-93264819D02*
X136714285Y-93407676D01*
X136714285Y-93407676D02*
X136809523Y-93502914D01*
X136809523Y-93502914D02*
X136904761Y-93550533D01*
%TO.C,J1*%
D13*
X135620000Y-97460000D02*
X135620000Y-105190000D01*
X138380000Y-94810000D02*
X137000000Y-94810000D01*
X138380000Y-96190000D02*
X138380000Y-94810000D01*
X138380000Y-97460000D02*
X135620000Y-97460000D01*
X138380000Y-97460000D02*
X138380000Y-105190000D01*
X138380000Y-105190000D02*
X135620000Y-105190000D01*
%TD*%
M02*
